<?xml version="1.0" encoding="UTF-8" standalone="no"?><!DOCTYPE svg PUBLIC "-//W3C//DTD SVG 1.1//EN" "http://www.w3.org/Graphics/SVG/1.1/DTD/svg11.dtd"><svg width="100%" height="100%" viewBox="0 0 1920 1080" version="1.1" xmlns="http://www.w3.org/2000/svg" xmlns:xlink="http://www.w3.org/1999/xlink" xml:space="preserve" xmlns:serif="http://www.serif.com/" style="fill-rule:evenodd;clip-rule:evenodd;stroke-linejoin:round;stroke-miterlimit:2;"><g><path d="M772.942,657.604l-0,11.056c-1.605,0.446 -3.993,0.667 -7.193,0.667c-10.158,-0 -18.043,-1.119 -23.712,-3.346c-5.653,-2.227 -9.861,-5.136 -12.615,-8.693c-2.754,-3.576 -4.414,-7.674 -5.006,-12.319c-0.577,-4.615 -0.868,-9.32 -0.868,-14.126l0,-90.355l18.489,0l0,90.355c0,5.247 0.337,9.596 0.989,13.047c0.647,3.451 1.836,6.195 3.591,8.192c1.736,2.026 4.239,3.436 7.489,4.273c3.266,0.838 7.509,1.249 12.741,1.249l6.095,0Z" style="fill:#fff;fill-rule:nonzero;"/><path d="M563.043,538.798c9.134,0 16.172,1.209 21.103,3.602c4.92,2.402 8.512,5.352 10.764,8.868c2.252,3.516 3.587,7.314 4.023,11.387c0.432,4.068 0.652,7.78 0.652,11.12l0,93.877l-20.666,-0l-0,-93.37c-0,-2.348 -0.1,-4.8 -0.321,-7.364c-0.221,-2.563 -0.868,-4.936 -1.956,-7.113c-1.094,-2.177 -2.799,-3.967 -5.117,-5.352c-2.322,-1.394 -5.653,-2.096 -10.007,-2.096c-1.159,-0 -2.759,0.065 -4.78,0.17c-2.037,0.115 -4.279,0.336 -6.747,0.667c-2.468,0.341 -5.076,0.868 -7.83,1.59c-2.764,0.728 -5.367,1.651 -7.83,2.754l-0,110.114l-20.667,-0l0,-98.898c0,-2.227 -0.22,-4.319 -0.652,-6.275c-0.441,-1.941 -1.304,-3.682 -2.603,-5.182c-1.314,-1.504 -3.125,-2.708 -5.442,-3.596c-2.328,-0.888 -5.373,-1.344 -9.14,-1.344c-1.023,-0 -2.508,0.065 -4.459,0.17c-1.961,0.115 -4.133,0.336 -6.531,0.667c-2.388,0.341 -4.926,0.868 -7.609,1.59c-2.694,0.728 -5.333,1.651 -7.941,2.754l0,110.114l-20.666,-0l-0,-117.292c4.785,-2.904 9.606,-5.141 14.466,-6.701c4.856,-1.565 9.46,-2.704 13.814,-3.426c4.349,-0.728 8.337,-1.144 11.964,-1.259c3.627,-0.111 6.591,-0.176 8.918,-0.176c6.376,0 11.673,0.587 15.881,1.766c4.199,1.168 7.68,2.764 10.439,4.77c3.918,-1.675 7.79,-2.934 11.637,-3.767c3.848,-0.838 7.474,-1.48 10.88,-1.926c3.406,-0.452 6.521,-0.698 9.355,-0.748c2.824,-0.055 5.177,-0.095 7.068,-0.095" style="fill:#fff;fill-rule:nonzero;"/><path d="M705.52,577.126l0,86.347c-7.248,1.901 -14.286,3.316 -21.097,4.264c-6.817,0.953 -13.273,1.429 -19.363,1.429c-6.957,0 -13.307,-0.622 -19.031,-1.85c-5.728,-1.224 -10.694,-3.115 -14.903,-5.684c-4.208,-2.568 -7.468,-5.768 -9.786,-9.621c-2.317,-3.847 -3.481,-8.392 -3.481,-13.638l-0,-61.247l18.705,0l-0,20.586c-0,5.914 0.04,11.041 0.11,15.395c0.071,4.348 0.116,8 0.116,10.955l-0,14.145c-0,6.361 2.748,11.291 8.251,14.803c5.518,3.521 13.278,5.277 23.285,5.277c2.899,-0 5.874,-0.171 8.919,-0.502c3.039,-0.331 6.23,-0.783 9.57,-1.339l0,-79.32l18.705,0Z" style="fill:#fff;fill-rule:nonzero;"/><path d="M800.159,540.483l0,36.643l30.889,0l-7.83,12.049l-23.059,-0l0,41.663c0,5.252 0.326,9.596 0.978,13.052c0.652,3.461 1.851,6.2 3.592,8.197c1.75,2.011 4.243,3.436 7.504,4.273c3.265,0.833 7.509,1.254 12.731,1.254l6.084,0l0,11.046c-1.595,0.446 -3.988,0.667 -7.173,0.667c-10.157,-0 -18.063,-1.119 -23.716,-3.346c-5.648,-2.232 -9.862,-5.131 -12.62,-8.698c-2.744,-3.571 -4.42,-7.674 -5.002,-12.304c-0.581,-4.63 -0.862,-9.34 -0.862,-14.141l-0,-90.355l18.484,0Z" style="fill:#fff;fill-rule:nonzero;"/><rect x="851.499" y="577.121" width="18.71" height="90.531" style="fill:#fff;"/><rect x="895.661" y="540.478" width="20.656" height="127.173" style="fill:#fff;"/><path d="M1025.09,667.657l-18.494,-0l-0,-61.081c-0,-6.351 -2.86,-11.347 -8.583,-14.968c-5.733,-3.627 -13.679,-5.443 -23.816,-5.443c-5.518,0 -11.252,0.557 -17.196,1.67l0,79.822l-18.489,-0l0,-86.849c14.211,-3.567 27.192,-5.357 38.94,-5.357c6.962,-0 13.343,0.642 19.147,1.926c5.793,1.284 10.834,3.21 15.118,5.778c4.279,2.559 7.569,5.774 9.897,9.616c2.317,3.853 3.476,8.397 3.476,13.639l-0,61.247Z" style="fill:#fff;fill-rule:nonzero;"/><path d="M1062.72,540.483l-0,36.643l30.894,0l-7.83,12.049l-23.064,-0l-0,41.663c-0,5.252 0.336,9.596 0.983,13.052c0.652,3.461 1.846,6.2 3.586,8.197c1.741,2.011 4.249,3.436 7.504,4.273c3.271,0.833 7.51,1.254 12.731,1.254l6.09,0l-0,11.046c-1.595,0.446 -3.993,0.667 -7.173,0.667c-10.158,-0 -18.063,-1.119 -23.721,-3.346c-5.653,-2.232 -9.862,-5.131 -12.621,-8.698c-2.754,-3.571 -4.419,-7.674 -4.996,-12.304c-0.582,-4.63 -0.873,-9.34 -0.873,-14.141l0,-90.355l18.49,0Z" style="fill:#fff;fill-rule:nonzero;"/><path d="M1149.74,587.168c-6.245,0 -11.02,0.698 -14.356,2.087c-3.336,1.394 -5.769,3.27 -7.288,5.603c-1.53,2.353 -2.423,5.081 -2.719,8.201c-0.296,3.135 -0.432,6.476 -0.432,10.048l0,1.665l49.59,-0c-0,-4.685 -0.251,-8.753 -0.763,-12.209c-0.511,-3.456 -1.59,-6.331 -3.26,-8.613c-1.666,-2.287 -4.129,-3.993 -7.394,-5.101c-3.265,-1.119 -7.725,-1.681 -13.378,-1.681m-24.795,38.825l0,4.519c0,3.898 0.136,7.469 0.432,10.705c0.296,3.235 1.189,6.079 2.719,8.542c1.519,2.443 3.952,4.344 7.288,5.678c3.336,1.345 8.111,2.017 14.356,2.017c9.425,-0 15.871,-1.485 19.357,-4.444c3.481,-2.955 5.227,-7.108 5.227,-12.465l3.692,-0c1.595,-0 3.265,-0.02 5.001,-0.081c1.745,-0.055 3.476,-0.09 5.227,-0.09l4.569,0c0,4.359 -0.652,8.292 -1.956,11.808c-1.304,3.506 -3.602,6.521 -6.857,9.029c-3.265,2.513 -7.69,4.464 -13.263,5.864c-5.593,1.384 -12.585,2.091 -20.997,2.091c-9.867,0 -17.662,-0.983 -23.385,-2.934c-5.733,-1.946 -10.042,-4.63 -12.947,-8.036c-2.899,-3.401 -4.785,-7.439 -5.648,-12.129c-0.878,-4.68 -1.309,-9.816 -1.309,-15.389l0,-16.408c0,-5.568 0.396,-10.729 1.199,-15.474c0.787,-4.746 2.679,-8.839 5.653,-12.3c2.975,-3.451 7.319,-6.165 13.052,-8.111c5.723,-1.956 13.518,-2.934 23.385,-2.934c9.134,-0 16.528,0.953 22.191,2.849c5.653,1.896 10.037,4.549 13.158,7.95c3.115,3.396 5.221,7.524 6.305,12.385c1.088,4.846 1.635,10.228 1.635,16.137l-0,11.221l-68.084,-0Z" style="fill:#fff;fill-rule:nonzero;"/><path d="M1275.24,590.012c-9.129,-2.457 -17.11,-3.676 -23.927,-3.676c-8.838,-0 -15.334,1.836 -19.467,5.512c-4.134,3.682 -6.2,8.533 -6.2,14.562l-0,23.927c-0,3.902 0.14,7.509 0.431,10.794c0.291,3.291 1.199,6.135 2.719,8.533c1.525,2.408 3.953,4.299 7.293,5.693c3.336,1.395 8.121,2.092 14.361,2.092c5.653,-0 10.143,-0.567 13.484,-1.686c3.33,-1.108 5.798,-2.668 7.398,-4.68c1.595,-2.006 2.634,-4.318 3.155,-6.937c0.497,-2.613 0.753,-5.437 0.753,-8.457l-0,-45.677Zm18.274,-6.365l-0,89.196c-0,4.906 -0.542,9.395 -1.631,13.469c-1.083,4.073 -3.195,7.554 -6.305,10.458c-3.125,2.899 -7.509,5.132 -13.162,6.687c-5.658,1.565 -13.052,2.347 -22.186,2.347c-7.841,0 -14.507,-0.642 -20.02,-1.926c-5.512,-1.279 -9.967,-3.115 -13.383,-5.513c-3.401,-2.413 -5.863,-5.332 -7.383,-8.783c-1.53,-3.466 -2.293,-7.379 -2.293,-11.723l18.495,0c-0,2.122 0.251,4.154 0.762,6.105c0.502,1.956 1.635,3.692 3.371,5.192c1.741,1.504 4.244,2.703 7.509,3.591c3.261,0.898 7.569,1.344 12.942,1.344c6.23,0 11.015,-0.722 14.351,-2.171c3.335,-1.455 5.798,-3.462 7.403,-6.03c1.591,-2.568 2.529,-5.578 2.825,-9.034c0.29,-3.461 0.431,-7.138 0.431,-11.045c-6.235,2.237 -14.502,3.35 -24.79,3.35c-9.871,0 -17.661,-0.978 -23.385,-2.934c-5.738,-1.941 -10.047,-4.65 -12.951,-8.111c-2.905,-3.461 -4.791,-7.534 -5.653,-12.214c-0.868,-4.685 -1.31,-9.762 -1.31,-15.229l0,-24.263c0,-10.263 3.562,-17.988 10.665,-23.179c7.102,-5.187 17.029,-7.78 29.795,-7.78c5.082,-0 10.629,0.426 16.649,1.254c6.014,0.837 12.359,2.142 19.026,3.932l10.228,3.01Z" style="fill:#fff;fill-rule:nonzero;"/><path d="M1314.4,592.942c1.309,-3.853 3.772,-6.952 7.403,-9.295c3.622,-2.333 8.513,-4.013 14.672,-5.016c6.165,-1.008 14.181,-1.505 24.043,-1.505l20.882,0l-7.82,11.883l-11.758,0c-6.24,0 -11.347,0.246 -15.339,0.748c-3.978,0.506 -7.143,1.424 -9.461,2.768c-2.322,1.335 -3.912,3.206 -4.775,5.603c-0.878,2.398 -1.314,5.498 -1.314,9.285l-0,60.244l-18.49,-0l0,-60.244c0,-5.798 0.647,-10.624 1.957,-14.471" style="fill:#fff;fill-rule:nonzero;"/><path d="M1456.01,634.355c-1.595,-1.565 -5.041,-2.99 -10.333,-4.269c-5.292,-1.274 -11.422,-1.921 -18.384,-1.921c-3.18,-0 -6.27,0.221 -9.24,0.662c-2.974,0.451 -5.588,1.154 -7.835,2.092c-2.247,0.953 -4.058,2.212 -5.432,3.762c-1.39,1.57 -2.072,3.466 -2.072,5.693c0,6.255 3.04,10.855 9.139,13.814c6.085,2.95 14.281,4.43 24.584,4.43c6.09,-0 12.611,-0.668 19.573,-2.007l0,-22.256Zm18.494,29.444c-14.361,3.682 -27.994,5.528 -40.896,5.528c-7.258,-0 -13.889,-0.532 -19.914,-1.59c-6.014,-1.059 -11.271,-2.759 -15.765,-5.101c-4.495,-2.348 -7.971,-5.383 -10.444,-9.125c-2.468,-3.732 -3.687,-8.221 -3.687,-13.463c0,-4.57 1.219,-8.397 3.687,-11.462c2.473,-3.08 5.729,-5.528 9.797,-7.368c4.058,-1.836 8.697,-3.151 13.914,-3.933c5.217,-0.783 10.594,-1.169 16.097,-1.169c5.076,0 10.012,0.281 14.797,0.833c4.791,0.567 9.426,1.565 13.92,3.02l0,-11.553c0,-2.006 -0.226,-4.243 -0.647,-6.691c-0.441,-2.458 -1.605,-4.735 -3.481,-6.867c-1.891,-2.117 -4.791,-3.872 -8.708,-5.267c-3.913,-1.394 -9.355,-2.092 -16.312,-2.092c-15.952,0 -23.927,5.137 -23.927,15.4l-18.063,-0c-0,-3.682 0.842,-7.168 2.508,-10.459c1.665,-3.295 4.243,-6.19 7.72,-8.708c3.491,-2.508 7.97,-4.514 13.493,-6.019c5.508,-1.51 12.104,-2.262 19.788,-2.262c9.862,-0 17.808,0.923 23.827,2.769c6.004,1.835 10.649,4.233 13.92,7.188c3.26,2.954 5.462,6.33 6.631,10.122c1.169,3.797 1.745,7.64 1.745,11.547l0,56.722Z" style="fill:#fff;fill-rule:nonzero;"/><path d="M597.539,713.78c-2.559,-3.983 -6.602,-7.344 -12.039,-9.987c-5.412,-2.639 -12.756,-3.918 -22.457,-3.918c-1.906,0 -4.274,0.035 -7.128,0.085c-2.934,0.061 -6.19,0.326 -9.696,0.778c-3.491,0.456 -7.238,1.118 -11.136,1.971c-3.486,0.753 -7.057,1.861 -10.629,3.286c-2.774,-1.751 -6.12,-3.176 -9.957,-4.244c-4.464,-1.244 -10.082,-1.876 -16.714,-1.876c-2.352,0 -5.392,0.06 -9.018,0.176c-3.747,0.11 -7.916,0.546 -12.375,1.294c-4.495,0.752 -9.285,1.936 -14.251,3.541c-5.076,1.625 -10.173,3.983 -15.133,6.988l-1.5,0.912l-0,122.163l26.891,-0l0,-111.117c1.876,-0.732 3.767,-1.354 5.648,-1.856c2.528,-0.682 4.961,-1.194 7.223,-1.515c2.293,-0.311 4.409,-0.537 6.27,-0.642c1.962,-0.105 3.366,-0.16 4.289,-0.16c3.371,-0 6.065,0.381 8.016,1.123c1.831,0.712 3.25,1.635 4.198,2.729c0.974,1.124 1.611,2.378 1.927,3.832c0.391,1.726 0.576,3.612 0.576,5.598l0,102.008l26.897,-0l-0,-111.162c1.77,-0.702 3.616,-1.309 5.507,-1.806c2.614,-0.687 5.127,-1.199 7.459,-1.515c2.368,-0.316 4.56,-0.542 6.496,-0.647c2.042,-0.105 3.542,-0.16 4.615,-0.16c3.762,-0 6.591,0.551 8.402,1.64c1.821,1.103 3.11,2.438 3.938,4.083c0.898,1.806 1.449,3.822 1.635,5.989c0.206,2.458 0.321,4.851 0.321,7.093l-0,96.485l26.886,-0l0,-96.987c0,-3.431 -0.225,-7.283 -0.667,-11.456c-0.486,-4.53 -2.001,-8.814 -4.494,-12.726" style="fill:#fff;fill-rule:nonzero;"/><path d="M662.011,754.465c5.292,0 9.455,0.507 12.374,1.505c2.669,0.913 4.595,2.222 5.889,3.988c1.355,1.866 2.273,4.299 2.704,7.233c0.361,2.518 0.592,5.412 0.677,8.653l-43.309,-0c0.03,-2.955 0.166,-5.744 0.411,-8.317c0.241,-2.593 0.989,-4.88 2.223,-6.787c1.168,-1.79 3.145,-3.285 5.878,-4.429c2.94,-1.224 7.369,-1.846 13.153,-1.846m37.65,-6.144c-3.471,-3.778 -8.336,-6.732 -14.471,-8.794c-5.954,-1.991 -13.749,-3.004 -23.179,-3.004c-10.153,-0 -18.354,1.043 -24.384,3.095c-6.235,2.121 -11.085,5.161 -14.411,9.034c-3.336,3.877 -5.477,8.527 -6.36,13.814c-0.818,4.871 -1.239,10.253 -1.239,15.991l-0,16.398c-0,5.758 0.456,11.131 1.354,15.961c0.968,5.202 3.1,9.787 6.345,13.584c3.261,3.822 8.071,6.837 14.311,8.963c6.03,2.052 14.231,3.095 24.384,3.095c8.622,0 15.941,-0.742 21.749,-2.192c5.975,-1.484 10.825,-3.641 14.417,-6.405c3.712,-2.854 6.36,-6.356 7.87,-10.419c1.435,-3.847 2.157,-8.176 2.157,-12.886l-0,-3.11l-7.685,0c-1.775,0 -3.546,0.03 -5.327,0.085c-1.7,0.055 -3.341,0.081 -4.891,0.081l-6.821,-0l-0,3.12c-0,4.434 -1.345,7.734 -4.119,10.087c-1.986,1.69 -6.606,3.707 -17.35,3.707c-5.809,-0 -10.243,-0.612 -13.198,-1.796c-2.723,-1.093 -4.62,-2.543 -5.798,-4.439c-1.259,-2.027 -2.017,-4.434 -2.258,-7.178c-0.286,-3.08 -0.421,-6.586 -0.421,-10.419l0,-1.414l68.079,-0l-0,-14.316c-0,-6.12 -0.567,-11.778 -1.706,-16.839c-1.204,-5.357 -3.576,-10.002 -7.048,-13.804" style="fill:#fff;fill-rule:nonzero;"/><path d="M766.651,818.686c-5.653,0 -10.007,-0.617 -12.941,-1.851c-2.719,-1.133 -4.695,-2.643 -5.864,-4.494c-1.239,-1.951 -1.996,-4.359 -2.242,-7.133c-0.281,-3.165 -0.421,-6.646 -0.421,-10.353l-0,-24.429c-0,-3.466 0.772,-6.445 2.372,-9.099c1.535,-2.543 3.918,-4.424 7.289,-5.738c3.466,-1.36 8.035,-2.047 13.583,-2.047l0.587,0c5.412,0.055 11.893,1.029 19.317,2.89l0,40.093c0,3.346 -0.135,6.546 -0.426,9.501c-0.241,2.573 -0.958,4.74 -2.207,6.601c-1.159,1.741 -3.125,3.18 -5.849,4.274c-2.95,1.188 -7.394,1.785 -13.198,1.785m21.68,-79.675c-8.904,-1.711 -17.15,-2.569 -24.544,-2.569l-0.642,0c-8.768,0.056 -16.357,1.34 -22.557,3.818c-6.436,2.568 -11.452,6.435 -14.908,11.512c-3.456,5.071 -5.222,11.351 -5.222,18.654l0,24.76c0,5.643 0.462,10.955 1.36,15.806c0.973,5.206 3.105,9.771 6.345,13.578c3.26,3.823 8.076,6.837 14.316,8.964c6.019,2.052 14.155,3.09 24.172,3.09c9.998,-0 18.164,-1.038 24.263,-3.09c6.326,-2.127 11.181,-5.177 14.447,-9.064c3.235,-3.862 5.367,-8.452 6.33,-13.649c0.898,-4.85 1.354,-10.218 1.354,-15.966l0,-91.965l-24.714,-0l0,36.121Z" style="fill:#fff;fill-rule:nonzero;"/><rect x="830.095" y="738.198" width="24.94" height="96.751" style="fill:#fff;"/><path d="M852.176,702.95c-2.654,-2.032 -5.889,-3.075 -9.616,-3.075c-3.591,0 -6.752,1.043 -9.4,3.075c-2.859,2.197 -4.374,5.106 -4.374,8.407c-0,2.232 0.762,5.472 4.374,8.236c2.648,2.047 5.804,3.085 9.4,3.085c3.727,0 6.972,-1.038 9.626,-3.08c3.612,-2.784 4.364,-6.014 4.364,-8.241c0,-3.296 -1.515,-6.2 -4.374,-8.407" style="fill:#fff;fill-rule:nonzero;"/><path d="M966.082,738.359l-34.576,-0l-36.452,29.7l-0,-66.514l-24.72,0l0,133.404l24.72,-0l-0,-38.303l7.293,-6.055l35.078,44.358l31.481,-0l-49.279,-58.272l46.455,-38.318Z" style="fill:#fff;fill-rule:nonzero;"/><path d="M1015.28,795.462c6.687,-0 12.626,0.617 17.642,1.831c4.505,1.093 6.802,2.101 7.961,2.789l-0,18.113c-5.794,0.993 -11.322,1.495 -16.468,1.495c-9.772,-0 -17.592,-1.39 -23.22,-4.119c-5.036,-2.442 -7.383,-5.944 -7.383,-11.015c-0,-1.47 0.411,-2.633 1.289,-3.627c1.058,-1.193 2.508,-2.197 4.309,-2.949c1.996,-0.853 4.384,-1.48 7.087,-1.886c2.809,-0.416 5.764,-0.632 8.783,-0.632m48.441,-36.663c-1.324,-4.324 -3.857,-8.196 -7.519,-11.517c-3.597,-3.245 -8.668,-5.894 -15.109,-7.86c-6.27,-1.931 -14.597,-2.899 -24.724,-2.899c-7.93,-0 -14.863,0.802 -20.616,2.367c-5.844,1.595 -10.715,3.787 -14.487,6.501c-3.867,2.789 -6.791,6.09 -8.683,9.822c-1.881,3.717 -2.839,7.719 -2.839,11.863l0,3.115l24.288,-0l0,-3.115c0,-5.267 2.157,-12.28 20.817,-12.28c6.571,0 11.698,0.642 15.264,1.906c3.411,1.219 5.899,2.704 7.429,4.415c1.5,1.69 2.403,3.441 2.734,5.332c0.401,2.257 0.607,4.329 0.607,6.149l-0,7.409c-3.416,-0.893 -6.913,-1.55 -10.449,-1.961c-10.208,-1.199 -21.409,-1.199 -31.712,0.346c-5.487,0.823 -10.443,2.227 -14.747,4.173c-4.499,2.042 -8.181,4.826 -10.93,8.252c-2.909,3.627 -4.384,8.136 -4.384,13.413c-0,5.839 1.414,10.95 4.213,15.174c2.739,4.168 6.642,7.589 11.603,10.167c4.755,2.483 10.358,4.304 16.668,5.413c6.17,1.088 13.047,1.64 20.446,1.64c13.117,-0 27.137,-1.891 41.668,-5.618l2.338,-0.602l-0,-59.135c-0,-4.198 -0.637,-8.387 -1.876,-12.47" style="fill:#fff;fill-rule:nonzero;"/><path d="M1041.42,338.279c-0.496,-5.211 -2.126,-10.383 -4.9,-15.504c-2.759,-5.117 -6.461,-9.997 -11.091,-14.622c-4.715,-4.71 -9.596,-8.412 -14.627,-11.081c-5.041,-2.678 -10.117,-4.223 -15.254,-4.635c-1.008,-0.075 -2.016,-0.065 -3.025,-0.045c-0.005,-1.033 -0.02,-2.066 -0.12,-3.09c-0.497,-5.217 -2.127,-10.378 -4.896,-15.505c-2.769,-5.126 -6.465,-9.992 -11.095,-14.626c-4.705,-4.706 -9.591,-8.407 -14.627,-11.076c-5.036,-2.684 -10.118,-4.219 -15.244,-4.625c-5.127,-0.411 -10.253,0.452 -15.39,2.583c-5.126,2.127 -10.087,5.598 -14.902,10.404l-171.295,171.169l14.837,14.828l171.837,-171.716c2.819,-2.809 5.678,-4.801 8.578,-5.985c2.904,-1.173 5.748,-1.655 8.517,-1.429c2.764,0.221 5.477,1.043 8.156,2.448c2.679,1.399 5.152,3.245 7.424,5.507c2.262,2.268 4.103,4.791 5.518,7.55c1.399,2.774 2.237,5.648 2.518,8.642c0.261,2.99 -0.091,5.98 -1.099,8.974c-0.993,2.995 -2.809,5.804 -5.437,8.432l-171.847,171.711l14.838,14.818l-0,-0.005l0.02,0.02l171.826,-171.706c2.819,-2.809 5.679,-4.806 8.578,-5.984c2.909,-1.179 5.738,-1.651 8.512,-1.435c2.769,0.231 5.488,1.048 8.171,2.453c2.669,1.404 5.147,3.245 7.409,5.508c2.272,2.267 4.113,4.785 5.513,7.549c1.409,2.774 2.242,5.638 2.518,8.638c0.281,2.994 -0.09,5.984 -1.084,8.978c-0.998,2.99 -2.809,5.804 -5.452,8.427l-171.832,171.712l14.838,14.827l171.3,-171.164c4.805,-4.801 8.186,-9.862 10.132,-15.164c1.957,-5.302 2.679,-10.564 2.177,-15.781" style="fill:#fff;fill-rule:nonzero;"/><path d="M750.62,272.237c2.272,-2.267 4.795,-4.108 7.559,-5.512c2.774,-1.4 5.648,-2.237 8.648,-2.518c2.99,-0.266 5.989,0.095 8.974,1.098c2.994,0.988 5.819,2.804 8.447,5.433l58.884,58.839l14.833,-14.823l-58.333,-58.297c-4.81,-4.806 -9.866,-8.176 -15.178,-10.133c-5.307,-1.961 -10.579,-2.678 -15.791,-2.177c-5.217,0.497 -10.393,2.127 -15.515,4.901c-5.136,2.764 -10.007,6.456 -14.637,11.086c-4.715,4.705 -8.417,9.58 -11.085,14.622c-2.684,5.026 -4.234,10.102 -4.64,15.233c-0.076,1.009 -0.071,2.012 -0.05,3.025c-1.034,0.005 -2.067,0.02 -3.095,0.116c-5.217,0.491 -10.389,2.126 -15.51,4.89c-5.132,2.764 -10.012,6.461 -14.642,11.091c-4.705,4.71 -8.402,9.586 -11.086,14.622c-2.678,5.026 -4.218,10.102 -4.62,15.229c-0.416,5.126 0.447,10.253 2.579,15.364c2.127,5.126 5.603,10.097 10.413,14.898l73.019,73.23l14.838,-14.828l-73.561,-73.772c-2.814,-2.804 -4.815,-5.668 -5.979,-8.567c-1.189,-2.904 -1.676,-5.733 -1.445,-8.502c0.226,-2.769 1.044,-5.483 2.458,-8.162c1.405,-2.673 3.235,-5.141 5.508,-7.408c2.262,-2.263 4.78,-4.109 7.549,-5.513c2.774,-1.41 5.653,-2.242 8.648,-2.508c2.999,-0.281 5.984,0.08 8.984,1.083c2.999,0.994 5.808,2.804 8.437,5.438l58.894,58.829l14.812,-14.848l-0.005,-0.005l0.005,-0.005l-16.513,-16.493l-42.341,-42.316c-2.814,-2.809 -4.81,-5.663 -5.989,-8.572c-1.179,-2.9 -1.655,-5.729 -1.435,-8.498c0.226,-2.763 1.044,-5.482 2.453,-8.151c1.405,-2.683 3.246,-5.151 5.508,-7.419" style="fill:#fff;fill-rule:nonzero;"/></g></svg>