<?xml version="1.0" encoding="UTF-8" standalone="no"?>
<!DOCTYPE svg PUBLIC "-//W3C//DTD SVG 1.1//EN" "http://www.w3.org/Graphics/SVG/1.1/DTD/svg11.dtd">
<svg width="100%" height="100%" viewBox="0 0 1920 1080" version="1.1" xmlns="http://www.w3.org/2000/svg" xmlns:xlink="http://www.w3.org/1999/xlink" xml:space="preserve" xmlns:serif="http://www.serif.com/" style="fill-rule:evenodd;clip-rule:evenodd;stroke-linejoin:round;stroke-miterlimit:2;">
    <g transform="matrix(1,0,0,1,-5910,0)">
        <rect id="Artboard4" x="5910" y="0" width="1920" height="1080" style="fill:none;"/>
        <g id="Artboard41" serif:id="Artboard4">
            <g transform="matrix(5.0161,0,0,5.0161,5964.28,-1261.4)">
                <g transform="matrix(1,0,0,1,143.271,361.558)">
                    <path d="M0,21.011L0,23.215C-0.32,23.304 -0.796,23.348 -1.434,23.348C-3.459,23.348 -5.031,23.125 -6.161,22.681C-7.288,22.237 -8.127,21.657 -8.676,20.948C-9.225,20.235 -9.556,19.418 -9.674,18.492C-9.789,17.572 -9.847,16.634 -9.847,15.676L-9.847,-2.337L-6.161,-2.337L-6.161,15.676C-6.161,16.722 -6.094,17.589 -5.964,18.277C-5.835,18.965 -5.598,19.512 -5.248,19.91C-4.902,20.314 -4.403,20.595 -3.755,20.762C-3.104,20.929 -2.258,21.011 -1.215,21.011L0,21.011Z" style="fill:rgb(30,64,126);fill-rule:nonzero;"/>
                </g>
                <g transform="matrix(1,0,0,1,101.426,384.572)">
                    <path d="M0,-25.688C1.821,-25.688 3.224,-25.447 4.207,-24.97C5.188,-24.491 5.904,-23.903 6.353,-23.202C6.802,-22.501 7.068,-21.744 7.155,-20.932C7.241,-20.121 7.285,-19.381 7.285,-18.715L7.285,0L3.165,0L3.165,-18.614C3.165,-19.082 3.145,-19.571 3.101,-20.082C3.057,-20.593 2.928,-21.066 2.711,-21.5C2.493,-21.934 2.153,-22.291 1.691,-22.567C1.228,-22.845 0.564,-22.985 -0.304,-22.985C-0.535,-22.985 -0.854,-22.972 -1.257,-22.951C-1.663,-22.928 -2.11,-22.884 -2.602,-22.818C-3.094,-22.75 -3.614,-22.645 -4.163,-22.501C-4.714,-22.356 -5.233,-22.172 -5.724,-21.952L-5.724,0L-9.844,0L-9.844,-19.716C-9.844,-20.16 -9.888,-20.577 -9.974,-20.967C-10.062,-21.354 -10.234,-21.701 -10.493,-22C-10.755,-22.3 -11.116,-22.54 -11.578,-22.717C-12.042,-22.894 -12.649,-22.985 -13.4,-22.985C-13.604,-22.985 -13.9,-22.972 -14.289,-22.951C-14.68,-22.928 -15.113,-22.884 -15.591,-22.818C-16.067,-22.75 -16.573,-22.645 -17.108,-22.501C-17.645,-22.356 -18.171,-22.172 -18.691,-21.952L-18.691,0L-22.811,0L-22.811,-23.383C-21.857,-23.962 -20.896,-24.408 -19.927,-24.719C-18.959,-25.031 -18.041,-25.258 -17.173,-25.402C-16.306,-25.547 -15.511,-25.63 -14.788,-25.653C-14.065,-25.675 -13.474,-25.688 -13.01,-25.688C-11.739,-25.688 -10.683,-25.571 -9.844,-25.336C-9.007,-25.103 -8.313,-24.785 -7.763,-24.385C-6.982,-24.719 -6.21,-24.97 -5.443,-25.136C-4.676,-25.303 -3.953,-25.431 -3.274,-25.52C-2.595,-25.61 -1.974,-25.659 -1.409,-25.669C-0.846,-25.68 -0.377,-25.688 0,-25.688" style="fill:rgb(30,64,126);fill-rule:nonzero;"/>
                </g>
                <g transform="matrix(1,0,0,1,129.83,384.874)">
                    <path d="M0,-18.349L0,-1.135C-1.445,-0.756 -2.848,-0.474 -4.206,-0.285C-5.565,-0.095 -6.852,0 -8.066,0C-9.453,0 -10.719,-0.124 -11.86,-0.369C-13.002,-0.613 -13.992,-0.99 -14.831,-1.502C-15.67,-2.014 -16.32,-2.652 -16.782,-3.42C-17.244,-4.187 -17.476,-5.093 -17.476,-6.139L-17.476,-18.349L-13.747,-18.349L-13.747,-14.245C-13.747,-13.066 -13.739,-12.044 -13.725,-11.176C-13.711,-10.309 -13.702,-9.581 -13.702,-8.992L-13.702,-6.172C-13.702,-4.904 -13.154,-3.921 -12.057,-3.221C-10.957,-2.519 -9.41,-2.169 -7.415,-2.169C-6.837,-2.169 -6.244,-2.203 -5.637,-2.269C-5.031,-2.335 -4.395,-2.425 -3.729,-2.536L-3.729,-18.349L0,-18.349Z" style="fill:rgb(30,64,126);fill-rule:nonzero;"/>
                </g>
                <g transform="matrix(1,0,0,1,148.697,384.906)">
                    <path d="M0,-25.686L0,-18.381L6.158,-18.381L4.597,-15.979L0,-15.979L0,-7.673C0,-6.626 0.065,-5.76 0.195,-5.071C0.325,-4.381 0.564,-3.835 0.911,-3.437C1.26,-3.036 1.757,-2.752 2.407,-2.585C3.058,-2.419 3.904,-2.335 4.945,-2.335L6.158,-2.335L6.158,-0.133C5.84,-0.044 5.363,0 4.728,0C2.703,0 1.127,-0.223 0,-0.667C-1.126,-1.112 -1.966,-1.69 -2.516,-2.401C-3.063,-3.113 -3.397,-3.931 -3.513,-4.854C-3.629,-5.777 -3.685,-6.716 -3.685,-7.673L-3.685,-25.686L0,-25.686Z" style="fill:rgb(30,64,126);fill-rule:nonzero;"/>
                </g>
                <g transform="matrix(-1,0,0,1,321.594,-166.819)">
                    <rect x="158.932" y="533.343" width="3.73" height="18.048" style="fill:rgb(30,64,126);"/>
                </g>
                <g transform="matrix(-1,0,0,1,339.59,-174.124)">
                    <rect x="167.736" y="533.343" width="4.118" height="25.353" style="fill:rgb(30,64,126);"/>
                </g>
                <g transform="matrix(1,0,0,1,193.538,366.191)">
                    <path d="M0,18.382L-3.687,18.382L-3.687,6.205C-3.687,4.939 -4.257,3.943 -5.398,3.221C-6.541,2.498 -8.125,2.136 -10.146,2.136C-11.246,2.136 -12.389,2.247 -13.574,2.469L-13.574,18.382L-17.26,18.382L-17.26,1.068C-14.427,0.357 -11.839,0 -9.497,0C-8.109,0 -6.837,0.128 -5.68,0.384C-4.525,0.64 -3.52,1.024 -2.666,1.536C-1.813,2.046 -1.157,2.687 -0.693,3.453C-0.231,4.221 0,5.127 0,6.172L0,18.382Z" style="fill:rgb(30,64,126);fill-rule:nonzero;"/>
                </g>
                <g transform="matrix(1,0,0,1,201.04,384.906)">
                    <path d="M0,-25.686L0,-18.381L6.159,-18.381L4.598,-15.979L0,-15.979L0,-7.673C0,-6.626 0.067,-5.76 0.196,-5.071C0.326,-4.381 0.564,-3.835 0.911,-3.437C1.258,-3.036 1.758,-2.752 2.407,-2.585C3.059,-2.419 3.904,-2.335 4.945,-2.335L6.159,-2.335L6.159,-0.133C5.841,-0.044 5.363,0 4.729,0C2.704,0 1.128,-0.223 0,-0.667C-1.127,-1.112 -1.966,-1.69 -2.516,-2.401C-3.065,-3.113 -3.397,-3.931 -3.512,-4.854C-3.628,-5.777 -3.686,-6.716 -3.686,-7.673L-3.686,-25.686L0,-25.686Z" style="fill:rgb(30,64,126);fill-rule:nonzero;"/>
                </g>
                <g transform="matrix(1,0,0,1,218.388,382.538)">
                    <path d="M0,-14.011C-1.245,-14.011 -2.197,-13.872 -2.862,-13.595C-3.527,-13.317 -4.012,-12.943 -4.315,-12.478C-4.62,-12.009 -4.798,-11.465 -4.857,-10.843C-4.916,-10.218 -4.943,-9.552 -4.943,-8.84L-4.943,-8.508L4.943,-8.508C4.943,-9.442 4.893,-10.253 4.791,-10.942C4.689,-11.631 4.474,-12.204 4.141,-12.659C3.809,-13.115 3.318,-13.455 2.667,-13.676C2.016,-13.899 1.127,-14.011 0,-14.011M-4.943,-6.271L-4.943,-5.37C-4.943,-4.593 -4.916,-3.881 -4.857,-3.236C-4.798,-2.591 -4.62,-2.024 -4.315,-1.533C-4.012,-1.046 -3.527,-0.667 -2.862,-0.401C-2.197,-0.133 -1.245,0.001 0,0.001C1.879,0.001 3.164,-0.295 3.859,-0.885C4.553,-1.474 4.901,-2.302 4.901,-3.37L5.637,-3.37C5.955,-3.37 6.288,-3.374 6.634,-3.386C6.982,-3.397 7.327,-3.404 7.676,-3.404L8.587,-3.404C8.587,-2.535 8.457,-1.751 8.197,-1.05C7.937,-0.351 7.479,0.25 6.83,0.75C6.179,1.251 5.297,1.64 4.186,1.919C3.071,2.195 1.677,2.336 0,2.336C-1.967,2.336 -3.521,2.14 -4.662,1.751C-5.805,1.363 -6.664,0.828 -7.243,0.149C-7.821,-0.529 -8.197,-1.334 -8.369,-2.269C-8.544,-3.202 -8.63,-4.226 -8.63,-5.337L-8.63,-8.608C-8.63,-9.718 -8.551,-10.747 -8.391,-11.693C-8.234,-12.639 -7.857,-13.455 -7.264,-14.145C-6.671,-14.833 -5.805,-15.374 -4.662,-15.762C-3.521,-16.152 -1.967,-16.347 0,-16.347C1.821,-16.347 3.295,-16.157 4.424,-15.779C5.551,-15.401 6.425,-14.872 7.047,-14.194C7.668,-13.517 8.088,-12.694 8.304,-11.725C8.521,-10.759 8.63,-9.686 8.63,-8.508L8.63,-6.271L-4.943,-6.271Z" style="fill:rgb(30,64,126);fill-rule:nonzero;"/>
                </g>
                <g transform="matrix(1,0,0,1,243.409,389.275)">
                    <path d="M0,-20.181C-1.82,-20.671 -3.411,-20.914 -4.77,-20.914C-6.532,-20.914 -7.827,-20.548 -8.651,-19.815C-9.475,-19.081 -9.887,-18.114 -9.887,-16.912L-9.887,-12.142C-9.887,-11.364 -9.859,-10.645 -9.801,-9.99C-9.743,-9.334 -9.562,-8.767 -9.259,-8.289C-8.955,-7.809 -8.471,-7.432 -7.805,-7.154C-7.14,-6.876 -6.186,-6.737 -4.942,-6.737C-3.815,-6.737 -2.92,-6.85 -2.254,-7.073C-1.59,-7.294 -1.098,-7.605 -0.779,-8.006C-0.461,-8.406 -0.254,-8.867 -0.15,-9.389C-0.051,-9.91 0,-10.473 0,-11.075L0,-20.181ZM3.643,-21.45L3.643,-3.668C3.643,-2.69 3.535,-1.795 3.318,-0.983C3.102,-0.171 2.681,0.523 2.061,1.102C1.438,1.68 0.564,2.125 -0.563,2.435C-1.691,2.747 -3.165,2.903 -4.986,2.903C-6.549,2.903 -7.878,2.775 -8.977,2.519C-10.076,2.264 -10.964,1.898 -11.645,1.42C-12.323,0.939 -12.814,0.357 -13.117,-0.331C-13.422,-1.022 -13.574,-1.802 -13.574,-2.668L-9.887,-2.668C-9.887,-2.245 -9.837,-1.84 -9.735,-1.451C-9.635,-1.061 -9.409,-0.715 -9.063,-0.416C-8.716,-0.116 -8.217,0.123 -7.566,0.3C-6.916,0.479 -6.057,0.568 -4.986,0.568C-3.744,0.568 -2.79,0.424 -2.125,0.135C-1.46,-0.155 -0.969,-0.555 -0.649,-1.067C-0.332,-1.579 -0.145,-2.179 -0.086,-2.868C-0.028,-3.558 0,-4.291 0,-5.07C-1.243,-4.624 -2.891,-4.402 -4.942,-4.402C-6.91,-4.402 -8.463,-4.597 -9.604,-4.987C-10.748,-5.374 -11.607,-5.914 -12.186,-6.604C-12.765,-7.294 -13.141,-8.106 -13.313,-9.039C-13.486,-9.973 -13.574,-10.985 -13.574,-12.075L-13.574,-16.912C-13.574,-18.958 -12.864,-20.498 -11.448,-21.533C-10.032,-22.567 -8.053,-23.084 -5.508,-23.084C-4.495,-23.084 -3.389,-22.999 -2.189,-22.834C-0.99,-22.667 0.275,-22.407 1.604,-22.05L3.643,-21.45Z" style="fill:rgb(30,64,126);fill-rule:nonzero;"/>
                </g>
                <g transform="matrix(1,0,0,1,251.215,381.42)">
                    <path d="M0,-11.742C0.261,-12.51 0.752,-13.128 1.476,-13.595C2.198,-14.06 3.173,-14.395 4.401,-14.595C5.63,-14.796 7.228,-14.895 9.194,-14.895L13.357,-14.895L11.798,-12.526L9.454,-12.526C8.21,-12.526 7.192,-12.477 6.396,-12.377C5.603,-12.276 4.972,-12.093 4.51,-11.825C4.047,-11.559 3.73,-11.186 3.558,-10.708C3.383,-10.23 3.296,-9.612 3.296,-8.857L3.296,3.153L-0.39,3.153L-0.39,-8.857C-0.39,-10.013 -0.261,-10.975 0,-11.742" style="fill:rgb(30,64,126);fill-rule:nonzero;"/>
                </g>
                <g transform="matrix(1,0,0,1,279.446,373.163)">
                    <path d="M0,4.771C-0.318,4.459 -1.005,4.175 -2.06,3.92C-3.115,3.666 -4.337,3.537 -5.725,3.537C-6.359,3.537 -6.975,3.581 -7.567,3.669C-8.16,3.759 -8.681,3.899 -9.129,4.086C-9.577,4.276 -9.938,4.527 -10.212,4.836C-10.489,5.149 -10.625,5.527 -10.625,5.971C-10.625,7.218 -10.019,8.135 -8.803,8.725C-7.59,9.313 -5.956,9.608 -3.902,9.608C-2.688,9.608 -1.388,9.475 0,9.208L0,4.771ZM3.687,10.641C0.824,11.375 -1.894,11.743 -4.466,11.743C-5.913,11.743 -7.235,11.637 -8.436,11.426C-9.635,11.215 -10.683,10.876 -11.579,10.409C-12.475,9.941 -13.168,9.336 -13.661,8.59C-14.153,7.846 -14.396,6.951 -14.396,5.906C-14.396,4.995 -14.153,4.232 -13.661,3.621C-13.168,3.007 -12.519,2.519 -11.708,2.152C-10.899,1.786 -9.974,1.524 -8.934,1.368C-7.894,1.212 -6.822,1.135 -5.725,1.135C-4.713,1.135 -3.729,1.191 -2.775,1.301C-1.82,1.414 -0.896,1.613 0,1.903L0,-0.4C0,-0.8 -0.045,-1.246 -0.129,-1.734C-0.217,-2.224 -0.449,-2.678 -0.823,-3.103C-1.2,-3.525 -1.778,-3.875 -2.559,-4.153C-3.339,-4.431 -4.424,-4.57 -5.811,-4.57C-8.991,-4.57 -10.581,-3.546 -10.581,-1.5L-14.182,-1.5C-14.182,-2.234 -14.014,-2.929 -13.682,-3.585C-13.35,-4.242 -12.836,-4.819 -12.143,-5.321C-11.447,-5.821 -10.554,-6.221 -9.453,-6.521C-8.355,-6.822 -7.04,-6.972 -5.508,-6.972C-3.542,-6.972 -1.958,-6.788 -0.758,-6.42C0.439,-6.054 1.365,-5.576 2.017,-4.987C2.667,-4.398 3.106,-3.725 3.339,-2.969C3.572,-2.212 3.687,-1.446 3.687,-0.667L3.687,10.641Z" style="fill:rgb(30,64,126);fill-rule:nonzero;"/>
                </g>
                <g transform="matrix(1,0,0,1,108.303,415.152)">
                    <path d="M0,-21.384C-0.51,-22.178 -1.316,-22.848 -2.4,-23.375C-3.479,-23.901 -4.943,-24.156 -6.877,-24.156C-7.257,-24.156 -7.729,-24.149 -8.298,-24.139C-8.883,-24.127 -9.532,-24.074 -10.231,-23.984C-10.927,-23.893 -11.674,-23.761 -12.451,-23.591C-13.146,-23.441 -13.858,-23.22 -14.57,-22.936C-15.123,-23.285 -15.79,-23.569 -16.555,-23.782C-17.445,-24.03 -18.565,-24.156 -19.887,-24.156C-20.356,-24.156 -20.962,-24.144 -21.685,-24.121C-22.432,-24.099 -23.263,-24.012 -24.152,-23.863C-25.048,-23.713 -26.003,-23.477 -26.993,-23.157C-28.005,-22.833 -29.021,-22.363 -30.01,-21.764L-30.309,-21.582L-30.309,2.772L-24.948,2.772L-24.948,-19.38C-24.574,-19.526 -24.197,-19.65 -23.822,-19.75C-23.318,-19.886 -22.833,-19.988 -22.382,-20.052C-21.925,-20.114 -21.503,-20.159 -21.132,-20.18C-20.741,-20.201 -20.461,-20.212 -20.277,-20.212C-19.605,-20.212 -19.068,-20.136 -18.679,-19.988C-18.314,-19.846 -18.031,-19.662 -17.842,-19.444C-17.648,-19.22 -17.521,-18.97 -17.458,-18.68C-17.38,-18.336 -17.343,-17.96 -17.343,-17.564L-17.343,2.772L-11.981,2.772L-11.981,-19.389C-11.628,-19.529 -11.26,-19.65 -10.883,-19.749C-10.362,-19.886 -9.861,-19.988 -9.396,-20.051C-8.924,-20.114 -8.487,-20.159 -8.101,-20.18C-7.694,-20.201 -7.395,-20.212 -7.181,-20.212C-6.431,-20.212 -5.867,-20.102 -5.506,-19.885C-5.143,-19.665 -4.886,-19.399 -4.721,-19.071C-4.542,-18.711 -4.432,-18.309 -4.395,-17.877C-4.354,-17.387 -4.331,-16.91 -4.331,-16.463L-4.331,2.772L1.029,2.772L1.029,-16.563C1.029,-17.247 0.984,-18.015 0.896,-18.847C0.799,-19.75 0.497,-20.604 0,-21.384" style="fill:rgb(30,64,126);fill-rule:nonzero;"/>
                </g>
                <g transform="matrix(1,0,0,1,121.156,414.648)">
                    <path d="M0,-12.769C1.055,-12.769 1.885,-12.668 2.467,-12.469C2.999,-12.287 3.383,-12.026 3.641,-11.674C3.911,-11.302 4.094,-10.817 4.18,-10.232C4.252,-9.73 4.298,-9.153 4.315,-8.507L-4.319,-8.507C-4.313,-9.096 -4.286,-9.652 -4.237,-10.165C-4.189,-10.682 -4.04,-11.138 -3.794,-11.518C-3.561,-11.875 -3.167,-12.173 -2.622,-12.401C-2.036,-12.645 -1.153,-12.769 0,-12.769M7.506,-13.994C6.814,-14.747 5.844,-15.336 4.621,-15.747C3.434,-16.144 1.88,-16.346 0,-16.346C-2.024,-16.346 -3.659,-16.138 -4.861,-15.729C-6.104,-15.306 -7.071,-14.7 -7.734,-13.928C-8.399,-13.155 -8.826,-12.228 -9.002,-11.174C-9.165,-10.203 -9.249,-9.13 -9.249,-7.986L-9.249,-4.717C-9.249,-3.569 -9.158,-2.498 -8.979,-1.535C-8.786,-0.498 -8.361,0.416 -7.714,1.173C-7.064,1.935 -6.105,2.536 -4.861,2.96C-3.659,3.369 -2.024,3.577 0,3.577C1.719,3.577 3.178,3.429 4.336,3.14C5.527,2.844 6.494,2.414 7.21,1.863C7.95,1.294 8.478,0.596 8.779,-0.214C9.065,-0.981 9.209,-1.844 9.209,-2.783L9.209,-3.403L7.677,-3.403C7.323,-3.403 6.97,-3.397 6.615,-3.386C6.276,-3.375 5.949,-3.37 5.64,-3.37L4.28,-3.37L4.28,-2.748C4.28,-1.864 4.012,-1.206 3.459,-0.737C3.063,-0.4 2.142,0.002 0,0.002C-1.158,0.002 -2.042,-0.12 -2.631,-0.356C-3.174,-0.574 -3.552,-0.863 -3.787,-1.241C-4.038,-1.645 -4.189,-2.125 -4.237,-2.672C-4.294,-3.286 -4.321,-3.985 -4.321,-4.749L-4.321,-5.031L9.251,-5.031L9.251,-7.885C9.251,-9.105 9.138,-10.233 8.911,-11.242C8.671,-12.31 8.198,-13.236 7.506,-13.994" style="fill:rgb(30,64,126);fill-rule:nonzero;"/>
                </g>
                <g transform="matrix(1,0,0,1,142.017,395.173)">
                    <path d="M0,19.509C-1.127,19.509 -1.995,19.386 -2.58,19.14C-3.122,18.914 -3.516,18.613 -3.749,18.244C-3.996,17.855 -4.147,17.375 -4.196,16.822C-4.252,16.191 -4.28,15.497 -4.28,14.758L-4.28,9.888C-4.28,9.197 -4.126,8.603 -3.807,8.074C-3.501,7.567 -3.026,7.192 -2.354,6.93C-1.663,6.659 -0.752,6.522 0.354,6.522L0.471,6.522C1.55,6.533 2.842,6.727 4.322,7.098L4.322,15.091C4.322,15.758 4.295,16.396 4.237,16.985C4.189,17.498 4.046,17.93 3.797,18.301C3.566,18.648 3.174,18.935 2.631,19.153C2.043,19.39 1.157,19.509 0,19.509M4.322,3.625C2.547,3.284 0.903,3.113 -0.571,3.113L-0.699,3.113C-2.447,3.124 -3.96,3.38 -5.196,3.874C-6.479,4.386 -7.479,5.157 -8.168,6.169C-8.857,7.18 -9.209,8.432 -9.209,9.888L-9.209,14.824C-9.209,15.949 -9.117,17.008 -8.938,17.975C-8.744,19.013 -8.319,19.923 -7.673,20.682C-7.023,21.444 -6.063,22.045 -4.819,22.469C-3.619,22.878 -1.997,23.085 0,23.085C1.993,23.085 3.621,22.878 4.837,22.469C6.098,22.045 7.066,21.437 7.717,20.662C8.362,19.892 8.787,18.977 8.979,17.941C9.158,16.974 9.249,15.904 9.249,14.758L9.249,-3.576L4.322,-3.576L4.322,3.625Z" style="fill:rgb(30,64,126);fill-rule:nonzero;"/>
                </g>
                <g transform="matrix(1,0,0,1,3.63798e-12,-101.355)">
                    <rect x="154.665" y="499.991" width="4.972" height="19.288" style="fill:rgb(30,64,126);"/>
                </g>
                <g transform="matrix(1,0,0,1,159.067,394.929)">
                    <path d="M0,-3.32C-0.529,-3.725 -1.174,-3.933 -1.917,-3.933C-2.633,-3.933 -3.263,-3.725 -3.791,-3.32C-4.361,-2.882 -4.663,-2.302 -4.663,-1.644C-4.663,-1.199 -4.511,-0.553 -3.791,-0.002C-3.263,0.406 -2.634,0.613 -1.917,0.613C-1.174,0.613 -0.527,0.406 0.002,-0.001C0.722,-0.556 0.872,-1.2 0.872,-1.644C0.872,-2.301 0.57,-2.88 0,-3.32" style="fill:rgb(30,64,126);fill-rule:nonzero;"/>
                </g>
                <g transform="matrix(1,0,0,1,181.775,410.585)">
                    <path d="M0,-11.917L-6.893,-11.917L-14.16,-5.996L-14.16,-19.256L-19.088,-19.256L-19.088,7.339L-14.16,7.339L-14.16,-0.297L-12.706,-1.504L-5.713,7.339L0.563,7.339L-9.261,-4.278L0,-11.917Z" style="fill:rgb(30,64,126);fill-rule:nonzero;"/>
                </g>
                <g transform="matrix(1,0,0,1,191.583,406.508)">
                    <path d="M0,3.544C1.333,3.544 2.517,3.667 3.517,3.909C4.415,4.127 4.873,4.328 5.104,4.465L5.104,8.076C3.949,8.274 2.847,8.374 1.821,8.374C-0.127,8.374 -1.686,8.097 -2.808,7.553C-3.812,7.066 -4.28,6.368 -4.28,5.357C-4.28,5.064 -4.198,4.832 -4.023,4.634C-3.812,4.396 -3.523,4.196 -3.164,4.046C-2.766,3.876 -2.29,3.751 -1.751,3.67C-1.191,3.587 -0.602,3.544 0,3.544M9.657,-3.765C9.393,-4.627 8.888,-5.399 8.158,-6.061C7.441,-6.708 6.43,-7.236 5.146,-7.628C3.896,-8.013 2.236,-8.206 0.217,-8.206C-1.364,-8.206 -2.746,-8.046 -3.893,-7.734C-5.058,-7.416 -6.029,-6.979 -6.781,-6.438C-7.552,-5.882 -8.135,-5.224 -8.512,-4.48C-8.887,-3.739 -9.078,-2.941 -9.078,-2.115L-9.078,-1.494L-4.236,-1.494L-4.236,-2.115C-4.236,-3.165 -3.806,-4.563 -0.086,-4.563C1.224,-4.563 2.246,-4.435 2.957,-4.183C3.637,-3.94 4.133,-3.644 4.438,-3.303C4.737,-2.966 4.917,-2.617 4.983,-2.24C5.063,-1.79 5.104,-1.377 5.104,-1.014L5.104,0.463C4.423,0.285 3.726,0.154 3.021,0.072C0.986,-0.167 -1.247,-0.167 -3.301,0.141C-4.395,0.305 -5.383,0.585 -6.241,0.973C-7.138,1.38 -7.872,1.935 -8.42,2.618C-9,3.341 -9.294,4.24 -9.294,5.292C-9.294,6.456 -9.012,7.475 -8.454,8.317C-7.908,9.148 -7.13,9.83 -6.141,10.344C-5.193,10.839 -4.076,11.202 -2.818,11.423C-1.588,11.64 -0.217,11.75 1.258,11.75C3.873,11.75 6.668,11.373 9.565,10.63L10.031,10.51L10.031,-1.279C10.031,-2.116 9.904,-2.951 9.657,-3.765" style="fill:rgb(30,64,126);fill-rule:nonzero;"/>
                </g>
                <g transform="matrix(1,0,0,1,196.795,340.218)">
                    <path d="M0,-21.309C-0.099,-22.348 -0.424,-23.379 -0.977,-24.4C-1.527,-25.42 -2.265,-26.393 -3.188,-27.315C-4.128,-28.254 -5.101,-28.992 -6.104,-29.524C-7.109,-30.058 -8.121,-30.366 -9.145,-30.448C-9.346,-30.463 -9.547,-30.461 -9.748,-30.457C-9.749,-30.663 -9.752,-30.869 -9.772,-31.073C-9.871,-32.113 -10.196,-33.142 -10.748,-34.164C-11.3,-35.186 -12.037,-36.156 -12.96,-37.08C-13.898,-38.018 -14.872,-38.756 -15.876,-39.288C-16.88,-39.823 -17.893,-40.129 -18.915,-40.21C-19.937,-40.292 -20.959,-40.12 -21.983,-39.695C-23.005,-39.271 -23.994,-38.579 -24.954,-37.621L-59.103,-3.497L-56.145,-0.541L-21.888,-34.774C-21.326,-35.334 -20.756,-35.731 -20.178,-35.967C-19.599,-36.201 -19.032,-36.297 -18.48,-36.252C-17.929,-36.208 -17.388,-36.044 -16.854,-35.764C-16.32,-35.485 -15.827,-35.117 -15.374,-34.666C-14.923,-34.214 -14.556,-33.711 -14.274,-33.161C-13.995,-32.608 -13.828,-32.035 -13.772,-31.438C-13.72,-30.842 -13.79,-30.246 -13.991,-29.649C-14.189,-29.052 -14.551,-28.492 -15.075,-27.968L-49.334,6.264L-46.376,9.218L-46.376,9.217L-46.372,9.221L-12.117,-25.01C-11.555,-25.57 -10.985,-25.968 -10.407,-26.203C-9.827,-26.438 -9.263,-26.532 -8.71,-26.489C-8.158,-26.443 -7.616,-26.28 -7.081,-26C-6.549,-25.72 -6.055,-25.353 -5.604,-24.902C-5.151,-24.45 -4.784,-23.948 -4.505,-23.397C-4.224,-22.844 -4.058,-22.273 -4.003,-21.675C-3.947,-21.078 -4.021,-20.482 -4.219,-19.885C-4.418,-19.289 -4.779,-18.728 -5.306,-18.205L-39.562,16.027L-36.604,18.983L-2.454,-15.14C-1.496,-16.097 -0.822,-17.106 -0.434,-18.163C-0.044,-19.22 0.1,-20.269 0,-21.309" style="fill:rgb(236,33,39);fill-rule:nonzero;"/>
                </g>
                <g transform="matrix(1,0,0,1,138.821,333.977)">
                    <path d="M0,-28.234C0.453,-28.686 0.956,-29.053 1.507,-29.333C2.06,-29.612 2.633,-29.779 3.231,-29.835C3.827,-29.888 4.425,-29.816 5.02,-29.616C5.617,-29.419 6.18,-29.057 6.704,-28.533L18.443,-16.803L21.4,-19.758L9.771,-31.38C8.812,-32.338 7.804,-33.01 6.745,-33.4C5.687,-33.791 4.636,-33.934 3.597,-33.834C2.557,-33.735 1.525,-33.41 0.504,-32.857C-0.52,-32.306 -1.491,-31.57 -2.414,-30.647C-3.354,-29.709 -4.092,-28.737 -4.624,-27.732C-5.159,-26.73 -5.468,-25.718 -5.549,-24.695C-5.564,-24.494 -5.563,-24.294 -5.559,-24.092C-5.765,-24.091 -5.971,-24.088 -6.176,-24.069C-7.216,-23.971 -8.247,-23.645 -9.268,-23.094C-10.291,-22.543 -11.264,-21.806 -12.187,-20.883C-13.125,-19.944 -13.862,-18.972 -14.397,-17.968C-14.931,-16.966 -15.238,-15.954 -15.318,-14.932C-15.401,-13.91 -15.229,-12.888 -14.804,-11.869C-14.38,-10.847 -13.687,-9.856 -12.728,-8.899L1.829,5.7L4.787,2.744L-9.878,-11.963C-10.439,-12.522 -10.838,-13.093 -11.07,-13.671C-11.307,-14.25 -11.404,-14.814 -11.358,-15.366C-11.313,-15.918 -11.15,-16.459 -10.868,-16.993C-10.588,-17.526 -10.223,-18.018 -9.77,-18.47C-9.319,-18.921 -8.817,-19.289 -8.265,-19.569C-7.712,-19.85 -7.138,-20.016 -6.541,-20.069C-5.943,-20.125 -5.348,-20.053 -4.75,-19.853C-4.152,-19.655 -3.592,-19.294 -3.068,-18.769L8.673,-7.041L11.626,-10.001L11.625,-10.002L11.626,-10.003L8.334,-13.291L-0.107,-21.727C-0.668,-22.287 -1.066,-22.856 -1.301,-23.436C-1.536,-24.014 -1.631,-24.578 -1.587,-25.13C-1.542,-25.681 -1.379,-26.223 -1.098,-26.755C-0.818,-27.29 -0.451,-27.782 0,-28.234" style="fill:rgb(244,129,31);fill-rule:nonzero;"/>
                </g>
            </g>
        </g>
    </g>
</svg>
