<?xml version="1.0" encoding="UTF-8" standalone="no"?><!DOCTYPE svg PUBLIC "-//W3C//DTD SVG 1.1//EN" "http://www.w3.org/Graphics/SVG/1.1/DTD/svg11.dtd"><svg width="100%" height="100%" viewBox="0 0 1500 532" version="1.1" xmlns="http://www.w3.org/2000/svg" xmlns:xlink="http://www.w3.org/1999/xlink" xml:space="preserve" xmlns:serif="http://www.serif.com/" style="fill-rule:evenodd;clip-rule:evenodd;stroke-linejoin:round;stroke-miterlimit:2;"><rect id="Artboard1" x="0" y="0" width="1500" height="531.29" style="fill:none;"/><clipPath id="_clip1"><rect x="0" y="0" width="1500" height="531.29"/></clipPath><g clip-path="url(#_clip1)"><g opacity="0.7"><path d="M754.681,739.985c56.432,-0.155 113.743,-9.836 169.795,-30.057c17.479,-6.311 34.388,-13.515 50.739,-21.494l-75.411,-154.052c-10.813,5.277 -21.974,10.013 -33.549,14.196c-94.706,34.179 -194.74,22.957 -276.311,-22.447l-83.367,149.624c74.283,41.346 158.691,63.992 245.297,64.23l2.807,-0Zm-196.493,-233.955c-53.37,-38.097 -96.113,-92.209 -120.081,-158.564c-6.348,-17.616 -11.104,-35.411 -14.394,-53.263l-168.681,30.89c4.934,27.009 12.111,53.958 21.739,80.601c36.173,100.245 100.916,182.078 181.749,239.695l99.668,-139.359Zm638.303,-29.48l-150.279,-82.148c-11.974,21.933 -26.418,42.568 -43.112,61.45l128.248,113.659c25.24,-28.54 47.046,-59.765 65.143,-92.961Zm-557.252,-557.215c113.394,-40.923 234.408,-16.764 322.25,53.236l106.929,-133.891c-88.534,-70.456 -199.36,-110.259 -314.073,-110.745l-4.209,-0c-56.207,0.235 -113.297,9.919 -169.121,30.067c-166.251,59.97 -281.914,198.557 -320.34,358.809l166.684,39.671c25.314,-105.918 101.769,-197.419 211.88,-237.147Zm594.248,156.771c-1.528,-4.632 -3.092,-9.238 -4.757,-13.874c-26.388,-73.085 -67.962,-136.412 -119.879,-187.681l-120.638,121.756c34.256,33.911 61.712,75.788 79.157,124.133c1.085,3.068 2.149,6.113 3.149,9.167l162.968,-53.501Z" style="fill:#55575a;fill-opacity:0.07;fill-rule:nonzero;"/><path d="M1029.12,235.967l0,-3.736c-0.389,-58.01 -18.875,-116.355 -56.697,-165.926l-4.34,3.317c90.866,119.127 67.882,289.984 -51.239,380.864l3.313,4.337c70.893,-54.079 108.413,-135.916 108.963,-218.856Zm-493.116,163.297c-90.876,-119.131 -67.912,-289.984 51.212,-380.857l-3.307,-4.334c-121.517,92.692 -144.955,266.979 -52.249,388.507l4.344,-3.316Z" style="fill:#55575a;fill-opacity:0.07;fill-rule:nonzero;"/><path d="M1082.28,693.752c253.253,-193.199 302.122,-556.466 108.912,-809.72c-113.119,-148.278 -284.569,-226.496 -458.061,-227.093l-3.917,-0c-121.565,0.399 -243.891,38.919 -347.765,118.164c-148.373,113.186 -226.59,284.703 -227.091,458.302l0,3.381c0.356,121.635 38.873,244.112 118.165,348.06c113.548,148.833 285.848,227.077 460.004,227.091c122.209,0.006 245.311,-38.51 349.753,-118.185Zm99.674,-802.684c189.625,248.557 141.847,603.829 -106.724,793.453c-248.581,189.638 -603.831,141.884 -793.473,-106.714c-189.631,-248.581 -141.84,-603.815 106.748,-793.466c102.524,-78.214 223.23,-116.039 342.948,-116.046l0.03,-0c170.528,-0.007 339.054,76.721 450.471,222.773Z" style="fill:#55575a;fill-opacity:0.09;fill-rule:nonzero;"/><path d="M734.714,887.449c137.493,-0.443 275.872,-44.015 393.372,-133.65c286.405,-218.493 341.669,-629.253 123.165,-915.675c-127.731,-167.439 -321.192,-255.872 -517.084,-256.798l-6.217,-0c-137.163,0.644 -275.167,44.216 -392.371,133.632c-167.939,128.114 -256.405,322.331 -256.821,518.81l-0,2.803c0.298,137.711 43.86,276.405 133.632,394.079c127.933,167.705 321.777,256.154 517.987,256.799l4.337,-0Zm512.106,-1045.96c216.658,283.989 161.881,691.277 -122.078,907.908c-283.995,216.65 -691.294,161.873 -907.954,-122.112c-216.634,-283.972 -161.834,-691.254 122.155,-907.908c117.076,-89.312 255.137,-132.494 392.133,-132.497l0.02,-0c195.284,-0.007 388.41,87.72 515.724,254.609Z" style="fill:#55575a;fill-opacity:0.09;fill-rule:nonzero;"/><path d="M671.519,620.634c-93.542,-14.613 -181.941,-63.045 -245.288,-142.585l-109.715,87.475c85.948,107.909 206.167,173.613 333.398,193.465l21.605,-138.355Zm373.458,42.873l-82.713,-113.343c-23.581,17.19 -48.439,31.416 -74.142,42.628l56.052,128.594c34.972,-15.247 68.792,-34.512 100.803,-57.879Zm182.397,-620.478l-130.829,50.52c35.633,92.169 34.454,193.747 -0.816,283.794l130.44,51.232c47.828,-122.37 49.48,-260.416 1.205,-385.546Zm-884.225,233.082c-6.636,-62.544 1.897,-126.002 24.841,-184.592l-130.44,-51.216c-24.146,61.79 -36.533,127.577 -36.67,193.666l-0,2.313c0.036,18.268 1.017,36.553 2.937,54.787l139.332,-14.958Zm875.635,-253.995c-15.267,-34.965 -34.485,-68.772 -57.855,-100.776l-113.34,82.693c17.197,23.551 31.363,48.446 42.628,74.156l128.567,-56.073Zm-545.107,-174.23l-20.853,-138.607c-82.226,12.255 -162.659,43.947 -234.086,96.096l82.72,113.364c52.595,-38.446 111.769,-61.817 172.219,-70.853Zm117.748,-141.008c-38.486,-4.347 -77.486,-4.548 -116.19,-0.466l14.937,139.322c28.517,-3.021 57.198,-2.86 85.543,0.322l15.71,-139.178Z" style="fill:#55575a;fill-opacity:0.09;fill-rule:nonzero;"/><path d="M733.607,931.192c77.999,-0.118 157.231,-13.438 234.713,-41.4c228.906,-82.575 388.165,-273.391 441.082,-494.043l-229.514,-54.619c-34.85,145.824 -140.128,271.823 -291.743,326.523c-156.116,56.348 -322.753,23.082 -443.693,-73.303l-147.231,184.357c122.383,97.389 275.694,152.236 434.308,152.485l2.078,-0Zm-325.953,-369.521c-47.167,-46.697 -84.968,-104.351 -109.007,-170.917c-1.48,-4.23 -2.95,-8.422 -4.323,-12.629l-224.388,73.67c2.105,6.374 4.263,12.719 6.556,19.097c36.321,100.628 93.572,187.832 165.049,258.426l166.113,-167.647Zm1009.51,-452.717c-6.795,-37.184 -16.681,-74.284 -29.94,-110.967c-49.802,-138.037 -138.936,-250.706 -250.242,-330.034l-137.235,191.88c73.495,52.447 132.34,126.959 165.341,218.325c8.745,24.253 15.287,48.762 19.819,73.344l232.257,-42.548Zm-1030.01,-180.034l-176.59,-156.493c-34.743,39.299 -64.767,82.28 -89.691,127.993l206.925,113.119c16.476,-30.211 36.368,-58.617 59.356,-84.619Zm683.664,-302.78c-101.964,-56.761 -217.809,-87.926 -336.674,-88.44l-5.942,0c-77.375,0.329 -155.952,13.663 -232.793,41.387c-24.059,8.687 -47.339,18.607 -69.856,29.597l103.834,212.112c14.884,-7.274 30.251,-13.796 46.19,-19.547c130.406,-47.063 268.134,-31.604 380.45,30.9l114.791,-206.009Z" style="fill:#55575a;fill-opacity:0.09;fill-rule:nonzero;"/><path d="M1113.38,234.627l0,-1.316c-0.144,-80.493 -25.596,-161.578 -78.073,-230.369l-5.979,4.562c125.13,164.025 93.509,399.275 -70.507,524.402l4.545,5.968c98.148,-74.871 149.826,-188.406 150.014,-303.247Zm-678.984,226.758c-125.116,-164.028 -93.465,-399.282 70.557,-524.409l-4.569,-5.978c-97.872,74.663 -149.55,187.775 -150.03,302.29l-0,3.199c0.329,80.205 25.784,160.92 78.073,229.457l5.969,-4.559Z" style="fill:#55575a;fill-opacity:0.09;fill-rule:nonzero;"/></g><g id="Layer-1" serif:id="Layer 1"><path d="M637.429,370.318c-39.36,-32.482 -64.464,-81.632 -64.464,-136.598c-0,-97.708 79.327,-177.035 177.035,-177.035c97.708,-0 177.035,79.327 177.035,177.035c0,54.63 -24.799,103.515 -63.743,136c-0.808,-10.358 -3.791,-18.475 -7.002,-24.423c29.468,-28.08 47.841,-67.7 47.841,-111.577c0,-85.067 -69.064,-154.132 -154.131,-154.132c-85.067,0 -154.132,69.065 -154.132,154.132c0,44.013 18.488,83.742 48.116,111.838c-3.099,5.911 -5.885,14.051 -6.555,24.76" style="fill:#626060;"/><path d="M838.777,321.622c0.024,0.027 15.298,17.379 15.298,53.652c0,42.676 -15.298,53.652 -15.298,53.652l-176.774,0c0,0 -15.297,-15.226 -15.297,-53.652c-0,-38.396 15.273,-53.628 15.297,-53.652l176.774,-0Z" style="fill:#b52f25;"/><path d="M898.948,250.89c-46.615,16.59 -96.742,25.603 -148.943,25.603c-52.211,-0 -102.329,-9.013 -148.953,-25.603c47.035,13.495 97.059,20.769 148.953,20.769c51.884,0 101.914,-7.274 148.943,-20.769" style="fill:#626060;fill-rule:nonzero;"/><path d="M642.328,217.49l-6.614,0l-1.525,-11.223c-0.129,-1.004 -0.224,-1.885 -0.282,-2.641c-0.084,-0.745 -0.166,-1.803 -0.249,-3.174c-0.213,1.23 -0.544,2.6 -0.993,4.113c-0.095,0.295 -0.166,0.55 -0.213,0.762l-3.529,12.163l-4.715,0l-3.528,-12.163c-0.036,-0.2 -0.107,-0.454 -0.213,-0.762c-0.496,-1.595 -0.821,-2.967 -0.976,-4.113c-0.093,1.3 -0.182,2.269 -0.265,2.907c-0.036,0.332 -0.089,0.816 -0.16,1.455c-0.071,0.638 -0.124,1.123 -0.159,1.453l-1.526,11.223l-6.578,0l4.008,-25.956l7.003,-0l3.918,13.386c0.071,0.248 0.118,0.407 0.142,0.478c0.342,1.111 0.573,2.129 0.691,3.05c0.025,-0.319 0.114,-0.839 0.266,-1.56c0.048,-0.178 0.225,-0.845 0.532,-2.003l3.954,-13.351l7.021,-0l3.99,25.956Z" style="fill:#b52f25;fill-rule:nonzero;"/><path d="M645.98,191.534l7.092,-0l-0,12.624c-0,1.925 0.047,3.262 0.141,4.007c0.118,0.886 0.278,1.56 0.479,2.02c0.248,0.674 0.715,1.171 1.401,1.49c0.685,0.366 1.513,0.549 2.482,0.549c0.957,0 1.779,-0.183 2.464,-0.549c0.627,-0.307 1.099,-0.804 1.418,-1.49c0.189,-0.472 0.344,-1.145 0.462,-2.02c0.106,-0.71 0.159,-2.045 0.159,-4.007l-0,-12.624l7.039,-0l-0,13.723c-0,2.813 -0.171,4.905 -0.514,6.277c-0.319,1.358 -0.898,2.523 -1.738,3.492c-0.921,1.075 -2.144,1.861 -3.67,2.357c-1.512,0.533 -3.386,0.799 -5.62,0.799c-2.281,-0 -4.16,-0.266 -5.638,-0.799c-1.502,-0.496 -2.725,-1.282 -3.67,-2.357c-0.816,-0.946 -1.395,-2.11 -1.738,-3.492c-0.365,-1.396 -0.549,-3.488 -0.549,-6.277l0,-13.723Z" style="fill:#b52f25;fill-rule:nonzero;"/><path d="M674.472,217.49l-0,-25.956l7.073,-0l0,19.893l8.795,-0l0,6.063l-15.868,-0l-0,0Z" style="fill:#b52f25;fill-rule:nonzero;"/><path d="M697.574,217.49l-0,-19.821l-5.816,-0l-0,-6.135l18.705,-0l-0,6.135l-5.815,-0l-0,19.821l-7.074,0Z" style="fill:#b52f25;fill-rule:nonzero;"/><rect x="714.08" y="191.534" width="7.145" height="25.956" style="fill:#b52f25;"/><rect x="727.128" y="191.534" width="7.145" height="25.956" style="fill:#b52f25;"/><path d="M739.999,217.49l0,-25.956l6.827,-0l9.804,13.351c0.248,0.366 0.561,0.916 0.94,1.648c0.485,0.946 0.957,1.921 1.419,2.925c-0.178,-1.359 -0.279,-2.311 -0.303,-2.854c-0.071,-0.851 -0.105,-1.601 -0.105,-2.252l-0,-12.818l6.79,-0l-0,25.956l-6.79,0l-9.805,-13.403c-0.142,-0.189 -0.455,-0.745 -0.94,-1.667c-0.425,-0.756 -0.898,-1.714 -1.418,-2.872c0.118,0.922 0.23,1.879 0.337,2.872c0.047,1.112 0.071,1.862 0.071,2.251l0,12.819l-6.827,0Z" style="fill:#b52f25;fill-rule:nonzero;"/><path d="M774.663,217.49l-0,-19.821l-5.815,-0l-0,-6.135l18.704,-0l-0,6.135l-5.815,-0l-0,19.821l-7.074,0Z" style="fill:#b52f25;fill-rule:nonzero;"/><path d="M790.991,217.49l-0,-25.956l15.903,-0l-0,5.691l-9.006,0l-0,4.503l8.492,0l0,5.568l-8.492,0l-0,4.379l9.006,-0l-0,5.815l-15.903,-0l-0,0Z" style="fill:#b52f25;fill-rule:nonzero;"/><path d="M823.898,207.934l0,-5.443l13.9,0c-0,0.249 0.012,0.443 0.037,0.585l0,0.939c0,4.481 -1.17,7.944 -3.51,10.391c-2.365,2.47 -5.692,3.704 -9.982,3.704c-2.045,0 -3.913,-0.313 -5.602,-0.939c-1.631,-0.626 -3.098,-1.596 -4.397,-2.908c-1.241,-1.264 -2.193,-2.729 -2.855,-4.397c-0.355,-0.886 -0.614,-1.772 -0.78,-2.659c-0.166,-0.899 -0.248,-1.791 -0.248,-2.677c-0,-1.915 0.331,-3.694 0.993,-5.337c0.661,-1.595 1.649,-3.061 2.961,-4.397c1.253,-1.252 2.743,-2.21 4.467,-2.872c1.703,-0.65 3.523,-0.975 5.462,-0.975c2.529,-0 4.775,0.509 6.736,1.525c0.627,0.307 1.241,0.691 1.845,1.152c0.614,0.449 1.175,0.952 1.683,1.507c0.521,0.556 0.993,1.158 1.419,1.809l-6.134,2.943c-0.735,-1.005 -1.556,-1.756 -2.467,-2.253c-0.934,-0.483 -1.961,-0.726 -3.085,-0.726c-2.127,0 -3.788,0.703 -4.982,2.109c-1.206,1.396 -1.808,3.328 -1.808,5.799c-0,2.482 0.602,4.433 1.808,5.85c1.194,1.407 2.855,2.111 4.982,2.111c1.809,-0 3.304,-0.45 4.486,-1.348c1.229,-0.887 1.932,-2.05 2.109,-3.493l-7.038,-0Z" style="fill:#b52f25;fill-rule:nonzero;"/><path d="M842.196,217.49l-0,-25.956l7.393,-0c1.43,-0 2.636,0.03 3.616,0.089c0.993,0.058 1.809,0.16 2.448,0.301c1.099,0.26 2.08,0.709 2.943,1.347c0.946,0.71 1.661,1.619 2.145,2.73c0.508,1.064 0.762,2.27 0.762,3.618c0,1.997 -0.496,3.634 -1.489,4.911c-0.969,1.277 -2.405,2.109 -4.308,2.5l7.074,10.46l-7.996,-0l-5.957,-10.159l-0,10.159l-6.631,-0l-0,0Zm6.631,-13.687l1.312,0c1.548,0 2.665,-0.255 3.351,-0.763c0.697,-0.567 1.045,-1.388 1.045,-2.464c0,-1.299 -0.325,-2.222 -0.975,-2.766c-0.662,-0.555 -1.767,-0.833 -3.314,-0.833l-1.419,0l-0,6.826Z" style="fill:#b52f25;fill-rule:nonzero;"/><path d="M872.318,207.792l7.039,0l-2.642,-8.563c-0.059,-0.154 -0.171,-0.579 -0.337,-1.277c-0.201,-0.816 -0.384,-1.554 -0.55,-2.216c-0.164,0.603 -0.307,1.211 -0.425,1.826c-0.189,0.591 -0.349,1.147 -0.479,1.667l-2.606,8.563Zm-9.911,9.698l8.954,-25.956l8.865,-0l8.971,25.956l-7.039,0l-1.312,-4.644l-10.052,-0l-1.348,4.644l-7.039,0Z" style="fill:#b52f25;fill-rule:nonzero;"/><path d="M616.569,228.81l-0,15.986l-3.015,-0l-0,-15.986l-4.927,-0l-0,-2.56l12.844,0l-0,2.56l-4.902,-0Z" style="fill:#626060;fill-rule:nonzero;"/><path d="M623.802,244.796l-0,-18.546l10.35,0l-0,2.559l-7.335,0l-0,4.65l7.335,-0l-0,2.647l-7.335,-0l-0,5.992l7.335,-0l-0,2.698l-10.35,-0Z" style="fill:#626060;fill-rule:nonzero;"/><path d="M652.519,230.761c-0.854,-0.726 -1.757,-1.272 -2.71,-1.635c-0.947,-0.362 -1.943,-0.545 -2.991,-0.545c-2.026,0 -3.677,0.651 -4.952,1.952c-1.268,1.3 -1.9,2.985 -1.9,5.054c-0,2 0.616,3.652 1.849,4.953c1.241,1.3 2.804,1.95 4.686,1.95c1.098,0 2.142,-0.193 3.13,-0.583c0.996,-0.388 1.951,-0.975 2.862,-1.76l0,3.407c-0.81,0.583 -1.692,1.018 -2.647,1.306c-0.954,0.286 -1.989,0.43 -3.104,0.43c-1.418,0 -2.732,-0.233 -3.939,-0.697c-1.199,-0.464 -2.255,-1.148 -3.167,-2.052c-0.904,-0.887 -1.6,-1.93 -2.09,-3.129c-0.482,-1.208 -0.722,-2.492 -0.722,-3.851c0,-1.359 0.24,-2.635 0.722,-3.825c0.49,-1.199 1.195,-2.251 2.115,-3.155c0.921,-0.911 1.976,-1.6 3.167,-2.064c1.191,-0.474 2.478,-0.709 3.863,-0.709c1.09,-0 2.129,0.16 3.118,0.481c0.987,0.312 1.945,0.789 2.874,1.431l-0.164,3.041Z" style="fill:#626060;fill-rule:nonzero;"/><path d="M656.281,244.796l-0,-18.546l3.015,0l-0,6.841l9.12,-0l0,-6.841l3.015,0l0,18.546l-3.015,-0l0,-9.007l-9.12,-0l-0,9.007l-3.015,-0Z" style="fill:#626060;fill-rule:nonzero;"/><path d="M675.687,244.796l0,-19.281l11.781,11.338c0.321,0.321 0.646,0.663 0.975,1.026c0.33,0.363 0.676,0.773 1.039,1.229l-0,-12.858l2.787,0l-0,19.267l-12.022,-11.539c-0.321,-0.313 -0.633,-0.642 -0.937,-0.988c-0.296,-0.347 -0.579,-0.71 -0.849,-1.09l-0,12.896l-2.774,-0Z" style="fill:#626060;fill-rule:nonzero;"/><path d="M712.385,235.561c-0,-0.937 -0.173,-1.828 -0.52,-2.672c-0.337,-0.845 -0.828,-1.597 -1.47,-2.255c-0.624,-0.651 -1.351,-1.149 -2.178,-1.495c-0.819,-0.355 -1.685,-0.532 -2.596,-0.532c-0.913,-0 -1.783,0.173 -2.61,0.519c-0.82,0.346 -1.55,0.849 -2.192,1.508c-0.642,0.65 -1.131,1.397 -1.469,2.242c-0.338,0.844 -0.507,1.739 -0.507,2.685c-0,0.937 0.169,1.824 0.507,2.66c0.337,0.837 0.827,1.584 1.469,2.242c0.642,0.659 1.372,1.162 2.192,1.508c0.819,0.346 1.689,0.519 2.61,0.519c0.903,0 1.76,-0.173 2.57,-0.519c0.82,-0.346 1.555,-0.849 2.204,-1.508c0.642,-0.658 1.132,-1.405 1.47,-2.242c0.347,-0.844 0.52,-1.731 0.52,-2.66m3.141,0c0,1.318 -0.25,2.564 -0.747,3.737c-0.491,1.175 -1.209,2.221 -2.154,3.142c-0.954,0.919 -2.03,1.625 -3.23,2.115c-1.2,0.49 -2.458,0.735 -3.774,0.735c-1.336,0 -2.61,-0.245 -3.827,-0.735c-1.207,-0.498 -2.276,-1.203 -3.204,-2.115c-0.946,-0.921 -1.664,-1.964 -2.154,-3.13c-0.49,-1.165 -0.735,-2.415 -0.735,-3.749c0,-1.326 0.245,-2.576 0.735,-3.749c0.49,-1.174 1.208,-2.226 2.154,-3.155c0.945,-0.92 2.019,-1.621 3.217,-2.102c1.199,-0.482 2.47,-0.722 3.814,-0.722c1.333,-0 2.596,0.24 3.787,0.722c1.199,0.481 2.271,1.182 3.217,2.102c0.945,0.938 1.663,1.998 2.154,3.18c0.497,1.173 0.747,2.415 0.747,3.724" style="fill:#626060;fill-rule:nonzero;"/><path d="M719.009,244.796l0,-18.546l3.016,0l-0,15.848l6.738,-0l0,2.698l-9.754,-0Z" style="fill:#626060;fill-rule:nonzero;"/><path d="M746.18,235.561c0,-0.937 -0.172,-1.828 -0.518,-2.672c-0.338,-0.845 -0.828,-1.597 -1.47,-2.255c-0.625,-0.651 -1.352,-1.149 -2.179,-1.495c-0.819,-0.355 -1.684,-0.532 -2.597,-0.532c-0.912,-0 -1.782,0.173 -2.609,0.519c-0.82,0.346 -1.55,0.849 -2.192,1.508c-0.641,0.65 -1.131,1.397 -1.469,2.242c-0.338,0.844 -0.506,1.739 -0.506,2.685c0,0.937 0.168,1.824 0.506,2.66c0.338,0.837 0.828,1.584 1.469,2.242c0.642,0.659 1.372,1.162 2.192,1.508c0.819,0.346 1.688,0.519 2.609,0.519c0.904,0 1.761,-0.173 2.572,-0.519c0.82,-0.346 1.554,-0.849 2.204,-1.508c0.642,-0.658 1.132,-1.405 1.47,-2.242c0.346,-0.844 0.518,-1.731 0.518,-2.66m3.143,0c-0,1.318 -0.25,2.564 -0.748,3.737c-0.49,1.175 -1.207,2.221 -2.153,3.142c-0.955,0.919 -2.032,1.625 -3.231,2.115c-1.2,0.49 -2.457,0.735 -3.775,0.735c-1.334,0 -2.609,-0.245 -3.825,-0.735c-1.208,-0.498 -2.276,-1.203 -3.206,-2.115c-0.945,-0.921 -1.662,-1.964 -2.153,-3.13c-0.489,-1.165 -0.734,-2.415 -0.734,-3.749c-0,-1.326 0.245,-2.576 0.734,-3.749c0.491,-1.174 1.208,-2.226 2.153,-3.155c0.948,-0.92 2.019,-1.621 3.219,-2.102c1.198,-0.482 2.47,-0.722 3.812,-0.722c1.335,-0 2.597,0.24 3.788,0.722c1.199,0.481 2.272,1.182 3.218,2.102c0.946,0.938 1.663,1.998 2.153,3.18c0.498,1.173 0.748,2.415 0.748,3.724" style="fill:#626060;fill-rule:nonzero;"/><path d="M763.078,235.296l7.348,-0c-0,0.126 0.003,0.303 0.01,0.531c0.025,0.6 0.037,1.005 0.037,1.217c0,2.609 -0.748,4.636 -2.242,6.08c-1.494,1.443 -3.601,2.166 -6.321,2.166c-1.52,-0 -2.875,-0.224 -4.065,-0.672c-1.192,-0.447 -2.234,-1.123 -3.13,-2.027c-0.879,-0.895 -1.554,-1.946 -2.027,-3.154c-0.464,-1.208 -0.696,-2.499 -0.696,-3.876c0,-1.402 0.236,-2.694 0.709,-3.876c0.481,-1.183 1.191,-2.225 2.128,-3.129c0.903,-0.886 1.964,-1.562 3.18,-2.026c1.216,-0.465 2.516,-0.697 3.901,-0.697c1.461,-0 2.766,0.265 3.915,0.798c1.157,0.531 2.187,1.347 3.09,2.444l-2.204,1.66c-0.625,-0.726 -1.33,-1.267 -2.116,-1.621c-0.785,-0.355 -1.663,-0.533 -2.634,-0.533c-2.01,0 -3.652,0.647 -4.928,1.938c-1.267,1.284 -1.899,2.956 -1.899,5.017c-0,2.094 0.632,3.796 1.899,5.105c1.276,1.301 2.926,1.95 4.953,1.95c1.723,0 3.078,-0.4 4.066,-1.202c0.989,-0.803 1.483,-1.897 1.483,-3.281l-0,-0.267l-4.459,-0l0.002,-2.545Z" style="fill:#626060;fill-rule:nonzero;"/><path d="M777.192,244.796l-0,-8.487l-6.246,-10.059l3.167,0l3.889,6.296c0.093,0.161 0.207,0.372 0.342,0.634c0.144,0.262 0.287,0.544 0.43,0.848c0.118,-0.295 0.242,-0.574 0.368,-0.836c0.135,-0.261 0.274,-0.503 0.417,-0.722l3.992,-6.22l3.014,0l-6.384,10.059l-0,8.487l-2.989,-0l-0,-0Z" style="fill:#626060;fill-rule:nonzero;"/><path d="M805.401,237.968l-0,-3.889l9.93,-0c0,0.178 0.01,0.316 0.028,0.418l-0,0.671c-0,3.201 -0.836,5.675 -2.508,7.423c-1.689,1.765 -4.066,2.647 -7.132,2.647c-1.461,0 -2.795,-0.223 -4.003,-0.671c-1.166,-0.447 -2.213,-1.139 -3.142,-2.077c-0.886,-0.904 -1.566,-1.951 -2.039,-3.142c-0.253,-0.633 -0.439,-1.267 -0.558,-1.899c-0.118,-0.642 -0.177,-1.28 -0.177,-1.913c0,-1.369 0.237,-2.64 0.71,-3.813c0.472,-1.14 1.178,-2.187 2.115,-3.142c0.895,-0.895 1.959,-1.579 3.193,-2.052c1.215,-0.464 2.516,-0.696 3.901,-0.696c1.807,-0 3.412,0.363 4.814,1.089c0.447,0.219 0.887,0.493 1.316,0.823c0.439,0.321 0.841,0.68 1.205,1.077c0.371,0.396 0.708,0.828 1.013,1.292l-4.383,2.103c-0.524,-0.718 -1.111,-1.254 -1.761,-1.609c-0.668,-0.346 -1.402,-0.519 -2.204,-0.519c-1.52,-0 -2.706,0.502 -3.56,1.507c-0.862,0.997 -1.291,2.377 -1.291,4.142c-0,1.774 0.429,3.167 1.291,4.18c0.854,1.005 2.04,1.508 3.56,1.508c1.292,-0 2.36,-0.321 3.205,-0.963c0.878,-0.633 1.38,-1.465 1.508,-2.495l-5.031,0Z" style="fill:#626060;fill-rule:nonzero;"/><path d="M818.472,244.796l0,-18.546l5.283,0c1.022,0 1.882,0.022 2.583,0.065c0.711,0.041 1.293,0.113 1.749,0.215c0.786,0.185 1.486,0.506 2.102,0.963c0.677,0.506 1.187,1.156 1.533,1.95c0.364,0.76 0.546,1.622 0.546,2.584c-0,1.427 -0.356,2.597 -1.065,3.509c-0.693,0.912 -1.718,1.508 -3.078,1.786l5.054,7.474l-5.713,-0l-4.256,-7.259l-0,7.259l-4.738,-0Zm4.738,-9.779l0.938,-0c1.106,-0 1.903,-0.182 2.393,-0.545c0.498,-0.406 0.748,-0.993 0.748,-1.761c0,-0.929 -0.233,-1.588 -0.697,-1.977c-0.473,-0.396 -1.263,-0.595 -2.369,-0.595l-1.013,0l-0,4.878Z" style="fill:#626060;fill-rule:nonzero;"/><path d="M854.131,235.561c-0,1.343 -0.241,2.597 -0.722,3.762c-0.482,1.14 -1.2,2.18 -2.154,3.117c-0.945,0.912 -2.027,1.612 -3.243,2.102c-1.275,0.498 -2.538,0.748 -3.787,0.748c-1.267,0 -2.529,-0.25 -3.788,-0.748c-1.241,-0.497 -2.313,-1.198 -3.217,-2.102c-0.913,-0.87 -1.63,-1.917 -2.154,-3.142c-0.507,-1.199 -0.759,-2.445 -0.759,-3.737c-0,-1.292 0.252,-2.537 0.759,-3.736c0.524,-1.225 1.241,-2.272 2.154,-3.143c0.929,-0.928 2.001,-1.637 3.217,-2.127c1.183,-0.482 2.445,-0.722 3.788,-0.722c1.343,-0 2.614,0.245 3.813,0.734c1.199,0.481 2.267,1.187 3.205,2.115c0.946,0.931 1.667,1.977 2.166,3.143c0.481,1.165 0.722,2.41 0.722,3.736m-9.906,5.447c1.394,-0 2.559,-0.519 3.496,-1.558c0.464,-0.515 0.807,-1.093 1.026,-1.735c0.22,-0.642 0.329,-1.36 0.329,-2.154c0,-1.545 -0.46,-2.842 -1.381,-3.889c-0.938,-1.038 -2.094,-1.558 -3.471,-1.558c-1.41,0 -2.571,0.52 -3.483,1.558c-0.912,1.039 -1.368,2.336 -1.368,3.889c-0,1.613 0.447,2.918 1.343,3.914c0.921,1.023 2.09,1.533 3.508,1.533l0.001,-0Z" style="fill:#626060;fill-rule:nonzero;"/><path d="M857.147,226.25l5.067,0l0,9.02c0,1.376 0.034,2.331 0.102,2.863c0.085,0.634 0.199,1.115 0.342,1.444c0.178,0.481 0.511,0.836 1.001,1.064c0.49,0.262 1.081,0.392 1.773,0.392c0.685,0 1.271,-0.13 1.762,-0.392c0.446,-0.22 0.785,-0.575 1.012,-1.064c0.135,-0.338 0.245,-0.82 0.33,-1.444c0.075,-0.507 0.113,-1.462 0.113,-2.863l-0,-9.02l5.029,0l-0,9.806c-0,2.009 -0.123,3.504 -0.368,4.484c-0.227,0.97 -0.641,1.802 -1.241,2.495c-0.659,0.769 -1.533,1.33 -2.622,1.685c-1.081,0.38 -2.42,0.57 -4.015,0.57c-1.631,0 -2.973,-0.19 -4.028,-0.57c-1.074,-0.355 -1.948,-0.916 -2.622,-1.685c-0.583,-0.676 -0.998,-1.507 -1.242,-2.495c-0.262,-0.998 -0.393,-2.492 -0.393,-4.484l-0,-9.806Z" style="fill:#626060;fill-rule:nonzero;"/><path d="M882.241,244.796l-4.737,-0l-0,-18.546l5.281,0c2.052,0 3.509,0.102 4.37,0.305c0.845,0.219 1.55,0.565 2.116,1.039c0.676,0.565 1.195,1.266 1.558,2.102c0.363,0.853 0.545,1.803 0.545,2.85c0,1.116 -0.182,2.086 -0.545,2.914c-0.321,0.836 -0.84,1.528 -1.558,2.077c-0.515,0.406 -1.136,0.697 -1.862,0.874c-0.65,0.178 -1.782,0.267 -3.395,0.267l-1.773,-0l-0,6.118Zm-0,-10.198l0.963,0c1.199,0 2.048,-0.173 2.546,-0.519c0.481,-0.321 0.722,-0.882 0.722,-1.685c0,-0.769 -0.237,-1.317 -0.71,-1.646c-0.464,-0.338 -1.301,-0.507 -2.508,-0.507l-1.013,0l-0,4.357Z" style="fill:#626060;fill-rule:nonzero;"/><path d="M643.08,442.453c0,0.399 -0.07,0.822 -0.211,1.268c-0.142,0.447 -0.376,1.105 -0.705,1.974c-0.258,0.611 -0.588,1.492 -0.987,2.643c-1.033,3.031 -1.82,6.379 -2.361,10.044c-0.07,0.611 -0.141,1.269 -0.212,1.973c-0.07,0.705 -0.105,1.304 -0.105,1.798c-0,0.282 0.087,0.552 0.264,0.81c0.176,0.259 0.264,0.423 0.264,0.494c0,0.141 -0.152,0.393 -0.457,0.757c-0.306,0.365 -0.647,0.699 -1.023,1.005c-0.375,0.305 -0.681,0.458 -0.916,0.458c-0.47,-0 -0.705,-0.2 -0.705,-0.599c-0,-0.517 0.294,-2.285 0.882,-5.304c0.586,-3.019 1.079,-5.339 1.479,-6.96c-0.563,0.634 -1.069,1.127 -1.515,1.48c-0.446,0.352 -0.999,0.528 -1.656,0.528c-0.94,0 -1.892,-0.746 -2.855,-2.237c-0.963,-1.492 -1.926,-3.284 -2.89,-5.375l-0.352,-0.705c-0.33,-0.681 -0.658,-1.268 -0.987,-1.762c-0.329,-0.493 -0.494,-0.775 -0.494,-0.846c0,-0.117 0.088,-0.205 0.265,-0.264c0.176,-0.059 0.37,-0.088 0.581,-0.088c0.776,0 1.469,0.74 2.08,2.22c0.846,2.021 1.685,3.765 2.52,5.234c0.834,1.468 1.696,2.202 2.59,2.202c0.587,0 1.103,-0.199 1.551,-0.599c0.446,-0.399 0.81,-0.869 1.092,-1.409c0.258,-0.494 0.57,-1.199 0.934,-2.115c0.364,-0.916 0.64,-1.668 0.828,-2.255c0.751,-2.256 1.163,-3.56 1.233,-3.912c0.118,-0.494 0.224,-0.84 0.318,-1.04c0.093,-0.2 0.247,-0.299 0.457,-0.299c0.259,-0 0.506,0.088 0.74,0.264c0.235,0.176 0.353,0.382 0.353,0.617" style="fill:#626060;fill-rule:nonzero;"/><path d="M657.882,456.092c0.164,0 0.246,0.176 0.246,0.529c-0,0.423 -0.311,1.351 -0.934,2.784c-0.622,1.433 -1.562,2.76 -2.819,3.982c-1.256,1.222 -2.801,1.833 -4.634,1.833c-1.504,-0 -2.76,-0.47 -3.771,-1.41c-1.011,-0.94 -1.515,-2.385 -1.515,-4.335c-0,-1.832 0.423,-3.647 1.268,-5.445c0.846,-1.797 1.95,-3.265 3.313,-4.405c1.363,-1.139 2.772,-1.709 4.229,-1.709c0.869,-0 1.603,0.194 2.202,0.582c0.599,0.387 0.899,0.945 0.899,1.673c-0,0.823 -0.463,1.622 -1.392,2.397c-0.928,0.775 -2.132,1.456 -3.612,2.044c-1.48,0.587 -3.008,1.01 -4.582,1.268c-0.281,1.081 -0.423,2.139 -0.423,3.172c0,1.363 0.323,2.42 0.97,3.172c0.646,0.752 1.568,1.128 2.766,1.128c1.809,-0 3.277,-0.646 4.406,-1.939c1.127,-1.292 2.067,-2.748 2.818,-4.369c0.047,-0.094 0.13,-0.277 0.248,-0.547c0.117,-0.27 0.222,-0.405 0.317,-0.405m-3.101,-5.533c-0,-0.376 -0.194,-0.669 -0.583,-0.881c-0.387,-0.211 -0.839,-0.317 -1.356,-0.317c-0.892,-0 -1.75,0.294 -2.573,0.881c-0.822,0.587 -1.509,1.292 -2.062,2.114c-0.552,0.823 -0.91,1.551 -1.074,2.185c1.081,-0.117 2.22,-0.423 3.419,-0.916c1.197,-0.493 2.202,-1.034 3.013,-1.621c0.81,-0.587 1.216,-1.069 1.216,-1.445" style="fill:#626060;fill-rule:nonzero;"/><path d="M674.093,462.823c0.023,0.165 0.118,0.335 0.281,0.511c0.165,0.176 0.247,0.323 0.247,0.441c0,0.282 -0.118,0.605 -0.352,0.969c-0.235,0.364 -0.47,0.546 -0.705,0.546c-0.4,0 -0.705,-0.247 -0.916,-0.74c-0.212,-0.493 -0.317,-1.069 -0.317,-1.727c-0,-0.564 0.035,-2.255 0.105,-5.075l0.036,-1.339c-0,-0.54 -0.141,-0.928 -0.423,-1.163c-1.058,1.786 -2.044,3.336 -2.961,4.652c-0.916,1.316 -2.078,2.555 -3.489,3.718c-1.409,1.163 -2.889,1.745 -4.44,1.745c-0.752,-0 -1.334,-0.235 -1.744,-0.705c-0.411,-0.47 -0.617,-1.081 -0.617,-1.833c-0,-0.94 0.423,-2.226 1.269,-3.859c0.846,-1.633 1.926,-3.289 3.241,-4.969c1.316,-1.68 2.632,-3.06 3.948,-4.141c0.869,-0.705 1.562,-1.18 2.079,-1.427c0.517,-0.247 0.975,-0.37 1.375,-0.37c0.376,0 0.763,0.117 1.163,0.352c0.399,0.235 0.739,0.564 1.022,0.987c0.281,0.423 0.423,0.905 0.423,1.445c-0,0.728 -0.2,1.421 -0.6,2.079l0.6,-0.176c0.258,0 0.411,0.317 0.457,0.952c0.024,0.375 0.054,1.139 0.088,2.29c0.036,1.152 0.065,2.103 0.088,2.855c0.025,0.775 0.048,1.527 0.071,2.255c0.024,0.729 0.047,1.304 0.071,1.727m-12.441,0.635c1.269,-0 2.491,-0.47 3.666,-1.41c1.174,-0.94 2.226,-2.062 3.153,-3.366c0.929,-1.304 1.957,-2.907 3.085,-4.81c0.281,-0.705 0.423,-1.469 0.423,-2.291c-0,-0.493 -0.147,-0.922 -0.441,-1.286c-0.294,-0.364 -0.688,-0.546 -1.181,-0.546c-0.587,-0 -1.339,0.399 -2.255,1.198c-1.058,0.893 -2.173,2.085 -3.349,3.577c-1.174,1.492 -2.149,2.966 -2.924,4.423c-0.776,1.456 -1.163,2.607 -1.163,3.453c-0,0.705 0.328,1.058 0.986,1.058" style="fill:#626060;fill-rule:nonzero;"/><path d="M688.824,450.241c0,0.212 -0.147,0.453 -0.441,0.723c-0.294,0.27 -0.546,0.405 -0.758,0.405c-0.163,0 -0.323,-0.07 -0.475,-0.211c-0.153,-0.141 -0.323,-0.341 -0.511,-0.599c-0.165,-0.235 -0.382,-0.435 -0.652,-0.599c-0.271,-0.165 -0.547,-0.247 -0.828,-0.247c-0.682,-0 -1.598,0.899 -2.749,2.696c-1.152,1.797 -2.28,4.058 -3.384,6.784c0.025,0.54 0.065,1.222 0.124,2.044c0.059,0.822 0.1,1.433 0.123,1.832l0.106,1.41c0,0.329 -0.07,0.617 -0.211,0.863c-0.142,0.247 -0.4,0.371 -0.775,0.371c-0.4,-0 -0.658,-0.535 -0.776,-1.604c-0.117,-1.069 -0.188,-2.625 -0.212,-4.669c-0.023,-0.517 -0.041,-1.257 -0.052,-2.221c-0.012,-0.963 -0.041,-2.114 -0.089,-3.453c-0.07,-2.021 -0.106,-3.466 -0.106,-4.335c0,-0.54 0.33,-0.811 0.988,-0.811c0.399,0 0.64,0.171 0.722,0.512c0.082,0.34 0.124,0.992 0.124,1.955l-0,5.604c0.704,-1.809 1.468,-3.372 2.29,-4.687c0.822,-1.316 1.627,-2.321 2.414,-3.014c0.787,-0.693 1.486,-1.039 2.097,-1.039c0.517,-0 1.011,0.117 1.48,0.352c0.47,0.235 0.846,0.535 1.128,0.899c0.282,0.364 0.423,0.711 0.423,1.039" style="fill:#626060;fill-rule:nonzero;"/><path d="M702.603,460.144c-0,1.034 -0.417,2.026 -1.25,2.978c-0.835,0.951 -1.933,1.715 -3.296,2.29c-1.363,0.576 -2.784,0.864 -4.264,0.864c-1.01,-0 -1.692,-0.094 -2.045,-0.282c-0.351,-0.188 -0.527,-0.447 -0.527,-0.775c-0,-0.212 0.269,-0.582 0.81,-1.111c0.54,-0.528 0.904,-0.793 1.092,-0.793c0.282,0 0.423,0.059 0.423,0.177c0,0.094 -0.059,0.188 -0.176,0.282c-0.118,0.094 -0.177,0.176 -0.177,0.246c0,0.094 0.147,0.188 0.441,0.282c0.294,0.094 0.652,0.141 1.075,0.141c0.987,0 1.98,-0.182 2.978,-0.546c0.999,-0.364 1.815,-0.84 2.449,-1.427c0.635,-0.588 0.952,-1.21 0.952,-1.868c-0,-0.634 -0.2,-1.14 -0.599,-1.515c-0.4,-0.376 -0.898,-0.652 -1.498,-0.829c-0.599,-0.176 -1.603,-0.428 -3.013,-0.757c-1.55,-0.353 -2.755,-0.664 -3.613,-0.934c-0.857,-0.27 -1.544,-0.611 -2.061,-1.022c-0.517,-0.411 -0.775,-0.934 -0.775,-1.569c-0,-1.127 0.552,-2.161 1.656,-3.101c1.104,-0.94 2.373,-1.68 3.806,-2.22c1.434,-0.54 2.538,-0.811 3.313,-0.811c0.799,0 1.198,0.235 1.198,0.705c-0,0.282 -0.094,0.594 -0.282,0.934c-0.188,0.341 -0.47,0.511 -0.846,0.511c-0.14,0 -0.293,-0.053 -0.458,-0.158c-0.164,-0.106 -0.329,-0.159 -0.493,-0.159c-0.471,-0 -1.21,0.153 -2.22,0.458c-1.011,0.305 -1.927,0.764 -2.749,1.375c-0.822,0.61 -1.233,1.351 -1.233,2.22c-0,0.564 0.323,0.981 0.968,1.251c0.647,0.27 1.85,0.605 3.612,1.004c0.212,0.071 0.423,0.124 0.635,0.159c0.211,0.035 0.4,0.076 0.564,0.123c1.809,0.423 3.195,0.905 4.158,1.445c0.964,0.54 1.445,1.351 1.445,2.432" style="fill:#626060;fill-rule:nonzero;"/><path d="M725.123,457.783c-0,0.917 -0.341,1.974 -1.022,3.172c-0.681,1.198 -1.645,2.226 -2.89,3.084c-1.245,0.857 -2.667,1.286 -4.264,1.286c-1.574,0 -2.738,-0.435 -3.489,-1.304c-0.752,-0.869 -1.129,-1.95 -1.129,-3.242c0,-1.128 0.206,-2.526 0.617,-4.194c0.412,-1.668 0.993,-3.16 1.745,-4.476c0.047,-0.094 0.241,-0.44 0.582,-1.039c0.34,-0.599 0.722,-1.057 1.145,-1.375c0.423,-0.317 0.869,-0.475 1.339,-0.475c0.212,-0 0.405,0.053 0.581,0.158c0.177,0.106 0.265,0.241 0.265,0.406c0,0.047 -0.065,0.158 -0.194,0.334c-0.129,0.177 -0.229,0.312 -0.299,0.406c-0.799,0.963 -1.445,1.914 -1.939,2.854c-0.658,1.198 -1.169,2.385 -1.533,3.56c-0.364,1.174 -0.546,2.455 -0.546,3.841c-0,1.856 1.127,2.784 3.383,2.784c1.057,-0 2.039,-0.305 2.943,-0.916c0.904,-0.611 1.627,-1.357 2.167,-2.238c0.541,-0.881 0.81,-1.686 0.81,-2.414c0,-0.822 -0.269,-1.539 -0.81,-2.15c-0.54,-0.611 -1.28,-1.257 -2.22,-1.938c-0.611,-0.446 -1.057,-0.811 -1.339,-1.093c-0.283,-0.282 -0.423,-0.516 -0.423,-0.705c0,-0.281 0.199,-0.511 0.599,-0.687c0.4,-0.176 0.869,-0.264 1.409,-0.264c0.306,-0 0.506,0.018 0.6,0.053c0.094,0.035 0.14,0.1 0.14,0.194c0,0.047 -0.041,0.123 -0.123,0.229c-0.081,0.105 -0.123,0.194 -0.123,0.264c0,0.07 0.235,0.305 0.705,0.705c0.94,0.775 1.727,1.562 2.361,2.361c0.635,0.799 0.952,1.739 0.952,2.819" style="fill:#626060;fill-rule:nonzero;"/><path d="M740.595,442.666c-0,0.282 -0.065,0.652 -0.194,1.11c-0.129,0.458 -0.276,0.687 -0.441,0.687c-0.164,0 -0.287,-0.076 -0.37,-0.229c-0.082,-0.153 -0.159,-0.358 -0.229,-0.617c-0.258,-0.798 -0.652,-1.474 -1.18,-2.026c-0.529,-0.552 -1.099,-0.828 -1.71,-0.828c-1.644,-0 -2.825,1.11 -3.542,3.33c-0.716,2.22 -1.074,4.822 -1.074,7.806c0.705,-0.047 1.497,-0.158 2.379,-0.335c0.88,-0.176 1.463,-0.287 1.744,-0.334c1.668,-0.353 2.772,-0.529 3.313,-0.529c0.47,0 0.705,0.212 0.705,0.634c-0,0.329 -0.071,0.682 -0.212,1.058c-0.141,0.376 -0.353,0.563 -0.634,0.563c-0.235,0 -0.47,-0.046 -0.705,-0.14c-0.329,-0.142 -0.776,-0.212 -1.339,-0.212c-0.376,0 -1.151,0.117 -2.327,0.352l-2.818,0.423c-0,0.588 0.07,2.221 0.211,4.899c0.235,4.135 0.352,7.436 0.352,9.903c0,0.446 -0.047,0.758 -0.14,0.934c-0.095,0.176 -0.283,0.264 -0.565,0.264c-0.328,0 -0.575,-0.188 -0.74,-0.564c-0.164,-0.376 -0.246,-0.799 -0.246,-1.269c0,-2.701 -0.177,-6.942 -0.529,-12.722l-0.071,-1.127c-0.188,0.023 -0.792,0.129 -1.814,0.317c-1.022,0.188 -1.768,0.282 -2.238,0.282c-0.259,-0 -0.476,-0.059 -0.652,-0.176c-0.176,-0.118 -0.265,-0.294 -0.265,-0.529c0,-0.588 0.212,-0.893 0.635,-0.917c0.611,-0.023 1.351,-0.076 2.22,-0.158c0.87,-0.082 1.539,-0.17 2.009,-0.264c-0,-3.853 0.523,-6.984 1.568,-9.392c1.045,-2.409 2.602,-3.613 4.67,-3.613c0.751,0 1.45,0.188 2.097,0.564c0.645,0.376 1.163,0.834 1.55,1.375c0.388,0.54 0.582,1.034 0.582,1.48" style="fill:#626060;fill-rule:nonzero;"/><path d="M766.919,442.594c0,0.282 -0.2,0.529 -0.6,0.74c-0.633,0.353 -1.626,0.728 -2.977,1.128c-1.351,0.399 -2.462,0.681 -3.331,0.846c-1.363,0.258 -2.731,0.464 -4.105,0.616c-1.375,0.153 -2.261,0.241 -2.661,0.265c0.023,1.363 0.059,2.766 0.106,4.211c0.047,1.445 0.082,2.438 0.106,2.978c0.916,-0.117 2.29,-0.341 4.123,-0.67l1.339,-0.211c1.48,-0.258 2.619,-0.728 3.418,-1.41c0.423,-0.329 0.728,-0.493 0.916,-0.493c0.165,-0 0.3,0.088 0.406,0.264c0.105,0.177 0.159,0.358 0.159,0.546c-0,0.423 -0.476,0.888 -1.428,1.392c-0.951,0.506 -2.003,0.876 -3.154,1.111c-0.963,0.211 -2.044,0.411 -3.242,0.599c-1.198,0.188 -1.985,0.305 -2.361,0.352c0.141,4.018 0.552,7.002 1.233,8.952c0.681,0.234 1.351,0.405 2.009,0.511c0.658,0.105 1.504,0.158 2.537,0.158c1.034,0 2.02,-0.135 2.961,-0.405c0.939,-0.27 1.698,-0.605 2.273,-1.004c0.575,-0.4 0.863,-0.776 0.863,-1.128c-0,-0.188 -0.035,-0.37 -0.106,-0.547c-0.07,-0.176 -0.164,-0.358 -0.282,-0.546c-0.046,-0.07 -0.123,-0.182 -0.229,-0.334c-0.106,-0.153 -0.158,-0.277 -0.158,-0.371c-0,-0.234 0.258,-0.352 0.775,-0.352c0.376,-0 0.699,0.159 0.969,0.476c0.271,0.317 0.405,0.664 0.405,1.039c0,0.752 -0.335,1.492 -1.004,2.221c-0.67,0.728 -1.586,1.321 -2.749,1.779c-1.162,0.459 -2.449,0.687 -3.858,0.687c-1.434,0 -2.608,-0.076 -3.525,-0.228c-0.916,-0.153 -1.609,-0.453 -2.079,-0.899c-0.564,-0.634 -0.957,-1.739 -1.181,-3.313c-0.223,-1.574 -0.416,-3.677 -0.581,-6.308c-0.446,0.117 -0.946,0.217 -1.498,0.299c-0.552,0.083 -0.969,0.124 -1.251,0.124c-0.282,-0 -0.511,-0.088 -0.687,-0.265c-0.176,-0.176 -0.264,-0.393 -0.264,-0.652c-0,-0.164 0.029,-0.305 0.088,-0.422c0.058,-0.118 0.147,-0.188 0.264,-0.212c0.775,-0.094 1.339,-0.153 1.692,-0.176l1.515,-0.176c-0.094,-3.031 -0.188,-5.498 -0.282,-7.401c-0.353,-0 -0.634,0.012 -0.846,0.035l-1.621,0.035c-0.211,0 -0.376,-0.058 -0.493,-0.176c-0.118,-0.117 -0.177,-0.247 -0.177,-0.387c0,-0.564 0.376,-0.94 1.128,-1.128c0.282,-0.047 0.64,-0.1 1.075,-0.159c0.434,-0.058 0.722,-0.088 0.864,-0.088c0.446,-0.493 0.939,-0.74 1.479,-0.74c0.095,0 0.171,0.076 0.23,0.229c0.059,0.153 0.087,0.265 0.087,0.335c1.551,-0.07 3.396,-0.247 5.534,-0.529c1.409,-0.188 3.582,-0.634 6.52,-1.339l1.303,-0.282c0.235,0 0.353,0.141 0.353,0.423" style="fill:#626060;fill-rule:nonzero;"/><path d="M779.642,461.343c0,0.306 -0.106,0.764 -0.317,1.375c-0.211,0.61 -0.459,1.157 -0.74,1.638c-0.282,0.482 -0.552,0.723 -0.811,0.723c-0.469,-0 -1.11,-0.582 -1.921,-1.745c-0.81,-1.163 -1.827,-2.743 -3.048,-4.74l-0.423,-0.705c-0.47,0.846 -0.851,1.557 -1.145,2.132c-0.294,0.576 -0.581,1.216 -0.864,1.921c-0.47,1.128 -0.705,1.797 -0.705,2.009c0,0.329 0.165,0.493 0.494,0.493c0.071,0 0.188,-0.058 0.352,-0.176c0.165,-0.117 0.282,-0.176 0.353,-0.176c0.117,-0 0.223,0.035 0.316,0.106c0.095,0.07 0.142,0.152 0.142,0.246c-0,0.141 -0.176,0.376 -0.529,0.705c-0.352,0.329 -0.746,0.623 -1.18,0.881c-0.435,0.259 -0.781,0.388 -1.04,0.388c-0.188,-0 -0.353,-0.159 -0.494,-0.476c-0.14,-0.317 -0.211,-0.652 -0.211,-1.004c-0,-0.634 0.265,-1.522 0.793,-2.661c0.529,-1.14 1.322,-2.72 2.379,-4.74l0.563,-1.022c-0.469,-1.01 -1.097,-2.285 -1.884,-3.824c-0.787,-1.539 -1.486,-2.801 -2.097,-3.788c-0.353,-0.611 -0.529,-1.198 -0.529,-1.762c-0,-0.235 0.029,-0.4 0.088,-0.494c0.059,-0.094 0.147,-0.141 0.265,-0.141c0.211,0 0.434,0.112 0.669,0.335c0.235,0.223 0.516,0.617 0.846,1.181c1.057,1.691 2.244,3.958 3.559,6.801c0.094,-0.164 0.365,-0.634 0.811,-1.409c0.728,-1.316 1.445,-2.526 2.149,-3.63c0.494,-0.705 0.875,-1.175 1.146,-1.41c0.27,-0.235 0.651,-0.352 1.145,-0.352c0.682,-0 1.022,0.188 1.022,0.564c0,0.094 -0.035,0.17 -0.106,0.229c-0.07,0.058 -0.229,0.152 -0.476,0.282c-0.246,0.129 -0.499,0.323 -0.757,0.581c-0.399,0.399 -1.022,1.251 -1.868,2.555c-0.846,1.304 -1.645,2.649 -2.396,4.035c0.516,0.987 1.122,1.98 1.814,2.978c0.694,0.999 1.316,1.821 1.868,2.467c0.552,0.646 0.899,0.969 1.04,0.969c0.329,0 0.6,-0.305 0.811,-0.916c0.047,-0.164 0.111,-0.341 0.194,-0.529c0.082,-0.188 0.181,-0.282 0.299,-0.282c0.282,0 0.423,0.13 0.423,0.388" style="fill:#626060;fill-rule:nonzero;"/><path d="M791.06,457.325c0,0.141 -0.24,0.576 -0.722,1.304c-0.481,0.728 -0.968,1.386 -1.463,1.974c-1.221,1.48 -2.319,2.619 -3.295,3.418c-0.975,0.799 -1.99,1.198 -3.047,1.198c-0.893,0 -1.628,-0.387 -2.203,-1.163c-0.576,-0.775 -0.864,-1.668 -0.864,-2.678c-0,-1.504 0.399,-3.407 1.199,-5.709c0.798,-2.303 1.809,-4.3 3.03,-5.991c1.222,-1.692 2.444,-2.538 3.665,-2.538c0.517,0 0.963,0.188 1.34,0.564c0.211,0.212 0.41,0.494 0.598,0.846c0.189,0.352 0.283,0.669 0.283,0.951c-0,0.4 -0.053,0.864 -0.159,1.392c-0.106,0.529 -0.217,0.794 -0.335,0.794c-0.235,-0 -0.387,-0.13 -0.458,-0.388c-0.071,-0.259 -0.118,-0.588 -0.141,-0.987c-0.07,-0.611 -0.14,-1.016 -0.212,-1.216c-0.07,-0.199 -0.175,-0.299 -0.317,-0.299c-1.104,-0 -2.173,0.769 -3.207,2.308c-1.033,1.539 -1.879,3.324 -2.537,5.357c-0.658,2.032 -0.987,3.6 -0.987,4.705c0,1.55 0.517,2.325 1.551,2.325c0.752,0 1.439,-0.188 2.061,-0.563c0.623,-0.376 1.275,-0.905 1.956,-1.586c1.269,-1.293 2.256,-2.409 2.961,-3.348c0.047,-0.071 0.182,-0.253 0.405,-0.547c0.223,-0.293 0.382,-0.44 0.476,-0.44c0.282,-0 0.422,0.106 0.422,0.317" style="fill:#626060;fill-rule:nonzero;"/><path d="M805.367,456.092c0.165,0 0.247,0.176 0.247,0.529c0,0.423 -0.312,1.351 -0.934,2.784c-0.623,1.433 -1.563,2.76 -2.819,3.982c-1.257,1.222 -2.802,1.833 -4.635,1.833c-1.503,-0 -2.76,-0.47 -3.771,-1.41c-1.01,-0.94 -1.515,-2.385 -1.515,-4.335c0,-1.832 0.423,-3.647 1.268,-5.445c0.846,-1.797 1.95,-3.265 3.313,-4.405c1.363,-1.139 2.773,-1.709 4.23,-1.709c0.869,-0 1.603,0.194 2.202,0.582c0.599,0.387 0.899,0.945 0.899,1.673c-0,0.823 -0.464,1.622 -1.393,2.397c-0.928,0.775 -2.131,1.456 -3.612,2.044c-1.48,0.587 -3.007,1.01 -4.581,1.268c-0.282,1.081 -0.423,2.139 -0.423,3.172c-0,1.363 0.323,2.42 0.969,3.172c0.646,0.752 1.569,1.128 2.766,1.128c1.809,-0 3.278,-0.646 4.406,-1.939c1.128,-1.292 2.067,-2.748 2.819,-4.369c0.047,-0.094 0.129,-0.277 0.247,-0.547c0.118,-0.27 0.223,-0.405 0.317,-0.405m-3.101,-5.533c-0,-0.376 -0.194,-0.669 -0.581,-0.881c-0.389,-0.211 -0.841,-0.317 -1.357,-0.317c-0.893,-0 -1.751,0.294 -2.573,0.881c-0.822,0.587 -1.51,1.292 -2.062,2.114c-0.552,0.823 -0.91,1.551 -1.075,2.185c1.081,-0.117 2.22,-0.423 3.419,-0.916c1.198,-0.493 2.203,-1.034 3.013,-1.621c0.811,-0.587 1.216,-1.069 1.216,-1.445" style="fill:#626060;fill-rule:nonzero;"/><path d="M810.407,464.126c-0,0.235 -0.153,0.423 -0.458,0.564c-0.306,0.141 -0.646,0.211 -1.022,0.211c-0.282,0 -0.546,-0.335 -0.793,-1.004c-0.246,-0.67 -0.37,-1.686 -0.37,-3.048c0.024,-2.656 0.065,-5.862 0.124,-9.622c0.058,-3.759 0.111,-6.59 0.158,-8.493c0.023,-0.681 0.147,-1.315 0.369,-1.903c0.224,-0.587 0.618,-0.881 1.182,-0.881c0.188,0 0.311,0.1 0.369,0.3c0.059,0.199 0.089,0.581 0.089,1.145c0,0.024 -0.007,0.1 -0.018,0.229c-0.012,0.129 -0.018,0.358 -0.018,0.687c-0.422,6.179 -0.634,12.206 -0.634,18.079c-0,0.752 0.17,1.551 0.511,2.397c0.341,0.846 0.511,1.292 0.511,1.339" style="fill:#626060;fill-rule:nonzero;"/><path d="M816.046,464.126c0,0.235 -0.152,0.423 -0.458,0.564c-0.305,0.141 -0.646,0.211 -1.022,0.211c-0.282,0 -0.547,-0.335 -0.793,-1.004c-0.247,-0.67 -0.37,-1.686 -0.37,-3.048c0.023,-2.656 0.064,-5.862 0.123,-9.622c0.059,-3.759 0.112,-6.59 0.159,-8.493c0.024,-0.681 0.146,-1.315 0.37,-1.903c0.223,-0.587 0.617,-0.881 1.181,-0.881c0.187,0 0.311,0.1 0.37,0.3c0.059,0.199 0.087,0.581 0.087,1.145c0.001,0.024 -0.005,0.1 -0.017,0.229c-0.011,0.129 -0.018,0.358 -0.018,0.687c-0.422,6.179 -0.634,12.206 -0.634,18.079c0.001,0.752 0.171,1.551 0.511,2.397c0.341,0.846 0.511,1.292 0.511,1.339" style="fill:#626060;fill-rule:nonzero;"/><path d="M831.588,456.092c0.165,0 0.247,0.176 0.247,0.529c0,0.423 -0.311,1.351 -0.934,2.784c-0.622,1.433 -1.562,2.76 -2.819,3.982c-1.257,1.222 -2.802,1.833 -4.634,1.833c-1.504,-0 -2.761,-0.47 -3.771,-1.41c-1.01,-0.94 -1.516,-2.385 -1.516,-4.335c0,-1.832 0.423,-3.647 1.269,-5.445c0.846,-1.797 1.95,-3.265 3.313,-4.405c1.363,-1.139 2.773,-1.709 4.229,-1.709c0.869,-0 1.604,0.194 2.203,0.582c0.599,0.387 0.898,0.945 0.898,1.673c0,0.823 -0.464,1.622 -1.391,2.397c-0.929,0.775 -2.133,1.456 -3.614,2.044c-1.479,0.587 -3.006,1.01 -4.58,1.268c-0.282,1.081 -0.423,2.139 -0.423,3.172c-0,1.363 0.323,2.42 0.968,3.172c0.647,0.752 1.569,1.128 2.767,1.128c1.809,-0 3.278,-0.646 4.405,-1.939c1.128,-1.292 2.068,-2.748 2.82,-4.369c0.047,-0.094 0.129,-0.277 0.247,-0.547c0.117,-0.27 0.223,-0.405 0.316,-0.405m-3.101,-5.533c-0,-0.376 -0.194,-0.669 -0.581,-0.881c-0.387,-0.211 -0.839,-0.317 -1.357,-0.317c-0.893,-0 -1.75,0.294 -2.573,0.881c-0.822,0.587 -1.509,1.292 -2.061,2.114c-0.552,0.823 -0.911,1.551 -1.075,2.185c1.08,-0.117 2.22,-0.423 3.418,-0.916c1.199,-0.493 2.203,-1.034 3.013,-1.621c0.811,-0.587 1.216,-1.069 1.216,-1.445" style="fill:#626060;fill-rule:nonzero;"/><path d="M845.297,465.325c0,0.282 -0.118,0.523 -0.352,0.723c-0.235,0.199 -0.517,0.299 -0.846,0.299c-0.235,0 -0.435,-0.053 -0.599,-0.158c-0.164,-0.106 -0.246,-0.253 -0.246,-0.441c-0,-0.963 0.07,-2.455 0.211,-4.476c0.14,-2.161 0.212,-3.958 0.212,-5.392c-0,-1.386 -0.042,-2.52 -0.124,-3.4c-0.082,-0.882 -0.276,-1.322 -0.582,-1.322c-0.798,-0 -1.673,0.993 -2.625,2.978c-0.952,1.985 -2.038,4.599 -3.26,7.841l-0.529,1.41c-0.094,0.235 -0.252,0.423 -0.475,0.564c-0.223,0.141 -0.452,0.211 -0.687,0.211c-0.283,0 -0.47,-0.024 -0.565,-0.07c-0.093,-0.047 -0.152,-0.188 -0.175,-0.423l-0.282,-2.89l-0.529,-5.075c-0.165,-2.02 -0.365,-3.782 -0.6,-5.286c-0.07,-0.352 -0.106,-0.623 -0.106,-0.811c0,-0.352 0.154,-0.64 0.459,-0.863c0.305,-0.223 0.658,-0.335 1.058,-0.335c0.234,0 0.405,0.564 0.51,1.692c0.106,1.127 0.218,2.948 0.336,5.462l0.14,1.868c0.188,2.373 0.294,3.877 0.317,4.511c0.071,-0.141 0.136,-0.3 0.194,-0.476c0.059,-0.176 0.135,-0.37 0.229,-0.581c1.269,-3.29 2.461,-6.032 3.578,-8.229c1.115,-2.197 2.19,-3.295 3.223,-3.295c0.729,-0 1.228,0.616 1.499,1.85c0.27,1.233 0.44,2.813 0.511,4.74c0.07,2.138 0.105,5.263 0.105,9.374" style="fill:#626060;fill-rule:nonzero;"/><path d="M858.688,457.325c-0,0.141 -0.241,0.576 -0.723,1.304c-0.481,0.728 -0.968,1.386 -1.462,1.974c-1.222,1.48 -2.32,2.619 -3.296,3.418c-0.974,0.799 -1.99,1.198 -3.047,1.198c-0.893,0 -1.628,-0.387 -2.203,-1.163c-0.576,-0.775 -0.863,-1.668 -0.863,-2.678c-0,-1.504 0.398,-3.407 1.198,-5.709c0.799,-2.303 1.809,-4.3 3.031,-5.991c1.221,-1.692 2.443,-2.538 3.664,-2.538c0.518,0 0.964,0.188 1.34,0.564c0.211,0.212 0.411,0.494 0.598,0.846c0.189,0.352 0.283,0.669 0.283,0.951c-0,0.4 -0.053,0.864 -0.159,1.392c-0.106,0.529 -0.217,0.794 -0.334,0.794c-0.236,-0 -0.388,-0.13 -0.459,-0.388c-0.07,-0.259 -0.118,-0.588 -0.141,-0.987c-0.07,-0.611 -0.14,-1.016 -0.211,-1.216c-0.071,-0.199 -0.176,-0.299 -0.318,-0.299c-1.104,-0 -2.173,0.769 -3.207,2.308c-1.033,1.539 -1.879,3.324 -2.537,5.357c-0.658,2.032 -0.986,3.6 -0.986,4.705c-0,1.55 0.517,2.325 1.551,2.325c0.751,0 1.438,-0.188 2.061,-0.563c0.622,-0.376 1.275,-0.905 1.956,-1.586c1.268,-1.293 2.255,-2.409 2.96,-3.348c0.047,-0.071 0.182,-0.253 0.405,-0.547c0.224,-0.293 0.382,-0.44 0.476,-0.44c0.282,-0 0.423,0.106 0.423,0.317" style="fill:#626060;fill-rule:nonzero;"/><path d="M872.996,456.092c0.165,0 0.247,0.176 0.247,0.529c0,0.423 -0.311,1.351 -0.934,2.784c-0.623,1.433 -1.562,2.76 -2.819,3.982c-1.257,1.222 -2.802,1.833 -4.634,1.833c-1.504,-0 -2.761,-0.47 -3.771,-1.41c-1.01,-0.94 -1.515,-2.385 -1.515,-4.335c-0,-1.832 0.422,-3.647 1.268,-5.445c0.845,-1.797 1.95,-3.265 3.313,-4.405c1.363,-1.139 2.772,-1.709 4.229,-1.709c0.869,-0 1.603,0.194 2.202,0.582c0.6,0.387 0.899,0.945 0.899,1.673c0,0.823 -0.464,1.622 -1.392,2.397c-0.927,0.775 -2.132,1.456 -3.612,2.044c-1.481,0.587 -3.007,1.01 -4.582,1.268c-0.282,1.081 -0.422,2.139 -0.422,3.172c-0,1.363 0.323,2.42 0.968,3.172c0.647,0.752 1.569,1.128 2.767,1.128c1.81,-0 3.278,-0.646 4.406,-1.939c1.127,-1.292 2.067,-2.748 2.819,-4.369c0.047,-0.094 0.129,-0.277 0.246,-0.547c0.118,-0.27 0.224,-0.405 0.317,-0.405m-3.101,-5.533c0,-0.376 -0.194,-0.669 -0.581,-0.881c-0.388,-0.211 -0.84,-0.317 -1.357,-0.317c-0.893,-0 -1.751,0.294 -2.572,0.881c-0.823,0.587 -1.51,1.292 -2.062,2.114c-0.552,0.823 -0.911,1.551 -1.075,2.185c1.081,-0.117 2.22,-0.423 3.418,-0.916c1.198,-0.493 2.203,-1.034 3.014,-1.621c0.81,-0.587 1.215,-1.069 1.215,-1.445" style="fill:#626060;fill-rule:nonzero;"/><path d="M644.983,484.564l1.873,6.312c0.37,1.295 0.693,2.405 0.948,3.469l0.046,-0c0.277,-1.018 0.67,-2.197 1.11,-3.469l2.22,-6.312l1.04,-0l2.127,6.243c0.463,1.364 0.81,2.497 1.087,3.538l0.046,-0c0.231,-1.041 0.578,-2.151 1.018,-3.492l1.965,-6.289l1.133,-0l-3.7,11.099l-0.948,-0l-2.104,-6.197c-0.462,-1.341 -0.855,-2.521 -1.156,-3.769l-0.046,-0c-0.324,1.294 -0.74,2.52 -1.202,3.815l-2.197,6.151l-0.971,-0l-3.422,-11.099l1.133,-0Z" style="fill:#626060;fill-rule:nonzero;"/><path d="M661.861,484.564l1.873,6.312c0.37,1.295 0.693,2.405 0.948,3.469l0.046,-0c0.278,-1.018 0.671,-2.197 1.11,-3.469l2.22,-6.312l1.04,-0l2.127,6.243c0.463,1.364 0.81,2.497 1.087,3.538l0.046,-0c0.232,-1.041 0.579,-2.151 1.018,-3.492l1.965,-6.289l1.133,-0l-3.699,11.099l-0.948,-0l-2.104,-6.197c-0.463,-1.341 -0.856,-2.521 -1.157,-3.769l-0.046,-0c-0.324,1.294 -0.74,2.52 -1.202,3.815l-2.197,6.151l-0.971,-0l-3.422,-11.099l1.133,-0Z" style="fill:#626060;fill-rule:nonzero;"/><path d="M678.74,484.564l1.873,6.312c0.37,1.295 0.694,2.405 0.948,3.469l0.046,-0c0.278,-1.018 0.671,-2.197 1.11,-3.469l2.22,-6.312l1.04,-0l2.127,6.243c0.463,1.364 0.81,2.497 1.087,3.538l0.046,-0c0.232,-1.041 0.578,-2.151 1.018,-3.492l1.965,-6.289l1.133,-0l-3.699,11.099l-0.948,-0l-2.104,-6.197c-0.463,-1.341 -0.856,-2.521 -1.157,-3.769l-0.046,-0c-0.324,1.294 -0.74,2.52 -1.202,3.815l-2.197,6.151l-0.971,-0l-3.422,-11.099l1.133,-0Z" style="fill:#626060;fill-rule:nonzero;"/><path d="M695.132,495.917c-0.532,-0 -0.925,-0.486 -0.901,-1.041c-0,-0.601 0.393,-1.04 0.947,-1.04c0.555,0 0.925,0.439 0.925,1.04c0,0.555 -0.37,1.041 -0.948,1.041l-0.023,-0Z" style="fill:#626060;fill-rule:nonzero;"/><path d="M698.878,487.223c0,-1.017 -0.023,-1.78 -0.092,-2.659l1.04,-0l0.07,1.942l0.046,0c0.717,-1.272 1.78,-2.197 3.607,-2.197c1.526,0 2.705,1.018 3.191,2.405l0.046,0c0.301,-0.647 0.717,-1.156 1.133,-1.503c0.717,-0.578 1.457,-0.902 2.636,-0.902c1.087,0 3.63,0.602 3.63,4.81l0,6.544l-1.11,-0l0,-6.452c0,-2.497 -0.971,-3.977 -2.89,-3.977c-1.387,0 -2.474,1.041 -2.913,2.197c-0.093,0.324 -0.185,0.694 -0.185,1.11l-0,7.122l-1.11,-0l-0,-6.96c-0,-1.989 -0.948,-3.469 -2.752,-3.469c-1.48,0 -2.659,1.203 -3.075,2.498c-0.093,0.323 -0.162,0.693 -0.162,1.086l0,6.845l-1.11,-0l0,-8.44Z" style="fill:#626060;fill-rule:nonzero;"/><path d="M726.37,492.957c0,0.971 0.023,1.85 0.093,2.705l-1.041,0l-0.069,-1.988l-0.046,-0c-0.555,1.04 -1.827,2.242 -3.792,2.242c-1.411,0 -3.792,-0.716 -3.792,-4.901l-0,-6.452l1.109,0l0,6.243c0,2.405 0.74,4.139 2.937,4.139c1.619,0 2.798,-1.133 3.283,-2.243c0.116,-0.346 0.209,-0.786 0.209,-1.225l-0,-6.914l1.109,0l0,8.394Z" style="fill:#626060;fill-rule:nonzero;"/><rect x="730.092" y="479.223" width="1.11" height="16.44" style="fill:#626060;"/><path d="M736.52,482.113l0,2.451l3.168,0l0,0.902l-3.168,0l0,7.214c0,1.411 0.44,2.29 1.619,2.29c0.578,-0 0.994,-0.07 1.272,-0.162l0.138,0.832c-0.37,0.139 -0.878,0.254 -1.549,0.254c-0.809,0 -1.48,-0.254 -1.896,-0.763c-0.509,-0.578 -0.693,-1.526 -0.693,-2.659l-0,-7.006l-1.873,0l-0,-0.902l1.873,0l-0,-2.034l1.109,-0.417Z" style="fill:#626060;fill-rule:nonzero;"/><path d="M742.14,484.564l1.109,-0l0,11.099l-1.109,-0l-0,-11.099Zm0.508,-2.22c-0.508,-0 -0.855,-0.439 -0.855,-0.948c-0,-0.509 0.393,-0.971 0.902,-0.971c0.508,-0 0.878,0.439 0.878,0.971c0,0.509 -0.347,0.948 -0.901,0.948l-0.024,-0Z" style="fill:#626060;fill-rule:nonzero;"/><path d="M746.971,484.564l1.11,-0l-0,11.099l-1.11,-0l-0,-11.099Zm0.508,-2.22c-0.508,-0 -0.855,-0.439 -0.855,-0.948c-0,-0.509 0.393,-0.971 0.902,-0.971c0.508,-0 0.878,0.439 0.878,0.971c0,0.509 -0.347,0.948 -0.901,0.948l-0.024,-0Z" style="fill:#626060;fill-rule:nonzero;"/><path d="M751.802,487.223c-0,-1.017 -0.023,-1.78 -0.093,-2.659l1.041,-0l0.069,1.988l0.046,0c0.601,-1.248 2.012,-2.243 3.816,-2.243c1.063,0 3.884,0.532 3.884,4.694l0,6.66l-1.11,-0l0,-6.567c0,-2.035 -0.786,-3.862 -3.075,-3.862c-1.549,0 -2.89,1.11 -3.33,2.567c-0.069,0.254 -0.138,0.624 -0.138,0.971l-0,6.891l-1.11,-0l-0,-8.44Z" style="fill:#626060;fill-rule:nonzero;"/><path d="M765.722,482.113l-0,2.451l3.168,0l-0,0.902l-3.168,0l-0,7.214c-0,1.411 0.439,2.29 1.619,2.29c0.578,-0 0.994,-0.07 1.271,-0.162l0.139,0.832c-0.37,0.139 -0.879,0.254 -1.549,0.254c-0.809,0 -1.48,-0.254 -1.896,-0.763c-0.509,-0.578 -0.694,-1.526 -0.694,-2.659l0,-7.006l-1.873,0l0,-0.902l1.873,0l0,-2.034l1.11,-0.417Z" style="fill:#626060;fill-rule:nonzero;"/><path d="M778.438,489.118c0.023,-1.549 -0.624,-3.884 -3.306,-3.884c-2.451,-0 -3.492,2.173 -3.7,3.884l7.006,0Zm-7.075,0.879c-0,3.538 1.942,4.948 4.231,4.948c1.619,0 2.451,-0.323 3.076,-0.624l0.277,0.855c-0.416,0.232 -1.549,0.717 -3.491,0.717c-3.191,0 -5.18,-2.312 -5.18,-5.572c0,-3.7 2.127,-6.012 4.995,-6.012c3.63,-0 4.323,3.422 4.323,5.018c0,0.3 0,0.462 -0.046,0.67l-8.185,0Z" style="fill:#626060;fill-rule:nonzero;"/><path d="M790.162,488.842c0,-0.416 -0.023,-0.763 -0.139,-1.087c-0.462,-1.318 -1.618,-2.52 -3.445,-2.52c-2.358,0 -3.977,1.919 -3.977,4.856c0,2.497 1.318,4.647 3.931,4.647c1.48,0 2.867,-0.925 3.445,-2.497c0.116,-0.37 0.185,-0.786 0.185,-1.179l0,-2.22Zm1.11,5.203c-0,2.844 -0.601,4.254 -1.526,5.133c-1.017,0.971 -2.52,1.318 -3.769,1.318c-1.272,-0 -2.682,-0.324 -3.538,-0.971l0.393,-0.879c0.786,0.509 1.873,0.925 3.307,0.925c2.335,-0 4.023,-1.202 4.023,-4.486l0,-1.572l-0.046,-0c-0.578,1.133 -1.873,2.15 -3.862,2.15c-2.797,0 -4.763,-2.428 -4.763,-5.457c0,-3.861 2.544,-5.896 4.995,-5.896c2.196,0 3.283,1.203 3.745,2.127l0.047,0l0.069,-1.872l1.017,-0c-0.069,0.832 -0.092,1.711 -0.092,2.867l-0,6.613l-0,-0Z" style="fill:#626060;fill-rule:nonzero;"/><path d="M794.786,487.892c0,-1.11 -0.023,-2.243 -0.092,-3.329l1.017,-0l0.047,2.242l0.069,0c0.486,-1.41 1.642,-2.497 3.145,-2.497c0.161,0 0.323,0.023 0.462,0.046l0,1.041c-0.162,-0.023 -0.324,-0.023 -0.532,-0.023c-1.526,-0 -2.613,1.318 -2.913,3.098c-0.07,0.324 -0.093,0.694 -0.093,1.064l0,6.127l-1.11,0l0,-7.769Z" style="fill:#626060;fill-rule:nonzero;"/><path d="M807.433,489.72c-2.427,-0.069 -5.618,0.301 -5.618,2.96c-0,1.595 1.063,2.312 2.219,2.312c1.85,0 2.914,-1.133 3.284,-2.22c0.092,-0.231 0.115,-0.485 0.115,-0.67l0,-2.382Zm1.11,3.307c0,0.879 0.023,1.78 0.162,2.636l-1.017,-0l-0.162,-1.596l-0.046,0c-0.555,0.856 -1.781,1.85 -3.561,1.85c-2.243,0 -3.261,-1.572 -3.261,-3.052c0,-2.566 2.243,-4.116 6.775,-4.069l0,-0.301c0,-1.087 -0.208,-3.284 -2.844,-3.26c-0.971,-0 -1.988,0.254 -2.798,0.832l-0.346,-0.809c1.017,-0.671 2.266,-0.948 3.26,-0.948c3.214,-0 3.838,2.404 3.838,4.37l0,4.347Z" style="fill:#626060;fill-rule:nonzero;"/><path d="M812.404,495.917c-0.532,-0 -0.925,-0.486 -0.902,-1.041c-0,-0.601 0.393,-1.04 0.948,-1.04c0.555,0 0.925,0.439 0.925,1.04c-0,0.555 -0.37,1.041 -0.948,1.041l-0.023,-0Z" style="fill:#626060;fill-rule:nonzero;"/><path d="M823.804,495.176c-0.486,0.231 -1.642,0.717 -3.26,0.717c-3.191,-0 -5.318,-2.336 -5.318,-5.666c-0,-3.537 2.404,-5.919 5.711,-5.919c1.364,0 2.497,0.393 2.913,0.694l-0.393,0.902c-0.532,-0.324 -1.387,-0.648 -2.613,-0.648c-2.983,0 -4.509,2.266 -4.509,4.879c0,2.913 1.827,4.809 4.394,4.809c1.318,0 2.173,-0.369 2.774,-0.647l0.301,0.879Z" style="fill:#626060;fill-rule:nonzero;"/><path d="M830.694,494.992c2.313,-0 4.139,-2.081 4.139,-4.925c0,-2.035 -1.133,-4.833 -4.069,-4.833c-2.844,-0 -4.116,2.52 -4.116,4.902c-0,2.775 1.757,4.856 4.023,4.856l0.023,-0Zm-0.069,0.924c-2.867,0 -5.087,-2.242 -5.087,-5.711c0,-3.792 2.497,-5.896 5.249,-5.896c3.075,-0 5.156,2.312 5.156,5.711c0,4.116 -2.844,5.896 -5.295,5.896l-0.023,0Z" style="fill:#626060;fill-rule:nonzero;"/><path d="M838.625,495.917c-0.532,-0 -0.925,-0.486 -0.902,-1.041c-0,-0.601 0.393,-1.04 0.948,-1.04c0.555,0 0.925,0.439 0.925,1.04c-0,0.555 -0.37,1.041 -0.948,1.041l-0.023,-0Z" style="fill:#626060;fill-rule:nonzero;"/><path d="M842.369,484.564l1.11,-0l-0,11.099l-1.11,-0l-0,-11.099Zm0.508,-2.22c-0.508,-0 -0.855,-0.439 -0.855,-0.948c-0,-0.509 0.393,-0.971 0.902,-0.971c0.508,-0 0.878,0.439 0.878,0.971c0,0.509 -0.347,0.948 -0.901,0.948l-0.024,-0Z" style="fill:#626060;fill-rule:nonzero;"/><path d="M854.948,488.957c0,-0.301 -0.023,-0.694 -0.116,-1.018c-0.37,-1.479 -1.688,-2.705 -3.491,-2.705c-2.428,0 -3.954,2.104 -3.954,4.971c0,2.498 1.249,4.787 3.885,4.787c1.595,-0 3.098,-1.064 3.56,-2.89c0.093,-0.278 0.116,-0.579 0.116,-0.925l0,-2.22Zm1.11,-9.735l-0,13.874c-0,0.809 0.023,1.78 0.092,2.566l-0.994,0l-0.092,-2.104l-0.047,0c-0.578,1.226 -1.896,2.359 -3.953,2.359c-2.752,-0 -4.787,-2.289 -4.787,-5.596c-0.023,-3.7 2.266,-6.012 4.995,-6.012c1.919,0 3.144,0.994 3.63,1.966l0.046,-0l0,-7.053l1.11,0Z" style="fill:#626060;fill-rule:nonzero;"/><g><g><g><path d="M714.538,407.4l3.343,0c0.76,0 1.33,0.064 1.735,0.178c0.532,0.152 0.988,0.43 1.368,0.835c0.379,0.393 0.658,0.887 0.861,1.469c0.202,0.57 0.291,1.292 0.291,2.14c-0,0.747 -0.089,1.393 -0.279,1.925c-0.228,0.659 -0.544,1.203 -0.962,1.608c-0.317,0.304 -0.747,0.545 -1.292,0.722c-0.405,0.127 -0.937,0.19 -1.621,0.19l-3.444,-0l0,-9.067Zm1.836,1.533l0,6.002l1.368,-0c0.506,-0 0.874,-0.026 1.101,-0.076c0.304,-0.076 0.545,-0.203 0.735,-0.38c0.203,-0.177 0.367,-0.469 0.481,-0.874c0.127,-0.405 0.19,-0.962 0.19,-1.659c0,-0.709 -0.063,-1.241 -0.19,-1.62c-0.114,-0.368 -0.291,-0.672 -0.519,-0.874c-0.215,-0.215 -0.507,-0.355 -0.848,-0.431c-0.254,-0.05 -0.748,-0.088 -1.495,-0.088l-0.823,-0Z" style="fill:#fafafa;fill-rule:nonzero;"/></g><g><path d="M729.266,416.467l-0,-0.987c-0.241,0.354 -0.557,0.633 -0.937,0.835c-0.393,0.203 -0.811,0.304 -1.241,0.304c-0.443,0 -0.836,-0.101 -1.19,-0.291c-0.342,-0.203 -0.596,-0.469 -0.76,-0.823c-0.152,-0.342 -0.228,-0.836 -0.228,-1.444l-0,-4.166l1.735,0l-0,3.027c-0,0.924 0.038,1.481 0.101,1.696c0.063,0.203 0.177,0.368 0.342,0.494c0.177,0.114 0.38,0.178 0.646,0.178c0.291,-0 0.557,-0.076 0.797,-0.241c0.241,-0.165 0.393,-0.367 0.482,-0.608c0.088,-0.24 0.126,-0.836 0.126,-1.773l0,-2.773l1.748,0l-0,6.572l-1.621,0Z" style="fill:#fafafa;fill-rule:nonzero;"/></g><g><path d="M735.24,411.908l-1.57,-0.291c0.177,-0.633 0.481,-1.102 0.912,-1.406c0.43,-0.304 1.076,-0.456 1.924,-0.456c0.786,0 1.355,0.089 1.735,0.266c0.38,0.19 0.646,0.418 0.798,0.709c0.165,0.279 0.241,0.798 0.241,1.545l-0.026,2.039c0,0.57 0.026,1 0.089,1.266c0.051,0.279 0.152,0.57 0.304,0.887l-1.71,-0c-0.05,-0.114 -0.101,-0.292 -0.164,-0.52c-0.038,-0.101 -0.051,-0.164 -0.064,-0.202c-0.303,0.291 -0.62,0.506 -0.962,0.658c-0.329,0.14 -0.696,0.216 -1.076,0.216c-0.671,-0 -1.203,-0.19 -1.596,-0.558c-0.392,-0.367 -0.582,-0.823 -0.582,-1.393c-0,-0.367 0.088,-0.696 0.266,-0.987c0.177,-0.291 0.418,-0.507 0.734,-0.671c0.329,-0.152 0.785,-0.292 1.393,-0.406c0.81,-0.152 1.368,-0.291 1.684,-0.417l0,-0.178c0,-0.329 -0.088,-0.57 -0.253,-0.709c-0.165,-0.152 -0.469,-0.215 -0.924,-0.215c-0.317,-0 -0.558,0.063 -0.722,0.177c-0.178,0.127 -0.317,0.342 -0.431,0.646Zm2.33,1.406c-0.228,0.076 -0.57,0.164 -1.064,0.265c-0.481,0.102 -0.797,0.203 -0.937,0.304c-0.227,0.165 -0.341,0.368 -0.341,0.608c-0,0.241 0.088,0.456 0.265,0.633c0.19,0.178 0.418,0.266 0.697,0.266c0.316,0 0.608,-0.101 0.899,-0.304c0.203,-0.164 0.342,-0.354 0.418,-0.582c0.038,-0.152 0.063,-0.431 0.063,-0.849l0,-0.341Z" style="fill:#fafafa;fill-rule:nonzero;"/></g><g><path d="M748.689,416.467l-2.406,-9.066l1.228,-0l1.38,5.939c0.152,0.633 0.279,1.24 0.393,1.861c0.228,-0.975 0.367,-1.532 0.405,-1.672l1.722,-6.128l1.444,-0l1.304,4.584c0.329,1.139 0.557,2.216 0.697,3.216c0.126,-0.57 0.265,-1.228 0.455,-1.975l1.419,-5.825l1.215,-0l-2.494,9.066l-1.153,0l-1.912,-6.901c-0.164,-0.582 -0.253,-0.937 -0.278,-1.064c-0.102,0.406 -0.19,0.76 -0.266,1.064l-1.925,6.901l-1.228,0Z" style="fill:#fafafa;fill-rule:nonzero;"/></g><g><path d="M760.181,408.681l0,-1.279l1.115,-0l-0,1.279l-1.115,-0Zm0,7.787l0,-6.572l1.115,0l-0,6.572l-1.115,0Z" style="fill:#fafafa;fill-rule:nonzero;"/></g><g><path d="M764.26,416.467l-0,-6.572l1,0l0,0.937c0.481,-0.721 1.178,-1.076 2.09,-1.076c0.392,-0 0.759,0.063 1.089,0.215c0.329,0.14 0.582,0.329 0.747,0.557c0.164,0.228 0.278,0.507 0.342,0.823c0.05,0.203 0.063,0.558 0.063,1.077l-0,4.039l-1.114,0l-0,-3.989c-0,-0.455 -0.038,-0.797 -0.127,-1.025c-0.089,-0.215 -0.241,-0.405 -0.456,-0.532c-0.228,-0.139 -0.481,-0.203 -0.772,-0.203c-0.482,0 -0.887,0.152 -1.229,0.456c-0.354,0.291 -0.519,0.861 -0.519,1.71l0,3.583l-1.114,0Z" style="fill:#fafafa;fill-rule:nonzero;"/></g><g><path d="M776.826,416.467l-0,-0.823c-0.418,0.646 -1.026,0.975 -1.836,0.975c-0.519,0 -1.001,-0.152 -1.444,-0.43c-0.43,-0.292 -0.772,-0.697 -1.013,-1.216c-0.24,-0.519 -0.367,-1.114 -0.367,-1.785c-0,-0.659 0.114,-1.254 0.329,-1.786c0.215,-0.532 0.545,-0.937 0.988,-1.228c0.43,-0.279 0.924,-0.418 1.456,-0.418c0.405,-0 0.747,0.076 1.064,0.253c0.304,0.165 0.557,0.38 0.747,0.646l-0,-3.254l1.114,-0l0,9.066l-1.038,0Zm-3.508,-3.279c0,0.848 0.177,1.468 0.532,1.886c0.342,0.418 0.772,0.621 1.254,0.621c0.481,-0 0.899,-0.19 1.241,-0.595c0.329,-0.393 0.506,-1.001 0.506,-1.811c0,-0.899 -0.177,-1.57 -0.519,-1.988c-0.355,-0.418 -0.772,-0.633 -1.279,-0.633c-0.494,-0 -0.912,0.202 -1.241,0.607c-0.329,0.406 -0.494,1.051 -0.494,1.913Z" style="fill:#fafafa;fill-rule:nonzero;"/></g><g><path d="M785.185,416.467l0,-0.962c-0.519,0.734 -1.203,1.114 -2.089,1.114c-0.38,0 -0.747,-0.076 -1.077,-0.228c-0.341,-0.152 -0.595,-0.329 -0.759,-0.557c-0.152,-0.228 -0.266,-0.506 -0.342,-0.823c-0.038,-0.215 -0.064,-0.57 -0.064,-1.038l0,-4.078l1.115,0l-0,3.647c-0,0.583 0.025,0.975 0.063,1.178c0.076,0.291 0.215,0.519 0.443,0.684c0.228,0.164 0.507,0.253 0.849,0.253c0.329,-0 0.646,-0.089 0.937,-0.253c0.291,-0.178 0.494,-0.406 0.62,-0.697c0.127,-0.304 0.178,-0.722 0.178,-1.291l-0,-3.521l1.114,0l-0,6.572l-0.988,0Z" style="fill:#fafafa;fill-rule:nonzero;"/></g></g><path d="M726.008,341.965l0,1.07l-5.991,-0c-0.008,-0.268 0.035,-0.526 0.13,-0.773c0.152,-0.408 0.396,-0.81 0.732,-1.206c0.336,-0.395 0.822,-0.853 1.456,-1.372c0.986,-0.808 1.651,-1.448 1.998,-1.92c0.346,-0.472 0.519,-0.918 0.519,-1.339c-0,-0.441 -0.158,-0.813 -0.473,-1.116c-0.315,-0.303 -0.727,-0.454 -1.234,-0.454c-0.535,-0 -0.964,0.161 -1.286,0.482c-0.321,0.322 -0.484,0.767 -0.488,1.336l-1.144,-0.118c0.078,-0.853 0.373,-1.503 0.884,-1.951c0.511,-0.447 1.198,-0.67 2.059,-0.67c0.87,-0 1.558,0.241 2.065,0.723c0.507,0.482 0.761,1.08 0.761,1.793c-0,0.363 -0.074,0.719 -0.223,1.07c-0.148,0.35 -0.395,0.719 -0.739,1.107c-0.344,0.387 -0.916,0.919 -1.715,1.595c-0.668,0.56 -1.097,0.941 -1.287,1.141c-0.189,0.199 -0.346,0.4 -0.469,0.602l4.445,0Z" style="fill:#fafafa;fill-rule:nonzero;"/><path d="M726.695,338.565c-0,-1.072 0.11,-1.934 0.331,-2.588c0.22,-0.653 0.548,-1.157 0.983,-1.511c0.435,-0.355 0.982,-0.532 1.641,-0.532c0.487,0 0.913,0.098 1.28,0.294c0.367,0.195 0.67,0.478 0.909,0.847c0.239,0.369 0.427,0.818 0.563,1.348c0.136,0.529 0.204,1.243 0.204,2.142c-0,1.064 -0.109,1.922 -0.328,2.575c-0.218,0.654 -0.545,1.158 -0.98,1.515c-0.435,0.357 -0.984,0.535 -1.648,0.535c-0.873,-0 -1.56,-0.313 -2.058,-0.94c-0.598,-0.754 -0.897,-1.983 -0.897,-3.685Zm1.144,0c-0,1.488 0.174,2.478 0.522,2.971c0.349,0.493 0.778,0.739 1.289,0.739c0.512,-0 0.941,-0.248 1.29,-0.742c0.348,-0.495 0.522,-1.484 0.522,-2.968c0,-1.492 -0.174,-2.483 -0.522,-2.974c-0.349,-0.491 -0.783,-0.736 -1.302,-0.736c-0.511,0 -0.919,0.217 -1.224,0.649c-0.383,0.553 -0.575,1.573 -0.575,3.061Z" style="fill:#fafafa;fill-rule:nonzero;"/><path d="M733.232,338.565c-0,-1.072 0.11,-1.934 0.33,-2.588c0.221,-0.653 0.549,-1.157 0.984,-1.511c0.435,-0.355 0.982,-0.532 1.641,-0.532c0.487,0 0.913,0.098 1.28,0.294c0.367,0.195 0.67,0.478 0.909,0.847c0.239,0.369 0.427,0.818 0.563,1.348c0.136,0.529 0.204,1.243 0.204,2.142c-0,1.064 -0.11,1.922 -0.328,2.575c-0.219,0.654 -0.545,1.158 -0.98,1.515c-0.435,0.357 -0.984,0.535 -1.648,0.535c-0.874,-0 -1.56,-0.313 -2.059,-0.94c-0.597,-0.754 -0.896,-1.983 -0.896,-3.685Zm1.144,0c-0,1.488 0.174,2.478 0.522,2.971c0.348,0.493 0.778,0.739 1.289,0.739c0.511,-0 0.941,-0.248 1.289,-0.742c0.349,-0.495 0.523,-1.484 0.523,-2.968c-0,-1.492 -0.174,-2.483 -0.523,-2.974c-0.348,-0.491 -0.782,-0.736 -1.301,-0.736c-0.511,0 -0.919,0.217 -1.224,0.649c-0.384,0.553 -0.575,1.573 -0.575,3.061Z" style="fill:#fafafa;fill-rule:nonzero;"/><path d="M739.768,340.66l1.169,-0.098c0.086,0.568 0.287,0.996 0.602,1.283c0.316,0.286 0.696,0.429 1.141,0.429c0.536,0 0.989,-0.202 1.361,-0.606c0.37,-0.404 0.556,-0.94 0.556,-1.607c-0,-0.635 -0.178,-1.136 -0.535,-1.503c-0.356,-0.367 -0.823,-0.55 -1.4,-0.55c-0.359,0 -0.683,0.081 -0.971,0.244c-0.289,0.163 -0.515,0.374 -0.68,0.634l-1.045,-0.136l0.878,-4.656l4.507,0l0,1.064l-3.617,-0l-0.488,2.436c0.544,-0.379 1.115,-0.569 1.712,-0.569c0.792,-0 1.46,0.274 2.004,0.822c0.544,0.548 0.816,1.253 0.816,2.115c-0,0.82 -0.239,1.529 -0.717,2.127c-0.582,0.733 -1.375,1.1 -2.381,1.1c-0.824,0 -1.497,-0.23 -2.018,-0.692c-0.522,-0.462 -0.82,-1.074 -0.894,-1.837Z" style="fill:#fafafa;fill-rule:nonzero;"/><rect x="749.192" y="339.196" width="3.419" height="1.119" style="fill:#fafafa;"/><path d="M761.886,341.965l-0,1.07l-5.991,-0c-0.009,-0.268 0.035,-0.526 0.129,-0.773c0.153,-0.408 0.397,-0.81 0.733,-1.206c0.336,-0.395 0.821,-0.853 1.456,-1.372c0.985,-0.808 1.651,-1.448 1.997,-1.92c0.347,-0.472 0.52,-0.918 0.52,-1.339c-0,-0.441 -0.158,-0.813 -0.473,-1.116c-0.316,-0.303 -0.727,-0.454 -1.234,-0.454c-0.536,-0 -0.964,0.161 -1.286,0.482c-0.321,0.322 -0.484,0.767 -0.488,1.336l-1.144,-0.118c0.078,-0.853 0.373,-1.503 0.884,-1.951c0.511,-0.447 1.197,-0.67 2.059,-0.67c0.87,-0 1.558,0.241 2.065,0.723c0.507,0.482 0.761,1.08 0.761,1.793c-0,0.363 -0.075,0.719 -0.223,1.07c-0.148,0.35 -0.395,0.719 -0.739,1.107c-0.344,0.387 -0.916,0.919 -1.716,1.595c-0.667,0.56 -1.096,0.941 -1.286,1.141c-0.189,0.199 -0.346,0.4 -0.47,0.602l4.446,0Z" style="fill:#fafafa;fill-rule:nonzero;"/><path d="M762.573,338.565c0,-1.072 0.11,-1.934 0.331,-2.588c0.221,-0.653 0.548,-1.157 0.983,-1.511c0.435,-0.355 0.982,-0.532 1.642,-0.532c0.486,0 0.913,0.098 1.279,0.294c0.367,0.195 0.67,0.478 0.909,0.847c0.24,0.369 0.427,0.818 0.563,1.348c0.136,0.529 0.204,1.243 0.204,2.142c0,1.064 -0.109,1.922 -0.328,2.575c-0.218,0.654 -0.545,1.158 -0.98,1.515c-0.434,0.357 -0.984,0.535 -1.647,0.535c-0.874,-0 -1.561,-0.313 -2.059,-0.94c-0.598,-0.754 -0.897,-1.983 -0.897,-3.685Zm1.144,0c0,1.488 0.174,2.478 0.523,2.971c0.348,0.493 0.778,0.739 1.289,0.739c0.511,-0 0.94,-0.248 1.289,-0.742c0.348,-0.495 0.522,-1.484 0.522,-2.968c0,-1.492 -0.174,-2.483 -0.522,-2.974c-0.349,-0.491 -0.782,-0.736 -1.302,-0.736c-0.511,0 -0.919,0.217 -1.224,0.649c-0.383,0.553 -0.575,1.573 -0.575,3.061Z" style="fill:#fafafa;fill-rule:nonzero;"/><path d="M774.957,341.965l0,1.07l-5.991,-0c-0.008,-0.268 0.035,-0.526 0.13,-0.773c0.152,-0.408 0.396,-0.81 0.732,-1.206c0.336,-0.395 0.822,-0.853 1.456,-1.372c0.986,-0.808 1.651,-1.448 1.998,-1.92c0.346,-0.472 0.519,-0.918 0.519,-1.339c-0,-0.441 -0.158,-0.813 -0.473,-1.116c-0.315,-0.303 -0.727,-0.454 -1.234,-0.454c-0.535,-0 -0.964,0.161 -1.286,0.482c-0.321,0.322 -0.484,0.767 -0.488,1.336l-1.144,-0.118c0.078,-0.853 0.373,-1.503 0.884,-1.951c0.511,-0.447 1.198,-0.67 2.059,-0.67c0.87,-0 1.558,0.241 2.065,0.723c0.507,0.482 0.761,1.08 0.761,1.793c-0,0.363 -0.074,0.719 -0.223,1.07c-0.148,0.35 -0.394,0.719 -0.739,1.107c-0.344,0.387 -0.916,0.919 -1.715,1.595c-0.668,0.56 -1.097,0.941 -1.286,1.141c-0.19,0.199 -0.347,0.4 -0.47,0.602l4.445,0Z" style="fill:#fafafa;fill-rule:nonzero;"/><path d="M779.835,343.034l-1.113,0l0,-7.091c-0.268,0.255 -0.619,0.511 -1.054,0.766c-0.435,0.256 -0.825,0.447 -1.172,0.575l0,-1.076c0.623,-0.292 1.167,-0.647 1.633,-1.063c0.466,-0.416 0.795,-0.82 0.989,-1.212l0.717,0l0,9.101Z" style="fill:#fafafa;fill-rule:nonzero;"/><path d="M736.837,350.021l0,49.716l-13.737,-0l-0,-32.577c-2.223,1.69 -4.374,3.057 -6.452,4.101c-2.079,1.045 -4.685,2.045 -7.819,3.001l-0,-11.136c4.623,-1.49 8.213,-3.279 10.769,-5.369c2.557,-2.089 4.557,-4.668 6.002,-7.735l11.237,-0l0,-0.001Z" style="fill:#fafafa;fill-rule:nonzero;"/><path d="M790.921,361.858l-13.504,1.667c-0.356,-1.89 -0.95,-3.224 -1.784,-4.002c-0.833,-0.778 -1.862,-1.167 -3.084,-1.167c-2.201,0 -3.912,1.112 -5.135,3.335c-0.889,1.6 -1.545,5.024 -1.967,10.27c1.622,-1.645 3.29,-2.862 5.001,-3.651c1.712,-0.79 3.69,-1.184 5.935,-1.184c4.357,-0 8.042,1.556 11.054,4.668c3.012,3.112 4.518,7.058 4.518,11.837c-0,3.223 -0.761,6.168 -2.284,8.836c-1.523,2.667 -3.635,4.685 -6.335,6.052c-2.701,1.367 -6.086,2.05 -10.154,2.05c-4.89,0 -8.813,-0.833 -11.77,-2.5c-2.956,-1.668 -5.318,-4.329 -7.085,-7.986c-1.768,-3.657 -2.651,-8.497 -2.651,-14.521c-0,-8.825 1.856,-15.288 5.568,-19.39c3.712,-4.101 8.858,-6.151 15.438,-6.151c3.89,-0 6.963,0.45 9.22,1.35c2.256,0.9 4.129,2.217 5.618,3.951c1.489,1.734 2.623,3.912 3.401,6.536Zm-25.007,21.773c-0,2.645 0.666,4.718 2,6.218c1.334,1.501 2.968,2.251 4.902,2.251c1.778,0 3.267,-0.678 4.468,-2.034c1.2,-1.356 1.8,-3.379 1.8,-6.068c0,-2.757 -0.622,-4.857 -1.867,-6.302c-1.245,-1.445 -2.79,-2.168 -4.635,-2.168c-1.889,0 -3.473,0.701 -4.751,2.101c-1.278,1.401 -1.917,3.401 -1.917,6.002Z" style="fill:#fafafa;fill-rule:nonzero;"/></g></g></g></svg>