<?xml version="1.0" encoding="UTF-8" standalone="no"?>
<!DOCTYPE svg PUBLIC "-//W3C//DTD SVG 1.1//EN" "http://www.w3.org/Graphics/SVG/1.1/DTD/svg11.dtd">
<svg width="100%" height="100%" viewBox="0 0 150 50" version="1.1" xmlns="http://www.w3.org/2000/svg" xmlns:xlink="http://www.w3.org/1999/xlink" xml:space="preserve" xmlns:serif="http://www.serif.com/" style="fill-rule:evenodd;clip-rule:evenodd;stroke-linejoin:round;stroke-miterlimit:2;">
    <g transform="matrix(0.23772,0,0,0.23772,-100.318,-128.365)">
        <g transform="matrix(0,-4.16667,-4.16667,0,1920.32,1444.43)">
            <path d="M183.333,210.178C175.124,233.243 170.665,258.046 170.665,283.876C170.665,309.71 175.124,334.509 183.333,357.578C176.655,334.305 173.056,309.553 173.056,283.876C173.056,258.203 176.655,233.448 183.333,210.178" style="fill:white;fill-rule:nonzero;"/>
        </g>
        <g transform="matrix(4.16667,0,0,4.16667,0,-719.904)">
            <path d="M123.722,319.582L120.45,319.582L119.695,314.029C119.631,313.532 119.584,313.096 119.555,312.722C119.514,312.353 119.473,311.83 119.432,311.151C119.327,311.759 119.163,312.438 118.941,313.186C118.894,313.333 118.859,313.459 118.836,313.564L117.09,319.582L114.756,319.582L113.011,313.564C112.993,313.464 112.958,313.338 112.905,313.186C112.66,312.397 112.499,311.718 112.423,311.151C112.376,311.794 112.332,312.274 112.291,312.59C112.274,312.754 112.247,312.994 112.212,313.309C112.177,313.625 112.151,313.865 112.133,314.029L111.379,319.582L108.124,319.582L110.107,306.738L113.572,306.738L115.511,313.362C115.546,313.485 115.569,313.564 115.581,313.599C115.75,314.148 115.864,314.652 115.923,315.108C115.935,314.95 115.979,314.692 116.055,314.336C116.078,314.248 116.166,313.918 116.318,313.344L118.274,306.738L121.748,306.738L123.722,319.582Z" style="fill:white;fill-rule:nonzero;"/>
        </g>
        <g transform="matrix(4.16667,0,0,4.16667,0,-718.479)">
            <path d="M125.529,306.396L129.038,306.396L129.038,312.643C129.038,313.596 129.062,314.257 129.108,314.625C129.167,315.064 129.246,315.397 129.345,315.625C129.468,315.959 129.699,316.204 130.039,316.362C130.378,316.544 130.787,316.634 131.266,316.634C131.74,316.634 132.147,316.544 132.486,316.362C132.796,316.21 133.03,315.964 133.188,315.625C133.281,315.392 133.358,315.058 133.416,314.625C133.469,314.274 133.495,313.614 133.495,312.643L133.495,306.396L136.978,306.396L136.978,313.187C136.978,314.579 136.893,315.614 136.723,316.292C136.566,316.965 136.279,317.541 135.864,318.02C135.407,318.553 134.802,318.942 134.048,319.187C133.299,319.45 132.372,319.582 131.267,319.582C130.138,319.582 129.208,319.45 128.477,319.187C127.734,318.942 127.129,318.553 126.661,318.02C126.258,317.552 125.971,316.976 125.801,316.292C125.62,315.602 125.529,314.567 125.529,313.187L125.529,306.396Z" style="fill:white;fill-rule:nonzero;"/>
        </g>
        <g transform="matrix(4.16667,0,0,4.16667,0,-719.904)">
            <path d="M139.627,319.582L139.627,306.738L143.127,306.738L143.127,316.582L147.479,316.582L147.479,319.582L139.627,319.582Z" style="fill:white;fill-rule:nonzero;"/>
        </g>
        <g transform="matrix(4.16667,0,0,4.16667,0,-719.904)">
            <path d="M151.058,319.582L151.058,309.774L148.181,309.774L148.181,306.738L157.436,306.738L157.436,309.774L154.558,309.774L154.558,319.582L151.058,319.582Z" style="fill:white;fill-rule:nonzero;"/>
        </g>
        <g transform="matrix(4.16667,0,0,4.16667,0,-719.901)">
            <rect x="159.226" y="306.738" width="3.535" height="12.843" style="fill:white;"/>
        </g>
        <g transform="matrix(4.16667,0,0,4.16667,0,-719.901)">
            <rect x="165.682" y="306.738" width="3.535" height="12.843" style="fill:white;"/>
        </g>
        <g transform="matrix(4.16667,0,0,4.16667,0,-719.904)">
            <path d="M172.051,319.582L172.051,306.738L175.429,306.738L180.28,313.344C180.403,313.526 180.558,313.798 180.745,314.16C180.985,314.628 181.219,315.111 181.447,315.608C181.359,314.935 181.309,314.464 181.298,314.195C181.262,313.774 181.245,313.403 181.245,313.081L181.245,306.738L184.605,306.738L184.605,319.582L181.245,319.582L176.394,312.95C176.324,312.856 176.169,312.581 175.929,312.125C175.718,311.751 175.484,311.277 175.227,310.704C175.285,311.16 175.341,311.634 175.394,312.125C175.417,312.675 175.429,313.046 175.429,313.239L175.429,319.582L172.051,319.582Z" style="fill:white;fill-rule:nonzero;"/>
        </g>
        <g transform="matrix(4.16667,0,0,4.16667,0,-719.904)">
            <path d="M189.202,319.582L189.202,309.774L186.325,309.774L186.325,306.738L195.58,306.738L195.58,309.774L192.702,309.774L192.702,319.582L189.202,319.582Z" style="fill:white;fill-rule:nonzero;"/>
        </g>
        <g transform="matrix(4.16667,0,0,4.16667,0,-719.904)">
            <path d="M197.282,319.582L197.282,306.738L205.151,306.738L205.151,309.555L200.694,309.555L200.694,311.783L204.896,311.783L204.896,314.538L200.694,314.538L200.694,316.704L205.151,316.704L205.151,319.582L197.282,319.582Z" style="fill:white;fill-rule:nonzero;"/>
        </g>
        <g transform="matrix(4.16667,0,0,4.16667,0,-719.829)">
            <path d="M213.564,314.835L213.564,312.142L220.442,312.142C220.442,312.265 220.448,312.361 220.46,312.432L220.46,312.896C220.46,315.113 219.881,316.827 218.723,318.037C217.553,319.26 215.907,319.871 213.784,319.871C212.772,319.871 211.848,319.716 211.012,319.406C210.205,319.096 209.479,318.616 208.836,317.967C208.222,317.341 207.751,316.616 207.424,315.791C207.248,315.353 207.12,314.914 207.038,314.476C206.956,314.031 206.915,313.589 206.915,313.151C206.915,312.203 207.079,311.323 207.406,310.51C207.734,309.721 208.222,308.996 208.871,308.335C209.491,307.715 210.228,307.241 211.082,306.914C211.924,306.592 212.825,306.431 213.784,306.431C215.036,306.431 216.147,306.683 217.118,307.185C217.428,307.338 217.732,307.527 218.03,307.756C218.334,307.978 218.612,308.226 218.863,308.501C219.121,308.776 219.355,309.074 219.565,309.396L216.53,310.852C216.167,310.355 215.76,309.984 215.31,309.738C214.848,309.499 214.339,309.379 213.783,309.379C212.731,309.379 211.909,309.727 211.318,310.423C210.721,311.113 210.423,312.069 210.423,313.291C210.423,314.52 210.721,315.485 211.318,316.186C211.909,316.882 212.731,317.23 213.783,317.23C214.678,317.23 215.418,317.008 216.003,316.564C216.611,316.125 216.959,315.549 217.047,314.835L213.564,314.835Z" style="fill:white;fill-rule:nonzero;"/>
        </g>
        <g transform="matrix(4.16667,0,0,4.16667,0,-719.904)">
            <path d="M222.617,319.582L222.617,306.738L226.276,306.738C226.983,306.738 227.58,306.753 228.065,306.782C228.556,306.812 228.96,306.861 229.276,306.932C229.82,307.06 230.305,307.282 230.732,307.598C231.2,307.949 231.554,308.399 231.794,308.949C232.045,309.476 232.171,310.072 232.171,310.739C232.171,311.727 231.925,312.537 231.434,313.169C230.954,313.801 230.244,314.213 229.302,314.406L232.802,319.582L228.846,319.582L225.898,314.555L225.898,319.582L222.617,319.582ZM225.898,312.809L226.547,312.809C227.314,312.809 227.866,312.683 228.206,312.432C228.55,312.151 228.723,311.745 228.723,311.213C228.723,310.569 228.562,310.113 228.24,309.844C227.913,309.569 227.366,309.432 226.6,309.432L225.898,309.432L225.898,312.809Z" style="fill:white;fill-rule:nonzero;"/>
        </g>
        <g transform="matrix(4.16667,0,0,4.16667,0,-719.904)">
            <path d="M237.522,314.783L241.005,314.783L239.698,310.546C239.668,310.47 239.613,310.259 239.531,309.914C239.432,309.511 239.341,309.145 239.259,308.818C239.177,309.116 239.107,309.417 239.049,309.721C238.955,310.014 238.876,310.288 238.812,310.546L237.522,314.783ZM232.618,319.582L237.048,306.738L241.435,306.738L245.874,319.582L242.391,319.582L241.742,317.283L236.768,317.283L236.101,319.582L232.618,319.582Z" style="fill:white;fill-rule:nonzero;"/>
        </g>
        <g transform="matrix(4.16667,0,0,4.16667,0,-592.033)">
            <path d="M110.977,294.494L110.977,302.404L109.485,302.404L109.485,294.494L107.047,294.494L107.047,293.227L113.402,293.227L113.402,294.494L110.977,294.494Z" style="fill:white;fill-rule:nonzero;"/>
        </g>
        <g transform="matrix(4.16667,0,0,4.16667,0,-592.033)">
            <path d="M114.556,302.404L114.556,293.227L119.676,293.227L119.676,294.494L116.047,294.494L116.047,296.794L119.676,296.794L119.676,298.104L116.047,298.104L116.047,301.069L119.676,301.069L119.676,302.404L114.556,302.404Z" style="fill:white;fill-rule:nonzero;"/>
        </g>
        <g transform="matrix(4.16667,0,0,4.16667,0,-591.929)">
            <path d="M128.765,295.434C128.343,295.074 127.896,294.805 127.424,294.625C126.955,294.446 126.462,294.356 125.944,294.356C124.941,294.356 124.125,294.677 123.493,295.321C122.867,295.964 122.553,296.798 122.553,297.822C122.553,298.812 122.858,299.629 123.468,300.273C124.083,300.916 124.856,301.238 125.788,301.238C126.331,301.238 126.847,301.142 127.336,300.949C127.829,300.757 128.301,300.467 128.752,300.078L128.752,301.764C128.351,302.053 127.915,302.268 127.442,302.41C126.97,302.552 126.458,302.623 125.907,302.623C125.205,302.623 124.555,302.508 123.957,302.278C123.364,302.049 122.842,301.71 122.39,301.263C121.943,300.824 121.599,300.308 121.356,299.715C121.118,299.117 120.999,298.482 120.999,297.809C120.999,297.137 121.118,296.506 121.356,295.916C121.599,295.323 121.947,294.803 122.403,294.356C122.858,293.904 123.381,293.564 123.97,293.334C124.559,293.1 125.196,292.983 125.882,292.983C126.42,292.983 126.935,293.062 127.424,293.221C127.912,293.376 128.387,293.612 128.846,293.929L128.765,295.434Z" style="fill:white;fill-rule:nonzero;"/>
        </g>
        <g transform="matrix(4.16667,0,0,4.16667,0,-592.033)">
            <path d="M130.626,302.404L130.626,293.227L132.118,293.227L132.118,296.612L136.631,296.612L136.631,293.227L138.123,293.227L138.123,302.404L136.631,302.404L136.631,297.947L132.118,297.947L132.118,302.404L130.626,302.404Z" style="fill:white;fill-rule:nonzero;"/>
        </g>
        <g transform="matrix(4.16667,0,0,4.16667,0,-592.058)">
            <path d="M140.229,302.41L140.229,292.87L146.058,298.479C146.217,298.638 146.377,298.808 146.54,298.987C146.703,299.167 146.875,299.37 147.054,299.595L147.054,293.233L148.433,293.233L148.433,302.767L142.485,297.057C142.326,296.902 142.172,296.739 142.021,296.568C141.875,296.397 141.735,296.217 141.601,296.029L141.601,302.41L140.229,302.41Z" style="fill:white;fill-rule:nonzero;"/>
        </g>
        <g transform="matrix(4.16667,0,0,4.16667,0,-591.875)">
            <path d="M158.387,297.796C158.387,297.332 158.301,296.892 158.13,296.474C157.963,296.056 157.72,295.684 157.403,295.358C157.093,295.036 156.734,294.79 156.324,294.618C155.919,294.443 155.491,294.355 155.04,294.355C154.588,294.355 154.158,294.441 153.748,294.612C153.343,294.783 152.982,295.032 152.664,295.358C152.347,295.68 152.104,296.049 151.937,296.467C151.77,296.885 151.686,297.328 151.686,297.796C151.686,298.26 151.77,298.699 151.937,299.113C152.104,299.526 152.347,299.896 152.664,300.222C152.982,300.548 153.343,300.797 153.748,300.968C154.154,301.139 154.584,301.225 155.04,301.225C155.487,301.225 155.911,301.139 156.312,300.968C156.717,300.797 157.081,300.548 157.403,300.222C157.72,299.896 157.962,299.526 158.13,299.113C158.301,298.695 158.387,298.256 158.387,297.796ZM159.941,297.796C159.941,298.448 159.818,299.065 159.571,299.645C159.329,300.226 158.974,300.744 158.506,301.2C158.034,301.655 157.501,302.004 156.908,302.246C156.314,302.489 155.692,302.61 155.04,302.61C154.379,302.61 153.748,302.489 153.147,302.246C152.549,302 152.021,301.651 151.561,301.2C151.093,300.744 150.738,300.228 150.495,299.651C150.253,299.075 150.132,298.456 150.132,297.796C150.132,297.14 150.253,296.522 150.495,295.941C150.738,295.36 151.093,294.84 151.561,294.38C152.029,293.925 152.56,293.578 153.153,293.34C153.746,293.102 154.375,292.983 155.04,292.983C155.7,292.983 156.324,293.102 156.914,293.34C157.507,293.578 158.038,293.925 158.506,294.38C158.974,294.844 159.329,295.369 159.571,295.953C159.818,296.534 159.941,297.149 159.941,297.796Z" style="fill:white;fill-rule:nonzero;"/>
        </g>
        <g transform="matrix(4.16667,0,0,4.16667,0,-592.033)">
            <path d="M161.665,302.404L161.665,293.227L163.156,293.227L163.156,301.069L166.491,301.069L166.491,302.404L161.665,302.404Z" style="fill:white;fill-rule:nonzero;"/>
        </g>
        <g transform="matrix(4.16667,0,0,4.16667,0,-591.875)">
            <path d="M175.109,297.796C175.109,297.332 175.024,296.892 174.852,296.474C174.685,296.056 174.443,295.684 174.125,295.358C173.816,295.036 173.457,294.79 173.047,294.618C172.642,294.443 172.214,294.355 171.762,294.355C171.311,294.355 170.881,294.441 170.471,294.612C170.066,294.783 169.704,295.032 169.387,295.358C169.069,295.68 168.827,296.049 168.66,296.467C168.493,296.885 168.409,297.328 168.409,297.796C168.409,298.26 168.493,298.699 168.66,299.113C168.827,299.526 169.069,299.896 169.387,300.222C169.704,300.548 170.066,300.797 170.471,300.968C170.876,301.139 171.307,301.225 171.762,301.225C172.209,301.225 172.634,301.139 173.035,300.968C173.44,300.797 173.804,300.548 174.125,300.222C174.443,299.896 174.685,299.526 174.852,299.113C175.024,298.695 175.109,298.256 175.109,297.796ZM176.664,297.796C176.664,298.448 176.54,299.065 176.294,299.645C176.051,300.226 175.696,300.744 175.228,301.2C174.756,301.655 174.223,302.004 173.63,302.246C173.037,302.489 172.414,302.61 171.762,302.61C171.102,302.61 170.471,302.489 169.869,302.246C169.272,302 168.743,301.651 168.283,301.2C167.815,300.744 167.46,300.228 167.218,299.651C166.976,299.075 166.855,298.456 166.855,297.796C166.855,297.14 166.976,296.522 167.218,295.941C167.46,295.36 167.815,294.84 168.283,294.38C168.752,293.925 169.282,293.578 169.875,293.34C170.469,293.102 171.098,292.983 171.762,292.983C172.422,292.983 173.047,293.102 173.636,293.34C174.23,293.578 174.76,293.925 175.228,294.38C175.696,294.844 176.051,295.369 176.294,295.953C176.54,296.534 176.664,297.149 176.664,297.796Z" style="fill:white;fill-rule:nonzero;"/>
        </g>
        <g transform="matrix(4.16667,0,0,4.16667,0,-591.875)">
            <path d="M183.471,297.665L187.106,297.665C187.106,297.727 187.107,297.815 187.111,297.928C187.123,298.225 187.13,298.425 187.13,298.53C187.13,299.821 186.76,300.824 186.02,301.538C185.28,302.253 184.238,302.61 182.892,302.61C182.14,302.61 181.47,302.499 180.881,302.278C180.291,302.056 179.775,301.722 179.332,301.275C178.898,300.832 178.563,300.312 178.33,299.714C178.1,299.117 177.985,298.477 177.985,297.796C177.985,297.103 178.102,296.463 178.336,295.878C178.574,295.293 178.925,294.777 179.389,294.33C179.836,293.891 180.36,293.557 180.962,293.327C181.564,293.097 182.207,292.983 182.892,292.983C183.615,292.983 184.261,293.114 184.829,293.377C185.402,293.641 185.912,294.044 186.359,294.587L185.268,295.408C184.959,295.049 184.61,294.782 184.221,294.606C183.833,294.431 183.398,294.343 182.918,294.343C181.923,294.343 181.11,294.662 180.479,295.302C179.852,295.937 179.539,296.764 179.539,297.784C179.539,298.82 179.852,299.662 180.479,300.31C181.11,300.953 181.927,301.275 182.93,301.275C183.783,301.275 184.453,301.077 184.942,300.68C185.431,300.283 185.675,299.741 185.675,299.056L185.675,298.924L183.469,298.924L183.471,297.665Z" style="fill:white;fill-rule:nonzero;"/>
        </g>
        <g transform="matrix(4.16667,0,0,4.16667,0,-592.033)">
            <path d="M190.453,302.404L190.453,298.204L187.363,293.227L188.93,293.227L190.854,296.342C190.9,296.422 190.956,296.526 191.023,296.656C191.094,296.785 191.165,296.925 191.236,297.076C191.295,296.93 191.355,296.792 191.418,296.662C191.485,296.533 191.554,296.413 191.625,296.305L193.599,293.227L195.091,293.227L191.932,298.204L191.932,302.404L190.453,302.404Z" style="fill:white;fill-rule:nonzero;"/>
        </g>
        <g transform="matrix(4.16667,0,0,4.16667,0,-591.979)">
            <path d="M204.411,299.012L204.411,297.088L209.325,297.088C209.325,297.176 209.33,297.244 209.339,297.295L209.339,297.627C209.339,299.211 208.925,300.435 208.098,301.3C207.262,302.173 206.086,302.61 204.569,302.61C203.846,302.61 203.186,302.499 202.588,302.277C202.012,302.056 201.493,301.714 201.034,301.25C200.595,300.803 200.259,300.284 200.025,299.695C199.9,299.382 199.807,299.068 199.749,298.755C199.69,298.438 199.661,298.122 199.661,297.809C199.661,297.132 199.778,296.503 200.012,295.922C200.246,295.358 200.595,294.84 201.059,294.367C201.502,293.925 202.028,293.586 202.638,293.352C203.24,293.122 203.883,293.008 204.569,293.008C205.463,293.008 206.257,293.187 206.951,293.546C207.172,293.655 207.39,293.791 207.602,293.954C207.82,294.113 208.018,294.29 208.198,294.487C208.382,294.683 208.549,294.896 208.699,295.126L206.531,296.166C206.272,295.811 205.981,295.546 205.659,295.37C205.329,295.199 204.966,295.113 204.569,295.113C203.817,295.113 203.23,295.362 202.808,295.859C202.381,296.352 202.168,297.036 202.168,297.909C202.168,298.787 202.381,299.476 202.808,299.977C203.23,300.475 203.817,300.723 204.569,300.723C205.208,300.723 205.737,300.564 206.155,300.247C206.589,299.934 206.838,299.522 206.901,299.012L204.411,299.012Z" style="fill:white;fill-rule:nonzero;"/>
        </g>
        <g transform="matrix(4.16667,0,0,4.16667,0,-592.033)">
            <path d="M210.88,302.404L210.88,293.227L213.494,293.227C213.999,293.227 214.425,293.238 214.772,293.259C215.123,293.28 215.411,293.315 215.637,293.365C216.026,293.457 216.373,293.616 216.678,293.842C217.012,294.093 217.265,294.414 217.436,294.807C217.616,295.183 217.706,295.609 217.706,296.086C217.706,296.792 217.53,297.371 217.179,297.822C216.836,298.273 216.329,298.568 215.656,298.706L218.157,302.404L215.33,302.404L213.224,298.812L213.224,302.404L210.88,302.404ZM213.224,297.565L213.688,297.565C214.235,297.565 214.63,297.475 214.873,297.295C215.119,297.095 215.242,296.804 215.242,296.424C215.242,295.964 215.127,295.638 214.898,295.446C214.663,295.25 214.273,295.152 213.725,295.152L213.224,295.152L213.224,297.565Z" style="fill:white;fill-rule:nonzero;"/>
        </g>
        <g transform="matrix(4.16667,0,0,4.16667,0,-591.875)">
            <path d="M228.524,297.796C228.524,298.461 228.405,299.081 228.167,299.658C227.928,300.222 227.573,300.736 227.101,301.2C226.633,301.651 226.098,301.998 225.496,302.24C224.866,302.487 224.241,302.61 223.622,302.61C222.996,302.61 222.371,302.487 221.748,302.24C221.134,301.994 220.603,301.647 220.156,301.2C219.705,300.769 219.35,300.251 219.091,299.645C218.84,299.052 218.715,298.435 218.715,297.796C218.715,297.157 218.84,296.541 219.091,295.947C219.35,295.342 219.705,294.823 220.156,294.393C220.616,293.933 221.147,293.582 221.748,293.34C222.333,293.102 222.958,292.983 223.622,292.983C224.287,292.983 224.916,293.104 225.509,293.346C226.102,293.584 226.631,293.933 227.095,294.393C227.563,294.853 227.92,295.371 228.167,295.947C228.405,296.524 228.524,297.14 228.524,297.796ZM223.622,300.491C224.312,300.491 224.889,300.235 225.352,299.72C225.582,299.466 225.751,299.179 225.86,298.862C225.969,298.544 226.023,298.189 226.023,297.796C226.023,297.032 225.795,296.39 225.34,295.872C224.876,295.358 224.303,295.101 223.622,295.101C222.924,295.101 222.35,295.358 221.899,295.872C221.447,296.386 221.222,297.028 221.222,297.796C221.222,298.594 221.443,299.24 221.886,299.733C222.342,300.239 222.92,300.491 223.622,300.491Z" style="fill:white;fill-rule:nonzero;"/>
        </g>
        <g transform="matrix(4.16667,0,0,4.16667,0,-591.017)">
            <path d="M230.015,292.983L232.523,292.983L232.523,297.446C232.523,298.127 232.539,298.599 232.573,298.863C232.615,299.176 232.671,299.414 232.742,299.577C232.83,299.815 232.995,299.991 233.237,300.104C233.48,300.233 233.772,300.298 234.115,300.298C234.453,300.298 234.744,300.233 234.986,300.104C235.208,299.995 235.375,299.82 235.488,299.577C235.554,299.41 235.609,299.172 235.65,298.863C235.688,298.612 235.707,298.14 235.707,297.446L235.707,292.983L238.195,292.983L238.195,297.835C238.195,298.829 238.134,299.569 238.013,300.054C237.9,300.534 237.696,300.946 237.399,301.288C237.073,301.669 236.64,301.946 236.102,302.122C235.567,302.31 234.904,302.404 234.115,302.404C233.308,302.404 232.644,302.31 232.121,302.122C231.591,301.946 231.158,301.669 230.824,301.288C230.535,300.954 230.331,300.543 230.21,300.054C230.08,299.56 230.015,298.821 230.015,297.835L230.015,292.983Z" style="fill:white;fill-rule:nonzero;"/>
        </g>
        <g transform="matrix(4.16667,0,0,4.16667,0,-592.033)">
            <path d="M242.432,302.404L240.088,302.404L240.088,293.227L242.702,293.227C243.717,293.227 244.438,293.278 244.864,293.378C245.282,293.486 245.631,293.658 245.911,293.892C246.245,294.172 246.502,294.519 246.682,294.932C246.861,295.354 246.951,295.825 246.951,296.342C246.951,296.894 246.861,297.375 246.682,297.784C246.523,298.198 246.266,298.54 245.911,298.812C245.656,299.013 245.349,299.157 244.989,299.244C244.668,299.332 244.108,299.376 243.31,299.376L242.432,299.376L242.432,302.404ZM242.432,297.358L242.909,297.358C243.502,297.358 243.922,297.272 244.168,297.101C244.407,296.942 244.526,296.664 244.526,296.267C244.526,295.887 244.409,295.615 244.175,295.453C243.945,295.285 243.531,295.202 242.934,295.202L242.432,295.202L242.432,297.358Z" style="fill:white;fill-rule:nonzero;"/>
        </g>
    </g>
</svg>
