<?xml version="1.0" encoding="UTF-8" standalone="no"?><!DOCTYPE svg PUBLIC "-//W3C//DTD SVG 1.1//EN" "http://www.w3.org/Graphics/SVG/1.1/DTD/svg11.dtd"><svg width="100%" height="100%" viewBox="0 0 5148 5138" version="1.1" xmlns="http://www.w3.org/2000/svg" xmlns:xlink="http://www.w3.org/1999/xlink" xml:space="preserve" xmlns:serif="http://www.serif.com/" style="fill-rule:evenodd;clip-rule:evenodd;stroke-linejoin:round;stroke-miterlimit:2;"><g id="Layer-1" serif:id="Layer 1"><path d="M1370.77,3640.21c-420.594,-347.1 -688.863,-872.32 -688.863,-1459.69c0,-1044.11 847.693,-1891.8 1891.8,-1891.8c1044.11,-0 1891.8,847.691 1891.8,1891.8c0,583.779 -265,1106.16 -681.16,1453.3c-8.63,-110.691 -40.51,-197.42 -74.82,-260.98c314.89,-300.07 511.23,-723.451 511.23,-1192.32c0,-909.03 -738.02,-1647.05 -1647.05,-1647.05c-909.03,-0 -1647.05,738.021 -1647.05,1647.05c0,470.33 197.564,894.869 514.164,1195.11c-33.12,63.16 -62.89,150.141 -70.05,264.58" style="fill:#626060;"/><path d="M3522.39,3119.83c0.25,0.289 163.471,185.719 163.471,573.33c-0,456.031 -163.471,573.326 -163.471,573.326l-1889.01,-0c-0,-0 -163.469,-162.711 -163.469,-573.326c-0,-410.301 163.209,-573.07 163.469,-573.33l1889.01,-0Z" style="fill:#b52f25;"/><path d="M4165.37,2363.99c-498.13,177.279 -1033.79,273.59 -1591.61,273.59c-557.92,0 -1093.49,-96.311 -1591.71,-273.59c502.621,144.21 1037.17,221.94 1591.71,221.94c554.44,0 1089.06,-77.73 1591.61,-221.94" style="fill:#626060;fill-rule:nonzero;"/><path d="M1423.12,2007.08l-70.67,0l-16.3,-119.93c-1.38,-10.73 -2.4,-20.14 -3.02,-28.22c-0.89,-7.96 -1.77,-19.27 -2.66,-33.92c-2.27,13.14 -5.81,27.79 -10.61,43.95c-1.01,3.16 -1.77,5.88 -2.27,8.15l-37.71,129.97l-50.39,0l-37.7,-129.97c-0.38,-2.14 -1.14,-4.86 -2.28,-8.15c-5.3,-17.04 -8.77,-31.7 -10.42,-43.95c-1,13.89 -1.95,24.25 -2.84,31.07c-0.38,3.54 -0.95,8.72 -1.71,15.54c-0.75,6.82 -1.32,12 -1.7,15.53l-16.3,119.93l-70.29,0l42.82,-277.37l74.84,0l41.87,143.05c0.76,2.65 1.26,4.35 1.51,5.11c3.66,11.87 6.13,22.74 7.39,32.59c0.27,-3.41 1.22,-8.97 2.84,-16.67c0.51,-1.9 2.41,-9.03 5.69,-21.41l42.25,-142.67l75.03,0l42.63,277.37Z" style="fill:#b52f25;fill-rule:nonzero;"/><path d="M1462.15,1729.71l75.78,0l-0,134.9c-0,20.58 0.51,34.86 1.51,42.82c1.26,9.47 2.97,16.67 5.12,21.59c2.65,7.2 7.64,12.51 14.97,15.92c7.32,3.91 16.17,5.87 26.52,5.87c10.23,0 19.01,-1.96 26.33,-5.87c6.7,-3.28 11.75,-8.59 15.16,-15.92c2.02,-5.05 3.67,-12.24 4.93,-21.59c1.14,-7.58 1.7,-21.85 1.7,-42.82l-0,-134.9l75.22,0l-0,146.65c-0,30.06 -1.83,52.41 -5.49,67.07c-3.41,14.52 -9.6,26.96 -18.57,37.32c-9.85,11.49 -22.92,19.89 -39.22,25.19c-16.16,5.69 -36.18,8.53 -60.06,8.53c-24.37,0 -44.45,-2.84 -60.24,-8.53c-16.05,-5.3 -29.12,-13.7 -39.22,-25.19c-8.72,-10.11 -14.91,-22.55 -18.57,-37.32c-3.91,-14.91 -5.87,-37.27 -5.87,-67.07l-0,-146.65Z" style="fill:#b52f25;fill-rule:nonzero;"/><path d="M1766.61,2007.08l-0,-277.37l75.59,0l-0,212.58l93.98,0l-0,64.79l-169.57,0Z" style="fill:#b52f25;fill-rule:nonzero;"/><path d="M2013.48,2007.08l0,-211.81l-62.15,0l0,-65.56l199.88,0l0,65.56l-62.14,0l0,211.81l-75.59,0Z" style="fill:#b52f25;fill-rule:nonzero;"/><rect x="2189.86" y="1729.71" width="76.353" height="277.369" style="fill:#b52f25;"/><rect x="2329.3" y="1729.71" width="76.353" height="277.369" style="fill:#b52f25;"/><path d="M2466.85,2007.08l0,-277.37l72.95,0l104.77,142.67c2.65,3.91 5.99,9.79 10.04,17.61c5.18,10.11 10.23,20.53 15.159,31.26c-1.899,-14.52 -2.979,-24.691 -3.229,-30.5c-0.76,-9.09 -1.13,-17.11 -1.13,-24.06l0,-136.98l72.56,0l0,277.37l-72.56,0l-104.77,-143.23c-1.52,-2.02 -4.86,-7.96 -10.05,-17.81c-4.54,-8.08 -9.59,-18.31 -15.15,-30.69c1.26,9.85 2.46,20.08 3.6,30.69c0.5,11.88 0.76,19.9 0.76,24.06l0,136.98l-72.95,0Z" style="fill:#b52f25;fill-rule:nonzero;"/><path d="M2837.25,2007.08l0,-211.81l-62.14,0l0,-65.56l199.87,0l0,65.56l-62.14,0l0,211.81l-75.59,0Z" style="fill:#b52f25;fill-rule:nonzero;"/><path d="M3011.74,2007.08l0,-277.37l169.939,0l0,60.82l-96.24,0l0,48.12l90.75,0l0,59.5l-90.75,0l0,46.79l96.24,0l0,62.14l-169.939,0Z" style="fill:#b52f25;fill-rule:nonzero;"/><path d="M3363.38,1904.96l-0,-58.16l148.53,0c-0,2.66 0.13,4.73 0.401,6.25l-0,10.04c-0,47.88 -12.5,84.88 -37.511,111.03c-25.27,26.4 -60.819,39.59 -106.67,39.59c-21.85,0 -41.81,-3.35 -59.86,-10.04c-17.43,-6.69 -33.1,-17.05 -46.99,-31.07c-13.26,-13.51 -23.43,-29.17 -30.5,-46.99c-3.799,-9.47 -6.57,-18.94 -8.34,-28.41c-1.77,-9.61 -2.65,-19.14 -2.65,-28.61c-0,-20.47 3.54,-39.47 10.611,-57.03c7.069,-17.05 17.619,-32.71 31.639,-46.99c13.39,-13.38 29.31,-23.61 47.74,-30.69c18.19,-6.94 37.64,-10.42 58.36,-10.42c27.03,0 51.03,5.44 71.99,16.3c6.7,3.28 13.26,7.38 19.71,12.31c6.561,4.8 12.561,10.17 17.99,16.1c5.56,5.94 10.61,12.38 15.16,19.33l-65.55,31.45c-7.85,-10.74 -16.629,-18.76 -26.36,-24.07c-9.98,-5.17 -20.96,-7.76 -32.97,-7.76c-22.73,0 -40.48,7.51 -53.24,22.54c-12.88,14.91 -19.32,35.56 -19.32,61.96c-0,26.53 6.44,47.37 19.32,62.52c12.76,15.03 30.51,22.55 53.24,22.55c19.33,0 35.31,-4.8 47.94,-14.4c13.13,-9.48 20.65,-21.91 22.54,-37.33l-75.21,0Z" style="fill:#b52f25;fill-rule:nonzero;"/><path d="M3558.9,2007.08l0,-277.37l79.01,0c15.279,0 28.16,0.32 38.639,0.95c10.611,0.63 19.33,1.71 26.151,3.22c11.75,2.78 22.229,7.58 31.45,14.4c10.109,7.58 17.75,17.3 22.93,29.17c5.42,11.37 8.139,24.26 8.139,38.66c0,21.34 -5.299,38.83 -15.909,52.48c-10.36,13.64 -25.7,22.54 -46.041,26.71l75.591,111.78l-85.44,0l-63.661,-108.56l0,108.56l-70.859,0Zm70.859,-146.26l14.021,0c16.54,0 28.479,-2.72 35.809,-8.15c7.451,-6.06 11.17,-14.84 11.17,-26.33c0,-13.89 -3.469,-23.75 -10.42,-29.56c-7.07,-5.93 -18.879,-8.9 -35.419,-8.9l-15.161,0l0,72.94Z" style="fill:#b52f25;fill-rule:nonzero;"/><path d="M3880.79,1903.45l75.22,0l-28.23,-91.51c-0.64,-1.64 -1.83,-6.19 -3.61,-13.64c-2.14,-8.72 -4.1,-16.61 -5.87,-23.68c-1.76,6.439 -3.281,12.939 -4.54,19.51c-2.02,6.31 -3.73,12.25 -5.12,17.81l-27.85,91.51Zm-105.91,103.63l95.681,-277.37l94.729,0l95.87,277.37l-75.221,0l-14.019,-49.63l-107.42,0.001l-14.4,49.63l-75.22,-0.001Z" style="fill:#b52f25;fill-rule:nonzero;"/><path d="M1147.86,2128.04l-0,170.83l-32.22,0l-0,-170.83l-52.65,0l-0,-27.35l137.25,0l-0,27.35l-52.38,0Z" style="fill:#626060;fill-rule:nonzero;"/><path d="M1225.15,2298.87l-0,-198.18l110.6,0l-0,27.35l-78.38,0l-0,49.68l78.38,0l-0,28.29l-78.38,0l-0,64.03l78.38,0l-0,28.83l-110.6,0Z" style="fill:#626060;fill-rule:nonzero;"/><path d="M1532.02,2148.89c-9.12,-7.76 -18.77,-13.59 -28.96,-17.47c-10.12,-3.87 -20.76,-5.82 -31.96,-5.82c-21.65,-0 -39.29,6.95 -52.92,20.851c-13.54,13.899 -20.3,31.899 -20.3,54.009c0,21.38 6.58,39.031 19.76,52.93c13.26,13.891 29.96,20.84 50.08,20.84c11.73,-0 22.88,-2.069 33.44,-6.23c10.64,-4.15 20.85,-10.42 30.59,-18.81l0,36.41c-8.66,6.23 -18.09,10.88 -28.29,13.95c-10.2,3.06 -21.25,4.6 -33.17,4.6c-15.15,-0 -29.19,-2.489 -42.09,-7.449c-12.82,-4.96 -24.1,-12.271 -33.85,-21.931c-9.65,-9.47 -17.09,-20.62 -22.33,-33.43c-5.15,-12.91 -7.71,-26.63 -7.71,-41.15c0,-14.529 2.56,-28.159 7.71,-40.88c5.24,-12.81 12.77,-24.05 22.6,-33.71c9.84,-9.74 21.12,-17.1 33.85,-22.06c12.72,-5.06 26.48,-7.58 41.28,-7.58c11.64,-0 22.75,1.71 33.31,5.14c10.55,3.34 20.79,8.44 30.72,15.3l-1.76,32.49Z" style="fill:#626060;fill-rule:nonzero;"/><path d="M1572.22,2298.87l-0,-198.18l32.22,0l-0,73.1l97.46,0l-0,-73.1l32.22,0l-0,198.18l-32.22,0l-0,-96.25l-97.46,0l-0,96.25l-32.22,0Z" style="fill:#626060;fill-rule:nonzero;"/><path d="M1779.6,2298.87l0,-206.03l125.89,121.15c3.43,3.43 6.9,7.09 10.42,10.97c3.52,3.88 7.22,8.26 11.1,13.13l0,-137.4l29.78,0l0,205.89l-128.46,-123.31c-3.43,-3.34 -6.77,-6.86 -10.02,-10.56c-3.16,-3.7 -6.18,-7.58 -9.07,-11.64l0,137.8l-29.64,0Z" style="fill:#626060;fill-rule:nonzero;"/><path d="M2171.75,2200.19c0,-10.02 -1.85,-19.54 -5.55,-28.56c-3.61,-9.03 -8.85,-17.06 -15.71,-24.1c-6.67,-6.95 -14.44,-12.27 -23.28,-15.97c-8.75,-3.79 -18,-5.69 -27.74,-5.69c-9.75,0 -19.05,1.85 -27.89,5.55c-8.76,3.7 -16.56,9.07 -23.42,16.11c-6.86,6.95 -12.09,14.93 -15.7,23.96c-3.61,9.02 -5.42,18.59 -5.42,28.7c0,10.01 1.81,19.49 5.42,28.42c3.6,8.94 8.84,16.93 15.7,23.96c6.86,7.04 14.66,12.41 23.42,16.11c8.75,3.7 18.05,5.55 27.89,5.55c9.65,0 18.81,-1.85 27.47,-5.55c8.76,-3.7 16.61,-9.07 23.55,-16.11c6.86,-7.03 12.09,-15.02 15.71,-23.96c3.7,-9.02 5.55,-18.5 5.55,-28.42m33.57,0c0,14.08 -2.67,27.39 -7.99,39.93c-5.24,12.55 -12.91,23.73 -23.01,33.57c-10.2,9.83 -21.7,17.37 -34.52,22.6c-12.82,5.24 -26.26,7.86 -40.33,7.86c-14.27,0 -27.89,-2.62 -40.89,-7.86c-12.9,-5.32 -24.32,-12.85 -34.24,-22.6c-10.11,-9.84 -17.78,-20.98 -23.02,-33.44c-5.23,-12.45 -7.85,-25.81 -7.85,-40.06c-0,-14.17 2.62,-27.53 7.85,-40.07c5.24,-12.54 12.91,-23.78 23.02,-33.71c10.1,-9.83 21.57,-17.32 34.38,-22.46c12.81,-5.15 26.39,-7.72 40.75,-7.72c14.25,0 27.74,2.57 40.47,7.72c12.81,5.14 24.27,12.63 34.38,22.46c10.1,10.02 17.77,21.35 23.01,33.98c5.32,12.54 7.99,25.81 7.99,39.8" style="fill:#626060;fill-rule:nonzero;"/><path d="M2242.54,2298.87l0,-198.18l32.22,0l0,169.35l72.01,0l0,28.83l-104.23,0Z" style="fill:#626060;fill-rule:nonzero;"/><path d="M2532.89,2200.19c-0,-10.02 -1.84,-19.54 -5.54,-28.56c-3.609,-9.03 -8.85,-17.06 -15.7,-24.1c-6.68,-6.95 -14.449,-12.27 -23.289,-15.97c-8.75,-3.79 -18,-5.69 -27.75,-5.69c-9.75,0 -19.04,1.85 -27.881,5.55c-8.76,3.7 -16.56,9.07 -23.42,16.11c-6.859,6.95 -12.09,14.93 -15.699,23.96c-3.611,9.02 -5.41,18.59 -5.41,28.7c-0,10.01 1.799,19.49 5.41,28.42c3.609,8.94 8.84,16.93 15.699,23.96c6.86,7.04 14.66,12.41 23.42,16.11c8.75,3.7 18.04,5.55 27.881,5.55c9.659,0 18.819,-1.85 27.479,-5.55c8.76,-3.7 16.611,-9.07 23.56,-16.11c6.85,-7.03 12.091,-15.02 15.7,-23.96c3.7,-9.02 5.54,-18.5 5.54,-28.42m33.58,0c-0,14.08 -2.67,27.39 -7.99,39.93c-5.239,12.55 -12.9,23.73 -23.01,33.57c-10.2,9.83 -21.71,17.37 -34.519,22.6c-12.821,5.24 -26.261,7.86 -40.34,7.86c-14.261,0 -27.881,-2.62 -40.881,-7.86c-12.9,-5.32 -24.319,-12.85 -34.25,-22.6c-10.1,-9.84 -17.77,-20.98 -23.01,-33.44c-5.229,-12.45 -7.85,-25.81 -7.85,-40.06c-0,-14.17 2.621,-27.53 7.85,-40.07c5.24,-12.54 12.91,-23.78 23.01,-33.71c10.12,-9.83 21.57,-17.32 34.39,-22.46c12.81,-5.15 26.4,-7.72 40.741,-7.72c14.259,0 27.75,2.57 40.479,7.72c12.81,5.14 24.271,12.63 34.38,22.46c10.11,10.02 17.771,21.35 23.01,33.98c5.32,12.54 7.99,25.81 7.99,39.8" style="fill:#626060;fill-rule:nonzero;"/><path d="M2713.47,2197.35l78.511,-0c-0,1.351 0.039,3.24 0.109,5.681c0.271,6.409 0.401,10.739 0.401,13c-0,27.88 -7.991,49.539 -23.96,64.969c-15.97,15.43 -38.481,23.15 -67.55,23.15c-16.24,-0 -30.721,-2.39 -43.441,-7.18c-12.729,-4.78 -23.87,-12 -33.44,-21.66c-9.39,-9.56 -16.609,-20.79 -21.66,-33.7c-4.959,-12.909 -7.44,-26.71 -7.44,-41.42c-0,-14.98 2.52,-28.79 7.58,-41.42c5.14,-12.64 12.72,-23.779 22.741,-33.44c9.649,-9.47 20.979,-16.69 33.979,-21.65c12.99,-4.97 26.88,-7.45 41.681,-7.45c15.619,-0 29.559,2.84 41.84,8.53c12.359,5.68 23.369,14.39 33.019,26.12l-23.55,17.741c-6.679,-7.761 -14.219,-13.541 -22.61,-17.331c-8.39,-3.79 -17.77,-5.69 -28.149,-5.69c-21.481,-0 -39.031,6.91 -52.661,20.71c-13.54,13.721 -20.299,31.59 -20.299,53.61c-0,22.38 6.759,40.56 20.299,54.55c13.63,13.901 31.27,20.84 52.93,20.84c18.41,-0 32.89,-4.279 43.45,-12.85c10.561,-8.58 15.84,-20.27 15.84,-35.06l-0,-2.85l-47.65,-0l0.03,-27.2Z" style="fill:#626060;fill-rule:nonzero;"/><path d="M2864.27,2298.87l-0.001,-90.69l-66.738,-107.49l33.84,0l41.558,67.28c0.99,1.72 2.21,3.97 3.651,6.77c1.541,2.8 3.07,5.819 4.599,9.069c1.26,-3.159 2.58,-6.139 3.931,-8.939c1.439,-2.79 2.93,-5.37 4.46,-7.71l42.649,-66.47l32.21,0l-68.22,107.49l0,90.69l-31.94,0Z" style="fill:#626060;fill-rule:nonzero;"/><path d="M3165.72,2225.91l-0,-41.561l106.12,0c-0,1.901 0.1,3.381 0.29,4.471l-0,7.17c-0,34.2 -8.93,60.64 -26.8,79.319c-18.049,18.861 -43.45,28.29 -76.21,28.29c-15.61,0 -29.87,-2.389 -42.77,-7.169c-12.46,-4.78 -23.65,-12.18 -33.58,-22.2c-9.47,-9.66 -16.739,-20.85 -21.789,-33.57c-2.7,-6.771 -4.691,-13.54 -5.961,-20.3c-1.26,-6.86 -1.89,-13.68 -1.89,-20.44c-0,-14.63 2.53,-28.21 7.58,-40.75c5.05,-12.18 12.59,-23.37 22.601,-33.571c9.569,-9.569 20.939,-16.869 34.119,-21.929c12.99,-4.96 26.891,-7.44 41.69,-7.44c19.31,0 36.46,3.88 51.441,11.64c4.779,2.34 9.479,5.269 14.069,8.8c4.691,3.429 8.981,7.26 12.87,11.5c3.97,4.24 7.571,8.85 10.83,13.81l-46.839,22.47c-5.601,-7.67 -11.871,-13.4 -18.821,-17.19c-7.13,-3.701 -14.98,-5.55 -23.55,-5.55c-16.24,0 -28.92,5.37 -38.04,16.11c-9.21,10.65 -13.799,25.4 -13.799,44.26c-0,18.95 4.589,33.84 13.799,44.67c9.12,10.74 21.8,16.11 38.04,16.11c13.81,0 25.22,-3.43 34.25,-10.29c9.38,-6.761 14.75,-15.66 16.111,-26.66l-53.761,0Z" style="fill:#626060;fill-rule:nonzero;"/><path d="M3305.41,2298.87l0,-198.18l56.45,0c10.92,0 20.12,0.23 27.61,0.69c7.59,0.44 13.81,1.21 18.69,2.3c8.39,1.98 15.88,5.41 22.46,10.29c7.229,5.41 12.68,12.36 16.38,20.839c3.889,8.121 5.83,17.331 5.83,27.611c0,15.25 -3.8,27.75 -11.38,37.5c-7.4,9.74 -18.36,16.11 -32.89,19.08l54.01,79.87l-61.051,0l-45.479,-77.57l0,77.57l-50.63,0Zm50.63,-104.5l10.02,0c11.82,0 20.34,-1.94 25.579,-5.82c5.321,-4.34 7.991,-10.61 7.991,-18.82c0,-9.921 -2.491,-16.97 -7.45,-21.12c-5.05,-4.24 -13.491,-6.36 -25.31,-6.36l-10.83,0l0,52.12Z" style="fill:#626060;fill-rule:nonzero;"/><path d="M3686.46,2200.19c0,14.35 -2.57,27.75 -7.71,40.2c-5.15,12.18 -12.82,23.29 -23.019,33.3c-10.101,9.75 -21.661,17.23 -34.651,22.47c-13.63,5.32 -27.12,7.99 -40.47,7.99c-13.54,0 -27.03,-2.67 -40.48,-7.99c-13.26,-5.32 -24.72,-12.81 -34.38,-22.47c-9.75,-9.29 -17.42,-20.48 -23.01,-33.57c-5.42,-12.81 -8.12,-26.13 -8.12,-39.93c-0,-13.81 2.7,-27.12 8.12,-39.93c5.59,-13.09 13.26,-24.28 23.01,-33.58c9.93,-9.92 21.39,-17.5 34.38,-22.73c12.64,-5.15 26.13,-7.72 40.48,-7.72c14.35,0 27.93,2.62 40.74,7.85c12.82,5.14 24.23,12.68 34.25,22.6c10.11,9.94 17.82,21.12 23.15,33.58c5.14,12.45 7.71,25.76 7.71,39.93m-105.85,58.2c14.89,0 27.34,-5.54 37.36,-16.65c4.96,-5.5 8.62,-11.68 10.96,-18.54c2.35,-6.86 3.52,-14.53 3.52,-23.01c-0,-16.52 -4.92,-30.37 -14.761,-41.56c-10.019,-11.1 -22.378,-16.65 -37.089,-16.65c-15.07,0 -27.48,5.55 -37.22,16.65c-9.75,11.1 -14.62,24.96 -14.62,41.56c-0,17.23 4.78,31.18 14.35,41.82c9.84,10.93 22.34,16.38 37.49,16.38l0.01,0Z" style="fill:#626060;fill-rule:nonzero;"/><path d="M3718.67,2100.69l54.15,0l-0,96.39c-0,14.7 0.36,24.9 1.09,30.59c0.901,6.77 2.12,11.91 3.651,15.43c1.899,5.14 5.459,8.93 10.699,11.37c5.23,2.8 11.551,4.19 18.95,4.19c7.31,0 13.58,-1.39 18.82,-4.19c4.77,-2.35 8.39,-6.14 10.82,-11.37c1.44,-3.61 2.62,-8.76 3.52,-15.43c0.81,-5.42 1.21,-15.62 1.21,-30.59l-0,-96.39l53.74,0l-0,104.78c-0,21.47 -1.31,37.45 -3.93,47.92c-2.43,10.37 -6.85,19.26 -13.26,26.66c-7.04,8.22 -16.38,14.21 -28.02,18.01c-11.549,4.06 -25.86,6.09 -42.91,6.09c-17.42,0 -31.76,-2.03 -43.04,-6.09c-11.47,-3.8 -20.81,-9.79 -28.02,-18.01c-6.23,-7.22 -10.659,-16.1 -13.27,-26.66c-2.8,-10.66 -4.2,-26.63 -4.2,-47.92l-0,-104.78Z" style="fill:#626060;fill-rule:nonzero;"/><path d="M3986.83,2298.87l-50.62,0l0,-198.18l56.44,0c21.93,0 37.5,1.09 46.7,3.26c9.03,2.34 16.56,6.04 22.61,11.1c7.22,6.04 12.77,13.53 16.65,22.46c3.88,9.12 5.82,19.27 5.82,30.46c0,11.92 -1.94,22.29 -5.82,31.14c-3.43,8.93 -8.98,16.33 -16.65,22.19c-5.51,4.34 -12.14,7.45 -19.9,9.34c-6.95,1.9 -19.041,2.85 -36.28,2.85l-18.95,0l0,65.38Zm0,-108.97l10.29,0c12.819,0 21.89,-1.85 27.21,-5.551c5.14,-3.429 7.72,-9.429 7.72,-18c0,-8.219 -2.54,-14.079 -7.59,-17.599c-4.96,-3.61 -13.9,-5.41 -26.8,-5.41l-10.83,0l0,46.56Z" style="fill:#626060;fill-rule:nonzero;"/><path d="M1431.16,4411.04c0,4.268 -0.75,8.787 -2.26,13.557c-1.51,4.771 -4.02,11.8 -7.53,21.089c-2.76,6.528 -6.28,15.942 -10.55,28.245c-11.04,32.386 -19.45,68.164 -25.23,107.328c-0.75,6.529 -1.5,13.558 -2.26,21.09c-0.75,7.531 -1.13,13.933 -1.13,19.207c0,3.013 0.94,5.9 2.83,8.66c1.88,2.762 2.82,4.521 2.82,5.273c0,1.506 -1.63,4.205 -4.89,8.096c-3.27,3.893 -6.91,7.471 -10.93,10.734c-4.01,3.264 -7.28,4.895 -9.79,4.895c-5.02,-0 -7.53,-2.133 -7.53,-6.403c0,-5.521 3.14,-24.416 9.42,-56.675c6.27,-32.262 11.54,-57.055 15.81,-74.377c-6.02,6.777 -11.42,12.051 -16.19,15.816c-4.77,3.766 -10.67,5.649 -17.7,5.649c-10.04,-0 -20.21,-7.971 -30.5,-23.914c-10.3,-15.942 -20.59,-35.086 -30.89,-57.43l-3.76,-7.531c-3.52,-7.282 -7.03,-13.559 -10.55,-18.83c-3.51,-5.272 -5.27,-8.286 -5.27,-9.04c0,-1.255 0.94,-2.195 2.83,-2.824c1.88,-0.627 3.95,-0.941 6.21,-0.941c8.29,-0 15.69,7.908 22.22,23.724c9.04,21.592 18.01,40.235 26.93,55.926c8.91,15.69 18.13,23.535 27.68,23.535c6.27,-0 11.79,-2.132 16.57,-6.4c4.77,-4.27 8.66,-9.289 11.67,-15.064c2.76,-5.272 6.09,-12.805 9.98,-22.596c3.89,-9.791 6.84,-17.826 8.85,-24.102c8.03,-24.101 12.43,-38.035 13.18,-41.802c1.26,-5.272 2.39,-8.975 3.39,-11.108c1,-2.135 2.64,-3.201 4.89,-3.201c2.77,-0 5.4,0.939 7.91,2.824c2.51,1.883 3.77,4.08 3.77,6.59" style="fill:#626060;fill-rule:nonzero;"/><path d="M1589.33,4556.78c1.76,0 2.63,1.883 2.63,5.648c0,4.52 -3.32,14.436 -9.98,29.75c-6.65,15.315 -16.69,29.5 -30.12,42.557c-13.43,13.055 -29.94,19.582 -49.52,19.582c-16.07,0 -29.5,-5.021 -40.3,-15.064c-10.8,-10.043 -16.19,-25.483 -16.19,-46.321c0,-19.584 4.52,-38.978 13.55,-58.183c9.04,-19.207 20.84,-34.899 35.4,-47.074c14.57,-12.176 29.63,-18.266 45.19,-18.266c9.29,0 17.14,2.072 23.54,6.215c6.4,4.142 9.6,10.103 9.6,17.886c0,8.788 -4.95,17.325 -14.87,25.61c-9.92,8.285 -22.78,15.564 -38.6,21.842c-15.82,6.277 -32.14,10.797 -48.96,13.556c-3.01,11.551 -4.52,22.848 -4.52,33.895c0,14.56 3.45,25.859 10.36,33.892c6.9,8.036 16.76,12.053 29.56,12.053c19.33,0 35.02,-6.904 47.08,-20.715c12.05,-13.806 22.09,-29.373 30.12,-46.695c0.5,-1.004 1.38,-2.951 2.64,-5.838c1.25,-2.889 2.38,-4.33 3.39,-4.33m-33.14,-59.125c0,-4.018 -2.07,-7.156 -6.22,-9.416c-4.14,-2.26 -8.97,-3.389 -14.49,-3.389c-9.54,0 -18.71,3.139 -27.5,9.414c-8.78,6.278 -16.13,13.809 -22.03,22.596c-5.9,8.787 -9.73,16.57 -11.48,23.35c11.55,-1.256 23.72,-4.52 36.53,-9.793c12.8,-5.272 23.53,-11.045 32.2,-17.323c8.66,-6.277 12.99,-11.423 12.99,-15.439" style="fill:#626060;fill-rule:nonzero;"/><path d="M1762.56,4628.71c0.25,1.758 1.26,3.578 3.01,5.461c1.76,1.883 2.64,3.453 2.64,4.707c0,3.014 -1.26,6.465 -3.77,10.357c-2.51,3.891 -5.02,5.838 -7.53,5.838c-4.27,-0 -7.53,-2.638 -9.79,-7.91c-2.26,-5.271 -3.39,-11.422 -3.39,-18.453c0,-6.025 0.38,-24.102 1.13,-54.229l0.38,-14.31c0,-5.775 -1.51,-9.918 -4.52,-12.428c-11.3,19.08 -21.84,35.651 -31.64,49.711c-9.79,14.059 -22.21,27.303 -37.28,39.729c-15.06,12.429 -30.88,18.642 -47.45,18.642c-8.03,-0 -14.25,-2.511 -18.64,-7.531c-4.39,-5.021 -6.59,-11.549 -6.59,-19.584c0,-10.041 4.52,-23.787 13.56,-41.236c9.04,-17.45 20.58,-35.149 34.64,-53.1c14.06,-17.951 28.12,-32.701 42.18,-44.25c9.29,-7.531 16.7,-12.615 22.22,-15.252c5.52,-2.635 10.42,-3.953 14.69,-3.953c4.02,-0 8.16,1.254 12.43,3.766c4.26,2.509 7.9,6.025 10.92,10.543c3.01,4.519 4.52,9.666 4.52,15.441c0,7.783 -2.14,15.189 -6.41,22.219l6.41,-1.883c2.76,-0 4.39,3.389 4.89,10.168c0.25,4.016 0.57,12.176 0.94,24.478c0.38,12.303 0.69,22.471 0.94,30.504c0.26,8.285 0.51,16.319 0.76,24.102c0.25,7.783 0.5,13.933 0.75,18.453m-132.94,6.779c13.56,-0 26.62,-5.021 39.17,-15.064c12.55,-10.041 23.79,-22.031 33.7,-35.965c9.92,-13.934 20.91,-31.068 32.96,-51.404c3.01,-7.532 4.52,-15.692 4.52,-24.479c0,-5.271 -1.57,-9.853 -4.71,-13.746c-3.14,-3.891 -7.35,-5.836 -12.62,-5.836c-6.27,-0 -14.31,4.268 -24.1,12.803c-11.3,9.541 -23.22,22.283 -35.78,38.224c-12.55,15.944 -22.97,31.698 -31.25,47.264c-8.29,15.565 -12.43,27.867 -12.43,36.904c0,7.534 3.51,11.299 10.54,11.299" style="fill:#626060;fill-rule:nonzero;"/><path d="M1919.98,4494.26c0,2.26 -1.57,4.832 -4.71,7.721c-3.14,2.886 -5.84,4.33 -8.1,4.33c-1.75,0 -3.45,-0.754 -5.08,-2.26c-1.63,-1.506 -3.45,-3.641 -5.46,-6.4c-1.76,-2.512 -4.08,-4.647 -6.97,-6.403c-2.89,-1.758 -5.84,-2.636 -8.85,-2.636c-7.28,0 -17.07,9.603 -29.37,28.808c-12.31,19.207 -24.36,43.371 -36.16,72.494c0.26,5.776 0.69,13.055 1.32,21.842c0.63,8.789 1.07,15.317 1.32,19.584l1.13,15.065c-0,3.513 -0.75,6.589 -2.26,9.224c-1.51,2.637 -4.27,3.955 -8.28,3.955c-4.27,0 -7.03,-5.711 -8.29,-17.135c-1.25,-11.423 -2.01,-28.056 -2.26,-49.898c-0.25,-5.523 -0.44,-13.432 -0.56,-23.725c-0.13,-10.295 -0.44,-22.595 -0.95,-36.906c-0.75,-21.592 -1.13,-37.033 -1.13,-46.322c-0,-5.774 3.52,-8.66 10.55,-8.66c4.27,0 6.84,1.818 7.72,5.461c0.88,3.638 1.32,10.605 1.32,20.9l0,59.877c7.53,-19.332 15.69,-36.027 24.48,-50.086c8.78,-14.059 17.38,-24.793 25.79,-32.199c8.41,-7.406 15.88,-11.11 22.41,-11.11c5.52,0 10.8,1.256 15.82,3.766c5.02,2.51 9.04,5.711 12.05,9.604c3.01,3.89 4.52,7.595 4.52,11.109" style="fill:#626060;fill-rule:nonzero;"/><path d="M2067.22,4600.09c-0,11.047 -4.45,21.654 -13.359,31.822c-8.921,10.168 -20.651,18.328 -35.221,24.479c-14.56,6.152 -29.75,9.226 -45.56,9.226c-10.799,-0 -18.08,-1.004 -21.85,-3.013c-3.76,-2.008 -5.64,-4.77 -5.64,-8.284c-0,-2.259 2.88,-6.214 8.66,-11.863c5.77,-5.648 9.66,-8.474 11.67,-8.474c3.01,-0 4.52,0.628 4.52,1.884c-0,1.004 -0.63,2.008 -1.88,3.012c-1.26,1.004 -1.89,1.883 -1.89,2.637c-0,1.004 1.571,2.008 4.71,3.013c3.14,1.004 6.97,1.506 11.49,1.506c10.54,-0 21.15,-1.945 31.82,-5.838c10.67,-3.89 19.39,-8.974 26.17,-15.252c6.78,-6.275 10.171,-12.929 10.171,-19.959c-0,-6.779 -2.131,-12.177 -6.401,-16.193c-4.27,-4.017 -9.599,-6.967 -16.01,-8.851c-6.4,-1.883 -17.129,-4.581 -32.19,-8.096c-16.57,-3.766 -29.439,-7.092 -38.61,-9.979c-9.16,-2.888 -16.5,-6.529 -22.03,-10.922c-5.52,-4.394 -8.28,-9.98 -8.28,-16.759c-0,-12.051 5.9,-23.096 17.7,-33.139c11.8,-10.043 25.36,-17.951 40.67,-23.725c15.32,-5.775 27.12,-8.662 35.401,-8.662c8.539,-0 12.799,2.51 12.799,7.532c-0,3.013 -1,6.339 -3.01,9.98c-2.01,3.639 -5.02,5.459 -9.039,5.459c-1.5,-0 -3.131,-0.564 -4.891,-1.693c-1.76,-1.131 -3.52,-1.696 -5.27,-1.696c-5.03,-0 -12.93,1.633 -23.73,4.897c-10.8,3.262 -20.59,8.158 -29.37,14.687c-8.79,6.526 -13.18,14.436 -13.18,23.725c-0,6.025 3.45,10.482 10.35,13.369c6.91,2.887 19.77,6.465 38.6,10.732c2.26,0.754 4.52,1.319 6.78,1.696c2.26,0.375 4.27,0.816 6.03,1.318c19.33,4.518 34.141,9.666 44.431,15.44c10.299,5.773 15.439,14.435 15.439,25.984" style="fill:#626060;fill-rule:nonzero;"/><path d="M2307.87,4574.85c0,9.793 -3.64,21.09 -10.92,33.895c-7.28,12.804 -17.58,23.789 -30.88,32.951c-13.31,9.164 -28.5,13.746 -45.57,13.746c-16.82,0 -29.25,-4.645 -37.28,-13.934c-8.04,-9.289 -12.06,-20.838 -12.06,-34.646c0,-12.051 2.2,-26.991 6.59,-44.815c4.4,-17.826 10.61,-33.767 18.65,-47.828c0.5,-1.004 2.57,-4.707 6.21,-11.109c3.64,-6.403 7.72,-11.297 12.24,-14.688c4.52,-3.388 9.29,-5.084 14.31,-5.084c2.26,0 4.33,0.567 6.21,1.696c1.89,1.13 2.83,2.574 2.83,4.332c0,0.502 -0.69,1.693 -2.07,3.576c-1.38,1.883 -2.45,3.326 -3.2,4.332c-8.54,10.293 -15.44,20.461 -20.72,30.504c-7.03,12.802 -12.49,25.482 -16.38,38.035c-3.89,12.553 -5.84,26.236 -5.84,41.049c0,19.834 12.05,29.75 36.16,29.75c11.29,0 21.78,-3.264 31.44,-9.791c9.67,-6.528 17.39,-14.498 23.16,-23.914c5.78,-9.414 8.66,-18.014 8.66,-25.795c0,-8.787 -2.88,-16.446 -8.66,-22.973c-5.77,-6.527 -13.68,-13.432 -23.72,-20.713c-6.53,-4.769 -11.3,-8.662 -14.31,-11.674c-3.02,-3.013 -4.52,-5.523 -4.52,-7.533c0,-3.012 2.13,-5.461 6.4,-7.344c4.27,-1.882 9.29,-2.824 15.06,-2.824c3.27,0 5.4,0.19 6.41,0.567c1,0.375 1.5,1.066 1.5,2.07c0,0.502 -0.44,1.318 -1.32,2.447c-0.87,1.131 -1.31,2.072 -1.31,2.824c0,0.754 2.51,3.264 7.53,7.534c10.04,8.285 18.45,16.695 25.23,25.23c6.78,8.537 10.17,18.578 10.17,30.127" style="fill:#626060;fill-rule:nonzero;"/><path d="M2473.19,4413.3c-0,3.012 -0.69,6.967 -2.07,11.863c-1.38,4.895 -2.95,7.342 -4.71,7.342c-1.75,-0 -3.07,-0.816 -3.95,-2.447c-0.88,-1.633 -1.7,-3.828 -2.45,-6.59c-2.76,-8.537 -6.97,-15.754 -12.61,-21.654c-5.65,-5.901 -11.74,-8.85 -18.27,-8.85c-17.57,-0 -30.19,11.863 -37.85,35.588c-7.65,23.725 -11.48,51.529 -11.48,83.414c7.53,-0.502 16,-1.693 25.42,-3.576c9.41,-1.883 15.63,-3.076 18.64,-3.578c17.82,-3.766 29.62,-5.649 35.4,-5.649c5.02,-0 7.53,2.26 7.53,6.778c-0,3.515 -0.75,7.281 -2.26,11.298c-1.51,4.018 -3.77,6.026 -6.78,6.026c-2.51,-0 -5.02,-0.502 -7.53,-1.506c-3.52,-1.508 -8.29,-2.26 -14.31,-2.26c-4.02,-0 -12.3,1.254 -24.86,3.766l-30.12,4.519c-0,6.276 0.75,23.725 2.26,52.346c2.51,44.186 3.76,79.461 3.76,105.822c-0,4.77 -0.5,8.098 -1.5,9.981c-1.01,1.883 -3.02,2.824 -6.03,2.824c-3.51,-0 -6.15,-2.008 -7.91,-6.025c-1.76,-4.018 -2.63,-8.536 -2.63,-13.559c-0,-28.871 -1.89,-74.187 -5.65,-135.949l-0.76,-12.051c-2.01,0.252 -8.47,1.381 -19.39,3.389c-10.92,2.009 -18.89,3.013 -23.91,3.013c-2.77,-0 -5.09,-0.627 -6.97,-1.882c-1.88,-1.256 -2.83,-3.139 -2.83,-5.649c-0,-6.277 2.26,-9.541 6.78,-9.793c6.53,-0.25 14.44,-0.816 23.73,-1.693c9.29,-0.879 16.44,-1.82 21.46,-2.826c-0,-41.174 5.59,-74.627 16.76,-100.362c11.17,-25.734 27.81,-38.601 49.9,-38.601c8.03,-0 15.5,2.01 22.41,6.027c6.9,4.016 12.43,8.912 16.57,14.686c4.14,5.775 6.21,11.048 6.21,15.818" style="fill:#626060;fill-rule:nonzero;"/><path d="M2754.51,4412.54c-0,3.012 -2.14,5.65 -6.41,7.908c-6.77,3.766 -17.38,7.783 -31.819,12.051c-14.431,4.268 -26.3,7.281 -35.591,9.039c-14.56,2.762 -29.18,4.959 -43.869,6.59c-14.691,1.633 -24.161,2.574 -28.431,2.824c0.25,14.563 0.63,29.563 1.13,45.004c0.5,15.439 0.881,26.047 1.131,31.822c9.789,-1.256 24.479,-3.64 44.059,-7.156l14.31,-2.26c15.82,-2.761 27.99,-7.783 36.53,-15.062c4.521,-3.516 7.78,-5.274 9.79,-5.274c1.76,-0 3.2,0.942 4.33,2.825c1.13,1.884 1.7,3.828 1.7,5.837c-0,4.52 -5.089,9.479 -15.259,14.875c-10.161,5.399 -21.401,9.352 -33.701,11.864c-10.29,2.259 -21.839,4.394 -34.65,6.402c-12.8,2.008 -21.21,3.264 -25.229,3.766c1.509,42.931 5.899,74.816 13.179,95.654c7.28,2.51 14.441,4.33 21.47,5.461c7.03,1.129 16.07,1.695 27.11,1.695c11.05,-0 21.59,-1.445 31.64,-4.332c10.04,-2.887 18.141,-6.465 24.29,-10.732c6.15,-4.268 9.22,-8.285 9.22,-12.051c-0,-2.008 -0.369,-3.955 -1.129,-5.838c-0.75,-1.883 -1.75,-3.828 -3.011,-5.836c-0.5,-0.754 -1.319,-1.947 -2.45,-3.578c-1.13,-1.633 -1.69,-2.951 -1.69,-3.955c-0,-2.51 2.76,-3.766 8.28,-3.766c4.02,-0 7.47,1.696 10.36,5.084c2.89,3.389 4.33,7.094 4.33,11.11c-0,8.035 -3.58,15.943 -10.729,23.726c-7.161,7.782 -16.951,14.121 -29.381,19.018c-12.42,4.896 -26.17,7.342 -41.23,7.342c-15.32,-0 -27.87,-0.815 -37.66,-2.446c-9.79,-1.632 -17.2,-4.834 -22.22,-9.605c-6.03,-6.777 -10.23,-18.578 -12.62,-35.399c-2.38,-16.82 -4.45,-39.291 -6.21,-67.41c-4.769,1.256 -10.11,2.323 -16.009,3.201c-5.901,0.879 -10.351,1.319 -13.371,1.319c-3.01,-0 -5.46,-0.942 -7.339,-2.826c-1.881,-1.883 -2.821,-4.205 -2.821,-6.967c-0,-1.756 0.31,-3.264 0.94,-4.518c0.62,-1.256 1.57,-2.008 2.82,-2.26c8.29,-1.005 14.311,-1.632 18.08,-1.882l16.191,-1.883c-1,-32.387 -2.01,-58.75 -3.01,-79.086c-3.771,-0 -6.78,0.127 -9.041,0.377l-17.32,0.377c-2.26,-0 -4.02,-0.627 -5.27,-1.883c-1.26,-1.256 -1.89,-2.637 -1.89,-4.143c-0,-6.025 4.02,-10.043 12.05,-12.05c3.021,-0.502 6.84,-1.067 11.49,-1.696c4.64,-0.627 7.72,-0.941 9.231,-0.941c4.769,-5.272 10.039,-7.908 15.809,-7.908c1.01,-0 1.82,0.816 2.451,2.447c0.629,1.633 0.939,2.826 0.939,3.578c16.57,-0.752 36.28,-2.635 59.13,-5.648c15.06,-2.01 38.28,-6.78 69.671,-14.311l13.929,-3.012c2.51,-0 3.77,1.506 3.77,4.518" style="fill:#626060;fill-rule:nonzero;"/><path d="M2890.46,4612.89c0,3.264 -1.13,8.16 -3.39,14.688c-2.259,6.527 -4.9,12.365 -7.91,17.511c-3.01,5.147 -5.9,7.719 -8.66,7.719c-5.019,0 -11.87,-6.213 -20.53,-18.641c-8.659,-12.427 -19.52,-29.31 -32.57,-50.652l-4.52,-7.531c-5.02,9.037 -9.1,16.633 -12.24,22.783c-3.14,6.152 -6.21,12.992 -9.23,20.525c-5.02,12.051 -7.53,19.205 -7.53,21.465c0,3.516 1.76,5.274 5.27,5.274c0.76,0 2.01,-0.627 3.77,-1.885c1.76,-1.254 3.01,-1.883 3.769,-1.883c1.25,0 2.381,0.377 3.381,1.131c1.01,0.752 1.51,1.633 1.51,2.637c0,1.505 -1.88,4.015 -5.65,7.531c-3.76,3.516 -7.97,6.652 -12.61,9.414c-4.65,2.764 -8.35,4.143 -11.11,4.144c-2.01,-0.001 -3.771,-1.695 -5.28,-5.085c-1.5,-3.389 -2.26,-6.965 -2.26,-10.733c0,-6.777 2.83,-16.256 8.48,-28.432c5.65,-12.177 14.12,-29.062 25.42,-50.652l6.02,-10.922c-5.02,-10.795 -11.73,-24.416 -20.14,-40.859c-8.41,-16.445 -15.88,-29.94 -22.41,-40.485c-3.77,-6.527 -5.65,-12.802 -5.65,-18.83c0,-2.509 0.31,-4.267 0.94,-5.271c0.63,-1.004 1.57,-1.506 2.83,-1.506c2.26,0 4.64,1.191 7.151,3.576c2.509,2.385 5.519,6.592 9.039,12.617c11.3,18.077 23.98,42.303 38.03,72.682c1.01,-1.758 3.9,-6.777 8.67,-15.062c7.78,-14.061 15.44,-26.991 22.97,-38.789c5.27,-7.534 9.35,-12.553 12.24,-15.065c2.89,-2.512 6.96,-3.766 12.24,-3.766c7.28,0 10.92,2.008 10.92,6.026c0,1.004 -0.38,1.82 -1.13,2.447c-0.75,0.627 -2.45,1.631 -5.09,3.014c-2.63,1.381 -5.33,3.451 -8.09,6.213c-4.27,4.267 -10.921,13.369 -19.96,27.302c-9.04,13.934 -17.58,28.307 -25.61,43.121c5.521,10.543 11.99,21.151 19.39,31.823c7.41,10.67 14.06,19.457 19.96,26.359c5.9,6.906 9.61,10.358 11.11,10.358c3.52,0 6.41,-3.264 8.67,-9.791c0.5,-1.758 1.19,-3.641 2.07,-5.651c0.88,-2.008 1.94,-3.012 3.199,-3.012c3.011,0 4.521,1.381 4.521,4.143" style="fill:#626060;fill-rule:nonzero;"/><path d="M3012.47,4569.96c-0,1.506 -2.569,6.152 -7.72,13.934c-5.139,7.783 -10.349,14.812 -15.63,21.089c-13.049,15.817 -24.79,27.993 -35.21,36.53c-10.419,8.535 -21.27,12.804 -32.57,12.804c-9.54,-0 -17.39,-4.142 -23.54,-12.427c-6.149,-8.285 -9.229,-17.826 -9.229,-28.621c-0,-16.069 4.269,-36.405 12.809,-61.008c8.53,-24.604 19.33,-45.946 32.38,-64.022c13.061,-18.076 26.12,-27.115 39.17,-27.115c5.52,-0 10.29,2.01 14.311,6.027c2.259,2.258 4.389,5.272 6.399,9.038c2.011,3.765 3.02,7.154 3.02,10.167c-0,4.268 -0.57,9.227 -1.7,14.875c-1.13,5.649 -2.32,8.475 -3.58,8.475c-2.51,-0 -4.139,-1.381 -4.889,-4.144c-0.76,-2.762 -1.26,-6.276 -1.51,-10.543c-0.75,-6.528 -1.5,-10.86 -2.261,-12.993c-0.75,-2.134 -1.88,-3.201 -3.39,-3.201c-11.799,-0 -23.219,8.221 -34.269,24.666c-11.041,16.444 -20.08,35.526 -27.111,57.242c-7.03,21.717 -10.549,38.475 -10.549,50.276c-0,16.57 5.529,24.855 16.569,24.855c8.04,-0 15.38,-2.009 22.03,-6.025c6.66,-4.018 13.62,-9.666 20.901,-16.947c13.559,-13.809 24.109,-25.735 31.639,-35.776c0.5,-0.754 1.941,-2.699 4.33,-5.838c2.38,-3.138 4.08,-4.707 5.08,-4.707c3.02,-0 4.52,1.129 4.52,3.389" style="fill:#626060;fill-rule:nonzero;"/><path d="M3165.37,4556.78c1.76,0 2.64,1.883 2.64,5.648c0,4.52 -3.33,14.436 -9.98,29.75c-6.66,15.315 -16.7,29.5 -30.13,42.557c-13.43,13.055 -29.94,19.582 -49.52,19.582c-16.07,0 -29.5,-5.021 -40.3,-15.064c-10.79,-10.043 -16.19,-25.483 -16.19,-46.321c0,-19.584 4.52,-38.978 13.549,-58.183c9.041,-19.207 20.841,-34.899 35.401,-47.074c14.57,-12.176 29.63,-18.266 45.2,-18.266c9.29,0 17.13,2.072 23.53,6.215c6.4,4.142 9.61,10.103 9.61,17.886c0,8.788 -4.96,17.325 -14.88,25.61c-9.92,8.285 -22.781,15.564 -38.6,21.842c-15.82,6.277 -32.14,10.797 -48.96,13.556c-3.01,11.551 -4.52,22.848 -4.52,33.895c0,14.56 3.46,25.859 10.36,33.892c6.9,8.036 16.76,12.053 29.56,12.053c19.33,0 35.03,-6.904 47.08,-20.715c12.049,-13.806 22.09,-29.373 30.12,-46.695c0.509,-1.004 1.38,-2.951 2.64,-5.838c1.26,-2.889 2.39,-4.33 3.39,-4.33m-33.14,-59.125c0,-4.018 -2.07,-7.156 -6.211,-9.416c-4.149,-2.26 -8.979,-3.389 -14.5,-3.389c-9.539,0 -18.709,3.139 -27.489,9.414c-8.79,6.278 -16.14,13.809 -22.04,22.596c-5.9,8.787 -9.721,16.57 -11.48,23.35c11.55,-1.256 23.72,-4.52 36.53,-9.793c12.8,-5.272 23.54,-11.045 32.2,-17.323c8.66,-6.277 12.99,-11.423 12.99,-15.439" style="fill:#626060;fill-rule:nonzero;"/><path d="M3219.22,4642.64c-0,2.512 -1.63,4.52 -4.89,6.025c-3.269,1.508 -6.91,2.26 -10.92,2.26c-3.02,0 -5.839,-3.578 -8.48,-10.732c-2.63,-7.155 -3.949,-18.014 -3.949,-32.574c0.25,-28.372 0.689,-62.641 1.319,-102.811c0.62,-40.17 1.191,-70.424 1.691,-90.76c0.25,-7.281 1.57,-14.058 3.949,-20.336c2.39,-6.275 6.6,-9.414 12.621,-9.414c2.01,0 3.329,1.067 3.949,3.201c0.63,2.133 0.95,6.213 0.95,12.241c-0,0.25 -0.07,1.066 -0.19,2.445c-0.13,1.383 -0.19,3.83 -0.19,7.346c-4.519,66.027 -6.78,130.425 -6.78,193.191c-0,8.033 1.82,16.57 5.46,25.607c3.641,9.04 5.46,13.809 5.46,14.311" style="fill:#626060;fill-rule:nonzero;"/><path d="M3279.48,4642.64c-0.001,2.512 -1.631,4.52 -4.901,6.025c-3.26,1.508 -6.901,2.26 -10.92,2.26c-3.01,0 -5.84,-3.578 -8.471,-10.732c-2.64,-7.155 -3.959,-18.014 -3.959,-32.574c0.25,-28.372 0.689,-62.641 1.319,-102.811c0.63,-40.17 1.191,-70.424 1.701,-90.76c0.25,-7.281 1.56,-14.058 3.95,-20.336c2.38,-6.275 6.59,-9.414 12.62,-9.414c2.001,0 3.32,1.067 3.95,3.201c0.631,2.133 0.939,6.213 0.939,12.241c0.001,0.25 -0.058,1.066 -0.189,2.445c-0.119,1.383 -0.189,3.83 -0.189,7.346c-4.51,66.027 -6.771,130.425 -6.771,193.191c0.001,8.033 1.82,16.57 5.46,25.607c3.64,9.04 5.461,13.809 5.461,14.311" style="fill:#626060;fill-rule:nonzero;"/><path d="M3445.55,4556.78c1.761,0 2.64,1.883 2.64,5.648c-0,4.52 -3.329,14.436 -9.98,29.75c-6.649,15.315 -16.69,29.5 -30.13,42.557c-13.429,13.055 -29.94,19.582 -49.519,19.582c-16.071,0 -29.5,-5.021 -40.291,-15.064c-10.8,-10.043 -16.199,-25.483 -16.199,-46.321c-0,-19.584 4.519,-38.978 13.559,-58.183c9.04,-19.207 20.84,-34.899 35.4,-47.074c14.56,-12.176 29.63,-18.266 45.19,-18.266c9.29,0 17.141,2.072 23.54,6.215c6.4,4.142 9.601,10.103 9.601,17.886c-0,8.788 -4.96,17.325 -14.871,25.61c-9.919,8.285 -22.79,15.564 -38.61,21.842c-15.809,6.277 -32.13,10.797 -48.95,13.556c-3.01,11.551 -4.52,22.848 -4.52,33.895c-0,14.56 3.451,25.859 10.35,33.892c6.91,8.036 16.76,12.053 29.57,12.053c19.33,0 35.02,-6.904 47.071,-20.715c12.049,-13.806 22.099,-29.373 30.129,-46.695c0.5,-1.004 1.38,-2.951 2.64,-5.838c1.25,-2.889 2.38,-4.33 3.38,-4.33m-33.14,-59.125c-0,-4.018 -2.07,-7.156 -6.21,-9.416c-4.139,-2.26 -8.969,-3.389 -14.5,-3.389c-9.54,0 -18.7,3.139 -27.49,9.414c-8.79,6.278 -16.13,13.809 -22.03,22.596c-5.9,8.787 -9.73,16.57 -11.49,23.35c11.55,-1.256 23.73,-4.52 36.53,-9.793c12.81,-5.272 23.54,-11.045 32.2,-17.323c8.66,-6.277 12.99,-11.423 12.99,-15.439" style="fill:#626060;fill-rule:nonzero;"/><path d="M3592.05,4655.44c-0,3.014 -1.26,5.586 -3.77,7.721c-2.51,2.133 -5.52,3.201 -9.04,3.201c-2.509,0 -4.64,-0.567 -6.4,-1.695c-1.75,-1.129 -2.63,-2.7 -2.63,-4.707c-0,-10.293 0.75,-26.237 2.26,-47.829c1.5,-23.097 2.261,-42.302 2.261,-57.619c-0,-14.81 -0.441,-26.926 -1.321,-36.34c-0.88,-9.416 -2.95,-14.123 -6.22,-14.123c-8.53,0 -17.879,10.608 -28.05,31.823c-10.17,21.214 -21.779,49.144 -34.84,83.793l-5.649,15.064c-1,2.51 -2.691,4.518 -5.08,6.023c-2.381,1.506 -4.831,2.26 -7.34,2.26c-3.021,0 -5.021,-0.252 -6.031,-0.754c-1,-0.502 -1.629,-2.007 -1.879,-4.517l-3.01,-30.881l-5.651,-54.231c-1.759,-21.589 -3.9,-40.419 -6.41,-56.488c-0.75,-3.765 -1.13,-6.652 -1.13,-8.66c-0,-3.768 1.64,-6.844 4.9,-9.229c3.26,-2.384 7.03,-3.576 11.301,-3.576c2.509,0 4.33,6.026 5.459,18.076c1.13,12.051 2.32,31.508 3.581,58.372l1.5,19.959c2.009,25.359 3.139,41.425 3.389,48.205c0.76,-1.506 1.45,-3.202 2.071,-5.084c0.629,-1.883 1.449,-3.955 2.449,-6.215c13.56,-35.149 26.301,-64.459 38.23,-87.934c11.92,-23.474 23.41,-35.211 34.45,-35.211c7.79,0 13.121,6.59 16.01,19.772c2.89,13.179 4.71,30.062 5.46,50.65c0.75,22.848 1.13,56.238 1.13,100.174" style="fill:#626060;fill-rule:nonzero;"/><path d="M3735.15,4569.96c0,1.506 -2.57,6.152 -7.721,13.934c-5.139,7.783 -10.349,14.812 -15.619,21.089c-13.06,15.817 -24.801,27.993 -35.221,36.53c-10.41,8.535 -21.269,12.804 -32.57,12.804c-9.539,-0 -17.39,-4.142 -23.539,-12.427c-6.15,-8.285 -9.221,-17.826 -9.221,-28.621c0,-16.069 4.26,-36.405 12.801,-61.008c8.539,-24.604 19.329,-45.946 32.39,-64.022c13.05,-18.076 26.11,-27.115 39.16,-27.115c5.529,-0 10.3,2.01 14.31,6.027c2.259,2.258 4.4,5.272 6.4,9.038c2.01,3.765 3.019,7.154 3.019,10.167c0,4.268 -0.57,9.227 -1.7,14.875c-1.13,5.649 -2.319,8.475 -3.569,8.475c-2.521,-0 -4.15,-1.381 -4.9,-4.144c-0.75,-2.762 -1.26,-6.276 -1.51,-10.543c-0.75,-6.528 -1.5,-10.86 -2.26,-12.993c-0.75,-2.134 -1.881,-3.201 -3.391,-3.201c-11.799,-0 -23.219,8.221 -34.269,24.666c-11.04,16.444 -20.08,35.526 -27.111,57.242c-7.03,21.717 -10.54,38.475 -10.54,50.276c0,16.57 5.521,24.855 16.571,24.855c8.029,-0 15.37,-2.009 22.029,-6.025c6.65,-4.018 13.621,-9.666 20.9,-16.947c13.55,-13.809 24.1,-25.735 31.63,-35.776c0.5,-0.754 1.951,-2.699 4.33,-5.838c2.39,-3.138 4.08,-4.707 5.09,-4.707c3.011,-0 4.511,1.129 4.511,3.389" style="fill:#626060;fill-rule:nonzero;"/><path d="M3888.05,4556.78c1.761,0 2.64,1.883 2.64,5.648c-0,4.52 -3.329,14.436 -9.98,29.75c-6.66,15.315 -16.7,29.5 -30.13,42.557c-13.429,13.055 -29.94,19.582 -49.519,19.582c-16.071,0 -29.5,-5.021 -40.301,-15.064c-10.79,-10.043 -16.189,-25.483 -16.189,-46.321c-0,-19.584 4.519,-38.978 13.559,-58.183c9.03,-19.207 20.83,-34.899 35.4,-47.074c14.56,-12.176 29.621,-18.266 45.19,-18.266c9.29,0 17.13,2.072 23.53,6.215c6.41,4.142 9.611,10.103 9.611,17.886c-0,8.788 -4.96,17.325 -14.88,25.61c-9.91,8.285 -22.781,15.564 -38.601,21.842c-15.819,6.277 -32.13,10.797 -48.96,13.556c-3.01,11.551 -4.51,22.848 -4.51,33.895c-0,14.56 3.451,25.859 10.35,33.892c6.91,8.036 16.76,12.053 29.561,12.053c19.339,0 35.029,-6.904 47.08,-20.715c12.049,-13.806 22.089,-29.373 30.129,-46.695c0.5,-1.004 1.38,-2.951 2.63,-5.838c1.26,-2.889 2.39,-4.33 3.39,-4.33m-33.14,-59.125c-0,-4.018 -2.07,-7.156 -6.21,-9.416c-4.15,-2.26 -8.98,-3.389 -14.5,-3.389c-9.54,0 -18.71,3.139 -27.49,9.414c-8.79,6.278 -16.13,13.809 -22.03,22.596c-5.9,8.787 -9.73,16.57 -11.49,23.35c11.55,-1.256 23.73,-4.52 36.53,-9.793c12.8,-5.272 23.54,-11.045 32.2,-17.323c8.66,-6.277 12.99,-11.423 12.99,-15.439" style="fill:#626060;fill-rule:nonzero;"/><path d="M854.811,3085.9l-107.606,56.83l-18.413,-34.861c-6.977,-13.219 -10.987,-22.11 -12.029,-26.69c-1.642,-7.019 -0.857,-14.041 2.354,-21.05c3.21,-7.02 9.097,-12.79 17.661,-17.309c6.606,-3.49 12.793,-5.221 18.561,-5.201c5.768,0.019 10.913,1.201 15.433,3.531c4.52,2.34 8.204,5.199 11.051,8.58c3.767,4.639 8.248,11.879 13.442,21.719l7.481,14.16l40.591,-21.43l11.474,21.721Zm-100.877,25.488l30.535,-16.119l-6.279,-11.9c-4.523,-8.561 -8.109,-13.99 -10.759,-16.28c-2.65,-2.291 -5.607,-3.63 -8.871,-4c-3.263,-0.371 -6.485,0.28 -9.666,1.959c-3.915,2.071 -6.537,4.92 -7.867,8.571c-1.33,3.64 -1.383,7.39 -0.158,11.25c0.88,2.849 3.388,8.201 7.522,16.019l5.543,10.5Z" style="fill:#626060;fill-rule:nonzero;"/><path d="M741.061,2958.55l-18.663,8.49l-21.926,-48.209l44.127,-20.07c6.664,2.619 13.743,7.59 21.238,14.92c7.494,7.32 13.315,15.539 17.462,24.65c5.269,11.59 7.433,22.789 6.489,33.619c-0.943,10.821 -4.95,20.461 -12.022,28.901c-7.071,8.449 -15.921,15.09 -26.55,19.92c-11.535,5.25 -22.886,7.49 -34.052,6.74c-11.166,-0.76 -21.261,-4.711 -30.285,-11.85c-6.907,-5.429 -12.767,-13.441 -17.578,-24.021c-6.255,-13.75 -8.257,-25.799 -6.006,-36.158c2.251,-10.352 7.96,-18.952 17.127,-25.801l14.259,20.33c-4.73,4.029 -7.689,8.92 -8.879,14.66c-1.189,5.74 -0.317,11.83 2.615,18.279c4.445,9.77 11.077,16.131 19.896,19.08c8.819,2.952 19.324,1.651 31.514,-3.89c13.148,-5.979 21.679,-13.389 25.595,-22.219c3.916,-8.83 3.72,-17.99 -0.587,-27.461c-2.131,-4.68 -5.186,-8.959 -9.167,-12.83c-3.981,-3.879 -8.049,-6.91 -12.203,-9.09l-14.054,6.391l11.65,25.619Z" style="fill:#626060;fill-rule:nonzero;"/><path d="M744.368,2851.49l-94.343,36.35l12.981,33.689l-19.209,7.4l-34.767,-90.23l19.209,-7.41l12.952,33.621l94.344,-36.352l8.833,22.932Z" style="fill:#626060;fill-rule:nonzero;"/><path d="M631.937,2771.22l-22.826,-74.959l74.962,-22.83l22.825,74.959l-74.961,22.83Zm4.197,-7.869l62.891,-19.151l-19.15,-62.89l-62.891,19.15l19.15,62.891Z" style="fill:#626060;fill-rule:nonzero;"/><path d="M549.985,2643.26l-9.667,-43.859c-2.18,-9.891 -3.085,-17.592 -2.715,-23.112c0.517,-7.43 2.848,-14.199 6.994,-20.329c4.147,-6.13 9.73,-11.321 16.751,-15.59c7.021,-4.271 16.098,-7.63 27.231,-10.079c9.781,-2.16 18.479,-2.8 26.095,-1.931c9.302,1.061 17.235,3.761 23.8,8.101c4.97,3.269 9.371,8.189 13.201,14.769c2.843,4.921 5.241,11.821 7.194,20.681l9.952,45.149l-118.836,26.201Zm14.814,-28.43l78.711,-17.349l-3.948,-17.91c-1.478,-6.702 -2.922,-11.462 -4.334,-14.262c-1.83,-3.679 -4.19,-6.54 -7.08,-8.599c-2.889,-2.05 -7.174,-3.31 -12.855,-3.75c-5.68,-0.45 -13.114,0.34 -22.301,2.36c-9.187,2.029 -16.061,4.39 -20.621,7.1c-4.56,2.7 -7.897,5.82 -10.01,9.34c-2.113,3.529 -3.161,7.641 -3.145,12.34c-0.018,3.519 1.051,10.17 3.207,19.949l2.376,10.781Z" style="fill:#626060;fill-rule:nonzero;"/><path d="M641.214,2486.66l-116.139,46.52l-3.675,-24.88l80.012,-30.361l-85.942,-9.8l-4.268,-28.899l80.971,-33.53l-86.817,-6.05l-3.614,-24.48l124.701,11.459l3.808,25.781l-86.459,37.269l93.529,10.611l3.893,26.36Z" style="fill:#626060;fill-rule:nonzero;"/><path d="M499.766,2339.44l121.134,-11.61l2.344,24.46l-121.134,11.61l-2.344,-24.46Z" style="fill:#626060;"/><path d="M538.02,2274.11l-3.044,-78.3l78.3,-3.05l3.044,78.3l-78.3,3.05Zm6.059,-6.55l65.692,-2.56l-2.554,-65.69l-65.692,2.56l2.554,65.69Z" style="fill:#626060;fill-rule:nonzero;"/><path d="M612.571,2135.01l-121.582,-5.09l1.539,-36.74l83.86,-18.59l-82.021,-25.29l1.543,-36.82l121.582,5.1l-0.955,22.8l-95.707,-4.01l94.695,28.15l-0.99,23.63l-96.715,20.04l95.707,4.01l-0.956,22.81Z" style="fill:#626060;fill-rule:nonzero;"/><path d="M500.6,1965.49l121.219,10.68l-2.157,24.48l-121.219,-10.68l2.157,-24.48Z" style="fill:#626060;"/><path d="M550.104,1908.43l11.308,-77.54l77.539,11.311l-11.308,77.54l-77.539,-11.311Zm7.153,-5.33l65.054,9.49l9.487,-65.059l-65.054,-9.481l-9.487,65.05Z" style="fill:#626060;fill-rule:nonzero;"/><path d="M649.111,1784.5l-118.609,-27.21l5.494,-23.94l52.67,12.08l-41.572,-60.47l7.386,-32.2l35.953,55.26l83.213,-30.48l-7.108,30.99l-63.143,19.84l15.368,23.96l35.842,8.22l-5.494,23.95Z" style="fill:#626060;fill-rule:nonzero;"/><path d="M558.415,1637.83l12.607,-43.1c2.843,-9.72 5.754,-16.91 8.732,-21.58c4.023,-6.26 9.325,-11.08 15.906,-14.46c6.581,-3.381 13.976,-5.25 22.184,-5.62c8.208,-0.36 17.783,1.05 28.724,4.25c9.613,2.81 17.549,6.43 23.808,10.86c7.644,5.41 13.302,11.59 16.976,18.54c2.787,5.26 4.279,11.69 4.474,19.3c0.124,5.69 -1.088,12.89 -3.635,21.6l-12.98,44.37l-116.796,-34.16Zm26.656,-17.8l77.359,22.62l5.15,-17.6c1.926,-6.59 2.945,-11.45 3.056,-14.59c0.162,-4.1 -0.529,-7.75 -2.075,-10.94c-1.546,-3.19 -4.702,-6.35 -9.467,-9.47c-4.766,-3.13 -11.663,-6.01 -20.693,-8.65c-9.029,-2.64 -16.193,-3.87 -21.493,-3.69c-5.299,0.18 -9.722,1.3 -13.27,3.38c-3.548,2.08 -6.444,5.18 -8.69,9.31c-1.707,3.07 -3.966,9.42 -6.778,19.03l-3.099,10.6Z" style="fill:#626060;fill-rule:nonzero;"/><path d="M601.081,1499.59l115.321,38.861l-7.848,23.289l-115.321,-38.86l7.848,-23.29Z" style="fill:#626060;"/><path d="M662.645,1455.67l29.221,-72.71l72.707,29.22l-29.221,72.71l-72.707,-29.22Zm8.206,-3.5l61,24.51l24.516,-61l-61,-24.51l-24.516,61Z" style="fill:#626060;fill-rule:nonzero;"/><path d="M787.64,1359.02l-108.822,-54.47l16.457,-32.88l84.113,17.4l-64.461,-56.67l16.495,-32.96l108.822,54.46l-10.216,20.42l-85.662,-42.87l74.851,64.47l-10.587,21.16l-96.436,-21.35l85.662,42.87l-10.216,20.42Z" style="fill:#626060;fill-rule:nonzero;"/><path d="M754.863,1158.66l106.209,59.401l-11.996,21.449l-106.209,-59.401l11.996,-21.449Z" style="fill:#626060;"/><path d="M868.447,1203.47l-103.397,-64.16l19.39,-31.25l82.173,25.01l-59.019,-62.32l19.435,-31.31l103.397,64.16l-12.037,19.4l-81.392,-50.509l68.655,71.029l-12.476,20.1l-94.084,-30.05l81.392,50.51l-12.037,19.39Z" style="fill:#626060;fill-rule:nonzero;"/><path d="M900.528,1009.59l46.547,-63.03l63.035,46.54l-46.546,63.04l-63.036,-46.55Zm8.822,-1.33l52.887,39.06l39.053,-52.89l-52.887,-39.05l-39.053,52.88Z" style="fill:#626060;fill-rule:nonzero;"/><path d="M1045.61,947.609l-91.801,-79.88l24.138,-27.74l77.113,37.83l-48.29,-70.96l24.19,-27.8l91.81,79.87l-14.99,17.23l-72.26,-62.88l56.41,81.1l-15.53,17.84l-88.069,-44.71l72.269,62.87l-14.99,17.23Z" style="fill:#626060;fill-rule:nonzero;"/><path d="M1063.93,745.229l88.109,83.939l-16.949,17.791l-88.109,-83.939l16.949,-17.791Z" style="fill:#626060;"/><path d="M1078.53,729.399l32.27,-31.22c7.28,-7.04 13.37,-11.85 18.27,-14.43c6.59,-3.45 13.58,-5.02 20.97,-4.7c7.39,0.32 14.75,2.35 22.06,6.09c7.32,3.74 14.94,9.71 22.86,17.9c6.97,7.2 12.08,14.27 15.33,21.21c3.96,8.48 5.83,16.65 5.58,24.51c-0.18,5.95 -2.06,12.28 -5.66,18.99c-2.701,5 -7.32,10.66 -13.84,16.97l-33.23,32.15l-84.61,-87.47Zm31.97,-2.28l56.04,57.93l13.19,-12.76c4.93,-4.77 8.22,-8.49 9.87,-11.17c2.17,-3.48 3.369,-6.99 3.61,-10.53c0.23,-3.54 -0.951,-7.84 -3.55,-12.92c-2.59,-5.07 -7.16,-10.98 -13.7,-17.75c-6.54,-6.76 -12.16,-11.37 -16.86,-13.84c-4.69,-2.46 -9.091,-3.67 -13.2,-3.62c-4.11,0.05 -8.16,1.31 -12.16,3.79c-3,1.83 -8.1,6.23 -15.3,13.19l-7.94,7.68Z" style="fill:#626060;fill-rule:nonzero;"/><path d="M1226.72,649.989l60.16,-50.2l50.21,60.16l-60.17,50.21l-50.2,-60.17Zm8.89,0.8l42.12,50.48l50.47,-42.12l-42.12,-50.48l-50.47,42.12Z" style="fill:#626060;fill-rule:nonzero;"/><path d="M1383.08,624.009l-70.92,-98.89l32.04,-22.98c12.15,-8.71 20.42,-13.89 24.81,-15.54c6.73,-2.58 13.79,-2.76 21.18,-0.53c7.38,2.23 13.9,7.28 19.54,15.15c4.36,6.07 6.91,11.96 7.68,17.68c0.76,5.72 0.29,10.97 -1.41,15.77c-1.7,4.8 -4.03,8.83 -6.99,12.11c-4.09,4.37 -10.66,9.79 -19.7,16.27l-13.02,9.34l26.76,37.3l-19.97,14.32Zm-38.95,-96.48l20.12,28.06l10.93,-7.84c7.87,-5.64 12.76,-9.93 14.67,-12.87c1.91,-2.93 2.83,-6.04 2.76,-9.33c-0.08,-3.28 -1.16,-6.39 -3.26,-9.31c-2.58,-3.6 -5.76,-5.81 -9.55,-6.63c-3.79,-0.82 -7.52,-0.37 -11.18,1.37c-2.7,1.26 -7.65,4.47 -14.85,9.63l-9.64,6.92Z" style="fill:#626060;fill-rule:nonzero;"/><path d="M1493.69,493.969l-10.98,-17.32l44.73,-28.35l25.95,40.94c-1.68,6.96 -5.63,14.66 -11.85,23.09c-6.22,8.43 -13.56,15.33 -22.02,20.69c-10.75,6.81 -21.55,10.5 -32.4,11.05c-10.85,0.56 -20.95,-2.09 -30.29,-7.93c-9.33,-5.84 -17.13,-13.69 -23.38,-23.56c-6.78,-10.7 -10.57,-21.63 -11.35,-32.8c-0.79,-11.16 1.73,-21.7 7.57,-31.62c4.43,-7.59 11.55,-14.5 21.36,-20.72c12.76,-8.09 24.43,-11.73 34.99,-10.92c10.57,0.8 19.87,5.27 27.92,13.41l-18.17,16.92c-4.65,-4.13 -9.9,-6.39 -15.75,-6.78c-5.85,-0.38 -11.76,1.32 -17.74,5.11c-9.07,5.75 -14.46,13.19 -16.17,22.33c-1.71,9.14 1.02,19.37 8.19,30.68c7.73,12.2 16.24,19.63 25.53,22.29c9.29,2.67 18.33,1.22 27.12,-4.35c4.34,-2.76 8.16,-6.37 11.45,-10.85c3.29,-4.48 5.73,-8.92 7.32,-13.34l-8.27,-13.04l-23.76,15.07Z" style="fill:#626060;fill-rule:nonzero;"/><path d="M1600.08,482.469l-49.16,-88.35l-31.55,17.56l-10.02,-17.99l84.5,-47.02l10.01,17.98l-31.47,17.52l49.16,88.35l-21.47,11.95Z" style="fill:#626060;fill-rule:nonzero;"/><path d="M1663.77,359.879l70.95,-33.25l33.26,70.95l-70.95,33.26l-33.26,-70.96Zm8.39,3.04l27.9,59.53l59.53,-27.91l-27.9,-59.52l-59.53,27.9Z" style="fill:#626060;fill-rule:nonzero;"/><path d="M1778.25,260.689l41.98,-15.94c9.47,-3.59 16.96,-5.61 22.48,-6.05c7.42,-0.56 14.46,0.76 21.13,3.97c6.66,3.21 12.61,7.98 17.86,14.31c5.24,6.32 9.88,14.81 13.93,25.47c3.56,9.37 5.45,17.88 5.7,25.54c0.3,9.36 -1.22,17.6 -4.55,24.72c-2.51,5.4 -6.75,10.47 -12.7,15.21c-4.46,3.53 -10.93,6.91 -19.42,10.13l-43.22,16.41l-43.19,-113.77Zm30.27,10.52l28.61,75.36l17.15,-6.51c6.42,-2.44 10.91,-4.56 13.48,-6.36c3.37,-2.35 5.86,-5.1 7.48,-8.26c1.61,-3.16 2.23,-7.58 1.84,-13.26c-0.38,-5.69 -2.24,-12.93 -5.58,-21.72c-3.34,-8.8 -6.68,-15.25 -10.02,-19.37c-3.34,-4.12 -6.9,-6.97 -10.7,-8.55c-3.79,-1.58 -8.02,-2.02 -12.66,-1.32c-3.49,0.5 -9.91,2.52 -19.27,6.08l-10.33,3.91Z" style="fill:#626060;fill-rule:nonzero;"/><path d="M1946.38,328.159l-63.2,-107.97l24.07,-7.32l41.86,74.64l-3.03,-86.45l27.96,-8.5l45.13,75.12l-6.86,-86.76l23.67,-7.19l7.13,125.02l-24.94,7.58l-49.65,-79.99l3.35,94.07l-25.49,7.75Z" style="fill:#626060;fill-rule:nonzero;"/><path d="M2071.11,166.349l29.601,118.034l-23.831,5.976l-29.601,-118.033l23.831,-5.977Z" style="fill:#626060;"/><path d="M2140.84,194.489l76.93,-14.87l14.88,76.93l-76.94,14.88l-14.87,-76.94Zm7.39,5l12.48,64.55l64.54,-12.48l-12.48,-64.55l-64.54,12.48Z" style="fill:#626060;fill-rule:nonzero;"/><path d="M2289.95,247.019l-13.64,-120.92l36.54,-4.13l31.25,80.01l12.38,-84.93l36.63,-4.13l13.64,120.92l-22.68,2.56l-10.74,-95.19l-13.26,97.9l-23.51,2.65l-34.66,-92.49l10.739,95.19l-22.689,2.56Z" style="fill:#626060;fill-rule:nonzero;"/><path d="M2439.75,110.259l8.32,121.41l-24.52,1.68l-8.32,-121.409l24.52,-1.681Z" style="fill:#626060;"/><path d="M2503.72,150.239l78.351,-1.15l1.149,78.35l-78.35,1.15l-1.15,-78.35Zm6.4,6.21l0.96,65.74l65.741,-0.97l-0.96,-65.73l-65.741,0.96Z" style="fill:#626060;fill-rule:nonzero;"/><path d="M2641.64,228.189l7.4,-121.47l24.521,1.5l-3.28,53.93l52.83,-50.92l32.979,2.01l-48.62,44.53l43.7,77.09l-31.73,-1.94l-29.92,-59.03l-21.119,19.09l-2.231,36.7l-24.53,-1.49Z" style="fill:#626060;fill-rule:nonzero;"/><path d="M2771.43,114.639l44.601,5.24c10.059,1.18 17.629,2.85 22.729,5c6.84,2.93 12.481,7.35 16.91,13.27c4.43,5.93 7.51,12.91 9.25,20.94c1.731,8.03 1.93,17.71 0.6,29.03c-1.17,9.95 -3.409,18.37 -6.73,25.28c-4.049,8.44 -9.2,15.05 -15.45,19.84c-4.71,3.62 -10.809,6.17 -18.279,7.63c-5.58,1.07 -12.881,1.08 -21.901,0.02l-45.919,-5.39l14.189,-120.86Zm22,23.31l-9.399,80.05l18.219,2.14c6.821,0.8 11.781,0.99 14.901,0.58c4.069,-0.53 7.55,-1.82 10.439,-3.87c2.891,-2.06 5.471,-5.7 7.76,-10.92c2.28,-5.22 3.971,-12.5 5.07,-21.84c1.1,-9.35 1.111,-16.62 0.05,-21.81c-1.06,-5.2 -2.909,-9.37 -5.55,-12.52c-2.639,-3.15 -6.179,-5.49 -10.63,-7.02c-3.309,-1.17 -9.95,-2.33 -19.9,-3.5l-10.96,-1.29Z" style="fill:#626060;fill-rule:nonzero;"/><path d="M2914.43,133.459l-18.813,120.229l-24.277,-3.799l18.812,-120.228l24.278,3.798Z" style="fill:#626060;"/><path d="M2968.24,186.699l76.64,16.34l-16.35,76.64l-76.63,-16.34l16.34,-76.64Zm4.859,7.49l-13.719,64.29l64.299,13.71l13.71,-64.29l-64.29,-13.71Z" style="fill:#626060;fill-rule:nonzero;"/><path d="M3084.57,293.159l34.689,-116.64l35.25,10.48l-2.5,85.86l44.59,-73.34l35.321,10.51l-34.69,116.64l-21.881,-6.51l27.311,-91.82l-50.46,84.94l-22.67,-6.75l4.229,-98.68l-27.309,91.82l-21.88,-6.51Z" style="fill:#626060;fill-rule:nonzero;"/><path d="M3276.18,225.949l-39.867,114.97l-23.213,-8.05l39.866,-114.969l23.214,8.049Z" style="fill:#626060;"/><path d="M3251.84,345.589l44.93,-113.09l34.18,13.58l-10.13,85.29l50.93,-69.08l34.26,13.61l-44.94,113.09l-21.209,-8.43l35.37,-89.02l-57.821,80.1l-21.99,-8.73l13,-97.91l-35.37,89.02l-21.21,-8.43Z" style="fill:#626060;fill-rule:nonzero;"/><path d="M3448.43,342.959l70.301,34.61l-34.62,70.3l-70.3,-34.61l34.619,-70.3Zm2.87,8.45l-29.04,58.98l58.981,29.04l29.04,-58.98l-58.981,-29.04Z" style="fill:#626060;fill-rule:nonzero;"/><path d="M3535.29,474.759l62.22,-104.58l31.6,18.8l-23.46,82.63l61.2,-60.18l31.669,18.85l-62.208,104.58l-19.622,-11.67l48.971,-82.33l-69.73,69.98l-20.33,-12.1l28.29,-94.63l-48.98,82.32l-19.62,-11.67Z" style="fill:#626060;fill-rule:nonzero;"/><path d="M3737.35,456.439l-66.815,101.693l-20.535,-13.493l66.815,-101.692l20.535,13.492Z" style="fill:#626060;"/><path d="M3755.6,468.009l36.5,26.16c8.23,5.9 14.061,11.03 17.471,15.39c4.58,5.86 7.369,12.46 8.38,19.79c1.009,7.33 0.33,14.93 -2.04,22.8c-2.371,7.86 -6.871,16.43 -13.521,25.69c-5.829,8.14 -11.87,14.43 -18.12,18.88c-7.63,5.42 -15.34,8.71 -23.119,9.88c-5.881,0.89 -12.441,0.17 -19.691,-2.17c-5.41,-1.76 -11.799,-5.29 -19.17,-10.58l-37.58,-26.93l70.89,-98.91Zm7.98,31.05l-46.959,65.51l14.91,10.68c5.58,4 9.83,6.57 12.759,7.72c3.81,1.51 7.491,2.06 11.01,1.66c3.521,-0.4 7.54,-2.34 12.071,-5.8c4.519,-3.46 9.53,-9.02 15.009,-16.66c5.481,-7.65 9.01,-14 10.601,-19.06c1.58,-5.06 1.979,-9.61 1.199,-13.64c-0.79,-4.04 -2.76,-7.8 -5.91,-11.28c-2.34,-2.63 -7.58,-6.86 -15.72,-12.7l-8.97,-6.43Z" style="fill:#626060;fill-rule:nonzero;"/><path d="M3860.53,599.789l60.17,50.2l-50.21,60.17l-60.16,-50.21l50.2,-60.16Zm0.8,8.88l-42.12,50.48l50.479,42.12l42.121,-50.48l-50.48,-42.12Z" style="fill:#626060;fill-rule:nonzero;"/><path d="M3913.85,748.749l84.59,-87.48l28.35,27.41c10.741,10.38 17.321,17.59 19.73,21.62c3.75,6.16 5.181,13.07 4.31,20.74c-0.87,7.67 -4.669,14.98 -11.4,21.94c-5.189,5.37 -10.529,8.94 -16.019,10.72c-5.491,1.77 -10.75,2.25 -15.771,1.44c-5.019,-0.82 -9.409,-2.39 -13.17,-4.71c-5.019,-3.25 -11.53,-8.73 -19.53,-16.47l-11.52,-11.13l-31.91,33l-17.66,-17.08Zm87.95,-55.6l-24.01,24.82l9.67,9.35c6.96,6.73 12.06,10.77 15.29,12.13c3.231,1.35 6.451,1.7 9.67,1.04c3.22,-0.66 6.08,-2.28 8.58,-4.87c3.08,-3.18 4.68,-6.71 4.811,-10.59c0.129,-3.87 -0.981,-7.46 -3.351,-10.74c-1.719,-2.44 -5.77,-6.74 -12.13,-12.89l-8.53,-8.25Z" style="fill:#626060;fill-rule:nonzero;"/><path d="M4061.61,834.319l15.069,-13.9l35.891,38.95l-35.641,32.85c-7.149,-0.41 -15.429,-2.92 -24.84,-7.54c-9.4,-4.61 -17.5,-10.6 -24.29,-17.97c-8.629,-9.36 -14.179,-19.32 -16.669,-29.9c-2.48,-10.58 -1.691,-20.98 2.389,-31.21c4.08,-10.24 10.41,-19.31 19,-27.22c9.32,-8.59 19.401,-14.27 30.24,-17.04c10.851,-2.76 21.67,-2.17 32.481,1.8c8.25,3 16.32,8.77 24.199,17.32c10.231,11.11 15.9,21.93 17,32.47c1.101,10.54 -1.64,20.5 -8.209,29.86l-19.9,-14.85c3.24,-5.31 4.519,-10.88 3.859,-16.7c-0.66,-5.83 -3.399,-11.34 -8.199,-16.55c-7.27,-7.89 -15.561,-11.87 -24.86,-11.91c-9.3,-0.05 -18.871,4.47 -28.72,13.54c-10.62,9.79 -16.41,19.49 -17.37,29.11c-0.96,9.61 2.08,18.24 9.13,25.89c3.49,3.79 7.73,6.9 12.719,9.33c5,2.44 9.811,4.05 14.431,4.82l11.359,-10.46l-19.069,-20.69Z" style="fill:#626060;fill-rule:nonzero;"/><path d="M4092.03,937.079l78.17,-64.12l-22.9,-27.91l15.92,-13.06l61.33,74.77l-15.92,13.049l-22.851,-27.849l-78.17,64.12l-15.579,-19Z" style="fill:#626060;fill-rule:nonzero;"/><path d="M4224.09,978.069l45.301,63.94l-63.931,45.3l-45.309,-63.93l63.939,-45.31Zm-1.5,8.8l-53.64,38.01l38.01,53.64l53.64,-38.01l-38.01,-53.64Z" style="fill:#626060;fill-rule:nonzero;"/><path d="M4341.95,1073.14l23.079,38.521c5.201,8.689 8.5,15.709 9.9,21.069c1.871,7.2 1.811,14.37 -0.179,21.49c-1.99,7.13 -5.641,13.83 -10.94,20.1c-5.31,6.28 -12.85,12.341 -22.631,18.2c-8.589,5.15 -16.639,8.511 -24.139,10.1c-9.16,1.94 -17.54,1.9 -25.14,-0.129c-5.75,-1.521 -11.48,-4.801 -17.2,-9.821c-4.261,-3.77 -8.72,-9.55 -13.39,-17.34l-23.75,-39.66l104.39,-62.53Zm-5.03,31.66l-69.151,41.41l9.431,15.741c3.521,5.889 6.399,9.939 8.63,12.149c2.9,2.91 6.05,4.87 9.439,5.91c3.391,1.03 7.851,0.86 13.381,-0.519c5.529,-1.381 12.33,-4.481 20.4,-9.321c8.07,-4.83 13.84,-9.25 17.309,-13.259c3.471,-4.021 5.641,-8.031 6.531,-12.041c0.879,-4.02 0.57,-8.25 -0.93,-12.7c-1.101,-3.34 -4.22,-9.31 -9.37,-17.9l-5.67,-9.47Z" style="fill:#626060;fill-rule:nonzero;"/><path d="M4305.18,1250.7l95.32,-81.03l11.401,22.42l-66.211,54.219l84.6,-18.029l13.23,26.04l-66.11,57.529l84.241,-21.859l11.199,22.06l-121.869,28.78l-11.811,-23.24l70.13,-62.82l-92.05,19.68l-12.07,-23.75Z" style="fill:#626060;fill-rule:nonzero;"/><path d="M4486.03,1345.13l-111.146,49.549l-10.003,-22.439l111.146,-49.548l10.003,22.438Z" style="fill:#626060;"/><path d="M4470.53,1419.18l27.771,73.271l-73.271,27.769l-27.779,-73.269l73.279,-27.771Zm-3.67,8.13l-61.469,23.31l23.299,61.47l61.481,-23.3l-23.311,-61.48Z" style="fill:#626060;fill-rule:nonzero;"/><path d="M4444.14,1575.13l116.959,-33.61l10.15,35.34l-73.679,44.15l85.809,-1.95l10.181,35.43l-116.951,33.61l-6.31,-21.94l92.07,-26.46l-98.74,3.24l-6.53,-22.74l85.41,-49.59l-92.059,26.46l-6.31,-21.94Z" style="fill:#626060;fill-rule:nonzero;"/><path d="M4603.86,1700.24l-118.388,28.14l-5.681,-23.9l118.388,-28.139l5.681,23.899Z" style="fill:#626060;"/><path d="M4574.91,1770.06l13.74,77.15l-77.15,13.73l-13.731,-77.15l77.141,-13.73Zm-5.1,7.32l-64.73,11.52l11.529,64.721l64.721,-11.521l-11.52,-64.72Z" style="fill:#626060;fill-rule:nonzero;"/><path d="M4520.06,1918.94l121.14,-11.64l2.339,24.46l-53.79,5.17l58.54,44.24l3.161,32.89l-51.56,-41.08l-69.341,55.19l-3.04,-31.65l53.651,-38.75l-22.141,-17.89l-36.609,3.51l-2.35,-24.45Z" style="fill:#626060;fill-rule:nonzero;"/><path d="M4652.44,2029.67l1.681,44.88c0.37,10.12 -0.111,17.86 -1.46,23.23c-1.84,7.21 -5.35,13.46 -10.52,18.75c-5.169,5.29 -11.6,9.4 -19.27,12.34c-7.669,2.95 -17.2,4.63 -28.59,5.06c-10.01,0.37 -18.68,-0.55 -26.02,-2.77c-8.96,-2.71 -16.289,-6.79 -21.969,-12.22c-4.31,-4.11 -7.761,-9.74 -10.351,-16.9c-1.92,-5.35 -3.039,-12.56 -3.379,-21.63l-1.721,-46.21l121.6,-4.53Zm-19.65,25.32l-80.55,3l0.679,18.34c0.26,6.85 0.831,11.79 1.721,14.8c1.14,3.95 2.949,7.19 5.431,9.72c2.47,2.54 6.47,4.54 11.979,6c5.499,1.45 12.959,2 22.36,1.65c9.401,-0.35 16.591,-1.44 21.561,-3.29c4.969,-1.85 8.809,-4.32 11.52,-7.41c2.71,-3.09 4.47,-6.95 5.3,-11.58c0.639,-3.45 0.78,-10.19 0.41,-20.2l-0.41,-11.03Z" style="fill:#626060;fill-rule:nonzero;"/><path d="M4655.73,2174.26l-121.692,-0.3l0.061,-24.57l121.691,0.3l-0.06,24.57Z" style="fill:#626060;"/><path d="M4611.3,2235.15l-4.59,78.23l-78.22,-4.59l4.581,-78.22l78.229,4.58Zm-6.67,5.93l-65.63,-3.85l-3.849,65.63l65.628,3.85l3.851,-65.63Z" style="fill:#626060;fill-rule:nonzero;"/><path d="M4523.53,2366.58l120.49,17.03l-5.139,36.409l-85.281,10.25l79.131,33.231l-5.16,36.49l-120.49,-17.03l3.199,-22.601l94.841,13.401l-91.46,-37.321l3.31,-23.419l98.219,-10.43l-94.849,-13.41l3.189,-22.6Z" style="fill:#626060;fill-rule:nonzero;"/><path d="M4618.24,2546.34l-119.567,-22.619l4.567,-24.141l119.567,22.62l-4.567,24.14Z" style="fill:#626060;"/><path d="M4496.38,2539.65l118.399,28.1l-8.489,35.779l-85.87,2.321l75.731,40.41l-8.51,35.859l-118.401,-28.099l5.27,-22.211l93.2,22.111l-87.63,-45.621l5.47,-23.01l98.761,-1.308l-93.202,-22.122l5.271,-22.209Z" style="fill:#626060;fill-rule:nonzero;"/><path d="M4527.3,2733.73l-24.3,74.488l-74.5,-24.308l24.311,-74.491l74.489,24.311Zm-7.95,4.039l-62.5,-20.4l-20.39,62.5l62.5,20.4l20.39,-62.5Z" style="fill:#626060;fill-rule:nonzero;"/><path d="M4409.01,2838.54l112.2,47.131l-14.25,33.9l-85.08,-11.791l68.08,52.28l-14.27,33.98l-112.2,-47.129l8.84,-21.051l88.321,37.1l-78.961,-59.369l9.16,-21.811l97.64,14.901l-88.32,-37.09l8.84,-21.051Z" style="fill:#626060;fill-rule:nonzero;"/><path d="M4454.99,3036.27l-109.901,-52.261l10.551,-22.188l109.901,52.261l-10.551,22.188Z" style="fill:#626060;"/><path d="M4445.97,3056.06l-20.961,39.721c-4.73,8.951 -9.019,15.42 -12.869,19.39c-5.191,5.33 -11.351,9 -18.471,10.991c-7.13,2 -14.75,2.359 -22.859,1.08c-8.121,-1.282 -17.221,-4.58 -27.301,-9.901c-8.859,-4.679 -15.91,-9.81 -21.16,-15.4c-6.41,-6.82 -10.72,-14.01 -12.93,-21.561c-1.679,-5.699 -1.849,-12.299 -0.529,-19.799c1.019,-5.599 3.639,-12.41 7.879,-20.441l21.58,-40.879l107.621,56.799Zm-29.671,12.121l-71.28,-37.621l-8.57,16.221c-3.2,6.07 -5.17,10.631 -5.91,13.679c-0.969,3.991 -1.02,7.702 -0.149,11.141c0.879,3.43 3.34,7.16 7.389,11.17c4.041,4.01 10.22,8.221 18.541,12.609c8.32,4.391 15.099,7.032 20.33,7.91c5.219,0.881 9.779,0.661 13.679,-0.669c3.891,-1.321 7.34,-3.78 10.37,-7.379c2.291,-2.67 5.771,-8.442 10.441,-17.301l5.159,-9.76Z" style="fill:#626060;fill-rule:nonzero;"/><path d="M1451.49,4861.03l20.014,67.455c3.953,13.836 7.413,25.695 10.131,37.063l0.494,0c2.965,-10.873 7.165,-23.473 11.86,-37.063l23.72,-67.455l11.119,0l22.731,66.713c4.943,14.578 8.649,26.685 11.614,37.805l0.494,0c2.47,-11.12 6.177,-22.979 10.872,-37.311l21.002,-67.207l12.107,0l-39.534,118.602l-10.13,0l-22.485,-66.219c-4.942,-14.332 -9.142,-26.934 -12.355,-40.276l-0.494,0c-3.459,13.836 -7.906,26.932 -12.847,40.77l-23.474,65.725l-10.378,0l-36.568,-118.602l12.107,0Z" style="fill:#626060;fill-rule:nonzero;"/><path d="M1631.85,4861.03l20.015,67.455c3.953,13.836 7.412,25.695 10.13,37.063l0.494,0c2.965,-10.873 7.166,-23.473 11.86,-37.063l23.721,-67.455l11.118,0l22.732,66.713c4.942,14.578 8.649,26.685 11.613,37.805l0.494,0c2.471,-11.12 6.178,-22.979 10.872,-37.311l21.002,-67.207l12.107,0l-39.533,118.602l-10.131,0l-22.484,-66.219c-4.943,-14.332 -9.143,-26.934 -12.355,-40.276l-0.494,0c-3.459,13.836 -7.907,26.932 -12.848,40.77l-23.473,65.725l-10.378,0l-36.568,-118.602l12.106,0Z" style="fill:#626060;fill-rule:nonzero;"/><path d="M1812.22,4861.03l20.015,67.455c3.953,13.836 7.412,25.695 10.13,37.063l0.494,0c2.965,-10.873 7.166,-23.473 11.86,-37.063l23.721,-67.455l11.118,0l22.732,66.713c4.942,14.578 8.648,26.685 11.613,37.805l0.494,0c2.471,-11.12 6.177,-22.979 10.872,-37.311l21.002,-67.207l12.107,0l-39.533,118.602l-10.131,0l-22.484,-66.219c-4.943,-14.332 -9.143,-26.934 -12.355,-40.276l-0.494,0c-3.459,13.836 -7.907,26.932 -12.848,40.77l-23.473,65.725l-10.378,0l-36.568,-118.602l12.106,0Z" style="fill:#626060;fill-rule:nonzero;"/><path d="M1987.39,4982.35c-5.683,0 -9.883,-5.188 -9.636,-11.119c0,-6.424 4.2,-11.117 10.13,-11.117c5.931,0 9.884,4.693 9.884,11.117c0,5.931 -3.953,11.119 -10.131,11.119l-0.247,0Z" style="fill:#626060;fill-rule:nonzero;"/><path d="M2027.42,4889.44c-0,-10.871 -0.247,-19.025 -0.989,-28.414l11.119,0l0.741,20.756l0.494,0c7.66,-13.59 19.026,-23.475 38.546,-23.475c16.308,0 28.909,10.873 34.098,25.697l0.494,0c3.212,-6.918 7.659,-12.353 12.107,-16.06c7.66,-6.176 15.567,-9.637 28.167,-9.637c11.614,0 38.793,6.426 38.793,51.395l-0,69.926l-11.86,0l-0,-68.938c-0,-26.686 -10.378,-42.498 -30.886,-42.498c-14.825,0 -26.438,11.119 -31.133,23.473c-0.988,3.459 -1.976,7.412 -1.976,11.859l-0,76.104l-11.861,0l-0,-74.374c-0,-21.25 -10.129,-37.062 -29.403,-37.062c-15.813,0 -28.414,12.848 -32.862,26.686c-0.988,3.458 -1.73,7.412 -1.73,11.611l-0,73.139l-11.859,0l-0,-90.188Z" style="fill:#626060;fill-rule:nonzero;"/><path d="M2321.2,4950.72c0,10.379 0.247,19.768 0.988,28.91l-11.119,0l-0.741,-21.25l-0.494,0c-5.93,11.119 -19.52,23.967 -40.522,23.967c-15.072,0 -40.522,-7.658 -40.522,-52.381l0,-68.937l11.86,0l0,66.712c0,25.698 7.906,44.229 31.38,44.229c17.296,0 29.898,-12.107 35.086,-23.967c1.235,-3.707 2.224,-8.402 2.224,-13.096l0,-73.878l11.86,0l0,89.691Z" style="fill:#626060;fill-rule:nonzero;"/><rect x="2360.97" y="4803.95" width="11.859" height="175.678" style="fill:#626060;"/><path d="M2429.66,4834.84l0,26.191l33.851,-0l0,9.637l-33.851,-0l0,77.09c0,15.072 4.694,24.463 17.296,24.463c6.178,-0 10.625,-0.742 13.59,-1.731l1.482,8.895c-3.953,1.482 -9.389,2.719 -16.555,2.719c-8.647,-0 -15.813,-2.719 -20.26,-8.155c-5.437,-6.177 -7.413,-16.306 -7.413,-28.414l0,-74.867l-20.014,-0l0,-9.637l20.014,-0l0,-21.744l11.86,-4.447Z" style="fill:#626060;fill-rule:nonzero;"/><path d="M2489.7,4861.03l11.859,0l0,118.602l-11.859,0l0,-118.602Zm5.436,-23.721c-5.436,-0 -9.143,-4.693 -9.143,-10.131c-0,-5.435 4.201,-10.376 9.637,-10.376c5.436,0 9.389,4.695 9.389,10.376c-0,5.438 -3.706,10.131 -9.636,10.131l-0.247,-0Z" style="fill:#626060;fill-rule:nonzero;"/><path d="M2541.33,4861.03l11.86,0l0,118.602l-11.86,0l0,-118.602Zm5.436,-23.721c-5.436,-0 -9.142,-4.693 -9.142,-10.131c-0,-5.435 4.2,-10.376 9.636,-10.376c5.436,0 9.389,4.695 9.389,10.376c0,5.438 -3.706,10.131 -9.636,10.131l-0.247,-0Z" style="fill:#626060;fill-rule:nonzero;"/><path d="M2592.97,4889.44c-0,-10.871 -0.247,-19.025 -0.988,-28.414l11.119,0l0.741,21.25l0.494,0c6.424,-13.344 21.496,-23.969 40.77,-23.969c11.365,0 41.51,5.684 41.51,50.16l-0,71.161l-11.861,0l-0,-70.172c-0,-21.745 -8.4,-41.264 -32.862,-41.264c-16.555,0 -30.886,11.859 -35.58,27.426c-0.741,2.718 -1.483,6.672 -1.483,10.377l-0,73.633l-11.86,0l-0,-90.188Z" style="fill:#626060;fill-rule:nonzero;"/><path d="M2741.72,4834.84l-0,26.191l33.851,-0l-0,9.637l-33.851,-0l-0,77.09c-0,15.072 4.695,24.463 17.296,24.463c6.178,-0 10.625,-0.742 13.59,-1.731l1.482,8.895c-3.953,1.482 -9.389,2.719 -16.555,2.719c-8.647,-0 -15.813,-2.719 -20.26,-8.155c-5.436,-6.177 -7.412,-16.306 -7.412,-28.414l-0,-74.867l-20.015,-0l-0,-9.637l20.015,-0l-0,-21.744l11.859,-4.447Z" style="fill:#626060;fill-rule:nonzero;"/><path d="M2877.61,4909.7c0.247,-16.555 -6.671,-41.51 -35.333,-41.51c-26.191,-0 -37.31,23.225 -39.534,41.51l74.867,-0Zm-75.608,9.389c0,37.804 20.755,52.877 45.216,52.877c17.296,-0 26.192,-3.459 32.863,-6.672l2.966,9.142c-4.449,2.471 -16.556,7.66 -37.311,7.66c-34.098,-0 -55.347,-24.708 -55.347,-59.548c0,-39.534 22.732,-64.243 53.37,-64.243c38.792,-0 46.205,36.571 46.205,53.62c0,3.211 0,4.941 -0.494,7.164l-87.468,-0Z" style="fill:#626060;fill-rule:nonzero;"/><path d="M3002.88,4906.74c0,-4.447 -0.248,-8.154 -1.483,-11.613c-4.942,-14.084 -17.296,-26.932 -36.816,-26.932c-25.203,0 -42.499,20.508 -42.499,51.887c0,26.685 14.084,49.664 42.005,49.664c15.814,0 30.639,-9.883 36.815,-26.684c1.236,-3.955 1.978,-8.402 1.978,-12.601l0,-23.721Zm11.859,55.594c0,30.392 -6.423,45.465 -16.307,54.853c-10.871,10.377 -26.932,14.084 -40.275,14.084c-13.59,0 -28.662,-3.459 -37.804,-10.377l4.201,-9.39c8.4,5.435 20.013,9.884 35.333,9.884c24.955,0 42.993,-12.849 42.993,-47.935l0,-16.801l-0.495,0c-6.177,12.106 -20.014,22.979 -41.263,22.979c-29.897,0 -50.899,-25.946 -50.899,-58.313c-0,-41.264 27.178,-63.008 53.37,-63.008c23.473,0 35.086,12.85 40.028,22.733l0.494,0l0.742,-20.014l10.871,0c-0.742,8.895 -0.989,18.285 -0.989,30.639l-0,70.666Z" style="fill:#626060;fill-rule:nonzero;"/><path d="M3052.29,4896.61c0,-11.859 -0.247,-23.967 -0.988,-35.58l10.872,0l0.494,23.967l0.741,0c5.189,-15.073 17.543,-26.686 33.604,-26.686c1.729,0 3.459,0.248 4.941,0.494l0,11.119c-1.729,-0.246 -3.459,-0.246 -5.683,-0.246c-16.307,0 -27.92,14.084 -31.132,33.11c-0.742,3.459 -0.989,7.412 -0.989,11.365l0,65.478l-11.86,0l0,-83.021Z" style="fill:#626060;fill-rule:nonzero;"/><path d="M3187.44,4916.13c-25.943,-0.74 -60.042,3.213 -60.042,31.627c0,17.049 11.366,24.709 23.721,24.709c19.766,-0 31.133,-12.107 35.086,-23.721c0.988,-2.47 1.235,-5.187 1.235,-7.164l0,-25.451Zm11.86,35.334c0,9.389 0.247,19.025 1.73,28.168l-10.872,-0l-1.73,-17.049l-0.494,-0c-5.93,9.143 -19.025,19.766 -38.051,19.766c-23.967,-0 -34.839,-16.801 -34.839,-32.615c0,-27.426 23.967,-43.981 72.396,-43.487l0,-3.213c0,-11.613 -2.224,-35.086 -30.392,-34.838c-10.377,-0 -21.249,2.717 -29.897,8.895l-3.706,-8.649c10.872,-7.164 24.215,-10.13 34.839,-10.13c34.345,-0 41.016,25.697 41.016,46.699l0,46.453Z" style="fill:#626060;fill-rule:nonzero;"/><path d="M3240.56,4982.35c-5.683,0 -9.883,-5.188 -9.636,-11.119c-0,-6.424 4.2,-11.117 10.13,-11.117c5.931,0 9.884,4.693 9.884,11.117c-0,5.931 -3.953,11.119 -10.131,11.119l-0.247,0Z" style="fill:#626060;fill-rule:nonzero;"/><path d="M3362.37,4974.44c-5.188,2.471 -17.543,7.66 -34.839,7.66c-34.098,0 -56.829,-24.955 -56.829,-60.537c0,-37.803 25.696,-63.254 61.03,-63.254c14.577,0 26.685,4.201 31.132,7.414l-4.2,9.635c-5.683,-3.459 -14.825,-6.918 -27.921,-6.918c-31.874,0 -48.182,24.215 -48.182,52.135c0,31.133 19.521,51.394 46.947,51.394c14.084,0 23.226,-3.953 29.65,-6.918l3.212,9.389Z" style="fill:#626060;fill-rule:nonzero;"/><path d="M3436,4972.47c24.709,-0 44.229,-22.238 44.229,-52.629c0,-21.744 -12.108,-51.641 -43.488,-51.641c-30.391,-0 -43.981,26.932 -43.981,52.381c0,29.651 18.779,51.889 42.993,51.889l0.247,-0Zm-0.741,9.883c-30.639,-0 -54.359,-23.967 -54.359,-61.029c0,-40.522 26.685,-63.008 56.088,-63.008c32.863,-0 55.101,24.709 55.101,61.031c0,43.98 -30.392,63.006 -56.583,63.006l-0.247,-0Z" style="fill:#626060;fill-rule:nonzero;"/><path d="M3520.75,4982.35c-5.683,0 -9.883,-5.188 -9.636,-11.119c-0,-6.424 4.2,-11.117 10.13,-11.117c5.931,0 9.884,4.693 9.884,11.117c-0,5.931 -3.953,11.119 -10.131,11.119l-0.247,0Z" style="fill:#626060;fill-rule:nonzero;"/><path d="M3560.77,4861.03l11.86,0l0,118.602l-11.86,0l0,-118.602Zm5.437,-23.721c-5.437,-0 -9.143,-4.693 -9.143,-10.131c0,-5.435 4.201,-10.376 9.637,-10.376c5.436,0 9.389,4.695 9.389,10.376c0,5.438 -3.706,10.131 -9.636,10.131l-0.247,-0Z" style="fill:#626060;fill-rule:nonzero;"/><path d="M3695.19,4907.97c-0.001,-3.211 -0.249,-7.412 -1.236,-10.871c-3.954,-15.813 -18.038,-28.908 -37.311,-28.908c-25.943,0 -42.251,22.484 -42.251,53.123c-0,26.685 13.343,51.146 41.511,51.146c17.049,0 33.109,-11.365 38.051,-30.885c0.988,-2.966 1.236,-6.177 1.236,-9.884l-0,-23.721Zm11.859,-104.021l-0,148.25c-0,8.648 0.247,19.025 0.989,27.427l-10.624,0l-0.989,-22.484l-0.494,0c-6.178,13.094 -20.262,25.201 -42.252,25.201c-29.403,0 -51.146,-24.461 -51.146,-59.795c-0.247,-39.533 24.214,-64.242 53.37,-64.242c20.508,0 33.603,10.625 38.792,21.004l0.495,0l-0,-75.361l11.859,0Z" style="fill:#626060;fill-rule:nonzero;"/><g><g transform="matrix(7.60865,0,0,7.60865,-52600,-67179.4)"><g transform="matrix(17.7843,0,0,17.7843,7200.36,9372.59)"><path d="M0.072,-0.716l0.264,0c0.06,0 0.105,0.005 0.137,0.014c0.042,0.012 0.078,0.034 0.108,0.066c0.03,0.031 0.052,0.07 0.068,0.116c0.016,0.045 0.023,0.102 0.023,0.169c0,0.059 -0.007,0.11 -0.022,0.152c-0.018,0.052 -0.043,0.095 -0.076,0.127c-0.025,0.024 -0.059,0.043 -0.102,0.057c-0.032,0.01 -0.074,0.015 -0.128,0.015l-0.272,-0l0,-0.716Zm0.145,0.121l-0,0.474l0.108,0c0.04,0 0.069,-0.002 0.087,-0.006c0.024,-0.006 0.043,-0.016 0.058,-0.03c0.016,-0.014 0.029,-0.037 0.038,-0.069c0.01,-0.032 0.015,-0.076 0.015,-0.131c-0,-0.056 -0.005,-0.098 -0.015,-0.128c-0.009,-0.029 -0.023,-0.053 -0.041,-0.069c-0.017,-0.017 -0.04,-0.028 -0.067,-0.034c-0.02,-0.004 -0.059,-0.007 -0.118,-0.007l-0.065,0Z" style="fill:#fafafa;fill-rule:nonzero;"/></g><g transform="matrix(17.7843,0,0,17.7843,7214.98,9372.59)"><path d="M0.413,-0l0,-0.078c-0.019,0.028 -0.044,0.05 -0.074,0.066c-0.031,0.016 -0.064,0.024 -0.098,0.024c-0.035,-0 -0.066,-0.008 -0.094,-0.023c-0.027,-0.016 -0.047,-0.037 -0.06,-0.065c-0.012,-0.027 -0.018,-0.066 -0.018,-0.114l-0,-0.329l0.137,0l0,0.239c0,0.073 0.003,0.117 0.008,0.134c0.005,0.016 0.014,0.029 0.027,0.039c0.014,0.009 0.03,0.014 0.051,0.014c0.023,0 0.044,-0.006 0.063,-0.019c0.019,-0.013 0.031,-0.029 0.038,-0.048c0.007,-0.019 0.01,-0.066 0.01,-0.14l0,-0.219l0.138,0l-0,0.519l-0.128,-0Z" style="fill:#fafafa;fill-rule:nonzero;"/></g><g transform="matrix(17.7843,0,0,17.7843,7227.62,9372.59)"><path d="M0.174,-0.36l-0.124,-0.023c0.014,-0.05 0.038,-0.087 0.072,-0.111c0.034,-0.024 0.085,-0.036 0.152,-0.036c0.062,-0 0.107,0.007 0.137,0.021c0.03,0.015 0.051,0.033 0.063,0.056c0.013,0.022 0.019,0.063 0.019,0.122l-0.002,0.161c0,0.045 0.002,0.079 0.007,0.1c0.004,0.022 0.012,0.045 0.024,0.07l-0.135,-0c-0.004,-0.009 -0.008,-0.023 -0.013,-0.041c-0.003,-0.008 -0.004,-0.013 -0.005,-0.016c-0.024,0.023 -0.049,0.04 -0.076,0.052c-0.026,0.011 -0.055,0.017 -0.085,0.017c-0.053,-0 -0.095,-0.015 -0.126,-0.044c-0.031,-0.029 -0.046,-0.065 -0.046,-0.11c-0,-0.029 0.007,-0.055 0.021,-0.078c0.014,-0.023 0.033,-0.04 0.058,-0.053c0.026,-0.012 0.062,-0.023 0.11,-0.032c0.064,-0.012 0.108,-0.023 0.133,-0.033l-0,-0.014c-0,-0.026 -0.007,-0.045 -0.02,-0.056c-0.013,-0.012 -0.037,-0.017 -0.073,-0.017c-0.025,-0 -0.044,0.005 -0.057,0.014c-0.014,0.01 -0.025,0.027 -0.034,0.051Zm0.184,0.111c-0.018,0.006 -0.045,0.013 -0.084,0.021c-0.038,0.008 -0.063,0.016 -0.074,0.024c-0.018,0.013 -0.027,0.029 -0.027,0.048c-0,0.019 0.007,0.036 0.021,0.05c0.015,0.014 0.033,0.021 0.055,0.021c0.025,0 0.048,-0.008 0.071,-0.024c0.016,-0.013 0.027,-0.028 0.033,-0.046c0.003,-0.012 0.005,-0.034 0.005,-0.067l-0,-0.027Z" style="fill:#fafafa;fill-rule:nonzero;"/></g><g transform="matrix(17.7843,0,0,17.7843,7246.01,9372.59)"><path d="M0.202,-0l-0.19,-0.716l0.097,0l0.109,0.469c0.012,0.05 0.022,0.098 0.031,0.147c0.018,-0.077 0.029,-0.121 0.032,-0.132l0.136,-0.484l0.114,0l0.103,0.362c0.026,0.09 0.044,0.175 0.055,0.254c0.01,-0.045 0.021,-0.097 0.036,-0.156l0.112,-0.46l0.096,0l-0.197,0.716l-0.091,-0l-0.151,-0.545c-0.013,-0.046 -0.02,-0.074 -0.022,-0.084c-0.008,0.032 -0.015,0.06 -0.021,0.084l-0.152,0.545l-0.097,-0Z" style="fill:#fafafa;fill-rule:nonzero;"/></g><g transform="matrix(17.7843,0,0,17.7843,7264.57,9372.59)"><path d="M0.066,-0.615l0,-0.101l0.088,0l0,0.101l-0.088,0Zm0,0.615l0,-0.519l0.088,0l0,0.519l-0.088,-0Z" style="fill:#fafafa;fill-rule:nonzero;"/></g><g transform="matrix(17.7843,0,0,17.7843,7270.3,9372.59)"><path d="M0.066,-0l-0,-0.519l0.079,0l0,0.074c0.038,-0.057 0.093,-0.085 0.165,-0.085c0.031,-0 0.06,0.005 0.086,0.017c0.026,0.011 0.046,0.026 0.059,0.044c0.013,0.018 0.022,0.04 0.027,0.065c0.004,0.016 0.005,0.044 0.005,0.085l0,0.319l-0.088,-0l0,-0.315c0,-0.036 -0.003,-0.063 -0.01,-0.081c-0.007,-0.017 -0.019,-0.032 -0.036,-0.042c-0.018,-0.011 -0.038,-0.016 -0.061,-0.016c-0.038,-0 -0.07,0.012 -0.097,0.036c-0.028,0.023 -0.041,0.068 -0.041,0.135l-0,0.283l-0.088,-0Z" style="fill:#fafafa;fill-rule:nonzero;"/></g><g transform="matrix(17.7843,0,0,17.7843,7281.97,9372.59)"><path d="M0.402,-0l0,-0.065c-0.033,0.051 -0.081,0.077 -0.145,0.077c-0.041,-0 -0.079,-0.012 -0.114,-0.034c-0.034,-0.023 -0.061,-0.055 -0.08,-0.096c-0.019,-0.041 -0.029,-0.088 -0.029,-0.141c0,-0.052 0.009,-0.099 0.026,-0.141c0.017,-0.042 0.043,-0.074 0.078,-0.097c0.034,-0.022 0.073,-0.033 0.115,-0.033c0.032,-0 0.059,0.006 0.084,0.02c0.024,0.013 0.044,0.03 0.059,0.051l0,-0.257l0.088,0l-0,0.716l-0.082,-0Zm-0.277,-0.259c-0,0.067 0.014,0.116 0.042,0.149c0.027,0.033 0.061,0.049 0.099,0.049c0.038,0 0.071,-0.015 0.098,-0.047c0.026,-0.031 0.04,-0.079 0.04,-0.143c-0,-0.071 -0.014,-0.124 -0.041,-0.157c-0.028,-0.033 -0.061,-0.05 -0.101,-0.05c-0.039,0 -0.072,0.016 -0.098,0.048c-0.026,0.032 -0.039,0.083 -0.039,0.151Z" style="fill:#fafafa;fill-rule:nonzero;"/></g><g transform="matrix(17.7843,0,0,17.7843,7293.64,9372.59)"><path d="M0.406,-0l-0,-0.076c-0.041,0.058 -0.095,0.088 -0.165,0.088c-0.03,-0 -0.059,-0.006 -0.085,-0.018c-0.027,-0.012 -0.047,-0.026 -0.06,-0.044c-0.012,-0.018 -0.021,-0.04 -0.027,-0.065c-0.003,-0.017 -0.005,-0.045 -0.005,-0.082l-0,-0.322l0.088,0l-0,0.288c-0,0.046 0.002,0.077 0.005,0.093c0.006,0.023 0.017,0.041 0.035,0.054c0.018,0.013 0.04,0.02 0.067,0.02c0.026,0 0.051,-0.007 0.074,-0.02c0.023,-0.014 0.039,-0.032 0.049,-0.055c0.01,-0.024 0.014,-0.057 0.014,-0.102l0,-0.278l0.088,0l0,0.519l-0.078,-0Z" style="fill:#fafafa;fill-rule:nonzero;"/></g></g><path d="M2317.33,3337.22l0,11.43l-64.023,-0c-0.088,-2.863 0.374,-5.616 1.387,-8.259c1.63,-4.361 4.24,-8.655 7.83,-12.884c3.59,-4.229 8.776,-9.118 15.56,-14.668c10.527,-8.633 17.641,-15.472 21.341,-20.515c3.7,-5.043 5.55,-9.812 5.55,-14.304c-0,-4.714 -1.685,-8.689 -5.055,-11.926c-3.369,-3.238 -7.763,-4.857 -13.181,-4.857c-5.726,0 -10.307,1.718 -13.743,5.154c-3.435,3.436 -5.175,8.193 -5.219,14.271l-12.224,-1.255c0.837,-9.118 3.987,-16.066 9.449,-20.846c5.461,-4.779 12.795,-7.168 22.001,-7.168c9.294,-0 16.65,2.576 22.068,7.73c5.418,5.154 8.127,11.541 8.127,19.161c0,3.876 -0.793,7.686 -2.378,11.43c-1.586,3.744 -4.218,7.686 -7.896,11.827c-3.678,4.14 -9.79,9.823 -18.335,17.046c-7.136,5.991 -11.717,10.054 -13.743,12.191c-2.026,2.136 -3.7,4.283 -5.021,6.442l47.505,-0Z" style="fill:#fafafa;fill-rule:nonzero;"/><path d="M2324.67,3300.88c0,-11.452 1.179,-20.669 3.535,-27.651c2.357,-6.981 5.859,-12.366 10.506,-16.154c4.647,-3.788 10.494,-5.682 17.542,-5.682c5.197,-0 9.756,1.046 13.676,3.138c3.921,2.092 7.158,5.11 9.713,9.052c2.555,3.942 4.559,8.743 6.012,14.403c1.454,5.661 2.181,13.292 2.181,22.894c-0,11.365 -1.167,20.537 -3.502,27.519c-2.335,6.982 -5.825,12.377 -10.472,16.188c-4.647,3.81 -10.517,5.715 -17.608,5.715c-9.338,-0 -16.672,-3.348 -22.002,-10.043c-6.387,-8.061 -9.581,-21.187 -9.581,-39.379Zm12.224,0c-0,15.901 1.861,26.484 5.583,31.748c3.722,5.263 8.314,7.895 13.776,7.895c5.462,0 10.054,-2.643 13.776,-7.928c3.722,-5.286 5.583,-15.858 5.583,-31.715c-0,-15.945 -1.861,-26.538 -5.583,-31.78c-3.722,-5.242 -8.359,-7.863 -13.909,-7.863c-5.461,0 -9.822,2.313 -13.082,6.938c-4.096,5.902 -6.144,16.804 -6.144,32.705Z" style="fill:#fafafa;fill-rule:nonzero;"/><path d="M2394.52,3300.88c0,-11.452 1.179,-20.669 3.535,-27.651c2.357,-6.981 5.858,-12.366 10.506,-16.154c4.647,-3.788 10.494,-5.682 17.541,-5.682c5.198,-0 9.757,1.046 13.677,3.138c3.921,2.092 7.158,5.11 9.713,9.052c2.555,3.942 4.559,8.743 6.012,14.403c1.454,5.661 2.181,13.292 2.181,22.894c-0,11.365 -1.168,20.537 -3.502,27.519c-2.335,6.982 -5.825,12.377 -10.472,16.188c-4.647,3.81 -10.517,5.715 -17.609,5.715c-9.338,-0 -16.672,-3.348 -22.001,-10.043c-6.387,-8.061 -9.581,-21.187 -9.581,-39.379Zm12.224,0c-0,15.901 1.861,26.484 5.583,31.748c3.722,5.263 8.314,7.895 13.775,7.895c5.462,0 10.054,-2.643 13.776,-7.928c3.722,-5.286 5.583,-15.858 5.583,-31.715c0,-15.945 -1.861,-26.538 -5.583,-31.78c-3.722,-5.242 -8.358,-7.863 -13.908,-7.863c-5.462,0 -9.822,2.313 -13.082,6.938c-4.096,5.902 -6.144,16.804 -6.144,32.705Z" style="fill:#fafafa;fill-rule:nonzero;"/><path d="M2464.36,3323.28l12.488,-1.057c0.925,6.079 3.072,10.649 6.442,13.71c3.369,3.061 7.433,4.592 12.19,4.592c5.726,0 10.571,-2.158 14.536,-6.475c3.964,-4.317 5.946,-10.043 5.946,-17.178c0,-6.784 -1.905,-12.136 -5.715,-16.056c-3.81,-3.92 -8.799,-5.88 -14.965,-5.88c-3.832,-0 -7.29,0.87 -10.374,2.61c-3.083,1.74 -5.506,3.997 -7.267,6.772l-11.167,-1.454l9.383,-49.751l48.166,-0l-0,11.364l-38.652,-0l-5.22,26.032c5.815,-4.052 11.915,-6.079 18.302,-6.079c8.457,0 15.593,2.93 21.407,8.788c5.815,5.858 8.722,13.39 8.722,22.596c-0,8.766 -2.555,16.342 -7.665,22.729c-6.21,7.84 -14.69,11.761 -25.437,11.761c-8.81,-0 -16,-2.467 -21.572,-7.4c-5.573,-4.934 -8.755,-11.475 -9.548,-19.624Z" style="fill:#fafafa;fill-rule:nonzero;"/><rect x="2565.06" y="3307.62" width="36.538" height="11.959" style="fill:#fafafa;fill-rule:nonzero;"/><path d="M2700.72,3337.22l0,11.43l-64.023,-0c-0.088,-2.863 0.374,-5.616 1.387,-8.259c1.63,-4.361 4.24,-8.655 7.83,-12.884c3.59,-4.229 8.776,-9.118 15.56,-14.668c10.527,-8.633 17.641,-15.472 21.341,-20.515c3.7,-5.043 5.55,-9.812 5.55,-14.304c-0,-4.714 -1.685,-8.689 -5.055,-11.926c-3.369,-3.238 -7.763,-4.857 -13.181,-4.857c-5.726,0 -10.307,1.718 -13.743,5.154c-3.436,3.436 -5.175,8.193 -5.22,14.271l-12.223,-1.255c0.837,-9.118 3.987,-16.066 9.448,-20.846c5.462,-4.779 12.796,-7.168 22.002,-7.168c9.294,-0 16.65,2.576 22.068,7.73c5.418,5.154 8.127,11.541 8.127,19.161c-0,3.876 -0.793,7.686 -2.379,11.43c-1.585,3.744 -4.217,7.686 -7.895,11.827c-3.678,4.14 -9.79,9.823 -18.335,17.046c-7.136,5.991 -11.717,10.054 -13.743,12.191c-2.026,2.136 -3.7,4.283 -5.021,6.442l47.505,-0Z" style="fill:#fafafa;fill-rule:nonzero;"/><path d="M2708.06,3300.88c0,-11.452 1.179,-20.669 3.535,-27.651c2.357,-6.981 5.858,-12.366 10.506,-16.154c4.647,-3.788 10.494,-5.682 17.542,-5.682c5.197,-0 9.756,1.046 13.676,3.138c3.921,2.092 7.158,5.11 9.713,9.052c2.555,3.942 4.559,8.743 6.012,14.403c1.454,5.661 2.181,13.292 2.181,22.894c-0,11.365 -1.168,20.537 -3.502,27.519c-2.335,6.982 -5.825,12.377 -10.472,16.188c-4.647,3.81 -10.517,5.715 -17.608,5.715c-9.339,-0 -16.673,-3.348 -22.002,-10.043c-6.387,-8.061 -9.581,-21.187 -9.581,-39.379Zm12.224,0c-0,15.901 1.861,26.484 5.583,31.748c3.722,5.263 8.314,7.895 13.776,7.895c5.461,0 10.053,-2.643 13.775,-7.928c3.722,-5.286 5.583,-15.858 5.583,-31.715c0,-15.945 -1.861,-26.538 -5.583,-31.78c-3.722,-5.242 -8.358,-7.863 -13.908,-7.863c-5.462,0 -9.822,2.313 -13.082,6.938c-4.096,5.902 -6.144,16.804 -6.144,32.705Z" style="fill:#fafafa;fill-rule:nonzero;"/><path d="M2840.4,3337.22l-0,11.43l-64.023,-0c-0.089,-2.863 0.374,-5.616 1.387,-8.259c1.63,-4.361 4.24,-8.655 7.83,-12.884c3.589,-4.229 8.776,-9.118 15.559,-14.668c10.528,-8.633 17.641,-15.472 21.341,-20.515c3.7,-5.043 5.55,-9.812 5.55,-14.304c0,-4.714 -1.684,-8.689 -5.054,-11.926c-3.37,-3.238 -7.763,-4.857 -13.181,-4.857c-5.726,0 -10.307,1.718 -13.743,5.154c-3.436,3.436 -5.176,8.193 -5.22,14.271l-12.223,-1.255c0.837,-9.118 3.986,-16.066 9.448,-20.846c5.462,-4.779 12.796,-7.168 22.002,-7.168c9.294,-0 16.65,2.576 22.068,7.73c5.418,5.154 8.127,11.541 8.127,19.161c-0,3.876 -0.793,7.686 -2.379,11.43c-1.586,3.744 -4.217,7.686 -7.895,11.827c-3.678,4.14 -9.79,9.823 -18.335,17.046c-7.136,5.991 -11.717,10.054 -13.743,12.191c-2.026,2.136 -3.7,4.283 -5.022,6.442l47.506,-0Z" style="fill:#fafafa;fill-rule:nonzero;"/><path d="M2892.54,3348.65l-11.893,-0l-0,-75.784c-2.863,2.731 -6.618,5.462 -11.266,8.193c-4.647,2.731 -8.82,4.779 -12.52,6.144l-0,-11.496c6.651,-3.127 12.465,-6.915 17.443,-11.364c4.977,-4.449 8.501,-8.766 10.571,-12.95l7.665,-0l-0,97.257Z" style="fill:#fafafa;fill-rule:nonzero;"/><path d="M2433.05,3423.31l0,531.258l-146.799,0l-0,-348.115c-23.754,18.053 -46.736,32.662 -68.946,43.827c-22.21,11.164 -50.062,21.853 -83.555,32.067l-0,-119.007c49.408,-15.915 87.771,-35.037 115.088,-57.366c27.317,-22.329 48.696,-49.884 64.136,-82.664l120.076,-0Z" style="fill:#fafafa;fill-rule:nonzero;"/><path d="M3010.98,3549.8l-144.306,17.816c-3.801,-20.191 -10.155,-34.444 -19.063,-42.758c-8.907,-8.314 -19.894,-12.471 -32.958,-12.471c-23.517,0 -41.807,11.877 -54.872,35.631c-9.502,17.103 -16.509,53.685 -21.022,109.744c17.34,-17.578 35.156,-30.583 53.446,-39.016c18.291,-8.433 39.432,-12.649 63.423,-12.649c46.558,0 85.931,16.628 118.117,49.883c32.187,33.256 48.28,75.419 48.28,126.491c0,34.443 -8.135,65.917 -24.407,94.422c-16.271,28.505 -38.838,50.061 -67.699,64.67c-28.861,14.609 -65.026,21.913 -108.496,21.913c-52.259,0 -94.185,-8.908 -125.778,-26.723c-31.593,-17.816 -56.831,-46.261 -75.716,-85.336c-18.884,-39.076 -28.326,-90.8 -28.326,-155.173c-0,-94.304 19.834,-163.369 59.503,-207.195c39.67,-43.826 94.66,-65.739 164.972,-65.739c41.57,-0 74.409,4.81 98.52,14.43c24.11,9.621 44.123,23.695 60.038,42.223c15.915,18.528 28.03,41.807 36.344,69.837Zm-267.233,232.671c0,28.267 7.126,50.418 21.379,66.451c14.252,16.034 31.711,24.051 52.377,24.051c19.003,0 34.919,-7.245 47.746,-21.734c12.827,-14.49 19.241,-36.107 19.241,-64.849c-0,-29.455 -6.652,-51.902 -19.954,-67.343c-13.302,-15.44 -29.811,-23.16 -49.527,-23.16c-20.191,0 -37.116,7.483 -50.774,22.448c-13.659,14.965 -20.488,36.343 -20.488,64.136Z" style="fill:#fafafa;fill-rule:nonzero;"/></g></g></svg>