<?xml version="1.0" encoding="UTF-8" standalone="no"?><!DOCTYPE svg PUBLIC "-//W3C//DTD SVG 1.1//EN" "http://www.w3.org/Graphics/SVG/1.1/DTD/svg11.dtd"><svg width="100%" height="100%" viewBox="0 0 8000 4500" version="1.1" xmlns="http://www.w3.org/2000/svg" xmlns:xlink="http://www.w3.org/1999/xlink" xml:space="preserve" xmlns:serif="http://www.serif.com/" style="fill-rule:evenodd;clip-rule:evenodd;stroke-linejoin:round;stroke-miterlimit:2;"><g><path d="M1794.81,2744.14l-219.884,0l0,-683.406l219.884,0l0,683.406Zm-308.127,-463.374l-56.794,0c-57.973,0 -104.999,46.91 -104.999,104.943l0,64.994c0,159.226 -129.046,288.244 -288.184,288.244l-63.432,0l0,-220.033l57.619,0c40.774,0 73.993,-33.219 73.993,-73.993l0,-53.371c0,-182.653 148.223,-330.816 330.965,-330.816l50.832,0l0,220.032Zm-604.984,-0l-153.385,-0l0,157.312c0,44.636 36.111,80.836 80.748,80.836l72.637,-0l0,220.033l-68.626,-0c-168.194,-0 -304.823,-136.658 -304.823,-305.089l0,-686.444l220.064,-0l0,313.32l153.385,-0l0,220.032Zm803.127,-522.671c60.833,-0 109.984,49.388 109.984,109.956c0,60.925 -49.151,110.076 -109.984,110.076c-60.6,-0 -109.9,-49.151 -109.9,-110.076c0,-60.568 49.3,-109.956 109.9,-109.956m-530.786,-371.382c-476.796,-0 -863.373,386.4 -863.373,863.252c0,476.707 386.577,863.313 863.373,863.313c476.824,-0 863.429,-386.606 863.429,-863.313c0,-476.852 -386.605,-863.252 -863.429,-863.252" style="fill:#fff;fill-rule:nonzero;"/><path d="M2313.57,2196.48l0,-283.199l-102.287,0l0,-61.542l274.79,0l0,61.542l-101.579,0l0,283.199l-70.924,0Z" style="fill:#fff;fill-rule:nonzero;"/><path d="M2519.79,2042.49l100.191,0c-0.648,-17.17 -5.19,-30.209 -13.719,-39.209c-8.496,-8.968 -20.711,-13.453 -36.642,-13.453c-14.809,0 -26.464,4.514 -34.961,13.573c-8.497,9.057 -13.453,22.096 -14.869,39.089m99.218,76.769l67.886,0c-6.844,26.847 -20.711,47.883 -41.539,63.075c-20.828,15.223 -46.23,22.835 -76.178,22.835c-36.819,0 -65.995,-12.391 -87.535,-37.113c-21.507,-24.723 -32.305,-58.239 -32.305,-100.518c0,-41.655 10.621,-74.524 31.835,-98.538c21.213,-24.046 50.244,-36.051 87.064,-36.051c39,0 69.093,11.828 90.335,35.46c21.214,23.632 31.835,57.325 31.835,100.988c0,4.84 -0.06,8.468 -0.117,10.887c-0.089,2.421 -0.266,4.722 -0.591,6.903l-169.908,0c0.917,19.975 5.813,35.021 14.635,45.171c8.819,10.147 21.508,15.224 38.027,15.224c11.715,0 21.302,-2.333 28.797,-6.904c7.492,-4.602 13.393,-11.743 17.759,-21.419" style="fill:#fff;fill-rule:nonzero;"/><path d="M2889.1,2100.54l67.15,0c-2.804,32.306 -14.604,57.796 -35.347,76.528c-20.74,18.735 -47.409,28.089 -80.04,28.089c-36.969,0 -65.939,-12.069 -86.944,-36.172c-20.977,-24.102 -31.452,-57.47 -31.452,-100.043c0,-42.455 10.709,-75.735 32.16,-99.837c21.447,-24.075 50.981,-36.172 88.565,-36.172c32.957,0 59.361,8.762 79.247,26.227c19.915,17.496 31.007,41.808 33.368,73.051l-67.652,0c-1.887,-13.602 -6.639,-23.985 -14.279,-31.155c-7.64,-7.169 -17.701,-10.769 -30.181,-10.769c-16.845,0 -29.473,6.638 -37.793,19.886c-8.38,13.276 -12.54,33.19 -12.54,59.683c0,24.517 4.309,43.369 12.982,56.528c8.674,13.188 21.094,19.794 37.351,19.794c12.628,0 22.747,-3.834 30.419,-11.506c7.64,-7.64 12.624,-18.997 14.986,-34.132" style="fill:#fff;fill-rule:nonzero;"/><path d="M3000.72,2196.48l-0,-344.741l67.649,0l-0,118.425c9.177,-11.566 20.18,-20.24 32.865,-26.11c12.745,-5.842 26.967,-8.763 42.721,-8.763c14.987,0 28.5,2.567 40.597,7.729c12.126,5.134 21.919,12.48 29.414,21.978c5.105,6.405 8.734,13.751 10.858,22.011c2.092,8.291 3.154,21.536 3.154,39.8l-0,169.671l-67.649,0l-0,-133.177c-0,-31.509 -2.892,-51.275 -8.645,-59.301c-5.781,-8.054 -16.165,-12.097 -31.123,-12.097c-16.052,0 -28.797,4.811 -38.147,14.427c-9.382,9.591 -14.045,22.658 -14.045,39.209l-0,150.939l-67.649,0Z" style="fill:#fff;fill-rule:nonzero;"/><path d="M3273.62,2113.62l67.886,0c0.592,12.951 5.283,22.598 14.013,28.911c8.734,6.316 21.862,9.502 39.33,9.502c13.276,0 23.511,-2.244 30.769,-6.698c7.258,-4.426 10.886,-10.71 10.886,-18.824c0,-11.563 -13.541,-20.208 -40.713,-25.961c-11.064,-2.362 -19.883,-4.398 -26.433,-6.108c-33.102,-8.436 -56.057,-18.409 -68.948,-29.944c-12.865,-11.566 -19.295,-27.172 -19.295,-46.821c0,-26.053 9.382,-46.704 28.203,-61.927c18.795,-15.196 44.254,-22.807 76.414,-22.807c34.016,0 60.717,7.583 80.157,22.718c19.444,15.135 29.739,36.437 31.01,63.903l-66.236,0c-0.443,-10.798 -4.571,-19.118 -12.303,-25.048c-7.7,-5.93 -18.438,-8.911 -32.185,-8.911c-12.922,0 -22.57,1.979 -28.886,5.842c-6.312,3.926 -9.47,9.768 -9.47,17.556c0,10.147 16.937,19.147 50.775,26.935c7.818,1.71 13.957,3.126 18.499,4.22c33.87,7.934 56.999,17.525 69.39,28.766c12.42,11.24 18.616,27.051 18.616,47.529c0,28.854 -10.179,50.832 -30.536,65.995c-20.385,15.135 -49.975,22.719 -88.831,22.719c-35.109,0 -62.575,-7.906 -82.373,-23.66c-19.826,-15.755 -29.739,-37.471 -29.739,-65.054l0,-2.833Z" style="fill:#fff;fill-rule:nonzero;"/><path d="M3559.63,2298.53l0,-54.996c2.181,0.297 4.426,0.531 6.784,0.68c2.361,0.148 5.37,0.237 9.116,0.237c13.425,0 23.487,-3.13 30.182,-9.471c6.726,-6.316 10.061,-15.786 10.061,-28.443c0,-0.913 -0.148,-2.092 -0.442,-3.508c-0.326,-1.388 -0.62,-2.567 -0.946,-3.484l-91.751,-257.471l74.906,0l53.608,183.51l52.188,-183.51l71.604,0l-104.617,300.044c-7.817,22.481 -17.553,37.796 -29.236,45.968c-11.712,8.231 -29.268,12.302 -52.663,12.302c-4.22,0 -8.734,-0.148 -13.57,-0.474c-4.84,-0.294 -9.913,-0.765 -15.224,-1.384" style="fill:#fff;fill-rule:nonzero;"/><path d="M3792.71,2113.62l67.886,0c0.592,12.951 5.283,22.598 14.017,28.911c8.73,6.316 21.861,9.502 39.326,9.502c13.276,0 23.515,-2.244 30.772,-6.698c7.258,-4.426 10.887,-10.71 10.887,-18.824c0,-11.563 -13.542,-20.208 -40.714,-25.961c-11.063,-2.362 -19.886,-4.398 -26.436,-6.108c-33.102,-8.436 -56.054,-18.409 -68.948,-29.944c-12.862,-11.566 -19.295,-27.172 -19.295,-46.821c0,-26.053 9.382,-46.704 28.206,-61.927c18.792,-15.196 44.255,-22.807 76.411,-22.807c34.016,0 60.717,7.583 80.161,22.718c19.44,15.135 29.739,36.437 31.006,63.903l-66.233,0c-0.442,-10.798 -4.574,-19.118 -12.302,-25.048c-7.7,-5.93 -18.442,-8.911 -32.189,-8.911c-12.922,0 -22.57,1.979 -28.882,5.842c-6.316,3.926 -9.471,9.768 -9.471,17.556c0,10.147 16.934,19.147 50.773,26.935c7.82,1.71 13.956,3.126 18.498,4.22c33.87,7.934 56.999,17.525 69.39,28.766c12.424,11.24 18.619,27.051 18.619,47.529c0,28.854 -10.178,50.832 -30.535,65.995c-20.389,15.135 -49.979,22.719 -88.835,22.719c-35.109,0 -62.575,-7.906 -82.373,-23.66c-19.826,-15.755 -29.739,-37.471 -29.739,-65.054l0,-2.833Z" style="fill:#fff;fill-rule:nonzero;"/><path d="M4181.71,2198.36c-6.256,0.149 -13.691,0.443 -22.365,0.797c-8.642,0.414 -14.129,0.619 -16.462,0.619c-26.078,0 -43.901,-4.868 -53.488,-14.632c-9.619,-9.736 -14.398,-29.003 -14.398,-57.679l0,-137.631l-33.722,0l0,-47.766l33.722,0l0,-69.48l67.386,0l0,69.48l39.327,0l0,47.766l-39.327,0l0,140.877c0,6.727 1.505,11.12 4.454,13.216c2.981,2.124 9.056,3.187 18.261,3.187l16.612,0l0,51.246Z" style="fill:#fff;fill-rule:nonzero;"/><path d="M4278.57,2042.49l100.192,0c-0.648,-17.17 -5.19,-30.209 -13.719,-39.209c-8.497,-8.968 -20.711,-13.453 -36.642,-13.453c-14.81,0 -26.464,4.514 -34.961,13.573c-8.497,9.057 -13.454,22.096 -14.87,39.089m99.218,76.769l67.886,0c-6.843,26.847 -20.711,47.883 -41.538,63.075c-20.828,15.223 -46.23,22.835 -76.178,22.835c-36.819,0 -65.995,-12.391 -87.535,-37.113c-21.507,-24.723 -32.305,-58.239 -32.305,-100.518c0,-41.655 10.621,-74.524 31.834,-98.538c21.214,-24.046 50.245,-36.051 87.064,-36.051c39.001,0 69.094,11.828 90.336,35.46c21.213,23.632 31.835,57.325 31.835,100.988c0,4.84 -0.061,8.468 -0.117,10.887c-0.089,2.421 -0.266,4.722 -0.592,6.903l-169.908,0c0.917,19.975 5.814,35.021 14.636,45.171c8.819,10.147 21.508,15.224 38.027,15.224c11.715,0 21.302,-2.333 28.797,-6.904c7.491,-4.602 13.393,-11.743 17.758,-21.419" style="fill:#fff;fill-rule:nonzero;"/><path d="M4494.15,2196.48l-0,-254.405l64.579,0l-0,28.089c9.531,-11.683 20.123,-20.506 31.835,-26.436c11.711,-5.958 24.665,-8.911 38.855,-8.911c16.08,0 29.799,3.009 41.185,9.028c11.389,6.019 21.302,15.489 29.711,28.411c8.911,-12.448 19.411,-21.83 31.625,-28.085c12.158,-6.224 25.728,-9.354 40.686,-9.354c25.607,0 45.876,7.495 60.866,22.481c14.986,14.958 22.481,35.436 22.481,61.308l-0,177.874l-67.178,0l-0,-163.829c-0,-12.335 -3.307,-21.894 -9.973,-28.649c-6.61,-6.815 -15.872,-10.206 -27.704,-10.206c-13.248,0 -23.808,4.337 -31.597,12.979c-7.817,8.673 -11.712,20.505 -11.712,35.463l-0,154.242l-66.47,0l-0,-163.358c-0,-12.48 -3.218,-22.156 -9.707,-29.031c-6.49,-6.844 -15.549,-10.295 -27.261,-10.295c-13.276,0 -23.748,4.365 -31.48,13.099c-7.729,8.762 -11.595,20.679 -11.595,35.814l-0,153.771l-67.146,0Z" style="fill:#fff;fill-rule:nonzero;"/><path d="M4900.19,2113.62l67.886,0c0.587,12.951 5.278,22.598 14.012,28.911c8.734,6.316 21.862,9.502 39.326,9.502c13.277,0 23.515,-2.244 30.773,-6.698c7.258,-4.426 10.887,-10.71 10.887,-18.824c-0,-11.563 -13.542,-20.208 -40.714,-25.961c-11.064,-2.362 -19.886,-4.398 -26.436,-6.108c-33.102,-8.436 -56.054,-18.409 -68.948,-29.944c-12.862,-11.566 -19.295,-27.172 -19.295,-46.821c-0,-26.053 9.382,-46.704 28.206,-61.927c18.792,-15.196 44.254,-22.807 76.411,-22.807c34.019,0 60.717,7.583 80.161,22.718c19.443,15.135 29.738,36.437 31.006,63.903l-66.233,0c-0.442,-10.798 -4.574,-19.118 -12.303,-25.048c-7.7,-5.93 -18.438,-8.911 -32.188,-8.911c-12.923,0 -22.57,1.979 -28.882,5.842c-6.313,3.926 -9.471,9.768 -9.471,17.556c-0,10.147 16.934,19.147 50.776,26.935c7.817,1.71 13.952,3.126 18.498,4.22c33.867,7.934 56.999,17.525 69.391,28.766c12.419,11.24 18.615,27.051 18.615,47.529c-0,28.854 -10.179,50.832 -30.536,65.995c-20.385,15.135 -49.979,22.719 -88.834,22.719c-35.106,0 -62.575,-7.906 -82.37,-23.66c-19.825,-15.755 -29.738,-37.471 -29.738,-65.054l-0,-2.833Z" style="fill:#fff;fill-rule:nonzero;"/><path d="M5302.27,2090l69.979,0c2.655,18.88 10.387,32.865 23.161,42.009c12.805,9.117 31.303,13.691 55.494,13.691c20.563,0 36.112,-3.657 46.556,-11.003c10.472,-7.318 15.666,-18.177 15.666,-32.543c0,-20.888 -30.004,-38.208 -90.073,-51.955c-0.797,-0.148 -1.505,-0.294 -2.125,-0.442c-1.533,-0.326 -3.951,-0.885 -7.257,-1.654c-32.129,-7.02 -55.081,-14.897 -68.8,-23.66c-12.186,-7.76 -21.447,-18.261 -27.852,-31.449c-6.401,-13.187 -9.587,-28.765 -9.587,-46.704c0,-33.545 11.389,-59.24 34.164,-77.091c22.775,-17.878 55.701,-26.818 98.776,-26.818c40.243,0 71.72,9.531 94.439,28.56c22.686,19.029 34.667,45.876 35.934,80.511l-68.123,0c-1.268,-16.696 -7.669,-29.413 -19.175,-38.147c-11.566,-8.731 -28.029,-13.128 -49.388,-13.128c-18.586,0 -32.896,3.629 -42.958,10.915c-10.058,7.258 -15.103,17.557 -15.103,30.978c0,18.265 19.589,31.923 58.738,40.98c10.621,2.478 18.884,4.425 24.814,5.841c25.136,6.405 42.955,11.389 53.487,14.99c10.533,3.569 19.71,7.552 27.498,11.917c14.041,7.82 24.574,18.144 31.566,31.01c7.052,12.89 10.564,28.29 10.564,46.258c0,35.846 -12.097,63.669 -36.288,83.407c-24.195,19.765 -58.271,29.618 -102.259,29.618c-43.398,0 -77.385,-10.058 -102.051,-30.21c-24.633,-20.119 -37.938,-48.739 -39.797,-85.881" style="fill:#fff;fill-rule:nonzero;"/><path d="M5689.61,2042.49l100.192,0c-0.648,-17.17 -5.19,-30.209 -13.719,-39.209c-8.497,-8.968 -20.711,-13.453 -36.643,-13.453c-14.809,0 -26.464,4.514 -34.96,13.573c-8.497,9.057 -13.454,22.096 -14.87,39.089m99.218,76.769l67.886,0c-6.843,26.847 -20.711,47.883 -41.539,63.075c-20.827,15.223 -46.229,22.835 -76.177,22.835c-36.82,0 -65.996,-12.391 -87.535,-37.113c-21.508,-24.723 -32.306,-58.239 -32.306,-100.518c0,-41.655 10.621,-74.524 31.835,-98.538c21.214,-24.046 50.245,-36.051 87.064,-36.051c39.001,0 69.093,11.828 90.335,35.46c21.214,23.632 31.835,57.325 31.835,100.988c0,4.84 -0.06,8.468 -0.117,10.887c-0.088,2.421 -0.265,4.722 -0.591,6.903l-169.908,0c0.917,19.975 5.813,35.021 14.636,45.171c8.819,10.147 21.507,15.224 38.027,15.224c11.715,0 21.302,-2.333 28.797,-6.904c7.491,-4.602 13.393,-11.743 17.758,-21.419" style="fill:#fff;fill-rule:nonzero;"/><path d="M5905.15,2196.48l-0,-254.405l63.195,0l-0,43.546c8.883,-17.465 19.267,-30.327 31.099,-38.501c11.888,-8.2 25.989,-12.303 42.395,-12.303c2.655,0 4.691,0.06 6.196,0.12c1.473,0.089 2.683,0.206 3.629,0.354l0.233,69.037l-22.715,0c-18.586,0 -32.514,4.836 -41.896,14.516c-9.35,9.675 -14.041,24.042 -14.041,43.043l-0,134.593l-68.095,0Z" style="fill:#fff;fill-rule:nonzero;"/><path d="M6151.84,2196.48l-91.55,-254.405l75.381,0l52.22,182.536l52.635,-182.536l71.837,0l-91.044,254.405l-69.479,0Z" style="fill:#fff;fill-rule:nonzero;"/><path d="M6344.44,1942.08l68.119,0l-0,254.402l-68.119,0l-0,-254.402Zm-0,-90.311l68.119,0l-0,62.016l-68.119,0l-0,-62.016Z" style="fill:#fff;fill-rule:nonzero;"/><path d="M6627.17,2100.54l67.147,0c-2.801,32.306 -14.604,57.796 -35.344,76.528c-20.739,18.735 -47.412,28.089 -80.04,28.089c-36.968,0 -65.939,-12.069 -86.947,-36.172c-20.977,-24.102 -31.449,-57.47 -31.449,-100.043c0,-42.455 10.71,-75.735 32.157,-99.837c21.451,-24.075 50.981,-36.172 88.569,-36.172c32.953,0 59.361,8.762 79.243,26.227c19.915,17.496 31.01,41.808 33.368,73.051l-67.649,0c-1.887,-13.602 -6.638,-23.985 -14.278,-31.155c-7.644,-7.169 -17.702,-10.769 -30.181,-10.769c-16.849,0 -29.474,6.638 -37.794,19.886c-8.38,13.276 -12.539,33.19 -12.539,59.683c0,24.517 4.308,43.369 12.982,56.528c8.674,13.188 21.093,19.794 37.351,19.794c12.624,0 22.746,-3.834 30.415,-11.506c7.643,-7.64 12.628,-18.997 14.989,-34.132" style="fill:#fff;fill-rule:nonzero;"/><path d="M6794.98,2042.49l100.191,0c-0.651,-17.17 -5.193,-30.209 -13.718,-39.209c-8.497,-8.968 -20.711,-13.453 -36.643,-13.453c-14.813,0 -26.464,4.514 -34.961,13.573c-8.497,9.057 -13.453,22.096 -14.869,39.089m99.218,76.769l67.886,0c-6.847,26.847 -20.711,47.883 -41.543,63.075c-20.827,15.223 -46.229,22.835 -76.174,22.835c-36.819,0 -65.999,-12.391 -87.535,-37.113c-21.507,-24.723 -32.305,-58.239 -32.305,-100.518c-0,-41.655 10.621,-74.524 31.831,-98.538c21.214,-24.046 50.245,-36.051 87.064,-36.051c39.004,0 69.097,11.828 90.339,35.46c21.21,23.632 31.831,57.325 31.831,100.988c-0,4.84 -0.056,8.468 -0.117,10.887c-0.088,2.421 -0.265,4.722 -0.591,6.903l-169.904,0c0.913,19.975 5.809,35.021 14.632,45.171c8.822,10.147 21.507,15.224 38.03,15.224c11.712,0 21.299,-2.333 28.794,-6.904c7.495,-4.602 13.393,-11.743 17.762,-21.419" style="fill:#fff;fill-rule:nonzero;"/><path d="M6996.25,2113.62l67.886,0c0.591,12.951 5.282,22.598 14.013,28.911c8.734,6.316 21.861,9.502 39.329,9.502c13.277,0 23.512,-2.244 30.77,-6.698c7.257,-4.426 10.886,-10.71 10.886,-18.824c0,-11.563 -13.542,-20.208 -40.714,-25.961c-11.063,-2.362 -19.882,-4.398 -26.432,-6.108c-33.102,-8.436 -56.058,-18.409 -68.948,-29.944c-12.866,-11.566 -19.295,-27.172 -19.295,-46.821c0,-26.053 9.382,-46.704 28.202,-61.927c18.796,-15.196 44.255,-22.807 76.415,-22.807c34.016,0 60.717,7.583 80.157,22.718c19.444,15.135 29.739,36.437 31.01,63.903l-66.236,0c-0.443,-10.798 -4.571,-19.118 -12.303,-25.048c-7.7,-5.93 -18.438,-8.911 -32.185,-8.911c-12.923,0 -22.57,1.979 -28.886,5.842c-6.312,3.926 -9.47,9.768 -9.47,17.556c0,10.147 16.937,19.147 50.775,26.935c7.817,1.71 13.956,3.126 18.498,4.22c33.871,7.934 57,17.525 69.391,28.766c12.42,11.24 18.615,27.051 18.615,47.529c0,28.854 -10.178,50.832 -30.535,65.995c-20.385,15.135 -49.976,22.719 -88.831,22.719c-35.109,0 -62.575,-7.906 -82.373,-23.66c-19.826,-15.755 -29.739,-37.471 -29.739,-65.054l0,-2.833Z" style="fill:#fff;fill-rule:nonzero;"/><path d="M7526.8,1972.27l8.171,-5.841c7.495,-5.166 13.039,-10.919 16.639,-17.32c3.601,-6.401 5.371,-13.747 5.371,-22.01c0,-7.966 -2.45,-14.278 -7.378,-18.969c-4.925,-4.663 -11.563,-6.992 -20.003,-6.992c-8.553,0 -15.368,2.361 -20.357,7.109c-5.013,4.779 -7.491,11.212 -7.491,19.295c0,4.397 1.207,9.148 3.629,14.31c2.418,5.162 5.898,10.592 10.412,16.374l11.007,14.044Zm-18.736,73.728l-17.762,12.89c-7.169,4.957 -12.568,10.975 -16.165,17.999c-3.572,7.021 -5.399,14.898 -5.399,23.661c-0,13.248 4.542,24.4 13.599,33.427c9.059,9.057 20.357,13.571 33.93,13.571c9.97,-0 19.561,-2.036 28.677,-6.196c9.116,-4.1 17.581,-10.15 25.402,-18.144l-62.282,-77.208Zm-33.927,-42.605l-13.574,-17.79c-7.02,-9.35 -12.037,-18.144 -15.103,-26.315c-3.009,-8.203 -4.545,-16.817 -4.545,-25.845c-0,-24.987 7.965,-44.845 23.957,-59.594c15.992,-14.753 37.733,-22.099 65.203,-22.099c26.375,-0 47.203,6.787 62.487,20.329c15.28,13.57 22.952,31.951 22.952,55.02c-0,17.496 -4.514,33.134 -13.454,46.942c-8.999,13.775 -23.072,26.786 -42.278,38.943l49.387,60.834c4.691,-7.612 8.38,-16.197 11.124,-25.728c2.744,-9.498 4.631,-20.119 5.725,-31.831l60.862,-0c-1.71,20.297 -5.93,39.089 -12.625,56.408c-6.698,17.32 -15.932,33.163 -27.615,47.529l62.693,76.295l-79.569,-0l-23.395,-28.794c-13.751,12.657 -28.826,22.184 -45.288,28.677c-16.463,6.461 -33.662,9.704 -51.601,9.704c-31.834,-0 -57.856,-9.47 -78.036,-28.323c-20.236,-18.88 -30.326,-42.983 -30.326,-72.311c-0,-21.862 5.632,-40.654 16.873,-56.408c11.212,-15.783 29.916,-30.978 56.146,-45.643" style="fill:#fff;fill-rule:nonzero;"/><rect x="2244.52" y="2426.93" width="70.895" height="344.741" style="fill:#fff;"/><path d="M2383.55,2771.64l0,-254.402l66.707,0l0,30.181c9.499,-12.334 20.74,-21.568 33.662,-27.735c12.982,-6.135 27.409,-9.233 43.312,-9.233c28.086,0 49.123,7.318 63.075,21.89c13.956,14.575 20.948,36.554 20.948,65.882l0,173.417l-68.091,0l0,-153.768c0,-18.265 -3.07,-31.275 -9.237,-39.064c-6.164,-7.817 -16.197,-11.74 -30.093,-11.74c-16.076,0 -28.765,4.808 -38.147,14.427c-9.35,9.587 -14.041,22.658 -14.041,39.209l0,150.936l-68.095,0Z" style="fill:#fff;fill-rule:nonzero;"/><path d="M2782.82,2773.52c-6.256,0.149 -13.69,0.443 -22.364,0.797c-8.642,0.414 -14.13,0.62 -16.463,0.62c-26.078,0 -43.9,-4.868 -53.487,-14.633c-9.619,-9.736 -14.399,-29.002 -14.399,-57.679l0,-137.631l-33.721,0l0,-47.766l33.721,0l0,-69.479l67.387,0l0,69.479l39.326,0l0,47.766l-39.326,0l0,140.878c0,6.726 1.505,11.12 4.454,13.216c2.981,2.124 9.056,3.186 18.261,3.186l16.611,0l0,51.246Z" style="fill:#fff;fill-rule:nonzero;"/><path d="M2879.71,2617.65l100.192,0c-0.651,-17.171 -5.194,-30.21 -13.719,-39.209c-8.497,-8.968 -20.711,-13.454 -36.642,-13.454c-14.813,0 -26.464,4.514 -34.961,13.574c-8.497,9.056 -13.454,22.095 -14.87,39.089m99.218,76.769l67.886,0c-6.847,26.846 -20.711,47.883 -41.542,63.074c-20.828,15.224 -46.23,22.836 -76.174,22.836c-36.819,0 -65.999,-12.392 -87.535,-37.114c-21.507,-24.722 -32.305,-58.238 -32.305,-100.517c0,-41.656 10.621,-74.524 31.831,-98.539c21.213,-24.046 50.244,-36.051 87.064,-36.051c39.004,0 69.097,11.828 90.339,35.46c21.21,23.632 31.831,57.325 31.831,100.988c0,4.84 -0.057,8.469 -0.117,10.887c-0.088,2.422 -0.265,4.723 -0.591,6.904l-169.905,0c0.914,19.974 5.81,35.021 14.633,45.171c8.822,10.146 21.507,15.223 38.03,15.223c11.711,0 21.299,-2.333 28.794,-6.903c7.494,-4.603 13.393,-11.744 17.761,-21.419" style="fill:#fff;fill-rule:nonzero;"/><path d="M3150.97,2640.35c-0,23.869 4.779,42.219 14.398,54.992c9.588,12.806 23.278,19.207 41.068,19.207c17.939,0 31.626,-6.401 41.068,-19.207c9.442,-12.773 14.162,-31.42 14.162,-55.937c-0,-23.218 -4.868,-41.245 -14.604,-53.93c-9.765,-12.717 -23.632,-19.09 -41.539,-19.09c-17.319,0 -30.744,6.493 -40.303,19.415c-9.499,12.979 -14.25,31.155 -14.25,54.55m-61.542,155.864l74.436,-0.238c2.184,8.586 6.638,14.99 13.453,19.207c6.755,4.192 15.871,6.316 27.232,6.316c21.242,0 36.052,-4.514 44.488,-13.454c8.409,-8.971 12.629,-25.579 12.629,-49.741l-0,-22.69c-7.17,12.302 -16.491,21.39 -27.969,27.232c-11.478,5.87 -25.756,8.791 -42.927,8.791c-32.953,0 -59.3,-11.712 -79.126,-35.227c-19.826,-23.483 -29.711,-54.726 -29.711,-93.73c-0,-41.185 9.708,-73.905 29.119,-98.185c19.444,-24.251 45.614,-36.377 78.539,-36.377c17.171,0 31.803,3.275 43.869,9.825c12.097,6.549 21.982,16.551 29.622,29.944l-0,-30.652l64.583,0l-0,237.557c-0,26.669 -2.51,47.058 -7.495,61.07c-4.985,14.073 -13.482,25.817 -25.491,35.344c-10.327,7.965 -23.366,14.016 -39.209,18.144c-15.843,4.132 -33.899,6.227 -54.195,6.227c-33.988,-0 -60.749,-6.963 -80.278,-20.831c-19.503,-13.896 -30.004,-33.396 -31.569,-58.532" style="fill:#fff;fill-rule:nonzero;"/><path d="M3387.6,2771.64l0,-254.402l63.195,0l0,43.546c8.879,-17.468 19.267,-30.33 31.095,-38.501c11.892,-8.203 25.993,-12.303 42.396,-12.303c2.655,0 4.691,0.057 6.195,0.117c1.477,0.088 2.687,0.205 3.629,0.354l0.237,69.037l-22.718,0c-18.587,0 -32.511,4.839 -41.893,14.515c-9.353,9.676 -14.044,24.046 -14.044,43.043l0,134.594l-68.092,0Z" style="fill:#fff;fill-rule:nonzero;"/><path d="M3716.19,2646.43c-11.091,5.162 -23.865,9.262 -38.264,12.42c-14.426,3.098 -21.889,4.751 -22.364,4.896c-12.005,3.424 -20.385,7.732 -25.136,12.866c-4.78,5.162 -7.138,12.242 -7.138,21.298c0,9.382 3.01,16.817 9.117,22.365c6.075,5.516 14.278,8.288 24.573,8.288c18.41,0 32.869,-5.19 43.401,-15.546c10.533,-10.384 15.811,-24.517 15.811,-42.484l0,-24.103Zm1.151,93.611c-8.585,13.276 -19.794,23.366 -33.69,30.301c-13.867,6.961 -30.036,10.444 -48.446,10.444c-24.662,0 -43.663,-7.052 -56.999,-21.065c-13.333,-14.076 -19.971,-34.019 -19.971,-59.924c0,-24.042 6.638,-42.363 19.971,-55.02c13.336,-12.597 35.375,-21.274 66.116,-25.965c7.052,-1.09 16.228,-2.358 27.614,-3.717c28.886,-3.746 43.313,-12.122 43.313,-25.076c0,-10.296 -3.218,-17.67 -9.591,-22.096c-6.401,-4.485 -17.111,-6.698 -32.068,-6.698c-13.719,0 -24.28,2.744 -31.598,8.231c-7.346,5.428 -11.003,13.248 -11.003,23.395l0,3.749l-63.67,0l0,-4.723c0,-26.021 9.237,-46.527 27.647,-61.425c18.409,-14.897 43.84,-22.332 76.294,-22.332c35.58,0 62.809,6.164 81.782,18.466c18.969,12.335 28.439,30.125 28.439,53.374l0,144.62c0,10.653 1.091,18.53 3.275,23.78c2.185,5.222 5.842,9.177 11.004,11.804l0,11.474l-70.924,0c-2.33,-4.365 -4.132,-9.173 -5.399,-14.515c-1.239,-5.311 -1.919,-10.975 -2.096,-17.082" style="fill:#fff;fill-rule:nonzero;"/><path d="M3953.93,2773.52c-6.252,0.149 -13.687,0.443 -22.361,0.797c-8.645,0.414 -14.133,0.62 -16.462,0.62c-26.082,0 -43.901,-4.868 -53.491,-14.633c-9.616,-9.736 -14.395,-29.002 -14.395,-57.679l-0,-137.631l-33.722,0l-0,-47.766l33.722,0l-0,-69.479l67.383,0l-0,69.479l39.326,0l-0,47.766l-39.326,0l-0,140.878c-0,6.726 1.505,11.12 4.454,13.216c2.981,2.124 9.059,3.186 18.264,3.186l16.608,0l-0,51.246Z" style="fill:#fff;fill-rule:nonzero;"/><path d="M3994.68,2517.24l68.124,-0l-0,254.402l-68.124,-0l-0,-254.402Zm-0,-90.307l68.124,-0l-0,62.012l-68.124,-0l-0,-62.012Z" style="fill:#fff;fill-rule:nonzero;"/><path d="M4179.8,2644.1c0,25.257 5.19,44.785 15.545,58.504c10.388,13.719 25.197,20.622 44.375,20.622c18.881,0 33.513,-6.903 43.9,-20.622c10.356,-13.719 15.546,-33.247 15.546,-58.504c0,-25.137 -5.162,-44.52 -15.457,-58.179c-10.299,-13.658 -24.96,-20.474 -43.989,-20.474c-19.178,0 -33.987,6.816 -44.375,20.474c-10.355,13.659 -15.545,33.042 -15.545,58.179m-69.037,0c0,-42.307 11.474,-75.526 34.398,-99.718c22.956,-24.162 54.465,-36.26 94.559,-36.26c39.946,0 71.426,12.098 94.407,36.26c23.044,24.192 34.55,57.411 34.55,99.718c0,42.427 -11.506,75.735 -34.55,99.926c-22.981,24.195 -54.461,36.288 -94.407,36.288c-40.094,0 -71.603,-12.093 -94.559,-36.288c-22.924,-24.191 -34.398,-57.499 -34.398,-99.926" style="fill:#fff;fill-rule:nonzero;"/><path d="M4415.02,2771.64l0,-254.402l66.704,0l0,30.181c9.502,-12.334 20.743,-21.568 33.665,-27.735c12.979,-6.135 27.406,-9.233 43.309,-9.233c28.085,0 49.122,7.318 63.078,21.89c13.953,14.575 20.945,36.554 20.945,65.882l0,173.417l-68.092,0l0,-153.768c0,-18.265 -3.069,-31.275 -9.233,-39.064c-6.167,-7.817 -16.197,-11.74 -30.093,-11.74c-16.08,0 -28.765,4.808 -38.147,14.427c-9.354,9.587 -14.044,22.658 -14.044,39.209l0,150.936l-68.092,0Z" style="fill:#fff;fill-rule:nonzero;"/><path d="M4971.56,2495.95l-47.735,146.747l95.707,-0l-47.972,-146.747Zm-41.185,-69.037l81.927,-0l124.266,344.741l-74.436,-0l-23.394,-70.924l-133.648,-0l-22.687,70.924l-74.672,-0l122.644,-344.741Z" style="fill:#fff;fill-rule:nonzero;"/><path d="M5152.01,2688.78l67.886,0c0.588,12.95 5.279,22.598 14.013,28.914c8.734,6.312 21.861,9.499 39.326,9.499c13.276,0 23.515,-2.241 30.773,-6.699c7.257,-4.425 10.886,-10.709 10.886,-18.82c0,-11.566 -13.542,-20.212 -40.714,-25.965c-11.063,-2.358 -19.886,-4.394 -26.435,-6.107c-33.103,-8.437 -56.055,-18.41 -68.949,-29.944c-12.862,-11.567 -19.295,-27.172 -19.295,-46.821c0,-26.05 9.382,-46.705 28.206,-61.928c18.793,-15.192 44.255,-22.803 76.412,-22.803c34.019,0 60.716,7.58 80.16,22.714c19.444,15.135 29.739,36.438 31.006,63.904l-66.232,0c-0.443,-10.798 -4.574,-19.118 -12.303,-25.048c-7.7,-5.93 -18.438,-8.908 -32.189,-8.908c-12.922,0 -22.57,1.976 -28.882,5.842c-6.312,3.922 -9.47,9.764 -9.47,17.553c0,10.15 16.933,19.146 50.775,26.935c7.817,1.713 13.953,3.129 18.498,4.22c33.867,7.937 57,17.525 69.391,28.765c12.42,11.241 18.615,27.055 18.615,47.529c0,28.854 -10.178,50.832 -30.535,65.999c-20.385,15.135 -49.979,22.715 -88.834,22.715c-35.106,0 -62.576,-7.906 -82.37,-23.66c-19.826,-15.755 -29.739,-37.467 -29.739,-65.054l0,-2.832Z" style="fill:#fff;fill-rule:nonzero;"/><path d="M5429.33,2517.24l68.123,-0l0,254.402l-68.123,-0l0,-254.402Zm0,-90.307l68.123,-0l0,62.012l-68.123,-0l0,-62.012Z" style="fill:#fff;fill-rule:nonzero;"/><path d="M5702.93,2646.43c-11.096,5.162 -23.869,9.262 -38.268,12.42c-14.427,3.098 -21.89,4.751 -22.361,4.896c-12.008,3.424 -20.388,7.732 -25.136,12.866c-4.779,5.162 -7.141,12.242 -7.141,21.298c0,9.382 3.009,16.817 9.116,22.365c6.079,5.516 14.279,8.288 24.578,8.288c18.409,0 32.865,-5.19 43.397,-15.546c10.533,-10.384 15.815,-24.517 15.815,-42.484l0,-24.103Zm1.15,93.611c-8.585,13.276 -19.797,23.366 -33.693,30.301c-13.868,6.961 -30.033,10.444 -48.443,10.444c-24.665,0 -43.666,-7.052 -56.999,-21.065c-13.337,-14.076 -19.975,-34.019 -19.975,-59.924c0,-24.042 6.638,-42.363 19.975,-55.02c13.333,-12.597 35.371,-21.274 66.116,-25.965c7.049,-1.09 16.225,-2.358 27.614,-3.717c28.883,-3.746 43.309,-12.122 43.309,-25.076c0,-10.296 -3.214,-17.67 -9.587,-22.096c-6.404,-4.485 -17.114,-6.698 -32.072,-6.698c-13.719,0 -24.279,2.744 -31.597,8.231c-7.346,5.428 -11.004,13.248 -11.004,23.395l0,3.749l-63.666,0l0,-4.723c0,-26.021 9.234,-46.527 27.643,-61.425c18.41,-14.897 43.84,-22.332 76.295,-22.332c35.58,0 62.812,6.164 81.782,18.466c18.969,12.335 28.439,30.125 28.439,53.374l0,144.62c0,10.653 1.094,18.53 3.275,23.78c2.184,5.222 5.842,9.177 11.007,11.804l0,11.474l-70.927,0c-2.33,-4.365 -4.128,-9.173 -5.399,-14.515c-1.239,-5.311 -1.916,-10.975 -2.093,-17.082" style="fill:#fff;fill-rule:nonzero;"/><path d="M6041.1,2586.53l68.566,0c18.587,0 32.068,-3.951 40.509,-11.829c8.408,-7.877 12.624,-20.565 12.624,-38.03c0,-16.374 -4.128,-28.793 -12.391,-37.202c-8.259,-8.44 -20.59,-12.657 -36.996,-12.657l-72.312,0l0,99.718Zm-0.471,62.458l0,122.645l-70.895,0l0,-344.712l153.268,0c36.229,0 63.638,9.381 82.282,28.174c18.647,18.824 27.968,46.378 27.968,82.755c0,35.58 -9.116,62.961 -27.377,82.256c-18.261,19.263 -44.315,28.882 -78.153,28.882l-87.093,0Z" style="fill:#fff;fill-rule:nonzero;"/><path d="M6396.62,2773.52c-6.255,0.149 -13.69,0.443 -22.364,0.797c-8.645,0.414 -14.133,0.62 -16.463,0.62c-26.081,0 -43.9,-4.868 -53.487,-14.633c-9.619,-9.736 -14.399,-29.002 -14.399,-57.679l0,-137.631l-33.721,0l0,-47.766l33.721,0l0,-69.479l67.384,0l0,69.479l39.329,0l0,47.766l-39.329,0l0,140.878c0,6.726 1.504,11.12 4.457,13.216c2.977,2.124 9.056,3.186 18.261,3.186l16.611,0l0,51.246Z" style="fill:#fff;fill-rule:nonzero;"/><path d="M6493.52,2617.65l100.191,0c-0.648,-17.171 -5.193,-30.21 -13.719,-39.209c-8.496,-8.968 -20.711,-13.454 -36.642,-13.454c-14.809,0 -26.464,4.514 -34.961,13.574c-8.497,9.056 -13.453,22.095 -14.869,39.089m99.218,76.769l67.886,0c-6.844,26.846 -20.711,47.883 -41.539,63.074c-20.832,15.224 -46.233,22.836 -76.178,22.836c-36.819,0 -65.999,-12.392 -87.535,-37.114c-21.507,-24.722 -32.305,-58.238 -32.305,-100.517c0,-41.656 10.621,-74.524 31.834,-98.539c21.211,-24.046 50.241,-36.051 87.061,-36.051c39.004,0 69.097,11.828 90.339,35.46c21.214,23.632 31.835,57.325 31.835,100.988c0,4.84 -0.06,8.469 -0.121,10.887c-0.088,2.422 -0.265,4.723 -0.587,6.904l-169.908,0c0.913,19.974 5.813,35.021 14.632,45.171c8.822,10.146 21.507,15.223 38.03,15.223c11.712,0 21.302,-2.333 28.794,-6.903c7.495,-4.603 13.396,-11.744 17.762,-21.419" style="fill:#fff;fill-rule:nonzero;"/><path d="M6851.13,2771.64l0,-344.741l70.896,0l0,281.103l168.283,0l0,63.638l-239.179,0Z" style="fill:#fff;fill-rule:nonzero;"/><path d="M7236.35,2773.52c-6.252,0.149 -13.687,0.443 -22.361,0.797c-8.645,0.414 -14.133,0.62 -16.462,0.62c-26.082,0 -43.901,-4.868 -53.491,-14.633c-9.616,-9.736 -14.395,-29.002 -14.395,-57.679l0,-137.631l-33.722,0l0,-47.766l33.722,0l0,-69.479l67.383,0l0,69.479l39.326,0l0,47.766l-39.326,0l0,140.878c0,6.726 1.505,11.12 4.454,13.216c2.981,2.124 9.059,3.186 18.264,3.186l16.608,0l0,51.246Z" style="fill:#fff;fill-rule:nonzero;"/><path d="M7331.38,2642.68c0,25.756 4.836,45.377 14.515,58.858c9.648,13.514 23.632,20.269 41.893,20.269c18.084,0 31.892,-6.727 41.394,-20.152c9.559,-13.421 14.306,-33.07 14.306,-58.975c0,-24.014 -4.984,-42.544 -14.986,-55.583c-10.001,-13.011 -24.014,-19.532 -42.13,-19.532c-16.994,0 -30.419,6.67 -40.243,20.003c-9.825,13.336 -14.749,31.718 -14.749,55.112m178.107,-215.755l0,344.712l-64.583,0l0,-34.401c-9.824,14.812 -20.888,25.699 -33.13,32.659c-12.243,6.936 -26.669,10.416 -43.164,10.416c-31.389,0 -56.762,-12.42 -76.206,-37.234c-19.411,-24.782 -29.147,-57.322 -29.147,-97.565c0,-40.565 9.736,-73.522 29.147,-98.892c19.444,-25.345 44.492,-38.03 75.233,-38.03c16.405,0 31.009,3.423 43.9,10.295c12.865,6.847 23.543,16.848 31.951,29.948l0,-121.908l65.999,0Z" style="fill:#fff;fill-rule:nonzero;"/></g></svg>