<?xml version="1.0" encoding="UTF-8" standalone="no"?><!DOCTYPE svg PUBLIC "-//W3C//DTD SVG 1.1//EN" "http://www.w3.org/Graphics/SVG/1.1/DTD/svg11.dtd"><svg width="100%" height="100%" viewBox="0 0 1920 1080" version="1.1" xmlns="http://www.w3.org/2000/svg" xmlns:xlink="http://www.w3.org/1999/xlink" xml:space="preserve" xmlns:serif="http://www.serif.com/" style="fill-rule:evenodd;clip-rule:evenodd;stroke-linejoin:round;stroke-miterlimit:2;"><g id="Artboard1"><path d="M1684.99,563.297c-226.894,80.758 -470.89,124.616 -724.977,124.616c-254.132,0 -498.083,-43.858 -725.013,-124.616c228.934,65.687 472.42,101.094 725.013,101.094c252.548,-0 496.071,-35.407 724.977,-101.094" style="fill:#fff;fill-rule:nonzero;"/><path d="M410.272,583.334c-15.181,-0 -22.794,-4.599 -22.794,-13.806l-0,-36.336c-0,-9.17 7.613,-13.788 22.794,-13.788l50.041,0l0,9.426l-50.041,-0c-7.131,-0 -10.701,1.466 -10.701,4.362l0,36.336c0,2.896 3.57,4.344 10.701,4.344l28.249,-0c7.149,-0 10.709,-1.385 10.709,-4.153l0,-21.273l12.067,-0l-0,21.273c-0,9.07 -7.577,13.615 -22.776,13.615l-28.249,-0Z" style="fill:#fff;fill-rule:nonzero;"/><path d="M534.779,534.741c-0,-3.952 -2.65,-5.91 -7.978,-5.91l-42.209,-0l-0,16.538l42.209,-0c5.328,-0 7.978,-1.949 7.978,-5.92l-0,-4.708Zm-1.539,48.593l-14.972,-28.513l-33.676,0l-0,28.513l-12.139,0l-0,-63.929l54.348,0c3.616,0 6.721,0.355 9.28,1.139c2.486,0.746 4.581,1.803 6.193,3.178c1.603,1.339 2.759,2.96 3.488,4.845c0.756,1.885 1.092,3.961 1.092,6.274l0,4.526c0,4.126 -1.193,7.541 -3.624,10.327c-2.413,2.741 -6.484,4.399 -12.157,4.936l15.035,28.704l-12.868,0Z" style="fill:#fff;fill-rule:nonzero;"/><path d="M630.573,583.334l-32.958,-51.499l-33.522,51.499l-13.405,-0l42.465,-63.93l8.834,0l42.227,63.93l-13.641,-0Z" style="fill:#fff;fill-rule:nonzero;"/><path d="M714.5,583.334l0,-29.042l-52.291,0l0,29.042l-12.075,-0l-0,-63.93l12.075,0l0,25.426l52.291,0l0,-25.426l12.103,0l-0,63.93l-12.103,-0Z" style="fill:#fff;fill-rule:nonzero;"/><path d="M812.388,583.334l-32.984,-51.499l-33.495,51.499l-13.432,-0l42.492,-63.93l8.806,0l42.228,63.93l-13.615,-0Z" style="fill:#fff;fill-rule:nonzero;"/><path d="M875.024,583.334l0,-54.504l-33.522,-0l0,-9.426l78.191,0l-0,9.426l-32.557,-0l0,54.504l-12.112,-0Z" style="fill:#fff;fill-rule:nonzero;"/><path d="M927.779,583.334l0,-63.93l65.76,0l0,9.426l-53.684,-0l-0,16l50.943,0l-0,9.462l-50.943,0l-0,19.58l53.684,-0l0,9.462l-65.76,-0Z" style="fill:#fff;fill-rule:nonzero;"/><path d="M1060.83,583.334l-24.151,-28.514l-20.818,0l-0,28.514l-12.112,-0l-0,-63.93l12.112,0l-0,25.964l20.526,-0l24.078,-25.964l14.343,0l-28.422,29.77l28.304,34.16l-13.86,-0Z" style="fill:#fff;fill-rule:nonzero;"/><path d="M1160.52,583.334l-68.2,-49.778l-0,49.778l-10.528,-0l0,-63.93l10.418,0l63.684,47.483l-0,-47.483l10.518,0l-0,63.93l-5.892,-0Z" style="fill:#fff;fill-rule:nonzero;"/><path d="M1248.06,567.984c-0,3.925 -2.696,5.883 -7.959,5.883l-42.228,0c-5.355,0 -8.023,-1.958 -8.023,-5.883l-0,-33.239c-0,-3.962 2.668,-5.938 8.023,-5.938l42.228,0c5.263,0 7.959,1.976 7.959,5.938l-0,33.239Zm10.946,-39.414c-0.665,-1.894 -1.849,-3.488 -3.488,-4.844c-1.575,-1.412 -3.661,-2.432 -6.192,-3.179c-2.587,-0.783 -5.619,-1.156 -9.225,-1.156l-42.228,-0c-3.707,-0 -6.748,0.373 -9.317,1.156c-2.522,0.747 -4.58,1.767 -6.165,3.179c-1.685,1.356 -2.796,2.95 -3.506,4.844c-0.728,1.895 -1.129,3.989 -1.129,6.248l-0,33.048c-0,2.331 0.401,4.407 1.129,6.311c0.71,1.839 1.821,3.415 3.506,4.826c1.585,1.348 3.643,2.45 6.165,3.197c2.569,0.783 5.61,1.156 9.317,1.156l42.228,0c3.606,0 6.638,-0.373 9.225,-1.156c2.531,-0.747 4.617,-1.849 6.192,-3.197c1.639,-1.411 2.823,-2.987 3.488,-4.826c0.792,-1.904 1.111,-3.98 1.111,-6.311l0,-33.048c0,-2.259 -0.319,-4.353 -1.111,-6.248" style="fill:#fff;fill-rule:nonzero;"/><path d="M1271.51,583.334l-0,-63.93l12.157,0l0,54.468l51.845,-0l-0,9.462l-64.002,-0Z" style="fill:#fff;fill-rule:nonzero;"/><path d="M1412.07,567.984c-0,3.925 -2.632,5.883 -7.96,5.883l-42.273,0c-5.282,0 -8.005,-1.958 -8.005,-5.883l0,-33.239c0,-3.962 2.723,-5.938 8.005,-5.938l42.273,0c5.328,0 7.96,1.976 7.96,5.938l-0,33.239Zm10.964,-39.414c-0.683,-1.894 -1.858,-3.488 -3.442,-4.844c-1.585,-1.412 -3.707,-2.432 -6.238,-3.179c-2.541,-0.783 -5.656,-1.156 -9.244,-1.156l-42.273,-0c-3.615,-0 -6.721,0.373 -9.252,1.156c-2.559,0.747 -4.617,1.767 -6.22,3.179c-1.585,1.356 -2.741,2.95 -3.488,4.844c-0.729,1.895 -1.093,3.989 -1.093,6.248l0,33.048c0,2.331 0.364,4.407 1.093,6.311c0.747,1.839 1.903,3.415 3.488,4.826c1.603,1.348 3.661,2.45 6.22,3.197c2.531,0.783 5.637,1.156 9.252,1.156l42.273,0c3.588,0 6.703,-0.373 9.244,-1.156c2.531,-0.747 4.653,-1.849 6.238,-3.197c1.584,-1.411 2.759,-2.987 3.442,-4.826c0.774,-1.904 1.139,-3.98 1.139,-6.311l-0,-33.048c-0,-2.259 -0.365,-4.353 -1.139,-6.248" style="fill:#fff;fill-rule:nonzero;"/><path d="M1457.86,583.334c-15.199,-0 -22.821,-4.599 -22.821,-13.806l-0,-36.336c-0,-9.17 7.622,-13.788 22.821,-13.788l50.005,0l0,9.426l-50.005,-0c-7.194,-0 -10.746,1.466 -10.746,4.362l0,36.336c0,2.896 3.552,4.344 10.746,4.344l28.222,-0c7.176,-0 10.673,-1.385 10.673,-4.153l0,-21.273l12.121,-0l0,21.273c0,9.07 -7.595,13.615 -22.794,13.615l-28.222,-0Z" style="fill:#fff;fill-rule:nonzero;"/><rect x="1520.49" y="519.405" width="12.076" height="63.929" style="fill:#fff;"/><rect x="593.435" y="559.311" width="7.987" height="7.977" style="fill:#fff;"/><rect x="775.26" y="559.311" width="8.023" height="7.977" style="fill:#fff;"/><rect x="772.3" y="556.415" width="13.797" height="13.788" style="fill:#fff;"/><rect x="590.53" y="556.415" width="13.842" height="13.788" style="fill:#fff;"/><path d="M481.55,435.457c0,1.876 0,4.717 -7.959,4.717l-58.356,0l0,-24.442l58.356,-0c7.959,-0 7.959,2.85 7.959,4.726l0,14.999Zm18.988,20.563c3.078,-2.577 5.345,-5.728 6.748,-9.353c1.338,-3.415 2.003,-7.24 2.003,-11.356l0,-14.716c0,-4.098 -0.665,-7.932 -2.003,-11.366c-1.403,-3.615 -3.688,-6.775 -6.748,-9.343c-2.914,-2.513 -6.721,-4.49 -11.265,-5.828c-4.381,-1.312 -9.626,-1.976 -15.682,-1.976l-86.113,-0l-0,108.506l27.757,0l0,-36.8l58.356,-0c6.056,-0 11.347,-0.629 15.682,-1.931c4.517,-1.348 8.332,-3.296 11.265,-5.837" style="fill:#fff;fill-rule:nonzero;"/><path d="M756.646,461.639l-92.98,-69.375l-0.236,-0.182l-22.193,-0l-0,103.124l-68.119,-103.124l-18.523,-0l-72.098,108.506l31.701,0l49.695,-76.423l48.676,76.004l0.264,0.419l53.729,0l0,-73.172l100.056,72.99l0.246,0.182l15.071,0l0,-108.506l-25.289,-0l-0,69.557Z" style="fill:#fff;fill-rule:nonzero;"/><path d="M900.232,472.222c-0,1.894 -0,4.744 -8.005,4.744l-65.778,0c-7.978,0 -7.978,-2.85 -7.978,-4.744l0,-51.763c0,-1.876 0,-4.726 7.978,-4.726l65.778,-0c8.005,-0 8.005,2.85 8.005,4.726l-0,51.763Zm19.005,-72.335c-2.996,-2.514 -6.784,-4.49 -11.301,-5.828c-4.39,-1.312 -9.671,-1.977 -15.709,-1.977l-65.778,0c-6.056,0 -11.347,0.665 -15.718,1.977c-4.517,1.338 -8.342,3.314 -11.283,5.828c-3.06,2.568 -5.328,5.728 -6.712,9.343c-1.33,3.425 -2.022,7.268 -2.022,11.366l0,51.489c0,4.116 0.692,7.932 2.022,11.347c1.384,3.615 3.633,6.766 6.712,9.353c2.977,2.54 6.766,4.498 11.283,5.828c4.371,1.32 9.662,1.976 15.718,1.976l65.778,0c6.038,0 11.319,-0.656 15.709,-1.976c4.517,-1.33 8.305,-3.288 11.301,-5.828c3.042,-2.587 5.291,-5.738 6.685,-9.353c1.357,-3.415 2.03,-7.231 2.03,-11.347l0,-51.489c0,-4.098 -0.673,-7.941 -2.03,-11.366c-1.394,-3.615 -3.643,-6.775 -6.685,-9.343" style="fill:#fff;fill-rule:nonzero;"/><path d="M1033.69,427.817c-0,1.749 -0,4.727 -7.96,4.727l-61.306,-0l-0,-16.811l61.306,-0c7.96,-0 7.96,2.85 7.96,4.726l-0,7.358Zm427.232,-35.735l-18.495,0l-68.556,103.107l0,-103.107l-22.867,0l-56.58,78.209l-56.553,-77.817l-0.255,-0.392l-24.278,0l-0,103.107l-68.1,-103.107l-18.523,0l-67.29,101.258l-20.18,-38.467c6.73,-1.466 11.957,-4.225 15.417,-8.205c4.463,-5.109 6.794,-11.493 6.794,-18.996l-0,-7.076c-0,-4.126 -0.665,-7.951 -2.013,-11.375c-1.375,-3.606 -3.679,-6.766 -6.702,-9.334c-2.978,-2.514 -6.785,-4.49 -11.302,-5.828c-4.407,-1.312 -9.653,-1.977 -15.709,-1.977l-89.027,0l0,108.507l27.721,0l-0,-44.413l45.297,-0l23.368,44.413l53.183,0l49.759,-76.424l48.657,76.005l0.282,0.419l54.686,0l0,-60.378l43.795,60.005l0.236,0.373l19.962,0l43.904,-60.45l-0,60.45l54.403,0l49.741,-76.424l48.676,76.005l0.255,0.419l31.937,0l-71.643,-108.507Z" style="fill:#fff;fill-rule:nonzero;"/><rect x="1444.8" y="460.111" width="13.806" height="13.788" style="fill:#fff;"/><rect x="1129.12" y="460.111" width="13.778" height="13.788" style="fill:#fff;"/><rect x="557.008" y="460.111" width="13.797" height="13.788" style="fill:#fff;"/></g></svg>