<?xml version="1.0" encoding="UTF-8" standalone="no"?><!DOCTYPE svg PUBLIC "-//W3C//DTD SVG 1.1//EN" "http://www.w3.org/Graphics/SVG/1.1/DTD/svg11.dtd"><svg width="100%" height="100%" viewBox="0 0 1500 1500" version="1.1" xmlns="http://www.w3.org/2000/svg" xmlns:xlink="http://www.w3.org/1999/xlink" xml:space="preserve" xmlns:serif="http://www.serif.com/" style="fill-rule:evenodd;clip-rule:evenodd;stroke-linejoin:round;stroke-miterlimit:2;"><rect id="Artboard1" x="0" y="0" width="1500" height="1500" style="fill:none;"/><g><path d="M754.681,1261.42c56.432,-0.154 113.743,-9.835 169.795,-30.057c17.479,-6.311 34.388,-13.515 50.739,-21.494l-75.411,-154.052c-10.813,5.277 -21.974,10.014 -33.549,14.196c-94.706,34.18 -194.74,22.958 -276.311,-22.447l-83.367,149.624c74.283,41.347 158.691,63.992 245.297,64.23l2.807,0Zm-196.493,-233.955c-53.37,-38.097 -96.113,-92.209 -120.081,-158.563c-6.348,-17.617 -11.104,-35.412 -14.394,-53.263l-168.681,30.889c4.934,27.009 12.111,53.958 21.739,80.601c36.173,100.246 100.916,182.079 181.749,239.695l99.668,-139.359Zm638.303,-29.48l-150.279,-82.148c-11.974,21.934 -26.418,42.568 -43.112,61.45l128.248,113.659c25.24,-28.539 47.046,-59.765 65.143,-92.961Zm-557.252,-557.215c113.394,-40.923 234.408,-16.764 322.25,53.236l106.929,-133.89c-88.534,-70.457 -199.36,-110.259 -314.073,-110.746l-4.209,0c-56.207,0.235 -113.297,9.919 -169.121,30.067c-166.251,59.97 -281.914,198.557 -320.34,358.809l166.684,39.672c25.314,-105.919 101.769,-197.42 211.88,-237.148Zm594.248,156.771c-1.528,-4.632 -3.092,-9.238 -4.757,-13.873c-26.388,-73.086 -67.962,-136.412 -119.879,-187.681l-120.638,121.756c34.256,33.91 61.712,75.787 79.157,124.132c1.085,3.068 2.149,6.113 3.149,9.168l162.968,-53.502Z" style="fill:#55575a;fill-opacity:0.07;fill-rule:nonzero;"/><path d="M1029.12,757.406l0,-3.736c-0.389,-58.01 -18.875,-116.355 -56.697,-165.925l-4.34,3.316c90.866,119.128 67.882,289.984 -51.239,380.864l3.313,4.337c70.893,-54.079 108.413,-135.915 108.963,-218.856Zm-493.116,163.297c-90.876,-119.131 -67.912,-289.984 51.212,-380.857l-3.307,-4.334c-121.517,92.693 -144.955,266.98 -52.249,388.507l4.344,-3.316Z" style="fill:#55575a;fill-opacity:0.07;fill-rule:nonzero;"/><path d="M1082.28,1215.19c253.253,-193.2 302.122,-556.467 108.912,-809.72c-113.119,-148.279 -284.569,-226.496 -458.061,-227.094l-3.917,0c-121.565,0.399 -243.891,38.919 -347.765,118.164c-148.373,113.186 -226.59,284.704 -227.091,458.303l0,3.38c0.356,121.635 38.873,244.113 118.165,348.061c113.548,148.832 285.848,227.076 460.004,227.09c122.209,0.007 245.311,-38.51 349.753,-118.184Zm99.674,-802.684c189.625,248.557 141.847,603.828 -106.724,793.452c-248.581,189.638 -603.831,141.884 -793.473,-106.714c-189.631,-248.58 -141.84,-603.814 106.748,-793.466c102.524,-78.214 223.23,-116.039 342.948,-116.046l0.03,0c170.528,-0.006 339.054,76.721 450.471,222.774Z" style="fill:#55575a;fill-opacity:0.09;fill-rule:nonzero;"/><path d="M734.714,1408.89c137.493,-0.443 275.872,-44.015 393.372,-133.649c286.405,-218.494 341.669,-629.253 123.165,-915.676c-127.731,-167.439 -321.192,-255.871 -517.084,-256.798l-6.217,0c-137.163,0.645 -275.167,44.217 -392.371,133.633c-167.939,128.113 -256.405,322.33 -256.821,518.809l-0,2.803c0.298,137.711 43.86,276.406 133.632,394.08c127.933,167.704 321.777,256.153 517.987,256.798l4.337,-0Zm512.106,-1045.96c216.658,283.989 161.881,691.278 -122.078,907.908c-283.995,216.65 -691.294,161.873 -907.954,-122.112c-216.634,-283.972 -161.834,-691.254 122.155,-907.907c117.076,-89.312 255.137,-132.495 392.133,-132.498l0.02,-0c195.284,-0.007 388.41,87.721 515.724,254.609Z" style="fill:#55575a;fill-opacity:0.09;fill-rule:nonzero;"/><path d="M671.519,1142.07c-93.542,-14.612 -181.941,-63.045 -245.288,-142.585l-109.715,87.476c85.948,107.909 206.167,173.612 333.398,193.464l21.605,-138.355Zm373.458,42.873l-82.713,-113.343c-23.581,17.19 -48.439,31.416 -74.142,42.628l56.052,128.594c34.972,-15.247 68.792,-34.512 100.803,-57.879Zm182.397,-620.478l-130.829,50.521c35.633,92.168 34.454,193.746 -0.816,283.794l130.44,51.232c47.828,-122.371 49.48,-260.417 1.205,-385.547Zm-884.225,233.082c-6.636,-62.544 1.897,-126.002 24.841,-184.592l-130.44,-51.215c-24.146,61.789 -36.533,127.576 -36.67,193.666l-0,2.313c0.036,18.267 1.017,36.552 2.937,54.786l139.332,-14.958Zm875.635,-253.995c-15.267,-34.965 -34.485,-68.771 -57.855,-100.776l-113.34,82.693c17.197,23.551 31.363,48.446 42.628,74.156l128.567,-56.073Zm-545.107,-174.23l-20.853,-138.607c-82.226,12.256 -162.659,43.948 -234.086,96.096l82.72,113.364c52.595,-38.446 111.769,-61.816 172.219,-70.853Zm117.748,-141.007c-38.486,-4.347 -77.486,-4.549 -116.19,-0.467l14.937,139.322c28.517,-3.021 57.198,-2.86 85.543,0.323l15.71,-139.178Z" style="fill:#55575a;fill-opacity:0.09;fill-rule:nonzero;"/><path d="M733.607,1452.63c77.999,-0.118 157.231,-13.438 234.713,-41.4c228.906,-82.575 388.165,-273.391 441.082,-494.043l-229.514,-54.619c-34.85,145.825 -140.128,271.823 -291.743,326.523c-156.116,56.348 -322.753,23.082 -443.693,-73.303l-147.231,184.357c122.383,97.389 275.694,152.237 434.308,152.485l2.078,-0Zm-325.953,-369.521c-47.167,-46.697 -84.968,-104.351 -109.007,-170.917c-1.48,-4.229 -2.95,-8.422 -4.323,-12.628l-224.388,73.669c2.105,6.375 4.263,12.719 6.556,19.097c36.321,100.628 93.572,187.832 165.049,258.426l166.113,-167.647Zm1009.51,-452.717c-6.795,-37.183 -16.681,-74.283 -29.94,-110.967c-49.802,-138.036 -138.936,-250.705 -250.242,-330.034l-137.235,191.88c73.495,52.447 132.34,126.959 165.341,218.326c8.745,24.253 15.287,48.761 19.819,73.343l232.257,-42.548Zm-1030.01,-180.034l-176.59,-156.492c-34.743,39.298 -64.767,82.279 -89.691,127.993l206.925,113.118c16.476,-30.211 36.368,-58.617 59.356,-84.619Zm683.664,-302.78c-101.964,-56.761 -217.809,-87.926 -336.674,-88.439l-5.942,-0c-77.375,0.329 -155.952,13.662 -232.793,41.386c-24.059,8.688 -47.339,18.607 -69.856,29.597l103.834,212.112c14.884,-7.274 30.251,-13.796 46.19,-19.546c130.406,-47.063 268.134,-31.605 380.45,30.899l114.791,-206.009Z" style="fill:#55575a;fill-opacity:0.09;fill-rule:nonzero;"/><path d="M1113.38,756.067l0,-1.316c-0.144,-80.494 -25.596,-161.578 -78.073,-230.37l-5.979,4.562c125.13,164.025 93.509,399.276 -70.507,524.402l4.545,5.968c98.148,-74.871 149.826,-188.406 150.014,-303.246Zm-678.984,226.757c-125.116,-164.028 -93.465,-399.282 70.557,-524.408l-4.569,-5.979c-97.872,74.663 -149.55,187.775 -150.03,302.29l-0,3.199c0.329,80.205 25.784,160.92 78.073,229.457l5.969,-4.559Z" style="fill:#55575a;fill-opacity:0.09;fill-rule:nonzero;"/></g><g id="Layer-1" serif:id="Layer 1"><path d="M637.429,891.757c-39.36,-32.482 -64.464,-81.632 -64.464,-136.598c-0,-97.708 79.327,-177.035 177.035,-177.035c97.708,-0 177.035,79.327 177.035,177.035c0,54.63 -24.799,103.515 -63.743,136c-0.808,-10.358 -3.791,-18.474 -7.002,-24.422c29.468,-28.081 47.841,-67.701 47.841,-111.578c0,-85.067 -69.064,-154.131 -154.131,-154.131c-85.067,-0 -154.132,69.064 -154.132,154.131c0,44.014 18.488,83.742 48.116,111.839c-3.099,5.91 -5.885,14.05 -6.555,24.759" style="fill:#626060;"/><path d="M838.777,843.061c0.024,0.027 15.298,17.38 15.298,53.653c0,42.675 -15.298,53.652 -15.298,53.652l-176.774,-0c0,-0 -15.297,-15.227 -15.297,-53.652c-0,-38.397 15.273,-53.628 15.297,-53.653l176.774,0Z" style="fill:#b52f25;"/><path d="M898.948,772.329c-46.615,16.59 -96.742,25.603 -148.943,25.603c-52.211,-0 -102.329,-9.013 -148.953,-25.603c47.035,13.495 97.059,20.769 148.953,20.769c51.884,0 101.914,-7.274 148.943,-20.769" style="fill:#626060;fill-rule:nonzero;"/><path d="M642.328,738.929l-6.614,0l-1.525,-11.223c-0.129,-1.004 -0.224,-1.884 -0.282,-2.641c-0.084,-0.744 -0.166,-1.803 -0.249,-3.174c-0.213,1.23 -0.544,2.601 -0.993,4.113c-0.095,0.296 -0.166,0.55 -0.213,0.763l-3.529,12.162l-4.715,0l-3.528,-12.162c-0.036,-0.201 -0.107,-0.455 -0.213,-0.763c-0.496,-1.595 -0.821,-2.966 -0.976,-4.113c-0.093,1.3 -0.182,2.269 -0.265,2.908c-0.036,0.331 -0.089,0.816 -0.16,1.454c-0.071,0.638 -0.124,1.123 -0.159,1.453l-1.526,11.223l-6.578,0l4.008,-25.956l7.003,-0l3.918,13.387c0.071,0.248 0.118,0.407 0.142,0.478c0.342,1.111 0.573,2.128 0.691,3.05c0.025,-0.32 0.114,-0.84 0.266,-1.56c0.048,-0.178 0.225,-0.845 0.532,-2.004l3.954,-13.351l7.021,-0l3.99,25.956Z" style="fill:#b52f25;fill-rule:nonzero;"/><path d="M645.98,712.973l7.092,-0l-0,12.624c-0,1.926 0.047,3.262 0.141,4.007c0.118,0.886 0.278,1.56 0.479,2.02c0.248,0.674 0.715,1.171 1.401,1.49c0.685,0.366 1.513,0.55 2.482,0.55c0.957,-0 1.779,-0.184 2.464,-0.55c0.627,-0.307 1.099,-0.804 1.418,-1.49c0.189,-0.472 0.344,-1.145 0.462,-2.02c0.106,-0.709 0.159,-2.045 0.159,-4.007l-0,-12.624l7.039,-0l-0,13.723c-0,2.814 -0.171,4.905 -0.514,6.277c-0.319,1.359 -0.898,2.523 -1.738,3.492c-0.921,1.076 -2.144,1.862 -3.67,2.358c-1.512,0.532 -3.386,0.798 -5.62,0.798c-2.281,-0 -4.16,-0.266 -5.638,-0.798c-1.502,-0.496 -2.725,-1.282 -3.67,-2.358c-0.816,-0.946 -1.395,-2.11 -1.738,-3.492c-0.365,-1.395 -0.549,-3.488 -0.549,-6.277l0,-13.723Z" style="fill:#b52f25;fill-rule:nonzero;"/><path d="M674.472,738.929l-0,-25.956l7.073,-0l0,19.893l8.795,0l0,6.063l-15.868,0l-0,0Z" style="fill:#b52f25;fill-rule:nonzero;"/><path d="M697.574,738.929l-0,-19.821l-5.816,0l-0,-6.135l18.705,-0l-0,6.135l-5.815,0l-0,19.821l-7.074,0Z" style="fill:#b52f25;fill-rule:nonzero;"/><rect x="714.08" y="712.973" width="7.145" height="25.956" style="fill:#b52f25;"/><rect x="727.128" y="712.973" width="7.145" height="25.956" style="fill:#b52f25;"/><path d="M739.999,738.929l0,-25.956l6.827,-0l9.804,13.351c0.248,0.366 0.561,0.916 0.94,1.648c0.485,0.946 0.957,1.921 1.419,2.925c-0.178,-1.359 -0.279,-2.31 -0.303,-2.854c-0.071,-0.851 -0.105,-1.601 -0.105,-2.251l-0,-12.819l6.79,-0l-0,25.956l-6.79,0l-9.805,-13.403c-0.142,-0.189 -0.455,-0.745 -0.94,-1.667c-0.425,-0.756 -0.898,-1.713 -1.418,-2.872c0.118,0.922 0.23,1.879 0.337,2.872c0.047,1.112 0.071,1.862 0.071,2.252l0,12.818l-6.827,0Z" style="fill:#b52f25;fill-rule:nonzero;"/><path d="M774.663,738.929l-0,-19.821l-5.815,0l-0,-6.135l18.704,-0l-0,6.135l-5.815,0l-0,19.821l-7.074,0Z" style="fill:#b52f25;fill-rule:nonzero;"/><path d="M790.991,738.929l-0,-25.956l15.903,-0l-0,5.691l-9.006,0l-0,4.504l8.492,-0l0,5.568l-8.492,-0l-0,4.378l9.006,0l-0,5.815l-15.903,0l-0,0Z" style="fill:#b52f25;fill-rule:nonzero;"/><path d="M823.898,729.373l0,-5.443l13.9,0c-0,0.249 0.012,0.443 0.037,0.585l0,0.94c0,4.48 -1.17,7.943 -3.51,10.39c-2.365,2.47 -5.692,3.705 -9.982,3.705c-2.045,-0 -3.913,-0.314 -5.602,-0.94c-1.631,-0.626 -3.098,-1.595 -4.397,-2.907c-1.241,-1.265 -2.193,-2.73 -2.855,-4.398c-0.355,-0.886 -0.614,-1.772 -0.78,-2.658c-0.166,-0.9 -0.248,-1.791 -0.248,-2.678c-0,-1.915 0.331,-3.693 0.993,-5.336c0.661,-1.596 1.649,-3.061 2.961,-4.398c1.253,-1.252 2.743,-2.209 4.467,-2.872c1.703,-0.649 3.523,-0.975 5.462,-0.975c2.529,0 4.775,0.509 6.736,1.525c0.627,0.307 1.241,0.691 1.845,1.152c0.614,0.45 1.175,0.952 1.683,1.507c0.521,0.556 0.993,1.159 1.419,1.809l-6.134,2.943c-0.735,-1.005 -1.556,-1.755 -2.467,-2.252c-0.934,-0.484 -1.961,-0.727 -3.085,-0.727c-2.127,0 -3.788,0.703 -4.982,2.11c-1.206,1.395 -1.808,3.327 -1.808,5.798c-0,2.483 0.602,4.433 1.808,5.851c1.194,1.406 2.855,2.11 4.982,2.11c1.809,-0 3.304,-0.449 4.486,-1.348c1.229,-0.887 1.932,-2.05 2.109,-3.493l-7.038,-0Z" style="fill:#b52f25;fill-rule:nonzero;"/><path d="M842.196,738.929l-0,-25.956l7.393,-0c1.43,-0 2.636,0.03 3.616,0.089c0.993,0.059 1.809,0.16 2.448,0.301c1.099,0.26 2.08,0.709 2.943,1.348c0.946,0.709 1.661,1.619 2.145,2.729c0.508,1.064 0.762,2.271 0.762,3.618c0,1.997 -0.496,3.634 -1.489,4.911c-0.969,1.277 -2.405,2.11 -4.308,2.5l7.074,10.46l-7.996,0l-5.957,-10.159l-0,10.159l-6.631,0l-0,0Zm6.631,-13.687l1.312,0c1.548,0 2.665,-0.254 3.351,-0.762c0.697,-0.568 1.045,-1.389 1.045,-2.464c0,-1.3 -0.325,-2.223 -0.975,-2.767c-0.662,-0.555 -1.767,-0.832 -3.314,-0.832l-1.419,-0l-0,6.825Z" style="fill:#b52f25;fill-rule:nonzero;"/><path d="M872.318,729.232l7.039,-0l-2.642,-8.564c-0.059,-0.153 -0.171,-0.579 -0.337,-1.276c-0.201,-0.816 -0.384,-1.555 -0.55,-2.216c-0.164,0.602 -0.307,1.211 -0.425,1.825c-0.189,0.591 -0.349,1.147 -0.479,1.667l-2.606,8.564Zm-9.911,9.697l8.954,-25.956l8.865,-0l8.971,25.956l-7.039,0l-1.312,-4.644l-10.052,0l-1.348,4.644l-7.039,0Z" style="fill:#b52f25;fill-rule:nonzero;"/><path d="M616.569,750.249l-0,15.986l-3.015,0l-0,-15.986l-4.927,-0l-0,-2.56l12.844,0l-0,2.56l-4.902,-0Z" style="fill:#626060;fill-rule:nonzero;"/><path d="M623.802,766.235l-0,-18.546l10.35,0l-0,2.56l-7.335,-0l-0,4.649l7.335,-0l-0,2.647l-7.335,0l-0,5.992l7.335,0l-0,2.698l-10.35,0Z" style="fill:#626060;fill-rule:nonzero;"/><path d="M652.519,752.2c-0.854,-0.726 -1.757,-1.272 -2.71,-1.635c-0.947,-0.362 -1.943,-0.544 -2.991,-0.544c-2.026,-0 -3.677,0.65 -4.952,1.951c-1.268,1.3 -1.9,2.985 -1.9,5.054c-0,2.001 0.616,3.653 1.849,4.953c1.241,1.3 2.804,1.95 4.686,1.95c1.098,0 2.142,-0.193 3.13,-0.583c0.996,-0.388 1.951,-0.975 2.862,-1.76l0,3.407c-0.81,0.583 -1.692,1.019 -2.647,1.306c-0.954,0.286 -1.989,0.43 -3.104,0.43c-1.418,0 -2.732,-0.233 -3.939,-0.697c-1.199,-0.464 -2.255,-1.148 -3.167,-2.052c-0.904,-0.886 -1.6,-1.93 -2.09,-3.128c-0.482,-1.209 -0.722,-2.492 -0.722,-3.851c0,-1.36 0.24,-2.635 0.722,-3.826c0.49,-1.199 1.195,-2.25 2.115,-3.154c0.921,-0.912 1.976,-1.601 3.167,-2.065c1.191,-0.473 2.478,-0.709 3.863,-0.709c1.09,-0 2.129,0.16 3.118,0.481c0.987,0.312 1.945,0.79 2.874,1.432l-0.164,3.04Z" style="fill:#626060;fill-rule:nonzero;"/><path d="M656.281,766.235l-0,-18.546l3.015,0l-0,6.841l9.12,0l0,-6.841l3.015,0l0,18.546l-3.015,0l0,-9.007l-9.12,-0l-0,9.007l-3.015,0Z" style="fill:#626060;fill-rule:nonzero;"/><path d="M675.687,766.235l0,-19.28l11.781,11.337c0.321,0.321 0.646,0.663 0.975,1.027c0.33,0.363 0.676,0.773 1.039,1.228l-0,-12.858l2.787,0l-0,19.268l-12.022,-11.54c-0.321,-0.312 -0.633,-0.642 -0.937,-0.988c-0.296,-0.346 -0.579,-0.709 -0.849,-1.089l-0,12.895l-2.774,0Z" style="fill:#626060;fill-rule:nonzero;"/><path d="M712.385,757.001c-0,-0.938 -0.173,-1.829 -0.52,-2.673c-0.337,-0.845 -0.828,-1.596 -1.47,-2.255c-0.624,-0.651 -1.351,-1.148 -2.178,-1.495c-0.819,-0.354 -1.685,-0.532 -2.596,-0.532c-0.913,-0 -1.783,0.173 -2.61,0.519c-0.82,0.346 -1.55,0.849 -2.192,1.508c-0.642,0.65 -1.131,1.397 -1.469,2.242c-0.338,0.844 -0.507,1.74 -0.507,2.686c-0,0.936 0.169,1.824 0.507,2.659c0.337,0.837 0.827,1.585 1.469,2.242c0.642,0.659 1.372,1.162 2.192,1.508c0.819,0.346 1.689,0.519 2.61,0.519c0.903,0 1.76,-0.173 2.57,-0.519c0.82,-0.346 1.555,-0.849 2.204,-1.508c0.642,-0.657 1.132,-1.405 1.47,-2.242c0.347,-0.844 0.52,-1.731 0.52,-2.659m3.141,-0c0,1.317 -0.25,2.563 -0.747,3.736c-0.491,1.175 -1.209,2.221 -2.154,3.142c-0.954,0.92 -2.03,1.625 -3.23,2.115c-1.2,0.49 -2.458,0.735 -3.774,0.735c-1.336,0 -2.61,-0.245 -3.827,-0.735c-1.207,-0.498 -2.276,-1.203 -3.204,-2.115c-0.946,-0.921 -1.664,-1.963 -2.154,-3.129c-0.49,-1.166 -0.735,-2.416 -0.735,-3.749c0,-1.326 0.245,-2.577 0.735,-3.75c0.49,-1.174 1.208,-2.225 2.154,-3.155c0.945,-0.92 2.019,-1.62 3.217,-2.101c1.199,-0.482 2.47,-0.723 3.814,-0.723c1.333,0 2.596,0.241 3.787,0.723c1.199,0.481 2.271,1.181 3.217,2.101c0.945,0.938 1.663,1.998 2.154,3.18c0.497,1.174 0.747,2.416 0.747,3.725" style="fill:#626060;fill-rule:nonzero;"/><path d="M719.009,766.235l0,-18.546l3.016,0l-0,15.848l6.738,0l0,2.698l-9.754,0Z" style="fill:#626060;fill-rule:nonzero;"/><path d="M746.18,757.001c0,-0.938 -0.172,-1.829 -0.518,-2.673c-0.338,-0.845 -0.828,-1.596 -1.47,-2.255c-0.625,-0.651 -1.352,-1.148 -2.179,-1.495c-0.819,-0.354 -1.684,-0.532 -2.597,-0.532c-0.912,-0 -1.782,0.173 -2.609,0.519c-0.82,0.346 -1.55,0.849 -2.192,1.508c-0.641,0.65 -1.131,1.397 -1.469,2.242c-0.338,0.844 -0.506,1.74 -0.506,2.686c0,0.936 0.168,1.824 0.506,2.659c0.338,0.837 0.828,1.585 1.469,2.242c0.642,0.659 1.372,1.162 2.192,1.508c0.819,0.346 1.688,0.519 2.609,0.519c0.904,0 1.761,-0.173 2.572,-0.519c0.82,-0.346 1.554,-0.849 2.204,-1.508c0.642,-0.657 1.132,-1.405 1.47,-2.242c0.346,-0.844 0.518,-1.731 0.518,-2.659m3.143,-0c-0,1.317 -0.25,2.563 -0.748,3.736c-0.49,1.175 -1.207,2.221 -2.153,3.142c-0.955,0.92 -2.032,1.625 -3.231,2.115c-1.2,0.49 -2.457,0.735 -3.775,0.735c-1.334,0 -2.609,-0.245 -3.825,-0.735c-1.208,-0.498 -2.276,-1.203 -3.206,-2.115c-0.945,-0.921 -1.662,-1.963 -2.153,-3.129c-0.489,-1.166 -0.734,-2.416 -0.734,-3.749c-0,-1.326 0.245,-2.577 0.734,-3.75c0.491,-1.174 1.208,-2.225 2.153,-3.155c0.948,-0.92 2.019,-1.62 3.219,-2.101c1.198,-0.482 2.47,-0.723 3.812,-0.723c1.335,0 2.597,0.241 3.788,0.723c1.199,0.481 2.272,1.181 3.218,2.101c0.946,0.938 1.663,1.998 2.153,3.18c0.498,1.174 0.748,2.416 0.748,3.725" style="fill:#626060;fill-rule:nonzero;"/><path d="M763.078,756.735l7.348,-0c-0,0.126 0.003,0.303 0.01,0.531c0.025,0.6 0.037,1.005 0.037,1.217c0,2.609 -0.748,4.636 -2.242,6.08c-1.494,1.444 -3.601,2.166 -6.321,2.166c-1.52,0 -2.875,-0.223 -4.065,-0.672c-1.192,-0.447 -2.234,-1.123 -3.13,-2.027c-0.879,-0.894 -1.554,-1.945 -2.027,-3.153c-0.464,-1.208 -0.696,-2.5 -0.696,-3.876c0,-1.402 0.236,-2.695 0.709,-3.877c0.481,-1.182 1.191,-2.225 2.128,-3.129c0.903,-0.886 1.964,-1.562 3.18,-2.026c1.216,-0.465 2.516,-0.697 3.901,-0.697c1.461,-0 2.766,0.266 3.915,0.798c1.157,0.532 2.187,1.347 3.09,2.445l-2.204,1.66c-0.625,-0.727 -1.33,-1.267 -2.116,-1.622c-0.785,-0.355 -1.663,-0.533 -2.634,-0.533c-2.01,0 -3.652,0.647 -4.928,1.938c-1.267,1.284 -1.899,2.957 -1.899,5.017c-0,2.095 0.632,3.796 1.899,5.105c1.276,1.301 2.926,1.95 4.953,1.95c1.723,0 3.078,-0.4 4.066,-1.202c0.989,-0.803 1.483,-1.897 1.483,-3.281l-0,-0.267l-4.459,0l0.002,-2.545Z" style="fill:#626060;fill-rule:nonzero;"/><path d="M777.192,766.235l-0,-8.487l-6.246,-10.059l3.167,0l3.889,6.296c0.093,0.161 0.207,0.372 0.342,0.634c0.144,0.262 0.287,0.545 0.43,0.849c0.118,-0.296 0.242,-0.575 0.368,-0.837c0.135,-0.261 0.274,-0.502 0.417,-0.721l3.992,-6.221l3.014,0l-6.384,10.059l-0,8.487l-2.989,0l-0,0Z" style="fill:#626060;fill-rule:nonzero;"/><path d="M805.401,759.407l-0,-3.889l9.93,0c0,0.178 0.01,0.317 0.028,0.419l-0,0.671c-0,3.2 -0.836,5.674 -2.508,7.422c-1.689,1.765 -4.066,2.648 -7.132,2.648c-1.461,-0 -2.795,-0.224 -4.003,-0.671c-1.166,-0.448 -2.213,-1.14 -3.142,-2.078c-0.886,-0.904 -1.566,-1.951 -2.039,-3.141c-0.253,-0.634 -0.439,-1.267 -0.558,-1.9c-0.118,-0.642 -0.177,-1.28 -0.177,-1.913c0,-1.369 0.237,-2.64 0.71,-3.813c0.472,-1.14 1.178,-2.187 2.115,-3.142c0.895,-0.895 1.959,-1.578 3.193,-2.052c1.215,-0.464 2.516,-0.696 3.901,-0.696c1.807,-0 3.412,0.363 4.814,1.089c0.447,0.219 0.887,0.493 1.316,0.824c0.439,0.321 0.841,0.679 1.205,1.076c0.371,0.397 0.708,0.828 1.013,1.292l-4.383,2.103c-0.524,-0.718 -1.111,-1.254 -1.761,-1.609c-0.668,-0.346 -1.402,-0.519 -2.204,-0.519c-1.52,0 -2.706,0.503 -3.56,1.508c-0.862,0.996 -1.291,2.377 -1.291,4.141c-0,1.774 0.429,3.167 1.291,4.181c0.854,1.005 2.04,1.507 3.56,1.507c1.292,0 2.36,-0.321 3.205,-0.963c0.878,-0.632 1.38,-1.465 1.508,-2.495l-5.031,0Z" style="fill:#626060;fill-rule:nonzero;"/><path d="M818.472,766.235l0,-18.546l5.283,0c1.022,0 1.882,0.022 2.583,0.065c0.711,0.041 1.293,0.113 1.749,0.215c0.786,0.185 1.486,0.506 2.102,0.963c0.677,0.506 1.187,1.157 1.533,1.95c0.364,0.76 0.546,1.622 0.546,2.584c-0,1.427 -0.356,2.597 -1.065,3.509c-0.693,0.912 -1.718,1.508 -3.078,1.786l5.054,7.474l-5.713,0l-4.256,-7.259l-0,7.259l-4.738,0Zm4.738,-9.779l0.938,-0c1.106,-0 1.903,-0.182 2.393,-0.545c0.498,-0.406 0.748,-0.993 0.748,-1.761c0,-0.928 -0.233,-1.588 -0.697,-1.976c-0.473,-0.397 -1.263,-0.595 -2.369,-0.595l-1.013,-0l-0,4.877Z" style="fill:#626060;fill-rule:nonzero;"/><path d="M854.131,757.001c-0,1.343 -0.241,2.597 -0.722,3.762c-0.482,1.139 -1.2,2.179 -2.154,3.116c-0.945,0.912 -2.027,1.612 -3.243,2.103c-1.275,0.497 -2.538,0.747 -3.787,0.747c-1.267,0 -2.529,-0.25 -3.788,-0.747c-1.241,-0.498 -2.313,-1.199 -3.217,-2.103c-0.913,-0.869 -1.63,-1.917 -2.154,-3.142c-0.507,-1.198 -0.759,-2.445 -0.759,-3.736c-0,-1.293 0.252,-2.538 0.759,-3.737c0.524,-1.225 1.241,-2.272 2.154,-3.142c0.929,-0.929 2.001,-1.638 3.217,-2.127c1.183,-0.482 2.445,-0.723 3.788,-0.723c1.343,0 2.614,0.245 3.813,0.735c1.199,0.481 2.267,1.186 3.205,2.115c0.946,0.93 1.667,1.976 2.166,3.142c0.481,1.165 0.722,2.411 0.722,3.737m-9.906,5.446c1.394,0 2.559,-0.518 3.496,-1.558c0.464,-0.515 0.807,-1.093 1.026,-1.735c0.22,-0.642 0.329,-1.36 0.329,-2.153c0,-1.546 -0.46,-2.842 -1.381,-3.889c-0.938,-1.039 -2.094,-1.559 -3.471,-1.559c-1.41,0 -2.571,0.52 -3.483,1.559c-0.912,1.038 -1.368,2.335 -1.368,3.889c-0,1.612 0.447,2.918 1.343,3.913c0.921,1.023 2.09,1.533 3.508,1.533l0.001,0Z" style="fill:#626060;fill-rule:nonzero;"/><path d="M857.147,747.69l5.067,-0l0,9.02c0,1.375 0.034,2.33 0.102,2.862c0.085,0.634 0.199,1.115 0.342,1.444c0.178,0.481 0.511,0.836 1.001,1.064c0.49,0.262 1.081,0.392 1.773,0.392c0.685,0 1.271,-0.13 1.762,-0.392c0.446,-0.22 0.785,-0.574 1.012,-1.064c0.135,-0.338 0.245,-0.819 0.33,-1.444c0.075,-0.507 0.113,-1.461 0.113,-2.862l-0,-9.02l5.029,-0l-0,9.805c-0,2.009 -0.123,3.504 -0.368,4.484c-0.227,0.971 -0.641,1.803 -1.241,2.495c-0.659,0.769 -1.533,1.33 -2.622,1.685c-1.081,0.38 -2.42,0.57 -4.015,0.57c-1.631,0 -2.973,-0.19 -4.028,-0.57c-1.074,-0.355 -1.948,-0.916 -2.622,-1.685c-0.583,-0.676 -0.998,-1.507 -1.242,-2.495c-0.262,-0.997 -0.393,-2.492 -0.393,-4.484l-0,-9.805Z" style="fill:#626060;fill-rule:nonzero;"/><path d="M882.241,766.235l-4.737,0l-0,-18.546l5.281,0c2.052,0 3.509,0.102 4.37,0.305c0.845,0.219 1.55,0.566 2.116,1.039c0.676,0.565 1.195,1.266 1.558,2.102c0.363,0.853 0.545,1.803 0.545,2.85c0,1.116 -0.182,2.086 -0.545,2.914c-0.321,0.836 -0.84,1.529 -1.558,2.077c-0.515,0.406 -1.136,0.697 -1.862,0.874c-0.65,0.178 -1.782,0.267 -3.395,0.267l-1.773,-0l-0,6.118Zm-0,-10.197l0.963,-0c1.199,-0 2.048,-0.173 2.546,-0.52c0.481,-0.321 0.722,-0.882 0.722,-1.684c0,-0.769 -0.237,-1.318 -0.71,-1.647c-0.464,-0.338 -1.301,-0.506 -2.508,-0.506l-1.013,-0l-0,4.357Z" style="fill:#626060;fill-rule:nonzero;"/><path d="M643.08,963.892c0,0.399 -0.07,0.822 -0.211,1.269c-0.142,0.446 -0.376,1.104 -0.705,1.973c-0.258,0.611 -0.588,1.492 -0.987,2.643c-1.033,3.031 -1.82,6.379 -2.361,10.044c-0.07,0.611 -0.141,1.269 -0.212,1.974c-0.07,0.704 -0.105,1.303 -0.105,1.797c-0,0.282 0.087,0.552 0.264,0.81c0.176,0.259 0.264,0.423 0.264,0.494c0,0.141 -0.152,0.393 -0.457,0.758c-0.306,0.364 -0.647,0.699 -1.023,1.004c-0.375,0.305 -0.681,0.458 -0.916,0.458c-0.47,0 -0.705,-0.2 -0.705,-0.599c-0,-0.517 0.294,-2.285 0.882,-5.304c0.586,-3.019 1.079,-5.339 1.479,-6.96c-0.563,0.634 -1.069,1.128 -1.515,1.48c-0.446,0.352 -0.999,0.529 -1.656,0.529c-0.94,-0 -1.892,-0.746 -2.855,-2.238c-0.963,-1.492 -1.926,-3.284 -2.89,-5.374l-0.352,-0.705c-0.33,-0.682 -0.658,-1.269 -0.987,-1.762c-0.329,-0.494 -0.494,-0.776 -0.494,-0.846c0,-0.118 0.088,-0.206 0.265,-0.265c0.176,-0.058 0.37,-0.088 0.581,-0.088c0.776,0 1.469,0.74 2.08,2.22c0.846,2.021 1.685,3.766 2.52,5.234c0.834,1.468 1.696,2.202 2.59,2.202c0.587,0 1.103,-0.199 1.551,-0.598c0.446,-0.4 0.81,-0.87 1.092,-1.41c0.258,-0.494 0.57,-1.198 0.934,-2.115c0.364,-0.916 0.64,-1.668 0.828,-2.255c0.751,-2.256 1.163,-3.56 1.233,-3.912c0.118,-0.493 0.224,-0.84 0.318,-1.04c0.093,-0.199 0.247,-0.299 0.457,-0.299c0.259,-0 0.506,0.088 0.74,0.264c0.235,0.176 0.353,0.382 0.353,0.617" style="fill:#626060;fill-rule:nonzero;"/><path d="M657.882,977.531c0.164,0 0.246,0.177 0.246,0.529c-0,0.423 -0.311,1.351 -0.934,2.784c-0.622,1.433 -1.562,2.761 -2.819,3.982c-1.256,1.222 -2.801,1.833 -4.634,1.833c-1.504,-0 -2.76,-0.47 -3.771,-1.41c-1.011,-0.94 -1.515,-2.384 -1.515,-4.334c-0,-1.833 0.423,-3.648 1.268,-5.445c0.846,-1.798 1.95,-3.266 3.313,-4.405c1.363,-1.14 2.772,-1.71 4.229,-1.71c0.869,0 1.603,0.194 2.202,0.582c0.599,0.387 0.899,0.945 0.899,1.674c-0,0.822 -0.463,1.621 -1.392,2.396c-0.928,0.775 -2.132,1.457 -3.612,2.044c-1.48,0.588 -3.008,1.011 -4.582,1.269c-0.281,1.081 -0.423,2.138 -0.423,3.172c0,1.362 0.323,2.419 0.97,3.171c0.646,0.752 1.568,1.128 2.766,1.128c1.809,0 3.277,-0.646 4.406,-1.938c1.127,-1.292 2.067,-2.749 2.818,-4.37c0.047,-0.094 0.13,-0.276 0.248,-0.546c0.117,-0.271 0.222,-0.406 0.317,-0.406m-3.101,-5.533c-0,-0.376 -0.194,-0.669 -0.583,-0.881c-0.387,-0.211 -0.839,-0.317 -1.356,-0.317c-0.892,0 -1.75,0.294 -2.573,0.881c-0.822,0.588 -1.509,1.292 -2.062,2.115c-0.552,0.822 -0.91,1.55 -1.074,2.185c1.081,-0.118 2.22,-0.423 3.419,-0.917c1.197,-0.493 2.202,-1.033 3.013,-1.621c0.81,-0.587 1.216,-1.069 1.216,-1.445" style="fill:#626060;fill-rule:nonzero;"/><path d="M674.093,984.262c0.023,0.165 0.118,0.335 0.281,0.511c0.165,0.177 0.247,0.324 0.247,0.441c0,0.282 -0.118,0.605 -0.352,0.969c-0.235,0.364 -0.47,0.546 -0.705,0.546c-0.4,0 -0.705,-0.246 -0.916,-0.74c-0.212,-0.493 -0.317,-1.069 -0.317,-1.727c-0,-0.563 0.035,-2.255 0.105,-5.074l0.036,-1.339c-0,-0.541 -0.141,-0.929 -0.423,-1.164c-1.058,1.786 -2.044,3.337 -2.961,4.652c-0.916,1.316 -2.078,2.555 -3.489,3.718c-1.409,1.163 -2.889,1.745 -4.44,1.745c-0.752,-0 -1.334,-0.235 -1.744,-0.705c-0.411,-0.47 -0.617,-1.081 -0.617,-1.833c-0,-0.939 0.423,-2.226 1.269,-3.858c0.846,-1.633 1.926,-3.29 3.241,-4.97c1.316,-1.679 2.632,-3.06 3.948,-4.14c0.869,-0.705 1.562,-1.181 2.079,-1.428c0.517,-0.246 0.975,-0.37 1.375,-0.37c0.376,0 0.763,0.118 1.163,0.353c0.399,0.235 0.739,0.564 1.022,0.986c0.281,0.423 0.423,0.905 0.423,1.445c-0,0.729 -0.2,1.422 -0.6,2.08l0.6,-0.177c0.258,0 0.411,0.318 0.457,0.952c0.024,0.376 0.054,1.139 0.088,2.291c0.036,1.151 0.065,2.102 0.088,2.854c0.025,0.775 0.048,1.527 0.071,2.256c0.024,0.728 0.047,1.303 0.071,1.726m-12.441,0.635c1.269,-0 2.491,-0.47 3.666,-1.41c1.174,-0.94 2.226,-2.062 3.153,-3.366c0.929,-1.303 1.957,-2.907 3.085,-4.81c0.281,-0.705 0.423,-1.468 0.423,-2.291c-0,-0.493 -0.147,-0.922 -0.441,-1.286c-0.294,-0.364 -0.688,-0.546 -1.181,-0.546c-0.587,-0 -1.339,0.399 -2.255,1.198c-1.058,0.893 -2.173,2.085 -3.349,3.577c-1.174,1.492 -2.149,2.966 -2.924,4.423c-0.776,1.457 -1.163,2.608 -1.163,3.453c-0,0.705 0.328,1.058 0.986,1.058" style="fill:#626060;fill-rule:nonzero;"/><path d="M688.824,971.681c0,0.211 -0.147,0.452 -0.441,0.722c-0.294,0.27 -0.546,0.405 -0.758,0.405c-0.163,0 -0.323,-0.07 -0.475,-0.211c-0.153,-0.141 -0.323,-0.341 -0.511,-0.599c-0.165,-0.235 -0.382,-0.435 -0.652,-0.599c-0.271,-0.165 -0.547,-0.247 -0.828,-0.247c-0.682,0 -1.598,0.899 -2.749,2.696c-1.152,1.797 -2.28,4.059 -3.384,6.784c0.025,0.541 0.065,1.222 0.124,2.044c0.059,0.823 0.1,1.433 0.123,1.833l0.106,1.41c0,0.328 -0.07,0.616 -0.211,0.863c-0.142,0.246 -0.4,0.37 -0.775,0.37c-0.4,-0 -0.658,-0.535 -0.776,-1.604c-0.117,-1.069 -0.188,-2.625 -0.212,-4.669c-0.023,-0.517 -0.041,-1.257 -0.052,-2.22c-0.012,-0.964 -0.041,-2.115 -0.089,-3.454c-0.07,-2.021 -0.106,-3.466 -0.106,-4.335c0,-0.54 0.33,-0.81 0.988,-0.81c0.399,-0 0.64,0.17 0.722,0.511c0.082,0.34 0.124,0.992 0.124,1.956l-0,5.603c0.704,-1.809 1.468,-3.371 2.29,-4.687c0.822,-1.316 1.627,-2.32 2.414,-3.013c0.787,-0.693 1.486,-1.04 2.097,-1.04c0.517,-0 1.011,0.118 1.48,0.352c0.47,0.235 0.846,0.535 1.128,0.899c0.282,0.364 0.423,0.711 0.423,1.04" style="fill:#626060;fill-rule:nonzero;"/><path d="M702.603,981.583c-0,1.034 -0.417,2.026 -1.25,2.978c-0.835,0.951 -1.933,1.715 -3.296,2.291c-1.363,0.575 -2.784,0.863 -4.264,0.863c-1.01,0 -1.692,-0.094 -2.045,-0.282c-0.351,-0.188 -0.527,-0.446 -0.527,-0.775c-0,-0.212 0.269,-0.582 0.81,-1.11c0.54,-0.529 0.904,-0.793 1.092,-0.793c0.282,-0 0.423,0.059 0.423,0.176c0,0.094 -0.059,0.188 -0.176,0.282c-0.118,0.094 -0.177,0.176 -0.177,0.247c0,0.094 0.147,0.188 0.441,0.282c0.294,0.094 0.652,0.141 1.075,0.141c0.987,-0 1.98,-0.182 2.978,-0.547c0.999,-0.364 1.815,-0.84 2.449,-1.427c0.635,-0.587 0.952,-1.21 0.952,-1.868c-0,-0.634 -0.2,-1.139 -0.599,-1.515c-0.4,-0.376 -0.898,-0.652 -1.498,-0.828c-0.599,-0.177 -1.603,-0.429 -3.013,-0.758c-1.55,-0.352 -2.755,-0.664 -3.613,-0.934c-0.857,-0.27 -1.544,-0.611 -2.061,-1.022c-0.517,-0.411 -0.775,-0.934 -0.775,-1.568c-0,-1.128 0.552,-2.162 1.656,-3.101c1.104,-0.94 2.373,-1.68 3.806,-2.221c1.434,-0.54 2.538,-0.81 3.313,-0.81c0.799,-0 1.198,0.235 1.198,0.705c-0,0.282 -0.094,0.593 -0.282,0.934c-0.188,0.34 -0.47,0.51 -0.846,0.51c-0.14,0 -0.293,-0.052 -0.458,-0.158c-0.164,-0.106 -0.329,-0.159 -0.493,-0.159c-0.471,0 -1.21,0.153 -2.22,0.459c-1.011,0.305 -1.927,0.763 -2.749,1.374c-0.822,0.611 -1.233,1.351 -1.233,2.22c-0,0.564 0.323,0.981 0.968,1.251c0.647,0.27 1.85,0.605 3.612,1.004c0.212,0.071 0.423,0.124 0.635,0.159c0.211,0.035 0.4,0.077 0.564,0.124c1.809,0.422 3.195,0.904 4.158,1.444c0.964,0.541 1.445,1.351 1.445,2.432" style="fill:#626060;fill-rule:nonzero;"/><path d="M725.123,979.223c-0,0.916 -0.341,1.973 -1.022,3.171c-0.681,1.199 -1.645,2.227 -2.89,3.084c-1.245,0.858 -2.667,1.286 -4.264,1.286c-1.574,0 -2.738,-0.434 -3.489,-1.304c-0.752,-0.869 -1.129,-1.95 -1.129,-3.242c0,-1.127 0.206,-2.526 0.617,-4.194c0.412,-1.668 0.993,-3.159 1.745,-4.475c0.047,-0.094 0.241,-0.441 0.582,-1.04c0.34,-0.599 0.722,-1.057 1.145,-1.374c0.423,-0.317 0.869,-0.476 1.339,-0.476c0.212,-0 0.405,0.053 0.581,0.159c0.177,0.105 0.265,0.24 0.265,0.405c0,0.047 -0.065,0.158 -0.194,0.335c-0.129,0.176 -0.229,0.311 -0.299,0.405c-0.799,0.963 -1.445,1.915 -1.939,2.855c-0.658,1.198 -1.169,2.384 -1.533,3.559c-0.364,1.175 -0.546,2.455 -0.546,3.841c-0,1.856 1.127,2.784 3.383,2.784c1.057,0 2.039,-0.305 2.943,-0.916c0.904,-0.611 1.627,-1.357 2.167,-2.238c0.541,-0.881 0.81,-1.686 0.81,-2.414c0,-0.822 -0.269,-1.539 -0.81,-2.15c-0.54,-0.61 -1.28,-1.257 -2.22,-1.938c-0.611,-0.446 -1.057,-0.811 -1.339,-1.092c-0.283,-0.282 -0.423,-0.517 -0.423,-0.705c0,-0.282 0.199,-0.511 0.599,-0.688c0.4,-0.176 0.869,-0.264 1.409,-0.264c0.306,0 0.506,0.018 0.6,0.053c0.094,0.035 0.14,0.1 0.14,0.194c0,0.047 -0.041,0.123 -0.123,0.229c-0.081,0.106 -0.123,0.194 -0.123,0.264c0,0.071 0.235,0.306 0.705,0.705c0.94,0.776 1.727,1.563 2.361,2.361c0.635,0.799 0.952,1.739 0.952,2.82" style="fill:#626060;fill-rule:nonzero;"/><path d="M740.595,964.105c-0,0.282 -0.065,0.652 -0.194,1.11c-0.129,0.458 -0.276,0.687 -0.441,0.687c-0.164,0 -0.287,-0.076 -0.37,-0.229c-0.082,-0.152 -0.159,-0.358 -0.229,-0.616c-0.258,-0.799 -0.652,-1.475 -1.18,-2.027c-0.529,-0.552 -1.099,-0.828 -1.71,-0.828c-1.644,0 -2.825,1.11 -3.542,3.331c-0.716,2.22 -1.074,4.822 -1.074,7.805c0.705,-0.047 1.497,-0.158 2.379,-0.334c0.88,-0.176 1.463,-0.288 1.744,-0.335c1.668,-0.352 2.772,-0.529 3.313,-0.529c0.47,0 0.705,0.212 0.705,0.635c-0,0.329 -0.071,0.681 -0.212,1.057c-0.141,0.376 -0.353,0.564 -0.634,0.564c-0.235,-0 -0.47,-0.047 -0.705,-0.141c-0.329,-0.141 -0.776,-0.212 -1.339,-0.212c-0.376,0 -1.151,0.118 -2.327,0.353l-2.818,0.423c-0,0.587 0.07,2.22 0.211,4.898c0.235,4.135 0.352,7.436 0.352,9.903c0,0.446 -0.047,0.758 -0.14,0.934c-0.095,0.176 -0.283,0.264 -0.565,0.264c-0.328,0 -0.575,-0.188 -0.74,-0.563c-0.164,-0.376 -0.246,-0.799 -0.246,-1.269c0,-2.702 -0.177,-6.943 -0.529,-12.722l-0.071,-1.128c-0.188,0.023 -0.792,0.129 -1.814,0.317c-1.022,0.188 -1.768,0.282 -2.238,0.282c-0.259,-0 -0.476,-0.059 -0.652,-0.176c-0.176,-0.118 -0.265,-0.294 -0.265,-0.529c0,-0.587 0.212,-0.893 0.635,-0.916c0.611,-0.024 1.351,-0.077 2.22,-0.159c0.87,-0.082 1.539,-0.17 2.009,-0.264c-0,-3.853 0.523,-6.984 1.568,-9.392c1.045,-2.408 2.602,-3.612 4.67,-3.612c0.751,-0 1.45,0.188 2.097,0.564c0.645,0.375 1.163,0.834 1.55,1.374c0.388,0.54 0.582,1.034 0.582,1.48" style="fill:#626060;fill-rule:nonzero;"/><path d="M766.919,964.033c0,0.282 -0.2,0.529 -0.6,0.74c-0.633,0.353 -1.626,0.729 -2.977,1.128c-1.351,0.4 -2.462,0.681 -3.331,0.846c-1.363,0.258 -2.731,0.464 -4.105,0.617c-1.375,0.153 -2.261,0.241 -2.661,0.264c0.023,1.363 0.059,2.767 0.106,4.211c0.047,1.445 0.082,2.438 0.106,2.978c0.916,-0.117 2.29,-0.34 4.123,-0.669l1.339,-0.212c1.48,-0.258 2.619,-0.728 3.418,-1.409c0.423,-0.329 0.728,-0.494 0.916,-0.494c0.165,0 0.3,0.088 0.406,0.265c0.105,0.176 0.159,0.358 0.159,0.546c-0,0.423 -0.476,0.887 -1.428,1.392c-0.951,0.505 -2.003,0.875 -3.154,1.11c-0.963,0.211 -2.044,0.411 -3.242,0.599c-1.198,0.188 -1.985,0.306 -2.361,0.353c0.141,4.017 0.552,7.001 1.233,8.951c0.681,0.235 1.351,0.405 2.009,0.511c0.658,0.106 1.504,0.159 2.537,0.159c1.034,-0 2.02,-0.136 2.961,-0.406c0.939,-0.27 1.698,-0.605 2.273,-1.004c0.575,-0.4 0.863,-0.775 0.863,-1.128c-0,-0.188 -0.035,-0.37 -0.106,-0.546c-0.07,-0.176 -0.164,-0.358 -0.282,-0.546c-0.046,-0.071 -0.123,-0.183 -0.229,-0.335c-0.106,-0.153 -0.158,-0.276 -0.158,-0.37c-0,-0.235 0.258,-0.353 0.775,-0.353c0.376,0 0.699,0.159 0.969,0.476c0.271,0.317 0.405,0.664 0.405,1.04c0,0.752 -0.335,1.492 -1.004,2.22c-0.67,0.728 -1.586,1.321 -2.749,1.78c-1.162,0.458 -2.449,0.687 -3.858,0.687c-1.434,-0 -2.608,-0.076 -3.525,-0.229c-0.916,-0.153 -1.609,-0.452 -2.079,-0.899c-0.564,-0.634 -0.957,-1.738 -1.181,-3.313c-0.223,-1.574 -0.416,-3.676 -0.581,-6.308c-0.446,0.118 -0.946,0.218 -1.498,0.3c-0.552,0.082 -0.969,0.123 -1.251,0.123c-0.282,0 -0.511,-0.088 -0.687,-0.264c-0.176,-0.177 -0.264,-0.394 -0.264,-0.652c-0,-0.165 0.029,-0.306 0.088,-0.423c0.058,-0.118 0.147,-0.188 0.264,-0.212c0.775,-0.094 1.339,-0.152 1.692,-0.176l1.515,-0.176c-0.094,-3.031 -0.188,-5.498 -0.282,-7.401c-0.353,0 -0.634,0.012 -0.846,0.035l-1.621,0.036c-0.211,-0 -0.376,-0.059 -0.493,-0.176c-0.118,-0.118 -0.177,-0.247 -0.177,-0.388c0,-0.564 0.376,-0.94 1.128,-1.128c0.282,-0.047 0.64,-0.1 1.075,-0.159c0.434,-0.058 0.722,-0.088 0.864,-0.088c0.446,-0.493 0.939,-0.74 1.479,-0.74c0.095,0 0.171,0.077 0.23,0.229c0.059,0.153 0.087,0.265 0.087,0.335c1.551,-0.07 3.396,-0.246 5.534,-0.528c1.409,-0.188 3.582,-0.635 6.52,-1.34l1.303,-0.281c0.235,-0 0.353,0.14 0.353,0.422" style="fill:#626060;fill-rule:nonzero;"/><path d="M779.642,982.782c0,0.306 -0.106,0.764 -0.317,1.375c-0.211,0.611 -0.459,1.157 -0.74,1.639c-0.282,0.481 -0.552,0.722 -0.811,0.722c-0.469,-0 -1.11,-0.582 -1.921,-1.745c-0.81,-1.162 -1.827,-2.742 -3.048,-4.74l-0.423,-0.704c-0.47,0.845 -0.851,1.556 -1.145,2.132c-0.294,0.575 -0.581,1.216 -0.864,1.92c-0.47,1.128 -0.705,1.798 -0.705,2.009c0,0.329 0.165,0.494 0.494,0.494c0.071,-0 0.188,-0.059 0.352,-0.177c0.165,-0.117 0.282,-0.176 0.353,-0.176c0.117,0 0.223,0.035 0.316,0.106c0.095,0.07 0.142,0.153 0.142,0.247c-0,0.141 -0.176,0.375 -0.529,0.704c-0.352,0.329 -0.746,0.623 -1.18,0.881c-0.435,0.259 -0.781,0.388 -1.04,0.388c-0.188,0 -0.353,-0.158 -0.494,-0.476c-0.14,-0.317 -0.211,-0.651 -0.211,-1.004c-0,-0.634 0.265,-1.521 0.793,-2.661c0.529,-1.139 1.322,-2.719 2.379,-4.74l0.563,-1.022c-0.469,-1.01 -1.097,-2.285 -1.884,-3.823c-0.787,-1.539 -1.486,-2.802 -2.097,-3.789c-0.353,-0.611 -0.529,-1.198 -0.529,-1.762c-0,-0.235 0.029,-0.399 0.088,-0.493c0.059,-0.094 0.147,-0.141 0.265,-0.141c0.211,-0 0.434,0.111 0.669,0.334c0.235,0.223 0.516,0.617 0.846,1.181c1.057,1.692 2.244,3.959 3.559,6.802c0.094,-0.165 0.365,-0.635 0.811,-1.41c0.728,-1.316 1.445,-2.526 2.149,-3.63c0.494,-0.705 0.875,-1.174 1.146,-1.41c0.27,-0.235 0.651,-0.352 1.145,-0.352c0.682,0 1.022,0.188 1.022,0.564c0,0.094 -0.035,0.17 -0.106,0.229c-0.07,0.059 -0.229,0.153 -0.476,0.282c-0.246,0.129 -0.499,0.323 -0.757,0.581c-0.399,0.4 -1.022,1.251 -1.868,2.555c-0.846,1.304 -1.645,2.649 -2.396,4.036c0.516,0.986 1.122,1.979 1.814,2.978c0.694,0.998 1.316,1.82 1.868,2.466c0.552,0.647 0.899,0.97 1.04,0.97c0.329,-0 0.6,-0.306 0.811,-0.917c0.047,-0.164 0.111,-0.34 0.194,-0.528c0.082,-0.188 0.181,-0.282 0.299,-0.282c0.282,-0 0.423,0.129 0.423,0.387" style="fill:#626060;fill-rule:nonzero;"/><path d="M791.06,978.764c0,0.141 -0.24,0.576 -0.722,1.304c-0.481,0.729 -0.968,1.386 -1.463,1.974c-1.221,1.48 -2.319,2.619 -3.295,3.418c-0.975,0.799 -1.99,1.199 -3.047,1.199c-0.893,-0 -1.628,-0.388 -2.203,-1.163c-0.576,-0.776 -0.864,-1.669 -0.864,-2.679c-0,-1.503 0.399,-3.407 1.199,-5.709c0.798,-2.302 1.809,-4.3 3.03,-5.991c1.222,-1.692 2.444,-2.537 3.665,-2.537c0.517,-0 0.963,0.188 1.34,0.563c0.211,0.212 0.41,0.494 0.598,0.846c0.189,0.353 0.283,0.67 0.283,0.952c-0,0.399 -0.053,0.863 -0.159,1.392c-0.106,0.528 -0.217,0.793 -0.335,0.793c-0.235,-0 -0.387,-0.129 -0.458,-0.388c-0.071,-0.258 -0.118,-0.587 -0.141,-0.987c-0.07,-0.61 -0.14,-1.016 -0.212,-1.215c-0.07,-0.2 -0.175,-0.3 -0.317,-0.3c-1.104,-0 -2.173,0.769 -3.207,2.308c-1.033,1.539 -1.879,3.325 -2.537,5.357c-0.658,2.032 -0.987,3.6 -0.987,4.705c0,1.55 0.517,2.326 1.551,2.326c0.752,-0 1.439,-0.188 2.061,-0.564c0.623,-0.376 1.275,-0.905 1.956,-1.586c1.269,-1.292 2.256,-2.408 2.961,-3.348c0.047,-0.071 0.182,-0.253 0.405,-0.546c0.223,-0.294 0.382,-0.441 0.476,-0.441c0.282,0 0.422,0.106 0.422,0.317" style="fill:#626060;fill-rule:nonzero;"/><path d="M805.367,977.531c0.165,0 0.247,0.177 0.247,0.529c0,0.423 -0.312,1.351 -0.934,2.784c-0.623,1.433 -1.563,2.761 -2.819,3.982c-1.257,1.222 -2.802,1.833 -4.635,1.833c-1.503,-0 -2.76,-0.47 -3.771,-1.41c-1.01,-0.94 -1.515,-2.384 -1.515,-4.334c0,-1.833 0.423,-3.648 1.268,-5.445c0.846,-1.798 1.95,-3.266 3.313,-4.405c1.363,-1.14 2.773,-1.71 4.23,-1.71c0.869,0 1.603,0.194 2.202,0.582c0.599,0.387 0.899,0.945 0.899,1.674c-0,0.822 -0.464,1.621 -1.393,2.396c-0.928,0.775 -2.131,1.457 -3.612,2.044c-1.48,0.588 -3.007,1.011 -4.581,1.269c-0.282,1.081 -0.423,2.138 -0.423,3.172c-0,1.362 0.323,2.419 0.969,3.171c0.646,0.752 1.569,1.128 2.766,1.128c1.809,0 3.278,-0.646 4.406,-1.938c1.128,-1.292 2.067,-2.749 2.819,-4.37c0.047,-0.094 0.129,-0.276 0.247,-0.546c0.118,-0.271 0.223,-0.406 0.317,-0.406m-3.101,-5.533c-0,-0.376 -0.194,-0.669 -0.581,-0.881c-0.389,-0.211 -0.841,-0.317 -1.357,-0.317c-0.893,0 -1.751,0.294 -2.573,0.881c-0.822,0.588 -1.51,1.292 -2.062,2.115c-0.552,0.822 -0.91,1.55 -1.075,2.185c1.081,-0.118 2.22,-0.423 3.419,-0.917c1.198,-0.493 2.203,-1.033 3.013,-1.621c0.811,-0.587 1.216,-1.069 1.216,-1.445" style="fill:#626060;fill-rule:nonzero;"/><path d="M810.407,985.565c-0,0.235 -0.153,0.423 -0.458,0.564c-0.306,0.141 -0.646,0.211 -1.022,0.211c-0.282,0 -0.546,-0.334 -0.793,-1.004c-0.246,-0.669 -0.37,-1.686 -0.37,-3.048c0.024,-2.655 0.065,-5.862 0.124,-9.621c0.058,-3.759 0.111,-6.591 0.158,-8.494c0.023,-0.681 0.147,-1.315 0.369,-1.903c0.224,-0.587 0.618,-0.881 1.182,-0.881c0.188,0 0.311,0.1 0.369,0.3c0.059,0.2 0.089,0.581 0.089,1.145c0,0.024 -0.007,0.1 -0.018,0.229c-0.012,0.13 -0.018,0.359 -0.018,0.688c-0.422,6.178 -0.634,12.205 -0.634,18.079c-0,0.751 0.17,1.55 0.511,2.396c0.341,0.846 0.511,1.292 0.511,1.339" style="fill:#626060;fill-rule:nonzero;"/><path d="M816.046,985.565c0,0.235 -0.152,0.423 -0.458,0.564c-0.305,0.141 -0.646,0.211 -1.022,0.211c-0.282,0 -0.547,-0.334 -0.793,-1.004c-0.247,-0.669 -0.37,-1.686 -0.37,-3.048c0.023,-2.655 0.064,-5.862 0.123,-9.621c0.059,-3.759 0.112,-6.591 0.159,-8.494c0.024,-0.681 0.146,-1.315 0.37,-1.903c0.223,-0.587 0.617,-0.881 1.181,-0.881c0.187,0 0.311,0.1 0.37,0.3c0.059,0.2 0.087,0.581 0.087,1.145c0.001,0.024 -0.005,0.1 -0.017,0.229c-0.011,0.13 -0.018,0.359 -0.018,0.688c-0.422,6.178 -0.634,12.205 -0.634,18.079c0.001,0.751 0.171,1.55 0.511,2.396c0.341,0.846 0.511,1.292 0.511,1.339" style="fill:#626060;fill-rule:nonzero;"/><path d="M831.588,977.531c0.165,0 0.247,0.177 0.247,0.529c0,0.423 -0.311,1.351 -0.934,2.784c-0.622,1.433 -1.562,2.761 -2.819,3.982c-1.257,1.222 -2.802,1.833 -4.634,1.833c-1.504,-0 -2.761,-0.47 -3.771,-1.41c-1.01,-0.94 -1.516,-2.384 -1.516,-4.334c0,-1.833 0.423,-3.648 1.269,-5.445c0.846,-1.798 1.95,-3.266 3.313,-4.405c1.363,-1.14 2.773,-1.71 4.229,-1.71c0.869,0 1.604,0.194 2.203,0.582c0.599,0.387 0.898,0.945 0.898,1.674c0,0.822 -0.464,1.621 -1.391,2.396c-0.929,0.775 -2.133,1.457 -3.614,2.044c-1.479,0.588 -3.006,1.011 -4.58,1.269c-0.282,1.081 -0.423,2.138 -0.423,3.172c-0,1.362 0.323,2.419 0.968,3.171c0.647,0.752 1.569,1.128 2.767,1.128c1.809,0 3.278,-0.646 4.405,-1.938c1.128,-1.292 2.068,-2.749 2.82,-4.37c0.047,-0.094 0.129,-0.276 0.247,-0.546c0.117,-0.271 0.223,-0.406 0.316,-0.406m-3.101,-5.533c-0,-0.376 -0.194,-0.669 -0.581,-0.881c-0.387,-0.211 -0.839,-0.317 -1.357,-0.317c-0.893,0 -1.75,0.294 -2.573,0.881c-0.822,0.588 -1.509,1.292 -2.061,2.115c-0.552,0.822 -0.911,1.55 -1.075,2.185c1.08,-0.118 2.22,-0.423 3.418,-0.917c1.199,-0.493 2.203,-1.033 3.013,-1.621c0.811,-0.587 1.216,-1.069 1.216,-1.445" style="fill:#626060;fill-rule:nonzero;"/><path d="M845.297,986.764c0,0.282 -0.118,0.523 -0.352,0.723c-0.235,0.2 -0.517,0.299 -0.846,0.299c-0.235,0 -0.435,-0.053 -0.599,-0.158c-0.164,-0.106 -0.246,-0.253 -0.246,-0.441c-0,-0.963 0.07,-2.455 0.211,-4.476c0.14,-2.161 0.212,-3.958 0.212,-5.391c-0,-1.386 -0.042,-2.52 -0.124,-3.401c-0.082,-0.881 -0.276,-1.322 -0.582,-1.322c-0.798,0 -1.673,0.993 -2.625,2.978c-0.952,1.985 -2.038,4.599 -3.26,7.842l-0.529,1.409c-0.094,0.235 -0.252,0.423 -0.475,0.564c-0.223,0.141 -0.452,0.211 -0.687,0.211c-0.283,0 -0.47,-0.023 -0.565,-0.07c-0.093,-0.047 -0.152,-0.188 -0.175,-0.423l-0.282,-2.89l-0.529,-5.075c-0.165,-2.02 -0.365,-3.782 -0.6,-5.286c-0.07,-0.352 -0.106,-0.622 -0.106,-0.81c0,-0.353 0.154,-0.641 0.459,-0.864c0.305,-0.223 0.658,-0.335 1.058,-0.335c0.234,0 0.405,0.564 0.51,1.692c0.106,1.128 0.218,2.949 0.336,5.462l0.14,1.868c0.188,2.373 0.294,3.877 0.317,4.511c0.071,-0.141 0.136,-0.299 0.194,-0.475c0.059,-0.177 0.135,-0.371 0.229,-0.582c1.269,-3.289 2.461,-6.032 3.578,-8.229c1.115,-2.197 2.19,-3.295 3.223,-3.295c0.729,-0 1.228,0.617 1.499,1.85c0.27,1.234 0.44,2.813 0.511,4.74c0.07,2.138 0.105,5.263 0.105,9.374" style="fill:#626060;fill-rule:nonzero;"/><path d="M858.688,978.764c-0,0.141 -0.241,0.576 -0.723,1.304c-0.481,0.729 -0.968,1.386 -1.462,1.974c-1.222,1.48 -2.32,2.619 -3.296,3.418c-0.974,0.799 -1.99,1.199 -3.047,1.199c-0.893,-0 -1.628,-0.388 -2.203,-1.163c-0.576,-0.776 -0.863,-1.669 -0.863,-2.679c-0,-1.503 0.398,-3.407 1.198,-5.709c0.799,-2.302 1.809,-4.3 3.031,-5.991c1.221,-1.692 2.443,-2.537 3.664,-2.537c0.518,-0 0.964,0.188 1.34,0.563c0.211,0.212 0.411,0.494 0.598,0.846c0.189,0.353 0.283,0.67 0.283,0.952c-0,0.399 -0.053,0.863 -0.159,1.392c-0.106,0.528 -0.217,0.793 -0.334,0.793c-0.236,-0 -0.388,-0.129 -0.459,-0.388c-0.07,-0.258 -0.118,-0.587 -0.141,-0.987c-0.07,-0.61 -0.14,-1.016 -0.211,-1.215c-0.071,-0.2 -0.176,-0.3 -0.318,-0.3c-1.104,-0 -2.173,0.769 -3.207,2.308c-1.033,1.539 -1.879,3.325 -2.537,5.357c-0.658,2.032 -0.986,3.6 -0.986,4.705c-0,1.55 0.517,2.326 1.551,2.326c0.751,-0 1.438,-0.188 2.061,-0.564c0.622,-0.376 1.275,-0.905 1.956,-1.586c1.268,-1.292 2.255,-2.408 2.96,-3.348c0.047,-0.071 0.182,-0.253 0.405,-0.546c0.224,-0.294 0.382,-0.441 0.476,-0.441c0.282,0 0.423,0.106 0.423,0.317" style="fill:#626060;fill-rule:nonzero;"/><path d="M872.996,977.531c0.165,0 0.247,0.177 0.247,0.529c0,0.423 -0.311,1.351 -0.934,2.784c-0.623,1.433 -1.562,2.761 -2.819,3.982c-1.257,1.222 -2.802,1.833 -4.634,1.833c-1.504,-0 -2.761,-0.47 -3.771,-1.41c-1.01,-0.94 -1.515,-2.384 -1.515,-4.334c-0,-1.833 0.422,-3.648 1.268,-5.445c0.845,-1.798 1.95,-3.266 3.313,-4.405c1.363,-1.14 2.772,-1.71 4.229,-1.71c0.869,0 1.603,0.194 2.202,0.582c0.6,0.387 0.899,0.945 0.899,1.674c0,0.822 -0.464,1.621 -1.392,2.396c-0.927,0.775 -2.132,1.457 -3.612,2.044c-1.481,0.588 -3.007,1.011 -4.582,1.269c-0.282,1.081 -0.422,2.138 -0.422,3.172c-0,1.362 0.323,2.419 0.968,3.171c0.647,0.752 1.569,1.128 2.767,1.128c1.81,0 3.278,-0.646 4.406,-1.938c1.127,-1.292 2.067,-2.749 2.819,-4.37c0.047,-0.094 0.129,-0.276 0.246,-0.546c0.118,-0.271 0.224,-0.406 0.317,-0.406m-3.101,-5.533c0,-0.376 -0.194,-0.669 -0.581,-0.881c-0.388,-0.211 -0.84,-0.317 -1.357,-0.317c-0.893,0 -1.751,0.294 -2.572,0.881c-0.823,0.588 -1.51,1.292 -2.062,2.115c-0.552,0.822 -0.911,1.55 -1.075,2.185c1.081,-0.118 2.22,-0.423 3.418,-0.917c1.198,-0.493 2.203,-1.033 3.014,-1.621c0.81,-0.587 1.215,-1.069 1.215,-1.445" style="fill:#626060;fill-rule:nonzero;"/><path d="M644.983,1006l1.873,6.312c0.37,1.295 0.693,2.405 0.948,3.469l0.046,-0c0.277,-1.018 0.67,-2.197 1.11,-3.469l2.22,-6.312l1.04,-0l2.127,6.243c0.463,1.364 0.81,2.497 1.087,3.538l0.046,-0c0.231,-1.041 0.578,-2.151 1.018,-3.492l1.965,-6.289l1.133,-0l-3.7,11.099l-0.948,-0l-2.104,-6.197c-0.462,-1.341 -0.855,-2.52 -1.156,-3.769l-0.046,-0c-0.324,1.295 -0.74,2.52 -1.202,3.815l-2.197,6.151l-0.971,-0l-3.422,-11.099l1.133,-0Z" style="fill:#626060;fill-rule:nonzero;"/><path d="M661.861,1006l1.873,6.312c0.37,1.295 0.693,2.405 0.948,3.469l0.046,-0c0.278,-1.018 0.671,-2.197 1.11,-3.469l2.22,-6.312l1.04,-0l2.127,6.243c0.463,1.364 0.81,2.497 1.087,3.538l0.046,-0c0.232,-1.041 0.579,-2.151 1.018,-3.492l1.965,-6.289l1.133,-0l-3.699,11.099l-0.948,-0l-2.104,-6.197c-0.463,-1.341 -0.856,-2.52 -1.157,-3.769l-0.046,-0c-0.324,1.295 -0.74,2.52 -1.202,3.815l-2.197,6.151l-0.971,-0l-3.422,-11.099l1.133,-0Z" style="fill:#626060;fill-rule:nonzero;"/><path d="M678.74,1006l1.873,6.312c0.37,1.295 0.694,2.405 0.948,3.469l0.046,-0c0.278,-1.018 0.671,-2.197 1.11,-3.469l2.22,-6.312l1.04,-0l2.127,6.243c0.463,1.364 0.81,2.497 1.087,3.538l0.046,-0c0.232,-1.041 0.578,-2.151 1.018,-3.492l1.965,-6.289l1.133,-0l-3.699,11.099l-0.948,-0l-2.104,-6.197c-0.463,-1.341 -0.856,-2.52 -1.157,-3.769l-0.046,-0c-0.324,1.295 -0.74,2.52 -1.202,3.815l-2.197,6.151l-0.971,-0l-3.422,-11.099l1.133,-0Z" style="fill:#626060;fill-rule:nonzero;"/><path d="M695.132,1017.36c-0.532,0 -0.925,-0.485 -0.901,-1.04c-0,-0.602 0.393,-1.041 0.947,-1.041c0.555,0 0.925,0.439 0.925,1.041c0,0.555 -0.37,1.04 -0.948,1.04l-0.023,0Z" style="fill:#626060;fill-rule:nonzero;"/><path d="M698.878,1008.66c0,-1.017 -0.023,-1.78 -0.092,-2.659l1.04,0l0.07,1.943l0.046,-0c0.717,-1.272 1.78,-2.197 3.607,-2.197c1.526,-0 2.705,1.017 3.191,2.404l0.046,0c0.301,-0.647 0.717,-1.156 1.133,-1.502c0.717,-0.578 1.457,-0.902 2.636,-0.902c1.087,-0 3.63,0.601 3.63,4.809l0,6.544l-1.11,-0l0,-6.451c0,-2.498 -0.971,-3.977 -2.89,-3.977c-1.387,-0 -2.474,1.04 -2.913,2.196c-0.093,0.324 -0.185,0.694 -0.185,1.11l-0,7.122l-1.11,-0l-0,-6.96c-0,-1.989 -0.948,-3.468 -2.752,-3.468c-1.48,-0 -2.659,1.202 -3.075,2.497c-0.093,0.324 -0.162,0.694 -0.162,1.087l0,6.844l-1.11,-0l0,-8.44Z" style="fill:#626060;fill-rule:nonzero;"/><path d="M726.37,1014.4c0,0.971 0.023,1.85 0.093,2.705l-1.041,0l-0.069,-1.988l-0.046,-0c-0.555,1.04 -1.827,2.243 -3.792,2.243c-1.411,-0 -3.792,-0.717 -3.792,-4.902l-0,-6.451l1.109,-0l0,6.243c0,2.404 0.74,4.139 2.937,4.139c1.619,-0 2.798,-1.133 3.283,-2.243c0.116,-0.347 0.209,-0.786 0.209,-1.226l-0,-6.913l1.109,-0l0,8.393Z" style="fill:#626060;fill-rule:nonzero;"/><rect x="730.092" y="1000.66" width="1.11" height="16.44" style="fill:#626060;"/><path d="M736.52,1003.55l0,2.451l3.168,-0l0,0.901l-3.168,0l0,7.215c0,1.41 0.44,2.289 1.619,2.289c0.578,-0 0.994,-0.07 1.272,-0.162l0.138,0.832c-0.37,0.139 -0.878,0.255 -1.549,0.255c-0.809,-0 -1.48,-0.255 -1.896,-0.763c-0.509,-0.579 -0.693,-1.526 -0.693,-2.659l-0,-7.007l-1.873,0l-0,-0.901l1.873,-0l-0,-2.035l1.109,-0.416Z" style="fill:#626060;fill-rule:nonzero;"/><path d="M742.14,1006l1.109,-0l0,11.099l-1.109,-0l-0,-11.099Zm0.508,-2.22c-0.508,0 -0.855,-0.439 -0.855,-0.948c-0,-0.509 0.393,-0.971 0.902,-0.971c0.508,0 0.878,0.439 0.878,0.971c0,0.509 -0.347,0.948 -0.901,0.948l-0.024,0Z" style="fill:#626060;fill-rule:nonzero;"/><path d="M746.971,1006l1.11,-0l-0,11.099l-1.11,-0l-0,-11.099Zm0.508,-2.22c-0.508,0 -0.855,-0.439 -0.855,-0.948c-0,-0.509 0.393,-0.971 0.902,-0.971c0.508,0 0.878,0.439 0.878,0.971c0,0.509 -0.347,0.948 -0.901,0.948l-0.024,0Z" style="fill:#626060;fill-rule:nonzero;"/><path d="M751.802,1008.66c-0,-1.017 -0.023,-1.78 -0.093,-2.659l1.041,0l0.069,1.989l0.046,-0c0.601,-1.249 2.012,-2.243 3.816,-2.243c1.063,-0 3.884,0.532 3.884,4.694l0,6.659l-1.11,-0l0,-6.567c0,-2.035 -0.786,-3.861 -3.075,-3.861c-1.549,-0 -2.89,1.11 -3.33,2.566c-0.069,0.255 -0.138,0.625 -0.138,0.971l-0,6.891l-1.11,-0l-0,-8.44Z" style="fill:#626060;fill-rule:nonzero;"/><path d="M765.722,1003.55l-0,2.451l3.168,-0l-0,0.901l-3.168,0l-0,7.215c-0,1.41 0.439,2.289 1.619,2.289c0.578,-0 0.994,-0.07 1.271,-0.162l0.139,0.832c-0.37,0.139 -0.879,0.255 -1.549,0.255c-0.809,-0 -1.48,-0.255 -1.896,-0.763c-0.509,-0.579 -0.694,-1.526 -0.694,-2.659l0,-7.007l-1.873,0l0,-0.901l1.873,-0l0,-2.035l1.11,-0.416Z" style="fill:#626060;fill-rule:nonzero;"/><path d="M778.438,1010.56c0.023,-1.549 -0.624,-3.885 -3.306,-3.885c-2.451,0 -3.492,2.174 -3.7,3.885l7.006,-0Zm-7.075,0.878c-0,3.538 1.942,4.949 4.231,4.949c1.619,-0 2.451,-0.324 3.076,-0.625l0.277,0.856c-0.416,0.231 -1.549,0.717 -3.491,0.717c-3.191,-0 -5.18,-2.313 -5.18,-5.573c0,-3.7 2.127,-6.012 4.995,-6.012c3.63,0 4.323,3.423 4.323,5.018c0,0.3 0,0.462 -0.046,0.67l-8.185,0Z" style="fill:#626060;fill-rule:nonzero;"/><path d="M790.162,1010.28c0,-0.416 -0.023,-0.763 -0.139,-1.086c-0.462,-1.318 -1.618,-2.521 -3.445,-2.521c-2.358,0 -3.977,1.92 -3.977,4.856c0,2.497 1.318,4.648 3.931,4.648c1.48,-0 2.867,-0.925 3.445,-2.497c0.116,-0.371 0.185,-0.787 0.185,-1.18l0,-2.22Zm1.11,5.203c-0,2.844 -0.601,4.255 -1.526,5.133c-1.017,0.971 -2.52,1.318 -3.769,1.318c-1.272,0 -2.682,-0.324 -3.538,-0.971l0.393,-0.879c0.786,0.509 1.873,0.925 3.307,0.925c2.335,0 4.023,-1.202 4.023,-4.485l0,-1.573l-0.046,0c-0.578,1.133 -1.873,2.151 -3.862,2.151c-2.797,-0 -4.763,-2.428 -4.763,-5.457c0,-3.862 2.544,-5.897 4.995,-5.897c2.196,0 3.283,1.203 3.745,2.128l0.047,-0l0.069,-1.873l1.017,-0c-0.069,0.832 -0.092,1.711 -0.092,2.867l-0,6.613l-0,-0Z" style="fill:#626060;fill-rule:nonzero;"/><path d="M794.786,1009.33c0,-1.109 -0.023,-2.242 -0.092,-3.329l1.017,-0l0.047,2.243l0.069,-0c0.486,-1.411 1.642,-2.498 3.145,-2.498c0.161,0 0.323,0.024 0.462,0.047l0,1.04c-0.162,-0.023 -0.324,-0.023 -0.532,-0.023c-1.526,0 -2.613,1.318 -2.913,3.099c-0.07,0.323 -0.093,0.693 -0.093,1.063l0,6.128l-1.11,-0l0,-7.77Z" style="fill:#626060;fill-rule:nonzero;"/><path d="M807.433,1011.16c-2.427,-0.07 -5.618,0.3 -5.618,2.959c-0,1.596 1.063,2.313 2.219,2.313c1.85,-0 2.914,-1.133 3.284,-2.22c0.092,-0.231 0.115,-0.486 0.115,-0.671l0,-2.381Zm1.11,3.306c0,0.879 0.023,1.781 0.162,2.636l-1.017,0l-0.162,-1.595l-0.046,-0c-0.555,0.855 -1.781,1.849 -3.561,1.849c-2.243,0 -3.261,-1.572 -3.261,-3.052c0,-2.566 2.243,-4.115 6.775,-4.069l0,-0.301c0,-1.087 -0.208,-3.283 -2.844,-3.26c-0.971,-0 -1.988,0.254 -2.798,0.832l-0.346,-0.809c1.017,-0.67 2.266,-0.948 3.26,-0.948c3.214,0 3.838,2.405 3.838,4.37l0,4.347Z" style="fill:#626060;fill-rule:nonzero;"/><path d="M812.404,1017.36c-0.532,0 -0.925,-0.485 -0.902,-1.04c-0,-0.602 0.393,-1.041 0.948,-1.041c0.555,0 0.925,0.439 0.925,1.041c-0,0.555 -0.37,1.04 -0.948,1.04l-0.023,0Z" style="fill:#626060;fill-rule:nonzero;"/><path d="M823.804,1016.62c-0.486,0.231 -1.642,0.717 -3.26,0.717c-3.191,-0 -5.318,-2.335 -5.318,-5.665c-0,-3.538 2.404,-5.92 5.711,-5.92c1.364,0 2.497,0.394 2.913,0.694l-0.393,0.902c-0.532,-0.324 -1.387,-0.648 -2.613,-0.648c-2.983,0 -4.509,2.267 -4.509,4.879c0,2.914 1.827,4.81 4.394,4.81c1.318,-0 2.173,-0.37 2.774,-0.648l0.301,0.879Z" style="fill:#626060;fill-rule:nonzero;"/><path d="M830.694,1016.43c2.313,-0 4.139,-2.081 4.139,-4.925c0,-2.035 -1.133,-4.833 -4.069,-4.833c-2.844,0 -4.116,2.521 -4.116,4.902c-0,2.775 1.757,4.856 4.023,4.856l0.023,-0Zm-0.069,0.925c-2.867,-0 -5.087,-2.243 -5.087,-5.711c0,-3.792 2.497,-5.897 5.249,-5.897c3.075,0 5.156,2.313 5.156,5.712c0,4.115 -2.844,5.896 -5.295,5.896l-0.023,-0Z" style="fill:#626060;fill-rule:nonzero;"/><path d="M838.625,1017.36c-0.532,0 -0.925,-0.485 -0.902,-1.04c-0,-0.602 0.393,-1.041 0.948,-1.041c0.555,0 0.925,0.439 0.925,1.041c-0,0.555 -0.37,1.04 -0.948,1.04l-0.023,0Z" style="fill:#626060;fill-rule:nonzero;"/><path d="M842.369,1006l1.11,-0l-0,11.099l-1.11,-0l-0,-11.099Zm0.508,-2.22c-0.508,0 -0.855,-0.439 -0.855,-0.948c-0,-0.509 0.393,-0.971 0.902,-0.971c0.508,0 0.878,0.439 0.878,0.971c0,0.509 -0.347,0.948 -0.901,0.948l-0.024,0Z" style="fill:#626060;fill-rule:nonzero;"/><path d="M854.948,1010.4c0,-0.3 -0.023,-0.694 -0.116,-1.017c-0.37,-1.48 -1.688,-2.706 -3.491,-2.706c-2.428,0 -3.954,2.105 -3.954,4.972c0,2.497 1.249,4.786 3.885,4.786c1.595,0 3.098,-1.064 3.56,-2.89c0.093,-0.278 0.116,-0.578 0.116,-0.925l0,-2.22Zm1.11,-9.734l-0,13.873c-0,0.809 0.023,1.78 0.092,2.567l-0.994,-0l-0.092,-2.104l-0.047,-0c-0.578,1.225 -1.896,2.358 -3.953,2.358c-2.752,-0 -4.787,-2.289 -4.787,-5.596c-0.023,-3.699 2.266,-6.012 4.995,-6.012c1.919,0 3.144,0.995 3.63,1.966l0.046,0l0,-7.052l1.11,-0Z" style="fill:#626060;fill-rule:nonzero;"/><g><g><g><path d="M714.538,928.84l3.343,-0c0.76,-0 1.33,0.063 1.735,0.177c0.532,0.152 0.988,0.431 1.368,0.836c0.379,0.392 0.658,0.886 0.861,1.469c0.202,0.569 0.291,1.291 0.291,2.14c-0,0.747 -0.089,1.393 -0.279,1.924c-0.228,0.659 -0.544,1.203 -0.962,1.609c-0.317,0.303 -0.747,0.544 -1.292,0.721c-0.405,0.127 -0.937,0.19 -1.621,0.19l-3.444,0l0,-9.066Zm1.836,1.532l0,6.002l1.368,0c0.506,0 0.874,-0.025 1.101,-0.076c0.304,-0.076 0.545,-0.203 0.735,-0.38c0.203,-0.177 0.367,-0.468 0.481,-0.874c0.127,-0.405 0.19,-0.962 0.19,-1.658c0,-0.709 -0.063,-1.241 -0.19,-1.621c-0.114,-0.367 -0.291,-0.671 -0.519,-0.874c-0.215,-0.215 -0.507,-0.354 -0.848,-0.43c-0.254,-0.051 -0.748,-0.089 -1.495,-0.089l-0.823,-0Z" style="fill:#fafafa;fill-rule:nonzero;"/></g><g><path d="M729.266,937.907l-0,-0.988c-0.241,0.354 -0.557,0.633 -0.937,0.836c-0.393,0.202 -0.811,0.303 -1.241,0.303c-0.443,0 -0.836,-0.101 -1.19,-0.291c-0.342,-0.202 -0.596,-0.468 -0.76,-0.823c-0.152,-0.342 -0.228,-0.836 -0.228,-1.443l-0,-4.166l1.735,-0l-0,3.026c-0,0.924 0.038,1.481 0.101,1.697c0.063,0.202 0.177,0.367 0.342,0.494c0.177,0.114 0.38,0.177 0.646,0.177c0.291,-0 0.557,-0.076 0.797,-0.241c0.241,-0.164 0.393,-0.367 0.482,-0.608c0.088,-0.24 0.126,-0.835 0.126,-1.772l0,-2.773l1.748,-0l-0,6.572l-1.621,-0Z" style="fill:#fafafa;fill-rule:nonzero;"/></g><g><path d="M735.24,933.347l-1.57,-0.291c0.177,-0.633 0.481,-1.102 0.912,-1.406c0.43,-0.303 1.076,-0.455 1.924,-0.455c0.786,-0 1.355,0.088 1.735,0.266c0.38,0.189 0.646,0.417 0.798,0.709c0.165,0.278 0.241,0.797 0.241,1.544l-0.026,2.039c0,0.57 0.026,1.001 0.089,1.266c0.051,0.279 0.152,0.57 0.304,0.887l-1.71,-0c-0.05,-0.114 -0.101,-0.291 -0.164,-0.519c-0.038,-0.102 -0.051,-0.165 -0.064,-0.203c-0.303,0.291 -0.62,0.507 -0.962,0.659c-0.329,0.139 -0.696,0.215 -1.076,0.215c-0.671,-0 -1.203,-0.19 -1.596,-0.557c-0.392,-0.368 -0.582,-0.823 -0.582,-1.393c-0,-0.367 0.088,-0.697 0.266,-0.988c0.177,-0.291 0.418,-0.506 0.734,-0.671c0.329,-0.152 0.785,-0.291 1.393,-0.405c0.81,-0.152 1.368,-0.292 1.684,-0.418l0,-0.177c0,-0.33 -0.088,-0.57 -0.253,-0.71c-0.165,-0.152 -0.469,-0.215 -0.924,-0.215c-0.317,0 -0.558,0.063 -0.722,0.177c-0.178,0.127 -0.317,0.342 -0.431,0.646Zm2.33,1.406c-0.228,0.076 -0.57,0.164 -1.064,0.266c-0.481,0.101 -0.797,0.202 -0.937,0.304c-0.227,0.164 -0.341,0.367 -0.341,0.607c-0,0.241 0.088,0.456 0.265,0.634c0.19,0.177 0.418,0.266 0.697,0.266c0.316,-0 0.608,-0.102 0.899,-0.304c0.203,-0.165 0.342,-0.355 0.418,-0.583c0.038,-0.152 0.063,-0.43 0.063,-0.848l0,-0.342Z" style="fill:#fafafa;fill-rule:nonzero;"/></g><g><path d="M748.689,937.907l-2.406,-9.067l1.228,-0l1.38,5.939c0.152,0.633 0.279,1.241 0.393,1.861c0.228,-0.975 0.367,-1.532 0.405,-1.671l1.722,-6.129l1.444,-0l1.304,4.584c0.329,1.14 0.557,2.216 0.697,3.216c0.126,-0.57 0.265,-1.228 0.455,-1.975l1.419,-5.825l1.215,-0l-2.494,9.067l-1.153,-0l-1.912,-6.902c-0.164,-0.582 -0.253,-0.937 -0.278,-1.063c-0.102,0.405 -0.19,0.759 -0.266,1.063l-1.925,6.902l-1.228,-0Z" style="fill:#fafafa;fill-rule:nonzero;"/></g><g><path d="M760.181,930.12l0,-1.279l1.115,-0l-0,1.279l-1.115,-0Zm0,7.787l0,-6.571l1.115,-0l-0,6.571l-1.115,0Z" style="fill:#fafafa;fill-rule:nonzero;"/></g><g><path d="M764.26,937.907l-0,-6.572l1,-0l0,0.937c0.481,-0.722 1.178,-1.077 2.09,-1.077c0.392,0 0.759,0.064 1.089,0.216c0.329,0.139 0.582,0.329 0.747,0.557c0.164,0.228 0.278,0.506 0.342,0.823c0.05,0.202 0.063,0.557 0.063,1.076l-0,4.04l-1.114,-0l-0,-3.989c-0,-0.456 -0.038,-0.798 -0.127,-1.026c-0.089,-0.215 -0.241,-0.405 -0.456,-0.532c-0.228,-0.139 -0.481,-0.202 -0.772,-0.202c-0.482,-0 -0.887,0.152 -1.229,0.455c-0.354,0.292 -0.519,0.862 -0.519,1.71l0,3.584l-1.114,-0Z" style="fill:#fafafa;fill-rule:nonzero;"/></g><g><path d="M776.826,937.907l-0,-0.824c-0.418,0.646 -1.026,0.975 -1.836,0.975c-0.519,0 -1.001,-0.151 -1.444,-0.43c-0.43,-0.291 -0.772,-0.697 -1.013,-1.216c-0.24,-0.519 -0.367,-1.114 -0.367,-1.785c-0,-0.659 0.114,-1.254 0.329,-1.786c0.215,-0.531 0.545,-0.937 0.988,-1.228c0.43,-0.278 0.924,-0.418 1.456,-0.418c0.405,0 0.747,0.076 1.064,0.253c0.304,0.165 0.557,0.38 0.747,0.646l-0,-3.254l1.114,-0l0,9.067l-1.038,-0Zm-3.508,-3.28c0,0.848 0.177,1.469 0.532,1.887c0.342,0.417 0.772,0.62 1.254,0.62c0.481,0 0.899,-0.19 1.241,-0.595c0.329,-0.393 0.506,-1 0.506,-1.811c0,-0.899 -0.177,-1.57 -0.519,-1.988c-0.355,-0.418 -0.772,-0.633 -1.279,-0.633c-0.494,-0 -0.912,0.203 -1.241,0.608c-0.329,0.405 -0.494,1.051 -0.494,1.912Z" style="fill:#fafafa;fill-rule:nonzero;"/></g><g><path d="M785.185,937.907l0,-0.963c-0.519,0.735 -1.203,1.114 -2.089,1.114c-0.38,0 -0.747,-0.076 -1.077,-0.227c-0.341,-0.152 -0.595,-0.33 -0.759,-0.558c-0.152,-0.228 -0.266,-0.506 -0.342,-0.823c-0.038,-0.215 -0.064,-0.57 -0.064,-1.038l0,-4.077l1.115,-0l-0,3.646c-0,0.583 0.025,0.975 0.063,1.178c0.076,0.291 0.215,0.519 0.443,0.684c0.228,0.164 0.507,0.253 0.849,0.253c0.329,0 0.646,-0.089 0.937,-0.253c0.291,-0.177 0.494,-0.405 0.62,-0.697c0.127,-0.304 0.178,-0.721 0.178,-1.291l-0,-3.52l1.114,-0l-0,6.572l-0.988,-0Z" style="fill:#fafafa;fill-rule:nonzero;"/></g></g><path d="M726.008,863.405l0,1.069l-5.991,0c-0.008,-0.268 0.035,-0.525 0.13,-0.773c0.152,-0.408 0.396,-0.81 0.732,-1.205c0.336,-0.396 0.822,-0.854 1.456,-1.373c0.986,-0.808 1.651,-1.448 1.998,-1.92c0.346,-0.472 0.519,-0.918 0.519,-1.338c-0,-0.441 -0.158,-0.813 -0.473,-1.116c-0.315,-0.303 -0.727,-0.455 -1.234,-0.455c-0.535,0 -0.964,0.161 -1.286,0.482c-0.321,0.322 -0.484,0.767 -0.488,1.336l-1.144,-0.118c0.078,-0.853 0.373,-1.503 0.884,-1.95c0.511,-0.448 1.198,-0.671 2.059,-0.671c0.87,-0 1.558,0.241 2.065,0.723c0.507,0.483 0.761,1.08 0.761,1.793c-0,0.363 -0.074,0.72 -0.223,1.07c-0.148,0.35 -0.395,0.719 -0.739,1.107c-0.344,0.387 -0.916,0.919 -1.715,1.595c-0.668,0.561 -1.097,0.941 -1.287,1.141c-0.189,0.2 -0.346,0.401 -0.469,0.603l4.445,-0Z" style="fill:#fafafa;fill-rule:nonzero;"/><path d="M726.695,860.004c-0,-1.071 0.11,-1.934 0.331,-2.587c0.22,-0.654 0.548,-1.158 0.983,-1.512c0.435,-0.354 0.982,-0.532 1.641,-0.532c0.487,0 0.913,0.098 1.28,0.294c0.367,0.196 0.67,0.478 0.909,0.847c0.239,0.369 0.427,0.818 0.563,1.348c0.136,0.53 0.204,1.244 0.204,2.142c-0,1.064 -0.109,1.922 -0.328,2.576c-0.218,0.653 -0.545,1.158 -0.98,1.514c-0.435,0.357 -0.984,0.535 -1.648,0.535c-0.873,0 -1.56,-0.313 -2.058,-0.94c-0.598,-0.754 -0.897,-1.982 -0.897,-3.685Zm1.144,0c-0,1.488 0.174,2.479 0.522,2.971c0.349,0.493 0.778,0.739 1.289,0.739c0.512,0 0.941,-0.247 1.29,-0.742c0.348,-0.494 0.522,-1.484 0.522,-2.968c0,-1.492 -0.174,-2.483 -0.522,-2.974c-0.349,-0.49 -0.783,-0.736 -1.302,-0.736c-0.511,0 -0.919,0.217 -1.224,0.65c-0.383,0.552 -0.575,1.572 -0.575,3.06Z" style="fill:#fafafa;fill-rule:nonzero;"/><path d="M733.232,860.004c-0,-1.071 0.11,-1.934 0.33,-2.587c0.221,-0.654 0.549,-1.158 0.984,-1.512c0.435,-0.354 0.982,-0.532 1.641,-0.532c0.487,0 0.913,0.098 1.28,0.294c0.367,0.196 0.67,0.478 0.909,0.847c0.239,0.369 0.427,0.818 0.563,1.348c0.136,0.53 0.204,1.244 0.204,2.142c-0,1.064 -0.11,1.922 -0.328,2.576c-0.219,0.653 -0.545,1.158 -0.98,1.514c-0.435,0.357 -0.984,0.535 -1.648,0.535c-0.874,0 -1.56,-0.313 -2.059,-0.94c-0.597,-0.754 -0.896,-1.982 -0.896,-3.685Zm1.144,0c-0,1.488 0.174,2.479 0.522,2.971c0.348,0.493 0.778,0.739 1.289,0.739c0.511,0 0.941,-0.247 1.289,-0.742c0.349,-0.494 0.523,-1.484 0.523,-2.968c-0,-1.492 -0.174,-2.483 -0.523,-2.974c-0.348,-0.49 -0.782,-0.736 -1.301,-0.736c-0.511,0 -0.919,0.217 -1.224,0.65c-0.384,0.552 -0.575,1.572 -0.575,3.06Z" style="fill:#fafafa;fill-rule:nonzero;"/><path d="M739.768,862.1l1.169,-0.099c0.086,0.569 0.287,0.996 0.602,1.283c0.316,0.286 0.696,0.43 1.141,0.43c0.536,-0 0.989,-0.202 1.361,-0.606c0.37,-0.404 0.556,-0.94 0.556,-1.608c-0,-0.635 -0.178,-1.136 -0.535,-1.502c-0.356,-0.367 -0.823,-0.551 -1.4,-0.551c-0.359,0 -0.683,0.082 -0.971,0.245c-0.289,0.162 -0.515,0.374 -0.68,0.633l-1.045,-0.136l0.878,-4.655l4.507,-0l0,1.063l-3.617,-0l-0.488,2.436c0.544,-0.379 1.115,-0.569 1.712,-0.569c0.792,0 1.46,0.274 2.004,0.823c0.544,0.548 0.816,1.253 0.816,2.114c-0,0.82 -0.239,1.529 -0.717,2.127c-0.582,0.734 -1.375,1.101 -2.381,1.101c-0.824,-0 -1.497,-0.231 -2.018,-0.693c-0.522,-0.462 -0.82,-1.074 -0.894,-1.836Z" style="fill:#fafafa;fill-rule:nonzero;"/><rect x="749.192" y="860.635" width="3.419" height="1.119" style="fill:#fafafa;"/><path d="M761.886,863.405l-0,1.069l-5.991,0c-0.009,-0.268 0.035,-0.525 0.129,-0.773c0.153,-0.408 0.397,-0.81 0.733,-1.205c0.336,-0.396 0.821,-0.854 1.456,-1.373c0.985,-0.808 1.651,-1.448 1.997,-1.92c0.347,-0.472 0.52,-0.918 0.52,-1.338c-0,-0.441 -0.158,-0.813 -0.473,-1.116c-0.316,-0.303 -0.727,-0.455 -1.234,-0.455c-0.536,0 -0.964,0.161 -1.286,0.482c-0.321,0.322 -0.484,0.767 -0.488,1.336l-1.144,-0.118c0.078,-0.853 0.373,-1.503 0.884,-1.95c0.511,-0.448 1.197,-0.671 2.059,-0.671c0.87,-0 1.558,0.241 2.065,0.723c0.507,0.483 0.761,1.08 0.761,1.793c-0,0.363 -0.075,0.72 -0.223,1.07c-0.148,0.35 -0.395,0.719 -0.739,1.107c-0.344,0.387 -0.916,0.919 -1.716,1.595c-0.667,0.561 -1.096,0.941 -1.286,1.141c-0.189,0.2 -0.346,0.401 -0.47,0.603l4.446,-0Z" style="fill:#fafafa;fill-rule:nonzero;"/><path d="M762.573,860.004c0,-1.071 0.11,-1.934 0.331,-2.587c0.221,-0.654 0.548,-1.158 0.983,-1.512c0.435,-0.354 0.982,-0.532 1.642,-0.532c0.486,0 0.913,0.098 1.279,0.294c0.367,0.196 0.67,0.478 0.909,0.847c0.24,0.369 0.427,0.818 0.563,1.348c0.136,0.53 0.204,1.244 0.204,2.142c0,1.064 -0.109,1.922 -0.328,2.576c-0.218,0.653 -0.545,1.158 -0.98,1.514c-0.434,0.357 -0.984,0.535 -1.647,0.535c-0.874,0 -1.561,-0.313 -2.059,-0.94c-0.598,-0.754 -0.897,-1.982 -0.897,-3.685Zm1.144,0c0,1.488 0.174,2.479 0.523,2.971c0.348,0.493 0.778,0.739 1.289,0.739c0.511,0 0.94,-0.247 1.289,-0.742c0.348,-0.494 0.522,-1.484 0.522,-2.968c0,-1.492 -0.174,-2.483 -0.522,-2.974c-0.349,-0.49 -0.782,-0.736 -1.302,-0.736c-0.511,0 -0.919,0.217 -1.224,0.65c-0.383,0.552 -0.575,1.572 -0.575,3.06Z" style="fill:#fafafa;fill-rule:nonzero;"/><path d="M774.957,863.405l0,1.069l-5.991,0c-0.008,-0.268 0.035,-0.525 0.13,-0.773c0.152,-0.408 0.396,-0.81 0.732,-1.205c0.336,-0.396 0.822,-0.854 1.456,-1.373c0.986,-0.808 1.651,-1.448 1.998,-1.92c0.346,-0.472 0.519,-0.918 0.519,-1.338c-0,-0.441 -0.158,-0.813 -0.473,-1.116c-0.315,-0.303 -0.727,-0.455 -1.234,-0.455c-0.535,0 -0.964,0.161 -1.286,0.482c-0.321,0.322 -0.484,0.767 -0.488,1.336l-1.144,-0.118c0.078,-0.853 0.373,-1.503 0.884,-1.95c0.511,-0.448 1.198,-0.671 2.059,-0.671c0.87,-0 1.558,0.241 2.065,0.723c0.507,0.483 0.761,1.08 0.761,1.793c-0,0.363 -0.074,0.72 -0.223,1.07c-0.148,0.35 -0.394,0.719 -0.739,1.107c-0.344,0.387 -0.916,0.919 -1.715,1.595c-0.668,0.561 -1.097,0.941 -1.286,1.141c-0.19,0.2 -0.347,0.401 -0.47,0.603l4.445,-0Z" style="fill:#fafafa;fill-rule:nonzero;"/><path d="M779.835,864.474l-1.113,-0l0,-7.092c-0.268,0.255 -0.619,0.511 -1.054,0.767c-0.435,0.255 -0.825,0.447 -1.172,0.574l0,-1.075c0.623,-0.293 1.167,-0.647 1.633,-1.064c0.466,-0.416 0.795,-0.82 0.989,-1.212l0.717,0l0,9.102Z" style="fill:#fafafa;fill-rule:nonzero;"/><path d="M736.837,871.461l0,49.715l-13.737,0l-0,-32.577c-2.223,1.69 -4.374,3.057 -6.452,4.102c-2.079,1.045 -4.685,2.045 -7.819,3.001l-0,-11.137c4.623,-1.489 8.213,-3.279 10.769,-5.368c2.557,-2.09 4.557,-4.669 6.002,-7.736l11.237,-0l0,-0Z" style="fill:#fafafa;fill-rule:nonzero;"/><path d="M790.921,883.297l-13.504,1.667c-0.356,-1.889 -0.95,-3.223 -1.784,-4.001c-0.833,-0.778 -1.862,-1.167 -3.084,-1.167c-2.201,-0 -3.912,1.111 -5.135,3.334c-0.889,1.601 -1.545,5.024 -1.967,10.27c1.622,-1.645 3.29,-2.862 5.001,-3.651c1.712,-0.789 3.69,-1.184 5.935,-1.184c4.357,0 8.042,1.556 11.054,4.668c3.012,3.112 4.518,7.058 4.518,11.837c-0,3.223 -0.761,6.169 -2.284,8.836c-1.523,2.668 -3.635,4.685 -6.335,6.052c-2.701,1.367 -6.086,2.051 -10.154,2.051c-4.89,-0 -8.813,-0.834 -11.77,-2.501c-2.956,-1.667 -5.318,-4.329 -7.085,-7.986c-1.768,-3.657 -2.651,-8.497 -2.651,-14.521c-0,-8.825 1.856,-15.288 5.568,-19.389c3.712,-4.102 8.858,-6.152 15.438,-6.152c3.89,-0 6.963,0.45 9.22,1.35c2.256,0.901 4.129,2.218 5.618,3.951c1.489,1.734 2.623,3.913 3.401,6.536Zm-25.007,21.773c-0,2.645 0.666,4.718 2,6.219c1.334,1.5 2.968,2.25 4.902,2.25c1.778,0 3.267,-0.678 4.468,-2.033c1.2,-1.356 1.8,-3.379 1.8,-6.069c0,-2.756 -0.622,-4.857 -1.867,-6.302c-1.245,-1.445 -2.79,-2.167 -4.635,-2.167c-1.889,-0 -3.473,0.7 -4.751,2.1c-1.278,1.401 -1.917,3.401 -1.917,6.002Z" style="fill:#fafafa;fill-rule:nonzero;"/></g></g></svg>