<?xml version="1.0" encoding="UTF-8" standalone="no"?><!DOCTYPE svg PUBLIC "-//W3C//DTD SVG 1.1//EN" "http://www.w3.org/Graphics/SVG/1.1/DTD/svg11.dtd"><svg width="100%" height="100%" viewBox="0 0 1920 1080" version="1.1" xmlns="http://www.w3.org/2000/svg" xmlns:xlink="http://www.w3.org/1999/xlink" xml:space="preserve" xmlns:serif="http://www.serif.com/" style="fill-rule:evenodd;clip-rule:evenodd;stroke-linejoin:round;stroke-miterlimit:2;"><g><path d="M521.832,681.25c-0,4.63 -3.691,8.361 -8.301,8.361l-81.054,-0c-4.685,-0 -8.396,-3.731 -8.396,-8.361l0,-81.139c0,-4.55 3.711,-8.306 8.396,-8.306l81.054,0c4.61,0 8.301,3.756 8.301,8.306l-0,81.139Z" style="fill:#fff;fill-rule:nonzero;"/><path d="M387.38,578.043c-2.58,-0 -4.751,2.25 -4.751,4.896l0,52.818c0,2.746 2.171,4.836 4.751,4.836l52.794,0c2.705,0 4.946,-2.09 4.946,-4.836l-0,-52.818c-0,-2.646 -2.241,-4.896 -4.946,-4.896l-52.794,-0Zm52.794,69.411l-52.794,0c-6.501,0 -11.697,-5.256 -11.697,-11.697l0,-52.818c0,-6.426 5.196,-11.727 11.697,-11.727l52.794,-0c6.481,-0 11.762,5.301 11.762,11.727l-0,52.818c-0,6.441 -5.281,11.697 -11.762,11.697" style="fill:#fff;fill-rule:nonzero;"/><path d="M320.699,613.784c-2.72,-0 -4.88,2.19 -4.88,4.84l-0,38.142c-0,2.695 2.16,4.92 4.88,4.92l38.117,0c2.745,0 4.98,-2.225 4.98,-4.92l0,-38.142c0,-2.65 -2.235,-4.84 -4.98,-4.84l-38.117,-0Zm38.117,54.684l-38.117,-0c-6.431,-0 -11.687,-5.226 -11.687,-11.702l0,-38.142c0,-6.446 5.256,-11.726 11.687,-11.726l38.117,-0c6.486,-0 11.766,5.28 11.766,11.726l0,38.142c0,6.476 -5.28,11.702 -11.766,11.702" style="fill:#fff;fill-rule:nonzero;"/><path d="M461.217,538.932c0,4.58 -3.675,8.281 -8.291,8.281l-38.101,-0c-4.646,-0 -8.317,-3.701 -8.317,-8.281l0,-38.092c0,-4.555 3.671,-8.281 8.317,-8.281l38.101,0c4.616,0 8.291,3.726 8.291,8.281l0,38.092Z" style="fill:#fff;fill-rule:nonzero;"/><path d="M414.82,495.955c-2.676,-0 -4.911,2.17 -4.911,4.89l-0,38.092c-0,2.745 2.235,4.89 4.911,4.89l38.101,0c2.73,0 4.901,-2.145 4.901,-4.89l-0,-38.092c-0,-2.72 -2.171,-4.89 -4.901,-4.89l-38.101,-0Zm38.101,54.698l-38.101,0c-6.506,0 -11.762,-5.195 -11.762,-11.716l-0,-38.092c-0,-6.426 5.256,-11.722 11.762,-11.722l38.101,0c6.511,0 11.722,5.296 11.722,11.722l-0,38.092c-0,6.521 -5.211,11.716 -11.722,11.716" style="fill:#fff;fill-rule:nonzero;"/><path d="M268.456,572.682c-1.005,0 -1.85,0.825 -1.85,1.805l-0,23.974c-0,1.005 0.845,1.785 1.85,1.785l23.854,0c1.055,0 1.86,-0.78 1.86,-1.785l0,-23.974c0,-0.98 -0.805,-1.805 -1.86,-1.805l-23.854,0Zm23.854,34.371l-23.854,-0c-4.771,-0 -8.717,-3.881 -8.717,-8.592l0,-23.974c0,-4.785 3.946,-8.611 8.717,-8.611l23.854,-0c4.806,-0 8.641,3.826 8.641,8.611l0,23.974c0,4.711 -3.835,8.592 -8.641,8.592" style="fill:#fff;fill-rule:nonzero;"/><path d="M432.032,397.214c-0.94,-0 -1.735,0.805 -1.735,1.81l0,23.944c0,0.935 0.795,1.785 1.735,1.785l24.024,0c0.93,0 1.766,-0.85 1.766,-1.785l-0,-23.944c-0,-1.005 -0.836,-1.81 -1.766,-1.81l-24.024,-0Zm24.024,34.37l-24.024,0c-4.69,0 -8.591,-3.83 -8.591,-8.616l0,-23.944c0,-4.786 3.901,-8.641 8.591,-8.641l24.024,-0c4.761,-0 8.587,3.855 8.587,8.641l-0,23.944c-0,4.786 -3.826,8.616 -8.587,8.616" style="fill:#fff;fill-rule:nonzero;"/><path d="M492.422,494.709c-1.055,0 -1.9,0.776 -1.9,1.706l-0,23.964c-0,1.035 0.845,1.815 1.9,1.815l23.854,-0c1.025,-0 1.81,-0.78 1.81,-1.815l0,-23.964c0,-0.93 -0.785,-1.706 -1.81,-1.706l-23.854,0Zm23.854,34.346l-23.854,-0c-4.821,-0 -8.676,-3.916 -8.676,-8.676l-0,-23.964c-0,-4.711 3.855,-8.642 8.676,-8.642l23.854,0c4.761,0 8.696,3.931 8.696,8.642l0,23.964c0,4.76 -3.935,8.676 -8.696,8.676" style="fill:#fff;fill-rule:nonzero;"/><path d="M551.742,551.899c-0,2.125 -1.695,3.805 -3.711,3.805l-17.288,0c-2.07,0 -3.77,-1.68 -3.77,-3.805l-0,-17.203c-0,-2.15 1.7,-3.836 3.77,-3.836l17.288,0c2.016,0 3.711,1.686 3.711,3.836l-0,17.203Z" style="fill:#fff;fill-rule:nonzero;"/><path d="M523.702,568.701c0,0.981 -0.83,1.806 -1.745,1.806l-7.921,-0c-0.915,-0 -1.706,-0.825 -1.706,-1.806l0,-7.816c0,-0.905 0.791,-1.655 1.706,-1.655l7.921,-0c0.915,-0 1.745,0.75 1.745,1.655l0,7.816Z" style="fill:#fff;fill-rule:nonzero;"/><path d="M416.555,448.042c-0,1.04 -0.785,1.79 -1.735,1.79l-7.852,0c-0.955,0 -1.72,-0.75 -1.72,-1.79l0,-7.816c0,-0.901 0.765,-1.756 1.72,-1.756l7.852,0c0.95,0 1.735,0.855 1.735,1.756l-0,7.816Z" style="fill:#fff;fill-rule:nonzero;"/><path d="M362.751,453.638c0,0.88 -0.715,1.655 -1.67,1.655l-7.876,0c-0.951,0 -1.791,-0.775 -1.791,-1.655l0,-7.922c0,-1.01 0.84,-1.71 1.791,-1.71l7.876,0c0.955,0 1.67,0.7 1.67,1.71l0,7.922Z" style="fill:#fff;fill-rule:nonzero;"/><path d="M343.418,472.996c0,0.955 -0.825,1.735 -1.735,1.735l-7.862,0c-1.025,0 -1.725,-0.78 -1.725,-1.735l0,-7.871c0,-0.961 0.7,-1.711 1.725,-1.711l7.862,0c0.91,0 1.735,0.75 1.735,1.711l0,7.871Z" style="fill:#fff;fill-rule:nonzero;"/><path d="M229.76,483.038c-0,0.88 -0.765,1.71 -1.691,1.71l-7.876,-0c-0.91,-0 -1.795,-0.83 -1.795,-1.71l-0,-7.922c-0,-0.91 0.885,-1.76 1.795,-1.76l7.876,-0c0.926,-0 1.691,0.85 1.691,1.76l-0,7.922Z" style="fill:#fff;fill-rule:nonzero;"/><path d="M228.819,581.744c0,0.98 -0.75,1.705 -1.81,1.705l-7.866,-0c-0.93,-0 -1.695,-0.725 -1.695,-1.705l-0,-7.892c-0,-0.935 0.765,-1.68 1.695,-1.68l7.866,-0c1.06,-0 1.81,0.745 1.81,1.68l0,7.892Z" style="fill:#fff;fill-rule:nonzero;"/><path d="M396.577,479.382c-0,2.1 -1.761,3.781 -3.806,3.781l-17.183,-0c-2.13,-0 -3.83,-1.681 -3.83,-3.781l-0,-17.203c-0,-2.075 1.7,-3.835 3.83,-3.835l17.183,-0c2.045,-0 3.806,1.76 3.806,3.835l-0,17.203Z" style="fill:#fff;fill-rule:nonzero;"/><path d="M257.899,560.705c0,2.12 -1.63,3.751 -3.755,3.751l-17.318,-0c-2.001,-0 -3.676,-1.631 -3.676,-3.751l0,-17.238c0,-2.04 1.675,-3.78 3.676,-3.78l17.318,-0c2.125,-0 3.755,1.74 3.755,3.78l0,17.238Z" style="fill:#fff;fill-rule:nonzero;"/><path d="M257.899,508.732c0,2.1 -1.63,3.78 -3.755,3.78l-17.318,0c-2.001,0 -3.676,-1.68 -3.676,-3.78l0,-17.188c0,-2.17 1.675,-3.851 3.676,-3.851l17.318,0c2.125,0 3.755,1.681 3.755,3.851l0,17.188Z" style="fill:#fff;fill-rule:nonzero;"/><path d="M375.683,562.92c0,4.556 -3.69,8.287 -8.311,8.287l-46.883,-0c-4.67,-0 -8.321,-3.731 -8.321,-8.287l-0,-46.942c-0,-4.526 3.651,-8.281 8.321,-8.281l46.883,-0c4.621,-0 8.311,3.755 8.311,8.281l0,46.942Z" style="fill:#fff;fill-rule:nonzero;"/><path d="M279.768,473.951c-1.005,0 -1.796,0.85 -1.796,1.805l0,23.939c0,1.02 0.791,1.791 1.796,1.791l23.954,-0c0.98,-0 1.76,-0.771 1.76,-1.791l-0,-23.939c-0,-0.955 -0.78,-1.805 -1.76,-1.805l-23.954,0Zm23.954,34.451l-23.954,-0c-4.786,-0 -8.657,-3.921 -8.657,-8.707l0,-23.939c0,-4.73 3.871,-8.586 8.657,-8.586l23.954,-0c4.71,-0 8.621,3.856 8.621,8.586l0,23.939c0,4.786 -3.911,8.707 -8.621,8.707" style="fill:#fff;fill-rule:nonzero;"/><path d="M679.708,476.776l-16.083,-58.959l-23.774,54.584c-0.84,1.76 -1.835,3.13 -3.025,4.085c-1.206,0.956 -2.666,1.451 -4.441,1.451c-3.466,-0 -5.976,-1.836 -7.516,-5.536l-23.664,-54.584l-16.048,58.959l-14.402,0l21.583,-78.937c0.971,-3.986 3.416,-5.976 7.267,-5.976c1.575,-0 2.965,0.415 4.33,1.24c1.34,0.85 2.351,2.095 3.061,3.701l25.844,59.314l25.814,-59.314c1.41,-3.291 3.771,-4.941 7.061,-4.941c3.541,-0 5.881,1.99 7.031,5.976l21.444,78.937l-14.482,0Z" style="fill:#fff;fill-rule:nonzero;"/><path d="M783.514,392.893l14.313,-0l-0,46.812c-0,6.502 -0.825,12.142 -2.526,16.928c-1.69,4.816 -4.33,8.802 -7.951,11.962c-3.631,3.156 -8.286,5.506 -13.992,7.036c-5.746,1.531 -12.692,2.306 -20.884,2.306c-8.076,-0 -14.932,-0.775 -20.708,-2.306c-5.716,-1.53 -10.417,-3.88 -13.997,-7.036c-3.636,-3.16 -6.261,-7.146 -7.972,-11.962c-1.695,-4.786 -2.535,-10.426 -2.535,-16.928l-0,-46.812l15.097,-0l0,46.812c0,4.276 0.536,7.877 1.556,10.877c1.045,3.026 2.765,5.486 5.085,7.426c2.391,1.886 5.486,3.286 9.427,4.166c3.916,0.905 8.751,1.345 14.522,1.345c5.776,0 10.612,-0.44 14.538,-1.345c3.94,-0.88 7.071,-2.28 9.401,-4.166c2.356,-1.94 4.041,-4.4 5.071,-7.426c1.035,-3 1.555,-6.601 1.555,-10.877l0,-46.812Z" style="fill:#fff;fill-rule:nonzero;"/><path d="M820.315,476.776l0,-83.878l14.653,-0l-0,69.221l56.444,0l-0,14.657l-71.097,0Z" style="fill:#fff;fill-rule:nonzero;"/><path d="M925.147,476.776l0,-69.231l-31.89,0l0,-14.647l78.358,-0l-0,14.647l-31.845,0l-0,69.231l-14.623,0Z" style="fill:#fff;fill-rule:nonzero;"/><rect x="991.353" y="392.898" width="14.662" height="83.879" style="fill:#fff;"/><rect x="1031.4" y="392.898" width="14.652" height="83.879" style="fill:#fff;"/><path d="M1084.25,415.382l0,61.389l-13.972,0l-0,-76.137c-0,-2.72 0.67,-4.846 2,-6.421c1.37,-1.585 3.211,-2.355 5.471,-2.355c1.105,-0 2.155,0.235 3.12,0.7c1.026,0.435 2.061,1.215 3.136,2.275l59.215,58.775l-0,-61.39l13.922,-0l-0,76.837c-0,2.771 -0.66,4.921 -2.02,6.471c-1.336,1.531 -3.066,2.276 -5.216,2.276c-2.416,-0 -4.606,-1.031 -6.686,-3.106l-58.97,-59.314Z" style="fill:#fff;fill-rule:nonzero;"/><path d="M1207.47,476.776l-0,-69.231l-31.84,0l-0,-14.647l78.333,-0l-0,14.647l-31.846,0l0,69.231l-14.647,0Z" style="fill:#fff;fill-rule:nonzero;"/><path d="M1298.17,427.959l46.482,-0l0,12.347l-46.482,-0l-0,-12.347Zm-25.279,48.817l-0,-83.878l74.882,-0l-0,14.647l-60.365,0l-0,54.579l60.47,0l-0,14.652l-74.987,0Z" style="fill:#fff;fill-rule:nonzero;"/><path d="M1407.97,476.776c-5.825,0 -11.216,-1.065 -16.162,-3.265c-4.991,-2.23 -9.267,-5.231 -12.952,-9.001c-3.636,-3.836 -6.486,-8.337 -8.527,-13.568c-2.06,-5.256 -3.07,-10.866 -3.07,-16.952c-0,-6.156 1.01,-11.772 3.07,-16.848c2.041,-5.096 4.891,-9.422 8.527,-12.987c3.685,-3.546 7.961,-6.371 12.952,-8.337c4.946,-1.915 10.337,-2.92 16.162,-2.92l45.488,-0l-0,14.647l-45.488,0c-3.725,0 -7.231,0.695 -10.406,2.016c-3.156,1.37 -5.941,3.205 -8.247,5.591c-2.32,2.38 -4.11,5.255 -5.415,8.541c-1.311,3.285 -1.966,6.961 -1.966,10.997c0,3.88 0.655,7.561 1.966,10.946c1.305,3.336 3.095,6.316 5.415,8.672c2.306,2.455 5.091,4.376 8.247,5.746c3.175,1.4 6.681,2.065 10.406,2.065l35.926,0l0,-21.813l-37.871,-0l0,-12.347l52.659,-0l-0,48.817l-50.714,0Z" style="fill:#fff;fill-rule:nonzero;"/><path d="M1559.28,476.776l-21.223,-23.323l-31.401,-0l0,-12.882l34.991,-0c5.271,-0 9.302,-1.426 11.977,-4.351c2.67,-2.876 4.056,-7.066 4.056,-12.527c-0,-5.436 -1.416,-9.527 -4.226,-12.137c-2.82,-2.696 -6.741,-4.011 -11.807,-4.011l-45.722,0l-0,69.231l-14.533,0l0,-83.878l60.255,-0c4.771,-0 9.042,0.72 12.792,2.14c3.751,1.425 6.951,3.476 9.592,6.111c2.57,2.641 4.59,5.851 5.986,9.657c1.415,3.725 2.11,7.966 2.11,12.652c0,6.986 -1.56,12.862 -4.606,17.598c-3.01,4.765 -7.286,8.156 -12.727,10.221l25.254,25.499l-20.768,0Z" style="fill:#fff;fill-rule:nonzero;"/><path d="M1684.34,476.776l-12.537,-21.098l-39.701,0l6.916,-11.902l25.739,0l-18.678,-31.395l-38.111,64.395l-16.733,0l48.243,-80.288c0.865,-1.45 1.86,-2.635 2.99,-3.49c1.201,-0.8 2.561,-1.27 4.161,-1.27c1.62,-0 2.956,0.47 4.121,1.27c1.11,0.855 2.09,2.04 2.935,3.49l48.343,80.288l-17.688,0Z" style="fill:#fff;fill-rule:nonzero;"/><path d="M649.108,654.285l-41.737,0l-0,-115.348l41.737,-0c31.87,-0 57.694,25.804 57.694,57.659c-0,11.647 -3.426,22.464 -9.367,31.525c-10.311,15.788 -28.099,26.164 -48.327,26.164m-0,-150.414l-76.778,-0l0,185.485l76.778,-0c40.136,-0 74.337,-25.544 87.229,-61.235c3.595,-9.837 5.496,-20.443 5.496,-31.525c-0,-51.183 -41.512,-92.725 -92.725,-92.725" style="fill:#fff;fill-rule:nonzero;"/><rect x="775.183" y="503.841" width="42.572" height="185.51" style="fill:#fff;fill-rule:nonzero;"/><path d="M931.163,614.069l78.118,-0l-0,32.655l-67.881,0c-6.926,0 -13.317,-1.265 -19.098,-3.781c-5.791,-2.505 -10.862,-5.971 -15.018,-10.346c-1.33,-1.395 -2.56,-2.901 -3.715,-4.476c-2.481,-3.391 -4.581,-7.271 -6.196,-11.517c-2.406,-6.186 -3.636,-13.067 -3.636,-20.363c0,-7.486 1.23,-14.317 3.626,-20.378c2.395,-5.996 5.716,-11.277 9.871,-15.578c4.156,-4.321 9.202,-7.736 14.998,-10.167c5.801,-2.43 12.242,-3.7 19.168,-3.7l100.036,-0l0,-42.572l-100.036,-0c-12.797,-0 -24.834,2.175 -35.756,6.491c-10.947,4.326 -20.638,10.537 -28.73,18.478c-8.116,7.951 -14.532,17.678 -19.033,28.91c-4.48,11.156 -6.766,23.628 -6.766,37.086c0,11.752 1.786,22.933 5.331,33.31c0.43,1.345 0.915,2.64 1.41,3.936c4.501,11.512 10.842,21.603 18.928,30.04c8.062,8.386 17.693,15.092 28.65,19.933c10.977,4.841 23.089,7.326 35.966,7.326l110.738,-0l-0,-113.103l-120.975,-0l0,37.816Z" style="fill:#fff;fill-rule:nonzero;"/><rect x="1088.38" y="503.841" width="42.597" height="185.51" style="fill:#fff;fill-rule:nonzero;"/><path d="M1333.19,503.846l-174.108,-0l0,42.572l65.746,-0l-0,142.938l42.617,-0l-0,-142.938l65.745,-0l0,-42.572Z" style="fill:#fff;fill-rule:nonzero;"/><path d="M1455.97,514.298c-2.14,-3.721 -4.751,-6.727 -7.686,-9.002c-3.406,-2.565 -7.471,-3.856 -12.167,-3.856c-4.671,0 -8.796,1.266 -12.232,3.826c-3.1,2.26 -5.741,5.276 -7.846,8.927l-68.421,113.928l-36.786,61.235l48.988,-0l36.221,-61.235l38.876,-65.736l39.141,65.736l36.396,61.235l50.903,-0l-36.846,-61.235l-68.541,-113.823Z" style="fill:#fff;fill-rule:nonzero;"/><path d="M1624.5,646.724l-0,-142.878l-42.637,-0l-0,185.505l120.689,-0l0,-42.627l-78.052,0Z" style="fill:#fff;fill-rule:nonzero;"/><path d="M1449.74,651.18c0,1.815 -1.46,3.26 -3.245,3.26l-20.774,0c-1.795,0 -3.255,-1.445 -3.255,-3.26l-0,-20.754c-0,-1.79 1.46,-3.235 3.255,-3.235l20.774,-0c1.785,-0 3.245,1.445 3.245,3.235l0,20.754Z" style="fill:#fff;fill-rule:nonzero;"/><path d="M1425.72,628.531c-1.045,0 -1.925,0.855 -1.925,1.89l0,20.754c0,1.065 0.88,1.945 1.925,1.945l20.769,0c1.01,0 1.89,-0.88 1.89,-1.945l0,-20.754c0,-1.035 -0.88,-1.89 -1.89,-1.89l-20.769,0Zm20.769,27.274l-20.769,0c-2.525,0 -4.58,-2.065 -4.58,-4.63l-0,-20.754c-0,-2.485 2.055,-4.58 4.58,-4.58l20.769,-0c2.54,-0 4.595,2.095 4.595,4.58l0,20.754c0,2.565 -2.055,4.63 -4.595,4.63" style="fill:#fff;fill-rule:nonzero;"/></g></svg>