<?xml version="1.0" encoding="UTF-8" standalone="no"?>
<!DOCTYPE svg PUBLIC "-//W3C//DTD SVG 1.1//EN" "http://www.w3.org/Graphics/SVG/1.1/DTD/svg11.dtd">
<svg width="100%" height="100%" viewBox="0 0 1920 1080" version="1.1" xmlns="http://www.w3.org/2000/svg" xmlns:xlink="http://www.w3.org/1999/xlink" xml:space="preserve" xmlns:serif="http://www.serif.com/" style="fill-rule:evenodd;clip-rule:evenodd;stroke-linejoin:round;stroke-miterlimit:2;">
    <rect id="Artboard1" x="0" y="0" width="1920" height="1080" style="fill:none;"/>
    <g id="Artboard11" serif:id="Artboard1">
        <g transform="matrix(9.10672,0,0,9.10672,-3879.74,-173.525)">
            <g transform="matrix(0,-1,-1,0,524.605,8.1407)">
                <path d="M-72.769,-86.453C-81.637,-61.538 -86.453,-34.745 -86.453,-6.844C-86.453,21.062 -81.637,47.85 -72.769,72.769C-79.982,47.63 -83.87,20.893 -83.87,-6.844C-83.87,-34.576 -79.982,-61.317 -72.769,-86.453" style="fill:rgb(145,143,101);fill-rule:nonzero;"/>
            </g>
            <g transform="matrix(1,0,0,1,471.082,76.0899)">
                <path d="M0,7.02C-1.667,7.02 -2.503,6.515 -2.503,5.504L-2.503,1.514C-2.503,0.507 -1.667,0 0,0L5.495,0L5.495,1.035L0,1.035C-0.783,1.035 -1.175,1.196 -1.175,1.514L-1.175,5.504C-1.175,5.822 -0.783,5.981 0,5.981L3.102,5.981C3.887,5.981 4.278,5.829 4.278,5.525L4.278,3.189L5.603,3.189L5.603,5.525C5.603,6.521 4.771,7.02 3.102,7.02L0,7.02Z" style="fill:rgb(108,110,112);fill-rule:nonzero;"/>
            </g>
            <g transform="matrix(1,0,0,1,484.754,81.426)">
                <path d="M0,-3.652C0,-4.086 -0.291,-4.301 -0.876,-4.301L-5.511,-4.301L-5.511,-2.485L-0.876,-2.485C-0.291,-2.485 0,-2.699 0,-3.135L0,-3.652ZM-0.169,1.684L-1.813,-1.447L-5.511,-1.447L-5.511,1.684L-6.844,1.684L-6.844,-5.336L-0.876,-5.336C-0.479,-5.336 -0.138,-5.297 0.143,-5.211C0.416,-5.129 0.646,-5.013 0.823,-4.862C0.999,-4.715 1.126,-4.537 1.206,-4.33C1.289,-4.123 1.326,-3.895 1.326,-3.641L1.326,-3.144C1.326,-2.691 1.195,-2.316 0.928,-2.01C0.663,-1.709 0.216,-1.527 -0.407,-1.468L1.244,1.684L-0.169,1.684Z" style="fill:rgb(108,110,112);fill-rule:nonzero;"/>
            </g>
            <g transform="matrix(1,0,0,1,495.273,76.0899)">
                <path d="M0,7.02L-3.619,1.365L-7.3,7.02L-8.772,7.02L-4.109,0L-3.139,0L1.498,7.02L0,7.02Z" style="fill:rgb(108,110,112);fill-rule:nonzero;"/>
            </g>
            <g transform="matrix(1,0,0,1,504.489,76.0899)">
                <path d="M0,7.02L0,3.831L-5.742,3.831L-5.742,7.02L-7.068,7.02L-7.068,0L-5.742,0L-5.742,2.792L0,2.792L0,0L1.329,0L1.329,7.02L0,7.02Z" style="fill:rgb(108,110,112);fill-rule:nonzero;"/>
            </g>
            <g transform="matrix(1,0,0,1,515.238,76.0899)">
                <path d="M0,7.02L-3.622,1.365L-7.3,7.02L-8.775,7.02L-4.109,0L-3.142,0L1.495,7.02L0,7.02Z" style="fill:rgb(108,110,112);fill-rule:nonzero;"/>
            </g>
            <g transform="matrix(1,0,0,1,522.116,76.0899)">
                <path d="M0,7.02L0,1.035L-3.681,1.035L-3.681,0L4.905,0L4.905,1.035L1.33,1.035L1.33,7.02L0,7.02Z" style="fill:rgb(108,110,112);fill-rule:nonzero;"/>
            </g>
            <g transform="matrix(1,0,0,1,527.909,76.0899)">
                <path d="M0,7.02L0,0L7.221,0L7.221,1.035L1.326,1.035L1.326,2.792L6.92,2.792L6.92,3.831L1.326,3.831L1.326,5.981L7.221,5.981L7.221,7.02L0,7.02Z" style="fill:rgb(108,110,112);fill-rule:nonzero;"/>
            </g>
            <g transform="matrix(1,0,0,1,542.519,76.0899)">
                <path d="M0,7.02L-2.652,3.889L-4.938,3.889L-4.938,7.02L-6.268,7.02L-6.268,0L-4.938,0L-4.938,2.851L-2.684,2.851L-0.04,0L1.535,0L-1.586,3.269L1.522,7.02L0,7.02Z" style="fill:rgb(108,110,112);fill-rule:nonzero;"/>
            </g>
            <g transform="matrix(1,0,0,1,553.466,76.0899)">
                <path d="M0,7.02L-7.489,1.554L-7.489,7.02L-8.645,7.02L-8.645,0L-7.501,0L-0.508,5.214L-0.508,0L0.647,0L0.647,7.02L0,7.02Z" style="fill:rgb(108,110,112);fill-rule:nonzero;"/>
            </g>
            <g transform="matrix(1,0,0,1,563.079,77.7764)">
                <path d="M0,3.648C0,4.079 -0.296,4.294 -0.874,4.294L-5.511,4.294C-6.099,4.294 -6.392,4.079 -6.392,3.648L-6.392,-0.002C-6.392,-0.437 -6.099,-0.654 -5.511,-0.654L-0.874,-0.654C-0.296,-0.654 0,-0.437 0,-0.002L0,3.648ZM1.202,-0.68C1.129,-0.888 0.999,-1.063 0.819,-1.212C0.646,-1.367 0.417,-1.479 0.139,-1.561C-0.145,-1.647 -0.478,-1.688 -0.874,-1.688L-5.511,-1.688C-5.918,-1.688 -6.252,-1.647 -6.534,-1.561C-6.811,-1.479 -7.037,-1.367 -7.211,-1.212C-7.396,-1.063 -7.518,-0.888 -7.596,-0.68C-7.676,-0.472 -7.72,-0.242 -7.72,0.006L-7.72,3.635C-7.72,3.891 -7.676,4.119 -7.596,4.328C-7.518,4.53 -7.396,4.703 -7.211,4.858C-7.037,5.006 -6.811,5.127 -6.534,5.209C-6.252,5.295 -5.918,5.336 -5.511,5.336L-0.874,5.336C-0.478,5.336 -0.145,5.295 0.139,5.209C0.417,5.127 0.646,5.006 0.819,4.858C0.999,4.703 1.129,4.53 1.202,4.328C1.289,4.119 1.324,3.891 1.324,3.635L1.324,0.006C1.324,-0.242 1.289,-0.472 1.202,-0.68" style="fill:rgb(108,110,112);fill-rule:nonzero;"/>
            </g>
            <g transform="matrix(1,0,0,1,565.654,76.0899)">
                <path d="M0,7.02L0,0L1.335,0L1.335,5.981L7.028,5.981L7.028,7.02L0,7.02Z" style="fill:rgb(108,110,112);fill-rule:nonzero;"/>
            </g>
            <g transform="matrix(1,0,0,1,581.088,77.7764)">
                <path d="M0,3.648C0,4.079 -0.289,4.294 -0.874,4.294L-5.516,4.294C-6.096,4.294 -6.395,4.079 -6.395,3.648L-6.395,-0.002C-6.395,-0.437 -6.096,-0.654 -5.516,-0.654L-0.874,-0.654C-0.289,-0.654 0,-0.437 0,-0.002L0,3.648ZM1.204,-0.68C1.129,-0.888 1,-1.063 0.826,-1.212C0.652,-1.367 0.419,-1.479 0.141,-1.561C-0.138,-1.647 -0.48,-1.688 -0.874,-1.688L-5.516,-1.688C-5.913,-1.688 -6.254,-1.647 -6.532,-1.561C-6.813,-1.479 -7.039,-1.367 -7.215,-1.212C-7.389,-1.063 -7.516,-0.888 -7.598,-0.68C-7.678,-0.472 -7.718,-0.242 -7.718,0.006L-7.718,3.635C-7.718,3.891 -7.678,4.119 -7.598,4.328C-7.516,4.53 -7.389,4.703 -7.215,4.858C-7.039,5.006 -6.813,5.127 -6.532,5.209C-6.254,5.295 -5.913,5.336 -5.516,5.336L-0.874,5.336C-0.48,5.336 -0.138,5.295 0.141,5.209C0.419,5.127 0.652,5.006 0.826,4.858C1,4.703 1.129,4.53 1.204,4.328C1.289,4.119 1.329,3.891 1.329,3.635L1.329,0.006C1.329,-0.242 1.289,-0.472 1.204,-0.68" style="fill:rgb(108,110,112);fill-rule:nonzero;"/>
            </g>
            <g transform="matrix(1,0,0,1,586.117,76.0899)">
                <path d="M0,7.02C-1.669,7.02 -2.506,6.515 -2.506,5.504L-2.506,1.514C-2.506,0.507 -1.669,0 0,0L5.491,0L5.491,1.035L0,1.035C-0.79,1.035 -1.18,1.196 -1.18,1.514L-1.18,5.504C-1.18,5.822 -0.79,5.981 0,5.981L3.099,5.981C3.887,5.981 4.271,5.829 4.271,5.525L4.271,3.189L5.602,3.189L5.602,5.525C5.602,6.521 4.768,7.02 3.099,7.02L0,7.02Z" style="fill:rgb(108,110,112);fill-rule:nonzero;"/>
            </g>
            <g transform="matrix(1,0,0,1,0,-683.178)">
                <rect x="592.994" y="759.268" width="1.326" height="7.02" style="fill:rgb(108,110,112);"/>
            </g>
            <g transform="matrix(-1,0,0,1,983.267,-680.558)">
                <rect x="491.195" y="761.03" width="0.877" height="0.876" style="fill:rgb(108,110,112);"/>
            </g>
            <g transform="matrix(-1,0,0,1,1023.2,-680.558)">
                <rect x="511.158" y="761.03" width="0.881" height="0.876" style="fill:rgb(108,110,112);"/>
            </g>
            <g transform="matrix(-1,0,0,1,1023.19,-680.556)">
                <rect x="510.839" y="760.71" width="1.515" height="1.514" style="fill:rgb(145,143,101);"/>
            </g>
            <g transform="matrix(-1,0,0,1,983.272,-680.556)">
                <rect x="490.876" y="760.71" width="1.52" height="1.514" style="fill:rgb(145,143,101);"/>
            </g>
            <g transform="matrix(1,0,0,1,478.909,69.2607)">
                <path d="M0,-2.389C0,-2.183 0,-1.871 -0.874,-1.871L-7.282,-1.871L-7.282,-4.555L-0.874,-4.555C0,-4.555 0,-4.242 0,-4.036L0,-2.389ZM2.085,-0.131C2.423,-0.414 2.672,-0.76 2.826,-1.158C2.973,-1.533 3.046,-1.953 3.046,-2.405L3.046,-4.021C3.046,-4.471 2.973,-4.892 2.826,-5.269C2.672,-5.666 2.421,-6.013 2.085,-6.295C1.765,-6.571 1.347,-6.788 0.848,-6.935C0.367,-7.079 -0.209,-7.152 -0.874,-7.152L-10.33,-7.152L-10.33,4.763L-7.282,4.763L-7.282,0.722L-0.874,0.722C-0.209,0.722 0.372,0.653 0.848,0.51C1.344,0.362 1.763,0.148 2.085,-0.131" style="fill:rgb(59,80,48);fill-rule:nonzero;"/>
            </g>
            <g transform="matrix(1,0,0,1,509.117,66.3857)">
                <path d="M0,3.361L-10.21,-4.257L-10.236,-4.277L-12.673,-4.277L-12.673,7.047L-20.153,-4.277L-22.187,-4.277L-30.104,7.638L-26.623,7.638L-21.166,-0.754L-15.821,7.592L-15.792,7.638L-9.892,7.638L-9.892,-0.397L1.095,7.618L1.122,7.638L2.777,7.638L2.777,-4.277L0,-4.277L0,3.361Z" style="fill:rgb(59,80,48);fill-rule:nonzero;"/>
            </g>
            <g transform="matrix(1,0,0,1,524.884,65.2238)">
                <path d="M0,5.685C0,5.893 0,6.206 -0.879,6.206L-8.102,6.206C-8.978,6.206 -8.978,5.893 -8.978,5.685L-8.978,0.001C-8.978,-0.205 -8.978,-0.518 -8.102,-0.518L-0.879,-0.518C0,-0.518 0,-0.205 0,0.001L0,5.685ZM2.087,-2.258C1.758,-2.534 1.342,-2.751 0.846,-2.898C0.364,-3.042 -0.216,-3.115 -0.879,-3.115L-8.102,-3.115C-8.767,-3.115 -9.348,-3.042 -9.828,-2.898C-10.324,-2.751 -10.744,-2.534 -11.067,-2.258C-11.403,-1.976 -11.652,-1.629 -11.804,-1.232C-11.95,-0.856 -12.026,-0.434 -12.026,0.016L-12.026,5.67C-12.026,6.122 -11.95,6.541 -11.804,6.916C-11.652,7.313 -11.405,7.659 -11.067,7.943C-10.74,8.222 -10.324,8.437 -9.828,8.583C-9.348,8.728 -8.767,8.8 -8.102,8.8L-0.879,8.8C-0.216,8.8 0.364,8.728 0.846,8.583C1.342,8.437 1.758,8.222 2.087,7.943C2.421,7.659 2.668,7.313 2.821,6.916C2.97,6.541 3.044,6.122 3.044,5.67L3.044,0.016C3.044,-0.434 2.97,-0.856 2.821,-1.232C2.668,-1.629 2.421,-1.976 2.087,-2.258" style="fill:rgb(59,80,48);fill-rule:nonzero;"/>
            </g>
            <g transform="matrix(1,0,0,1,539.539,70.0998)">
                <path d="M0,-4.067C0,-3.875 0,-3.548 -0.874,-3.548L-7.606,-3.548L-7.606,-5.394L-0.874,-5.394C0,-5.394 0,-5.081 0,-4.875L0,-4.067ZM46.914,-7.991L44.883,-7.991L37.355,3.331L37.355,-7.991L34.844,-7.991L28.631,0.597L22.421,-7.948L22.393,-7.991L19.727,-7.991L19.727,3.331L12.249,-7.991L10.215,-7.991L2.826,3.128L0.61,-1.096C1.349,-1.257 1.923,-1.56 2.303,-1.997C2.793,-2.558 3.049,-3.259 3.049,-4.083L3.049,-4.86C3.049,-5.313 2.976,-5.733 2.828,-6.109C2.677,-6.505 2.424,-6.852 2.092,-7.134C1.765,-7.41 1.347,-7.627 0.851,-7.774C0.367,-7.918 -0.209,-7.991 -0.874,-7.991L-10.65,-7.991L-10.65,3.924L-7.606,3.924L-7.606,-0.953L-2.632,-0.953L-0.066,3.924L5.774,3.924L11.238,-4.468L16.581,3.878L16.612,3.924L22.617,3.924L22.617,-2.706L27.426,3.883L27.452,3.924L29.644,3.924L34.465,-2.714L34.465,3.924L40.439,3.924L45.901,-4.468L51.246,3.878L51.274,3.924L54.781,3.924L46.914,-7.991Z" style="fill:rgb(59,80,48);fill-rule:nonzero;"/>
            </g>
            <g transform="matrix(-1,0,0,1,1170.88,-701.706)">
                <rect x="584.681" y="771.285" width="1.516" height="1.514" style="fill:rgb(145,143,101);"/>
            </g>
            <g transform="matrix(-1,0,0,1,1101.55,-701.706)">
                <rect x="550.019" y="771.285" width="1.513" height="1.514" style="fill:rgb(145,143,101);"/>
            </g>
            <g transform="matrix(-1,0,0,1,975.905,-701.706)">
                <rect x="487.195" y="771.285" width="1.515" height="1.514" style="fill:rgb(145,143,101);"/>
            </g>
        </g>
    </g>
</svg>
