<?xml version="1.0" encoding="UTF-8" standalone="no"?>
<!DOCTYPE svg PUBLIC "-//W3C//DTD SVG 1.1//EN" "http://www.w3.org/Graphics/SVG/1.1/DTD/svg11.dtd">
<svg width="100%" height="100%" viewBox="0 0 1920 1080" version="1.1" xmlns="http://www.w3.org/2000/svg" xmlns:xlink="http://www.w3.org/1999/xlink" xml:space="preserve" xmlns:serif="http://www.serif.com/" style="fill-rule:evenodd;clip-rule:evenodd;stroke-linejoin:round;stroke-miterlimit:2;">
    <g transform="matrix(1,0,0,1,-3940,0)">
        <rect id="Artboard3" x="3940" y="0" width="1920" height="1080" style="fill:none;"/>
        <g id="Artboard31" serif:id="Artboard3">
            <g transform="matrix(5.00081,0,0,5.00081,2875.53,-1477.24)">
                <g transform="matrix(1,0,0,1,317.209,415.414)">
                    <path d="M0,16.214C0,17.14 -0.738,17.886 -1.66,17.886L-17.868,17.886C-18.805,17.886 -19.547,17.14 -19.547,16.214L-19.547,-0.011C-19.547,-0.921 -18.805,-1.672 -17.868,-1.672L-1.66,-1.672C-0.738,-1.672 0,-0.921 0,-0.011L0,16.214Z" style="fill:rgb(5,48,69);fill-rule:nonzero;"/>
                </g>
                <g transform="matrix(1,0,0,1,290.323,423.504)">
                    <path d="M0,-12.514C-0.516,-12.514 -0.95,-12.064 -0.95,-11.535L-0.95,-0.973C-0.95,-0.424 -0.516,-0.006 0,-0.006L10.557,-0.006C11.098,-0.006 11.546,-0.424 11.546,-0.973L11.546,-11.535C11.546,-12.064 11.098,-12.514 10.557,-12.514L0,-12.514ZM10.557,1.366L0,1.366C-1.3,1.366 -2.339,0.315 -2.339,-0.973L-2.339,-11.535C-2.339,-12.82 -1.3,-13.88 0,-13.88L10.557,-13.88C11.853,-13.88 12.909,-12.82 12.909,-11.535L12.909,-0.973C12.909,0.315 11.853,1.366 10.557,1.366" style="fill:rgb(33,146,208);fill-rule:nonzero;"/>
                </g>
                <g transform="matrix(1,0,0,1,276.989,427.695)">
                    <path d="M0,-9.558C-0.544,-9.558 -0.976,-9.12 -0.976,-8.59L-0.976,-0.963C-0.976,-0.424 -0.544,0.021 0,0.021L7.622,0.021C8.171,0.021 8.618,-0.424 8.618,-0.963L8.618,-8.59C8.618,-9.12 8.171,-9.558 7.622,-9.558L0,-9.558ZM7.622,1.377L0,1.377C-1.286,1.377 -2.337,0.332 -2.337,-0.963L-2.337,-8.59C-2.337,-9.879 -1.286,-10.935 0,-10.935L7.622,-10.935C8.919,-10.935 9.975,-9.879 9.975,-8.59L9.975,-0.963C9.975,0.332 8.919,1.377 7.622,1.377" style="fill:rgb(5,48,69);fill-rule:nonzero;"/>
                </g>
                <g transform="matrix(1,0,0,1,305.088,395.552)">
                    <path d="M0,7.617C0,8.533 -0.735,9.273 -1.658,9.273L-9.277,9.273C-10.206,9.273 -10.94,8.533 -10.94,7.617L-10.94,0C-10.94,-0.911 -10.206,-1.656 -9.277,-1.656L-1.658,-1.656C-0.735,-1.656 0,-0.911 0,0L0,7.617Z" style="fill:rgb(5,48,69);fill-rule:nonzero;"/>
                </g>
                <g transform="matrix(1,0,0,1,295.81,404.147)">
                    <path d="M0,-9.572C-0.535,-9.572 -0.982,-9.138 -0.982,-8.594L-0.982,-0.977C-0.982,-0.428 -0.535,0.001 0,0.001L7.619,0.001C8.165,0.001 8.599,-0.428 8.599,-0.977L8.599,-8.594C8.599,-9.138 8.165,-9.572 7.619,-9.572L0,-9.572ZM7.619,1.366L0,1.366C-1.301,1.366 -2.352,0.327 -2.352,-0.977L-2.352,-8.594C-2.352,-9.879 -1.301,-10.938 0,-10.938L7.619,-10.938C8.921,-10.938 9.963,-9.879 9.963,-8.594L9.963,-0.977C9.963,0.327 8.921,1.366 7.619,1.366" style="fill:rgb(5,48,69);fill-rule:nonzero;"/>
                </g>
                <g transform="matrix(1,0,0,1,266.542,415.43)">
                    <path d="M0,-5.512C-0.201,-5.512 -0.37,-5.347 -0.37,-5.151L-0.37,-0.357C-0.37,-0.156 -0.201,-0 0,-0L4.77,-0C4.981,-0 5.142,-0.156 5.142,-0.357L5.142,-5.151C5.142,-5.347 4.981,-5.512 4.77,-5.512L0,-5.512ZM4.77,1.361L0,1.361C-0.954,1.361 -1.743,0.585 -1.743,-0.357L-1.743,-5.151C-1.743,-6.108 -0.954,-6.873 0,-6.873L4.77,-6.873C5.731,-6.873 6.498,-6.108 6.498,-5.151L6.498,-0.357C6.498,0.585 5.731,1.361 4.77,1.361" style="fill:rgb(33,146,208);fill-rule:nonzero;"/>
                </g>
                <g transform="matrix(1,0,0,1,299.252,380.337)">
                    <path d="M0,-5.507C-0.188,-5.507 -0.347,-5.346 -0.347,-5.145L-0.347,-0.357C-0.347,-0.17 -0.188,0 0,0L4.804,0C4.99,0 5.157,-0.17 5.157,-0.357L5.157,-5.145C5.157,-5.346 4.99,-5.507 4.804,-5.507L0,-5.507ZM4.804,1.366L0,1.366C-0.938,1.366 -1.718,0.6 -1.718,-0.357L-1.718,-5.145C-1.718,-6.102 -0.938,-6.873 0,-6.873L4.804,-6.873C5.756,-6.873 6.521,-6.102 6.521,-5.145L6.521,-0.357C6.521,0.6 5.756,1.366 4.804,1.366" style="fill:rgb(33,146,208);fill-rule:nonzero;"/>
                </g>
                <g transform="matrix(1,0,0,1,311.328,399.807)">
                    <path d="M0,-5.481C-0.211,-5.481 -0.38,-5.326 -0.38,-5.14L-0.38,-0.348C-0.38,-0.141 -0.211,0.015 0,0.015L4.77,0.015C4.975,0.015 5.132,-0.141 5.132,-0.348L5.132,-5.14C5.132,-5.326 4.975,-5.481 4.77,-5.481L0,-5.481ZM4.77,1.387L0,1.387C-0.964,1.387 -1.735,0.604 -1.735,-0.348L-1.735,-5.14C-1.735,-6.082 -0.964,-6.868 0,-6.868L4.77,-6.868C5.722,-6.868 6.509,-6.082 6.509,-5.14L6.509,-0.348C6.509,0.604 5.722,1.387 4.77,1.387" style="fill:rgb(33,146,208);fill-rule:nonzero;"/>
                </g>
                <g transform="matrix(1,0,0,1,323.19,402.316)">
                    <path d="M0,3.446C0,3.871 -0.339,4.207 -0.742,4.207L-4.199,4.207C-4.613,4.207 -4.953,3.871 -4.953,3.446L-4.953,0.006C-4.953,-0.424 -4.613,-0.761 -4.199,-0.761L-0.742,-0.761C-0.339,-0.761 0,-0.424 0,0.006L0,3.446Z" style="fill:rgb(33,146,208);fill-rule:nonzero;"/>
                </g>
                <g transform="matrix(1,0,0,1,317.583,407.589)">
                    <path d="M0,1.533C0,1.729 -0.166,1.894 -0.349,1.894L-1.933,1.894C-2.116,1.894 -2.274,1.729 -2.274,1.533L-2.274,-0.03C-2.274,-0.211 -2.116,-0.361 -1.933,-0.361L-0.349,-0.361C-0.166,-0.361 0,-0.211 0,-0.03L0,1.533Z" style="fill:rgb(5,48,69);fill-rule:nonzero;"/>
                </g>
                <g transform="matrix(1,0,0,1,296.157,383.438)">
                    <path d="M0,1.556C0,1.764 -0.157,1.914 -0.347,1.914L-1.917,1.914C-2.108,1.914 -2.261,1.764 -2.261,1.556L-2.261,-0.007C-2.261,-0.187 -2.108,-0.358 -1.917,-0.358L-0.347,-0.358C-0.157,-0.358 0,-0.187 0,-0.007L0,1.556Z" style="fill:rgb(33,146,208);fill-rule:nonzero;"/>
                </g>
                <g transform="matrix(1,0,0,1,285.398,384.518)">
                    <path d="M0,1.595C0,1.771 -0.143,1.926 -0.334,1.926L-1.909,1.926C-2.099,1.926 -2.267,1.771 -2.267,1.595L-2.267,0.011C-2.267,-0.191 -2.099,-0.331 -1.909,-0.331L-0.334,-0.331C-0.143,-0.331 0,-0.191 0,0.011L0,1.595Z" style="fill:rgb(33,146,208);fill-rule:nonzero;"/>
                </g>
                <g transform="matrix(1,0,0,1,281.532,388.415)">
                    <path d="M0,1.569C0,1.76 -0.165,1.916 -0.347,1.916L-1.919,1.916C-2.124,1.916 -2.264,1.76 -2.264,1.569L-2.264,-0.005C-2.264,-0.197 -2.124,-0.347 -1.919,-0.347L-0.347,-0.347C-0.165,-0.347 0,-0.197 0,-0.005L0,1.569Z" style="fill:rgb(5,48,69);fill-rule:nonzero;"/>
                </g>
                <g transform="matrix(1,0,0,1,258.804,390.398)">
                    <path d="M0,1.594C0,1.77 -0.153,1.936 -0.338,1.936L-1.913,1.936C-2.095,1.936 -2.272,1.77 -2.272,1.594L-2.272,0.01C-2.272,-0.172 -2.095,-0.342 -1.913,-0.342L-0.338,-0.342C-0.153,-0.342 0,-0.172 0,0.01L0,1.594Z" style="fill:rgb(5,48,69);fill-rule:nonzero;"/>
                </g>
                <g transform="matrix(1,0,0,1,258.616,410.157)">
                    <path d="M0,1.573C0,1.769 -0.15,1.914 -0.362,1.914L-1.935,1.914C-2.121,1.914 -2.274,1.769 -2.274,1.573L-2.274,-0.005C-2.274,-0.192 -2.121,-0.341 -1.935,-0.341L-0.362,-0.341C-0.15,-0.341 0,-0.192 0,-0.005L0,1.573Z" style="fill:rgb(33,146,208);fill-rule:nonzero;"/>
                </g>
                <g transform="matrix(1,0,0,1,292.162,387.81)">
                    <path d="M0,3.451C0,3.871 -0.352,4.207 -0.761,4.207L-4.197,4.207C-4.623,4.207 -4.963,3.871 -4.963,3.451L-4.963,0.011C-4.963,-0.404 -4.623,-0.756 -4.197,-0.756L-0.761,-0.756C-0.352,-0.756 0,-0.404 0,0.011L0,3.451Z" style="fill:rgb(33,146,208);fill-rule:nonzero;"/>
                </g>
                <g transform="matrix(1,0,0,1,264.431,404.07)">
                    <path d="M0,3.453C0,3.877 -0.326,4.203 -0.751,4.203L-4.214,4.203C-4.614,4.203 -4.949,3.877 -4.949,3.453L-4.949,0.006C-4.949,-0.402 -4.614,-0.75 -4.214,-0.75L-0.751,-0.75C-0.326,-0.75 0,-0.402 0,0.006L0,3.453Z" style="fill:rgb(33,146,208);fill-rule:nonzero;"/>
                </g>
                <g transform="matrix(1,0,0,1,264.431,393.679)">
                    <path d="M0,3.451C0,3.871 -0.326,4.207 -0.751,4.207L-4.214,4.207C-4.614,4.207 -4.949,3.871 -4.949,3.451L-4.949,0.014C-4.949,-0.42 -4.614,-0.756 -4.214,-0.756L-0.751,-0.756C-0.326,-0.756 0,-0.42 0,0.014L0,3.451Z" style="fill:rgb(33,146,208);fill-rule:nonzero;"/>
                </g>
                <g transform="matrix(1,0,0,1,287.984,398.58)">
                    <path d="M0,9.386C0,10.297 -0.738,11.043 -1.662,11.043L-11.037,11.043C-11.971,11.043 -12.701,10.297 -12.701,9.386L-12.701,-0.001C-12.701,-0.906 -11.971,-1.657 -11.037,-1.657L-1.662,-1.657C-0.738,-1.657 0,-0.906 0,-0.001L0,9.386Z" style="fill:rgb(33,146,208);fill-rule:nonzero;"/>
                </g>
                <g transform="matrix(1,0,0,1,268.804,395.708)">
                    <path d="M0,-5.533C-0.201,-5.533 -0.359,-5.363 -0.359,-5.172L-0.359,-0.385C-0.359,-0.181 -0.201,-0.027 0,-0.027L4.79,-0.027C4.986,-0.027 5.142,-0.181 5.142,-0.385L5.142,-5.172C5.142,-5.363 4.986,-5.533 4.79,-5.533L0,-5.533ZM4.79,1.356L0,1.356C-0.957,1.356 -1.731,0.572 -1.731,-0.385L-1.731,-5.172C-1.731,-6.118 -0.957,-6.889 0,-6.889L4.79,-6.889C5.732,-6.889 6.514,-6.118 6.514,-5.172L6.514,-0.385C6.514,0.572 5.732,1.356 4.79,1.356" style="fill:rgb(5,48,69);fill-rule:nonzero;"/>
                </g>
                <g transform="matrix(1,0,0,1,348.779,373.992)">
                    <path d="M0,16.748L-3.216,4.958L-7.97,15.873C-8.138,16.225 -8.337,16.499 -8.575,16.69C-8.816,16.881 -9.108,16.98 -9.463,16.98C-10.156,16.98 -10.658,16.613 -10.966,15.873L-15.698,4.958L-18.907,16.748L-21.787,16.748L-17.471,0.963C-17.277,0.166 -16.788,-0.232 -16.018,-0.232C-15.703,-0.232 -15.425,-0.149 -15.152,0.016C-14.884,0.186 -14.682,0.435 -14.54,0.756L-9.372,12.617L-4.21,0.756C-3.928,0.098 -3.456,-0.232 -2.798,-0.232C-2.09,-0.232 -1.622,0.166 -1.392,0.963L2.896,16.748L0,16.748Z" style="fill:rgb(149,150,153);fill-rule:nonzero;"/>
                </g>
                <g transform="matrix(1,0,0,1,369.537,390.972)">
                    <path d="M0,-17.006L2.862,-17.006L2.862,-7.645C2.862,-6.345 2.697,-5.217 2.357,-4.26C2.019,-3.297 1.491,-2.5 0.767,-1.868C0.041,-1.237 -0.89,-0.767 -2.031,-0.461C-3.18,-0.155 -4.569,0 -6.207,0C-7.822,0 -9.193,-0.155 -10.348,-0.461C-11.491,-0.767 -12.431,-1.237 -13.147,-1.868C-13.874,-2.5 -14.399,-3.297 -14.741,-4.26C-15.08,-5.217 -15.248,-6.345 -15.248,-7.645L-15.248,-17.006L-12.229,-17.006L-12.229,-7.645C-12.229,-6.79 -12.122,-6.07 -11.918,-5.47C-11.709,-4.865 -11.365,-4.373 -10.901,-3.985C-10.423,-3.608 -9.804,-3.328 -9.016,-3.152C-8.233,-2.971 -7.266,-2.883 -6.112,-2.883C-4.957,-2.883 -3.99,-2.971 -3.205,-3.152C-2.417,-3.328 -1.791,-3.608 -1.325,-3.985C-0.854,-4.373 -0.517,-4.865 -0.311,-5.47C-0.104,-6.07 0,-6.79 0,-7.645L0,-17.006Z" style="fill:rgb(149,150,153);fill-rule:nonzero;"/>
                </g>
                <g transform="matrix(1,0,0,1,376.896,373.967)">
                    <path d="M0,16.773L0,0L2.93,0L2.93,13.842L14.217,13.842L14.217,16.773L0,16.773Z" style="fill:rgb(149,150,153);fill-rule:nonzero;"/>
                </g>
                <g transform="matrix(1,0,0,1,397.859,373.967)">
                    <path d="M0,16.773L0,2.929L-6.377,2.929L-6.377,0L9.292,0L9.292,2.929L2.924,2.929L2.924,16.773L0,16.773Z" style="fill:rgb(149,150,153);fill-rule:nonzero;"/>
                </g>
                <g transform="matrix(1,0,0,1,-125.534,-166.416)">
                    <rect x="536.632" y="540.383" width="2.932" height="16.773" style="fill:rgb(149,150,153);"/>
                </g>
                <g transform="matrix(1,0,0,1,-125.534,-166.416)">
                    <rect x="544.64" y="540.383" width="2.93" height="16.773" style="fill:rgb(149,150,153);"/>
                </g>
                <g transform="matrix(1,0,0,1,429.674,386.241)">
                    <path d="M0,-7.778L0,4.498L-2.794,4.498L-2.794,-10.727C-2.794,-11.271 -2.66,-11.696 -2.394,-12.011C-2.12,-12.328 -1.752,-12.482 -1.3,-12.482C-1.079,-12.482 -0.869,-12.435 -0.676,-12.342C-0.471,-12.255 -0.264,-12.099 -0.049,-11.887L11.792,-0.134L11.792,-12.41L14.576,-12.41L14.576,2.955C14.576,3.509 14.444,3.939 14.172,4.249C13.905,4.555 13.559,4.704 13.129,4.704C12.646,4.704 12.208,4.498 11.792,4.083L0,-7.778Z" style="fill:rgb(149,150,153);fill-rule:nonzero;"/>
                </g>
                <g transform="matrix(1,0,0,1,454.315,373.967)">
                    <path d="M0,16.773L0,2.929L-6.367,2.929L-6.367,0L9.297,0L9.297,2.929L2.929,2.929L2.929,16.773L0,16.773Z" style="fill:rgb(149,150,153);fill-rule:nonzero;"/>
                </g>
                <g transform="matrix(1,0,0,1,-125.534,-166.416)">
                    <path d="M597.986,547.394L607.281,547.394L607.281,549.863L597.986,549.863L597.986,547.394ZM592.931,557.156L592.931,540.383L607.905,540.383L607.905,543.312L595.834,543.312L595.834,554.226L607.926,554.226L607.926,557.156L592.931,557.156Z" style="fill:rgb(149,150,153);fill-rule:nonzero;"/>
                </g>
                <g transform="matrix(1,0,0,1,494.408,373.967)">
                    <path d="M0,16.773C-1.165,16.773 -2.243,16.56 -3.232,16.12C-4.23,15.674 -5.085,15.074 -5.822,14.32C-6.549,13.553 -7.119,12.653 -7.527,11.607C-7.939,10.556 -8.141,9.434 -8.141,8.217C-8.141,6.986 -7.939,5.863 -7.527,4.848C-7.119,3.829 -6.549,2.964 -5.822,2.251C-5.085,1.542 -4.23,0.977 -3.232,0.584C-2.243,0.201 -1.165,0 0,0L9.096,0L9.096,2.929L0,2.929C-0.745,2.929 -1.446,3.068 -2.081,3.332C-2.712,3.606 -3.269,3.973 -3.73,4.45C-4.194,4.926 -4.552,5.501 -4.813,6.158C-5.075,6.815 -5.206,7.55 -5.206,8.357C-5.206,9.133 -5.075,9.869 -4.813,10.546C-4.552,11.213 -4.194,11.809 -3.73,12.28C-3.269,12.771 -2.712,13.155 -2.081,13.429C-1.446,13.709 -0.745,13.842 0,13.842L7.184,13.842L7.184,9.48L-0.389,9.48L-0.389,7.011L10.141,7.011L10.141,16.773L0,16.773Z" style="fill:rgb(149,150,153);fill-rule:nonzero;"/>
                </g>
                <g transform="matrix(1,0,0,1,524.665,373.967)">
                    <path d="M0,16.773L-4.244,12.109L-10.523,12.109L-10.523,9.533L-3.526,9.533C-2.472,9.533 -1.666,9.248 -1.131,8.663C-0.597,8.088 -0.32,7.25 -0.32,6.158C-0.32,5.071 -0.603,4.253 -1.165,3.731C-1.729,3.192 -2.513,2.929 -3.526,2.929L-12.669,2.929L-12.669,16.773L-15.575,16.773L-15.575,0L-3.526,0C-2.572,0 -1.718,0.144 -0.968,0.428C-0.218,0.713 0.422,1.123 0.95,1.65C1.464,2.178 1.868,2.82 2.147,3.581C2.43,4.326 2.569,5.174 2.569,6.111C2.569,7.508 2.257,8.683 1.648,9.63C1.046,10.583 0.191,11.261 -0.897,11.674L4.153,16.773L0,16.773Z" style="fill:rgb(149,150,153);fill-rule:nonzero;"/>
                </g>
                <g transform="matrix(1,0,0,1,549.672,373.733)">
                    <path d="M0,17.007L-2.507,12.788L-10.446,12.788L-9.063,10.408L-3.916,10.408L-7.651,4.13L-15.272,17.007L-18.618,17.007L-8.971,0.952C-8.798,0.662 -8.599,0.425 -8.373,0.254C-8.133,0.094 -7.861,0 -7.541,0C-7.217,0 -6.95,0.094 -6.717,0.254C-6.495,0.425 -6.299,0.662 -6.13,0.952L3.537,17.007L0,17.007Z" style="fill:rgb(149,150,153);fill-rule:nonzero;"/>
                </g>
                <g transform="matrix(1,0,0,1,342.66,403.171)">
                    <path d="M0,23.065L-8.346,23.065L-8.346,-0.001L0,-0.001C6.373,-0.001 11.537,5.159 11.537,11.529C11.537,13.858 10.852,16.021 9.664,17.833C7.602,20.99 4.045,23.065 0,23.065M0,-7.013L-15.353,-7.013L-15.353,30.078L0,30.078C8.026,30.078 14.865,24.97 17.443,17.833C18.162,15.866 18.542,13.745 18.542,11.529C18.542,1.294 10.241,-7.013 0,-7.013" style="fill:rgb(5,48,69);fill-rule:nonzero;"/>
                </g>
                <g transform="matrix(1,0,0,1,367.871,408.397)">
                    <path d="M0,-12.245L0,24.851L8.513,24.851L8.513,-12.245L0,-12.245Z" style="fill:rgb(5,48,69);fill-rule:nonzero;"/>
                </g>
                <g transform="matrix(1,0,0,1,399.062,411.208)">
                    <path d="M0,6.986L15.621,6.986L15.621,13.516L2.047,13.516C0.662,13.516 -0.616,13.263 -1.772,12.76C-2.93,12.259 -3.944,11.566 -4.775,10.691C-5.041,10.412 -5.287,10.111 -5.518,9.796C-6.014,9.118 -6.434,8.342 -6.757,7.493C-7.238,6.256 -7.484,4.88 -7.484,3.421C-7.484,1.924 -7.238,0.558 -6.759,-0.654C-6.28,-1.853 -5.616,-2.909 -4.785,-3.769C-3.954,-4.633 -2.945,-5.316 -1.786,-5.802C-0.626,-6.288 0.662,-6.542 2.047,-6.542L22.051,-6.542L22.051,-15.055L2.047,-15.055C-0.512,-15.055 -2.919,-14.62 -5.103,-13.757C-7.292,-12.892 -9.23,-11.65 -10.848,-10.062C-12.471,-8.472 -13.754,-6.527 -14.654,-4.281C-15.55,-2.05 -16.007,0.444 -16.007,3.135C-16.007,5.485 -15.65,7.721 -14.941,9.796C-14.855,10.065 -14.758,10.324 -14.659,10.583C-13.759,12.885 -12.491,14.903 -10.874,16.59C-9.262,18.267 -7.336,19.608 -5.145,20.576C-2.95,21.544 -0.528,22.041 2.047,22.041L24.191,22.041L24.191,-0.576L0,-0.576L0,6.986Z" style="fill:rgb(5,48,69);fill-rule:nonzero;"/>
                </g>
                <g transform="matrix(1,0,0,1,430.5,408.397)">
                    <path d="M0,-12.245L0,24.851L8.518,24.851L8.518,-12.245L0,-12.245Z" style="fill:rgb(5,48,69);fill-rule:nonzero;"/>
                </g>
                <g transform="matrix(1,0,0,1,479.454,433.249)">
                    <path d="M0,-37.096L-34.816,-37.096L-34.816,-28.583L-21.669,-28.583L-21.669,0L-13.147,0L-13.147,-28.583L0,-28.583L0,-37.096Z" style="fill:rgb(5,48,69);fill-rule:nonzero;"/>
                </g>
                <g transform="matrix(1,0,0,1,504.006,430.678)">
                    <path d="M0,-32.435C-0.428,-33.179 -0.95,-33.78 -1.537,-34.235C-2.218,-34.748 -3.031,-35.006 -3.97,-35.006C-4.904,-35.006 -5.729,-34.753 -6.416,-34.241C-7.036,-33.789 -7.564,-33.186 -7.985,-32.456L-21.667,-9.674L-29.023,2.571L-19.227,2.571L-11.984,-9.674L-4.21,-22.819L3.617,-9.674L10.895,2.571L21.074,2.571L13.706,-9.674L0,-32.435Z" style="fill:rgb(5,48,69);fill-rule:nonzero;"/>
                </g>
                <g transform="matrix(1,0,0,1,537.707,404.677)">
                    <path d="M0,20.047L0,-8.524L-8.526,-8.524L-8.526,28.571L15.608,28.571L15.608,20.047L0,20.047Z" style="fill:rgb(5,48,69);fill-rule:nonzero;"/>
                </g>
                <g transform="matrix(1,0,0,1,502.761,421.47)">
                    <path d="M0,4.145C0,4.508 -0.292,4.797 -0.649,4.797L-4.803,4.797C-5.162,4.797 -5.454,4.508 -5.454,4.145L-5.454,-0.005C-5.454,-0.363 -5.162,-0.652 -4.803,-0.652L-0.649,-0.652C-0.292,-0.652 0,-0.363 0,-0.005L0,4.145Z" style="fill:rgb(33,146,208);fill-rule:nonzero;"/>
                </g>
                <g transform="matrix(1,0,0,1,497.958,426.002)">
                    <path d="M0,-4.916C-0.209,-4.916 -0.385,-4.745 -0.385,-4.538L-0.385,-0.388C-0.385,-0.175 -0.209,0.001 0,0.001L4.153,0.001C4.355,0.001 4.531,-0.175 4.531,-0.388L4.531,-4.538C4.531,-4.745 4.355,-4.916 4.153,-4.916L0,-4.916ZM4.153,0.538L0,0.538C-0.505,0.538 -0.916,0.125 -0.916,-0.388L-0.916,-4.538C-0.916,-5.035 -0.505,-5.454 0,-5.454L4.153,-5.454C4.661,-5.454 5.072,-5.035 5.072,-4.538L5.072,-0.388C5.072,0.125 4.661,0.538 4.153,0.538" style="fill:rgb(33,146,208);fill-rule:nonzero;"/>
                </g>
            </g>
        </g>
    </g>
</svg>
