<?xml version="1.0" encoding="UTF-8" standalone="no"?><!DOCTYPE svg PUBLIC "-//W3C//DTD SVG 1.1//EN" "http://www.w3.org/Graphics/SVG/1.1/DTD/svg11.dtd"><svg width="100%" height="100%" viewBox="0 0 21450 21409" version="1.1" xmlns="http://www.w3.org/2000/svg" xmlns:xlink="http://www.w3.org/1999/xlink" xml:space="preserve" xmlns:serif="http://www.serif.com/" style="fill-rule:evenodd;clip-rule:evenodd;stroke-linejoin:round;stroke-miterlimit:2;"><g id="Layer-1" serif:id="Layer 1"><path d="M5711.54,15167.5c-1752.48,-1446.25 -2870.26,-3634.67 -2870.26,-6082.04c0,-4350.46 3532.05,-7882.5 7882.5,-7882.5c4350.46,0 7882.5,3532.05 7882.5,7882.5c0,2432.41 -1104.17,4609 -2838.17,6055.42c-35.958,-461.213 -168.791,-822.584 -311.75,-1087.42c1312.04,-1250.29 2130.12,-3014.38 2130.12,-4968c0,-3787.62 -3075.08,-6862.71 -6862.71,-6862.71c-3787.62,-0 -6862.71,3075.09 -6862.71,6862.71c-0,1959.71 823.183,3728.62 2142.35,4979.62c-138,263.167 -262.042,625.587 -291.875,1102.42" style="fill:#626060;"/><path d="M14676.6,12999.3c1.042,1.204 681.129,773.829 681.129,2388.88c0,1900.13 -681.129,2388.86 -681.129,2388.86l-7870.88,0c0,0 -681.121,-677.963 -681.121,-2388.86c0,-1709.59 680.038,-2387.79 681.121,-2388.88l7870.88,-0Z" style="fill:#b52f25;"/><path d="M17355.7,9849.96c-2075.54,738.663 -4307.46,1139.96 -6631.71,1139.96c-2324.67,-0 -4556.21,-401.296 -6632.12,-1139.96c2094.25,600.875 4321.54,924.75 6632.12,924.75c2310.17,0 4537.75,-323.875 6631.71,-924.75" style="fill:#626060;fill-rule:nonzero;"/><path d="M5929.67,8362.83l-294.459,0l-67.916,-499.708c-5.75,-44.708 -10,-83.917 -12.584,-117.583c-3.708,-33.167 -7.375,-80.292 -11.083,-141.334c-9.458,54.75 -24.208,115.792 -44.208,183.125c-4.209,13.167 -7.375,24.5 -9.459,33.959l-157.125,541.541l-209.958,0l-157.083,-541.541c-1.584,-8.917 -4.75,-20.25 -9.5,-33.959c-22.084,-71 -36.542,-132.083 -43.417,-183.125c-4.167,57.875 -8.125,101.042 -11.833,129.459c-1.584,14.75 -3.959,36.333 -7.125,64.75c-3.125,28.416 -5.5,50 -7.084,64.708l-67.916,499.708l-292.875,0l178.416,-1155.71l311.834,-0l174.458,596.042c3.167,11.041 5.25,18.125 6.292,21.291c15.25,49.459 25.541,94.75 30.791,135.792c1.125,-14.208 5.084,-37.375 11.834,-69.458c2.125,-7.917 10.041,-37.625 23.708,-89.209l176.042,-594.458l312.625,-0l177.625,1155.71Z" style="fill:#b52f25;fill-rule:nonzero;"/><path d="M6092.29,7207.12l315.75,0l-0,562.083c-0,85.75 2.125,145.25 6.291,178.417c5.25,39.458 12.375,69.458 21.334,89.958c11.041,30 31.833,52.125 62.375,66.334c30.5,16.291 67.375,24.458 110.5,24.458c42.625,0 79.208,-8.167 109.708,-24.458c27.917,-13.667 48.958,-35.792 63.167,-66.334c8.416,-21.041 15.291,-51 20.541,-89.958c4.75,-31.583 7.084,-91.042 7.084,-178.417l-0,-562.083l313.416,0l0,611.042c0,125.25 -7.625,218.375 -22.875,279.458c-14.208,60.5 -40,112.333 -77.375,155.5c-41.041,47.875 -95.5,82.875 -163.416,104.958c-67.334,23.709 -150.75,35.542 -250.25,35.542c-101.542,0 -185.209,-11.833 -251,-35.542c-66.875,-22.083 -121.334,-57.083 -163.417,-104.958c-36.333,-42.125 -62.125,-93.958 -77.375,-155.5c-16.292,-62.125 -24.458,-155.292 -24.458,-279.458l-0,-611.042Z" style="fill:#b52f25;fill-rule:nonzero;"/><path d="M7360.88,8362.83l0,-1155.71l314.958,0l0,885.75l391.584,0l-0,269.958l-706.542,0Z" style="fill:#b52f25;fill-rule:nonzero;"/><path d="M8389.5,8362.83l0,-882.541l-258.958,-0l-0,-273.167l832.833,0l0,273.167l-258.917,-0l0,882.541l-314.958,0Z" style="fill:#b52f25;fill-rule:nonzero;"/><rect x="9124.42" y="7207.12" width="318.138" height="1155.7" style="fill:#b52f25;"/><rect x="9705.42" y="7207.12" width="318.138" height="1155.7" style="fill:#b52f25;"/><path d="M10278.5,8362.83l-0,-1155.71l303.958,0l436.542,594.458c11.041,16.292 24.958,40.792 41.833,73.375c21.583,42.125 42.625,85.542 63.163,130.25c-7.913,-60.5 -12.413,-102.879 -13.455,-127.083c-3.166,-37.875 -4.708,-71.292 -4.708,-100.25l0,-570.75l302.333,0l0,1155.71l-302.333,0l-436.542,-596.791c-6.333,-8.417 -20.25,-33.167 -41.875,-74.209c-18.916,-33.666 -39.958,-76.291 -63.125,-127.875c5.25,41.042 10.25,83.667 15,127.875c2.084,49.5 3.167,82.917 3.167,100.25l0,570.75l-303.958,0Z" style="fill:#b52f25;fill-rule:nonzero;"/><path d="M11821.9,8362.83l0,-882.541l-258.917,-0l0,-273.167l832.792,0l0,273.167l-258.917,-0l0,882.541l-314.958,0Z" style="fill:#b52f25;fill-rule:nonzero;"/><path d="M12548.9,8362.83l-0,-1155.71l708.079,0l-0,253.417l-401,-0l-0,200.5l378.125,-0l-0,247.916l-378.125,0l-0,194.959l401,-0l-0,258.916l-708.079,0Z" style="fill:#b52f25;fill-rule:nonzero;"/><path d="M14014.1,7937.33l0,-242.333l618.875,-0c0,11.083 0.542,19.708 1.671,26.042l0,41.833c0,199.5 -52.083,353.667 -156.296,462.625c-105.291,110 -253.412,164.958 -444.458,164.958c-91.042,0 -174.208,-13.958 -249.417,-41.833c-72.625,-27.875 -137.916,-71.042 -195.791,-129.458c-55.25,-56.292 -97.625,-121.542 -127.084,-195.792c-15.829,-39.458 -27.375,-78.917 -34.75,-118.375c-7.375,-40.042 -11.041,-79.75 -11.041,-119.208c-0,-85.292 14.75,-164.459 44.212,-237.625c29.454,-71.042 73.413,-136.292 131.829,-195.792c55.792,-55.75 122.125,-98.375 198.917,-127.875c75.792,-28.917 156.833,-43.417 243.167,-43.417c112.625,0 212.625,22.667 299.958,67.917c27.917,13.667 55.25,30.75 82.125,51.292c27.337,20 52.337,42.375 74.958,67.083c23.167,24.75 44.209,51.583 63.167,80.542l-273.125,131.041c-32.708,-44.75 -69.288,-78.166 -109.833,-100.291c-41.584,-21.542 -87.334,-32.334 -137.375,-32.334c-94.709,0 -168.667,31.292 -221.834,93.917c-53.666,62.125 -80.5,148.167 -80.5,258.167c0,110.541 26.834,197.375 80.5,260.5c53.167,62.625 127.125,93.958 221.834,93.958c80.541,-0 147.125,-20 199.75,-60c54.708,-39.5 86.041,-91.292 93.916,-155.542l-313.375,0Z" style="fill:#b52f25;fill-rule:nonzero;"/><path d="M14828.8,8362.83l0,-1155.71l329.208,0c63.663,0 117.334,1.333 160.996,3.958c44.213,2.625 80.542,7.125 108.963,13.417c48.958,11.583 92.621,31.583 131.041,60c42.121,31.583 73.959,72.083 95.542,121.542c22.583,47.375 33.913,101.083 33.913,161.083c-0,88.917 -22.08,161.792 -66.288,218.667c-43.167,56.833 -107.083,93.916 -191.837,111.291l314.962,465.75l-356,0l-265.254,-452.333l-0,452.333l-295.246,0Zm295.246,-609.416l58.421,-0c68.916,-0 118.662,-11.334 149.204,-33.959c31.046,-25.25 46.542,-61.833 46.542,-109.708c-0,-57.875 -14.455,-98.958 -43.417,-123.167c-29.458,-24.708 -78.663,-37.083 -147.579,-37.083l-63.171,-0l-0,303.917Z" style="fill:#b52f25;fill-rule:nonzero;"/><path d="M16170,7931.04l313.417,-0l-117.625,-381.292c-2.667,-6.833 -7.625,-25.792 -15.042,-56.833c-8.916,-36.334 -17.083,-69.209 -24.458,-98.667c-7.333,26.829 -13.671,53.913 -18.917,81.292c-8.416,26.291 -15.541,51.041 -21.333,74.208l-116.042,381.292Zm-441.291,431.791l398.671,-1155.71l394.704,0l399.458,1155.71l-313.421,0l-58.412,-206.791l-447.584,0.004l-60,206.791l-313.416,-0.004Z" style="fill:#b52f25;fill-rule:nonzero;"/><path d="M4782.75,8866.83l0,711.792l-134.25,0l0,-711.792l-219.375,0l-0,-113.958l571.875,0l-0,113.958l-218.25,0Z" style="fill:#626060;fill-rule:nonzero;"/><path d="M5104.79,9578.62l-0,-825.75l460.833,0l0,113.958l-326.583,0l-0,207l326.583,0l0,117.875l-326.583,0l-0,266.792l326.583,0l0,120.125l-460.833,0Z" style="fill:#626060;fill-rule:nonzero;"/><path d="M6383.42,8953.71c-38,-32.333 -78.209,-56.625 -120.667,-72.791c-42.167,-16.125 -86.5,-24.25 -133.167,-24.25c-90.208,-0 -163.708,28.958 -220.5,86.879c-56.416,57.912 -84.583,132.912 -84.583,225.037c0,89.084 27.417,162.629 82.333,220.542c55.25,57.879 124.834,86.833 208.667,86.833c48.875,0 95.333,-8.621 139.333,-25.958c44.334,-17.292 86.875,-43.417 127.459,-78.375l-0,151.708c-36.084,25.959 -75.375,45.334 -117.875,58.125c-42.5,12.75 -88.542,19.167 -138.209,19.167c-63.125,-0 -121.625,-10.371 -175.375,-31.038c-53.416,-20.666 -100.416,-51.129 -141.041,-91.379c-40.209,-39.458 -71.209,-85.916 -93.042,-139.291c-21.458,-53.792 -32.125,-110.959 -32.125,-171.459c0,-60.537 10.667,-117.329 32.125,-170.333c21.833,-53.375 53.208,-100.208 94.167,-140.458c41,-40.584 88,-71.25 141.041,-91.917c53,-21.083 110.334,-31.583 172,-31.583c48.5,-0 94.792,7.125 138.792,21.416c43.958,13.917 86.625,35.167 128,63.75l-7.333,135.375Z" style="fill:#626060;fill-rule:nonzero;"/><path d="M6550.92,9578.62l-0,-825.75l134.25,0l-0,304.583l406.083,0l0,-304.583l134.25,0l0,825.75l-134.25,0l0,-401.042l-406.083,0l-0,401.042l-134.25,0Z" style="fill:#626060;fill-rule:nonzero;"/><path d="M7415,9578.62l0,-858.458l524.542,504.791c14.291,14.292 28.75,29.542 43.416,45.709c14.667,16.166 30.084,34.416 46.25,54.708l0,-572.5l124.084,-0l-0,857.875l-535.25,-513.792c-14.292,-13.916 -28.209,-28.583 -41.75,-44c-13.167,-15.416 -25.75,-31.583 -37.792,-48.5l0,574.167l-123.5,0Z" style="fill:#626060;fill-rule:nonzero;"/><path d="M9048.96,9167.46c0,-41.75 -7.708,-81.416 -23.125,-119c-15.041,-37.625 -36.875,-71.083 -65.458,-100.416c-27.792,-28.959 -60.167,-51.125 -97,-66.542c-36.458,-15.792 -75,-23.708 -115.583,-23.708c-40.625,-0 -79.375,7.708 -116.209,23.125c-36.5,15.416 -69,37.791 -97.583,67.125c-28.583,28.958 -50.375,62.208 -65.417,99.833c-15.041,37.583 -22.583,77.458 -22.583,119.583c0,41.709 7.542,81.209 22.583,118.417c15,37.25 36.834,70.542 65.417,99.833c28.583,29.334 61.083,51.709 97.583,67.125c36.459,15.417 75.209,23.125 116.209,23.125c40.208,0 78.375,-7.708 114.458,-23.125c36.5,-15.416 69.208,-37.791 98.125,-67.125c28.583,-29.291 50.375,-62.583 65.458,-99.833c15.417,-37.583 23.125,-77.083 23.125,-118.417m139.875,0c0,58.667 -11.125,114.125 -33.291,166.375c-21.834,52.292 -53.792,98.875 -95.875,139.875c-42.5,40.959 -90.417,72.375 -143.834,94.167c-53.416,21.833 -109.416,32.75 -168.041,32.75c-59.459,0 -116.209,-10.917 -170.375,-32.75c-53.75,-22.167 -101.334,-53.542 -142.667,-94.167c-42.125,-41 -74.083,-87.416 -95.917,-139.333c-21.791,-51.875 -32.708,-107.542 -32.708,-166.917c0,-59.041 10.917,-114.708 32.708,-166.958c21.834,-52.25 53.792,-99.083 95.917,-140.458c42.083,-40.959 89.875,-72.167 143.25,-93.584c53.375,-21.458 109.958,-32.166 169.792,-32.166c59.375,-0 115.583,10.708 168.625,32.166c53.375,21.417 101.125,52.625 143.25,93.584c42.083,41.75 74.041,88.958 95.875,141.583c22.166,52.25 33.291,107.542 33.291,165.833" style="fill:#626060;fill-rule:nonzero;"/><path d="M9343.92,9578.62l-0,-825.75l134.25,0l-0,705.625l300.041,0l0,120.125l-434.291,0Z" style="fill:#626060;fill-rule:nonzero;"/><path d="M10553.7,9167.46c0,-41.75 -7.666,-81.416 -23.083,-119c-15.037,-37.625 -36.875,-71.083 -65.417,-100.416c-27.833,-28.959 -60.204,-51.125 -97.037,-66.542c-36.459,-15.792 -75,-23.708 -115.625,-23.708c-40.625,-0 -79.334,7.708 -116.171,23.125c-36.5,15.416 -69,37.791 -97.583,67.125c-28.579,28.958 -50.375,62.208 -65.413,99.833c-15.046,37.583 -22.541,77.458 -22.541,119.583c-0,41.709 7.495,81.209 22.541,118.417c15.038,37.25 36.834,70.542 65.413,99.833c28.583,29.334 61.083,51.709 97.583,67.125c36.458,15.417 75.167,23.125 116.171,23.125c40.246,0 78.412,-7.708 114.496,-23.125c36.5,-15.416 69.212,-37.791 98.166,-67.125c28.542,-29.291 50.38,-62.583 65.417,-99.833c15.417,-37.583 23.083,-77.083 23.083,-118.417m139.917,0c0,58.667 -11.125,114.125 -33.292,166.375c-21.829,52.292 -53.75,98.875 -95.875,139.875c-42.5,40.959 -90.458,72.375 -143.829,94.167c-53.421,21.833 -109.421,32.75 -168.083,32.75c-59.421,0 -116.171,-10.917 -170.338,-32.75c-53.75,-22.167 -101.329,-53.542 -142.708,-94.167c-42.083,-41 -74.042,-87.416 -95.875,-139.333c-21.787,-51.875 -32.708,-107.542 -32.708,-166.917c-0,-59.041 10.921,-114.708 32.708,-166.958c21.833,-52.25 53.792,-99.083 95.875,-140.458c42.167,-40.959 89.875,-72.167 143.292,-93.584c53.375,-21.458 110,-32.166 169.754,-32.166c59.412,-0 115.625,10.708 168.662,32.166c53.375,21.417 101.129,52.625 143.25,93.584c42.125,41.75 74.046,88.958 95.875,141.583c22.167,52.25 33.292,107.542 33.292,165.833" style="fill:#626060;fill-rule:nonzero;"/><path d="M11306.1,9155.62l327.129,0c0,5.629 0.163,13.5 0.454,23.671c1.129,26.704 1.671,44.746 1.671,54.166c0,116.167 -33.296,206.413 -99.833,270.705c-66.542,64.291 -160.338,96.458 -281.459,96.458c-67.666,0 -128.004,-9.958 -181.004,-29.917c-53.037,-19.916 -99.458,-50 -139.333,-90.25c-39.125,-39.833 -69.204,-86.625 -90.25,-140.416c-20.662,-53.788 -31,-111.292 -31,-172.584c0,-62.416 10.5,-119.958 31.583,-172.583c21.417,-52.667 53,-99.079 94.754,-139.333c40.205,-39.459 87.413,-69.542 141.58,-90.209c54.125,-20.708 112,-31.041 173.67,-31.041c65.08,-0 123.163,11.833 174.334,35.541c51.496,23.667 97.371,59.959 137.579,108.834l-98.125,73.921c-27.829,-32.338 -59.246,-56.421 -94.208,-72.213c-34.959,-15.792 -74.042,-23.708 -117.288,-23.708c-89.504,-0 -162.629,28.791 -219.421,86.291c-56.416,57.171 -84.579,131.625 -84.579,223.375c0,93.25 28.163,169 84.579,227.292c56.792,57.921 130.292,86.833 220.542,86.833c76.708,0 137.042,-17.829 181.042,-53.541c44.004,-35.75 66,-84.459 66,-146.084l-0,-11.875l-198.542,0l0.125,-113.333Z" style="fill:#626060;fill-rule:nonzero;"/><path d="M11934.5,9578.62l-0.004,-377.875l-278.075,-447.875l141,0l173.159,280.333c4.125,7.167 9.208,16.542 15.212,28.209c6.421,11.666 12.792,24.246 19.163,37.787c5.25,-13.162 10.75,-25.579 16.379,-37.246c5.996,-11.625 12.208,-22.375 18.583,-32.125l177.704,-276.958l134.209,0l-284.25,447.875l-0,377.875l-133.084,0l0.004,-0Z" style="fill:#626060;fill-rule:nonzero;"/><path d="M13190.5,9274.62l0,-173.171l442.167,0c-0,7.921 0.416,14.088 1.208,18.629l0,29.875c0,142.5 -37.208,252.667 -111.667,330.496c-75.204,78.588 -181.041,117.875 -317.541,117.875c-65.042,0 -124.459,-9.954 -178.209,-29.871c-51.916,-19.916 -98.541,-50.75 -139.916,-92.5c-39.459,-40.25 -69.746,-86.875 -90.788,-139.875c-11.25,-28.212 -19.546,-56.416 -24.837,-84.583c-5.25,-28.583 -7.875,-57 -7.875,-85.167c-0,-60.958 10.541,-117.541 31.583,-169.791c21.042,-50.75 52.458,-97.375 94.171,-139.88c39.871,-39.87 87.246,-70.287 142.162,-91.37c54.125,-20.667 112.046,-31 173.709,-31c80.458,-0 151.916,16.166 214.337,48.5c19.913,9.75 39.496,21.954 58.621,36.666c19.546,14.288 37.421,30.25 53.625,47.917c16.542,17.667 31.546,36.875 45.125,57.542l-195.163,93.625c-23.337,-31.959 -49.462,-55.834 -78.42,-71.625c-29.709,-15.421 -62.417,-23.125 -98.125,-23.125c-67.667,-0 -120.5,22.375 -158.5,67.125c-38.375,44.375 -57.496,105.833 -57.496,184.416c-0,78.959 19.121,141 57.496,186.125c38,44.75 90.833,67.125 158.5,67.125c57.541,0 105.083,-14.291 142.708,-42.875c39.083,-28.17 61.458,-65.25 67.129,-111.083l-224.004,0Z" style="fill:#626060;fill-rule:nonzero;"/><path d="M13772.5,9578.62l-0,-825.75l235.208,0c45.5,0 83.833,0.958 115.042,2.875c31.625,1.833 57.541,5.042 77.875,9.583c34.958,8.25 66.166,22.542 93.583,42.875c30.121,22.542 52.833,51.5 68.25,86.83c16.204,33.837 24.292,72.212 24.292,115.045c-0,63.542 -15.834,115.625 -47.417,156.25c-30.833,40.584 -76.5,67.125 -137.042,79.5l225.042,332.792l-254.379,0l-189.496,-323.208l0,323.208l-210.958,0Zm210.958,-435.417l41.75,0c49.25,0 84.75,-8.083 106.579,-24.25c22.171,-18.083 33.296,-44.208 33.296,-78.416c0,-41.338 -10.379,-70.709 -31.042,-88c-21.041,-17.667 -56.212,-26.5 -105.458,-26.5l-45.125,-0l0,217.166Z" style="fill:#626060;fill-rule:nonzero;"/><path d="M15360.2,9167.46c0,59.792 -10.708,115.625 -32.125,167.5c-21.458,50.75 -53.417,97.042 -95.912,138.75c-42.088,40.625 -90.255,71.792 -144.38,93.625c-56.791,22.167 -113,33.292 -168.625,33.292c-56.416,0 -112.625,-11.125 -168.666,-33.292c-55.25,-22.166 -103,-53.375 -143.25,-93.625c-40.625,-38.708 -72.584,-85.333 -95.875,-139.875c-22.584,-53.375 -33.834,-108.875 -33.834,-166.375c0,-57.541 11.25,-113 33.834,-166.375c23.291,-54.541 55.25,-101.166 95.875,-139.916c41.375,-41.334 89.125,-72.917 143.25,-94.709c52.666,-21.458 108.875,-32.166 168.666,-32.166c59.792,-0 116.375,10.916 169.75,32.708c53.417,21.417 100.959,52.833 142.709,94.167c42.125,41.416 74.25,88 96.458,139.916c21.417,51.875 32.125,107.334 32.125,166.375m-441.042,242.5c62.042,0 113.917,-23.083 155.667,-69.375c20.667,-22.916 35.917,-48.666 45.667,-77.25c9.791,-28.583 14.666,-60.541 14.666,-95.875c0,-68.833 -20.5,-126.541 -61.504,-173.166c-41.746,-46.25 -93.241,-69.375 -154.537,-69.375c-62.792,-0 -114.5,23.125 -155.084,69.375c-40.625,46.25 -60.916,104 -60.916,173.166c-0,71.792 19.916,129.917 59.791,174.25c41,45.542 93.084,68.25 156.209,68.25l0.041,0Z" style="fill:#626060;fill-rule:nonzero;"/><path d="M15494.5,8752.88l225.625,0l0,401.625c0,61.25 1.5,103.75 4.542,127.458c3.754,28.209 8.833,49.625 15.213,64.292c7.912,21.417 22.745,37.208 44.579,47.375c21.791,11.667 48.129,17.458 78.958,17.458c30.458,0 56.583,-5.791 78.417,-17.458c19.875,-9.792 34.958,-25.583 45.083,-47.375c6,-15.042 10.917,-36.5 14.667,-64.292c3.375,-22.583 5.041,-65.083 5.041,-127.458l0,-401.625l223.917,0l0,436.583c0,89.459 -5.458,156.042 -16.375,199.667c-10.125,43.208 -28.542,80.25 -55.25,111.083c-29.333,34.25 -68.25,59.209 -116.75,75.042c-48.121,16.917 -107.75,25.375 -178.792,25.375c-72.583,0 -132.333,-8.458 -179.333,-25.375c-47.792,-15.833 -86.708,-40.792 -116.75,-75.042c-25.958,-30.083 -44.412,-67.083 -55.292,-111.083c-11.666,-44.417 -17.5,-110.958 -17.5,-199.667l0,-436.583Z" style="fill:#626060;fill-rule:nonzero;"/><path d="M16611.8,9578.62l-210.917,0l0,-825.75l235.167,0c91.375,0 156.25,4.542 194.583,13.583c37.625,9.75 69,25.167 94.208,46.25c30.084,25.167 53.209,56.375 69.375,93.584c16.167,38 24.25,80.291 24.25,126.916c0,49.667 -8.083,92.875 -24.25,129.75c-14.291,37.209 -37.416,68.042 -69.375,92.459c-22.958,18.083 -50.583,31.041 -82.916,38.916c-28.959,7.917 -79.338,11.875 -151.167,11.875l-78.958,0l-0,272.417Zm-0,-454.042l42.875,0c53.412,0 91.208,-7.708 113.375,-23.129c21.416,-14.287 32.166,-39.287 32.166,-75c0,-34.246 -10.583,-58.662 -31.625,-73.329c-20.666,-15.042 -57.916,-22.542 -111.666,-22.542l-45.125,0l-0,194Z" style="fill:#626060;fill-rule:nonzero;"/><path d="M5963.17,18379.3c-0,17.784 -3.125,36.613 -9.417,56.488c-6.292,19.879 -16.75,49.166 -31.375,87.871c-11.5,27.2 -26.167,66.425 -43.958,117.687c-46,134.942 -81.042,284.017 -105.125,447.2c-3.125,27.204 -6.25,56.492 -9.417,87.875c-3.125,31.379 -4.708,58.054 -4.708,80.029c-0,12.555 3.916,24.584 11.791,36.084c7.834,11.508 11.75,18.837 11.75,21.971c0,6.275 -6.791,17.52 -20.375,33.733c-13.625,16.221 -28.791,31.129 -45.541,44.725c-16.709,13.6 -30.334,20.396 -40.792,20.396c-20.917,-0 -31.375,-8.888 -31.375,-26.679c0,-23.005 13.083,-101.734 39.25,-236.146c26.125,-134.425 48.083,-237.729 65.875,-309.904c-25.083,28.237 -47.583,50.212 -67.458,65.899c-19.875,15.692 -44.459,23.538 -73.75,23.538c-41.834,0 -84.209,-33.212 -127.084,-99.642c-42.916,-66.425 -85.791,-146.191 -128.708,-239.291l-15.667,-31.379c-14.666,-30.342 -29.291,-56.496 -43.958,-78.459c-14.625,-21.966 -21.958,-34.525 -21.958,-37.666c-0,-5.23 3.916,-9.146 11.791,-11.767c7.834,-2.613 16.459,-3.921 25.875,-3.921c34.542,0 65.375,32.95 92.584,98.85c37.666,89.967 75.041,167.646 112.208,233.025c37.125,65.375 75.542,98.063 115.333,98.063c26.125,-0 49.125,-8.884 69.042,-26.667c19.875,-17.792 36.083,-38.704 48.625,-62.767c11.5,-21.966 25.375,-53.354 41.583,-94.15c16.209,-40.796 28.5,-74.275 36.875,-100.425c33.459,-100.421 51.792,-158.479 54.917,-174.175c5.25,-21.966 9.958,-37.396 14.125,-46.283c4.167,-8.896 11,-13.338 20.375,-13.338c11.542,0 22.5,3.913 32.958,11.767c10.459,7.846 15.709,17 15.709,27.458" style="fill:#626060;fill-rule:nonzero;"/><path d="M6622.21,18986.6c7.334,0 10.959,7.846 10.959,23.534c-0,18.833 -13.834,60.15 -41.584,123.958c-27.708,63.813 -69.541,122.917 -125.5,177.321c-55.958,54.396 -124.75,81.592 -206.333,81.592c-66.958,-0 -122.917,-20.921 -167.917,-62.767c-45,-41.846 -67.458,-106.179 -67.458,-193.004c0,-81.6 18.833,-162.409 56.458,-242.429c37.667,-80.03 86.834,-145.413 147.5,-196.142c60.709,-50.733 123.459,-76.108 188.292,-76.108c38.708,-0 71.417,8.633 98.083,25.895c26.667,17.259 40,42.096 40,74.525c0,36.617 -20.625,72.188 -61.958,106.709c-41.333,34.521 -94.917,64.85 -160.833,91.008c-65.917,26.154 -133.917,44.988 -204,56.483c-12.542,48.13 -18.834,95.2 -18.834,141.23c0,60.666 14.375,107.745 43.167,141.216c28.75,33.484 69.833,50.221 123.167,50.221c80.541,0 145.916,-28.767 196.166,-86.313c50.209,-57.524 92.042,-122.387 125.5,-194.562c2.084,-4.183 5.75,-12.296 11,-24.325c5.209,-12.037 9.917,-18.042 14.125,-18.042m-138.083,-246.354c-0,-16.741 -8.625,-29.816 -25.917,-39.233c-17.25,-9.417 -37.375,-14.121 -60.375,-14.121c-39.75,0 -77.958,13.079 -114.583,39.225c-36.583,26.158 -67.208,57.538 -91.792,94.15c-24.583,36.612 -40.541,69.042 -47.833,97.292c48.125,-5.234 98.833,-18.834 152.208,-40.804c53.334,-21.967 98.042,-46.021 134.167,-72.18c36.083,-26.154 54.125,-47.595 54.125,-64.329" style="fill:#626060;fill-rule:nonzero;"/><path d="M7344,19286.3c1.042,7.325 5.25,14.908 12.542,22.754c7.333,7.846 11,14.387 11,19.612c-0,12.559 -5.25,26.938 -15.709,43.155c-10.458,16.212 -20.916,24.325 -31.375,24.325c-17.791,-0 -31.375,-10.992 -40.791,-32.959c-9.417,-21.962 -14.125,-47.591 -14.125,-76.887c-0,-25.105 1.583,-100.425 4.708,-225.955l1.583,-59.625c0,-24.062 -6.291,-41.325 -18.833,-51.783c-47.083,79.5 -91,148.546 -131.833,207.129c-40.792,58.579 -92.542,113.763 -155.334,165.538c-62.75,51.787 -128.666,77.675 -197.708,77.675c-33.458,-0 -59.375,-10.463 -77.667,-31.379c-18.291,-20.921 -27.458,-48.121 -27.458,-81.6c0,-41.838 18.833,-99.113 56.5,-171.817c37.667,-72.708 85.75,-146.454 144.333,-221.25c58.584,-74.796 117.167,-136.254 175.75,-184.375c38.709,-31.379 69.584,-52.563 92.584,-63.55c23,-10.979 43.416,-16.471 61.208,-16.471c16.75,0 34,5.225 51.792,15.692c17.75,10.454 32.916,25.104 45.5,43.929c12.541,18.829 18.833,40.275 18.833,64.337c0,32.43 -8.917,63.288 -26.708,92.58l26.708,-7.846c11.5,-0 18.292,14.121 20.375,42.366c1.042,16.734 2.375,50.734 3.917,101.992c1.583,51.263 2.875,93.629 3.916,127.1c1.084,34.521 2.125,67.996 3.167,100.425c1.042,32.429 2.083,58.054 3.125,76.888m-553.917,28.245c56.5,0 110.917,-20.92 163.209,-62.766c52.291,-41.838 99.125,-91.796 140.416,-149.854c41.334,-58.059 87.125,-129.45 137.334,-214.184c12.541,-31.383 18.833,-65.383 18.833,-101.996c0,-21.962 -6.542,-41.054 -19.625,-57.275c-13.083,-16.212 -30.625,-24.316 -52.583,-24.316c-26.125,-0 -59.625,17.783 -100.417,53.346c-47.083,39.754 -96.75,92.845 -149.083,159.266c-52.292,66.434 -95.709,132.075 -130.209,196.934c-34.541,64.854 -51.791,116.112 -51.791,153.766c-0,31.392 14.625,47.079 43.916,47.079" style="fill:#626060;fill-rule:nonzero;"/><path d="M7999.92,18726.1c-0,9.417 -6.542,20.134 -19.625,32.171c-13.084,12.025 -24.334,18.042 -33.75,18.042c-7.292,-0 -14.375,-3.142 -21.167,-9.417c-6.792,-6.275 -14.375,-15.171 -22.75,-26.666c-7.333,-10.467 -17,-19.363 -29.042,-26.68c-12.041,-7.325 -24.333,-10.983 -36.875,-10.983c-30.333,0 -71.125,40.013 -122.375,120.033c-51.291,80.03 -101.5,180.713 -150.666,302.059c1.083,24.066 2.875,54.396 5.5,91.008c2.625,36.621 4.458,63.821 5.5,81.6l4.708,62.771c0,14.637 -3.125,27.454 -9.417,38.433c-6.291,10.988 -17.791,16.479 -34.5,16.479c-17.791,0 -29.291,-23.796 -34.541,-71.396c-5.209,-47.595 -8.375,-116.9 -9.417,-207.908c-1.042,-23.012 -1.833,-55.967 -2.333,-98.854c-0.542,-42.896 -1.834,-94.146 -3.959,-153.775c-3.125,-89.967 -4.708,-154.304 -4.708,-193.008c0,-24.059 14.667,-36.084 43.958,-36.084c17.792,0 28.5,7.575 32.167,22.754c3.667,15.159 5.5,44.188 5.5,87.084l0,249.487c31.375,-80.55 65.375,-150.112 102,-208.691c36.583,-58.58 72.417,-103.305 107.458,-134.163c35.042,-30.858 66.167,-46.292 93.375,-46.292c23,0 45,5.234 65.917,15.692c20.917,10.458 37.667,23.796 50.208,40.017c12.542,16.208 18.834,31.646 18.834,46.287" style="fill:#626060;fill-rule:nonzero;"/><path d="M8613.42,19167c-0,46.029 -18.542,90.225 -55.663,132.591c-37.171,42.367 -86.046,76.367 -146.754,101.996c-60.667,25.634 -123.958,38.442 -189.833,38.442c-44.996,-0 -75.334,-4.183 -91.042,-12.554c-15.667,-8.367 -23.5,-19.875 -23.5,-34.517c0,-9.412 12,-25.892 36.083,-49.429c24.042,-23.533 40.25,-35.308 48.625,-35.308c12.542,-0 18.834,2.616 18.834,7.85c-0,4.183 -2.625,8.366 -7.834,12.55c-5.25,4.183 -7.875,7.845 -7.875,10.987c0,4.183 6.546,8.367 19.625,12.554c13.084,4.184 29.042,6.275 47.875,6.275c43.917,0 88.125,-8.104 132.584,-24.325c44.458,-16.208 80.791,-37.391 109.041,-63.55c28.25,-26.146 42.38,-53.871 42.38,-83.162c-0,-28.246 -8.88,-50.738 -26.671,-67.471c-17.792,-16.738 -39.996,-29.029 -66.709,-36.879c-26.666,-7.846 -71.37,-19.088 -134.125,-33.734c-69.041,-15.691 -122.662,-29.55 -160.875,-41.579c-38.166,-12.033 -68.75,-27.204 -91.791,-45.508c-23,-18.308 -34.5,-41.583 -34.5,-69.829c-0,-50.213 24.583,-96.234 73.75,-138.079c49.166,-41.846 105.666,-74.796 169.458,-98.855c63.833,-24.062 113,-36.091 147.504,-36.091c35.579,-0 53.329,10.458 53.329,31.383c0,12.554 -4.166,26.413 -12.541,41.583c-8.375,15.163 -20.917,22.746 -37.663,22.746c-6.25,0 -13.046,-2.35 -20.379,-7.054c-7.333,-4.712 -14.667,-7.067 -21.958,-7.067c-20.959,0 -53.875,6.805 -98.875,20.405c-45,13.591 -85.792,33.991 -122.375,61.195c-36.625,27.192 -54.917,60.15 -54.917,98.855c0,25.104 14.375,43.675 43.125,55.704c28.792,12.029 82.375,26.937 160.833,44.716c9.417,3.142 18.834,5.496 28.25,7.067c9.417,1.563 17.792,3.4 25.125,5.492c80.542,18.825 142.255,40.275 185.13,64.333c42.912,24.054 64.329,60.146 64.329,108.267" style="fill:#626060;fill-rule:nonzero;"/><path d="M9616.12,19061.9c0,40.804 -15.167,87.875 -45.5,141.229c-30.333,53.35 -73.25,99.121 -128.667,137.296c-55.458,38.183 -118.75,57.275 -189.875,57.275c-70.083,0 -121.875,-19.354 -155.333,-58.058c-33.5,-38.704 -50.25,-86.825 -50.25,-144.359c-0,-50.212 9.167,-112.462 27.458,-186.729c18.334,-74.275 44.209,-140.696 77.709,-199.283c2.083,-4.183 10.708,-19.613 25.875,-46.288c15.166,-26.679 32.166,-47.07 51,-61.2c18.833,-14.116 38.708,-21.183 59.625,-21.183c9.416,0 18.041,2.363 25.875,7.067c7.875,4.708 11.791,10.725 11.791,18.05c0,2.091 -2.875,7.054 -8.625,14.9c-5.75,7.846 -10.208,13.858 -13.333,18.05c-35.583,42.887 -64.333,85.254 -86.333,127.1c-29.292,53.341 -52.042,106.175 -68.25,158.479c-16.209,52.304 -24.334,109.317 -24.334,171.037c0,82.642 50.209,123.959 150.667,123.959c47.042,-0 90.75,-13.6 131,-40.796c40.292,-27.2 72.458,-60.408 96.5,-99.642c24.083,-39.225 36.083,-75.058 36.083,-107.479c0,-36.612 -12,-68.525 -36.083,-95.721c-24.042,-27.196 -57,-55.966 -98.833,-86.304c-27.209,-19.871 -47.084,-36.092 -59.625,-48.642c-12.584,-12.554 -18.834,-23.012 -18.834,-31.387c0,-12.55 8.875,-22.754 26.667,-30.6c17.792,-7.842 38.708,-11.767 62.75,-11.767c13.625,0 22.5,0.792 26.708,2.363c4.167,1.562 6.25,4.441 6.25,8.625c0,2.091 -1.833,5.491 -5.5,10.196c-3.625,4.712 -5.458,8.633 -5.458,11.766c0,3.142 10.458,13.6 31.375,31.392c41.833,34.521 76.875,69.562 105.125,105.125c28.25,35.571 42.375,77.408 42.375,125.529" style="fill:#626060;fill-rule:nonzero;"/><path d="M10305,18388.8c0,12.55 -2.875,29.029 -8.625,49.429c-5.75,20.396 -12.291,30.592 -19.625,30.592c-7.291,-0 -12.791,-3.4 -16.458,-10.196c-3.667,-6.804 -7.083,-15.95 -10.208,-27.458c-11.5,-35.571 -29.042,-65.642 -52.542,-90.225c-23.542,-24.588 -48.917,-36.875 -76.125,-36.875c-73.208,-0 -125.792,49.429 -157.708,148.283c-31.875,98.854 -47.834,214.704 -47.834,347.558c31.375,-2.091 66.667,-7.054 105.917,-14.9c39.208,-7.846 65.125,-12.816 77.667,-14.908c74.25,-15.692 123.416,-23.538 147.5,-23.538c20.916,0 31.375,9.417 31.375,28.242c-0,14.646 -3.125,30.338 -9.417,47.075c-6.292,16.742 -15.708,25.108 -28.25,25.108c-10.458,0 -20.917,-2.091 -31.375,-6.275c-14.667,-6.283 -34.542,-9.416 -59.625,-9.416c-16.75,-0 -51.25,5.225 -103.583,15.691l-125.5,18.83c-0,26.15 3.125,98.854 9.416,218.108c10.459,184.108 15.667,331.087 15.667,440.925c0,19.875 -2.083,33.742 -6.25,41.587c-4.208,7.846 -12.583,11.767 -25.125,11.767c-14.625,0 -25.625,-8.367 -32.958,-25.104c-7.334,-16.742 -10.959,-35.567 -10.959,-56.496c0,-120.296 -7.875,-309.112 -23.541,-566.454l-3.167,-50.213c-8.375,1.05 -35.292,5.755 -80.792,14.121c-45.5,8.371 -78.708,12.554 -99.625,12.554c-11.541,0 -21.208,-2.612 -29.041,-7.841c-7.834,-5.234 -11.792,-13.079 -11.792,-23.538c0,-26.154 9.417,-39.754 28.25,-40.804c27.208,-1.042 60.167,-3.4 98.875,-7.054c38.708,-3.663 68.5,-7.583 89.417,-11.775c-0,-171.558 23.291,-310.946 69.833,-418.175c46.542,-107.225 115.875,-160.838 207.917,-160.838c33.458,0 64.583,8.375 93.375,25.113c28.75,16.733 51.791,37.133 69.041,61.192c17.25,24.062 25.875,46.033 25.875,65.908" style="fill:#626060;fill-rule:nonzero;"/><path d="M11477.1,18385.6c0,12.55 -8.917,23.542 -26.708,32.95c-28.209,15.692 -72.417,32.43 -132.579,50.213c-60.13,17.783 -109.584,30.337 -148.296,37.662c-60.667,11.509 -121.584,20.663 -182.788,27.459c-61.212,6.804 -100.671,10.725 -118.462,11.766c1.041,60.68 2.625,123.18 4.708,187.517c2.083,64.329 3.671,108.529 4.713,132.592c40.787,-5.234 101.995,-15.167 183.579,-29.817l59.625,-9.417c65.916,-11.504 116.625,-32.429 152.208,-62.758c18.838,-14.65 32.417,-21.975 40.792,-21.975c7.333,0 13.333,3.925 18.041,11.771c4.709,7.85 7.084,15.95 7.084,24.321c-0,18.833 -21.204,39.496 -63.579,61.979c-42.338,22.496 -89.171,38.967 -140.421,49.433c-42.875,9.413 -90.996,18.309 -144.375,26.675c-53.334,8.367 -88.375,13.6 -105.121,15.692c6.287,178.879 24.579,311.733 54.912,398.558c30.334,10.459 60.171,18.042 89.459,22.754c29.291,4.705 66.958,7.063 112.958,7.063c46.042,-0 89.958,-6.021 131.833,-18.05c41.834,-12.029 75.588,-26.938 101.209,-44.717c25.625,-17.783 38.416,-34.521 38.416,-50.212c0,-8.367 -1.537,-16.48 -4.704,-24.325c-3.125,-7.846 -7.292,-15.95 -12.546,-24.317c-2.083,-3.142 -5.496,-8.112 -10.208,-14.908c-4.708,-6.805 -7.042,-12.296 -7.042,-16.48c0,-10.458 11.5,-15.691 34.5,-15.691c16.75,-0 31.125,7.066 43.167,21.183c12.042,14.121 18.042,29.558 18.042,46.292c-0,33.479 -14.917,66.429 -44.704,98.858c-29.838,32.425 -70.63,58.838 -122.421,79.242c-51.75,20.4 -109.042,30.591 -171.792,30.591c-63.833,0 -116.125,-3.395 -156.917,-10.191c-40.791,-6.8 -71.666,-20.142 -92.583,-40.021c-25.125,-28.238 -42.625,-77.408 -52.583,-147.496c-9.917,-70.083 -18.542,-163.712 -25.875,-280.875c-19.871,5.233 -42.125,9.679 -66.704,13.338c-24.588,3.662 -43.13,5.495 -55.713,5.495c-12.542,0 -22.75,-3.925 -30.579,-11.775c-7.838,-7.845 -11.754,-17.52 -11.754,-29.029c-0,-7.316 1.291,-13.6 3.916,-18.825c2.584,-5.233 6.542,-8.366 11.75,-9.416c34.542,-4.188 59.63,-6.8 75.334,-7.842l67.462,-7.846c-4.166,-134.946 -8.375,-244.791 -12.541,-329.525c-15.713,0 -28.25,0.529 -37.671,1.571l-72.167,1.571c-9.417,-0 -16.75,-2.613 -21.958,-7.846c-5.25,-5.233 -7.875,-10.987 -7.875,-17.262c-0,-25.105 16.75,-41.846 50.208,-50.209c12.588,-2.091 28.5,-4.446 47.875,-7.066c19.333,-2.613 32.167,-3.921 38.463,-3.921c19.87,-21.967 41.829,-32.95 65.87,-32.95c4.209,-0 7.584,3.4 10.213,10.196c2.621,6.804 3.912,11.775 3.912,14.908c69.042,-3.133 151.167,-10.979 246.375,-23.533c62.75,-8.375 159.5,-28.25 290.296,-59.63l58.038,-12.55c10.458,0 15.708,6.275 15.708,18.825" style="fill:#626060;fill-rule:nonzero;"/><path d="M12043.6,19220.4c0,13.6 -4.708,34 -14.125,61.2c-9.412,27.196 -20.416,51.521 -32.958,72.963c-12.542,21.445 -24.583,32.162 -36.083,32.162c-20.913,0 -49.459,-25.887 -85.542,-77.671c-36.079,-51.779 -81.333,-122.125 -135.708,-211.05l-18.834,-31.379c-20.916,37.654 -37.916,69.304 -51,94.929c-13.083,25.634 -25.875,54.134 -38.458,85.521c-20.917,50.213 -31.375,80.021 -31.375,89.438c0,14.65 7.333,21.975 21.958,21.975c3.167,-0 8.375,-2.613 15.709,-7.855c7.333,-5.225 12.541,-7.845 15.704,-7.845c5.208,-0 9.921,1.57 14.087,4.712c4.209,3.133 6.292,6.804 6.292,10.988c0,6.27 -7.833,16.729 -23.542,31.379c-15.666,14.65 -33.208,27.716 -52.541,39.225c-19.375,11.516 -34.792,17.262 -46.292,17.266c-8.375,-0.004 -15.713,-7.062 -22,-21.187c-6.25,-14.121 -9.417,-29.021 -9.417,-44.721c0,-28.237 11.792,-67.733 35.334,-118.467c23.541,-50.737 58.833,-121.091 105.916,-211.05l25.084,-45.508c-20.917,-44.979 -48.875,-101.733 -83.917,-170.246c-35.042,-68.521 -66.167,-124.75 -93.375,-168.687c-15.708,-27.196 -23.542,-53.342 -23.542,-78.459c0,-10.454 1.292,-17.779 3.917,-21.962c2.625,-4.183 6.542,-6.275 11.792,-6.275c9.416,-0 19.333,4.962 29.795,14.9c10.455,9.937 22.996,27.467 37.663,52.571c47.083,75.321 99.917,176.262 158.458,302.841c4.209,-7.325 16.25,-28.237 36.125,-62.758c32.417,-58.587 64.334,-112.462 95.709,-161.621c21.958,-31.391 38.958,-52.304 51,-62.771c12.041,-10.466 29,-15.691 51,-15.691c30.333,-0 45.5,8.366 45.5,25.108c-0,4.183 -1.584,7.583 -4.709,10.196c-3.125,2.612 -10.208,6.796 -21.208,12.558c-10.958,5.754 -22.208,14.379 -33.708,25.888c-17.792,17.779 -45.505,55.704 -83.167,113.758c-37.667,58.058 -73.25,117.946 -106.708,179.671c23.004,43.929 49.958,88.129 80.791,132.596c30.875,44.458 58.584,81.071 83.167,109.829c24.583,28.775 40.042,43.158 46.292,43.158c14.666,0 26.708,-13.6 36.125,-40.796c2.083,-7.325 4.958,-15.17 8.625,-23.545c3.666,-8.367 8.083,-12.55 13.329,-12.55c12.546,-0 18.837,5.754 18.837,17.262" style="fill:#626060;fill-rule:nonzero;"/><path d="M12552,19041.5c0,6.275 -10.704,25.633 -32.166,58.058c-21.413,32.43 -43.121,61.717 -65.125,87.871c-54.371,65.904 -103.292,116.638 -146.709,152.209c-43.412,35.562 -88.625,53.35 -135.708,53.35c-39.75,-0 -72.458,-17.259 -98.083,-51.78c-25.621,-34.52 -38.454,-74.275 -38.454,-119.254c-0.001,-66.954 17.787,-151.687 53.37,-254.2c35.542,-102.516 80.542,-191.441 134.917,-266.758c54.421,-75.317 108.833,-112.979 163.208,-112.979c23,-0 42.875,8.375 59.63,25.112c9.412,9.409 18.287,21.967 26.662,37.659c8.379,15.687 12.583,29.808 12.583,42.362c0,17.783 -2.375,38.446 -7.083,61.979c-4.708,23.538 -9.667,35.313 -14.917,35.313c-10.458,-0 -17.245,-5.754 -20.37,-17.267c-3.167,-11.508 -5.25,-26.15 -6.292,-43.929c-3.125,-27.2 -6.25,-45.25 -9.421,-54.138c-3.125,-8.891 -7.833,-13.337 -14.125,-13.337c-49.162,-0 -96.746,34.254 -142.787,102.775c-46.005,68.517 -83.667,148.025 -112.963,238.508c-29.292,90.488 -43.954,160.313 -43.954,209.484c-0,69.041 23.037,103.562 69.037,103.562c33.5,0 64.084,-8.371 91.792,-25.104c27.75,-16.742 56.75,-40.275 87.088,-70.613c56.495,-57.537 100.454,-107.229 131.829,-149.066c2.083,-3.142 8.087,-11.246 18.041,-24.325c9.917,-13.075 17,-19.613 21.167,-19.613c12.583,0 18.833,4.704 18.833,14.121" style="fill:#626060;fill-rule:nonzero;"/><path d="M13189,18986.6c7.333,0 11,7.846 11,23.534c-0,18.833 -13.875,60.15 -41.584,123.958c-27.75,63.813 -69.583,122.917 -125.541,177.321c-55.959,54.396 -124.75,81.592 -206.334,81.592c-66.958,-0 -122.916,-20.921 -167.916,-62.767c-44.959,-41.846 -67.459,-106.179 -67.459,-193.004c0,-81.6 18.834,-162.409 56.454,-242.429c37.671,-80.03 86.838,-145.413 147.505,-196.142c60.708,-50.733 123.458,-76.108 188.333,-76.108c38.708,-0 71.375,8.633 98.042,25.895c26.666,17.259 40.041,42.096 40.041,74.525c0,36.617 -20.666,72.188 -62,106.709c-41.333,34.521 -94.92,64.85 -160.833,91.008c-65.917,26.154 -133.917,44.988 -204,56.483c-12.542,48.13 -18.833,95.2 -18.833,141.23c-0,60.666 14.416,107.745 43.166,141.216c28.75,33.484 69.834,50.221 123.167,50.221c80.542,0 145.958,-28.767 196.167,-86.313c50.204,-57.524 92.041,-122.387 125.5,-194.562c2.121,-4.183 5.75,-12.296 11,-24.325c5.25,-12.037 9.958,-18.042 14.125,-18.042m-138.084,-246.354c0,-16.741 -8.625,-29.816 -25.879,-39.233c-17.287,-9.417 -37.412,-14.121 -60.416,-14.121c-39.746,0 -77.955,13.079 -114.538,39.225c-36.625,26.158 -67.25,57.538 -91.833,94.15c-24.584,36.612 -40.504,69.042 -47.834,97.292c48.125,-5.234 98.834,-18.834 152.209,-40.804c53.333,-21.967 98.083,-46.021 134.166,-72.18c36.084,-26.154 54.125,-47.595 54.125,-64.329" style="fill:#626060;fill-rule:nonzero;"/><path d="M13413.4,19344.3c-0,10.467 -6.792,18.834 -20.375,25.105c-13.621,6.283 -28.792,9.416 -45.5,9.416c-12.584,0 -24.329,-14.908 -35.334,-44.716c-10.958,-29.813 -16.454,-75.059 -16.454,-135.725c1.042,-118.217 2.871,-261.005 5.496,-428.38c2.583,-167.375 4.963,-293.433 7.046,-378.166c1.042,-30.338 6.542,-58.575 16.454,-84.734c9.958,-26.145 27.5,-39.225 52.588,-39.225c8.375,0 13.87,4.446 16.454,13.338c2.625,8.887 3.958,25.887 3.958,51.004c0,1.042 -0.292,4.442 -0.792,10.188c-0.541,5.762 -0.791,15.958 -0.791,30.608c-18.829,275.112 -28.25,543.437 -28.25,804.962c-0,33.471 7.583,69.042 22.75,106.696c15.17,37.667 22.75,57.538 22.75,59.629" style="fill:#626060;fill-rule:nonzero;"/><path d="M13664.5,19344.3c-0.004,10.467 -6.796,18.834 -20.421,25.105c-13.583,6.283 -28.754,9.416 -45.5,9.416c-12.541,0 -24.333,-14.908 -35.296,-44.716c-11,-29.813 -16.495,-75.059 -16.495,-135.725c1.041,-118.217 2.87,-261.005 5.495,-428.38c2.625,-167.375 4.963,-293.433 7.088,-378.166c1.042,-30.338 6.5,-58.575 16.458,-84.734c9.917,-26.145 27.459,-39.225 52.584,-39.225c8.337,0 13.833,4.446 16.458,13.338c2.629,8.887 3.912,25.887 3.912,51.004c0.004,1.042 -0.241,4.442 -0.787,10.188c-0.496,5.762 -0.788,15.958 -0.788,30.608c-18.791,275.112 -28.212,543.437 -28.212,804.962c0.004,33.471 7.583,69.042 22.75,106.696c15.166,37.667 22.754,57.538 22.754,59.629" style="fill:#626060;fill-rule:nonzero;"/><path d="M14356.5,18986.6c7.338,0 11,7.846 11,23.534c0,18.833 -13.871,60.15 -41.583,123.958c-27.704,63.813 -69.542,122.917 -125.542,177.321c-55.954,54.396 -124.75,81.592 -206.329,81.592c-66.962,-0 -122.916,-20.921 -167.879,-62.767c-45,-41.846 -67.496,-106.179 -67.496,-193.004c0,-81.6 18.829,-162.409 56.496,-242.429c37.667,-80.03 86.833,-145.413 147.5,-196.142c60.667,-50.733 123.458,-76.108 188.292,-76.108c38.708,-0 71.421,8.633 98.083,25.895c26.667,17.259 40.004,42.096 40.004,74.525c0,36.617 -20.666,72.188 -61.962,106.709c-41.329,34.521 -94.959,64.85 -160.875,91.008c-65.871,26.154 -133.875,44.988 -203.959,56.483c-12.541,48.13 -18.833,95.2 -18.833,141.23c0,60.666 14.379,107.745 43.125,141.216c28.792,33.484 69.833,50.221 123.208,50.221c80.542,0 145.917,-28.767 196.13,-86.313c50.204,-57.524 92.079,-122.387 125.537,-194.562c2.083,-4.183 5.75,-12.296 11,-24.325c5.208,-12.037 9.917,-18.042 14.083,-18.042m-138.083,-246.354c0,-16.741 -8.625,-29.816 -25.875,-39.233c-17.246,-9.417 -37.371,-14.121 -60.417,-14.121c-39.75,0 -77.916,13.079 -114.541,39.225c-36.625,26.158 -67.209,57.538 -91.792,94.15c-24.583,36.612 -40.542,69.042 -47.875,97.292c48.125,-5.234 98.875,-18.834 152.208,-40.804c53.375,-21.967 98.084,-46.021 134.167,-72.18c36.083,-26.154 54.125,-47.595 54.125,-64.329" style="fill:#626060;fill-rule:nonzero;"/><path d="M14966.9,19397.7c0,12.558 -5.25,23.275 -15.708,32.17c-10.459,8.888 -23,13.338 -37.667,13.338c-10.454,0 -19.333,-2.363 -26.667,-7.063c-7.291,-4.704 -10.958,-11.25 -10.958,-19.612c0,-42.888 3.125,-109.321 9.417,-199.288c6.25,-96.237 9.421,-176.258 9.421,-240.079c-0,-61.708 -1.838,-112.191 -5.505,-151.416c-3.666,-39.234 -12.291,-58.846 -25.916,-58.846c-35.542,-0 -74.496,44.2 -116.875,132.596c-42.375,88.391 -90.746,204.766 -145.167,349.137l-23.538,62.767c-4.166,10.458 -11.212,18.825 -21.166,25.096c-9.921,6.275 -20.129,9.416 -30.584,9.416c-12.587,0 -20.92,-1.05 -25.129,-3.141c-4.166,-2.092 -6.787,-8.363 -7.829,-18.821l-12.541,-128.671l-23.546,-225.962c-7.329,-89.955 -16.25,-168.413 -26.709,-235.367c-3.125,-15.688 -4.708,-27.717 -4.708,-36.083c0,-15.7 6.833,-28.517 20.417,-38.455c13.583,-9.933 29.291,-14.9 47.087,-14.9c10.454,0 18.042,25.109 22.746,75.317c4.708,50.213 9.667,131.283 14.921,243.217l6.25,83.162c8.371,105.663 13.079,172.604 14.121,200.854c3.166,-6.275 6.041,-13.341 8.629,-21.183c2.621,-7.846 6.037,-16.479 10.204,-25.896c56.5,-146.454 109.588,-268.579 159.292,-366.391c49.666,-97.809 97.541,-146.713 143.541,-146.713c32.459,0 54.671,27.458 66.709,82.383c12.041,54.913 19.625,125.259 22.75,211.042c3.125,95.2 4.708,234.325 4.708,417.392" style="fill:#626060;fill-rule:nonzero;"/><path d="M15563.1,19041.5c0,6.275 -10.708,25.633 -32.171,58.058c-21.412,32.43 -43.121,61.717 -65.079,87.871c-54.417,65.904 -103.337,116.638 -146.754,152.209c-43.375,35.562 -88.621,53.35 -135.708,53.35c-39.746,-0 -72.459,-17.259 -98.08,-51.78c-25.625,-34.52 -38.421,-74.275 -38.421,-119.254c0.001,-66.954 17.751,-151.687 53.338,-254.2c35.579,-102.516 80.538,-191.441 134.958,-266.758c54.375,-75.317 108.792,-112.979 163.167,-112.979c23.038,-0 42.917,8.375 59.625,25.112c9.413,9.409 18.333,21.967 26.667,37.659c8.375,15.687 12.579,29.808 12.579,42.362c-0,17.783 -2.375,38.446 -7.083,61.979c-4.709,23.538 -9.663,35.313 -14.871,35.313c-10.505,-0 -17.292,-5.754 -20.417,-17.267c-3.125,-11.508 -5.25,-26.15 -6.292,-43.929c-3.125,-27.2 -6.25,-45.25 -9.416,-54.138c-3.125,-8.891 -7.838,-13.337 -14.13,-13.337c-49.162,-0 -96.745,34.254 -142.787,102.775c-46,68.517 -83.667,148.025 -112.963,238.508c-29.291,90.488 -43.916,160.313 -43.916,209.484c-0,69.041 23.004,103.562 69.046,103.562c33.454,0 64.041,-8.371 91.787,-25.104c27.708,-16.742 56.754,-40.275 87.083,-70.613c56.459,-57.537 100.417,-107.229 131.792,-149.066c2.083,-3.142 8.129,-11.246 18.042,-24.325c9.958,-13.075 17,-19.613 21.208,-19.613c12.546,0 18.796,4.704 18.796,14.121" style="fill:#626060;fill-rule:nonzero;"/><path d="M16200.2,18986.6c7.338,0 11,7.846 11,23.534c0,18.833 -13.87,60.15 -41.583,123.958c-27.75,63.813 -69.583,122.917 -125.542,177.321c-55.954,54.396 -124.75,81.592 -206.329,81.592c-66.962,-0 -122.916,-20.921 -167.921,-62.767c-44.958,-41.846 -67.454,-106.179 -67.454,-193.004c0,-81.6 18.829,-162.409 56.496,-242.429c37.625,-80.03 86.792,-145.413 147.5,-196.142c60.667,-50.733 123.421,-76.108 188.292,-76.108c38.708,-0 71.375,8.633 98.041,25.895c26.709,17.259 40.046,42.096 40.046,74.525c0,36.617 -20.666,72.188 -62,106.709c-41.291,34.521 -94.921,64.85 -160.837,91.008c-65.913,26.154 -133.875,44.988 -204,56.483c-12.542,48.13 -18.792,95.2 -18.792,141.23c0,60.666 14.379,107.745 43.125,141.216c28.792,33.484 69.833,50.221 123.171,50.221c80.579,0 145.954,-28.767 196.167,-86.313c50.204,-57.524 92.037,-122.387 125.537,-194.562c2.083,-4.183 5.75,-12.296 10.958,-24.325c5.25,-12.037 9.959,-18.042 14.125,-18.042m-138.083,-246.354c0,-16.741 -8.625,-29.816 -25.875,-39.233c-17.292,-9.417 -37.417,-14.121 -60.417,-14.121c-39.75,0 -77.958,13.079 -114.541,39.225c-36.625,26.158 -67.209,57.538 -91.792,94.15c-24.583,36.612 -40.542,69.042 -47.875,97.292c48.125,-5.234 98.875,-18.834 152.208,-40.804c53.334,-21.967 98.084,-46.021 134.167,-72.18c36.083,-26.154 54.125,-47.595 54.125,-64.329" style="fill:#626060;fill-rule:nonzero;"/><path d="M6047.88,20254.3l83.392,281.062c16.471,57.65 30.887,107.063 42.212,154.429l2.059,0c12.354,-45.304 29.854,-97.804 49.416,-154.429l98.833,-281.062l46.33,-0l94.712,277.97c20.596,60.742 36.038,111.188 48.392,157.521l2.058,0c10.292,-46.333 25.738,-95.746 45.3,-155.462l87.508,-280.029l50.446,-0l-164.725,494.175l-42.208,-0l-93.688,-275.913c-20.591,-59.717 -38.091,-112.225 -51.479,-167.817l-2.058,0c-14.413,57.65 -32.942,112.217 -53.529,169.875l-97.809,273.855l-43.241,-0l-152.367,-494.175l50.446,-0Z" style="fill:#626060;fill-rule:nonzero;"/><path d="M6799.38,20254.3l83.396,281.062c16.471,57.65 30.883,107.063 42.208,154.429l2.059,0c12.354,-45.304 29.858,-97.804 49.416,-154.429l98.838,-281.062l46.325,-0l94.716,277.97c20.592,60.742 36.038,111.188 48.388,157.521l2.058,0c10.296,-46.333 25.742,-95.746 45.3,-155.462l87.508,-280.029l50.446,-0l-164.72,494.175l-42.213,-0l-93.683,-275.913c-20.596,-59.717 -38.096,-112.225 -51.479,-167.817l-2.059,0c-14.412,57.65 -32.946,112.217 -53.533,169.875l-97.804,273.855l-43.242,-0l-152.367,-494.175l50.442,-0Z" style="fill:#626060;fill-rule:nonzero;"/><path d="M7550.92,20254.3l83.396,281.062c16.47,57.65 30.883,107.063 42.208,154.429l2.058,0c12.354,-45.304 29.859,-97.804 49.417,-154.429l98.837,-281.062l46.325,-0l94.717,277.97c20.592,60.742 36.033,111.188 48.388,157.521l2.058,0c10.296,-46.333 25.737,-95.746 45.3,-155.462l87.508,-280.029l50.446,-0l-164.721,494.175l-42.212,-0l-93.684,-275.913c-20.595,-59.717 -38.096,-112.225 -51.479,-167.817l-2.058,0c-14.413,57.65 -32.946,112.217 -53.533,169.875l-97.805,273.855l-43.241,-0l-152.367,-494.175l50.442,-0Z" style="fill:#626060;fill-rule:nonzero;"/><path d="M8280.79,20759.8c-23.679,-0 -41.179,-21.617 -40.15,-46.329c-0,-26.767 17.5,-46.321 42.208,-46.321c24.713,-0 41.183,19.554 41.183,46.321c0,24.712 -16.47,46.329 -42.212,46.329l-1.029,-0Z" style="fill:#626060;fill-rule:nonzero;"/><path d="M8447.58,20372.7c0,-45.296 -1.029,-79.271 -4.12,-118.392l46.329,0l3.087,86.483l2.059,0c31.916,-56.625 79.275,-97.812 160.608,-97.812c67.95,-0 120.454,45.304 142.075,107.071l2.058,-0c13.383,-28.825 31.913,-51.471 50.446,-66.917c31.917,-25.733 64.862,-40.154 117.362,-40.154c48.392,-0 161.638,26.775 161.638,214.146l0,291.358l-49.417,0l0,-287.242c0,-111.191 -43.241,-177.075 -128.691,-177.075c-61.771,0 -110.159,46.33 -129.721,97.805c-4.117,14.412 -8.234,30.883 -8.234,49.412l0.001,317.1l-49.421,0l-0,-309.892c-0,-88.541 -42.204,-154.425 -122.513,-154.425c-65.887,0 -118.391,53.534 -136.925,111.192c-4.117,14.408 -7.208,30.883 -7.208,48.379l-0,304.746l-49.413,0l0,-375.783Z" style="fill:#626060;fill-rule:nonzero;"/><path d="M9671.67,20628c-0,43.246 1.029,82.367 4.116,120.458l-46.329,0l-3.087,-88.541l-2.059,-0c-24.708,46.329 -81.333,99.862 -168.841,99.862c-62.8,0 -168.842,-31.908 -168.842,-218.254l-0,-287.237l49.417,-0l-0,277.966c-0,107.075 32.941,184.288 130.75,184.288c72.066,-0 124.575,-50.446 146.191,-99.863c5.146,-15.446 9.267,-35.008 9.267,-54.566l0,-307.825l49.417,-0l-0,373.712Z" style="fill:#626060;fill-rule:nonzero;"/><rect x="9837.38" y="20016.5" width="49.413" height="731.992" style="fill:#626060;"/><path d="M10123.6,20145.2l0,109.129l141.046,-0l0,40.154l-141.046,0l0,321.208c0,62.8 19.559,101.929 72.067,101.929c25.742,0 44.271,-3.091 56.625,-7.212l6.175,37.063c-16.471,6.175 -39.121,11.329 -68.979,11.329c-36.029,-0 -65.888,-11.329 -84.417,-33.979c-22.654,-25.738 -30.887,-67.942 -30.887,-118.392l-0,-311.946l-83.392,0l-0,-40.154l83.392,-0l-0,-90.6l49.416,-18.529Z" style="fill:#626060;fill-rule:nonzero;"/><path d="M10373.8,20254.3l49.413,-0l-0.001,494.175l-49.412,-0l0,-494.175Zm22.65,-98.838c-22.65,0 -38.096,-19.554 -38.096,-42.212c0,-22.646 17.504,-43.234 40.154,-43.234c22.65,0 39.121,19.563 39.121,43.234c0,22.658 -15.441,42.212 -40.15,42.212l-1.029,0Z" style="fill:#626060;fill-rule:nonzero;"/><path d="M10588.9,20254.3l49.417,-0l-0,494.175l-49.417,-0l0,-494.175Zm22.65,-98.838c-22.65,0 -38.092,-19.554 -38.092,-42.212c0,-22.646 17.5,-43.234 40.15,-43.234c22.65,0 39.121,19.563 39.121,43.234c0,22.658 -15.441,42.212 -40.15,42.212l-1.029,0Z" style="fill:#626060;fill-rule:nonzero;"/><path d="M10804,20372.7c-0,-45.296 -1.029,-79.271 -4.117,-118.392l46.329,0l3.088,88.542l2.058,-0c26.767,-55.6 89.567,-99.871 169.875,-99.871c47.354,-0 172.958,23.683 172.958,209l0,296.504l-49.42,-0l-0,-292.383c-0,-90.605 -35,-171.934 -136.925,-171.934c-68.98,0 -128.692,49.413 -148.25,114.275c-3.088,11.325 -6.18,27.8 -6.18,43.238l0,306.804l-49.416,0l-0,-375.783Z" style="fill:#626060;fill-rule:nonzero;"/><path d="M11423.8,20145.2l0,109.129l141.046,-0l0,40.154l-141.046,0l0,321.208c0,62.8 19.563,101.929 72.067,101.929c25.742,0 44.271,-3.091 56.625,-7.212l6.175,37.063c-16.471,6.175 -39.121,11.329 -68.979,11.329c-36.029,-0 -65.888,-11.329 -84.417,-33.979c-22.65,-25.738 -30.883,-67.942 -30.883,-118.392l-0,-311.946l-83.396,0l0,-40.154l83.396,-0l-0,-90.6l49.412,-18.529Z" style="fill:#626060;fill-rule:nonzero;"/><path d="M11990,20457.1c1.029,-68.979 -27.796,-172.958 -147.221,-172.958c-109.129,0 -155.458,96.771 -164.725,172.958l311.946,0Zm-315.034,39.121c0,157.517 86.48,220.321 188.4,220.321c72.067,0 109.134,-14.412 136.93,-27.8l12.358,38.092c-18.538,10.296 -68.984,31.916 -155.463,31.916c-142.075,0 -230.612,-102.95 -230.612,-248.116c-0,-164.725 94.716,-267.679 222.375,-267.679c161.633,-0 192.521,152.379 192.521,223.416c-0,13.379 -0,20.588 -2.059,29.85l-364.45,0Z" style="fill:#626060;fill-rule:nonzero;"/><path d="M12512,20444.8c0,-18.529 -1.033,-33.975 -6.179,-48.388c-20.592,-58.683 -72.067,-112.216 -153.4,-112.216c-105.013,-0 -177.079,85.45 -177.079,216.196c-0,111.187 58.683,206.933 175.021,206.933c65.891,-0 127.662,-41.179 153.395,-111.183c5.15,-16.48 8.242,-35.009 8.242,-52.505l0,-98.837Zm49.412,231.642c0,126.633 -26.762,189.437 -67.945,228.554c-45.296,43.237 -112.217,58.683 -167.813,58.683c-56.625,0 -119.425,-14.412 -157.517,-43.237l17.505,-39.125c35,22.645 83.387,41.183 147.22,41.183c103.98,-0 179.138,-53.538 179.138,-199.729l0,-70.004l-2.063,-0c-25.737,50.441 -83.391,95.745 -171.929,95.745c-124.57,0 -212.079,-108.108 -212.079,-242.97c0,-171.934 113.242,-262.534 222.375,-262.534c97.804,0 146.192,53.542 166.783,94.721l2.059,0l3.092,-83.392l45.295,0c-3.091,37.063 -4.12,76.188 -4.12,127.663l-0,294.442Z" style="fill:#626060;fill-rule:nonzero;"/><path d="M12717.9,20402.5c0,-49.413 -1.029,-99.863 -4.117,-148.25l45.3,-0l2.059,99.862l3.087,0c21.621,-62.804 73.096,-111.192 140.017,-111.192c7.204,0 14.412,1.034 20.587,2.059l0,46.329c-7.204,-1.025 -14.412,-1.025 -23.679,-1.025c-67.946,-0 -116.333,58.683 -129.716,137.958c-3.092,14.413 -4.121,30.884 -4.121,47.354l-0,272.825l-49.417,0l0,-345.92Z" style="fill:#626060;fill-rule:nonzero;"/><path d="M13281,20483.9c-108.096,-3.083 -250.175,13.388 -250.175,131.779c0,71.038 47.358,102.954 98.838,102.954c82.358,0 129.72,-50.445 146.191,-98.837c4.117,-10.292 5.146,-21.613 5.146,-29.85l0,-106.046Zm49.417,147.225c-0,39.121 1.029,79.271 7.208,117.367l-45.3,-0l-7.208,-71.038l-2.059,0c-24.708,38.096 -79.271,82.358 -158.546,82.358c-99.862,0 -145.162,-70.004 -145.162,-135.895c0,-114.275 99.863,-183.254 301.65,-181.196l0,-13.388c0,-48.387 -9.267,-146.191 -126.633,-145.158c-43.238,0 -88.538,11.321 -124.571,37.063l-15.442,-36.038c45.3,-29.85 100.896,-42.208 145.163,-42.208c143.104,-0 170.9,107.071 170.9,194.579l-0,193.554Z" style="fill:#626060;fill-rule:nonzero;"/><path d="M13502.3,20759.8c-23.679,-0 -41.179,-21.617 -40.15,-46.329c0,-26.767 17.5,-46.321 42.209,-46.321c24.712,-0 41.183,19.554 41.183,46.321c-0,24.712 -16.471,46.329 -42.213,46.329l-1.029,-0Z" style="fill:#626060;fill-rule:nonzero;"/><path d="M14009.9,20726.8c-21.617,10.296 -73.096,31.917 -145.162,31.917c-142.075,0 -236.788,-103.979 -236.788,-252.238c0,-157.512 107.067,-263.558 254.292,-263.558c60.737,0 111.187,17.504 129.716,30.892l-17.5,40.146c-23.679,-14.413 -61.77,-28.825 -116.337,-28.825c-132.808,-0 -200.758,100.896 -200.758,217.229c-0,129.721 81.337,214.142 195.612,214.142c58.683,-0 96.775,-16.471 123.542,-28.825l13.383,39.12Z" style="fill:#626060;fill-rule:nonzero;"/><path d="M14316.7,20718.6c102.954,0 184.287,-92.658 184.287,-219.287c0,-90.6 -50.45,-215.171 -181.2,-215.171c-126.629,-0 -183.254,112.216 -183.254,218.254c0,123.546 78.246,216.204 179.138,216.204l1.029,0Zm-3.088,41.179c-127.662,0 -226.496,-99.862 -226.496,-254.287c0,-168.842 111.188,-262.534 233.7,-262.534c136.93,0 229.588,102.954 229.588,254.296c-0,183.25 -126.633,262.525 -235.763,262.525l-1.029,0Z" style="fill:#626060;fill-rule:nonzero;"/><path d="M14669.8,20759.8c-23.679,-0 -41.179,-21.617 -40.15,-46.329c-0,-26.767 17.5,-46.321 42.208,-46.321c24.713,-0 41.183,19.554 41.183,46.321c0,24.712 -16.47,46.329 -42.212,46.329l-1.029,-0Z" style="fill:#626060;fill-rule:nonzero;"/><path d="M14836.5,20254.3l49.416,-0l0,494.175l-49.416,-0l-0,-494.175Zm22.654,-98.838c-22.654,0 -38.096,-19.554 -38.096,-42.212c0,-22.646 17.504,-43.234 40.154,-43.234c22.65,0 39.121,19.563 39.121,43.234c0,22.658 -15.442,42.212 -40.15,42.212l-1.029,0Z" style="fill:#626060;fill-rule:nonzero;"/><path d="M15396.6,20449.9c-0.004,-13.379 -1.037,-30.883 -5.15,-45.296c-16.475,-65.887 -75.158,-120.45 -155.462,-120.45c-108.096,0 -176.046,93.684 -176.046,221.346c-0,111.188 55.595,213.108 172.962,213.108c71.038,0 137.954,-47.354 158.546,-128.687c4.117,-12.359 5.15,-25.738 5.15,-41.184l0,-98.837Zm49.413,-433.421l-0.001,617.709c0.001,36.033 1.03,79.27 4.121,114.279l-44.266,-0l-4.121,-93.684l-2.058,0c-25.742,54.559 -84.425,105.005 -176.05,105.005c-122.513,-0 -213.109,-101.921 -213.109,-249.146c-1.029,-164.721 100.892,-267.675 222.375,-267.675c85.45,-0 140.013,44.271 161.633,87.516l2.063,0l0,-314.004l49.412,0Z" style="fill:#626060;fill-rule:nonzero;"/><g><g><g><path d="M9144.84,16818.6l148.846,0c33.828,0 59.2,2.819 77.242,7.893c23.68,6.766 43.977,19.17 60.891,37.212c16.915,17.478 29.318,39.467 38.339,65.402c9.021,25.371 12.968,57.509 12.968,95.284c-0,33.265 -3.947,62.019 -12.404,85.699c-10.148,29.318 -24.244,53.562 -42.849,71.604c-14.096,13.532 -33.265,24.244 -57.509,32.137c-18.042,5.638 -41.722,8.457 -72.168,8.457l-153.356,0l-0,-403.688Zm81.752,68.221l0,267.246l60.892,0c22.552,0 38.903,-1.127 49.051,-3.382c13.532,-3.383 24.244,-9.021 32.701,-16.915c9.021,-7.893 16.351,-20.861 21.425,-38.903c5.638,-18.042 8.457,-42.849 8.457,-73.859c0,-31.573 -2.819,-55.253 -8.457,-72.168c-5.074,-16.35 -12.968,-29.882 -23.116,-38.903c-9.585,-9.584 -22.553,-15.786 -37.776,-19.169c-11.276,-2.255 -33.264,-3.947 -66.529,-3.947l-36.648,0Z" style="fill:#fafafa;fill-rule:nonzero;"/></g><g><path d="M9800.59,17222.3l-0,-43.977c-10.713,15.787 -24.808,28.191 -41.722,37.212c-17.478,9.021 -36.084,13.531 -55.254,13.531c-19.733,0 -37.211,-4.51 -52.998,-12.967c-15.223,-9.021 -26.499,-20.861 -33.829,-36.648c-6.765,-15.223 -10.148,-37.212 -10.148,-64.275l-0,-185.493l77.242,-0l-0,134.75c-0,41.159 1.691,65.966 4.51,75.551c2.819,9.021 7.894,16.351 15.223,21.989c7.894,5.074 16.915,7.893 28.755,7.893c12.967,0 24.807,-3.383 35.52,-10.712c10.712,-7.33 17.478,-16.351 21.424,-27.063c3.947,-10.713 5.639,-37.212 5.639,-78.934l-0,-123.474l77.805,-0l0,292.617l-72.167,0Z" style="fill:#fafafa;fill-rule:nonzero;"/></g><g><path d="M10066.6,17019.3l-69.912,-12.968c7.893,-28.191 21.424,-49.051 40.594,-62.583c19.17,-13.531 47.924,-20.297 85.699,-20.297c34.956,-0 60.328,3.947 77.242,11.84c16.915,8.457 28.755,18.606 35.52,31.573c7.33,12.404 10.713,35.52 10.713,68.785l-1.128,90.774c0,25.371 1.128,44.541 3.947,56.381c2.255,12.404 6.765,25.371 13.531,39.466l-76.114,0c-2.255,-5.074 -4.511,-12.967 -7.33,-23.116c-1.691,-4.51 -2.255,-7.329 -2.819,-9.021c-13.531,12.968 -27.627,22.553 -42.849,29.318c-14.659,6.202 -31.01,9.585 -47.924,9.585c-29.882,0 -53.562,-8.457 -71.04,-24.808c-17.479,-16.35 -25.936,-36.647 -25.936,-62.019c0,-16.35 3.947,-31.009 11.84,-43.977c7.894,-12.968 18.606,-22.552 32.701,-29.882c14.659,-6.766 34.957,-12.967 62.019,-18.042c36.084,-6.765 60.892,-12.967 74.987,-18.606l0,-7.893c0,-14.659 -3.946,-25.371 -11.276,-31.573c-7.329,-6.766 -20.861,-9.585 -41.158,-9.585c-14.095,-0 -24.808,2.819 -32.137,7.893c-7.894,5.638 -14.096,15.223 -19.17,28.755Zm103.741,62.583c-10.148,3.382 -25.371,7.329 -47.36,11.84c-21.425,4.51 -35.52,9.021 -41.722,13.531c-10.148,7.33 -15.223,16.351 -15.223,27.063c0,10.712 3.947,20.297 11.84,28.191c8.458,7.893 18.606,11.84 31.01,11.84c14.095,-0 27.063,-4.511 40.03,-13.532c9.021,-7.329 15.223,-15.787 18.606,-25.935c1.692,-6.766 2.819,-19.17 2.819,-37.775l0,-15.223Z" style="fill:#fafafa;fill-rule:nonzero;"/></g><g><path d="M10665.4,17222.3l-107.124,-403.688l54.689,0l61.456,264.427c6.765,28.191 12.403,55.254 17.478,82.88c10.148,-43.413 16.35,-68.221 18.042,-74.423l76.678,-272.884l64.274,0l58.073,204.1c14.659,50.742 24.807,98.666 31.009,143.207c5.638,-25.371 11.84,-54.689 20.298,-87.954l63.146,-259.353l54.126,0l-111.071,403.688l-51.306,0l-85.136,-307.276c-7.329,-25.936 -11.276,-41.722 -12.404,-47.36c-4.51,18.042 -8.457,33.828 -11.84,47.36l-85.699,307.276l-54.689,0Z" style="fill:#fafafa;fill-rule:nonzero;"/></g><g><path d="M11177.1,16875.6l-0,-56.945l49.615,0l0,56.945l-49.615,-0Zm-0,346.743l-0,-292.617l49.615,-0l0,292.617l-49.615,0Z" style="fill:#fafafa;fill-rule:nonzero;"/></g><g><path d="M11358.7,17222.3l0,-292.617l44.541,-0l0,41.722c21.425,-32.137 52.435,-47.924 93.029,-47.924c17.478,-0 33.829,2.819 48.488,9.585c14.659,6.202 25.935,14.659 33.264,24.807c7.33,10.149 12.404,22.553 15.223,36.648c2.256,9.021 2.819,24.808 2.819,47.924l0,179.855l-49.615,0l0,-177.6c0,-20.297 -1.691,-35.52 -5.638,-45.669c-3.947,-9.584 -10.712,-18.041 -20.297,-23.68c-10.149,-6.201 -21.425,-9.021 -34.393,-9.021c-21.424,0 -39.466,6.766 -54.689,20.298c-15.787,12.967 -23.116,38.339 -23.116,76.114l-0,159.558l-49.616,0Z" style="fill:#fafafa;fill-rule:nonzero;"/></g><g><path d="M11918.2,17222.3l0,-36.647c-18.606,28.754 -45.669,43.413 -81.752,43.413c-23.117,0 -44.541,-6.766 -64.275,-19.169c-19.169,-12.968 -34.392,-31.01 -45.105,-54.126c-10.712,-23.116 -16.35,-49.616 -16.35,-79.497c-0,-29.319 5.074,-55.818 14.659,-79.498c9.585,-23.68 24.244,-41.722 43.977,-54.689c19.17,-12.404 41.158,-18.606 64.838,-18.606c18.042,-0 33.265,3.383 47.36,11.276c13.532,7.33 24.808,16.914 33.265,28.754l0,-144.899l49.616,0l-0,403.688l-46.233,0Zm-156.175,-146.026c-0,37.775 7.893,65.402 23.68,84.007c15.223,18.606 34.392,27.627 55.817,27.627c21.425,-0 40.03,-8.457 55.253,-26.499c14.659,-17.478 22.553,-44.541 22.553,-80.625c-0,-40.031 -7.894,-69.912 -23.116,-88.518c-15.787,-18.606 -34.393,-28.191 -56.945,-28.191c-21.989,0 -40.595,9.021 -55.254,27.063c-14.659,18.042 -21.988,46.796 -21.988,85.136Z" style="fill:#fafafa;fill-rule:nonzero;"/></g><g><path d="M12290.4,17222.3l-0,-42.849c-23.116,32.701 -53.562,49.615 -93.029,49.615c-16.914,0 -33.265,-3.383 -47.924,-10.148c-15.223,-6.766 -26.499,-14.66 -33.828,-24.808c-6.766,-10.149 -11.84,-22.553 -15.223,-36.648c-1.692,-9.585 -2.819,-25.371 -2.819,-46.232l-0,-181.547l49.615,-0l0,162.377c0,25.935 1.128,43.414 2.819,52.435c3.383,12.967 9.585,23.116 19.734,30.445c10.148,7.33 22.552,11.277 37.775,11.277c14.659,-0 28.754,-3.947 41.722,-11.277c12.967,-7.893 21.988,-18.042 27.627,-31.009c5.638,-13.532 7.893,-32.137 7.893,-57.509l-0,-156.739l49.615,-0l0,292.617l-43.977,0Z" style="fill:#fafafa;fill-rule:nonzero;"/></g></g><path d="M9655.54,13905.1l-0,47.625l-266.763,0c-0.367,-11.929 1.559,-23.4 5.779,-34.412c6.792,-18.171 17.667,-36.063 32.625,-53.684c14.959,-17.62 36.567,-37.991 64.834,-61.116c43.862,-35.971 73.504,-64.467 88.921,-85.479c15.416,-21.013 23.124,-40.884 23.124,-59.6c0.001,-19.642 -7.02,-36.205 -21.062,-49.692c-14.038,-13.492 -32.346,-20.238 -54.921,-20.238c-23.858,0 -42.946,7.159 -57.262,21.475c-14.313,14.317 -21.563,34.138 -21.746,59.463l-50.933,-5.229c3.487,-37.992 16.612,-66.942 39.37,-86.859c22.754,-19.912 53.313,-29.866 91.671,-29.866c38.725,-0 69.375,10.733 91.95,32.208c22.575,21.475 33.863,48.088 33.863,79.838c-0,16.15 -3.304,32.025 -9.909,47.625c-6.608,15.6 -17.575,32.025 -32.9,49.279c-15.325,17.25 -40.791,40.929 -76.396,71.025c-29.733,24.962 -48.82,41.891 -57.262,50.796c-8.442,8.9 -15.417,17.845 -20.921,26.841l197.938,0Z" style="fill:#fafafa;fill-rule:nonzero;"/><path d="M9686.12,13753.7c0,-47.717 4.913,-86.121 14.729,-115.213c9.821,-29.087 24.413,-51.525 43.775,-67.308c19.363,-15.783 43.725,-23.675 73.092,-23.675c21.654,-0 40.65,4.358 56.983,13.075c16.338,8.717 29.825,21.292 40.471,37.717c10.646,16.425 18.996,36.429 25.05,60.012c6.058,23.588 9.088,55.383 9.088,95.392c-0,47.354 -4.863,85.57 -14.592,114.662c-9.729,29.092 -24.271,51.571 -43.633,67.45c-19.363,15.875 -43.821,23.813 -73.367,23.813c-38.908,-0 -69.467,-13.95 -91.675,-41.846c-26.613,-33.588 -39.921,-88.279 -39.921,-164.079Zm50.933,-0c0,66.254 7.755,110.35 23.263,132.283c15.508,21.929 34.642,32.896 57.4,32.896c22.758,-0 41.892,-11.013 57.4,-33.034c15.508,-22.025 23.262,-66.075 23.262,-132.145c0,-66.438 -7.754,-110.575 -23.262,-132.417c-15.508,-21.842 -34.829,-32.763 -57.954,-32.763c-22.754,0 -40.925,9.638 -54.509,28.909c-17.066,24.591 -25.6,70.016 -25.6,136.271Z" style="fill:#fafafa;fill-rule:nonzero;"/><path d="M9977.17,13753.7c-0,-47.717 4.912,-86.121 14.729,-115.213c9.821,-29.087 24.408,-51.525 43.775,-67.308c19.362,-15.783 43.725,-23.675 73.087,-23.675c21.659,-0 40.655,4.358 56.988,13.075c16.337,8.717 29.825,21.292 40.471,37.717c10.646,16.425 18.996,36.429 25.05,60.012c6.058,23.588 9.087,55.383 9.087,95.392c0,47.354 -4.866,85.57 -14.591,114.662c-9.73,29.092 -24.271,51.571 -43.634,67.45c-19.362,15.875 -43.821,23.813 -73.371,23.813c-38.908,-0 -69.466,-13.95 -91.67,-41.846c-26.613,-33.588 -39.921,-88.279 -39.921,-164.079Zm50.933,-0c0,66.254 7.754,110.35 23.263,132.283c15.508,21.929 34.641,32.896 57.395,32.896c22.759,-0 41.892,-11.013 57.4,-33.034c15.509,-22.025 23.263,-66.075 23.263,-132.145c-0,-66.438 -7.754,-110.575 -23.263,-132.417c-15.508,-21.842 -34.825,-32.763 -57.95,-32.763c-22.758,0 -40.925,9.638 -54.508,28.909c-17.067,24.591 -25.6,70.016 -25.6,136.271Z" style="fill:#fafafa;fill-rule:nonzero;"/><path d="M10268.2,13847l52.033,-4.404c3.854,25.329 12.8,44.371 26.842,57.125c14.037,12.754 30.971,19.133 50.791,19.133c23.859,0 44.046,-8.991 60.567,-26.979c16.517,-17.987 24.775,-41.846 24.775,-71.575c0,-28.267 -7.937,-50.567 -23.812,-66.9c-15.875,-16.333 -36.663,-24.5 -62.355,-24.5c-15.966,0 -30.375,3.625 -43.225,10.875c-12.845,7.25 -22.941,16.654 -30.279,28.217l-46.529,-6.059l39.096,-207.295l200.692,-0l-0,47.35l-161.05,-0l-21.75,108.466c24.229,-16.883 49.645,-25.329 76.258,-25.329c35.237,0 64.971,12.208 89.196,36.617c24.229,24.408 36.341,55.791 36.341,94.15c0,36.525 -10.645,68.091 -31.937,94.704c-25.875,32.667 -61.208,49.004 -105.988,49.004c-36.708,0 -66.666,-10.279 -89.883,-30.833c-23.221,-20.559 -36.479,-47.813 -39.783,-81.767Z" style="fill:#fafafa;fill-rule:nonzero;"/><rect x="10687.8" y="13781.8" width="152.242" height="49.829" style="fill:#fafafa;"/><path d="M11253,13905.1l0,47.625l-266.763,0c-0.366,-11.929 1.559,-23.4 5.78,-34.412c6.791,-18.171 17.666,-36.063 32.625,-53.684c14.958,-17.62 36.566,-37.991 64.833,-61.116c43.862,-35.971 73.504,-64.467 88.921,-85.479c15.416,-21.013 23.125,-40.884 23.125,-59.6c-0,-19.642 -7.021,-36.205 -21.063,-49.692c-14.037,-13.492 -32.345,-20.238 -54.921,-20.238c-23.858,0 -42.945,7.159 -57.262,21.475c-14.317,14.317 -21.563,34.138 -21.75,59.463l-50.929,-5.229c3.487,-37.992 16.612,-66.942 39.367,-86.859c22.758,-19.912 53.316,-29.866 91.675,-29.866c38.725,-0 69.375,10.733 91.95,32.208c22.575,21.475 33.862,48.088 33.862,79.838c0,16.15 -3.304,32.025 -9.912,47.625c-6.605,15.6 -17.571,32.025 -32.896,49.279c-15.325,17.25 -40.792,40.929 -76.396,71.025c-29.733,24.962 -48.821,41.891 -57.263,50.796c-8.441,8.9 -15.416,17.845 -20.92,26.841l197.937,0Z" style="fill:#fafafa;fill-rule:nonzero;"/><path d="M11283.6,13753.7c0,-47.717 4.913,-86.121 14.729,-115.213c9.821,-29.087 24.409,-51.525 43.775,-67.308c19.363,-15.783 43.726,-23.675 73.092,-23.675c21.654,-0 40.65,4.358 56.983,13.075c16.338,8.717 29.825,21.292 40.471,37.717c10.646,16.425 18.996,36.429 25.05,60.012c6.059,23.588 9.088,55.383 9.088,95.392c-0,47.354 -4.867,85.57 -14.592,114.662c-9.729,29.092 -24.271,51.571 -43.633,67.45c-19.363,15.875 -43.821,23.813 -73.367,23.813c-38.912,-0 -69.471,-13.95 -91.675,-41.846c-26.612,-33.588 -39.921,-88.279 -39.921,-164.079Zm50.934,-0c-0,66.254 7.754,110.35 23.262,132.283c15.509,21.929 34.642,32.896 57.4,32.896c22.754,-0 41.888,-11.013 57.396,-33.034c15.508,-22.025 23.263,-66.075 23.263,-132.145c-0,-66.438 -7.755,-110.575 -23.263,-132.417c-15.508,-21.842 -34.825,-32.763 -57.95,-32.763c-22.758,0 -40.925,9.638 -54.508,28.909c-17.067,24.591 -25.6,70.016 -25.6,136.271Z" style="fill:#fafafa;fill-rule:nonzero;"/><path d="M11835,13905.1l0,47.625l-266.762,0c-0.371,-11.929 1.558,-23.4 5.779,-34.412c6.791,-18.171 17.666,-36.063 32.625,-53.684c14.954,-17.62 36.566,-37.991 64.829,-61.116c43.867,-35.971 73.504,-64.467 88.921,-85.479c15.416,-21.013 23.125,-40.884 23.125,-59.6c-0,-19.642 -7.017,-36.205 -21.059,-49.692c-14.041,-13.492 -32.345,-20.238 -54.92,-20.238c-23.859,0 -42.946,7.159 -57.263,21.475c-14.317,14.317 -21.567,34.138 -21.75,59.463l-50.929,-5.229c3.487,-37.992 16.608,-66.942 39.367,-86.859c22.758,-19.912 53.316,-29.866 91.675,-29.866c38.725,-0 69.375,10.733 91.95,32.208c22.575,21.475 33.862,48.088 33.862,79.838c0,16.15 -3.304,32.025 -9.912,47.625c-6.609,15.6 -17.571,32.025 -32.896,49.279c-15.325,17.25 -40.792,40.929 -76.396,71.025c-29.733,24.962 -48.821,41.891 -57.263,50.796c-8.441,8.9 -15.416,17.845 -20.925,26.841l197.942,0Z" style="fill:#fafafa;fill-rule:nonzero;"/><path d="M12052.2,13952.7l-49.554,0l-0,-315.766c-11.929,11.379 -27.575,22.758 -46.942,34.137c-19.362,11.379 -36.75,19.913 -52.167,25.6l0,-47.9c27.713,-13.029 51.938,-28.812 72.68,-47.35c20.737,-18.537 35.421,-36.525 44.045,-53.958l31.938,-0l-0,405.237Z" style="fill:#fafafa;fill-rule:nonzero;"/><path d="M10137.7,14263.8l0,2213.58l-611.662,-0l-0,-1450.48c-98.975,75.22 -194.733,136.091 -287.275,182.612c-92.542,46.517 -208.592,91.054 -348.146,133.613l0,-495.863c205.867,-66.312 365.713,-145.987 479.533,-239.025c113.821,-93.037 202.9,-207.85 267.234,-344.433l500.316,-0Z" style="fill:#fafafa;fill-rule:nonzero;"/><path d="M12545.8,14790.8l-601.275,74.234c-15.837,-84.129 -42.313,-143.517 -79.429,-178.159c-37.113,-34.641 -82.892,-51.962 -137.325,-51.962c-97.988,-0 -174.196,49.487 -228.633,148.462c-39.592,71.263 -68.788,223.688 -87.592,457.267c72.25,-73.242 146.483,-127.429 222.692,-162.567c76.212,-35.137 164.3,-52.704 264.262,-52.704c193.992,0 358.046,69.284 492.154,207.846c134.113,138.567 201.167,314.246 201.167,527.046c-0,143.512 -33.896,274.654 -101.696,393.425c-67.796,118.771 -161.825,208.587 -282.079,269.458c-120.254,60.871 -270.942,91.304 -452.067,91.304c-217.746,0 -392.437,-37.116 -524.075,-111.345c-131.637,-74.234 -236.796,-192.755 -315.483,-355.567c-78.683,-162.817 -118.025,-378.333 -118.025,-646.554c-0,-392.934 82.642,-680.704 247.929,-863.313c165.292,-182.608 394.417,-273.912 687.383,-273.912c173.209,-0 310.038,20.041 410.5,60.125c100.459,40.087 183.846,98.729 250.159,175.929c66.312,77.2 116.791,174.196 151.433,290.987Zm-1113.47,969.463c0,117.779 29.692,210.075 89.079,276.879c59.384,66.808 132.129,100.213 218.238,100.213c79.179,-0 145.496,-30.188 198.942,-90.559c53.445,-60.375 80.17,-150.446 80.17,-270.204c0,-122.729 -27.716,-216.258 -83.141,-280.596c-55.425,-64.333 -124.213,-96.5 -206.363,-96.5c-84.129,0 -154.65,31.179 -211.558,93.534c-56.913,62.354 -85.367,151.429 -85.367,267.233Z" style="fill:#fafafa;fill-rule:nonzero;"/></g></g></svg>