<?xml version="1.0" encoding="UTF-8" standalone="no"?>
<!DOCTYPE svg PUBLIC "-//W3C//DTD SVG 1.1//EN" "http://www.w3.org/Graphics/SVG/1.1/DTD/svg11.dtd">
<svg width="100%" height="100%" viewBox="0 0 1920 1080" version="1.1" xmlns="http://www.w3.org/2000/svg" xmlns:xlink="http://www.w3.org/1999/xlink" xml:space="preserve" xmlns:serif="http://www.serif.com/" style="fill-rule:evenodd;clip-rule:evenodd;stroke-linejoin:round;stroke-miterlimit:2;">
    <g transform="matrix(1,0,0,1,-1970,0)">
        <rect id="Artboard2" x="1970" y="0" width="1920" height="1080" style="fill:none;"/>
        <g id="Artboard21" serif:id="Artboard2">
            <g transform="matrix(2.46469,0,0,2.46469,911.311,-2122.51)">
                <g transform="matrix(5.55556,0,0,-5.55556,0,2206.14)">
                    <path d="M91.547,197.656L91.547,207.48L92.754,207.48L92.754,201.878L95.609,204.773L97.168,204.773L94.449,202.132L97.445,197.656L95.957,197.656L93.605,201.296L92.754,200.48L92.754,197.656L91.547,197.656Z" style="fill:rgb(33,87,167);fill-rule:nonzero;"/>
                </g>
                <g transform="matrix(5.55556,0,0,-5.55556,0,2220.29)">
                    <path d="M110.84,200.203L110.84,207.32L111.926,207.32L111.926,206.242C112.203,206.745 112.457,207.078 112.695,207.238C112.926,207.398 113.188,207.48 113.469,207.48C113.875,207.48 114.285,207.351 114.707,207.093L114.293,205.972C113.996,206.148 113.703,206.234 113.406,206.234C113.145,206.234 112.906,206.156 112.699,205.995C112.488,205.835 112.336,205.617 112.25,205.335C112.113,204.906 112.047,204.437 112.047,203.929L112.047,200.203L110.84,200.203Z" style="fill:rgb(33,87,167);fill-rule:nonzero;"/>
                </g>
                <g transform="matrix(5.55556,0,0,-5.55556,0,2221.18)">
                    <path d="M128.789,204.606L132.762,204.606C132.707,205.203 132.555,205.653 132.305,205.953C131.922,206.418 131.422,206.649 130.809,206.649C130.258,206.649 129.793,206.465 129.414,206.094C129.035,205.723 128.828,205.227 128.789,204.606M132.746,202.656L133.992,202.504C133.793,201.774 133.434,201.211 132.902,200.809C132.367,200.406 131.691,200.203 130.863,200.203C129.824,200.203 129,200.524 128.391,201.164C127.781,201.809 127.473,202.707 127.473,203.864C127.473,205.059 127.781,205.989 128.398,206.649C129.016,207.309 129.812,207.641 130.797,207.641C131.746,207.641 132.527,207.317 133.129,206.668C133.734,206.02 134.031,205.11 134.031,203.934C134.031,203.864 134.031,203.758 134.027,203.614L128.723,203.614C128.766,202.832 128.984,202.235 129.383,201.821C129.781,201.403 130.277,201.196 130.871,201.196C131.312,201.196 131.691,201.313 132.004,201.543C132.316,201.778 132.562,202.149 132.746,202.656" style="fill:rgb(33,87,167);fill-rule:nonzero;"/>
                </g>
                <g transform="matrix(5.55556,0,0,-5.55556,0,2206.14)">
                    <path d="M184.477,204.773L185.684,204.773L185.684,197.656L184.477,197.656L184.477,204.773ZM184.477,207.48L185.684,207.48L185.684,206.093L184.477,206.093L184.477,207.48Z" style="fill:rgb(242,102,34);fill-rule:nonzero;"/>
                </g>
                <g transform="matrix(5.55556,0,0,-5.55556,0,2207.88)">
                    <path d="M171,199.051L171.172,197.984C170.832,197.914 170.531,197.879 170.262,197.879C169.824,197.879 169.484,197.945 169.246,198.082C169.004,198.222 168.832,198.406 168.734,198.629C168.637,198.855 168.586,199.332 168.586,200.054L168.586,204.148L167.703,204.148L167.703,205.086L168.586,205.086L168.586,206.847L169.789,207.57L169.789,205.086L171,205.086L171,204.148L169.789,204.148L169.789,199.984C169.789,199.644 169.805,199.422 169.852,199.324C169.891,199.226 169.961,199.148 170.059,199.09C170.156,199.031 170.289,199.004 170.469,199.004C170.605,199.004 170.781,199.019 171,199.051" style="fill:rgb(242,102,34);fill-rule:nonzero;"/>
                </g>
                <g transform="matrix(5.55556,0,0,-5.55556,0,2205.23)">
                    <path d="M200.215,197.492L200.215,203.671L199.148,203.671L199.148,204.609L200.215,204.609L200.215,205.367C200.215,205.843 200.254,206.199 200.34,206.429C200.457,206.742 200.66,206.995 200.953,207.191C201.246,207.386 201.656,207.48 202.184,207.48C202.523,207.48 202.898,207.441 203.309,207.363L203.129,206.308C202.879,206.355 202.641,206.374 202.418,206.374C202.051,206.374 201.793,206.3 201.641,206.14C201.488,205.984 201.41,205.695 201.41,205.265L201.41,204.609L202.801,204.609L202.801,203.671L201.41,203.671L201.41,197.492L200.215,197.492Z" style="fill:rgb(33,87,167);fill-rule:nonzero;"/>
                </g>
                <g transform="matrix(5.55556,0,0,-5.55556,0,2221.18)">
                    <path d="M152.652,203.938C152.211,203.758 151.559,203.606 150.68,203.481C150.184,203.41 149.836,203.328 149.629,203.239C149.426,203.149 149.266,203.02 149.152,202.848C149.043,202.676 148.988,202.485 148.988,202.274C148.988,201.953 149.109,201.688 149.352,201.473C149.594,201.254 149.953,201.149 150.422,201.149C150.883,201.149 151.297,201.25 151.66,201.453C152.02,201.656 152.285,201.934 152.457,202.285C152.586,202.559 152.652,202.961 152.652,203.492L152.652,203.938ZM152.75,201.242C152.305,200.864 151.875,200.594 151.461,200.438C151.047,200.285 150.605,200.203 150.133,200.203C149.352,200.203 148.75,200.395 148.328,200.778C147.91,201.16 147.699,201.645 147.699,202.242C147.699,202.59 147.777,202.906 147.938,203.196C148.098,203.485 148.305,203.715 148.559,203.887C148.816,204.063 149.105,204.196 149.426,204.285C149.664,204.348 150.023,204.406 150.5,204.465C151.473,204.582 152.188,204.719 152.652,204.879C152.656,205.047 152.656,205.149 152.656,205.196C152.656,205.688 152.543,206.032 152.316,206.235C152.008,206.504 151.551,206.641 150.941,206.641C150.375,206.641 149.957,206.543 149.688,206.344C149.418,206.145 149.215,205.793 149.086,205.289L147.906,205.449C148.012,205.953 148.191,206.364 148.438,206.672C148.684,206.985 149.039,207.223 149.5,207.387C149.965,207.559 150.504,207.641 151.117,207.641C151.723,207.641 152.219,207.567 152.598,207.426C152.977,207.285 153.254,207.102 153.434,206.887C153.613,206.668 153.738,206.395 153.809,206.067C153.848,205.86 153.871,205.489 153.871,204.953L153.871,203.348C153.871,202.227 153.895,201.516 153.945,201.219C154,200.922 154.102,200.637 154.25,200.364L152.992,200.364C152.867,200.614 152.785,200.906 152.75,201.242" style="fill:rgb(33,87,167);fill-rule:nonzero;"/>
                </g>
                <g transform="matrix(5.55556,0,0,-5.55556,0,2205.14)">
                    <rect x="102.531" y="196.027" width="1.262" height="12.902" style="fill:rgb(199,197,195);"/>
                </g>
                <g transform="matrix(5.55556,0,0,-5.55556,0,2205.14)">
                    <rect x="119.605" y="196.027" width="1.258" height="12.902" style="fill:rgb(199,197,195);"/>
                </g>
                <g transform="matrix(5.55556,0,0,-5.55556,0,2205.14)">
                    <rect x="140.387" y="196.027" width="1.262" height="12.902" style="fill:rgb(199,197,195);"/>
                </g>
                <g transform="matrix(5.55556,0,0,-5.55556,0,2205.14)">
                    <rect x="159.984" y="196.027" width="1.258" height="12.902" style="fill:rgb(199,197,195);"/>
                </g>
                <g transform="matrix(5.55556,0,0,-5.55556,0,2205.14)">
                    <rect x="176.496" y="196.027" width="1.262" height="12.902" style="fill:rgb(199,197,195);"/>
                </g>
                <g transform="matrix(5.55556,0,0,-5.55556,0,2205.14)">
                    <rect x="191.996" y="196.027" width="1.262" height="12.902" style="fill:rgb(199,197,195);"/>
                </g>
            </g>
        </g>
    </g>
</svg>
