<?xml version="1.0" encoding="UTF-8" standalone="no"?><!DOCTYPE svg PUBLIC "-//W3C//DTD SVG 1.1//EN" "http://www.w3.org/Graphics/SVG/1.1/DTD/svg11.dtd"><svg width="100%" height="100%" viewBox="0 0 1920 1080" version="1.1" xmlns="http://www.w3.org/2000/svg" xmlns:xlink="http://www.w3.org/1999/xlink" xml:space="preserve" xmlns:serif="http://www.serif.com/" style="fill-rule:evenodd;clip-rule:evenodd;stroke-linejoin:round;stroke-miterlimit:2;"><g><path d="M194.84,608.49l-0,-134.517l16.527,-0l-0,76.707l39.093,-39.641l21.346,0l-37.23,36.163l41.023,61.288l-20.374,0l-32.206,-49.841l-11.652,11.173l-0,38.668l-16.527,0Z" style="fill:#fff;fill-rule:nonzero;"/><path d="M459.014,608.49l-0,-97.451l14.87,0l-0,14.761c3.793,-6.888 7.271,-11.447 10.53,-13.638c3.163,-2.191 6.75,-3.314 10.598,-3.314c5.559,0 11.173,1.767 16.951,5.299l-5.668,15.35c-4.067,-2.41 -8.079,-3.588 -12.146,-3.588c-3.574,0 -6.846,1.068 -9.681,3.273c-2.889,2.191 -4.97,5.176 -6.148,9.037c-1.876,5.874 -2.779,12.296 -2.779,19.252l-0,51.019l-16.527,0Z" style="fill:#fff;fill-rule:nonzero;"/><path d="M704.784,550.395l54.402,-0c-0.753,-8.175 -2.835,-14.337 -6.258,-18.444c-5.244,-6.367 -12.091,-9.53 -20.484,-9.53c-7.545,-0 -13.912,2.519 -19.102,7.599c-5.189,5.08 -8.024,11.872 -8.558,20.375m54.183,26.701l17.061,2.081c-2.725,9.996 -7.641,17.705 -14.925,23.209c-7.326,5.518 -16.582,8.298 -27.92,8.298c-14.227,-0 -25.509,-4.395 -33.848,-13.159c-8.353,-8.832 -12.57,-21.128 -12.57,-36.97c-0,-16.363 4.217,-29.097 12.666,-38.134c8.462,-9.038 19.361,-13.584 32.848,-13.584c12.995,0 23.689,4.437 31.932,13.323c8.284,8.873 12.351,21.334 12.351,37.436c-0,0.959 -0,2.41 -0.055,4.382l-72.626,-0c0.588,10.708 3.573,18.882 9.037,24.551c5.45,5.724 12.241,8.558 20.375,8.558c6.038,-0 11.228,-1.602 15.514,-4.751c4.272,-3.218 7.64,-8.298 10.16,-15.24" style="fill:#fff;fill-rule:nonzero;"/><path d="M1467.31,511.039l16.527,0l0,97.451l-16.527,0l0,-97.451Zm0,-37.066l16.527,-0l0,18.992l-16.527,-0l0,-18.992Z" style="fill:#fff;fill-rule:nonzero;"/><path d="M1282.77,593.678l2.356,14.61c-4.656,0.958 -8.778,1.437 -12.461,1.437c-5.997,0 -10.653,-0.903 -13.912,-2.779c-3.313,-1.917 -5.668,-4.437 -7.01,-7.49c-1.329,-3.095 -2.027,-9.626 -2.027,-19.512l0,-56.058l-12.091,-0l0,-12.844l12.091,-0l0,-24.113l16.472,-9.9l0,34.013l16.582,-0l0,12.844l-16.582,-0l0,57.016c0,4.656 0.22,7.696 0.863,9.037c0.534,1.342 1.493,2.41 2.835,3.205c1.328,0.807 3.149,1.177 5.614,1.177c1.862,0 4.272,-0.205 7.27,-0.643" style="fill:#fff;fill-rule:nonzero;"/><path d="M1682.8,608.493l-0,-84.607l-14.611,-0l0,-12.844l14.611,-0l-0,-10.379c-0,-6.518 0.534,-11.393 1.711,-14.542c1.602,-4.286 4.382,-7.75 8.394,-10.434c4.012,-2.67 9.626,-3.957 16.856,-3.957c4.641,0 9.776,0.534 15.404,1.602l-2.465,14.446c-3.423,-0.644 -6.682,-0.904 -9.735,-0.904c-5.026,0 -8.558,1.013 -10.64,3.204c-2.095,2.136 -3.163,6.094 -3.163,11.981l0,8.983l19.047,-0l-0,12.844l-19.047,-0l0,84.607l-16.362,0Z" style="fill:#fff;fill-rule:nonzero;"/><path d="M1031.53,559.542c-6.038,2.464 -14.966,4.546 -27.002,6.257c-6.792,0.972 -11.557,2.095 -14.391,3.314c-2.78,1.232 -4.97,2.998 -6.531,5.354c-1.493,2.355 -2.246,4.97 -2.246,7.859c-0,4.396 1.657,8.024 4.984,10.968c3.314,2.999 8.229,4.437 14.651,4.437c6.313,-0 11.981,-1.383 16.952,-4.163c4.929,-2.78 8.558,-6.586 10.913,-11.392c1.766,-3.752 2.67,-9.257 2.67,-16.528l0,-6.106Zm1.342,36.915c-6.093,5.176 -11.981,8.873 -17.65,11.009c-5.669,2.095 -11.721,3.218 -18.184,3.218c-10.694,-0 -18.937,-2.629 -24.715,-7.873c-5.724,-5.231 -8.613,-11.872 -8.613,-20.047c-0,-4.765 1.068,-9.092 3.273,-13.062c2.19,-3.958 5.025,-7.107 8.503,-9.462c3.519,-2.41 7.476,-4.231 11.871,-5.45c3.259,-0.863 8.175,-1.657 14.706,-2.465c13.323,-1.602 23.114,-3.478 29.467,-5.668c0.055,-2.301 0.055,-3.697 0.055,-4.341c-0,-6.737 -1.547,-11.447 -4.656,-14.227c-4.217,-3.683 -10.475,-5.559 -18.827,-5.559c-7.75,0 -13.474,1.342 -17.157,4.067c-3.697,2.725 -6.477,7.544 -8.243,14.446l-16.158,-2.191c1.452,-6.901 3.903,-12.529 7.285,-16.746c3.368,-4.286 8.229,-7.545 14.542,-9.791c6.367,-2.355 13.747,-3.478 22.141,-3.478c8.298,0 15.089,1.014 20.279,2.944c5.189,1.931 8.982,4.437 11.447,7.381c2.451,2.998 4.162,6.736 5.135,11.228c0.534,2.834 0.849,7.914 0.849,15.253l-0,21.977c-0,15.35 0.328,25.085 1.013,29.152c0.753,4.067 2.15,7.969 4.176,11.707l-17.225,0c-1.712,-3.423 -2.835,-7.421 -3.314,-12.022" style="fill:#fff;fill-rule:nonzero;"/><rect x="345.241" y="451.667" width="17.28" height="176.664" style="fill:#fff;"/><rect x="579.03" y="451.667" width="17.225" height="176.664" style="fill:#fff;"/><rect x="863.593" y="451.667" width="17.28" height="176.664" style="fill:#fff;"/><rect x="1131.93" y="451.667" width="17.225" height="176.664" style="fill:#fff;"/><rect x="1358.02" y="451.667" width="17.28" height="176.664" style="fill:#fff;"/><rect x="1570.26" y="451.667" width="17.28" height="176.664" style="fill:#fff;"/></g></svg>