<?xml version="1.0" encoding="UTF-8" standalone="no"?><!DOCTYPE svg PUBLIC "-//W3C//DTD SVG 1.1//EN" "http://www.w3.org/Graphics/SVG/1.1/DTD/svg11.dtd"><svg width="100%" height="100%" viewBox="0 0 1920 450" version="1.1" xmlns="http://www.w3.org/2000/svg" xmlns:xlink="http://www.w3.org/1999/xlink" xml:space="preserve" xmlns:serif="http://www.serif.com/" style="fill-rule:evenodd;clip-rule:evenodd;stroke-linejoin:round;stroke-miterlimit:2;"><g><path d="M828.875,523.618c5.733,0 10.389,4.656 10.389,10.389c-0,5.734 -4.656,10.389 -10.389,10.389c-5.734,0 -10.389,-4.655 -10.389,-10.389c-0,-5.733 4.655,-10.389 10.389,-10.389Zm-0,-74.525c-0,-5.932 -2.356,-11.621 -6.552,-15.816c-4.195,-4.196 -9.884,-6.552 -15.818,-6.552l0,63.535c0,5.932 2.357,11.622 6.552,15.816c4.195,4.195 9.884,6.551 15.818,6.551l0.002,0l-0,-63.534l-0.002,-0Zm6.702,49.884l0,-80.286c0,-7.535 -0.611,-15.823 -4.197,-22.937c-6.517,-12.924 -11.816,-17.854 -11.816,-27.719c-0,-5.699 4.337,-10.638 12.079,-10.638c3.766,-0 6.557,1.853 8.597,3.943c2.463,2.633 3.833,6.103 3.833,9.707l0,80.286c0,7.535 0.611,15.825 4.197,22.937c6.518,12.926 11.817,17.855 11.817,27.719c-0,5.699 -4.338,10.638 -12.08,10.638c-3.766,0 -6.556,-1.851 -8.596,-3.942c-2.464,-2.632 -3.834,-6.102 -3.834,-9.708Zm-28.708,-106.818c5.735,-0 10.389,4.655 10.389,10.389c-0,5.733 -4.654,10.389 -10.389,10.389c-5.734,-0 -10.389,-4.656 -10.389,-10.389c-0,-5.734 4.655,-10.389 10.389,-10.389Z" style="fill:url(#_Linear1);"/><path d="M1007.38,260.247c5.733,0 10.389,4.656 10.389,10.389c-0,5.734 -4.656,10.389 -10.389,10.389c-5.734,0 -10.389,-4.655 -10.389,-10.389c-0,-5.733 4.655,-10.389 10.389,-10.389Zm-0,-74.525c-0,-5.932 -2.357,-11.621 -6.552,-15.816c-4.195,-4.195 -9.884,-6.552 -15.816,-6.552l-0.003,0l-0,63.535c-0,5.932 2.358,11.622 6.551,15.816c4.196,4.195 9.886,6.551 15.818,6.551l0.002,0l-0,-63.534Zm6.702,49.884l0,-80.286c0,-7.534 -0.611,-15.825 -4.197,-22.937c-6.517,-12.925 -11.816,-17.854 -11.816,-27.719c-0,-5.699 4.337,-10.638 12.079,-10.638c3.766,-0 6.557,1.853 8.597,3.943c2.463,2.633 3.835,6.102 3.833,9.707l0,80.286c0,7.535 0.613,15.825 4.199,22.937c6.516,12.926 11.815,17.855 11.815,27.719c-0,5.699 -4.338,10.638 -12.08,10.638c-3.766,0 -6.556,-1.852 -8.596,-3.942c-2.464,-2.633 -3.834,-6.102 -3.834,-9.708Zm-28.708,-106.818c5.735,-0 10.389,4.655 10.389,10.389c-0,5.733 -4.654,10.389 -10.389,10.389c-5.734,-0 -10.388,-4.656 -10.388,-10.389c0,-5.734 4.654,-10.389 10.388,-10.389Z" style="fill:url(#_Linear2);"/><path d="M918.126,391.934c5.734,-0 10.389,4.654 10.389,10.387c0,5.735 -4.655,10.389 -10.389,10.389c-5.733,-0 -10.389,-4.654 -10.389,-10.389c0,-5.733 4.656,-10.387 10.389,-10.387Zm0,-74.526c0,-5.932 -2.356,-11.622 -6.551,-15.816c-4.194,-4.195 -9.884,-6.551 -15.816,-6.551l-0.002,-0l-0,63.532c-0,5.933 2.356,11.623 6.552,15.818c4.193,4.195 9.883,6.552 15.816,6.552l0.001,-0l0,-63.535Zm6.703,49.883l-0,-80.287c-0,-7.532 -0.611,-15.823 -4.197,-22.937c-6.516,-12.923 -11.815,-17.852 -11.815,-27.717c0,-5.699 4.336,-10.64 12.079,-10.64c3.767,0 6.555,1.853 8.597,3.945c2.463,2.631 3.834,6.102 3.834,9.707l-0,80.287c-0,7.532 0.61,15.823 4.197,22.937c6.515,12.923 11.814,17.852 11.814,27.719c0,5.697 -4.335,10.638 -12.079,10.638c-3.766,-0 -6.555,-1.853 -8.597,-3.945c-2.463,-2.631 -3.833,-6.102 -3.833,-9.707Zm-28.707,-106.817c5.733,0 10.389,4.654 10.389,10.387c-0,5.735 -4.656,10.389 -10.389,10.389c-5.733,0 -10.389,-4.654 -10.389,-10.389c-0,-5.733 4.656,-10.387 10.389,-10.387Z" style="fill:url(#_Linear3);"/><path d="M1096.63,128.561c5.736,0 10.389,4.656 10.389,10.389c0,5.735 -4.653,10.389 -10.389,10.389c-5.733,0 -10.387,-4.654 -10.387,-10.389c0,-5.733 4.654,-10.389 10.387,-10.389Zm0,-74.524c0,-5.932 -2.356,-11.622 -6.55,-15.817c-4.195,-4.194 -9.885,-6.552 -15.817,-6.552l-0.002,-0l-0,63.534c-0,5.933 2.356,11.623 6.552,15.818c4.195,4.194 9.883,6.552 15.816,6.552l0.001,-0l0,-63.535Zm6.704,49.883l0,-80.286c0,-7.533 -0.612,-15.824 -4.198,-22.937c-6.516,-12.924 -11.815,-17.853 -11.815,-27.719c0,-5.697 4.337,-10.638 12.079,-10.638c3.767,-0 6.555,1.852 8.597,3.944c2.463,2.631 3.834,6.102 3.834,9.707l-0,80.287c-0,7.533 0.61,15.823 4.197,22.937c6.517,12.923 11.816,17.852 11.816,27.717c0,5.699 -4.337,10.64 -12.079,10.64c-3.767,-0 -6.557,-1.853 -8.597,-3.945c-2.463,-2.631 -3.835,-6.102 -3.834,-9.707Zm-28.708,-106.819c5.733,0 10.389,4.656 10.389,10.389c-0,5.734 -4.656,10.389 -10.389,10.389c-5.733,0 -10.389,-4.655 -10.389,-10.389c-0,-5.733 4.656,-10.389 10.389,-10.389Z" style="fill:url(#_Linear4);"/><path d="M873.502,457.776c5.733,0 10.387,4.656 10.387,10.389c-0,5.733 -4.654,10.389 -10.387,10.389c-5.736,0 -10.389,-4.656 -10.389,-10.389c-0,-5.733 4.653,-10.389 10.389,-10.389Zm-0,-74.525c-0,-5.933 -2.359,-11.621 -6.552,-15.816c-4.196,-4.196 -9.886,-6.552 -15.818,-6.552l-0,63.534c-0,5.933 2.356,11.621 6.552,15.816c4.195,4.196 9.883,6.552 15.816,6.552l0.003,0l0,-63.534l-0.001,-0Zm6.702,49.884l-0,-80.287c-0,-7.534 -0.613,-15.824 -4.199,-22.937c-6.515,-12.925 -11.815,-17.854 -11.815,-27.718c0,-5.699 4.338,-10.639 12.08,-10.639c3.766,0 6.556,1.852 8.596,3.943c2.464,2.632 3.834,6.102 3.834,9.708l0,80.286c0,7.534 0.611,15.823 4.197,22.937c6.517,12.924 11.816,17.854 11.816,27.719c0,5.699 -4.337,10.638 -12.079,10.638c-3.766,0 -6.557,-1.853 -8.596,-3.943c-2.464,-2.633 -3.836,-6.103 -3.834,-9.707Zm-28.709,-106.819c5.734,0 10.389,4.656 10.389,10.389c0,5.734 -4.655,10.389 -10.389,10.389c-5.733,0 -10.389,-4.655 -10.389,-10.389c0,-5.733 4.656,-10.389 10.389,-10.389Z" style="fill:url(#_Linear5);"/><path d="M1052.01,194.405c5.734,0 10.389,4.654 10.389,10.389c0,5.734 -4.655,10.389 -10.389,10.389c-5.733,0 -10.388,-4.655 -10.388,-10.389c-0,-5.735 4.655,-10.389 10.388,-10.389Zm0,-74.525c0,-5.933 -2.356,-11.623 -6.551,-15.816c-4.196,-4.196 -9.886,-6.552 -15.818,-6.552l-0,63.534c-0,5.933 2.356,11.621 6.552,15.816c4.195,4.196 9.883,6.552 15.816,6.552l0.003,0l0,-63.534l-0.002,-0Zm6.703,49.882l-0,-80.284c-0,-7.535 -0.611,-15.825 -4.197,-22.939c-6.518,-12.924 -11.817,-17.853 -11.817,-27.717c0,-5.699 4.338,-10.638 12.08,-10.638c3.766,-0 6.556,1.851 8.596,3.942c2.464,2.632 3.834,6.102 3.834,9.708l-0,80.286c-0,7.535 0.611,15.823 4.197,22.937c6.517,12.924 11.816,17.854 11.816,27.719c0,5.699 -4.337,10.638 -12.079,10.638c-3.766,0 -6.557,-1.853 -8.597,-3.944c-2.463,-2.632 -3.833,-6.102 -3.833,-9.708Zm-28.709,-106.816c5.734,-0 10.389,4.653 10.389,10.388c0,5.734 -4.655,10.388 -10.389,10.388c-5.733,-0 -10.389,-4.654 -10.389,-10.388c0,-5.735 4.656,-10.388 10.389,-10.388Z" style="fill:url(#_Linear6);"/><path d="M962.753,326.09c5.734,-0 10.389,4.655 10.389,10.389c0,5.733 -4.655,10.389 -10.389,10.389c-5.733,-0 -10.389,-4.656 -10.389,-10.389c0,-5.734 4.656,-10.389 10.389,-10.389Zm0,-74.524c0,-5.932 -2.356,-11.622 -6.552,-15.818c-4.195,-4.193 -9.883,-6.552 -15.816,-6.552l-0.001,0l-0,63.535c-0,5.932 2.356,11.622 6.551,15.818c4.194,4.193 9.884,6.55 15.816,6.55l0.002,-0l0,-63.533Zm6.702,49.883l0,-80.287c0,-7.534 -0.61,-15.823 -4.197,-22.937c-6.515,-12.923 -11.814,-17.854 -11.814,-27.719c-0,-5.697 4.335,-10.638 12.079,-10.638c3.766,0 6.555,1.853 8.597,3.945c2.463,2.631 3.833,6.102 3.833,9.707l0,80.285c0,7.534 0.611,15.825 4.197,22.938c6.516,12.924 11.815,17.853 11.815,27.718c-0,5.698 -4.336,10.638 -12.079,10.638c-3.767,-0 -6.555,-1.851 -8.597,-3.943c-2.463,-2.631 -3.834,-6.102 -3.834,-9.707Zm-28.706,-106.819c5.733,0 10.389,4.656 10.389,10.389c-0,5.733 -4.656,10.389 -10.389,10.389c-5.734,-0 -10.389,-4.656 -10.389,-10.389c-0,-5.733 4.655,-10.389 10.389,-10.389Z" style="fill:url(#_Linear7);"/><path d="M784.248,589.461c5.734,-0 10.389,4.655 10.389,10.389c0,5.735 -4.655,10.389 -10.389,10.389c-5.733,-0 -10.389,-4.654 -10.389,-10.389c0,-5.734 4.656,-10.389 10.389,-10.389Zm0,-74.524c0,-5.932 -2.356,-11.623 -6.552,-15.818c-4.195,-4.194 -9.883,-6.552 -15.816,-6.552l-0.003,0l-0,63.535c-0,5.932 2.358,11.622 6.552,15.818c4.195,4.193 9.885,6.551 15.817,6.551l0.002,0l0,-63.534Zm6.702,49.883l0,-80.287c0,-7.533 -0.61,-15.823 -4.197,-22.937c-6.517,-12.923 -11.816,-17.852 -11.816,-27.719c0,-5.697 4.337,-10.638 12.079,-10.638c3.767,0 6.557,1.853 8.597,3.945c2.463,2.631 3.835,6.101 3.834,9.707l-0,80.286c-0,7.533 0.612,15.823 4.198,22.937c6.516,12.924 11.815,17.853 11.815,27.718c0,5.698 -4.337,10.639 -12.079,10.639c-3.767,0 -6.555,-1.852 -8.597,-3.944c-2.463,-2.632 -3.834,-6.102 -3.834,-9.707Zm-28.706,-106.819c5.733,-0 10.387,4.656 10.387,10.389c-0,5.733 -4.654,10.389 -10.387,10.389c-5.735,-0 -10.389,-4.656 -10.389,-10.389c-0,-5.733 4.654,-10.389 10.389,-10.389Z" style="fill:url(#_Linear8);"/><path d="M1141.26,62.719c5.734,-0 10.389,4.655 10.389,10.389c0,5.733 -4.655,10.389 -10.389,10.389c-5.733,-0 -10.389,-4.656 -10.389,-10.389c0,-5.734 4.656,-10.389 10.389,-10.389Zm0,-74.524c0,-5.934 -2.356,-11.622 -6.552,-15.818c-4.193,-4.195 -9.883,-6.551 -15.816,-6.551l-0.001,-0l-0,63.534c-0,5.932 2.356,11.622 6.551,15.816c4.194,4.196 9.884,6.552 15.816,6.552l0.002,-0l0,-63.533Zm6.702,49.883l0,-80.287c0,-7.534 -0.61,-15.823 -4.197,-22.937c-6.515,-12.923 -11.814,-17.854 -11.814,-27.719c-0,-5.698 4.335,-10.638 12.079,-10.638c3.766,0 6.555,1.853 8.597,3.943c2.463,2.633 3.833,6.104 3.833,9.707l0,80.287c0,7.534 0.611,15.825 4.197,22.937c6.516,12.925 11.815,17.854 11.815,27.719c-0,5.699 -4.336,10.638 -12.079,10.638c-3.767,-0 -6.555,-1.851 -8.597,-3.943c-2.463,-2.631 -3.834,-6.102 -3.834,-9.707Zm-28.706,-106.819c5.733,0 10.389,4.656 10.389,10.389c-0,5.734 -4.656,10.389 -10.389,10.389c-5.734,0 -10.389,-4.655 -10.389,-10.389c-0,-5.733 4.655,-10.389 10.389,-10.389Z" style="fill:url(#_Linear9);"/><path d="M1185.88,-3.123c5.733,-0 10.389,4.655 10.389,10.389c-0,5.733 -4.656,10.388 -10.389,10.388c-5.734,0 -10.389,-4.655 -10.389,-10.388c-0,-5.734 4.655,-10.389 10.389,-10.389Zm-0,-74.526c-0,-5.932 -2.357,-11.621 -6.552,-15.816c-4.195,-4.195 -9.884,-6.552 -15.816,-6.552l-0.002,0l0,63.535c0,5.932 2.357,11.62 6.55,15.816c4.196,4.195 9.886,6.552 15.818,6.552l0.002,-0l-0,-63.535Zm6.702,49.884l-0,-80.286c-0,-7.534 -0.611,-15.825 -4.197,-22.937c-6.517,-12.925 -11.815,-17.854 -11.815,-27.719c0,-5.699 4.336,-10.638 12.08,-10.638c3.766,-0 6.555,1.851 8.596,3.943c2.464,2.631 3.834,6.102 3.834,9.707l0,80.287c0,7.534 0.611,15.823 4.197,22.937c6.515,12.923 11.815,17.854 11.815,27.718c-0,5.699 -4.338,10.639 -12.08,10.639c-3.766,-0 -6.555,-1.853 -8.596,-3.943c-2.464,-2.633 -3.834,-6.104 -3.834,-9.708Zm-28.707,-106.818c5.734,-0 10.389,4.655 10.389,10.389c0,5.733 -4.655,10.389 -10.389,10.389c-5.735,-0 -10.389,-4.656 -10.389,-10.389c0,-5.734 4.654,-10.389 10.389,-10.389Z" style="fill:url(#_Linear10);"/><path d="M1001.49,523.618c5.733,0 10.387,4.656 10.387,10.389c-0,5.734 -4.654,10.389 -10.387,10.389c-5.736,0 -10.389,-4.655 -10.389,-10.389c-0,-5.733 4.653,-10.389 10.389,-10.389Zm-0,-74.525c-0,-5.932 -2.359,-11.621 -6.552,-15.816c-4.196,-4.196 -9.886,-6.552 -15.818,-6.552l-0,63.535c-0,5.932 2.356,11.622 6.552,15.816c4.195,4.195 9.883,6.551 15.816,6.551l0.003,0l0,-63.534l-0.001,-0Zm6.702,49.884l-0,-80.286c-0,-7.535 -0.613,-15.823 -4.199,-22.937c-6.515,-12.924 -11.815,-17.854 -11.815,-27.719c0,-5.699 4.338,-10.638 12.08,-10.638c3.766,-0 6.556,1.853 8.596,3.943c2.464,2.633 3.834,6.103 3.834,9.707l0,80.286c0,7.535 0.611,15.825 4.197,22.937c6.517,12.926 11.816,17.855 11.816,27.719c0,5.699 -4.337,10.638 -12.079,10.638c-3.766,0 -6.557,-1.851 -8.596,-3.942c-2.464,-2.632 -3.836,-6.102 -3.834,-9.708Zm-28.709,-106.818c5.734,-0 10.389,4.655 10.389,10.389c0,5.733 -4.655,10.389 -10.389,10.389c-5.733,-0 -10.389,-4.656 -10.389,-10.389c0,-5.734 4.656,-10.389 10.389,-10.389Z" style="fill:url(#_Linear11);"/><path d="M1179.99,260.247c5.734,0 10.389,4.656 10.389,10.389c0,5.734 -4.655,10.389 -10.389,10.389c-5.733,0 -10.388,-4.655 -10.388,-10.389c-0,-5.733 4.655,-10.389 10.388,-10.389Zm0,-74.525c0,-5.932 -2.356,-11.621 -6.551,-15.816c-4.196,-4.195 -9.884,-6.552 -15.818,-6.552l-0,63.535c-0,5.932 2.356,11.622 6.552,15.816c4.195,4.195 9.883,6.551 15.817,6.551l0.002,0l0,-63.534l-0.002,0Zm6.703,49.884l-0,-80.286c-0,-7.534 -0.611,-15.825 -4.197,-22.937c-6.518,-12.925 -11.817,-17.854 -11.817,-27.719c0,-5.699 4.338,-10.638 12.08,-10.638c3.766,-0 6.556,1.853 8.596,3.943c2.464,2.633 3.834,6.102 3.834,9.707l-0,80.286c-0,7.535 0.611,15.825 4.197,22.937c6.517,12.926 11.816,17.855 11.816,27.719c0,5.699 -4.337,10.638 -12.079,10.638c-3.766,0 -6.557,-1.852 -8.596,-3.942c-2.464,-2.633 -3.834,-6.102 -3.834,-9.708Zm-28.709,-106.818c5.735,-0 10.389,4.655 10.389,10.389c0,5.733 -4.654,10.389 -10.389,10.389c-5.733,-0 -10.389,-4.656 -10.389,-10.389c0,-5.734 4.656,-10.389 10.389,-10.389Z" style="fill:url(#_Linear12);"/><path d="M1090.74,391.934c5.734,-0 10.389,4.654 10.389,10.387c0,5.735 -4.655,10.389 -10.389,10.389c-5.733,-0 -10.389,-4.654 -10.389,-10.389c0,-5.733 4.656,-10.387 10.389,-10.387Zm0,-74.526c0,-5.932 -2.356,-11.622 -6.552,-15.816c-4.193,-4.195 -9.883,-6.551 -15.816,-6.551l-0.001,-0l-0,63.532c-0,5.933 2.356,11.623 6.551,15.818c4.194,4.195 9.884,6.552 15.816,6.552l0.002,-0l0,-63.535Zm6.702,49.883l0,-80.287c0,-7.532 -0.61,-15.823 -4.197,-22.937c-6.515,-12.923 -11.814,-17.852 -11.814,-27.717c-0,-5.699 4.335,-10.64 12.079,-10.64c3.766,0 6.555,1.853 8.597,3.945c2.463,2.631 3.833,6.102 3.833,9.707l0,80.287c0,7.532 0.611,15.823 4.197,22.937c6.516,12.923 11.815,17.852 11.815,27.719c0,5.697 -4.336,10.638 -12.079,10.638c-3.767,-0 -6.555,-1.853 -8.597,-3.945c-2.463,-2.631 -3.834,-6.102 -3.834,-9.707Zm-28.706,-106.817c5.733,0 10.389,4.654 10.389,10.387c-0,5.735 -4.656,10.389 -10.389,10.389c-5.734,0 -10.389,-4.654 -10.389,-10.389c-0,-5.733 4.655,-10.387 10.389,-10.387Z" style="fill:url(#_Linear13);"/><path d="M1269.24,128.561c5.735,0 10.389,4.656 10.389,10.389c0,5.735 -4.654,10.389 -10.389,10.389c-5.733,0 -10.389,-4.654 -10.389,-10.389c0,-5.733 4.656,-10.389 10.389,-10.389Zm0,-74.524c0,-5.932 -2.356,-11.622 -6.552,-15.817c-4.193,-4.194 -9.883,-6.552 -15.816,-6.552l-0.001,-0l-0,63.534c-0,5.933 2.356,11.623 6.551,15.818c4.194,4.194 9.884,6.552 15.816,6.552l0.002,-0l0,-63.535Zm6.702,49.883l0,-80.286c0,-7.533 -0.61,-15.824 -4.197,-22.937c-6.515,-12.924 -11.814,-17.853 -11.814,-27.719c-0,-5.697 4.335,-10.638 12.079,-10.638c3.766,-0 6.555,1.852 8.597,3.944c2.463,2.631 3.833,6.102 3.833,9.707l0,80.287c0,7.533 0.611,15.823 4.197,22.937c6.516,12.923 11.815,17.852 11.815,27.717c-0,5.699 -4.336,10.64 -12.079,10.64c-3.767,-0 -6.555,-1.853 -8.597,-3.945c-2.463,-2.631 -3.834,-6.102 -3.834,-9.707Zm-28.706,-106.819c5.733,0 10.389,4.656 10.389,10.389c-0,5.734 -4.656,10.389 -10.389,10.389c-5.734,0 -10.389,-4.655 -10.389,-10.389c-0,-5.733 4.655,-10.389 10.389,-10.389Z" style="fill:url(#_Linear14);"/><path d="M1046.11,457.776c5.736,0 10.389,4.656 10.389,10.389c0,5.733 -4.653,10.389 -10.389,10.389c-5.733,0 -10.388,-4.656 -10.388,-10.389c-0,-5.733 4.655,-10.389 10.388,-10.389Zm0,-74.525c0,-5.933 -2.356,-11.621 -6.551,-15.816c-4.194,-4.196 -9.884,-6.552 -15.816,-6.552l-0.002,-0l-0,63.534c-0,5.933 2.356,11.621 6.552,15.816c4.193,4.196 9.883,6.552 15.816,6.552l0.001,0l0,-63.534Zm6.703,49.884l-0,-80.287c-0,-7.534 -0.611,-15.824 -4.197,-22.937c-6.516,-12.925 -11.815,-17.854 -11.815,-27.718c0,-5.699 4.337,-10.639 12.079,-10.639c3.767,0 6.555,1.852 8.597,3.943c2.463,2.632 3.834,6.102 3.834,9.708l-0,80.286c-0,7.534 0.61,15.823 4.197,22.937c6.517,12.924 11.814,17.854 11.814,27.719c0,5.699 -4.335,10.638 -12.079,10.638c-3.766,0 -6.555,-1.853 -8.597,-3.943c-2.463,-2.633 -3.833,-6.103 -3.833,-9.707Zm-28.707,-106.819c5.733,0 10.389,4.656 10.389,10.389c-0,5.734 -4.656,10.389 -10.389,10.389c-5.733,0 -10.389,-4.655 -10.389,-10.389c-0,-5.733 4.656,-10.389 10.389,-10.389Z" style="fill:url(#_Linear15);"/><path d="M1224.62,194.405c5.734,0 10.387,4.654 10.387,10.389c0,5.734 -4.653,10.389 -10.387,10.389c-5.735,0 -10.389,-4.655 -10.389,-10.389c0,-5.735 4.654,-10.389 10.389,-10.389Zm0,-74.525c0,-5.933 -2.358,-11.623 -6.552,-15.816c-4.195,-4.196 -9.885,-6.552 -15.817,-6.552l-0,63.534c-0,5.933 2.356,11.621 6.551,15.816c4.196,4.196 9.884,6.552 15.816,6.552l0.004,0l-0,-63.534l-0.002,-0Zm6.702,49.882l0,-80.284c0,-7.535 -0.612,-15.825 -4.198,-22.939c-6.516,-12.924 -11.815,-17.853 -11.815,-27.717c0,-5.699 4.337,-10.638 12.079,-10.638c3.767,-0 6.557,1.851 8.597,3.942c2.463,2.632 3.834,6.102 3.834,9.708l-0,80.286c-0,7.535 0.61,15.823 4.197,22.937c6.517,12.924 11.816,17.854 11.816,27.719c-0,5.699 -4.337,10.638 -12.079,10.638c-3.767,0 -6.557,-1.853 -8.597,-3.944c-2.463,-2.632 -3.835,-6.102 -3.834,-9.708Zm-28.708,-106.816c5.733,-0 10.389,4.653 10.389,10.388c-0,5.734 -4.656,10.388 -10.389,10.388c-5.733,-0 -10.389,-4.654 -10.389,-10.388c-0,-5.735 4.656,-10.388 10.389,-10.388Z" style="fill:url(#_Linear16);"/><path d="M1135.36,326.09c5.733,-0 10.389,4.655 10.389,10.389c-0,5.733 -4.656,10.389 -10.389,10.389c-5.734,-0 -10.389,-4.656 -10.389,-10.389c-0,-5.734 4.655,-10.389 10.389,-10.389Zm-0,-74.524c-0,-5.932 -2.357,-11.622 -6.552,-15.818c-4.195,-4.193 -9.884,-6.552 -15.816,-6.552l-0.003,0l-0,63.535c-0,5.932 2.358,11.622 6.551,15.818c4.196,4.193 9.886,6.55 15.818,6.55l0.002,-0l-0,-63.533Zm6.702,49.883l0,-80.287c0,-7.534 -0.611,-15.823 -4.197,-22.937c-6.517,-12.923 -11.816,-17.854 -11.816,-27.719c-0,-5.697 4.337,-10.638 12.079,-10.638c3.766,0 6.557,1.853 8.597,3.945c2.463,2.631 3.835,6.102 3.833,9.707l0,80.285c0,7.534 0.613,15.825 4.199,22.938c6.516,12.924 11.815,17.853 11.815,27.718c-0,5.698 -4.338,10.638 -12.08,10.638c-3.766,-0 -6.555,-1.851 -8.596,-3.943c-2.464,-2.631 -3.834,-6.102 -3.834,-9.707Zm-28.707,-106.819c5.734,0 10.388,4.656 10.388,10.389c-0,5.733 -4.654,10.389 -10.388,10.389c-5.735,-0 -10.389,-4.656 -10.389,-10.389c0,-5.733 4.654,-10.389 10.389,-10.389Z" style="fill:url(#_Linear17);"/><path d="M956.859,589.461c5.733,-0 10.389,4.655 10.389,10.389c-0,5.735 -4.656,10.389 -10.389,10.389c-5.734,-0 -10.389,-4.654 -10.389,-10.389c-0,-5.734 4.655,-10.389 10.389,-10.389Zm-0,-74.524c-0,-5.932 -2.356,-11.623 -6.552,-15.818c-4.195,-4.194 -9.884,-6.552 -15.818,-6.552l0,63.535c0,5.932 2.357,11.622 6.552,15.818c4.195,4.193 9.886,6.551 15.818,6.551l0.002,0l-0,-63.534l-0.002,-0Zm6.702,49.883l0,-80.287c0,-7.533 -0.611,-15.823 -4.197,-22.937c-6.517,-12.923 -11.816,-17.852 -11.816,-27.719c-0,-5.697 4.337,-10.638 12.079,-10.638c3.766,0 6.557,1.853 8.597,3.945c2.463,2.631 3.833,6.101 3.833,9.707l0,80.286c0,7.533 0.611,15.823 4.197,22.937c6.518,12.924 11.817,17.853 11.817,27.718c-0,5.698 -4.338,10.639 -12.08,10.639c-3.766,0 -6.556,-1.852 -8.596,-3.944c-2.464,-2.632 -3.834,-6.102 -3.834,-9.707Zm-28.708,-106.819c5.735,-0 10.389,4.656 10.389,10.389c-0,5.733 -4.654,10.389 -10.389,10.389c-5.734,-0 -10.389,-4.656 -10.389,-10.389c-0,-5.733 4.655,-10.389 10.389,-10.389Z" style="fill:url(#_Linear18);"/><path d="M1313.87,62.719c5.733,-0 10.389,4.655 10.389,10.389c-0,5.733 -4.656,10.389 -10.389,10.389c-5.734,-0 -10.389,-4.656 -10.389,-10.389c-0,-5.734 4.655,-10.389 10.389,-10.389Zm-0,-74.524c-0,-5.934 -2.357,-11.622 -6.552,-15.818c-4.194,-4.195 -9.884,-6.551 -15.816,-6.551l-0.002,-0l0,63.534c0,5.932 2.357,11.622 6.552,15.816c4.194,4.196 9.884,6.552 15.816,6.552l0.002,-0l-0,-63.533Zm6.702,49.883l0,-80.287c0,-7.534 -0.611,-15.823 -4.197,-22.937c-6.515,-12.923 -11.815,-17.854 -11.815,-27.719c0,-5.698 4.336,-10.638 12.08,-10.638c3.766,0 6.555,1.853 8.596,3.943c2.464,2.633 3.834,6.104 3.834,9.707l0,80.287c0,7.534 0.611,15.825 4.197,22.937c6.515,12.925 11.815,17.854 11.815,27.719c-0,5.699 -4.336,10.638 -12.08,10.638c-3.766,-0 -6.555,-1.851 -8.596,-3.943c-2.464,-2.631 -3.834,-6.102 -3.834,-9.707Zm-28.707,-106.819c5.734,0 10.389,4.656 10.389,10.389c0,5.734 -4.655,10.389 -10.389,10.389c-5.733,0 -10.389,-4.655 -10.389,-10.389c0,-5.733 4.656,-10.389 10.389,-10.389Z" style="fill:url(#_Linear19);"/><path d="M1358.5,-3.123c5.734,-0 10.389,4.655 10.389,10.389c0,5.733 -4.655,10.388 -10.389,10.388c-5.733,0 -10.388,-4.655 -10.388,-10.388c-0,-5.734 4.655,-10.389 10.388,-10.389Zm0,-74.526c0,-5.932 -2.356,-11.621 -6.551,-15.816c-4.196,-4.195 -9.884,-6.552 -15.816,-6.552l-0.004,0l0,63.535c0,5.932 2.358,11.62 6.552,15.816c4.195,4.195 9.885,6.552 15.818,6.552l0.001,-0l0,-63.535Zm6.703,49.884l-0,-80.286c-0,-7.534 -0.611,-15.825 -4.197,-22.937c-6.518,-12.925 -11.817,-17.854 -11.817,-27.719c0,-5.699 4.338,-10.638 12.08,-10.638c3.766,-0 6.556,1.851 8.596,3.943c2.464,2.631 3.836,6.102 3.834,9.707l-0,80.287c-0,7.534 0.612,15.823 4.199,22.937c6.515,12.923 11.814,17.854 11.814,27.718c0,5.699 -4.337,10.639 -12.079,10.639c-3.766,-0 -6.557,-1.853 -8.597,-3.943c-2.463,-2.633 -3.833,-6.104 -3.833,-9.708Zm-28.709,-106.818c5.735,-0 10.389,4.655 10.389,10.389c0,5.733 -4.654,10.389 -10.389,10.389c-5.733,-0 -10.387,-4.656 -10.387,-10.389c-0,-5.734 4.654,-10.389 10.387,-10.389Z" style="fill:url(#_Linear20);"/><path d="M1346.7,523.618c5.734,0 10.389,4.656 10.389,10.389c0,5.734 -4.655,10.389 -10.389,10.389c-5.733,0 -10.389,-4.655 -10.389,-10.389c0,-5.733 4.656,-10.389 10.389,-10.389Zm0,-74.525c0,-5.932 -2.356,-11.621 -6.552,-15.816c-4.193,-4.196 -9.883,-6.552 -15.816,-6.552l-0.001,0l-0,63.535c-0,5.932 2.356,11.622 6.551,15.816c4.194,4.195 9.884,6.551 15.816,6.551l0.002,0l0,-63.534Zm6.702,49.884l0,-80.286c0,-7.535 -0.61,-15.823 -4.197,-22.937c-6.515,-12.924 -11.814,-17.854 -11.814,-27.719c-0,-5.699 4.335,-10.638 12.079,-10.638c3.766,-0 6.555,1.853 8.597,3.943c2.463,2.633 3.833,6.103 3.833,9.707l0,80.286c0,7.535 0.611,15.825 4.198,22.937c6.515,12.926 11.814,17.855 11.814,27.719c-0,5.699 -4.335,10.638 -12.079,10.638c-3.767,0 -6.555,-1.851 -8.597,-3.942c-2.463,-2.632 -3.834,-6.102 -3.834,-9.708Zm-28.706,-106.818c5.733,-0 10.389,4.655 10.389,10.389c-0,5.733 -4.656,10.389 -10.389,10.389c-5.734,-0 -10.389,-4.656 -10.389,-10.389c-0,-5.734 4.655,-10.389 10.389,-10.389Z" style="fill:url(#_Linear21);"/><path d="M1525.21,260.247c5.735,0 10.389,4.656 10.389,10.389c0,5.734 -4.654,10.389 -10.389,10.389c-5.733,0 -10.387,-4.655 -10.387,-10.389c-0,-5.733 4.654,-10.389 10.387,-10.389Zm0,-74.525c0,-5.932 -2.356,-11.621 -6.55,-15.816c-4.195,-4.195 -9.885,-6.552 -15.818,-6.552l-0.001,0l-0,63.535c-0,5.932 2.356,11.622 6.551,15.816c4.196,4.195 9.884,6.551 15.816,6.551l0.002,0l0,-63.534Zm6.702,49.884l0,-80.286c0,-7.534 -0.61,-15.825 -4.197,-22.937c-6.515,-12.925 -11.814,-17.854 -11.814,-27.719c-0,-5.699 4.337,-10.638 12.079,-10.638c3.766,-0 6.555,1.853 8.597,3.943c2.463,2.633 3.833,6.102 3.833,9.707l0,80.286c0,7.535 0.611,15.825 4.198,22.937c6.517,12.926 11.814,17.855 11.814,27.719c-0,5.699 -4.335,10.638 -12.079,10.638c-3.767,0 -6.555,-1.852 -8.597,-3.942c-2.462,-2.633 -3.834,-6.102 -3.834,-9.708Zm-28.706,-106.818c5.733,-0 10.389,4.655 10.389,10.389c-0,5.733 -4.656,10.389 -10.389,10.389c-5.734,-0 -10.389,-4.656 -10.389,-10.389c-0,-5.734 4.655,-10.389 10.389,-10.389Z" style="fill:url(#_Linear22);"/><path d="M1435.96,391.934c5.733,-0 10.388,4.654 10.388,10.387c0,5.735 -4.655,10.389 -10.388,10.389c-5.734,-0 -10.389,-4.654 -10.389,-10.389c-0,-5.733 4.655,-10.387 10.389,-10.387Zm-0,-74.526c-0,-5.932 -2.357,-11.622 -6.552,-15.816c-4.196,-4.195 -9.884,-6.551 -15.816,-6.551l-0.004,-0l0,63.532c0,5.933 2.358,11.623 6.552,15.818c4.195,4.195 9.885,6.552 15.818,6.552l0.002,-0l-0,-63.535Zm6.702,49.883l-0,-80.287c-0,-7.532 -0.611,-15.823 -4.197,-22.937c-6.517,-12.923 -11.817,-17.852 -11.817,-27.717c0,-5.699 4.338,-10.64 12.08,-10.64c3.766,0 6.557,1.853 8.596,3.945c2.464,2.631 3.836,6.102 3.834,9.707l0,80.287c0,7.532 0.611,15.823 4.199,22.937c6.515,12.923 11.814,17.852 11.814,27.719c0,5.697 -4.337,10.638 -12.079,10.638c-3.766,-0 -6.557,-1.853 -8.596,-3.945c-2.464,-2.631 -3.834,-6.102 -3.834,-9.707Zm-28.709,-106.817c5.735,0 10.389,4.654 10.389,10.387c0,5.735 -4.654,10.389 -10.389,10.389c-5.733,0 -10.387,-4.654 -10.387,-10.389c0,-5.733 4.654,-10.387 10.387,-10.387Z" style="fill:url(#_Linear23);"/><path d="M1614.46,128.561c5.733,0 10.388,4.656 10.388,10.389c0,5.735 -4.655,10.389 -10.388,10.389c-5.734,0 -10.389,-4.654 -10.389,-10.389c-0,-5.733 4.655,-10.389 10.389,-10.389Zm-0,-74.524c-0,-5.932 -2.357,-11.622 -6.552,-15.817c-4.196,-4.194 -9.884,-6.552 -15.816,-6.552l-0.002,-0l-0,63.534c-0,5.933 2.356,11.623 6.55,15.818c4.195,4.194 9.885,6.552 15.818,6.552l0.002,-0l-0,-63.535Zm6.702,49.883l-0,-80.286c-0,-7.533 -0.611,-15.824 -4.197,-22.937c-6.518,-12.924 -11.815,-17.853 -11.815,-27.719c0,-5.697 4.336,-10.638 12.079,-10.638c3.767,-0 6.556,1.852 8.597,3.944c2.462,2.631 3.834,6.102 3.834,9.707l-0,80.287c-0,7.533 0.61,15.823 4.197,22.937c6.515,12.923 11.814,17.852 11.814,27.717c0,5.699 -4.337,10.64 -12.079,10.64c-3.766,-0 -6.555,-1.853 -8.597,-3.945c-2.463,-2.631 -3.833,-6.102 -3.833,-9.707Zm-28.707,-106.819c5.733,0 10.387,4.656 10.387,10.389c0,5.734 -4.654,10.389 -10.387,10.389c-5.735,0 -10.389,-4.655 -10.389,-10.389c0,-5.733 4.654,-10.389 10.389,-10.389Z" style="fill:url(#_Linear24);"/><path d="M1391.33,457.776c5.733,0 10.389,4.656 10.389,10.389c-0,5.733 -4.656,10.389 -10.389,10.389c-5.734,0 -10.389,-4.656 -10.389,-10.389c-0,-5.733 4.655,-10.389 10.389,-10.389Zm-0,-74.525c-0,-5.933 -2.356,-11.621 -6.552,-15.816c-4.195,-4.196 -9.884,-6.552 -15.816,-6.552l-0.002,-0l0,63.534c0,5.933 2.357,11.621 6.55,15.816c4.196,4.196 9.886,6.552 15.818,6.552l0.002,0l-0,-63.534Zm6.702,49.884l0,-80.287c0,-7.534 -0.611,-15.824 -4.197,-22.937c-6.517,-12.925 -11.815,-17.854 -11.815,-27.718c0,-5.699 4.336,-10.639 12.08,-10.639c3.766,0 6.555,1.852 8.596,3.943c2.464,2.632 3.834,6.102 3.834,9.708l0,80.286c0,7.534 0.611,15.823 4.197,22.937c6.516,12.924 11.815,17.854 11.815,27.719c-0,5.699 -4.338,10.638 -12.08,10.638c-3.766,0 -6.555,-1.853 -8.596,-3.943c-2.464,-2.633 -3.834,-6.103 -3.834,-9.707Zm-28.707,-106.819c5.734,0 10.389,4.656 10.389,10.389c0,5.734 -4.655,10.389 -10.389,10.389c-5.735,0 -10.389,-4.655 -10.389,-10.389c0,-5.733 4.654,-10.389 10.389,-10.389Z" style="fill:url(#_Linear25);"/><path d="M1569.84,194.405c5.733,0 10.389,4.654 10.389,10.389c-0,5.734 -4.656,10.389 -10.389,10.389c-5.734,0 -10.389,-4.655 -10.389,-10.389c-0,-5.735 4.655,-10.389 10.389,-10.389Zm-0,-74.525c-0,-5.933 -2.357,-11.623 -6.552,-15.816c-4.194,-4.196 -9.884,-6.552 -15.816,-6.552l-0.002,-0l0,63.534c0,5.933 2.357,11.621 6.552,15.816c4.194,4.196 9.884,6.552 15.816,6.552l0.002,0l-0,-63.534Zm6.702,49.882l0,-80.284c0,-7.535 -0.611,-15.825 -4.197,-22.939c-6.515,-12.924 -11.815,-17.853 -11.815,-27.717c0,-5.699 4.336,-10.638 12.08,-10.638c3.766,-0 6.555,1.851 8.596,3.942c2.464,2.632 3.834,6.102 3.834,9.708l0,80.286c0,7.535 0.611,15.823 4.197,22.937c6.516,12.924 11.815,17.854 11.815,27.719c-0,5.699 -4.336,10.638 -12.08,10.638c-3.766,0 -6.555,-1.853 -8.596,-3.944c-2.464,-2.632 -3.834,-6.102 -3.834,-9.708Zm-28.708,-106.816c5.733,-0 10.39,4.653 10.39,10.388c0,5.734 -4.655,10.388 -10.389,10.388c-5.733,-0 -10.389,-4.654 -10.389,-10.388c0,-5.735 4.656,-10.388 10.389,-10.388l-0.001,-0Z" style="fill:url(#_Linear26);"/><path d="M1480.59,326.09c5.734,-0 10.389,4.655 10.389,10.389c0,5.733 -4.655,10.389 -10.389,10.389c-5.735,-0 -10.389,-4.656 -10.389,-10.389c0,-5.734 4.654,-10.389 10.389,-10.389Zm0,-74.524c0,-5.932 -2.358,-11.622 -6.552,-15.818c-4.195,-4.193 -9.885,-6.552 -15.817,-6.552l-0,63.535c-0,5.932 2.356,11.622 6.551,15.818c4.196,4.193 9.884,6.55 15.816,6.55l0.004,-0l-0,-63.533l-0.002,0Zm6.702,49.883l0,-80.287c0,-7.534 -0.61,-15.823 -4.198,-22.937c-6.516,-12.923 -11.815,-17.854 -11.815,-27.719c0,-5.697 4.337,-10.638 12.079,-10.638c3.767,0 6.557,1.853 8.597,3.945c2.463,2.631 3.834,6.102 3.834,9.707l-0,80.285c-0,7.534 0.61,15.825 4.197,22.938c6.517,12.924 11.816,17.853 11.816,27.718c0,5.698 -4.337,10.638 -12.079,10.638c-3.766,-0 -6.557,-1.851 -8.597,-3.943c-2.463,-2.631 -3.834,-6.102 -3.834,-9.707Zm-28.708,-106.819c5.733,0 10.389,4.656 10.389,10.389c-0,5.733 -4.656,10.389 -10.389,10.389c-5.733,-0 -10.389,-4.656 -10.389,-10.389c-0,-5.733 4.656,-10.389 10.389,-10.389Z" style="fill:url(#_Linear27);"/><path d="M1302.08,589.461c5.736,-0 10.389,4.655 10.389,10.389c0,5.735 -4.653,10.389 -10.389,10.389c-5.733,-0 -10.387,-4.654 -10.387,-10.389c0,-5.734 4.654,-10.389 10.387,-10.389Zm0,-74.524c0,-5.932 -2.356,-11.623 -6.549,-15.818c-4.196,-4.194 -9.886,-6.552 -15.818,-6.552l-0.002,0l-0,63.535c-0,5.932 2.356,11.622 6.552,15.818c4.195,4.193 9.883,6.551 15.816,6.551l0.001,0l0,-63.534Zm6.703,49.883l-0,-80.287c-0,-7.533 -0.611,-15.823 -4.197,-22.937c-6.516,-12.923 -11.815,-17.852 -11.815,-27.719c0,-5.697 4.337,-10.638 12.079,-10.638c3.767,0 6.555,1.853 8.597,3.945c2.464,2.631 3.834,6.101 3.834,9.707l-0,80.286c-0,7.533 0.61,15.823 4.197,22.937c6.517,12.924 11.816,17.853 11.816,27.718c0,5.698 -4.337,10.639 -12.081,10.639c-3.766,0 -6.555,-1.852 -8.595,-3.944c-2.463,-2.632 -3.835,-6.102 -3.835,-9.707Zm-28.707,-106.819c5.733,-0 10.389,4.656 10.389,10.389c-0,5.733 -4.656,10.389 -10.389,10.389c-5.733,-0 -10.389,-4.656 -10.389,-10.389c-0,-5.733 4.656,-10.389 10.389,-10.389Z" style="fill:url(#_Linear28);"/><path d="M1659.09,62.719c5.734,-0 10.389,4.655 10.389,10.389c0,5.733 -4.655,10.389 -10.389,10.389c-5.733,-0 -10.389,-4.656 -10.389,-10.389c0,-5.734 4.656,-10.389 10.389,-10.389Zm0,-74.524c0,-5.934 -2.356,-11.622 -6.552,-15.818c-4.195,-4.195 -9.883,-6.551 -15.816,-6.551l-0.003,-0l-0,63.534c-0,5.932 2.356,11.622 6.552,15.816c4.195,4.196 9.885,6.552 15.817,6.552l0.002,-0l0,-63.533Zm6.702,49.883l0,-80.287c0,-7.534 -0.61,-15.823 -4.197,-22.937c-6.517,-12.923 -11.816,-17.854 -11.816,-27.719c-0,-5.698 4.337,-10.638 12.079,-10.638c3.767,0 6.557,1.853 8.597,3.943c2.463,2.633 3.834,6.104 3.834,9.707l-0,80.287c-0,7.534 0.61,15.825 4.197,22.937c6.517,12.925 11.816,17.854 11.816,27.719c0,5.699 -4.337,10.638 -12.079,10.638c-3.766,-0 -6.557,-1.851 -8.597,-3.943c-2.463,-2.631 -3.834,-6.102 -3.834,-9.707Zm-28.708,-106.819c5.735,0 10.389,4.656 10.389,10.389c-0,5.734 -4.654,10.389 -10.389,10.389c-5.733,0 -10.389,-4.655 -10.389,-10.389c-0,-5.733 4.656,-10.389 10.389,-10.389Z" style="fill:url(#_Linear29);"/><path d="M1703.72,-3.123c5.733,-0 10.387,4.655 10.387,10.389c0,5.733 -4.654,10.388 -10.387,10.388c-5.735,0 -10.389,-4.655 -10.389,-10.388c-0,-5.734 4.654,-10.389 10.389,-10.389Zm-0,-74.526c-0,-5.932 -2.358,-11.621 -6.552,-15.816c-4.195,-4.195 -9.885,-6.552 -15.818,-6.552l0,63.535c0,5.932 2.357,11.62 6.552,15.816c4.195,4.195 9.884,6.552 15.816,6.552l0.004,-0l-0,-63.535l-0.002,0Zm6.702,49.884l0,-80.286c0,-7.534 -0.612,-15.825 -4.199,-22.937c-6.515,-12.925 -11.814,-17.854 -11.814,-27.719c-0,-5.699 4.337,-10.638 12.079,-10.638c3.766,-0 6.557,1.851 8.597,3.943c2.463,2.631 3.833,6.102 3.833,9.707l0,80.287c0,7.534 0.611,15.823 4.197,22.937c6.518,12.923 11.817,17.854 11.817,27.718c-0,5.699 -4.338,10.639 -12.08,10.639c-3.766,-0 -6.556,-1.853 -8.596,-3.943c-2.464,-2.633 -3.836,-6.104 -3.834,-9.708Zm-28.708,-106.818c5.733,-0 10.389,4.655 10.389,10.389c-0,5.733 -4.656,10.389 -10.389,10.389c-5.734,-0 -10.389,-4.656 -10.389,-10.389c-0,-5.734 4.655,-10.389 10.389,-10.389Z" style="fill:url(#_Linear30);"/><path d="M1174.09,523.618c5.736,0 10.389,4.656 10.389,10.389c0,5.734 -4.653,10.389 -10.389,10.389c-5.733,0 -10.387,-4.655 -10.387,-10.389c0,-5.733 4.654,-10.389 10.387,-10.389Zm0,-74.525c0,-5.932 -2.356,-11.621 -6.55,-15.816c-4.195,-4.196 -9.885,-6.552 -15.817,-6.552l-0.002,0l-0,63.535c-0,5.932 2.356,11.622 6.552,15.816c4.195,4.195 9.883,6.551 15.816,6.551l0.001,0l0,-63.534Zm6.703,49.884l-0,-80.286c-0,-7.535 -0.611,-15.823 -4.197,-22.937c-6.516,-12.924 -11.815,-17.854 -11.815,-27.719c0,-5.699 4.337,-10.638 12.079,-10.638c3.767,-0 6.555,1.853 8.597,3.943c2.463,2.633 3.834,6.103 3.834,9.707l-0,80.286c-0,7.535 0.61,15.825 4.197,22.937c6.517,12.926 11.814,17.855 11.814,27.719c0,5.699 -4.335,10.638 -12.079,10.638c-3.766,0 -6.555,-1.851 -8.597,-3.942c-2.461,-2.632 -3.833,-6.102 -3.833,-9.708Zm-28.707,-106.818c5.733,-0 10.389,4.655 10.389,10.389c-0,5.733 -4.656,10.389 -10.389,10.389c-5.733,-0 -10.389,-4.656 -10.389,-10.389c-0,-5.734 4.656,-10.389 10.389,-10.389Z" style="fill:url(#_Linear31);"/><path d="M1352.6,260.247c5.734,0 10.387,4.656 10.387,10.389c0,5.734 -4.653,10.389 -10.387,10.389c-5.735,0 -10.389,-4.655 -10.389,-10.389c0,-5.733 4.654,-10.389 10.389,-10.389Zm0,-74.525c0,-5.932 -2.358,-11.621 -6.552,-15.816c-4.195,-4.195 -9.885,-6.552 -15.817,-6.552l-0,63.535c-0,5.932 2.356,11.622 6.551,15.816c4.196,4.195 9.884,6.551 15.816,6.551l0.004,0l-0,-63.534l-0.002,0Zm6.702,49.884l0,-80.286c0,-7.534 -0.612,-15.825 -4.198,-22.937c-6.516,-12.925 -11.815,-17.854 -11.815,-27.719c0,-5.699 4.337,-10.638 12.079,-10.638c3.767,-0 6.557,1.853 8.597,3.943c2.463,2.633 3.834,6.102 3.834,9.707l-0,80.286c-0,7.535 0.61,15.825 4.197,22.937c6.517,12.926 11.816,17.855 11.816,27.719c0,5.699 -4.337,10.638 -12.079,10.638c-3.766,0 -6.557,-1.852 -8.597,-3.942c-2.463,-2.633 -3.835,-6.102 -3.834,-9.708Zm-28.708,-106.818c5.733,-0 10.389,4.655 10.389,10.389c-0,5.733 -4.656,10.389 -10.389,10.389c-5.733,-0 -10.389,-4.656 -10.389,-10.389c-0,-5.734 4.656,-10.389 10.389,-10.389Z" style="fill:url(#_Linear32);"/><path d="M1263.35,391.934c5.733,-0 10.389,4.654 10.389,10.387c-0,5.735 -4.656,10.389 -10.389,10.389c-5.734,-0 -10.389,-4.654 -10.389,-10.389c-0,-5.733 4.655,-10.387 10.389,-10.387Zm-0,-74.526c-0,-5.932 -2.357,-11.622 -6.552,-15.816c-4.195,-4.195 -9.884,-6.551 -15.816,-6.551l-0.003,-0l-0,63.532c-0,5.933 2.358,11.623 6.551,15.818c4.196,4.195 9.886,6.552 15.818,6.552l0.002,-0l-0,-63.535Zm6.702,49.883l0,-80.287c0,-7.532 -0.611,-15.823 -4.197,-22.937c-6.517,-12.923 -11.815,-17.852 -11.815,-27.717c0,-5.699 4.336,-10.64 12.08,-10.64c3.766,0 6.555,1.853 8.596,3.945c2.462,2.631 3.834,6.102 3.834,9.707l0,80.287c0,7.532 0.611,15.823 4.197,22.937c6.516,12.923 11.815,17.852 11.815,27.719c-0,5.697 -4.338,10.638 -12.08,10.638c-3.766,-0 -6.555,-1.853 -8.596,-3.945c-2.464,-2.631 -3.834,-6.102 -3.834,-9.707Zm-28.707,-106.817c5.734,0 10.388,4.654 10.388,10.387c-0,5.735 -4.654,10.389 -10.388,10.389c-5.735,0 -10.389,-4.654 -10.389,-10.389c0,-5.733 4.654,-10.387 10.389,-10.387Z" style="fill:url(#_Linear33);"/><path d="M1441.85,128.561c5.733,0 10.389,4.656 10.389,10.389c-0,5.735 -4.656,10.389 -10.389,10.389c-5.734,0 -10.389,-4.654 -10.389,-10.389c-0,-5.733 4.655,-10.389 10.389,-10.389Zm-0,-74.524c-0,-5.932 -2.357,-11.622 -6.552,-15.817c-4.194,-4.194 -9.884,-6.552 -15.816,-6.552l-0.002,-0l0,63.534c0,5.933 2.357,11.623 6.552,15.818c4.194,4.194 9.884,6.552 15.816,6.552l0.002,-0l-0,-63.535Zm6.702,49.883l0,-80.286c0,-7.533 -0.611,-15.824 -4.197,-22.937c-6.515,-12.924 -11.815,-17.853 -11.815,-27.719c0,-5.697 4.336,-10.638 12.08,-10.638c3.766,-0 6.555,1.852 8.596,3.944c2.464,2.631 3.834,6.102 3.834,9.707l0,80.287c0,7.533 0.611,15.823 4.197,22.937c6.516,12.923 11.815,17.852 11.815,27.717c-0,5.699 -4.336,10.64 -12.08,10.64c-3.766,-0 -6.555,-1.853 -8.596,-3.945c-2.464,-2.631 -3.834,-6.102 -3.834,-9.707Zm-28.707,-106.819c5.734,0 10.389,4.656 10.389,10.389c0,5.734 -4.655,10.389 -10.389,10.389c-5.733,0 -10.389,-4.655 -10.389,-10.389c0,-5.733 4.656,-10.389 10.389,-10.389Z" style="fill:url(#_Linear34);"/><path d="M1218.72,457.776c5.734,0 10.389,4.656 10.389,10.389c0,5.733 -4.655,10.389 -10.389,10.389c-5.733,0 -10.389,-4.656 -10.389,-10.389c0,-5.733 4.656,-10.389 10.389,-10.389Zm0,-74.525c0,-5.933 -2.356,-11.621 -6.552,-15.816c-4.193,-4.196 -9.883,-6.552 -15.816,-6.552l-0.001,-0l-0,63.534c-0,5.933 2.356,11.621 6.551,15.816c4.194,4.196 9.884,6.552 15.816,6.552l0.002,0l0,-63.534Zm6.702,49.884l0,-80.287c0,-7.534 -0.61,-15.824 -4.197,-22.937c-6.515,-12.925 -11.814,-17.854 -11.814,-27.718c-0,-5.699 4.335,-10.639 12.079,-10.639c3.766,0 6.555,1.852 8.597,3.943c2.463,2.632 3.833,6.102 3.833,9.708l0,80.286c0,7.534 0.611,15.823 4.197,22.937c6.516,12.924 11.815,17.854 11.815,27.719c0,5.699 -4.335,10.638 -12.079,10.638c-3.767,0 -6.555,-1.853 -8.597,-3.943c-2.463,-2.633 -3.834,-6.103 -3.834,-9.707Zm-28.706,-106.819c5.733,0 10.389,4.656 10.389,10.389c-0,5.734 -4.656,10.389 -10.389,10.389c-5.734,0 -10.389,-4.655 -10.389,-10.389c-0,-5.733 4.655,-10.389 10.389,-10.389Z" style="fill:url(#_Linear35);"/><path d="M1397.23,194.405c5.735,0 10.389,4.654 10.389,10.389c0,5.734 -4.654,10.389 -10.389,10.389c-5.733,0 -10.389,-4.655 -10.389,-10.389c0,-5.735 4.656,-10.389 10.389,-10.389Zm0,-74.525c0,-5.933 -2.356,-11.623 -6.552,-15.816c-4.193,-4.196 -9.883,-6.552 -15.816,-6.552l-0.001,-0l-0,63.534c-0,5.933 2.356,11.621 6.551,15.816c4.194,4.196 9.884,6.552 15.816,6.552l0.002,0l0,-63.534Zm6.702,49.882l0,-80.284c0,-7.535 -0.61,-15.825 -4.197,-22.939c-6.515,-12.924 -11.814,-17.853 -11.814,-27.717c-0,-5.699 4.337,-10.638 12.079,-10.638c3.766,-0 6.555,1.851 8.597,3.942c2.463,2.632 3.833,6.102 3.833,9.708l0,80.286c0,7.535 0.611,15.823 4.197,22.937c6.518,12.924 11.815,17.854 11.815,27.719c-0,5.699 -4.336,10.638 -12.079,10.638c-3.767,0 -6.555,-1.853 -8.597,-3.944c-2.463,-2.632 -3.834,-6.102 -3.834,-9.708Zm-28.706,-106.816c5.733,-0 10.389,4.653 10.389,10.388c-0,5.734 -4.656,10.388 -10.389,10.388c-5.734,-0 -10.389,-4.654 -10.389,-10.388c-0,-5.735 4.655,-10.388 10.389,-10.388Z" style="fill:url(#_Linear36);"/><path d="M1307.98,326.09c5.733,-0 10.388,4.655 10.388,10.389c0,5.733 -4.655,10.389 -10.388,10.389c-5.734,-0 -10.389,-4.656 -10.389,-10.389c-0,-5.734 4.655,-10.389 10.389,-10.389Zm-0,-74.524c-0,-5.932 -2.357,-11.622 -6.552,-15.818c-4.196,-4.193 -9.884,-6.552 -15.818,-6.552l-0,63.535c-0,5.932 2.356,11.622 6.552,15.818c4.195,4.193 9.885,6.55 15.818,6.55l0.001,-0l0,-63.533l-0.001,0Zm6.702,49.883l-0,-80.287c-0,-7.534 -0.611,-15.823 -4.197,-22.937c-6.517,-12.923 -11.817,-17.854 -11.817,-27.719c0,-5.697 4.338,-10.638 12.08,-10.638c3.766,0 6.556,1.853 8.596,3.945c2.464,2.631 3.834,6.102 3.834,9.707l0,80.285c0,7.534 0.611,15.825 4.197,22.938c6.517,12.924 11.816,17.853 11.816,27.718c0,5.698 -4.337,10.638 -12.079,10.638c-3.766,-0 -6.557,-1.851 -8.596,-3.943c-2.464,-2.631 -3.834,-6.102 -3.834,-9.707Zm-28.709,-106.819c5.735,0 10.389,4.656 10.389,10.389c0,5.733 -4.654,10.389 -10.389,10.389c-5.733,-0 -10.389,-4.656 -10.389,-10.389c0,-5.733 4.656,-10.389 10.389,-10.389Z" style="fill:url(#_Linear37);"/><path d="M1129.47,589.461c5.733,-0 10.387,4.655 10.387,10.389c-0,5.735 -4.654,10.389 -10.387,10.389c-5.736,-0 -10.389,-4.654 -10.389,-10.389c-0,-5.734 4.653,-10.389 10.389,-10.389Zm-0,-74.524c-0,-5.932 -2.359,-11.623 -6.552,-15.818c-4.196,-4.194 -9.886,-6.552 -15.818,-6.552l-0,63.535c-0,5.932 2.356,11.622 6.552,15.818c4.195,4.193 9.883,6.551 15.816,6.551l0.003,0l0,-63.534l-0.001,-0Zm6.702,49.883l-0,-80.287c-0,-7.533 -0.611,-15.823 -4.199,-22.937c-6.515,-12.923 -11.815,-17.852 -11.815,-27.719c0,-5.697 4.338,-10.638 12.08,-10.638c3.766,0 6.557,1.853 8.596,3.945c2.464,2.631 3.834,6.101 3.834,9.707l0,80.286c0,7.533 0.611,15.823 4.197,22.937c6.517,12.924 11.816,17.853 11.816,27.718c0,5.698 -4.337,10.639 -12.079,10.639c-3.766,0 -6.557,-1.852 -8.596,-3.944c-2.464,-2.632 -3.834,-6.102 -3.834,-9.707Zm-28.709,-106.819c5.734,-0 10.389,4.656 10.389,10.389c0,5.733 -4.655,10.389 -10.389,10.389c-5.733,-0 -10.389,-4.656 -10.389,-10.389c0,-5.733 4.656,-10.389 10.389,-10.389Z" style="fill:url(#_Linear38);"/><path d="M1486.48,62.719c5.734,-0 10.389,4.655 10.389,10.389c0,5.733 -4.655,10.389 -10.389,10.389c-5.733,-0 -10.389,-4.656 -10.389,-10.389c0,-5.734 4.656,-10.389 10.389,-10.389Zm0,-74.524c0,-5.934 -2.356,-11.622 -6.551,-15.818c-4.196,-4.195 -9.884,-6.551 -15.816,-6.551l-0.004,-0l0,63.534c0,5.932 2.358,11.622 6.552,15.816c4.195,4.196 9.885,6.552 15.818,6.552l0.001,-0l0,-63.533Zm6.703,49.883l-0,-80.287c-0,-7.534 -0.611,-15.823 -4.197,-22.937c-6.518,-12.923 -11.817,-17.854 -11.817,-27.719c0,-5.698 4.338,-10.638 12.08,-10.638c3.768,0 6.556,1.853 8.596,3.943c2.464,2.633 3.836,6.104 3.834,9.707l-0,80.287c-0,7.534 0.612,15.825 4.199,22.937c6.515,12.925 11.814,17.854 11.814,27.719c0,5.699 -4.337,10.638 -12.079,10.638c-3.766,-0 -6.555,-1.851 -8.597,-3.943c-2.463,-2.631 -3.833,-6.102 -3.833,-9.707Zm-28.707,-106.819c5.733,0 10.387,4.656 10.387,10.389c0,5.734 -4.654,10.389 -10.387,10.389c-5.735,0 -10.389,-4.655 -10.389,-10.389c-0,-5.733 4.654,-10.389 10.389,-10.389Z" style="fill:url(#_Linear39);"/><path d="M1531.11,-3.123c5.733,-0 10.389,4.655 10.389,10.389c0,5.733 -4.656,10.388 -10.389,10.388c-5.733,0 -10.389,-4.655 -10.389,-10.388c0,-5.734 4.656,-10.389 10.389,-10.389Zm0,-74.526c0,-5.932 -2.356,-11.621 -6.552,-15.816c-4.195,-4.195 -9.883,-6.552 -15.817,-6.552l-0,63.535c-0,5.932 2.356,11.62 6.551,15.816c4.196,4.195 9.884,6.552 15.818,6.552l0.002,-0l-0,-63.535l-0.002,0Zm6.702,49.884l0,-80.286c0,-7.534 -0.61,-15.825 -4.197,-22.937c-6.517,-12.925 -11.816,-17.854 -11.816,-27.719c-0,-5.699 4.337,-10.638 12.079,-10.638c3.767,-0 6.557,1.851 8.597,3.943c2.463,2.631 3.834,6.102 3.834,9.707l-0,80.287c-0,7.534 0.61,15.823 4.197,22.937c6.517,12.923 11.816,17.854 11.816,27.718c0,5.699 -4.337,10.639 -12.079,10.639c-3.766,-0 -6.557,-1.853 -8.597,-3.943c-2.463,-2.633 -3.834,-6.104 -3.834,-9.708Zm-28.708,-106.818c5.735,-0 10.389,4.655 10.389,10.389c-0,5.733 -4.654,10.389 -10.389,10.389c-5.733,-0 -10.389,-4.656 -10.389,-10.389c-0,-5.734 4.656,-10.389 10.389,-10.389Z" style="fill:url(#_Linear40);"/><path d="M1519.32,523.618c5.733,0 10.389,4.656 10.389,10.389c-0,5.734 -4.656,10.389 -10.389,10.389c-5.734,0 -10.389,-4.655 -10.389,-10.389c-0,-5.733 4.655,-10.389 10.389,-10.389Zm-0,-74.525c-0,-5.932 -2.356,-11.621 -6.552,-15.816c-4.195,-4.196 -9.884,-6.552 -15.816,-6.552l-0.002,0l0,63.535c0,5.932 2.357,11.622 6.55,15.816c4.196,4.195 9.886,6.551 15.818,6.551l0.002,0l-0,-63.534Zm6.702,49.884l0,-80.286c0,-7.535 -0.611,-15.823 -4.197,-22.937c-6.517,-12.924 -11.815,-17.854 -11.815,-27.719c0,-5.699 4.336,-10.638 12.08,-10.638c3.766,-0 6.555,1.853 8.596,3.943c2.464,2.633 3.834,6.103 3.834,9.707l0,80.286c0,7.535 0.611,15.825 4.197,22.937c6.516,12.926 11.815,17.855 11.815,27.719c-0,5.699 -4.338,10.638 -12.079,10.638c-3.767,0 -6.556,-1.851 -8.597,-3.942c-2.464,-2.632 -3.834,-6.102 -3.834,-9.708Zm-28.707,-106.818c5.734,-0 10.389,4.655 10.389,10.389c0,5.733 -4.655,10.389 -10.389,10.389c-5.735,-0 -10.389,-4.656 -10.389,-10.389c0,-5.734 4.654,-10.389 10.389,-10.389Z" style="fill:url(#_Linear41);"/><path d="M1697.82,260.247c5.733,0 10.389,4.656 10.389,10.389c-0,5.734 -4.656,10.389 -10.389,10.389c-5.734,0 -10.389,-4.655 -10.389,-10.389c-0,-5.733 4.655,-10.389 10.389,-10.389Zm-0,-74.525c-0,-5.932 -2.356,-11.621 -6.552,-15.816c-4.193,-4.195 -9.884,-6.552 -15.816,-6.552l-0.002,0l0,63.535c0,5.932 2.357,11.622 6.552,15.816c4.194,4.195 9.884,6.551 15.816,6.551l0.002,0l-0,-63.534Zm6.702,49.884l0,-80.286c0,-7.534 -0.611,-15.825 -4.197,-22.937c-6.515,-12.925 -11.815,-17.854 -11.815,-27.719c0,-5.699 4.336,-10.638 12.08,-10.638c3.766,-0 6.555,1.853 8.596,3.943c2.464,2.633 3.834,6.102 3.834,9.707l-0,80.286c-0,7.535 0.611,15.825 4.197,22.937c6.516,12.926 11.815,17.855 11.815,27.719c-0,5.699 -4.336,10.638 -12.08,10.638c-3.766,0 -6.555,-1.852 -8.596,-3.942c-2.464,-2.633 -3.834,-6.102 -3.834,-9.708Zm-28.707,-106.818c5.734,-0 10.389,4.655 10.389,10.389c0,5.733 -4.655,10.389 -10.389,10.389c-5.733,-0 -10.389,-4.656 -10.389,-10.389c0,-5.734 4.656,-10.389 10.389,-10.389Z" style="fill:url(#_Linear42);"/><path d="M1608.57,391.934c5.734,-0 10.389,4.654 10.389,10.387c0,5.735 -4.655,10.389 -10.389,10.389c-5.735,-0 -10.389,-4.654 -10.389,-10.389c0,-5.733 4.654,-10.387 10.389,-10.387Zm0,-74.526c0,-5.932 -2.358,-11.622 -6.552,-15.816c-4.195,-4.195 -9.885,-6.551 -15.817,-6.551l-0,63.532c-0,5.933 2.356,11.623 6.551,15.818c4.196,4.195 9.884,6.552 15.816,6.552l0.004,-0l-0,-63.535l-0.002,0Zm6.702,49.883l0,-80.287c0,-7.532 -0.61,-15.823 -4.197,-22.937c-6.517,-12.923 -11.816,-17.852 -11.816,-27.717c0,-5.699 4.337,-10.64 12.079,-10.64c3.767,0 6.557,1.853 8.597,3.945c2.464,2.631 3.834,6.102 3.834,9.707l-0,80.287c-0,7.532 0.61,15.823 4.197,22.937c6.517,12.923 11.816,17.852 11.816,27.719c0,5.697 -4.337,10.638 -12.079,10.638c-3.767,-0 -6.557,-1.853 -8.597,-3.945c-2.463,-2.631 -3.834,-6.102 -3.834,-9.707Zm-28.708,-106.817c5.733,0 10.389,4.654 10.389,10.387c-0,5.735 -4.656,10.389 -10.389,10.389c-5.733,0 -10.389,-4.654 -10.389,-10.389c-0,-5.733 4.656,-10.387 10.389,-10.387Z" style="fill:url(#_Linear43);"/><path d="M1787.07,128.561c5.734,0 10.389,4.656 10.389,10.389c0,5.735 -4.655,10.389 -10.389,10.389c-5.733,0 -10.389,-4.654 -10.389,-10.389c0,-5.733 4.656,-10.389 10.389,-10.389Zm0,-74.524c0,-5.932 -2.356,-11.622 -6.552,-15.817c-4.195,-4.194 -9.883,-6.552 -15.816,-6.552l-0.003,-0l-0,63.534c-0,5.933 2.358,11.623 6.552,15.818c4.195,4.194 9.885,6.552 15.817,6.552l0.002,-0l0,-63.535Zm6.702,49.883l0,-80.286c0,-7.533 -0.61,-15.824 -4.197,-22.937c-6.517,-12.924 -11.816,-17.853 -11.816,-27.719c0,-5.697 4.337,-10.638 12.079,-10.638c3.767,-0 6.557,1.852 8.597,3.944c2.464,2.631 3.835,6.102 3.834,9.707l-0,80.287c-0,7.533 0.61,15.823 4.199,22.937c6.515,12.923 11.814,17.852 11.814,27.717c0,5.699 -4.337,10.64 -12.079,10.64c-3.767,-0 -6.557,-1.853 -8.597,-3.945c-2.463,-2.631 -3.834,-6.102 -3.834,-9.707Zm-28.708,-106.819c5.735,0 10.389,4.656 10.389,10.389c-0,5.734 -4.654,10.389 -10.389,10.389c-5.733,0 -10.387,-4.655 -10.387,-10.389c-0,-5.733 4.654,-10.389 10.387,-10.389Z" style="fill:url(#_Linear44);"/><path d="M1563.94,457.776c5.734,0 10.389,4.656 10.389,10.389c0,5.733 -4.655,10.389 -10.389,10.389c-5.733,0 -10.388,-4.656 -10.388,-10.389c-0,-5.733 4.655,-10.389 10.388,-10.389Zm0,-74.525c0,-5.933 -2.356,-11.621 -6.551,-15.816c-4.196,-4.196 -9.884,-6.552 -15.816,-6.552l-0.004,-0l0,63.534c0,5.933 2.358,11.621 6.552,15.816c4.195,4.196 9.885,6.552 15.818,6.552l0.001,0l0,-63.534Zm6.703,49.884l-0,-80.287c-0,-7.534 -0.611,-15.824 -4.197,-22.937c-6.517,-12.925 -11.817,-17.854 -11.817,-27.718c0,-5.699 4.338,-10.639 12.08,-10.639c3.766,0 6.557,1.852 8.596,3.943c2.464,2.632 3.836,6.102 3.834,9.708l0,80.286c0,7.534 0.613,15.823 4.199,22.937c6.515,12.924 11.814,17.854 11.814,27.719c0,5.699 -4.337,10.638 -12.079,10.638c-3.766,0 -6.557,-1.853 -8.596,-3.943c-2.464,-2.633 -3.834,-6.103 -3.834,-9.707Zm-28.709,-106.819c5.735,0 10.389,4.656 10.389,10.389c0,5.734 -4.654,10.389 -10.389,10.389c-5.733,0 -10.387,-4.655 -10.387,-10.389c0,-5.733 4.654,-10.389 10.387,-10.389Z" style="fill:url(#_Linear45);"/><path d="M1742.45,194.405c5.734,0 10.389,4.654 10.389,10.389c0,5.734 -4.655,10.389 -10.389,10.389c-5.733,0 -10.388,-4.655 -10.388,-10.389c-0,-5.735 4.655,-10.389 10.388,-10.389Zm0,-74.525c0,-5.933 -2.356,-11.623 -6.551,-15.816c-4.196,-4.196 -9.884,-6.552 -15.816,-6.552l-0.002,-0l-0,63.534c-0,5.933 2.356,11.621 6.55,15.816c4.195,4.196 9.885,6.552 15.818,6.552l0.001,0l0,-63.534Zm6.703,49.882l-0,-80.284c-0,-7.535 -0.611,-15.825 -4.197,-22.939c-6.518,-12.924 -11.815,-17.853 -11.815,-27.717c0,-5.699 4.336,-10.638 12.079,-10.638c3.767,-0 6.556,1.851 8.597,3.942c2.464,2.632 3.834,6.102 3.834,9.708l-0,80.286c-0,7.535 0.61,15.823 4.197,22.937c6.515,12.924 11.814,17.854 11.814,27.719c0,5.699 -4.337,10.638 -12.079,10.638c-3.766,0 -6.555,-1.853 -8.596,-3.944c-2.464,-2.632 -3.834,-6.102 -3.834,-9.708Zm-28.707,-106.816c5.733,-0 10.389,4.653 10.389,10.388c-0,5.734 -4.656,10.388 -10.389,10.388c-5.735,-0 -10.389,-4.654 -10.389,-10.388c0,-5.735 4.654,-10.388 10.389,-10.388Z" style="fill:url(#_Linear46);"/><path d="M1653.19,326.09c5.735,-0 10.389,4.655 10.389,10.389c0,5.733 -4.654,10.389 -10.389,10.389c-5.733,-0 -10.387,-4.656 -10.387,-10.389c-0,-5.734 4.654,-10.389 10.387,-10.389Zm0,-74.524c0,-5.932 -2.356,-11.622 -6.55,-15.818c-4.195,-4.193 -9.885,-6.552 -15.818,-6.552l-0.001,0l-0,63.535c-0,5.932 2.356,11.622 6.551,15.818c4.196,4.193 9.884,6.55 15.816,6.55l0.002,-0l0,-63.533Zm6.702,49.883l0,-80.287c0,-7.534 -0.61,-15.823 -4.197,-22.937c-6.515,-12.923 -11.814,-17.854 -11.814,-27.719c-0,-5.697 4.337,-10.638 12.079,-10.638c3.766,0 6.555,1.853 8.597,3.945c2.463,2.631 3.833,6.102 3.833,9.707l0,80.285c0,7.534 0.611,15.825 4.198,22.938c6.517,12.924 11.816,17.853 11.816,27.718c-0,5.698 -4.337,10.638 -12.08,10.638c-3.768,-0 -6.556,-1.851 -8.596,-3.943c-2.464,-2.631 -3.836,-6.102 -3.836,-9.707Zm-28.706,-106.819c5.733,0 10.389,4.656 10.389,10.389c-0,5.733 -4.656,10.389 -10.389,10.389c-5.734,-0 -10.389,-4.656 -10.389,-10.389c-0,-5.733 4.655,-10.389 10.389,-10.389Z" style="fill:url(#_Linear47);"/><path d="M1474.69,589.461c5.734,-0 10.389,4.655 10.389,10.389c0,5.735 -4.655,10.389 -10.389,10.389c-5.733,-0 -10.389,-4.654 -10.389,-10.389c0,-5.734 4.656,-10.389 10.389,-10.389Zm0,-74.524c0,-5.932 -2.356,-11.623 -6.552,-15.818c-4.193,-4.194 -9.883,-6.552 -15.816,-6.552l-0.001,0l-0,63.535c-0,5.932 2.356,11.622 6.551,15.818c4.194,4.193 9.884,6.551 15.816,6.551l0.002,0l0,-63.534Zm6.702,49.883l0,-80.287c0,-7.533 -0.61,-15.823 -4.197,-22.937c-6.515,-12.923 -11.814,-17.852 -11.814,-27.719c-0,-5.697 4.335,-10.638 12.079,-10.638c3.766,0 6.555,1.853 8.597,3.945c2.463,2.631 3.833,6.101 3.833,9.707l0,80.286c0,7.533 0.611,15.823 4.198,22.937c6.515,12.924 11.814,17.853 11.814,27.718c0,5.698 -4.335,10.639 -12.079,10.639c-3.766,0 -6.555,-1.852 -8.597,-3.944c-2.463,-2.632 -3.834,-6.102 -3.834,-9.707Zm-28.706,-106.819c5.733,-0 10.389,4.656 10.389,10.389c-0,5.733 -4.656,10.389 -10.389,10.389c-5.734,-0 -10.389,-4.656 -10.389,-10.389c-0,-5.733 4.655,-10.389 10.389,-10.389Z" style="fill:url(#_Linear48);"/><path d="M1831.7,62.719c5.733,-0 10.389,4.655 10.389,10.389c-0,5.733 -4.656,10.389 -10.389,10.389c-5.735,-0 -10.389,-4.656 -10.389,-10.389c-0,-5.734 4.654,-10.389 10.389,-10.389Zm-0,-74.524c-0,-5.934 -2.358,-11.622 -6.552,-15.818c-4.195,-4.195 -9.885,-6.551 -15.818,-6.551l0,63.534c0,5.932 2.357,11.622 6.552,15.816c4.195,4.196 9.884,6.552 15.816,6.552l0.004,-0l-0,-63.533l-0.002,0Zm6.702,49.883l0,-80.287c0,-7.534 -0.611,-15.823 -4.199,-22.937c-6.515,-12.923 -11.814,-17.854 -11.814,-27.719c-0,-5.698 4.337,-10.638 12.079,-10.638c3.766,0 6.557,1.853 8.597,3.943c2.463,2.633 3.833,6.104 3.833,9.707l0,80.287c0,7.534 0.611,15.825 4.197,22.937c6.518,12.925 11.817,17.854 11.817,27.719c-0,5.699 -4.337,10.638 -12.08,10.638c-3.766,-0 -6.556,-1.851 -8.596,-3.943c-2.464,-2.631 -3.834,-6.102 -3.834,-9.707Zm-28.708,-106.819c5.733,0 10.389,4.656 10.389,10.389c-0,5.734 -4.656,10.389 -10.389,10.389c-5.734,0 -10.389,-4.655 -10.389,-10.389c-0,-5.733 4.655,-10.389 10.389,-10.389Z" style="fill:url(#_Linear49);"/><path d="M1876.33,-3.123c5.735,-0 10.389,4.655 10.389,10.389c-0,5.733 -4.654,10.388 -10.389,10.388c-5.734,0 -10.387,-4.655 -10.387,-10.388c-0,-5.734 4.653,-10.389 10.387,-10.389Zm-0,-74.526c-0,-5.932 -2.357,-11.621 -6.55,-15.816c-4.196,-4.195 -9.886,-6.552 -15.818,-6.552l-0.002,0l0,63.535c0,5.932 2.357,11.62 6.552,15.816c4.195,4.195 9.884,6.552 15.816,6.552l0.002,-0l-0,-63.535Zm6.702,49.884l0,-80.286c0,-7.534 -0.611,-15.825 -4.197,-22.937c-6.516,-12.925 -11.815,-17.854 -11.815,-27.719c0,-5.699 4.338,-10.638 12.08,-10.638c3.766,-0 6.555,1.851 8.596,3.943c2.464,2.631 3.834,6.102 3.834,9.707l-0,80.287c-0,7.534 0.611,15.823 4.197,22.937c6.517,12.923 11.815,17.854 11.815,27.718c-0,5.699 -4.336,10.639 -12.08,10.639c-3.766,-0 -6.555,-1.853 -8.596,-3.943c-2.462,-2.633 -3.834,-6.104 -3.834,-9.708Zm-28.707,-106.818c5.734,-0 10.389,4.655 10.389,10.389c0,5.733 -4.655,10.389 -10.389,10.389c-5.733,-0 -10.389,-4.656 -10.389,-10.389c0,-5.734 4.656,-10.389 10.389,-10.389Z" style="fill:url(#_Linear50);"/><path d="M1691.93,523.618c5.734,0 10.389,4.656 10.389,10.389c0,5.734 -4.655,10.389 -10.389,10.389c-5.733,0 -10.388,-4.655 -10.388,-10.389c-0,-5.733 4.655,-10.389 10.388,-10.389Zm0,-74.525c0,-5.932 -2.356,-11.621 -6.551,-15.816c-4.196,-4.196 -9.884,-6.552 -15.816,-6.552l-0.004,0l0,63.535c0,5.932 2.358,11.622 6.552,15.816c4.195,4.195 9.885,6.551 15.818,6.551l0.001,0l0,-63.534Zm6.703,49.884l-0,-80.286c-0,-7.535 -0.611,-15.823 -4.197,-22.937c-6.517,-12.924 -11.817,-17.854 -11.817,-27.719c0,-5.699 4.338,-10.638 12.08,-10.638c3.766,-0 6.556,1.853 8.596,3.943c2.464,2.633 3.836,6.103 3.834,9.707l0,80.286c0,7.535 0.612,15.825 4.199,22.937c6.515,12.926 11.814,17.855 11.814,27.719c0,5.699 -4.337,10.638 -12.079,10.638c-3.766,0 -6.557,-1.851 -8.596,-3.942c-2.464,-2.632 -3.834,-6.102 -3.834,-9.708Zm-28.707,-106.818c5.733,-0 10.387,4.655 10.387,10.389c0,5.733 -4.654,10.389 -10.387,10.389c-5.735,-0 -10.389,-4.656 -10.389,-10.389c0,-5.734 4.654,-10.389 10.389,-10.389Z" style="fill:url(#_Linear51);"/><path d="M1870.43,260.247c5.734,0 10.389,4.656 10.389,10.389c0,5.734 -4.655,10.389 -10.389,10.389c-5.733,0 -10.388,-4.655 -10.388,-10.389c-0,-5.733 4.655,-10.389 10.388,-10.389Zm0,-74.525c0,-5.932 -2.356,-11.621 -6.551,-15.816c-4.196,-4.195 -9.884,-6.552 -15.816,-6.552l-0.002,0l-0,63.535c-0,5.932 2.356,11.622 6.55,15.816c4.195,4.195 9.885,6.551 15.818,6.551l0.001,0l0,-63.534Zm6.703,49.884l-0,-80.286c-0,-7.534 -0.611,-15.825 -4.197,-22.937c-6.517,-12.925 -11.815,-17.854 -11.815,-27.719c0,-5.699 4.336,-10.638 12.079,-10.638c3.767,-0 6.555,1.853 8.597,3.943c2.464,2.633 3.834,6.102 3.834,9.707l-0,80.286c-0,7.535 0.61,15.825 4.197,22.937c6.515,12.926 11.814,17.855 11.814,27.719c0,5.699 -4.335,10.638 -12.079,10.638c-3.766,0 -6.555,-1.852 -8.596,-3.942c-2.464,-2.633 -3.834,-6.102 -3.834,-9.708Zm-28.707,-106.818c5.733,-0 10.389,4.655 10.389,10.389c-0,5.733 -4.656,10.389 -10.389,10.389c-5.735,-0 -10.389,-4.656 -10.389,-10.389c0,-5.734 4.654,-10.389 10.389,-10.389Z" style="fill:url(#_Linear52);"/><path d="M1781.18,391.934c5.735,-0 10.389,4.654 10.389,10.387c0,5.735 -4.654,10.389 -10.389,10.389c-5.733,-0 -10.387,-4.654 -10.387,-10.389c-0,-5.733 4.654,-10.387 10.387,-10.387Zm0,-74.526c0.002,-5.932 -2.356,-11.622 -6.55,-15.816c-4.195,-4.195 -9.885,-6.551 -15.818,-6.551l0,63.532c0,5.933 2.357,11.623 6.552,15.818c4.195,4.195 9.884,6.552 15.816,6.552l0.002,-0l-0,-63.535l-0.002,0Zm6.704,49.883l0,-80.287c0,-7.532 -0.612,-15.823 -4.199,-22.937c-6.515,-12.923 -11.814,-17.852 -11.814,-27.717c-0,-5.699 4.337,-10.64 12.079,-10.64c3.766,0 6.557,1.853 8.597,3.945c2.463,2.631 3.833,6.102 3.833,9.707l0,80.287c0,7.532 0.611,15.823 4.197,22.937c6.518,12.923 11.817,17.852 11.817,27.719c-0,5.697 -4.337,10.638 -12.079,10.638c-3.767,-0 -6.557,-1.853 -8.597,-3.945c-2.464,-2.631 -3.836,-6.102 -3.834,-9.707Zm-28.708,-106.817c5.733,0 10.389,4.654 10.389,10.387c-0,5.735 -4.656,10.389 -10.389,10.389c-5.734,0 -10.389,-4.654 -10.389,-10.389c-0,-5.733 4.655,-10.387 10.389,-10.387Z" style="fill:url(#_Linear53);"/><path d="M1736.55,457.776c5.734,0 10.389,4.656 10.389,10.389c0,5.733 -4.655,10.389 -10.389,10.389c-5.733,0 -10.389,-4.656 -10.389,-10.389c0,-5.733 4.656,-10.389 10.389,-10.389Zm0,-74.525c0,-5.933 -2.356,-11.621 -6.552,-15.816c-4.195,-4.196 -9.885,-6.552 -15.817,-6.552l-0,63.534c-0,5.933 2.356,11.621 6.551,15.816c4.196,4.196 9.884,6.552 15.818,6.552l0.002,0l-0,-63.534l-0.002,-0Zm6.702,49.884l0,-80.287c0,-7.534 -0.61,-15.824 -4.197,-22.937c-6.517,-12.925 -11.816,-17.854 -11.816,-27.718c0,-5.699 4.337,-10.639 12.079,-10.639c3.767,0 6.557,1.852 8.597,3.943c2.464,2.632 3.834,6.102 3.834,9.708l-0,80.286c-0,7.534 0.61,15.823 4.197,22.937c6.517,12.924 11.816,17.854 11.816,27.719c0,5.699 -4.337,10.638 -12.079,10.638c-3.767,0 -6.557,-1.853 -8.597,-3.943c-2.463,-2.633 -3.834,-6.103 -3.834,-9.707Zm-28.708,-106.819c5.733,0 10.389,4.656 10.389,10.389c-0,5.734 -4.656,10.389 -10.389,10.389c-5.733,0 -10.389,-4.655 -10.389,-10.389c-0,-5.733 4.656,-10.389 10.389,-10.389Z" style="fill:url(#_Linear54);"/><path d="M1915.06,194.405c5.734,0 10.389,4.654 10.389,10.389c0,5.734 -4.655,10.389 -10.389,10.389c-5.733,0 -10.389,-4.655 -10.389,-10.389c0,-5.735 4.656,-10.389 10.389,-10.389Zm0,-74.525c0,-5.933 -2.356,-11.623 -6.552,-15.816c-4.195,-4.196 -9.883,-6.552 -15.816,-6.552l-0.003,-0l-0,63.534c-0,5.933 2.358,11.621 6.552,15.816c4.195,4.196 9.885,6.552 15.817,6.552l0.002,0l0,-63.534Zm6.702,49.882l0,-80.284c0,-7.535 -0.61,-15.825 -4.197,-22.939c-6.517,-12.924 -11.816,-17.853 -11.816,-27.717c0,-5.699 4.337,-10.638 12.079,-10.638c3.767,-0 6.557,1.851 8.597,3.942c2.464,2.632 3.835,6.102 3.834,9.708l-0,80.286c-0,7.535 0.612,15.823 4.199,22.937c6.515,12.924 11.814,17.854 11.814,27.719c0,5.699 -4.337,10.638 -12.079,10.638c-3.767,0 -6.557,-1.853 -8.597,-3.944c-2.463,-2.632 -3.834,-6.102 -3.834,-9.708Zm-28.708,-106.816c5.735,-0 10.389,4.653 10.389,10.388c-0,5.734 -4.654,10.388 -10.389,10.388c-5.734,-0 -10.387,-4.654 -10.387,-10.388c-0,-5.735 4.653,-10.388 10.387,-10.388Z" style="fill:url(#_Linear55);"/><path d="M1825.81,326.09c5.733,-0 10.389,4.655 10.389,10.389c-0,5.733 -4.656,10.389 -10.389,10.389c-5.734,-0 -10.389,-4.656 -10.389,-10.389c-0,-5.734 4.655,-10.389 10.389,-10.389Zm-0,-74.524c-0,-5.932 -2.356,-11.622 -6.552,-15.818c-4.194,-4.193 -9.884,-6.552 -15.816,-6.552l-0.002,0l0,63.535c0,5.932 2.357,11.622 6.552,15.818c4.194,4.193 9.884,6.55 15.816,6.55l0.002,-0l-0,-63.533Zm6.702,49.883l-0,-80.287c-0,-7.534 -0.611,-15.823 -4.197,-22.937c-6.515,-12.923 -11.815,-17.854 -11.815,-27.719c0,-5.697 4.336,-10.638 12.08,-10.638c3.766,0 6.555,1.853 8.596,3.945c2.464,2.631 3.834,6.102 3.834,9.707l0,80.285c0,7.534 0.611,15.825 4.197,22.938c6.515,12.924 11.815,17.853 11.815,27.718c-0,5.698 -4.336,10.638 -12.08,10.638c-3.766,-0 -6.555,-1.851 -8.596,-3.943c-2.464,-2.631 -3.834,-6.102 -3.834,-9.707Zm-28.707,-106.819c5.734,0 10.389,4.656 10.389,10.389c0,5.733 -4.655,10.389 -10.389,10.389c-5.733,-0 -10.389,-4.656 -10.389,-10.389c0,-5.733 4.656,-10.389 10.389,-10.389Z" style="fill:url(#_Linear56);"/><path d="M1647.3,589.461c5.733,-0 10.389,4.655 10.389,10.389c-0,5.735 -4.656,10.389 -10.389,10.389c-5.733,-0 -10.389,-4.654 -10.389,-10.389c-0,-5.734 4.656,-10.389 10.389,-10.389Zm-0,-74.524c-0,-5.932 -2.356,-11.623 -6.552,-15.818c-4.193,-4.194 -9.884,-6.552 -15.816,-6.552l-0.002,0l0,63.535c0,5.932 2.357,11.622 6.552,15.818c4.194,4.193 9.884,6.551 15.816,6.551l0.002,0l-0,-63.534Zm6.702,49.883l0,-80.287c0,-7.533 -0.611,-15.823 -4.197,-22.937c-6.515,-12.923 -11.815,-17.852 -11.815,-27.719c0,-5.697 4.336,-10.638 12.08,-10.638c3.766,0 6.555,1.853 8.596,3.945c2.464,2.631 3.834,6.101 3.834,9.707l0,80.286c0,7.533 0.611,15.823 4.197,22.937c6.516,12.924 11.815,17.853 11.815,27.718c-0,5.698 -4.336,10.639 -12.079,10.639c-3.767,0 -6.556,-1.852 -8.597,-3.944c-2.464,-2.632 -3.834,-6.102 -3.834,-9.707Zm-28.707,-106.819c5.734,-0 10.389,4.656 10.389,10.389c0,5.733 -4.655,10.389 -10.389,10.389c-5.733,-0 -10.389,-4.656 -10.389,-10.389c0,-5.733 4.656,-10.389 10.389,-10.389Z" style="fill:url(#_Linear57);"/><path d="M1864.54,523.618c5.734,0 10.389,4.656 10.389,10.389c0,5.734 -4.655,10.389 -10.389,10.389c-5.733,0 -10.389,-4.655 -10.389,-10.389c0,-5.733 4.656,-10.389 10.389,-10.389Zm0,-74.525c0,-5.932 -2.356,-11.621 -6.551,-15.816c-4.196,-4.196 -9.884,-6.552 -15.818,-6.552l-0,63.535c-0,5.932 2.356,11.622 6.551,15.816c4.196,4.195 9.884,6.551 15.818,6.551l0.002,0l-0,-63.534l-0.002,-0Zm6.702,49.884l0,-80.286c0,-7.535 -0.61,-15.823 -4.197,-22.937c-6.517,-12.924 -11.816,-17.854 -11.816,-27.719c0,-5.699 4.337,-10.638 12.079,-10.638c3.767,-0 6.557,1.853 8.597,3.943c2.464,2.633 3.834,6.103 3.834,9.707l-0,80.286c-0,7.535 0.61,15.825 4.197,22.937c6.517,12.926 11.816,17.855 11.816,27.719c0,5.699 -4.337,10.638 -12.079,10.638c-3.766,0 -6.557,-1.851 -8.597,-3.942c-2.463,-2.632 -3.834,-6.102 -3.834,-9.708Zm-28.708,-106.818c5.735,-0 10.389,4.655 10.389,10.389c-0,5.733 -4.654,10.389 -10.389,10.389c-5.733,-0 -10.389,-4.656 -10.389,-10.389c-0,-5.734 4.656,-10.389 10.389,-10.389Z" style="fill:url(#_Linear58);"/><path d="M1909.16,457.776c5.733,0 10.387,4.656 10.387,10.389c0,5.733 -4.654,10.389 -10.387,10.389c-5.735,0 -10.389,-4.656 -10.389,-10.389c-0,-5.733 4.654,-10.389 10.389,-10.389Zm-0,-74.525c-0,-5.933 -2.358,-11.621 -6.552,-15.816c-4.195,-4.196 -9.885,-6.552 -15.818,-6.552l0,63.534c0,5.933 2.357,11.621 6.552,15.816c4.195,4.196 9.884,6.552 15.816,6.552l0.004,0l-0,-63.534l-0.002,-0Zm6.702,49.884l0,-80.287c0,-7.534 -0.612,-15.824 -4.199,-22.937c-6.515,-12.925 -11.814,-17.854 -11.814,-27.718c-0,-5.699 4.337,-10.639 12.079,-10.639c3.766,0 6.557,1.852 8.597,3.943c2.463,2.632 3.833,6.102 3.833,9.708l0,80.286c0,7.534 0.611,15.823 4.197,22.937c6.518,12.924 11.817,17.854 11.817,27.719c-0,5.699 -4.338,10.638 -12.079,10.638c-3.767,0 -6.557,-1.853 -8.597,-3.943c-2.464,-2.633 -3.836,-6.103 -3.834,-9.707Zm-28.708,-106.819c5.733,0 10.389,4.656 10.389,10.389c-0,5.734 -4.656,10.389 -10.389,10.389c-5.734,0 -10.389,-4.655 -10.389,-10.389c-0,-5.733 4.655,-10.389 10.389,-10.389Z" style="fill:url(#_Linear59);"/><path d="M1819.91,589.461c5.733,-0 10.388,4.655 10.388,10.389c0,5.735 -4.655,10.389 -10.388,10.389c-5.734,-0 -10.389,-4.654 -10.389,-10.389c-0,-5.734 4.655,-10.389 10.389,-10.389Zm-0,-74.524c-0,-5.932 -2.357,-11.623 -6.552,-15.818c-4.196,-4.194 -9.884,-6.552 -15.816,-6.552l-0.004,0l0,63.535c0,5.932 2.358,11.622 6.552,15.818c4.195,4.193 9.885,6.551 15.818,6.551l0.002,0l-0,-63.534Zm6.702,49.883l-0,-80.287c-0,-7.533 -0.611,-15.823 -4.197,-22.937c-6.517,-12.923 -11.817,-17.852 -11.817,-27.719c0,-5.697 4.338,-10.638 12.08,-10.638c3.768,0 6.556,1.853 8.596,3.945c2.464,2.631 3.836,6.101 3.836,9.707l-0,80.286c-0,7.533 0.61,15.823 4.197,22.937c6.515,12.924 11.814,17.853 11.814,27.718c0,5.698 -4.337,10.639 -12.079,10.639c-3.766,0 -6.555,-1.852 -8.596,-3.944c-2.464,-2.632 -3.834,-6.102 -3.834,-9.707Zm-28.707,-106.819c5.733,-0 10.387,4.656 10.387,10.389c0,5.733 -4.654,10.389 -10.387,10.389c-5.735,-0 -10.389,-4.656 -10.389,-10.389c0,-5.733 4.654,-10.389 10.389,-10.389Z" style="fill:url(#_Linear60);"/></g><defs><linearGradient id="_Linear1" x1="0" y1="0" x2="1" y2="0" gradientUnits="userSpaceOnUse" gradientTransform="matrix(-631.815,-421.387,421.387,-631.815,1733.01,514.899)"><stop offset="0" style="stop-color:#fff;stop-opacity:1"/><stop offset="1" style="stop-color:#fff;stop-opacity:0"/></linearGradient><linearGradient id="_Linear2" x1="0" y1="0" x2="1" y2="0" gradientUnits="userSpaceOnUse" gradientTransform="matrix(-631.815,-421.387,421.387,-631.815,1733.01,514.899)"><stop offset="0" style="stop-color:#fff;stop-opacity:1"/><stop offset="1" style="stop-color:#fff;stop-opacity:0"/></linearGradient><linearGradient id="_Linear3" x1="0" y1="0" x2="1" y2="0" gradientUnits="userSpaceOnUse" gradientTransform="matrix(-631.815,-421.387,421.387,-631.815,1733.01,514.899)"><stop offset="0" style="stop-color:#fff;stop-opacity:1"/><stop offset="1" style="stop-color:#fff;stop-opacity:0"/></linearGradient><linearGradient id="_Linear4" x1="0" y1="0" x2="1" y2="0" gradientUnits="userSpaceOnUse" gradientTransform="matrix(-631.815,-421.387,421.387,-631.815,1733.01,514.899)"><stop offset="0" style="stop-color:#fff;stop-opacity:1"/><stop offset="1" style="stop-color:#fff;stop-opacity:0"/></linearGradient><linearGradient id="_Linear5" x1="0" y1="0" x2="1" y2="0" gradientUnits="userSpaceOnUse" gradientTransform="matrix(-631.815,-421.387,421.387,-631.815,1733.01,514.899)"><stop offset="0" style="stop-color:#fff;stop-opacity:1"/><stop offset="1" style="stop-color:#fff;stop-opacity:0"/></linearGradient><linearGradient id="_Linear6" x1="0" y1="0" x2="1" y2="0" gradientUnits="userSpaceOnUse" gradientTransform="matrix(-631.815,-421.387,421.387,-631.815,1733.01,514.899)"><stop offset="0" style="stop-color:#fff;stop-opacity:1"/><stop offset="1" style="stop-color:#fff;stop-opacity:0"/></linearGradient><linearGradient id="_Linear7" x1="0" y1="0" x2="1" y2="0" gradientUnits="userSpaceOnUse" gradientTransform="matrix(-631.815,-421.387,421.387,-631.815,1733.01,514.899)"><stop offset="0" style="stop-color:#fff;stop-opacity:1"/><stop offset="1" style="stop-color:#fff;stop-opacity:0"/></linearGradient><linearGradient id="_Linear8" x1="0" y1="0" x2="1" y2="0" gradientUnits="userSpaceOnUse" gradientTransform="matrix(-631.815,-421.387,421.387,-631.815,1733.01,514.899)"><stop offset="0" style="stop-color:#fff;stop-opacity:1"/><stop offset="1" style="stop-color:#fff;stop-opacity:0"/></linearGradient><linearGradient id="_Linear9" x1="0" y1="0" x2="1" y2="0" gradientUnits="userSpaceOnUse" gradientTransform="matrix(-631.815,-421.387,421.387,-631.815,1733.01,514.899)"><stop offset="0" style="stop-color:#fff;stop-opacity:1"/><stop offset="1" style="stop-color:#fff;stop-opacity:0"/></linearGradient><linearGradient id="_Linear10" x1="0" y1="0" x2="1" y2="0" gradientUnits="userSpaceOnUse" gradientTransform="matrix(-631.815,-421.387,421.387,-631.815,1733.01,514.899)"><stop offset="0" style="stop-color:#fff;stop-opacity:1"/><stop offset="1" style="stop-color:#fff;stop-opacity:0"/></linearGradient><linearGradient id="_Linear11" x1="0" y1="0" x2="1" y2="0" gradientUnits="userSpaceOnUse" gradientTransform="matrix(-631.815,-421.387,421.387,-631.815,1733.01,514.899)"><stop offset="0" style="stop-color:#fff;stop-opacity:1"/><stop offset="1" style="stop-color:#fff;stop-opacity:0"/></linearGradient><linearGradient id="_Linear12" x1="0" y1="0" x2="1" y2="0" gradientUnits="userSpaceOnUse" gradientTransform="matrix(-631.815,-421.387,421.387,-631.815,1733.01,514.899)"><stop offset="0" style="stop-color:#fff;stop-opacity:1"/><stop offset="1" style="stop-color:#fff;stop-opacity:0"/></linearGradient><linearGradient id="_Linear13" x1="0" y1="0" x2="1" y2="0" gradientUnits="userSpaceOnUse" gradientTransform="matrix(-631.815,-421.387,421.387,-631.815,1733.01,514.899)"><stop offset="0" style="stop-color:#fff;stop-opacity:1"/><stop offset="1" style="stop-color:#fff;stop-opacity:0"/></linearGradient><linearGradient id="_Linear14" x1="0" y1="0" x2="1" y2="0" gradientUnits="userSpaceOnUse" gradientTransform="matrix(-631.815,-421.387,421.387,-631.815,1733.01,514.899)"><stop offset="0" style="stop-color:#fff;stop-opacity:1"/><stop offset="1" style="stop-color:#fff;stop-opacity:0"/></linearGradient><linearGradient id="_Linear15" x1="0" y1="0" x2="1" y2="0" gradientUnits="userSpaceOnUse" gradientTransform="matrix(-631.815,-421.387,421.387,-631.815,1733.01,514.899)"><stop offset="0" style="stop-color:#fff;stop-opacity:1"/><stop offset="1" style="stop-color:#fff;stop-opacity:0"/></linearGradient><linearGradient id="_Linear16" x1="0" y1="0" x2="1" y2="0" gradientUnits="userSpaceOnUse" gradientTransform="matrix(-631.815,-421.387,421.387,-631.815,1733.01,514.899)"><stop offset="0" style="stop-color:#fff;stop-opacity:1"/><stop offset="1" style="stop-color:#fff;stop-opacity:0"/></linearGradient><linearGradient id="_Linear17" x1="0" y1="0" x2="1" y2="0" gradientUnits="userSpaceOnUse" gradientTransform="matrix(-631.815,-421.387,421.387,-631.815,1733.01,514.899)"><stop offset="0" style="stop-color:#fff;stop-opacity:1"/><stop offset="1" style="stop-color:#fff;stop-opacity:0"/></linearGradient><linearGradient id="_Linear18" x1="0" y1="0" x2="1" y2="0" gradientUnits="userSpaceOnUse" gradientTransform="matrix(-631.815,-421.387,421.387,-631.815,1733.01,514.899)"><stop offset="0" style="stop-color:#fff;stop-opacity:1"/><stop offset="1" style="stop-color:#fff;stop-opacity:0"/></linearGradient><linearGradient id="_Linear19" x1="0" y1="0" x2="1" y2="0" gradientUnits="userSpaceOnUse" gradientTransform="matrix(-631.815,-421.387,421.387,-631.815,1733.01,514.899)"><stop offset="0" style="stop-color:#fff;stop-opacity:1"/><stop offset="1" style="stop-color:#fff;stop-opacity:0"/></linearGradient><linearGradient id="_Linear20" x1="0" y1="0" x2="1" y2="0" gradientUnits="userSpaceOnUse" gradientTransform="matrix(-631.815,-421.387,421.387,-631.815,1733.01,514.899)"><stop offset="0" style="stop-color:#fff;stop-opacity:1"/><stop offset="1" style="stop-color:#fff;stop-opacity:0"/></linearGradient><linearGradient id="_Linear21" x1="0" y1="0" x2="1" y2="0" gradientUnits="userSpaceOnUse" gradientTransform="matrix(-631.815,-421.387,421.387,-631.815,1733.01,514.899)"><stop offset="0" style="stop-color:#fff;stop-opacity:1"/><stop offset="1" style="stop-color:#fff;stop-opacity:0"/></linearGradient><linearGradient id="_Linear22" x1="0" y1="0" x2="1" y2="0" gradientUnits="userSpaceOnUse" gradientTransform="matrix(-631.815,-421.387,421.387,-631.815,1733.01,514.899)"><stop offset="0" style="stop-color:#fff;stop-opacity:1"/><stop offset="1" style="stop-color:#fff;stop-opacity:0"/></linearGradient><linearGradient id="_Linear23" x1="0" y1="0" x2="1" y2="0" gradientUnits="userSpaceOnUse" gradientTransform="matrix(-631.815,-421.387,421.387,-631.815,1733.01,514.899)"><stop offset="0" style="stop-color:#fff;stop-opacity:1"/><stop offset="1" style="stop-color:#fff;stop-opacity:0"/></linearGradient><linearGradient id="_Linear24" x1="0" y1="0" x2="1" y2="0" gradientUnits="userSpaceOnUse" gradientTransform="matrix(-631.815,-421.387,421.387,-631.815,1733.01,514.899)"><stop offset="0" style="stop-color:#fff;stop-opacity:1"/><stop offset="1" style="stop-color:#fff;stop-opacity:0"/></linearGradient><linearGradient id="_Linear25" x1="0" y1="0" x2="1" y2="0" gradientUnits="userSpaceOnUse" gradientTransform="matrix(-631.815,-421.387,421.387,-631.815,1733.01,514.899)"><stop offset="0" style="stop-color:#fff;stop-opacity:1"/><stop offset="1" style="stop-color:#fff;stop-opacity:0"/></linearGradient><linearGradient id="_Linear26" x1="0" y1="0" x2="1" y2="0" gradientUnits="userSpaceOnUse" gradientTransform="matrix(-631.815,-421.387,421.387,-631.815,1733.01,514.899)"><stop offset="0" style="stop-color:#fff;stop-opacity:1"/><stop offset="1" style="stop-color:#fff;stop-opacity:0"/></linearGradient><linearGradient id="_Linear27" x1="0" y1="0" x2="1" y2="0" gradientUnits="userSpaceOnUse" gradientTransform="matrix(-631.815,-421.387,421.387,-631.815,1733.01,514.899)"><stop offset="0" style="stop-color:#fff;stop-opacity:1"/><stop offset="1" style="stop-color:#fff;stop-opacity:0"/></linearGradient><linearGradient id="_Linear28" x1="0" y1="0" x2="1" y2="0" gradientUnits="userSpaceOnUse" gradientTransform="matrix(-631.815,-421.387,421.387,-631.815,1733.01,514.899)"><stop offset="0" style="stop-color:#fff;stop-opacity:1"/><stop offset="1" style="stop-color:#fff;stop-opacity:0"/></linearGradient><linearGradient id="_Linear29" x1="0" y1="0" x2="1" y2="0" gradientUnits="userSpaceOnUse" gradientTransform="matrix(-631.815,-421.387,421.387,-631.815,1733.01,514.899)"><stop offset="0" style="stop-color:#fff;stop-opacity:1"/><stop offset="1" style="stop-color:#fff;stop-opacity:0"/></linearGradient><linearGradient id="_Linear30" x1="0" y1="0" x2="1" y2="0" gradientUnits="userSpaceOnUse" gradientTransform="matrix(-631.815,-421.387,421.387,-631.815,1733.01,514.899)"><stop offset="0" style="stop-color:#fff;stop-opacity:1"/><stop offset="1" style="stop-color:#fff;stop-opacity:0"/></linearGradient><linearGradient id="_Linear31" x1="0" y1="0" x2="1" y2="0" gradientUnits="userSpaceOnUse" gradientTransform="matrix(-631.815,-421.387,421.387,-631.815,1733.01,514.899)"><stop offset="0" style="stop-color:#fff;stop-opacity:1"/><stop offset="1" style="stop-color:#fff;stop-opacity:0"/></linearGradient><linearGradient id="_Linear32" x1="0" y1="0" x2="1" y2="0" gradientUnits="userSpaceOnUse" gradientTransform="matrix(-631.815,-421.387,421.387,-631.815,1733.01,514.899)"><stop offset="0" style="stop-color:#fff;stop-opacity:1"/><stop offset="1" style="stop-color:#fff;stop-opacity:0"/></linearGradient><linearGradient id="_Linear33" x1="0" y1="0" x2="1" y2="0" gradientUnits="userSpaceOnUse" gradientTransform="matrix(-631.815,-421.387,421.387,-631.815,1733.01,514.899)"><stop offset="0" style="stop-color:#fff;stop-opacity:1"/><stop offset="1" style="stop-color:#fff;stop-opacity:0"/></linearGradient><linearGradient id="_Linear34" x1="0" y1="0" x2="1" y2="0" gradientUnits="userSpaceOnUse" gradientTransform="matrix(-631.815,-421.387,421.387,-631.815,1733.01,514.899)"><stop offset="0" style="stop-color:#fff;stop-opacity:1"/><stop offset="1" style="stop-color:#fff;stop-opacity:0"/></linearGradient><linearGradient id="_Linear35" x1="0" y1="0" x2="1" y2="0" gradientUnits="userSpaceOnUse" gradientTransform="matrix(-631.815,-421.387,421.387,-631.815,1733.01,514.899)"><stop offset="0" style="stop-color:#fff;stop-opacity:1"/><stop offset="1" style="stop-color:#fff;stop-opacity:0"/></linearGradient><linearGradient id="_Linear36" x1="0" y1="0" x2="1" y2="0" gradientUnits="userSpaceOnUse" gradientTransform="matrix(-631.815,-421.387,421.387,-631.815,1733.01,514.899)"><stop offset="0" style="stop-color:#fff;stop-opacity:1"/><stop offset="1" style="stop-color:#fff;stop-opacity:0"/></linearGradient><linearGradient id="_Linear37" x1="0" y1="0" x2="1" y2="0" gradientUnits="userSpaceOnUse" gradientTransform="matrix(-631.815,-421.387,421.387,-631.815,1733.01,514.899)"><stop offset="0" style="stop-color:#fff;stop-opacity:1"/><stop offset="1" style="stop-color:#fff;stop-opacity:0"/></linearGradient><linearGradient id="_Linear38" x1="0" y1="0" x2="1" y2="0" gradientUnits="userSpaceOnUse" gradientTransform="matrix(-631.815,-421.387,421.387,-631.815,1733.01,514.899)"><stop offset="0" style="stop-color:#fff;stop-opacity:1"/><stop offset="1" style="stop-color:#fff;stop-opacity:0"/></linearGradient><linearGradient id="_Linear39" x1="0" y1="0" x2="1" y2="0" gradientUnits="userSpaceOnUse" gradientTransform="matrix(-631.815,-421.387,421.387,-631.815,1733.01,514.899)"><stop offset="0" style="stop-color:#fff;stop-opacity:1"/><stop offset="1" style="stop-color:#fff;stop-opacity:0"/></linearGradient><linearGradient id="_Linear40" x1="0" y1="0" x2="1" y2="0" gradientUnits="userSpaceOnUse" gradientTransform="matrix(-631.815,-421.387,421.387,-631.815,1733.01,514.899)"><stop offset="0" style="stop-color:#fff;stop-opacity:1"/><stop offset="1" style="stop-color:#fff;stop-opacity:0"/></linearGradient><linearGradient id="_Linear41" x1="0" y1="0" x2="1" y2="0" gradientUnits="userSpaceOnUse" gradientTransform="matrix(-631.815,-421.387,421.387,-631.815,1733.01,514.899)"><stop offset="0" style="stop-color:#fff;stop-opacity:1"/><stop offset="1" style="stop-color:#fff;stop-opacity:0"/></linearGradient><linearGradient id="_Linear42" x1="0" y1="0" x2="1" y2="0" gradientUnits="userSpaceOnUse" gradientTransform="matrix(-631.815,-421.387,421.387,-631.815,1733.01,514.899)"><stop offset="0" style="stop-color:#fff;stop-opacity:1"/><stop offset="1" style="stop-color:#fff;stop-opacity:0"/></linearGradient><linearGradient id="_Linear43" x1="0" y1="0" x2="1" y2="0" gradientUnits="userSpaceOnUse" gradientTransform="matrix(-631.815,-421.387,421.387,-631.815,1733.01,514.899)"><stop offset="0" style="stop-color:#fff;stop-opacity:1"/><stop offset="1" style="stop-color:#fff;stop-opacity:0"/></linearGradient><linearGradient id="_Linear44" x1="0" y1="0" x2="1" y2="0" gradientUnits="userSpaceOnUse" gradientTransform="matrix(-631.815,-421.387,421.387,-631.815,1733.01,514.899)"><stop offset="0" style="stop-color:#fff;stop-opacity:1"/><stop offset="1" style="stop-color:#fff;stop-opacity:0"/></linearGradient><linearGradient id="_Linear45" x1="0" y1="0" x2="1" y2="0" gradientUnits="userSpaceOnUse" gradientTransform="matrix(-631.815,-421.387,421.387,-631.815,1733.01,514.899)"><stop offset="0" style="stop-color:#fff;stop-opacity:1"/><stop offset="1" style="stop-color:#fff;stop-opacity:0"/></linearGradient><linearGradient id="_Linear46" x1="0" y1="0" x2="1" y2="0" gradientUnits="userSpaceOnUse" gradientTransform="matrix(-631.815,-421.387,421.387,-631.815,1733.01,514.899)"><stop offset="0" style="stop-color:#fff;stop-opacity:1"/><stop offset="1" style="stop-color:#fff;stop-opacity:0"/></linearGradient><linearGradient id="_Linear47" x1="0" y1="0" x2="1" y2="0" gradientUnits="userSpaceOnUse" gradientTransform="matrix(-631.815,-421.387,421.387,-631.815,1733.01,514.899)"><stop offset="0" style="stop-color:#fff;stop-opacity:1"/><stop offset="1" style="stop-color:#fff;stop-opacity:0"/></linearGradient><linearGradient id="_Linear48" x1="0" y1="0" x2="1" y2="0" gradientUnits="userSpaceOnUse" gradientTransform="matrix(-631.815,-421.387,421.387,-631.815,1733.01,514.899)"><stop offset="0" style="stop-color:#fff;stop-opacity:1"/><stop offset="1" style="stop-color:#fff;stop-opacity:0"/></linearGradient><linearGradient id="_Linear49" x1="0" y1="0" x2="1" y2="0" gradientUnits="userSpaceOnUse" gradientTransform="matrix(-631.815,-421.387,421.387,-631.815,1733.01,514.899)"><stop offset="0" style="stop-color:#fff;stop-opacity:1"/><stop offset="1" style="stop-color:#fff;stop-opacity:0"/></linearGradient><linearGradient id="_Linear50" x1="0" y1="0" x2="1" y2="0" gradientUnits="userSpaceOnUse" gradientTransform="matrix(-631.815,-421.387,421.387,-631.815,1733.01,514.899)"><stop offset="0" style="stop-color:#fff;stop-opacity:1"/><stop offset="1" style="stop-color:#fff;stop-opacity:0"/></linearGradient><linearGradient id="_Linear51" x1="0" y1="0" x2="1" y2="0" gradientUnits="userSpaceOnUse" gradientTransform="matrix(-631.815,-421.387,421.387,-631.815,1733.01,514.899)"><stop offset="0" style="stop-color:#fff;stop-opacity:1"/><stop offset="1" style="stop-color:#fff;stop-opacity:0"/></linearGradient><linearGradient id="_Linear52" x1="0" y1="0" x2="1" y2="0" gradientUnits="userSpaceOnUse" gradientTransform="matrix(-631.815,-421.387,421.387,-631.815,1733.01,514.899)"><stop offset="0" style="stop-color:#fff;stop-opacity:1"/><stop offset="1" style="stop-color:#fff;stop-opacity:0"/></linearGradient><linearGradient id="_Linear53" x1="0" y1="0" x2="1" y2="0" gradientUnits="userSpaceOnUse" gradientTransform="matrix(-631.815,-421.387,421.387,-631.815,1733.01,514.899)"><stop offset="0" style="stop-color:#fff;stop-opacity:1"/><stop offset="1" style="stop-color:#fff;stop-opacity:0"/></linearGradient><linearGradient id="_Linear54" x1="0" y1="0" x2="1" y2="0" gradientUnits="userSpaceOnUse" gradientTransform="matrix(-631.815,-421.387,421.387,-631.815,1733.01,514.899)"><stop offset="0" style="stop-color:#fff;stop-opacity:1"/><stop offset="1" style="stop-color:#fff;stop-opacity:0"/></linearGradient><linearGradient id="_Linear55" x1="0" y1="0" x2="1" y2="0" gradientUnits="userSpaceOnUse" gradientTransform="matrix(-631.815,-421.387,421.387,-631.815,1733.01,514.899)"><stop offset="0" style="stop-color:#fff;stop-opacity:1"/><stop offset="1" style="stop-color:#fff;stop-opacity:0"/></linearGradient><linearGradient id="_Linear56" x1="0" y1="0" x2="1" y2="0" gradientUnits="userSpaceOnUse" gradientTransform="matrix(-631.815,-421.387,421.387,-631.815,1733.01,514.899)"><stop offset="0" style="stop-color:#fff;stop-opacity:1"/><stop offset="1" style="stop-color:#fff;stop-opacity:0"/></linearGradient><linearGradient id="_Linear57" x1="0" y1="0" x2="1" y2="0" gradientUnits="userSpaceOnUse" gradientTransform="matrix(-631.815,-421.387,421.387,-631.815,1733.01,514.899)"><stop offset="0" style="stop-color:#fff;stop-opacity:1"/><stop offset="1" style="stop-color:#fff;stop-opacity:0"/></linearGradient><linearGradient id="_Linear58" x1="0" y1="0" x2="1" y2="0" gradientUnits="userSpaceOnUse" gradientTransform="matrix(-631.815,-421.387,421.387,-631.815,1733.01,514.899)"><stop offset="0" style="stop-color:#fff;stop-opacity:1"/><stop offset="1" style="stop-color:#fff;stop-opacity:0"/></linearGradient><linearGradient id="_Linear59" x1="0" y1="0" x2="1" y2="0" gradientUnits="userSpaceOnUse" gradientTransform="matrix(-631.815,-421.387,421.387,-631.815,1733.01,514.899)"><stop offset="0" style="stop-color:#fff;stop-opacity:1"/><stop offset="1" style="stop-color:#fff;stop-opacity:0"/></linearGradient><linearGradient id="_Linear60" x1="0" y1="0" x2="1" y2="0" gradientUnits="userSpaceOnUse" gradientTransform="matrix(-631.815,-421.387,421.387,-631.815,1733.01,514.899)"><stop offset="0" style="stop-color:#fff;stop-opacity:1"/><stop offset="1" style="stop-color:#fff;stop-opacity:0"/></linearGradient></defs></svg>