<?xml version="1.0" encoding="UTF-8" standalone="no"?><!DOCTYPE svg PUBLIC "-//W3C//DTD SVG 1.1//EN" "http://www.w3.org/Graphics/SVG/1.1/DTD/svg11.dtd"><svg width="100%" height="100%" viewBox="0 0 1920 2432" version="1.1" xmlns="http://www.w3.org/2000/svg" xmlns:xlink="http://www.w3.org/1999/xlink" xml:space="preserve" xmlns:serif="http://www.serif.com/" style="fill-rule:evenodd;clip-rule:evenodd;stroke-linejoin:round;stroke-miterlimit:2;"><path d="M1919.87,2016.79c-30.853,-75.139 -72.082,-145.864 -131.342,-200.921c-34.03,-31.621 -73.454,-56.968 -115.695,-75.825c-54.812,-24.469 -113.396,-38.69 -172.673,-49.783c-23.215,-4.454 -46.616,-8.204 -69.967,-12.234c-22.883,-3.939 -45.84,-7.729 -68.648,-11.571l-1.478,-0.249c-85.111,-14.969 -169.838,-32.043 -252.482,-59.053c-72.501,-23.699 -143.301,-54.824 -209.275,-94.131c-64.176,-37.748 -123.33,-82.137 -178.286,-132.02c-86.301,-77.471 -162.29,-168.158 -224.283,-267.347c-30.461,-48.737 -57.993,-99.667 -82.065,-152.116c-37.126,-80.902 -66.242,-164.953 -88.357,-251.865c-17.551,-68.961 -30.794,-139.267 -39.72,-210.061c-8.435,-66.906 -13.352,-134.073 -14.679,-201.365c-1.154,-58.577 -0.003,-116.772 4.096,-174.887c2.554,-39.427 6.069,-79.038 12.291,-117.531c0.161,-0.987 0.413,-2.461 0.413,-2.461l0.59,-1.514l1.104,-1.133l1.448,-0.642c0.548,-0.012 1.106,-0.134 1.645,-0.037l1.521,0.603l1.136,1.103l0.639,1.445l0.033,1.624c-0.081,0.445 -0.163,0.89 -0.239,1.336c-6.92,39.206 -10.765,78.371 -13.782,117.688c-3.736,52.561 -5.172,106.376 -4.409,159.409c0.952,66.089 5.575,131.016 13.543,196.115c8.802,71.888 22.227,143.656 40.254,213.944c34.168,133.185 87.758,266.15 161.424,386.293c64.003,104.4 144.487,199.735 236.158,280.194c28.92,25.38 59.02,48.776 91.014,71.021c30.001,20.863 61.197,39.671 92.918,56.526c69.821,37.088 142.442,63.804 218.223,83.092c50.608,12.876 102.07,22.266 153.906,29.858c27.289,4.118 54.791,7.748 82.262,11.246l1.218,0.155c25.256,3.39 50.587,6.69 75.938,10.207l0.593,0.086c21.427,3.223 42.823,6.608 64.147,10.409c87.127,15.537 172.17,39.148 246.814,85.385c53.981,33.44 100.607,78.514 137.643,130.226c9.352,13.057 18.138,26.489 26.409,40.237l-0,128.544Z" style="fill:#f5f5f5;"/><path d="M1919.87,1515.25l-0,27.784c-38.046,63.246 -78.538,125.528 -121.198,185.653c-58.575,82.557 -122.116,162.152 -191.37,236.399c-76.284,81.789 -157.912,156.006 -247.608,220.979c-115.619,83.756 -243.154,150.638 -379.192,192.649c-140.084,43.268 -288.277,59.544 -434.26,48.373c-134.537,-10.292 -267.665,-42.671 -390.056,-96.428c-23.293,-10.232 -46.608,-20.982 -68.394,-33.801l-0.01,-0.006c-4.051,-2.981 -5.317,-3.433 -8.322,-7.52c-5.442,-7.389 -6.917,-17.523 -3.842,-26.171c0.646,-1.811 1.639,-3.478 2.457,-5.218l0.01,-0.011c1.153,-1.548 2.162,-3.215 3.459,-4.638c6.184,-6.781 15.828,-10.275 24.923,-8.923c5.011,0.749 6.002,1.657 10.523,3.853c12.354,7.65 25.319,14.283 38.329,20.806c46.762,23.445 95.447,42.841 145.221,59.114c118.709,38.805 243.43,58.777 367.962,58.026c119.409,-0.721 238.217,-20.948 351.485,-59.05c104.609,-35.194 203.458,-85.025 296.138,-146.378c95.369,-63.134 181.997,-137.018 261.764,-217.971c75.305,-76.419 143.442,-158.466 206.545,-244.351c48.422,-65.899 93.289,-133.976 135.436,-203.17Z" style="fill:#f5f5f5;"/><path d="M1919.87,903.947l-0,201.384c-5.736,12.941 -11.85,25.711 -18.35,38.282c-20.953,40.524 -46.189,78.687 -74.905,113.414l-0.142,0.169c-13.916,16.359 -28.646,32.028 -44.135,46.89c-52.988,50.842 -116.107,91.183 -182.713,121.902c-53.149,24.509 -109.108,43.272 -166.153,57.009c-0.642,0.16 -1.282,0.318 -1.925,0.475c-56.586,13.898 -114.309,23.36 -172.666,29.398c-93.223,10.295 -186.074,11.387 -279.697,6.581c-116.618,-5.99 -233.689,-20.645 -348.997,-41.735c-55.829,-10.214 -111.167,-21.593 -165.964,-34.312c-54.697,-12.698 -109.051,-26.423 -162.915,-41.384c-42.046,-11.514 -83.391,-23.638 -124.605,-36.563c-31.501,-9.893 -62.983,-19.539 -93.678,-30.547l-1.397,-0.848l-0.92,-1.279l-0.379,-1.539l0.249,-1.63l0.857,-1.393c1.275,-0.922 1.293,-0.93 2.82,-1.306l1.606,0.252c0.7,0.263 1.403,0.524 2.107,0.784c29.278,10.819 58.677,20.642 88.226,30.201l0.388,0.124c40.086,12.634 80.225,24.456 120.879,35.697c52.091,14.401 104.185,27.213 157.233,39.223l1.176,0.267c54.197,12.104 108.496,22.944 163.411,32.437c112.195,19.405 225.811,32.569 339.956,37.318c94.904,3.953 189.669,1.336 283.15,-10.157c4.439,-0.542 8.868,-1.111 13.301,-1.696l0.566,-0.075c18.715,-2.627 37.372,-5.636 55.954,-9.066c9.943,-1.836 19.863,-3.799 29.762,-5.88l0.572,-0.122c27.771,-6.093 55.33,-13.207 82.498,-21.427l0.609,-0.185c49.83,-15.545 98.622,-35.051 144.765,-59.298c43.154,-22.68 84.531,-50.088 122.191,-82.155c32.961,-28.068 62.932,-58.875 89.151,-92.466c10.465,-13.019 20.373,-26.558 29.755,-40.481c44.033,-65.325 75.76,-139.954 95.329,-216.657c5.037,-19.737 9.359,-39.614 13.03,-59.606Z" style="fill:#f5f5f5;"/></svg>