<?xml version="1.0" encoding="UTF-8" standalone="no"?><!DOCTYPE svg PUBLIC "-//W3C//DTD SVG 1.1//EN" "http://www.w3.org/Graphics/SVG/1.1/DTD/svg11.dtd"><svg width="100%" height="100%" viewBox="0 0 1500 1500" version="1.1" xmlns="http://www.w3.org/2000/svg" xmlns:xlink="http://www.w3.org/1999/xlink" xml:space="preserve" xmlns:serif="http://www.serif.com/" style="fill-rule:evenodd;clip-rule:evenodd;stroke-linejoin:round;stroke-miterlimit:2;"><rect id="Artboard1" x="0" y="0" width="1500" height="1500" style="fill:none;"/><g><path d="M754.681,1261.42c56.432,-0.154 113.743,-9.835 169.795,-30.057c17.479,-6.311 34.388,-13.515 50.739,-21.494l-75.411,-154.052c-10.813,5.277 -21.974,10.014 -33.549,14.196c-94.706,34.18 -194.74,22.958 -276.311,-22.447l-83.367,149.624c74.283,41.347 158.691,63.992 245.297,64.23l2.807,0Zm-196.493,-233.955c-53.37,-38.097 -96.113,-92.209 -120.081,-158.563c-6.348,-17.617 -11.104,-35.412 -14.394,-53.263l-168.681,30.889c4.934,27.009 12.111,53.958 21.739,80.601c36.173,100.246 100.916,182.079 181.749,239.695l99.668,-139.359Zm638.303,-29.48l-150.279,-82.148c-11.974,21.934 -26.418,42.568 -43.112,61.45l128.248,113.659c25.24,-28.539 47.046,-59.765 65.143,-92.961Zm-557.252,-557.215c113.394,-40.923 234.408,-16.764 322.25,53.236l106.929,-133.89c-88.534,-70.457 -199.36,-110.259 -314.073,-110.746l-4.209,0c-56.207,0.235 -113.297,9.919 -169.121,30.067c-166.251,59.97 -281.914,198.557 -320.34,358.809l166.684,39.672c25.314,-105.919 101.769,-197.42 211.88,-237.148Zm594.248,156.771c-1.528,-4.632 -3.092,-9.238 -4.757,-13.873c-26.388,-73.086 -67.962,-136.412 -119.879,-187.681l-120.638,121.756c34.256,33.91 61.712,75.787 79.157,124.132c1.085,3.068 2.149,6.113 3.149,9.168l162.968,-53.502Z" style="fill:#55575a;fill-opacity:0.07;fill-rule:nonzero;"/><path d="M1029.12,757.406l0,-3.736c-0.389,-58.01 -18.875,-116.355 -56.697,-165.925l-4.34,3.316c90.866,119.128 67.882,289.984 -51.239,380.864l3.313,4.337c70.893,-54.079 108.413,-135.915 108.963,-218.856Zm-493.116,163.297c-90.876,-119.131 -67.912,-289.984 51.212,-380.857l-3.307,-4.334c-121.517,92.693 -144.955,266.98 -52.249,388.507l4.344,-3.316Z" style="fill:#55575a;fill-opacity:0.07;fill-rule:nonzero;"/><path d="M1082.28,1215.19c253.253,-193.2 302.122,-556.467 108.912,-809.72c-113.119,-148.279 -284.569,-226.496 -458.061,-227.094l-3.917,0c-121.565,0.399 -243.891,38.919 -347.765,118.164c-148.373,113.186 -226.59,284.704 -227.091,458.303l0,3.38c0.356,121.635 38.873,244.113 118.165,348.061c113.548,148.832 285.848,227.076 460.004,227.09c122.209,0.007 245.311,-38.51 349.753,-118.184Zm99.674,-802.684c189.625,248.557 141.847,603.828 -106.724,793.452c-248.581,189.638 -603.831,141.884 -793.473,-106.714c-189.631,-248.58 -141.84,-603.814 106.748,-793.466c102.524,-78.214 223.23,-116.039 342.948,-116.046l0.03,0c170.528,-0.006 339.054,76.721 450.471,222.774Z" style="fill:#55575a;fill-opacity:0.09;fill-rule:nonzero;"/><path d="M734.714,1408.89c137.493,-0.443 275.872,-44.015 393.372,-133.649c286.405,-218.494 341.669,-629.253 123.165,-915.676c-127.731,-167.439 -321.192,-255.871 -517.084,-256.798l-6.217,0c-137.163,0.645 -275.167,44.217 -392.371,133.633c-167.939,128.113 -256.405,322.33 -256.821,518.809l-0,2.803c0.298,137.711 43.86,276.406 133.632,394.08c127.933,167.704 321.777,256.153 517.987,256.798l4.337,-0Zm512.106,-1045.96c216.658,283.989 161.881,691.278 -122.078,907.908c-283.995,216.65 -691.294,161.873 -907.954,-122.112c-216.634,-283.972 -161.834,-691.254 122.155,-907.907c117.076,-89.312 255.137,-132.495 392.133,-132.498l0.02,-0c195.284,-0.007 388.41,87.721 515.724,254.609Z" style="fill:#55575a;fill-opacity:0.09;fill-rule:nonzero;"/><path d="M732.495,1104.48c73.697,-0.05 147.916,-23.303 210.897,-71.356c89.517,-68.292 136.734,-171.77 137.087,-276.527l-0,-2.39c-0.255,-73.37 -23.515,-147.247 -71.346,-209.947c-68.389,-89.644 -172.089,-136.868 -276.987,-137.093l-1.399,0c-73.555,0.141 -147.621,23.394 -210.471,71.336c-152.921,116.661 -182.411,335.963 -65.764,488.87c68.473,89.759 172.33,136.993 277.356,137.107l0.627,0Zm274.281,-558.424c115.67,151.619 86.409,369.068 -65.183,484.725c-151.625,115.66 -369.054,86.401 -484.718,-65.217c-115.663,-151.605 -86.435,-369.038 65.187,-484.718c62.504,-47.677 136.204,-70.728 209.349,-70.728c104.264,-0 207.392,46.831 275.365,135.938Z" style="fill:#55575a;fill-opacity:0.09;fill-rule:nonzero;"/><path d="M671.519,1142.07c-93.542,-14.612 -181.941,-63.045 -245.288,-142.585l-109.715,87.476c85.948,107.909 206.167,173.612 333.398,193.464l21.605,-138.355Zm373.458,42.873l-82.713,-113.343c-23.581,17.19 -48.439,31.416 -74.142,42.628l56.052,128.594c34.972,-15.247 68.792,-34.512 100.803,-57.879Zm182.397,-620.478l-130.829,50.521c35.633,92.168 34.454,193.746 -0.816,283.794l130.44,51.232c47.828,-122.371 49.48,-260.417 1.205,-385.547Zm-884.225,233.082c-6.636,-62.544 1.897,-126.002 24.841,-184.592l-130.44,-51.215c-24.146,61.789 -36.533,127.576 -36.67,193.666l-0,2.313c0.036,18.267 1.017,36.552 2.937,54.786l139.332,-14.958Zm875.635,-253.995c-15.267,-34.965 -34.485,-68.771 -57.855,-100.776l-113.34,82.693c17.197,23.551 31.363,48.446 42.628,74.156l128.567,-56.073Zm-545.107,-174.23l-20.853,-138.607c-82.226,12.256 -162.659,43.948 -234.086,96.096l82.72,113.364c52.595,-38.446 111.769,-61.816 172.219,-70.853Zm117.748,-141.007c-38.486,-4.347 -77.486,-4.549 -116.19,-0.467l14.937,139.322c28.517,-3.021 57.198,-2.86 85.543,0.323l15.71,-139.178Z" style="fill:#55575a;fill-opacity:0.09;fill-rule:nonzero;"/><path d="M733.607,1452.63c77.999,-0.118 157.231,-13.438 234.713,-41.4c228.906,-82.575 388.165,-273.391 441.082,-494.043l-229.514,-54.619c-34.85,145.825 -140.128,271.823 -291.743,326.523c-156.116,56.348 -322.753,23.082 -443.693,-73.303l-147.231,184.357c122.383,97.389 275.694,152.237 434.308,152.485l2.078,-0Zm-325.953,-369.521c-47.167,-46.697 -84.968,-104.351 -109.007,-170.917c-1.48,-4.229 -2.95,-8.422 -4.323,-12.628l-224.388,73.669c2.105,6.375 4.263,12.719 6.556,19.097c36.321,100.628 93.572,187.832 165.049,258.426l166.113,-167.647Zm1009.51,-452.717c-6.795,-37.183 -16.681,-74.283 -29.94,-110.967c-49.802,-138.036 -138.936,-250.705 -250.242,-330.034l-137.235,191.88c73.495,52.447 132.34,126.959 165.341,218.326c8.745,24.253 15.287,48.761 19.819,73.343l232.257,-42.548Zm-1030.01,-180.034l-176.59,-156.492c-34.743,39.298 -64.767,82.279 -89.691,127.993l206.925,113.118c16.476,-30.211 36.368,-58.617 59.356,-84.619Zm683.664,-302.78c-101.964,-56.761 -217.809,-87.926 -336.674,-88.439l-5.942,-0c-77.375,0.329 -155.952,13.662 -232.793,41.386c-24.059,8.688 -47.339,18.607 -69.856,29.597l103.834,212.112c14.884,-7.274 30.251,-13.796 46.19,-19.546c130.406,-47.063 268.134,-31.605 380.45,30.899l114.791,-206.009Z" style="fill:#55575a;fill-opacity:0.09;fill-rule:nonzero;"/><path d="M1113.38,756.067l0,-1.316c-0.144,-80.494 -25.596,-161.578 -78.073,-230.37l-5.979,4.562c125.13,164.025 93.509,399.276 -70.507,524.402l4.545,5.968c98.148,-74.871 149.826,-188.406 150.014,-303.246Zm-678.984,226.757c-125.116,-164.028 -93.465,-399.282 70.557,-524.408l-4.569,-5.979c-97.872,74.663 -149.55,187.775 -150.03,302.29l-0,3.199c0.329,80.205 25.784,160.92 78.073,229.457l5.969,-4.559Z" style="fill:#55575a;fill-opacity:0.09;fill-rule:nonzero;"/></g></svg>