<?xml version="1.0" encoding="UTF-8" standalone="no"?>
<!-- Created with Inkscape (http://www.inkscape.org/) -->

<svg
   width="1920"
   height="450"
   viewBox="0 0 1920.0001 450"
   version="1.1"
   id="svg8"
   xmlns="http://www.w3.org/2000/svg"
   xmlns:svg="http://www.w3.org/2000/svg"
   xmlns:rdf="http://www.w3.org/1999/02/22-rdf-syntax-ns#"
   xmlns:cc="http://creativecommons.org/ns#"
   xmlns:dc="http://purl.org/dc/elements/1.1/">
  <defs
     id="defs2" />
  <metadata
     id="metadata5">
    <rdf:RDF>
      <cc:Work
         rdf:about="">
        <dc:format>image/svg+xml</dc:format>
        <dc:type
           rdf:resource="http://purl.org/dc/dcmitype/StillImage" />
      </cc:Work>
    </rdf:RDF>
  </metadata>
  <g
     id="g1542">
    <path
       style="fill:none;stroke:#ffffff;stroke-width:0.5px;stroke-linecap:butt;stroke-linejoin:miter;stroke-miterlimit:4;stroke-dasharray:none;stroke-opacity:1"
       d="M 1030.27 0 C 528.155 317.936 1168.72 394.818 1463.64 204.028 C 1482.38 191.906 1501.03 182.725 1519.54 176.118 C 1681.33 118.355 1831.36 257.483 1920 349.535"
       id="path1518" />
    <path
       style="fill:none;stroke:#ffffff;stroke-width:0.5px;stroke-linecap:butt;stroke-linejoin:miter;stroke-miterlimit:4;stroke-dasharray:none;stroke-opacity:1"
       d="M 1038.16 0 C 529.624 317.413 1169.42 400.983 1463.32 209.8 C 1481.97 197.669 1500.43 188.087 1518.58 180.719 C 1680.53 113.019 1830.44 242.443 1920 335.453"
       id="path1520" />
    <path
       style="fill:none;stroke:#ffffff;stroke-width:0.5px;stroke-linecap:butt;stroke-linejoin:miter;stroke-miterlimit:4;stroke-dasharray:none;stroke-opacity:1"
       d="M 1046.06 0 C 531.093 316.89 1170.13 407.148 1463.01 215.572 C 1481.57 203.431 1499.82 193.449 1517.63 185.319 C 1679.72 107.682 1829.52 227.404 1920 321.37"
       id="path1522" />
    <path
       style="fill:none;stroke:#ffffff;stroke-width:0.5px;stroke-linecap:butt;stroke-linejoin:miter;stroke-miterlimit:4;stroke-dasharray:none;stroke-opacity:1"
       d="M 1053.95 0 C 532.562 316.368 1170.83 413.312 1462.69 221.344 C 1481.17 209.193 1499.21 198.811 1516.67 189.919 C 1678.91 102.346 1828.6 212.364 1920 307.288"
       id="path1524" />
    <path
       style="fill:none;stroke:#ffffff;stroke-width:0.5px;stroke-linecap:butt;stroke-linejoin:miter;stroke-miterlimit:4;stroke-dasharray:none;stroke-opacity:1"
       d="M 1061.84 0 C 534.032 315.845 1171.53 419.477 1462.38 227.116 C 1480.77 214.956 1498.61 204.173 1515.71 194.52 C 1678.11 97.0095 1827.68 197.325 1920 293.206"
       id="path1526" />
    <path
       style="fill:none;stroke:#ffffff;stroke-width:0.5px;stroke-linecap:butt;stroke-linejoin:miter;stroke-miterlimit:4;stroke-dasharray:none;stroke-opacity:1"
       d="M 1069.74 0 C 535.501 315.322 1172.23 425.642 1462.06 232.888 C 1480.36 220.718 1498 209.535 1514.76 199.12 C 1677.3 91.673 1826.75 182.286 1920 279.123"
       id="path1528" />
    <path
       style="fill:none;stroke:#ffffff;stroke-width:0.5px;stroke-linecap:butt;stroke-linejoin:miter;stroke-miterlimit:4;stroke-dasharray:none;stroke-opacity:1"
       d="M 1077.63 0 C 536.97 314.799 1172.94 431.807 1461.75 238.66 C 1479.96 226.48 1497.39 214.897 1513.8 203.72 C 1676.5 86.3366 1825.83 167.246 1920 265.041"
       id="path1530" />
    <path
       style="fill:none;stroke:#ffffff;stroke-width:0.5px;stroke-linecap:butt;stroke-linejoin:miter;stroke-miterlimit:4;stroke-dasharray:none;stroke-opacity:1"
       d="M 1085.52 0 C 538.439 314.276 1173.64 437.971 1461.43 244.431 C 1479.56 232.243 1496.79 220.259 1512.85 208.32 C 1675.69 81.0001 1824.91 152.207 1920 250.959"
       id="path1532" />
    <path
       style="fill:none;stroke:#ffffff;stroke-width:0.5px;stroke-linecap:butt;stroke-linejoin:miter;stroke-miterlimit:4;stroke-dasharray:none;stroke-opacity:1"
       d="M 1093.42 0 C 539.908 313.754 1174.34 444.136 1461.12 250.203 C 1479.16 238.005 1496.18 225.622 1511.89 212.921 C 1674.88 75.6636 1823.99 137.167 1920 236.876"
       id="path1534" />
    <path
       style="fill:none;stroke:#ffffff;stroke-width:0.5px;stroke-linecap:butt;stroke-linejoin:miter;stroke-miterlimit:4;stroke-dasharray:none;stroke-opacity:1"
       d="M 1101.31 0 C 541.378 313.231 1175.04 450.301 1460.8 255.975 C 1478.76 243.767 1495.58 230.984 1510.94 217.521 C 1674.08 70.3272 1823.07 122.128 1920 222.794"
       id="path1536" />
    <path
       style="fill:none;stroke:#ffffff;stroke-width:0.5px;stroke-linecap:butt;stroke-linejoin:miter;stroke-miterlimit:4;stroke-dasharray:none;stroke-opacity:1"
       d="M 1109.2 0 C 542.847 312.708 1175.74 456.465 1460.49 261.747 C 1478.35 249.53 1494.97 236.346 1509.98 222.121 C 1673.27 64.9907 1822.15 107.089 1920 208.712"
       id="path1538" />
    <path
       style="fill:none;stroke:#ffffff;stroke-width:0.5px;stroke-linecap:butt;stroke-linejoin:miter;stroke-miterlimit:4;stroke-dasharray:none;stroke-opacity:1"
       d="M 1117.1 0 C 544.316 312.185 1176.45 462.63 1460.17 267.519 C 1477.95 255.292 1494.36 241.708 1509.02 226.721 C 1672.47 59.6542 1821.23 92.0491 1920 194.629"
       id="path1540" />
  </g>
</svg>
