<?xml version="1.0" encoding="UTF-8" standalone="no"?>
<!-- Created with Inkscape (http://www.inkscape.org/) -->

<svg
   width="1920"
   height="450"
   viewBox="0 0 1920.0001 450"
   version="1.1"
   id="svg8"
   xmlns="http://www.w3.org/2000/svg"
   xmlns:svg="http://www.w3.org/2000/svg"
   xmlns:rdf="http://www.w3.org/1999/02/22-rdf-syntax-ns#"
   xmlns:cc="http://creativecommons.org/ns#"
   xmlns:dc="http://purl.org/dc/elements/1.1/">
  <defs
     id="defs2" />
  <metadata
     id="metadata5">
    <rdf:RDF>
      <cc:Work
         rdf:about="">
        <dc:format>image/svg+xml</dc:format>
        <dc:type
           rdf:resource="http://purl.org/dc/dcmitype/StillImage" />
      </cc:Work>
    </rdf:RDF>
  </metadata>
  <g
     id="layer2">
    <g
       id="g1342"
       transform="translate(8.4604259,47.588158)">
      <path
         style="fill:none;stroke:#ffffff;stroke-width:0.5;stroke-linecap:butt;stroke-linejoin:miter;stroke-miterlimit:4;stroke-dasharray:none;stroke-opacity:1"
         d="M 12.1269,373.509 C 219.481,282.941 632.94,175.978 934.892,229.838 c 5.321,0.95 10.608,1.949 15.859,2.999 303.169,60.635 628.179,128.545 936.199,46.082"
         id="path1318" />
      <path
         style="fill:none;stroke:#ffffff;stroke-width:0.5;stroke-linecap:butt;stroke-linejoin:miter;stroke-miterlimit:4;stroke-dasharray:none;stroke-opacity:1"
         d="M 34.6169,359.618 C 264.793,276.181 647.5,192.171 946.476,242.238 c 5.263,0.882 10.494,1.803 15.692,2.765 299.642,55.533 618.732,98.945 923.022,23.112"
         id="path1320" />
      <path
         style="fill:none;stroke:#ffffff;stroke-width:0.5;stroke-linecap:butt;stroke-linejoin:miter;stroke-miterlimit:4;stroke-dasharray:none;stroke-opacity:1"
         d="M 57.1068,345.728 C 310.105,269.421 662.06,208.365 958.06,254.637 c 5.204,0.815 10.38,1.659 15.525,2.533 296.125,50.43 609.285,69.344 909.835,0.141"
         id="path1322" />
      <path
         style="fill:none;stroke:#ffffff;stroke-width:0.5;stroke-linecap:butt;stroke-linejoin:miter;stroke-miterlimit:4;stroke-dasharray:none;stroke-opacity:1"
         d="M 79.5967,331.837 C 355.417,262.661 676.62,224.558 969.645,267.037 c 5.145,0.748 10.265,1.514 15.358,2.299 292.597,45.328 599.837,39.744 896.657,-22.829"
         id="path1324" />
      <path
         style="fill:none;stroke:#ffffff;stroke-width:0.5;stroke-linecap:butt;stroke-linejoin:miter;stroke-miterlimit:4;stroke-dasharray:none;stroke-opacity:1"
         d="m 102.087,317.946 c 298.642,-62.044 589.093,-77.194 879.142,-38.509 5.086,0.68 10.151,1.368 15.191,2.066 289.07,40.225 590.39,10.143 883.47,-45.8"
         id="path1326" />
      <path
         style="fill:none;stroke:#ffffff;stroke-width:0.5;stroke-linecap:butt;stroke-linejoin:miter;stroke-miterlimit:4;stroke-dasharray:none;stroke-opacity:1"
         d="m 124.577,304.055 c 321.464,-54.913 581.164,-47.11 868.236,-12.219 5.028,0.614 10.037,1.224 15.027,1.833 285.54,35.123 580.95,-19.457 870.29,-68.77"
         id="path1328" />
      <path
         style="fill:none;stroke:#ffffff;stroke-width:0.5;stroke-linecap:butt;stroke-linejoin:miter;stroke-miterlimit:4;stroke-dasharray:none;stroke-opacity:1"
         d="m 147.067,290.164 c 344.287,-47.782 573.234,-17.025 857.333,14.072 4.97,0.546 9.92,1.079 14.85,1.599 282.02,30.02 571.51,-49.057 857.12,-91.74"
         id="path1330" />
      <path
         style="fill:none;stroke:#ffffff;stroke-width:0.5;stroke-linecap:butt;stroke-linejoin:miter;stroke-miterlimit:4;stroke-dasharray:none;stroke-opacity:1"
         d="m 169.556,276.273 c 367.11,-40.651 565.305,13.059 846.424,40.362 4.91,0.479 9.81,0.934 14.69,1.367 278.49,24.917 562.06,-78.658 843.93,-114.711"
         id="path1332" />
      <path
         style="fill:none;stroke:#ffffff;stroke-width:0.5;stroke-linecap:butt;stroke-linejoin:miter;stroke-miterlimit:4;stroke-dasharray:none;stroke-opacity:1"
         d="m 192.046,262.383 c 389.932,-33.52 557.375,43.143 835.524,66.652 4.85,0.412 9.69,0.789 14.52,1.133 274.96,19.815 552.61,-108.258 830.75,-137.681"
         id="path1334" />
      <path
         style="fill:none;stroke:#ffffff;stroke-width:0.5;stroke-linecap:butt;stroke-linejoin:miter;stroke-miterlimit:4;stroke-dasharray:none;stroke-opacity:1"
         d="m 214.536,248.492 c 412.754,-26.389 549.445,73.227 824.614,92.942 4.79,0.345 9.58,0.645 14.36,0.901 271.43,14.712 543.17,-137.859 817.56,-160.652"
         id="path1336" />
      <path
         style="fill:none;stroke:#ffffff;stroke-width:0.5;stroke-linecap:butt;stroke-linejoin:miter;stroke-miterlimit:4;stroke-dasharray:none;stroke-opacity:1"
         d="m 237.026,234.601 c 435.576,-19.258 541.515,103.312 813.704,119.233 4.74,0.277 9.47,0.499 14.19,0.667 267.91,9.61 533.73,-167.459 804.39,-183.622"
         id="path1338" />
      <path
         style="fill:none;stroke:#ffffff;stroke-width:0.5;stroke-linecap:butt;stroke-linejoin:miter;stroke-miterlimit:4;stroke-dasharray:none;stroke-opacity:1"
         d="m 259.516,220.71 c 458.398,-12.127 533.585,133.396 802.804,145.523 4.67,0.211 9.35,0.355 14.02,0.434 264.38,4.508 524.28,-197.059 791.21,-206.592"
         id="path1340" />
    </g>
  </g>
</svg>
