<?xml version="1.0" encoding="UTF-8" standalone="no"?>
<!-- Created with Inkscape (http://www.inkscape.org/) -->

<svg
   width="1920"
   height="450"
   viewBox="0 0 1920.0001 450"
   version="1.1"
   id="svg8"
   xmlns="http://www.w3.org/2000/svg"
   xmlns:svg="http://www.w3.org/2000/svg"
   xmlns:rdf="http://www.w3.org/1999/02/22-rdf-syntax-ns#"
   xmlns:cc="http://creativecommons.org/ns#"
   xmlns:dc="http://purl.org/dc/elements/1.1/">
  <defs
     id="defs2" />
  <metadata
     id="metadata5">
    <rdf:RDF>
      <cc:Work
         rdf:about="">
        <dc:format>image/svg+xml</dc:format>
        <dc:type
           rdf:resource="http://purl.org/dc/dcmitype/StillImage" />
      </cc:Work>
    </rdf:RDF>
  </metadata>
  <g
     id="g8987">
    <path
       style="fill:none;stroke:#ffffff;stroke-width:0.5px;stroke-linecap:butt;stroke-linejoin:miter;stroke-miterlimit:4;stroke-dasharray:none;stroke-opacity:1"
       d="M 879.276 0 C 1404.26 570.088 1348.76 41.943 1549.58 116.008 C 1552.26 116.994 1554.98 118.087 1557.74 119.291 C 1696.48 179.649 1664.71 373.517 1920 392.774"
       id="path8963" />
    <path
       style="fill:none;stroke:#ffffff;stroke-width:0.5px;stroke-linecap:butt;stroke-linejoin:miter;stroke-miterlimit:4;stroke-dasharray:none;stroke-opacity:1"
       d="M 873.356 0 C 1388.21 554.722 1341.64 51.2599 1546.11 121.15 C 1548.79 122.076 1551.51 123.106 1554.27 124.242 C 1692.82 181.252 1667.36 375.502 1920 379.947"
       id="path8965" />
    <path
       style="fill:none;stroke:#ffffff;stroke-width:0.5px;stroke-linecap:butt;stroke-linejoin:miter;stroke-miterlimit:4;stroke-dasharray:none;stroke-opacity:1"
       d="M 867.436 0 C 1372.16 539.356 1334.53 60.5769 1542.64 126.292 C 1545.33 127.158 1548.05 128.124 1550.81 129.194 C 1689.16 182.856 1670.01 377.486 1920 367.121"
       id="path8967" />
    <path
       style="fill:none;stroke:#ffffff;stroke-width:0.5px;stroke-linecap:butt;stroke-linejoin:miter;stroke-miterlimit:4;stroke-dasharray:none;stroke-opacity:1"
       d="M 861.516 0 C 1356.11 523.99 1327.41 69.8938 1539.16 131.434 C 1541.86 132.24 1544.59 133.143 1547.34 134.145 C 1685.5 184.46 1672.66 379.47 1920 354.294"
       id="path8969" />
    <path
       style="fill:none;stroke:#ffffff;stroke-width:0.5px;stroke-linecap:butt;stroke-linejoin:miter;stroke-miterlimit:4;stroke-dasharray:none;stroke-opacity:1"
       d="M 855.596 0 C 1340.06 508.625 1320.3 79.2108 1535.69 136.576 C 1538.4 137.322 1541.13 138.162 1543.87 139.097 C 1681.84 186.064 1675.31 381.454 1920 341.467"
       id="path8971" />
    <path
       style="fill:none;stroke:#ffffff;stroke-width:0.5px;stroke-linecap:butt;stroke-linejoin:miter;stroke-miterlimit:4;stroke-dasharray:none;stroke-opacity:1"
       d="M 849.676 0 C 1324.01 493.259 1313.18 88.5277 1532.21 141.718 C 1534.94 142.404 1537.66 143.18 1540.4 144.048 C 1678.18 187.668 1677.96 383.438 1920 328.641"
       id="path8973" />
    <path
       style="fill:none;stroke:#ffffff;stroke-width:0.5px;stroke-linecap:butt;stroke-linejoin:miter;stroke-miterlimit:4;stroke-dasharray:none;stroke-opacity:1"
       d="M 843.756 0 C 1307.97 477.893 1306.06 97.8446 1528.74 146.86 C 1531.47 147.486 1534.2 148.199 1536.93 149 C 1674.52 189.271 1680.61 385.423 1920 315.814"
       id="path8975" />
    <path
       style="fill:none;stroke:#ffffff;stroke-width:0.5px;stroke-linecap:butt;stroke-linejoin:miter;stroke-miterlimit:4;stroke-dasharray:none;stroke-opacity:1"
       d="M 837.836 0 C 1291.92 462.528 1298.95 107.162 1525.27 152.002 C 1528.01 152.568 1530.74 153.218 1533.46 153.951 C 1670.86 190.875 1683.26 387.407 1920 302.988"
       id="path8977" />
    <path
       style="fill:none;stroke:#ffffff;stroke-width:0.5px;stroke-linecap:butt;stroke-linejoin:miter;stroke-miterlimit:4;stroke-dasharray:none;stroke-opacity:1"
       d="M 831.916 0 C 1275.87 447.162 1291.83 116.479 1521.79 157.144 C 1524.54 157.649 1527.28 158.236 1530 158.903 C 1667.2 192.479 1685.9 389.391 1920 290.161"
       id="path8979" />
    <path
       style="fill:none;stroke:#ffffff;stroke-width:0.5px;stroke-linecap:butt;stroke-linejoin:miter;stroke-miterlimit:4;stroke-dasharray:none;stroke-opacity:1"
       d="M 825.996 0 C 1259.82 431.796 1284.71 125.795 1518.32 162.286 C 1521.08 162.731 1523.81 163.255 1526.53 163.854 C 1663.54 194.083 1688.55 391.375 1920 277.334"
       id="path8981" />
    <path
       style="fill:none;stroke:#ffffff;stroke-width:0.5px;stroke-linecap:butt;stroke-linejoin:miter;stroke-miterlimit:4;stroke-dasharray:none;stroke-opacity:1"
       d="M 820.076 0 C 1243.77 416.431 1277.6 135.112 1514.84 167.428 C 1517.61 167.813 1520.35 168.274 1523.06 168.806 C 1659.88 195.687 1691.2 393.36 1920 264.508"
       id="path8983" />
    <path
       style="fill:none;stroke:#ffffff;stroke-width:0.5px;stroke-linecap:butt;stroke-linejoin:miter;stroke-miterlimit:4;stroke-dasharray:none;stroke-opacity:1"
       d="M 814.156 0 C 1227.73 401.065 1270.48 144.429 1511.37 172.57 C 1514.15 172.895 1516.89 173.292 1519.59 173.757 C 1656.22 197.29 1693.85 395.344 1920 251.681"
       id="path8985" />
  </g>
</svg>
