<?xml version="1.0" encoding="UTF-8" standalone="no"?>
<!-- Created with Inkscape (http://www.inkscape.org/) -->

<svg
   width="1920"
   height="450"
   viewBox="0 0 1920.0001 450"
   version="1.1"
   id="svg8"
   xmlns:xlink="http://www.w3.org/1999/xlink"
   xmlns="http://www.w3.org/2000/svg"
   xmlns:svg="http://www.w3.org/2000/svg"
   xmlns:rdf="http://www.w3.org/1999/02/22-rdf-syntax-ns#"
   xmlns:cc="http://creativecommons.org/ns#"
   xmlns:dc="http://purl.org/dc/elements/1.1/">
  <defs
     id="defs2">
    <linearGradient
       id="linearGradient7735">
      <stop
         style="stop-color:#ffffff;stop-opacity:1;"
         offset="0"
         id="stop7731" />
      <stop
         style="stop-color:#ffffff;stop-opacity:0;"
         offset="1"
         id="stop7733" />
    </linearGradient>
    <linearGradient
       xlink:href="#linearGradient7735"
       id="linearGradient7737"
       x1="-0.097400157"
       y1="212.84879"
       x2="1920.024"
       y2="212.84879"
       gradientUnits="userSpaceOnUse" />
    <linearGradient
       xlink:href="#linearGradient7735"
       id="linearGradient7739"
       x1="-0.097509347"
       y1="213.47166"
       x2="1920.024"
       y2="213.47166"
       gradientUnits="userSpaceOnUse" />
    <linearGradient
       xlink:href="#linearGradient7735"
       id="linearGradient7741"
       x1="-0.097836864"
       y1="215.34111"
       x2="1920.024"
       y2="215.34111"
       gradientUnits="userSpaceOnUse" />
    <linearGradient
       xlink:href="#linearGradient7735"
       id="linearGradient7743"
       x1="-0.098380535"
       y1="218.46087"
       x2="1920.024"
       y2="218.46087"
       gradientUnits="userSpaceOnUse" />
    <linearGradient
       xlink:href="#linearGradient7735"
       id="linearGradient7745"
       x1="-0.099136988"
       y1="222.83743"
       x2="1920.024"
       y2="222.83743"
       gradientUnits="userSpaceOnUse" />
    <linearGradient
       xlink:href="#linearGradient7735"
       id="linearGradient7747"
       x1="-0.10010165"
       y1="228.48149"
       x2="1920.024"
       y2="228.48149"
       gradientUnits="userSpaceOnUse" />
    <linearGradient
       xlink:href="#linearGradient7735"
       id="linearGradient7749"
       x1="-0.10126829"
       y1="235.40988"
       x2="1920.024"
       y2="235.40988"
       gradientUnits="userSpaceOnUse" />
    <linearGradient
       xlink:href="#linearGradient7735"
       id="linearGradient7751"
       x1="-0.10262933"
       y1="243.64827"
       x2="1920.024"
       y2="243.64827"
       gradientUnits="userSpaceOnUse" />
    <linearGradient
       xlink:href="#linearGradient7735"
       id="linearGradient7753"
       x1="-0.10417503"
       y1="253.23925"
       x2="1920.024"
       y2="253.23925"
       gradientUnits="userSpaceOnUse" />
    <linearGradient
       xlink:href="#linearGradient7735"
       id="linearGradient7755"
       x1="-0.10589416"
       y1="261.29296"
       x2="1920.024"
       y2="261.29296"
       gradientUnits="userSpaceOnUse" />
    <linearGradient
       xlink:href="#linearGradient7735"
       id="linearGradient7757"
       x1="-0.1077731"
       y1="287.54759"
       x2="1920.024"
       y2="287.54759"
       gradientUnits="userSpaceOnUse" />
    <linearGradient
       xlink:href="#linearGradient7735"
       id="linearGradient7759"
       x1="-0.10979653"
       y1="317.25626"
       x2="1920.024"
       y2="317.25626"
       gradientUnits="userSpaceOnUse" />
  </defs>
  <metadata
     id="metadata5">
    <rdf:RDF>
      <cc:Work
         rdf:about="">
        <dc:format>image/svg+xml</dc:format>
        <dc:type
           rdf:resource="http://purl.org/dc/dcmitype/StillImage" />
      </cc:Work>
    </rdf:RDF>
  </metadata>
  <path
     style="fill:none;stroke:url(#linearGradient7737);stroke-width:0.3;stroke-linecap:butt;stroke-linejoin:miter;stroke-miterlimit:4;stroke-dasharray:none;stroke-opacity:1"
     d="m 0,12.154 c 208.691,178.185 467.417,308.893 816.541,159.752 31.299,-13.37 63.325,-28.99 96.107,-47.027 C 1314.25,-96.0851 1273.26,505.865 1920,401.163"
     id="path7548" />
  <path
     style="fill:none;stroke:url(#linearGradient7739);stroke-width:0.3;stroke-linecap:butt;stroke-linejoin:miter;stroke-miterlimit:4;stroke-dasharray:none;stroke-opacity:1"
     d="M 0,14.3108 C 208.536,192.709 466.678,322.113 816.198,172.787 847.519,159.406 879.542,143.82 912.3,125.859 1313.41,-94.121 1273.69,504.844 1920,400.212"
     id="path7550" />
  <path
     style="fill:none;stroke:url(#linearGradient7741);stroke-width:0.3;stroke-linecap:butt;stroke-linejoin:miter;stroke-miterlimit:4;stroke-dasharray:none;stroke-opacity:1"
     d="M 0,20.7812 C 208.07,199.82 464.461,325.31 815.17,175.431 846.555,162.018 878.57,146.533 911.256,128.797 1310.87,-88.2288 1274.98,501.782 1920,397.358"
     id="path7552" />
  <path
     style="fill:none;stroke:url(#linearGradient7743);stroke-width:0.3;stroke-linecap:butt;stroke-linejoin:miter;stroke-miterlimit:4;stroke-dasharray:none;stroke-opacity:1"
     d="M 0,31.5651 C 207.294,211.672 460.766,330.639 813.457,179.837 844.95,166.372 876.949,151.054 909.517,133.696 1306.65,-78.4084 1277.13,496.677 1920,392.602"
     id="path7554" />
  <path
     style="fill:none;stroke:url(#linearGradient7745);stroke-width:0.3;stroke-linecap:butt;stroke-linejoin:miter;stroke-miterlimit:4;stroke-dasharray:none;stroke-opacity:1"
     d="M 0,46.6627 C 206.207,228.264 455.593,338.099 811.059,186.005 842.702,172.466 874.68,157.385 907.082,140.553 1300.74,-64.6599 1280.14,489.531 1920,385.943"
     id="path7556" />
  <path
     style="fill:none;stroke:url(#linearGradient7747);stroke-width:0.3;stroke-linecap:butt;stroke-linejoin:miter;stroke-miterlimit:4;stroke-dasharray:none;stroke-opacity:1"
     d="M 0,66.0738 C 204.81,249.597 448.943,347.69 807.976,193.935 839.811,180.303 871.763,165.523 903.952,149.37 1293.14,-46.9832 1284.02,480.342 1920,377.382"
     id="path7558" />
  <path
     style="fill:none;stroke:url(#linearGradient7749);stroke-width:0.3;stroke-linecap:butt;stroke-linejoin:miter;stroke-miterlimit:4;stroke-dasharray:none;stroke-opacity:1"
     d="M 0,89.7985 C 203.103,275.671 440.814,359.413 804.207,203.627 836.278,189.88 868.197,175.471 900.125,160.146 1283.84,-25.3784 1288.75,469.112 1920,366.919"
     id="path7560" />
  <path
     style="fill:none;stroke:url(#linearGradient7751);stroke-width:0.3;stroke-linecap:butt;stroke-linejoin:miter;stroke-miterlimit:4;stroke-dasharray:none;stroke-opacity:1"
     d="m 0,117.837 c 201.085,188.649 431.208,255.431 799.753,97.245 32.35,-13.883 64.23,-27.855 95.85,-42.2 C 1272.87,0.154535 1294.35,455.84 1920,354.553"
     id="path7562" />
  <path
     style="fill:none;stroke:url(#linearGradient7753);stroke-width:0.3;stroke-linecap:butt;stroke-linejoin:miter;stroke-miterlimit:4;stroke-dasharray:none;stroke-opacity:1"
     d="m 0,150.189 c 198.756,191.852 420.123,239.065 794.614,78.11 32.672,-14.04 64.507,-27.507 95.772,-40.723 C 1260.2,29.6156 1300.81,440.527 1920,340.285"
     id="path7564" />
  <path
     style="fill:none;stroke:url(#linearGradient7755);stroke-width:0.3;stroke-linecap:butt;stroke-linejoin:miter;stroke-miterlimit:4;stroke-dasharray:none;stroke-opacity:1"
     d="m 0,186.854 c 196.117,195.483 407.561,220.517 788.79,56.425 33.036,-14.218 64.82,-27.114 95.682,-39.049 C 1245.84,63.0049 1308.13,423.171 1920,324.114"
     id="path7566" />
  <path
     style="fill:none;stroke:url(#linearGradient7757);stroke-width:0.3;stroke-linecap:butt;stroke-linejoin:miter;stroke-miterlimit:4;stroke-dasharray:none;stroke-opacity:1"
     d="m 0,227.833 c 193.168,199.541 393.52,199.787 782.281,32.188 33.443,-14.417 65.171,-26.674 95.582,-37.177 C 1229.79,100.322 1316.31,403.774 1920,306.041"
     id="path7568" />
  <path
     style="fill:none;stroke:url(#linearGradient7759);stroke-width:0.3;stroke-linecap:butt;stroke-linejoin:miter;stroke-miterlimit:4;stroke-dasharray:none;stroke-opacity:1"
     d="M 0,273.126 C 189.908,477.151 378.002,450 775.086,278.524 808.979,263.888 840.645,252.338 870.559,243.416 1212.06,141.568 1325.35,382.334 1920,286.065"
     id="path7570" />
</svg>
