<?xml version="1.0" encoding="UTF-8" standalone="no"?>
<!-- Created with Inkscape (http://www.inkscape.org/) -->

<svg
   width="1920"
   height="450"
   viewBox="0 0 1920.0001 450"
   version="1.1"
   id="svg8"
   sodipodi:docname="line11.svg"
   inkscape:version="1.1 (c68e22c387, 2021-05-23)"
   xmlns:inkscape="http://www.inkscape.org/namespaces/inkscape"
   xmlns:sodipodi="http://sodipodi.sourceforge.net/DTD/sodipodi-0.dtd"
   xmlns="http://www.w3.org/2000/svg"
   xmlns:svg="http://www.w3.org/2000/svg"
   xmlns:rdf="http://www.w3.org/1999/02/22-rdf-syntax-ns#"
   xmlns:cc="http://creativecommons.org/ns#"
   xmlns:dc="http://purl.org/dc/elements/1.1/">
  <sodipodi:namedview
     id="namedview18"
     pagecolor="#ffffff"
     bordercolor="#999999"
     borderopacity="1"
     inkscape:pageshadow="0"
     inkscape:pageopacity="0"
     inkscape:pagecheckerboard="0"
     showgrid="false"
     inkscape:snap-page="true"
     inkscape:zoom="0.71666667"
     inkscape:cx="1316.5116"
     inkscape:cy="188.37209"
     inkscape:window-width="1920"
     inkscape:window-height="1001"
     inkscape:window-x="-9"
     inkscape:window-y="1341"
     inkscape:window-maximized="1"
     inkscape:current-layer="svg8" />
  <defs
     id="defs2" />
  <metadata
     id="metadata5">
    <rdf:RDF>
      <cc:Work
         rdf:about="">
        <dc:format>image/svg+xml</dc:format>
        <dc:type
           rdf:resource="http://purl.org/dc/dcmitype/StillImage" />
      </cc:Work>
    </rdf:RDF>
  </metadata>
  <g
     id="g3324"
     transform="matrix(1,0,0,1.2141037,0,-96.354026)"
     style="stroke-width:0.907553">
    <path
       style="fill:none;stroke:#ffffff;stroke-width:0.453777px;stroke-linecap:butt;stroke-linejoin:miter;stroke-miterlimit:4;stroke-dasharray:none;stroke-opacity:1"
       d="m 630.999,450.006 c 475.381,-404.0683 415.211,3.442 684.271,-227.413 10.84,-9.302 22.21,-19.641 34.18,-31.11 282.77,-271.0255 367.28,239.613 570.55,42.804"
       id="path3300" />
    <path
       style="fill:none;stroke:#ffffff;stroke-width:0.453777px;stroke-linecap:butt;stroke-linejoin:miter;stroke-miterlimit:4;stroke-dasharray:none;stroke-opacity:1"
       d="m 650.026,450.006 c 459.614,-401.0297 404.034,17.37 671.644,-222.51 10.63,-9.47 21.74,-19.805 33.36,-31.097 277.17,-269.7501 362.36,223.611 564.97,27.439"
       id="path3302" />
    <path
       style="fill:none;stroke:#ffffff;stroke-width:0.453777px;stroke-linecap:butt;stroke-linejoin:miter;stroke-miterlimit:4;stroke-dasharray:none;stroke-opacity:1"
       d="M 669.054,450.006 C 1112.9,52.0149 1061.92,481.304 1328.08,232.399 c 10.42,-9.638 21.25,-19.97 32.53,-31.084 271.56,-268.4748 357.44,207.608 559.39,12.075"
       id="path3304" />
    <path
       style="fill:none;stroke:#ffffff;stroke-width:0.453777px;stroke-linecap:butt;stroke-linejoin:miter;stroke-miterlimit:4;stroke-dasharray:none;stroke-opacity:1"
       d="m 688.081,450.006 c 428.089,-394.9525 381.699,45.226 646.399,-212.703 10.22,-9.806 20.77,-20.135 31.71,-31.071 265.95,-267.2004 352.52,191.604 553.81,-3.29"
       id="path3306" />
    <path
       style="fill:none;stroke:#ffffff;stroke-width:0.453777px;stroke-linecap:butt;stroke-linejoin:miter;stroke-miterlimit:4;stroke-dasharray:none;stroke-opacity:1"
       d="m 707.109,450.006 c 412.321,-391.9139 370.521,59.155 633.781,-207.8 10.01,-9.974 20.29,-20.3 30.88,-31.058 260.34,-265.9251 347.6,175.602 548.23,-18.654"
       id="path3308" />
    <path
       style="fill:none;stroke:#ffffff;stroke-width:0.453777px;stroke-linecap:butt;stroke-linejoin:miter;stroke-miterlimit:4;stroke-dasharray:none;stroke-opacity:1"
       d="m 726.136,450.006 c 396.554,-388.8753 359.354,73.083 621.154,-202.897 9.8,-10.142 19.81,-20.465 30.06,-31.045 254.74,-264.6497 342.68,159.599 542.65,-34.018"
       id="path3310" />
    <path
       style="fill:none;stroke:#ffffff;stroke-width:0.453777px;stroke-linecap:butt;stroke-linejoin:miter;stroke-miterlimit:4;stroke-dasharray:none;stroke-opacity:1"
       d="M 745.164,450.006 C 1125.96,64.1693 1093.34,537.017 1353.7,252.013 c 9.59,-10.311 19.32,-20.63 29.23,-31.033 249.13,-263.3744 337.76,143.596 537.07,-49.382"
       id="path3312" />
    <path
       style="fill:none;stroke:#ffffff;stroke-width:0.453777px;stroke-linecap:butt;stroke-linejoin:miter;stroke-miterlimit:4;stroke-dasharray:none;stroke-opacity:1"
       d="M 764.191,450.006 C 1129.22,67.2079 1101.2,550.945 1360.11,256.916 c 9.38,-10.478 18.84,-20.795 28.4,-31.019 243.52,-262.1 332.84,127.593 531.49,-64.747"
       id="path3314" />
    <path
       style="fill:none;stroke:#ffffff;stroke-width:0.453777px;stroke-linecap:butt;stroke-linejoin:miter;stroke-miterlimit:4;stroke-dasharray:none;stroke-opacity:1"
       d="M 783.219,450.006 C 1132.49,70.2465 1109.05,564.873 1366.51,261.82 c 9.18,-10.647 18.36,-20.961 27.58,-31.007 C 1632,-30.0117 1722,342.403 1920,150.702"
       id="path3316" />
    <path
       style="fill:none;stroke:#ffffff;stroke-width:0.453777px;stroke-linecap:butt;stroke-linejoin:miter;stroke-miterlimit:4;stroke-dasharray:none;stroke-opacity:1"
       d="M 802.246,450.006 C 1135.75,73.2851 1116.91,578.801 1372.92,266.723 c 8.96,-10.815 17.87,-21.125 26.74,-30.994 232.32,-259.5493 323,95.587 520.34,-95.475"
       id="path3318" />
    <path
       style="fill:none;stroke:#ffffff;stroke-width:0.453777px;stroke-linecap:butt;stroke-linejoin:miter;stroke-miterlimit:4;stroke-dasharray:none;stroke-opacity:1"
       d="m 821.274,450.006 c 317.736,-373.6823 303.486,142.723 558.046,-178.38 8.76,-10.982 17.4,-21.29 25.92,-30.981 226.71,-258.274 318.08,79.585 514.76,-110.839"
       id="path3320" />
    <path
       style="fill:none;stroke:#ffffff;stroke-width:0.453777px;stroke-linecap:butt;stroke-linejoin:miter;stroke-miterlimit:4;stroke-dasharray:none;stroke-opacity:1"
       d="M 840.301,450.006 C 1142.28,79.3623 1132.62,606.658 1385.73,276.53 c 8.55,-11.151 16.91,-21.455 25.09,-30.968 221.1,-256.9996 313.16,63.581 509.18,-126.204"
       id="path3322" />
  </g>
</svg>
