<?xml version="1.0" encoding="UTF-8" standalone="no"?>
<!-- Created with Inkscape (http://www.inkscape.org/) -->

<svg
   id="svg8"
   version="1.1"
   viewBox="0 0 1920.0001 375"
   height="375"
   width="1920"
   xmlns="http://www.w3.org/2000/svg"
   xmlns:svg="http://www.w3.org/2000/svg"
   xmlns:rdf="http://www.w3.org/1999/02/22-rdf-syntax-ns#"
   xmlns:cc="http://creativecommons.org/ns#"
   xmlns:dc="http://purl.org/dc/elements/1.1/">
  <defs
     id="defs2" />
  <metadata
     id="metadata5">
    <rdf:RDF>
      <cc:Work
         rdf:about="">
        <dc:format>image/svg+xml</dc:format>
        <dc:type
           rdf:resource="http://purl.org/dc/dcmitype/StillImage" />
      </cc:Work>
    </rdf:RDF>
  </metadata>
  <g
     id="layer2">
    <path
       style="color:#000000;fill:#ffffff;-inkscape-stroke:none"
       d="m 1919.9414,267.55078 c -301.9018,73.90665 -500.1535,47.542 -685.4316,29.2793 -185.2781,-18.2627 -357.59298,-28.41841 -607.45511,77.93945 l 0.19531,0.46094 c 249.77537,-106.32093 421.9449,-96.16386 607.2109,-77.90235 185.2661,18.26152 383.6201,44.63224 685.5977,-29.29296 z"
       id="path3441" />
    <path
       style="color:#000000;fill:#ffffff;-inkscape-stroke:none"
       d="m 1919.9375,247.52734 c -287.357,73.45979 -481.8044,51.65352 -666.0937,38.28516 -184.2894,-13.36836 -358.42667,-18.29219 -605.00396,88.95898 l 0.19922,0.45704 c 246.49322,-107.21461 420.49204,-102.28533 604.76754,-88.91797 184.2756,13.36736 378.8235,35.18024 666.2559,-38.29883 z"
       id="path3443" />
    <path
       style="color:#000000;fill:#ffffff;-inkscape-stroke:none"
       d="m 1919.9355,227.50391 c -272.8121,73.01286 -463.4593,55.76511 -646.7597,47.29101 -183.3005,-8.47409 -359.25833,-8.16843 -602.5508,99.97656 l 0.20312,0.45704 c 243.21104,-108.1088 419.03908,-108.40699 602.32418,-99.9336 183.2852,8.47339 374.0248,25.7244 646.9122,-47.30859 z"
       id="path3445" />
    <path
       style="color:#000000;fill:#ffffff;-inkscape-stroke:none"
       d="m 1919.9316,207.48047 c -258.2672,72.56588 -445.1131,59.87653 -627.4257,56.29687 -182.3127,-3.57965 -360.09306,1.95584 -600.09574,110.99414 l 0.20703,0.45704 C 932.54103,266.22603 1110.1999,260.69801 1292.4961,264.27734 c 182.2962,3.57934 369.23,16.27057 627.5723,-56.3164 z"
       id="path3447" />
    <path
       style="color:#000000;fill:#ffffff;-inkscape-stroke:none"
       d="m 1919.9297,187.45703 c -243.7172,72.11881 -426.7631,63.98792 -608.0879,65.30274 -181.3248,1.31481 -360.92857,12.08206 -597.64649,122.01367 l 0.21094,0.45312 C 951.04786,265.33039 1130.5383,254.57445 1311.8457,253.25977 c 181.3074,-1.31469 364.4323,6.81877 608.2246,-65.32227 z"
       id="path3449" />
    <path
       style="color:#000000;fill:#ffffff;-inkscape-stroke:none"
       d="m 1919.9258,167.43359 c -229.1721,71.67164 -408.4172,68.10137 -588.7539,74.31055 -180.3367,6.20918 -361.76325,22.20388 -595.19143,133.0293 l 0.21289,0.45312 C 969.54771,264.4362 1150.8688,248.45075 1331.1875,242.24219 c 180.3187,-6.20856 359.6392,-2.63486 588.8867,-74.33008 z"
       id="path3451" />
    <path
       style="color:#000000;fill:#ffffff;-inkscape-stroke:none"
       d="m 1919.9219,147.41211 c -214.6268,71.22432 -390.0707,72.21077 -569.418,83.31445 -179.3473,11.10368 -362.59625,32.33011 -592.74023,144.04883 l 0.21875,0.44922 c 230.07257,-111.68406 413.22368,-132.8955 592.55278,-143.99805 179.329,-11.10255 354.8401,-12.0903 569.5429,-83.33984 z"
       id="path3453" />
    <path
       style="color:#000000;fill:#ffffff;-inkscape-stroke:none"
       d="m 1919.916,127.39063 c -200.0813,70.7758 -371.7224,76.3203 -550.0801,92.31835 -178.3576,15.99805 -363.4278,42.45388 -590.28707,155.06641 l 0.22265,0.44922 C 1006.5617,262.64636 1191.5414,236.20345 1369.8809,220.20703 c 178.3394,-15.99642 350.0448,-21.54265 550.2031,-92.3457 z"
       id="path3455" />
    <path
       style="color:#000000;fill:#ffffff;-inkscape-stroke:none"
       d="m 1919.9121,107.36914 c -185.5355,70.32803 -353.377,80.43169 -530.7461,101.32422 -177.3691,20.89253 -364.2623,52.57814 -587.83202,166.08398 l 0.22657,0.44532 C 1025.0634,261.75073 1211.8733,230.07988 1389.2246,209.18945 c 177.3513,-20.89043 345.2492,-30.99568 530.8633,-101.35351 z"
       id="path3457" />
    <path
       style="color:#000000;fill:#ffffff;-inkscape-stroke:none"
       d="m 1919.9063,87.345703 c -170.9894,69.879877 -335.0291,84.543227 -511.4083,110.330077 -176.3791,25.78685 -365.0938,62.7019 -585.37886,177.10156 l 0.23047,0.44532 C 1043.5701,260.85655 1232.2083,223.95623 1408.5703,198.17187 c 176.3621,-25.78435 340.4531,-40.4503 511.5235,-110.363276 z"
       id="path3459" />
    <path
       style="color:#000000;fill:#ffffff;-inkscape-stroke:none"
       d="M 1919.8984,67.326172 C 1607.0132,206.18856 1278.8954,144.19331 844.9043,374.7793 l 0.23437,0.4414 C 1279.0047,144.70115 1607.0474,206.72053 1920.1016,67.783203 Z"
       id="path3461" />
    <path
       style="color:#000000;fill:#ffffff;-inkscape-stroke:none"
       d="M 1919.8906,47.304687 C 1636.1002,185.26813 1294.1106,142.40759 866.6875,374.78125 l 0.23828,0.4375 C 1294.2278,142.91088 1636.1404,185.80419 1920.1094,47.753906 Z"
       id="path3463" />
  </g>
</svg>
