<?xml version="1.0" encoding="UTF-8" standalone="no"?>
<!-- Created with Inkscape (http://www.inkscape.org/) -->

<svg
   width="1920"
   height="450"
   viewBox="0 0 1920.0001 450"
   version="1.1"
   id="svg8"
   xmlns="http://www.w3.org/2000/svg"
   xmlns:svg="http://www.w3.org/2000/svg"
   xmlns:rdf="http://www.w3.org/1999/02/22-rdf-syntax-ns#"
   xmlns:cc="http://creativecommons.org/ns#"
   xmlns:dc="http://purl.org/dc/elements/1.1/">
  <defs
     id="defs2" />
  <metadata
     id="metadata5">
    <rdf:RDF>
      <cc:Work
         rdf:about="">
        <dc:format>image/svg+xml</dc:format>
        <dc:type
           rdf:resource="http://purl.org/dc/dcmitype/StillImage" />
      </cc:Work>
    </rdf:RDF>
  </metadata>
  <g
     id="g4588">
    <path
       style="fill:none;stroke:#ffffff;stroke-width:0.5px;stroke-linecap:butt;stroke-linejoin:miter;stroke-miterlimit:4;stroke-dasharray:none;stroke-opacity:1"
       d="M 0 233.411 C 616.503 608.65 1071.97 183.176 1214.82 303.145 C 1217.42 305.33 1220.01 307.466 1222.6 309.552 C 1513.42 544.172 1707.9 161.328 1920 253.554"
       id="path4564" />
    <path
       style="fill:none;stroke:#ffffff;stroke-width:0.5px;stroke-linecap:butt;stroke-linejoin:miter;stroke-miterlimit:4;stroke-dasharray:none;stroke-opacity:1"
       d="M 0 247.409 C 627.421 620.797 1072.24 182.417 1213.81 303.615 C 1216.39 305.815 1218.94 307.99 1221.49 310.14 C 1503.08 545.902 1708.11 171.511 1920 265.588"
       id="path4566" />
    <path
       style="fill:none;stroke:#ffffff;stroke-width:0.5px;stroke-linecap:butt;stroke-linejoin:miter;stroke-miterlimit:4;stroke-dasharray:none;stroke-opacity:1"
       d="M 0 261.407 C 638.338 632.944 1072.51 181.658 1212.81 304.086 C 1215.35 306.3 1217.88 308.514 1220.38 310.728 C 1492.75 547.633 1708.32 181.694 1920 277.622"
       id="path4568" />
    <path
       style="fill:none;stroke:#ffffff;stroke-width:0.5px;stroke-linecap:butt;stroke-linejoin:miter;stroke-miterlimit:4;stroke-dasharray:none;stroke-opacity:1"
       d="M 0 275.405 C 649.256 645.091 1072.78 180.899 1211.81 304.556 C 1214.32 306.786 1216.81 309.038 1219.27 311.316 C 1482.42 549.363 1708.53 191.878 1920 289.655"
       id="path4570" />
    <path
       style="fill:none;stroke:#ffffff;stroke-width:0.5px;stroke-linecap:butt;stroke-linejoin:miter;stroke-miterlimit:4;stroke-dasharray:none;stroke-opacity:1"
       d="M 0 289.404 C 660.174 657.238 1073.05 180.14 1210.81 305.027 C 1213.29 307.271 1215.74 309.562 1218.16 311.905 C 1472.08 551.093 1708.73 202.061 1920 301.689"
       id="path4572" />
    <path
       style="fill:none;stroke:#ffffff;stroke-width:0.5px;stroke-linecap:butt;stroke-linejoin:miter;stroke-miterlimit:4;stroke-dasharray:none;stroke-opacity:1"
       d="M 0 303.402 C 671.092 669.386 1073.32 179.382 1209.8 305.497 C 1212.25 307.756 1214.67 310.086 1217.05 312.493 C 1461.75 552.824 1708.94 212.245 1920 313.723"
       id="path4574" />
    <path
       style="fill:none;stroke:#ffffff;stroke-width:0.5px;stroke-linecap:butt;stroke-linejoin:miter;stroke-miterlimit:4;stroke-dasharray:none;stroke-opacity:1"
       d="M 0 317.4 C 682.01 681.533 1073.6 178.623 1208.8 305.967 C 1211.22 308.241 1213.6 310.61 1215.94 313.081 C 1451.42 554.554 1709.15 222.428 1920 325.757"
       id="path4576" />
    <path
       style="fill:none;stroke:#ffffff;stroke-width:0.5px;stroke-linecap:butt;stroke-linejoin:miter;stroke-miterlimit:4;stroke-dasharray:none;stroke-opacity:1"
       d="M 0 331.398 C 692.928 693.68 1073.87 177.864 1207.8 306.438 C 1210.19 308.726 1212.53 311.135 1214.83 313.669 C 1441.08 556.285 1709.36 232.611 1920 337.791"
       id="path4578" />
    <path
       style="fill:none;stroke:#ffffff;stroke-width:0.5px;stroke-linecap:butt;stroke-linejoin:miter;stroke-miterlimit:4;stroke-dasharray:none;stroke-opacity:1"
       d="M 0 345.396 C 703.846 705.827 1074.14 177.105 1206.8 306.908 C 1209.15 309.212 1211.46 311.659 1213.72 314.257 C 1430.75 558.015 1709.57 242.795 1920 349.825"
       id="path4580" />
    <path
       style="fill:none;stroke:#ffffff;stroke-width:0.5px;stroke-linecap:butt;stroke-linejoin:miter;stroke-miterlimit:4;stroke-dasharray:none;stroke-opacity:1"
       d="M 0 359.394 C 714.764 717.974 1074.41 176.346 1205.79 307.379 C 1208.12 309.697 1210.39 312.183 1212.61 314.845 C 1420.42 559.746 1709.78 252.978 1920 361.859"
       id="path4582" />
    <path
       style="fill:none;stroke:#ffffff;stroke-width:0.5px;stroke-linecap:butt;stroke-linejoin:miter;stroke-miterlimit:4;stroke-dasharray:none;stroke-opacity:1"
       d="M 0 373.393 C 725.682 730.121 1074.68 175.588 1204.79 307.849 C 1207.09 310.182 1209.32 312.707 1211.5 315.433 C 1410.08 561.476 1709.99 263.162 1920 373.893"
       id="path4584" />
    <path
       style="fill:none;stroke:#ffffff;stroke-width:0.5px;stroke-linecap:butt;stroke-linejoin:miter;stroke-miterlimit:4;stroke-dasharray:none;stroke-opacity:1"
       d="M 0 387.391 C 736.6 742.268 1074.95 174.829 1203.79 308.32 C 1206.05 310.667 1208.25 313.231 1210.39 316.021 C 1399.75 563.206 1710.2 273.345 1920 385.926"
       id="path4586" />
  </g>
</svg>
