<?xml version="1.0" encoding="UTF-8" standalone="no"?>
<!-- Created with Inkscape (http://www.inkscape.org/) -->

<svg
   width="1920"
   height="450"
   viewBox="0 0 1920.0001 450"
   version="1.1"
   id="svg8"
   xmlns="http://www.w3.org/2000/svg"
   xmlns:svg="http://www.w3.org/2000/svg"
   xmlns:rdf="http://www.w3.org/1999/02/22-rdf-syntax-ns#"
   xmlns:cc="http://creativecommons.org/ns#"
   xmlns:dc="http://purl.org/dc/elements/1.1/">
  <defs
     id="defs2" />
  <metadata
     id="metadata5">
    <rdf:RDF>
      <cc:Work
         rdf:about="">
        <dc:format>image/svg+xml</dc:format>
        <dc:type
           rdf:resource="http://purl.org/dc/dcmitype/StillImage" />
      </cc:Work>
    </rdf:RDF>
  </metadata>
  <g
     id="g4269">
    <path
       style="fill:none;stroke:#ffffff;stroke-width:0.5px;stroke-linecap:butt;stroke-linejoin:miter;stroke-miterlimit:4;stroke-dasharray:none;stroke-opacity:1"
       d="M 915.087 0 C 1139.09 369.094 1258.49 333.485 1402.1 226.078 C 1434.62 201.749 1461.27 194.077 1484.78 196.793 C 1599 209.992 1639.11 468.516 1920 253.086"
       id="path4245" />
    <path
       style="fill:none;stroke:#ffffff;stroke-width:0.5px;stroke-linecap:butt;stroke-linejoin:miter;stroke-miterlimit:4;stroke-dasharray:none;stroke-opacity:1"
       d="M 892.553 0 C 1121.31 368.547 1248.53 339.75 1392.9 238.213 C 1425.78 215.164 1453.03 206.829 1477.18 207.811 C 1613.42 202.455 1646.51 460.979 1920 236.765"
       id="path4247" />
    <path
       style="fill:none;stroke:#ffffff;stroke-width:0.5px;stroke-linecap:butt;stroke-linejoin:miter;stroke-miterlimit:4;stroke-dasharray:none;stroke-opacity:1"
       d="M 870.018 0 C 1103.53 367.999 1238.56 346.015 1383.7 250.348 C 1416.93 228.578 1444.8 219.58 1469.58 218.829 C 1627.83 194.919 1653.9 453.441 1920 220.443"
       id="path4249" />
    <path
       style="fill:none;stroke:#ffffff;stroke-width:0.5px;stroke-linecap:butt;stroke-linejoin:miter;stroke-miterlimit:4;stroke-dasharray:none;stroke-opacity:1"
       d="M 847.484 0 C 1085.74 367.452 1228.59 352.28 1374.5 262.483 C 1408.09 241.993 1436.56 232.332 1461.98 229.846 C 1642.25 187.382 1661.29 445.904 1920 204.121"
       id="path4251" />
    <path
       style="fill:none;stroke:#ffffff;stroke-width:0.5px;stroke-linecap:butt;stroke-linejoin:miter;stroke-miterlimit:4;stroke-dasharray:none;stroke-opacity:1"
       d="M 824.949 0 C 1067.96 366.905 1218.62 358.545 1365.3 274.619 C 1399.24 255.408 1428.32 245.084 1454.39 240.864 C 1656.66 179.845 1668.68 438.366 1920 187.8"
       id="path4253" />
    <path
       style="fill:none;stroke:#ffffff;stroke-width:0.5px;stroke-linecap:butt;stroke-linejoin:miter;stroke-miterlimit:4;stroke-dasharray:none;stroke-opacity:1"
       d="M 802.415 0 C 1050.17 366.358 1208.66 364.809 1356.11 286.754 C 1390.4 268.823 1420.09 257.836 1446.79 251.882 C 1671.08 172.309 1676.08 430.828 1920 171.478"
       id="path4255" />
    <path
       style="fill:none;stroke:#ffffff;stroke-width:0.5px;stroke-linecap:butt;stroke-linejoin:miter;stroke-miterlimit:4;stroke-dasharray:none;stroke-opacity:1"
       d="M 779.88 0 C 1032.39 365.811 1198.69 371.074 1346.91 298.889 C 1381.55 282.237 1411.85 270.588 1439.19 262.9 C 1685.49 164.772 1683.47 423.291 1920 155.156"
       id="path4257" />
    <path
       style="fill:none;stroke:#ffffff;stroke-width:0.5px;stroke-linecap:butt;stroke-linejoin:miter;stroke-miterlimit:4;stroke-dasharray:none;stroke-opacity:1"
       d="M 757.346 0 C 1014.61 365.264 1188.72 377.339 1337.71 311.024 C 1372.7 295.652 1403.62 283.34 1431.59 273.918 C 1699.9 157.235 1690.86 415.753 1920 138.835"
       id="path4259" />
    <path
       style="fill:none;stroke:#ffffff;stroke-width:0.5px;stroke-linecap:butt;stroke-linejoin:miter;stroke-miterlimit:4;stroke-dasharray:none;stroke-opacity:1"
       d="M 734.811 0 C 996.823 364.716 1178.75 383.604 1328.51 323.16 C 1363.86 309.067 1395.38 296.091 1424 284.936 C 1714.32 149.699 1698.25 408.216 1920 122.513"
       id="path4261" />
    <path
       style="fill:none;stroke:#ffffff;stroke-width:0.5px;stroke-linecap:butt;stroke-linejoin:miter;stroke-miterlimit:4;stroke-dasharray:none;stroke-opacity:1"
       d="M 712.277 0 C 979.039 364.169 1168.79 389.869 1319.31 335.295 C 1355.01 322.481 1387.14 308.843 1416.4 295.954 C 1728.73 142.162 1705.65 400.678 1920 106.191"
       id="path4263" />
    <path
       style="fill:none;stroke:#ffffff;stroke-width:0.5px;stroke-linecap:butt;stroke-linejoin:miter;stroke-miterlimit:4;stroke-dasharray:none;stroke-opacity:1"
       d="M 689.742 0 C 961.255 363.622 1158.82 396.134 1310.11 347.43 C 1346.17 335.896 1378.91 321.595 1408.8 306.971 C 1743.15 134.625 1713.04 393.14 1920 89.8697"
       id="path4265" />
    <path
       style="fill:none;stroke:#ffffff;stroke-width:0.5px;stroke-linecap:butt;stroke-linejoin:miter;stroke-miterlimit:4;stroke-dasharray:none;stroke-opacity:1"
       d="M 667.208 0 C 943.471 363.075 1148.85 402.399 1300.91 359.566 C 1337.32 349.311 1370.67 334.347 1401.2 317.989 C 1757.56 127.089 1720.43 385.603 1920 73.548"
       id="path4267" />
  </g>
</svg>
