<?xml version="1.0" encoding="UTF-8" standalone="no"?>
<!-- Created with Inkscape (http://www.inkscape.org/) -->

<svg
   width="1920"
   height="450"
   viewBox="0 0 1920.0001 450"
   version="1.1"
   id="svg8"
   sodipodi:docname="line10.svg"
   inkscape:version="1.1 (c68e22c387, 2021-05-23)"
   xmlns:inkscape="http://www.inkscape.org/namespaces/inkscape"
   xmlns:sodipodi="http://sodipodi.sourceforge.net/DTD/sodipodi-0.dtd"
   xmlns="http://www.w3.org/2000/svg"
   xmlns:svg="http://www.w3.org/2000/svg"
   xmlns:rdf="http://www.w3.org/1999/02/22-rdf-syntax-ns#"
   xmlns:cc="http://creativecommons.org/ns#"
   xmlns:dc="http://purl.org/dc/elements/1.1/">
  <sodipodi:namedview
     id="namedview18"
     pagecolor="#ffffff"
     bordercolor="#999999"
     borderopacity="1"
     inkscape:pageshadow="0"
     inkscape:pageopacity="0"
     inkscape:pagecheckerboard="0"
     showgrid="false"
     inkscape:snap-page="true"
     inkscape:zoom="0.71666667"
     inkscape:cx="1083.4884"
     inkscape:cy="167.44186"
     inkscape:window-width="1920"
     inkscape:window-height="1001"
     inkscape:window-x="-9"
     inkscape:window-y="1341"
     inkscape:window-maximized="1"
     inkscape:current-layer="svg8" />
  <defs
     id="defs2" />
  <metadata
     id="metadata5">
    <rdf:RDF>
      <cc:Work
         rdf:about="">
        <dc:format>image/svg+xml</dc:format>
        <dc:type
           rdf:resource="http://purl.org/dc/dcmitype/StillImage" />
      </cc:Work>
    </rdf:RDF>
  </metadata>
  <g
     id="g2611">
    <path
       style="fill:none;stroke:#ffffff;stroke-width:0.5px;stroke-linecap:butt;stroke-linejoin:miter;stroke-miterlimit:4;stroke-dasharray:none;stroke-opacity:1"
       d="M 596.635 450 C 1090.08 54.8926 1126.14 470.432 1345.28 313.993 C 1356.97 305.646 1369.18 295.672 1382.01 283.859 C 1581.17 100.507 1741.66 285.851 1920 91.5786"
       id="path2587" />
    <path
       style="fill:none;stroke:#ffffff;stroke-width:0.5px;stroke-linecap:butt;stroke-linejoin:miter;stroke-miterlimit:4;stroke-dasharray:none;stroke-opacity:1"
       d="M 599.505 450 C 1101.8 59.0757 1123.05 477.184 1345.66 305.154 C 1357.26 296.328 1369.35 286.252 1382.03 274.707 C 1577.9 96.2167 1742.7 296.023 1920 102.88"
       id="path2589" />
    <path
       style="fill:none;stroke:#ffffff;stroke-width:0.5px;stroke-linecap:butt;stroke-linejoin:miter;stroke-miterlimit:4;stroke-dasharray:none;stroke-opacity:1"
       d="M 602.375 450 C 1113.53 63.2587 1119.97 483.937 1346.04 296.315 C 1357.55 287.01 1369.53 276.832 1382.05 265.554 C 1574.62 91.926 1743.73 306.195 1920 114.182"
       id="path2591" />
    <path
       style="fill:none;stroke:#ffffff;stroke-width:0.5px;stroke-linecap:butt;stroke-linejoin:miter;stroke-miterlimit:4;stroke-dasharray:none;stroke-opacity:1"
       d="M 605.246 450 C 1125.25 67.4417 1116.88 490.689 1346.42 287.477 C 1357.83 277.691 1369.7 267.413 1382.06 256.402 C 1571.35 87.6353 1744.77 316.367 1920 125.484"
       id="path2593" />
    <path
       style="fill:none;stroke:#ffffff;stroke-width:0.5px;stroke-linecap:butt;stroke-linejoin:miter;stroke-miterlimit:4;stroke-dasharray:none;stroke-opacity:1"
       d="M 608.116 450 C 1136.97 71.6247 1113.79 497.441 1346.8 278.638 C 1358.12 268.373 1369.87 257.993 1382.08 247.249 C 1568.07 83.3445 1745.81 326.539 1920 136.786"
       id="path2595" />
    <path
       style="fill:none;stroke:#ffffff;stroke-width:0.5px;stroke-linecap:butt;stroke-linejoin:miter;stroke-miterlimit:4;stroke-dasharray:none;stroke-opacity:1"
       d="M 610.986 450 C 1148.69 75.8077 1110.71 504.193 1347.18 269.799 C 1358.41 259.054 1370.04 248.573 1382.1 238.096 C 1564.8 79.0538 1746.84 336.711 1920 148.087"
       id="path2597" />
    <path
       style="fill:none;stroke:#ffffff;stroke-width:0.5px;stroke-linecap:butt;stroke-linejoin:miter;stroke-miterlimit:4;stroke-dasharray:none;stroke-opacity:1"
       d="M 613.857 450 C 1160.41 79.9907 1107.62 510.945 1347.56 260.96 C 1358.7 249.736 1370.21 239.154 1382.12 228.944 C 1561.52 74.7631 1747.88 346.884 1920 159.389"
       id="path2599" />
    <path
       style="fill:none;stroke:#ffffff;stroke-width:0.5px;stroke-linecap:butt;stroke-linejoin:miter;stroke-miterlimit:4;stroke-dasharray:none;stroke-opacity:1"
       d="M 616.727 450 C 1172.13 84.1738 1104.53 517.697 1347.94 252.122 C 1358.99 240.417 1370.38 229.734 1382.13 219.791 C 1558.25 70.4723 1748.92 357.056 1920 170.691"
       id="path2601" />
    <path
       style="fill:none;stroke:#ffffff;stroke-width:0.5px;stroke-linecap:butt;stroke-linejoin:miter;stroke-miterlimit:4;stroke-dasharray:none;stroke-opacity:1"
       d="M 619.597 450 C 1183.86 88.3568 1101.44 524.449 1348.32 243.283 C 1359.28 231.099 1370.55 220.314 1382.15 210.638 C 1554.97 66.1816 1749.96 367.228 1920 181.993"
       id="path2603" />
    <path
       style="fill:none;stroke:#ffffff;stroke-width:0.5px;stroke-linecap:butt;stroke-linejoin:miter;stroke-miterlimit:4;stroke-dasharray:none;stroke-opacity:1"
       d="M 622.467 450 C 1195.58 92.5398 1098.36 531.202 1348.69 234.444 C 1359.56 221.781 1370.72 210.894 1382.17 201.486 C 1551.7 61.8909 1750.99 377.4 1920 193.294"
       id="path2605" />
    <path
       style="fill:none;stroke:#ffffff;stroke-width:0.5px;stroke-linecap:butt;stroke-linejoin:miter;stroke-miterlimit:4;stroke-dasharray:none;stroke-opacity:1"
       d="M 625.338 450 C 1207.3 96.7228 1095.27 537.954 1349.07 225.605 C 1359.85 212.462 1370.89 201.475 1382.18 192.333 C 1548.42 57.6001 1752.03 387.572 1920 204.596"
       id="path2607" />
    <path
       style="fill:none;stroke:#ffffff;stroke-width:0.5px;stroke-linecap:butt;stroke-linejoin:miter;stroke-miterlimit:4;stroke-dasharray:none;stroke-opacity:1"
       d="M 628.208 450 C 1219.02 100.906 1092.18 544.706 1349.45 216.767 C 1360.14 203.144 1371.07 192.055 1382.2 183.181 C 1545.15 53.3094 1753.07 397.744 1920 215.898"
       id="path2609" />
  </g>
</svg>
