<?xml version="1.0" encoding="UTF-8" standalone="no"?><!DOCTYPE svg PUBLIC "-//W3C//DTD SVG 1.1//EN" "http://www.w3.org/Graphics/SVG/1.1/DTD/svg11.dtd"><svg width="100%" height="100%" viewBox="0 0 125 125" version="1.1" xmlns="http://www.w3.org/2000/svg" xmlns:xlink="http://www.w3.org/1999/xlink" xml:space="preserve" xmlns:serif="http://www.serif.com/" style="fill-rule:evenodd;clip-rule:evenodd;stroke-linejoin:round;stroke-miterlimit:2;"><path d="M116.169,33.798c0,10.499 -8.523,19.022 -19.022,19.022c-10.499,0 -19.022,-8.523 -19.022,-19.022c0,-10.499 8.523,-19.022 19.022,-19.022c10.499,0 19.022,8.523 19.022,19.022Z" style="fill:#b52e25;"/><path d="M81.522,91.202c0,10.499 -8.523,19.022 -19.022,19.022c-10.499,-0 -19.022,-8.523 -19.022,-19.022c0,-10.499 8.523,-19.022 19.022,-19.022c10.499,0 19.022,8.523 19.022,19.022Z" style="fill:#b52e25;"/><path d="M46.875,33.798c0,10.499 -8.523,19.022 -19.022,19.022c-10.499,0 -19.022,-8.523 -19.022,-19.022c-0,-10.499 8.523,-19.022 19.022,-19.022c10.499,0 19.022,8.523 19.022,19.022Z" style="fill:#b52e25;"/></svg>