<?xml version="1.0" encoding="UTF-8" standalone="no"?><!DOCTYPE svg PUBLIC "-//W3C//DTD SVG 1.1//EN" "http://www.w3.org/Graphics/SVG/1.1/DTD/svg11.dtd"><svg width="100%" height="100%" viewBox="0 0 2359 2359" version="1.1" xmlns="http://www.w3.org/2000/svg" xmlns:xlink="http://www.w3.org/1999/xlink" xml:space="preserve" xmlns:serif="http://www.serif.com/" style="fill-rule:evenodd;clip-rule:evenodd;stroke-linejoin:round;stroke-miterlimit:2;"><rect id="Artboard1" x="0" y="0" width="2358.88" height="2358.88" style="fill:none;"/><clipPath id="_clip1"><rect id="Artboard11" serif:id="Artboard1" x="0" y="0" width="2358.88" height="2358.88"/></clipPath><g clip-path="url(#_clip1)"><path d="M1193.63,0.103l-14.906,-0.103c-247.118,-0.147 -496.202,76.841 -708.448,236.443c-519.952,391.029 -624.856,1132.16 -233.817,1652.18c228.482,303.837 576.55,465.947 930.206,470.168l12.029,0.083c247.577,0.454 497.225,-76.51 709.881,-236.444l-65.978,-87.731c-472.327,355.183 -1143.22,260.273 -1498.41,-212.043c-355.256,-472.391 -260.263,-1143.29 212.044,-1498.47c472.337,-355.215 1143.28,-260.294 1498.49,212.096l87.71,-65.958c-228.203,-303.468 -575.695,-465.554 -928.804,-470.22Z" style="fill:#f5f5f5;fill-rule:nonzero;"/><path d="M837.626,208.318c-419.069,147.483 -683.086,540.352 -687.747,960.851l-0.057,8.305c-0.328,114.127 18.465,230.143 58.457,343.795c188.46,535.48 777.45,817.766 1312.97,629.306l-31.795,-90.362c-486.518,171.214 -1019.58,-84.346 -1190.82,-570.801c-171.214,-486.403 84.377,-1019.56 570.78,-1190.74c486.413,-171.215 1019.57,84.304 1190.82,570.78l90.331,-31.816c-188.492,-535.479 -777.461,-817.765 -1312.94,-629.316Z" style="fill:#f5f5f5;fill-rule:nonzero;"/></g></svg>