<?xml version="1.0" encoding="UTF-8" standalone="no"?><!DOCTYPE svg PUBLIC "-//W3C//DTD SVG 1.1//EN" "http://www.w3.org/Graphics/SVG/1.1/DTD/svg11.dtd"><svg width="100%" height="100%" viewBox="0 0 1676 500" version="1.1" xmlns="http://www.w3.org/2000/svg" xmlns:xlink="http://www.w3.org/1999/xlink" xml:space="preserve" xmlns:serif="http://www.serif.com/" style="fill-rule:evenodd;clip-rule:evenodd;stroke-linejoin:round;stroke-miterlimit:2;"><rect id="Artboard1" x="0" y="0" width="1675.54" height="500" style="fill:none;"/><clipPath id="_clip1"><rect x="0" y="0" width="1675.54" height="500"/></clipPath><g clip-path="url(#_clip1)"><path d="M253.011,0.022l-3.16,-0.022c-52.38,-0.031 -105.178,16.287 -150.166,50.118c-110.212,82.884 -132.448,239.978 -49.562,350.204c48.431,64.403 122.209,98.765 197.172,99.66l2.55,0.017c52.477,0.097 105.394,-16.217 150.47,-50.118l-13.985,-18.595c-100.117,75.286 -242.323,55.168 -317.611,-44.946c-75.302,-100.131 -55.167,-242.338 44.946,-317.624c100.119,-75.293 242.335,-55.173 317.628,44.957l18.591,-13.981c-48.371,-64.324 -122.027,-98.681 -196.874,-99.67l0.001,-0Z" style="fill:#f5f5f5;fill-rule:nonzero;"/><path d="M177.55,44.156c-88.828,31.261 -144.791,114.536 -145.778,203.667l-0.013,1.761c-0.069,24.19 3.914,48.782 12.391,72.872c39.947,113.503 164.793,173.338 278.304,133.391l-6.739,-19.153c-103.125,36.291 -216.116,-17.879 -252.413,-120.99c-36.291,-103.101 17.885,-216.112 120.986,-252.396c103.103,-36.292 216.114,17.869 252.413,120.986l19.147,-6.744c-39.954,-113.503 -164.795,-173.338 -278.298,-133.394l0,0Z" style="fill:#f5f5f5;fill-rule:nonzero;"/></g></svg>