<?xml version="1.0" encoding="UTF-8" standalone="no"?>
<!-- Created with Inkscape (http://www.inkscape.org/) -->

<svg
   width="35"
   height="35"
   viewBox="0 0 35.000001 35.000001"
   version="1.1"
   id="svg8"
   xmlns="http://www.w3.org/2000/svg"
   xmlns:svg="http://www.w3.org/2000/svg"
   xmlns:rdf="http://www.w3.org/1999/02/22-rdf-syntax-ns#"
   xmlns:cc="http://creativecommons.org/ns#"
   xmlns:dc="http://purl.org/dc/elements/1.1/">
  <defs
     id="defs2" />
  <metadata
     id="metadata5">
    <rdf:RDF>
      <cc:Work
         rdf:about="">
        <dc:format>image/svg+xml</dc:format>
        <dc:type
           rdf:resource="http://purl.org/dc/dcmitype/StillImage" />
      </cc:Work>
    </rdf:RDF>
  </metadata>
  <g
     id="layer1"
     transform="translate(146.84374,4.3604197)"
     style="display:inline">
    <rect
       x="-142.71904"
       y="7.8547673"
       width="9.1265736"
       height="3.6448693"
       style="clip-rule:evenodd;fill:#ffffff;fill-rule:evenodd;stroke-width:0.999996;stroke-linecap:round;stroke-linejoin:round;stroke-miterlimit:1.5;stroke-dasharray:none;fill-opacity:1"
       id="rect926" />
    <rect
       x="-135.83035"
       y="15.284048"
       width="11.286282"
       height="9.7629957"
       style="clip-rule:evenodd;fill:#ffffff;fill-opacity:1;fill-rule:evenodd;stroke-width:0.999996;stroke-linecap:round;stroke-linejoin:round;stroke-miterlimit:1.5;stroke-dasharray:none"
       id="rect930" />
    <path
       d="M -135.83036,25.046973 V 14.160202 l 2.23833,-2.122128 v -0.53851 h -9.12701 v 0.53851 l 2.23781,2.122128 v 10.886771 z"
       style="clip-rule:evenodd;fill:#ffffff;fill-opacity:1;fill-rule:evenodd;stroke-width:0.999996;stroke-linecap:round;stroke-linejoin:round;stroke-miterlimit:1.5;stroke-dasharray:none"
       id="path922" />
    <rect
       x="-132.10854"
       y="14.324525"
       width="3.8439529"
       height="0.95952111"
       style="clip-rule:evenodd;fill:#b4b2b2;fill-rule:evenodd;stroke-width:0.999996;stroke-linecap:round;stroke-linejoin:round;stroke-miterlimit:1.5;stroke-dasharray:none"
       id="rect932" />
    <path
       d="m -138.28338,20.357574 c 0,0 -0.77699,-1.553 -1.02445,-2.068529 -0.24841,-0.515096 -0.0622,-0.63483 0.63531,-0.683025 0.69698,-0.04776 1.04806,0.120237 1.78596,0.671354 0.73833,0.551118 1.95947,1.755076 3.7309,1.547956 0.89186,-0.104027 8.07211,-1.730364 10.46432,-2.315198 2.39177,-0.584473 4.10646,-0.840652 4.72535,-0.1747 0,0 1.60301,-0.439454 1.94355,0.354804 0.34062,0.793753 -0.89731,1.587579 -2.02711,1.93201 -1.1293,0.344502 -11.16633,2.516555 -12.76208,2.914584 -1.59611,0.397525 -1.983,0.233631 -2.7804,0.116563 -0.79792,-0.116563 -3.31044,-0.488081 -3.67598,-0.558322 -0.3651,-0.07024 -0.62033,-0.932001 -0.64983,-1.03783"
       style="clip-rule:evenodd;fill:#ffffff;fill-opacity:1;fill-rule:evenodd;stroke-width:0.999996;stroke-linecap:round;stroke-linejoin:round;stroke-miterlimit:1.5;stroke-dasharray:none"
       id="path936" />
    <path
       d="M -141.52203,7.8547675 V 4.7427072"
       style="clip-rule:evenodd;fill:none;fill-rule:nonzero;stroke:#b4b2b2;stroke-width:0.999996;stroke-linecap:butt;stroke-linejoin:miter;stroke-miterlimit:1.5;stroke-dasharray:none;stroke-opacity:1"
       id="path956" />
    <rect
       x="-140.39725"
       y="1.2321876"
       width="6.755218"
       height="1.674029"
       style="clip-rule:evenodd;fill:#ffffff;fill-rule:evenodd;stroke:#b4b2b2;stroke-width:0.999996;stroke-linecap:butt;stroke-linejoin:miter;stroke-miterlimit:1.5;stroke-dasharray:none;stroke-opacity:1;fill-opacity:1"
       id="rect960" />
    <path
       d="m -134.9757,4.4204487 h -4.08372 c 0,0 -0.2575,0.6897977 -0.2575,1.0225575 0,0.3327598 0.2575,0.9752262 0.2575,0.9752262 h 4.08372 c 0,0 0.27333,-0.6424664 0.27333,-0.9752262 0,-0.3327598 -0.27333,-1.0225575 -0.27333,-1.0225575 z"
       style="clip-rule:evenodd;fill:#ffffff;fill-rule:evenodd;stroke:#b4b2b2;stroke-width:0.999996;stroke-linecap:butt;stroke-linejoin:miter;stroke-miterlimit:1.5;stroke-dasharray:none;stroke-opacity:1;fill-opacity:1"
       id="path962" />
    <path
       d="M -140.48123,25.046973 V 14.160202 l -2.23781,-2.122128 V 7.8547664 h 9.12701 v 4.1833076 l -2.23833,2.122128 v 4.91633"
       style="clip-rule:evenodd;fill:none;fill-rule:nonzero;stroke:#b4b2b2;stroke-width:0.999996;stroke-linecap:butt;stroke-linejoin:miter;stroke-miterlimit:1.5;stroke-dasharray:none;stroke-opacity:1"
       id="path974" />
    <path
       d="m -142.31035,25.046973 h 23.47931"
       style="clip-rule:evenodd;fill:none;fill-rule:nonzero;stroke:#b4b2b2;stroke-width:0.999996;stroke-linecap:butt;stroke-linejoin:miter;stroke-miterlimit:1.5;stroke-dasharray:none;stroke-opacity:1"
       id="path976" />
    <path
       d="m -135.83036,15.284049 h 11.28628 v 2.665537"
       style="clip-rule:evenodd;fill:none;fill-rule:nonzero;stroke:#b4b2b2;stroke-width:0.999996;stroke-linecap:butt;stroke-linejoin:miter;stroke-miterlimit:1.5;stroke-dasharray:none;stroke-opacity:1"
       id="path978" />
    <path
       d="m -124.54364,21.12388 v 3.923093"
       style="clip-rule:evenodd;fill:none;fill-rule:nonzero;stroke:#b4b2b2;stroke-width:0.999996;stroke-linecap:butt;stroke-linejoin:miter;stroke-miterlimit:1.5;stroke-dasharray:none;stroke-opacity:1"
       id="path990" />
    <path
       d="m -135.83036,22.321138 v 2.725835"
       style="clip-rule:evenodd;fill:none;fill-rule:nonzero;stroke:#b4b2b2;stroke-width:0.999996;stroke-linecap:butt;stroke-linejoin:miter;stroke-miterlimit:1.5;stroke-dasharray:none;stroke-opacity:1"
       id="path992" />
    <path
       d="m -119.89073,17.964858 1.92445,-0.629426"
       style="clip-rule:evenodd;fill:none;fill-rule:nonzero;stroke:#767473;stroke-width:0.999996;stroke-linecap:butt;stroke-linejoin:miter;stroke-miterlimit:1.5;stroke-dasharray:none"
       id="path996" />
    <path
       d="m -142.71904,11.499564 h 9.12701"
       style="clip-rule:evenodd;fill:none;fill-rule:nonzero;stroke:#b4b2b2;stroke-width:0.999996;stroke-linecap:butt;stroke-linejoin:miter;stroke-miterlimit:1.5;stroke-dasharray:none;stroke-opacity:1"
       id="path998" />
    <path
       d="m -137.26801,22.095071 c -0.36553,-0.07024 -1.79236,-3.290929 -2.03982,-3.806026 -0.24841,-0.515529 -0.0622,-0.63483 0.6348,-0.683457 0.69706,-0.04733 1.04857,0.120669 1.78647,0.671786 0.73833,0.550614 1.95896,1.755076 3.7309,1.547956 0.89186,-0.104027 8.07211,-1.730797 10.46432,-2.315702 2.39126,-0.583969 4.10646,-0.840581 4.72535,-0.174196 0,0 1.60301,-0.439958 1.94355,0.354804 0.34062,0.793321 -0.89731,1.587147 -2.02755,1.93201 -1.12886,0.343998 -11.16632,2.516555 -12.76164,2.914079 -1.59611,0.397597 -1.983,0.234136 -2.7804,0.116636 -0.79792,-0.116636 -3.31044,-0.488082 -3.67598,-0.55789 z"
       style="clip-rule:evenodd;fill:none;fill-rule:nonzero;stroke:#767473;stroke-width:0.999996;stroke-linecap:square;stroke-linejoin:bevel;stroke-miterlimit:1.5;stroke-dasharray:none"
       id="path986" />
  </g>
  <g
     id="layer2" />
</svg>
