<?xml version="1.0" encoding="UTF-8" standalone="no"?>
<!-- Created with Inkscape (http://www.inkscape.org/) -->

<svg
   width="480"
   height="480"
   viewBox="0 0 480.00001 480.00001"
   version="1.1"
   id="svg8"
   xmlns="http://www.w3.org/2000/svg"
   xmlns:svg="http://www.w3.org/2000/svg"
   xmlns:rdf="http://www.w3.org/1999/02/22-rdf-syntax-ns#"
   xmlns:cc="http://creativecommons.org/ns#"
   xmlns:dc="http://purl.org/dc/elements/1.1/">
  <defs
     id="defs2" />
  <metadata
     id="metadata5">
    <rdf:RDF>
      <cc:Work
         rdf:about="">
        <dc:format>image/svg+xml</dc:format>
        <dc:type
           rdf:resource="http://purl.org/dc/dcmitype/StillImage" />
      </cc:Work>
    </rdf:RDF>
  </metadata>
  <g
     id="layer1"
     transform="translate(146.84374,4.3604197)"
     style="display:inline">
    <path
       id="path63381"
       style="font-variation-settings:normal;clip-rule:evenodd;opacity:1;vector-effect:none;fill:#f4f1f1;fill-opacity:1;fill-rule:nonzero;stroke:none;stroke-width:2.23;stroke-linecap:butt;stroke-linejoin:miter;stroke-miterlimit:1.5;stroke-dasharray:none;stroke-dashoffset:0;stroke-opacity:1;-inkscape-stroke:none;stop-color:#000000;stop-opacity:1"
       d="m 93.16761,70.669084 c -3.22615,0 -6.40837,0.08944 -9.58813,0.245418 -28.3153,34.789358 -49.69834,111.079058 -49.69834,111.079058 -2.8626,8.57222 -7.37091,10.13174 -7.37091,10.13174 0,0 -21.88789,9.36079 -21.88789,-21.97425 10.37963,-40.53677 35.82979,-91.179218 35.82979,-91.179218 0.66561,-2.355028 0.56788,-1.82713 -18.07429,5.706835 -25.58386,40.310163 -44.25892,114.549203 -48.6819,130.660483 -2.5018,11.16287 -8.48109,18.36046 -16.19195,17.39234 -4.78764,0 -15.22806,-5.4374 -13.92357,-24.40772 4.87649,-26.32997 27.11346,-89.39919 27.81577,-91.36215 -33.02489,29.98 -53.57751,72.07362 -53.57751,118.68135 0,91.111 78.50394,164.96711 175.34917,164.96711 96.81934,0 175.32599,-73.85581 175.32599,-164.96711 0,-72.0761 -49.08564,-133.32237 -117.52981,-155.790359 v 0 l -0.45266,0.518715 C 94.95409,145.49893 67.81481,281.83922 67.54194,283.21718 c -1.98546,6.69969 -7.08238,10.33272 -14.37123,10.33272 -3.26817,0 -5.79399,-0.74696 -5.88548,-0.76891 l 0.15797,-2.20807 c 8.61831,-1.17561 11.45836,-12.36691 11.4811,-12.50086 30.54461,-140.58679 75.84077,-196.120715 80.51061,-201.580934 -1.39774,-0.361646 -2.82045,-0.699355 -4.24009,-1.038326 -48.2547,49.53706 -78.36737,192.78464 -80.6254,202.30248 -2.25766,9.52281 -9.17747,13.24376 -11.59244,13.69293 -2.43589,0.43083 -15.77,2.66581 -18.56729,-20.89033 C 48.93025,141.75283 97.34081,70.915045 97.34081,70.915045 c 0.17992,-0.06468 0.45266,-0.131539 0.85877,-0.178278 -1.67406,-0.04358 -3.36354,-0.06708 -5.0321,-0.06708 z" />
    <path
       id="path59585"
       style="font-variation-settings:normal;clip-rule:evenodd;opacity:1;vector-effect:none;fill:#dcd9d8;fill-opacity:1;fill-rule:nonzero;stroke:none;stroke-width:2.23;stroke-linecap:butt;stroke-linejoin:miter;stroke-miterlimit:1.5;stroke-dasharray:none;stroke-dashoffset:0;stroke-opacity:1;-inkscape-stroke:none;stop-color:#000000;stop-opacity:1"
       d="m 240.01172,75.029297 c -3.15648,0 -6.26964,0.09045 -9.38086,0.240234 -13.27476,22.465669 -47.63639,87.562349 -67.18945,190.273439 1.49806,12.61527 6.00416,17.73513 10.2539,19.79492 -1.07341,-2.74088 -1.93381,-6.14547 -2.4414,-10.41992 24.52056,-128.80505 72.92968,-199.642579 72.92968,-199.642579 0.17992,-0.06468 0.45327,-0.130996 0.85938,-0.177735 -1.67406,-0.04358 -3.36269,-0.06836 -5.03125,-0.06836 z m 42.02734,4.783203 c -48.2547,49.53706 -78.36697,192.78489 -80.625,202.30273 -0.43357,1.82882 -1.07457,3.38201 -1.78711,4.80079 3.33715,-1.67284 5.72974,-4.61107 6.94532,-8.7129 0.26577,-1.34212 26.03131,-130.69194 78.70507,-197.597651 -1.07523,-0.268614 -2.15414,-0.534106 -3.23828,-0.792969 z m -95.2539,2.304688 c -1.22343,0.196665 -6.36599,2.363044 -13.76172,5.388671 -8.229,17.726181 -22.25935,49.864181 -29.36914,77.630861 0,14.37281 4.60824,20.1393 9.59375,22.21875 -1.09167,-3.24971 -1.78125,-7.40003 -1.78125,-12.84375 10.37963,-40.53677 35.82812,-91.179689 35.82812,-91.179689 0.24961,-0.883135 0.393,-1.359962 -0.50976,-1.214843 z m -68.54493,39.205082 c -6.14228,5.57597 -11.8507,11.5743 -17.07812,17.93945 -6.984354,21.03594 -15.665064,48.46582 -18.550782,64.04687 -0.97905,14.23767 4.657293,20.8513 9.554688,23.26563 -1.343368,-3.52568 -2.147952,-7.98987 -1.742188,-13.89063 4.87649,-26.32997 27.114092,-89.39836 27.816402,-91.36132 z m 255.72266,12.23046 c 21.10132,27.235 33.5625,60.77814 33.5625,97.07618 0,91.1113 -78.50683,164.96679 -175.32617,164.96679 -53.76434,0 -101.84868,-22.78457 -134.013673,-58.625 31.879633,41.19911 83.511903,68 141.826173,68 96.81934,0 175.32617,-73.85549 175.32617,-164.96679 0,-40.57956 -15.56185,-77.72506 -41.375,-106.45118 z"
       transform="translate(-146.84374,-4.3604197)" />
    <path
       id="path11"
       style="font-variation-settings:normal;clip-rule:evenodd;opacity:1;vector-effect:none;fill:none;fill-opacity:1;fill-rule:nonzero;stroke:#767473;stroke-width:2.23;stroke-linecap:butt;stroke-linejoin:miter;stroke-miterlimit:1.5;stroke-dasharray:none;stroke-dashoffset:0;stroke-opacity:1;-inkscape-stroke:none;stop-color:#000000;stop-opacity:1"
       d="m 93.16761,70.669084 c -3.22615,0 -6.40837,0.08944 -9.58813,0.245418 -28.3153,34.789358 -49.69834,111.079058 -49.69834,111.079058 -2.8626,8.57222 -7.37091,10.13174 -7.37091,10.13174 0,0 -21.88789,9.36079 -21.88789,-21.97425 10.37963,-40.53677 35.82979,-91.179218 35.82979,-91.179218 0.66561,-2.355028 0.56788,-1.82713 -18.07429,5.706835 -25.58386,40.310163 -44.25892,114.549203 -48.6819,130.660483 -2.5018,11.16287 -8.48109,18.36046 -16.19195,17.39234 -4.78764,0 -15.22806,-5.4374 -13.92357,-24.40772 4.87649,-26.32997 27.11346,-89.39919 27.81577,-91.36215 -33.02489,29.98 -53.57751,72.07362 -53.57751,118.68135 0,91.111 78.50394,164.96711 175.34917,164.96711 96.81934,0 175.32599,-73.85581 175.32599,-164.96711 0,-72.0761 -49.08564,-133.32237 -117.52981,-155.790359 v 0 l -0.45266,0.518715 C 94.95409,145.49893 67.81481,281.83922 67.54194,283.21718 c -1.98546,6.69969 -7.08238,10.33272 -14.37123,10.33272 -3.26817,0 -5.79399,-0.74696 -5.88548,-0.76891 l 0.15797,-2.20807 c 8.61831,-1.17561 11.45836,-12.36691 11.4811,-12.50086 30.54461,-140.58679 75.84077,-196.120715 80.51061,-201.580934 -1.39774,-0.361646 -2.82045,-0.699355 -4.24009,-1.038326 -48.2547,49.53706 -78.36737,192.78464 -80.6254,202.30248 -2.25766,9.52281 -9.17747,13.24376 -11.59244,13.69293 -2.43589,0.43083 -15.77,2.66581 -18.56729,-20.89033 C 48.93025,141.75283 97.34081,70.915045 97.34081,70.915045 c 0.17992,-0.06468 0.45266,-0.131539 0.85877,-0.178278 -1.67406,-0.04358 -3.36354,-0.06708 -5.0321,-0.06708 z" />
    <path
       id="rect49329"
       style="font-variation-settings:normal;display:inline;opacity:1;vector-effect:none;fill:#dedcdb;fill-opacity:1;stroke:none;stroke-width:2.23;stroke-linecap:butt;stroke-linejoin:miter;stroke-miterlimit:1.5;stroke-dasharray:none;stroke-dashoffset:0;stroke-opacity:1;-inkscape-stroke:none;stop-color:#000000;stop-opacity:1"
       d="m 146.75032,219.10664 v 33.82812 h 4.67774 v -33.82812 z m -57.142585,0.58008 -7.85351,33.375 h 4.93359 l 4.22071,-19.61133 9.841785,20.84765 9.9629,-20.91211 4.02539,19.67579 h 5 l -7.92187,-33.375 -10.97462,24.22265 z m 81.578135,0.4746 c -1.71725,0 -3.11328,1.39576 -3.11328,3.11719 0,1.72104 1.39603,3.11524 3.11328,3.11524 1.7179,0 3.12109,-1.3942 3.12109,-3.11524 0,-1.72143 -1.40319,-3.11719 -3.12109,-3.11719 z m -13.46289,4.33204 v 7.81445 h -3.63477 v 3.70898 h 3.63477 v 16.91797 h 4.80859 v -16.91797 h 3.70508 v -3.70898 h -3.70508 v -7.81445 z m -36.15039,7.81445 c 0,0 0.0278,7.05027 0,13.29101 -0.0197,6.23055 5.89453,7.85743 5.89453,7.85743 h 8.37305 c 0,0 5.46167,-1.30386 5.65429,-6.88672 v -14.26172 h -4.68359 v 12.57422 c 0,0 0.0771,5.06654 -4.9961,4.61133 -5.06425,-0.45641 -5.25781,-2.72906 -5.25781,-4.22266 0,-1.49033 -0.12695,-12.96289 -0.12695,-12.96289 z m 47.10742,0 v 20.62695 h 5.01758 v -20.62695 z m -85.714845,23.63672 v 36.46679 h 10.82031 v -36.46679 z m 46.490235,3.7207 v 7.27344 h -3.54102 v 7.00976 h 3.54102 v 18.79102 h 9.86914 v -18.79102 h 3.38281 v -7.09765 h -3.63672 v -7.18555 z m 53.46094,6.32031 c -2.63552,-0.12398 -5.8851,0.81864 -9.53711,4.1543 -4.93981,6.10598 -2.46959,16.30232 -0.39063,18.05664 0,0 3.4644,5.0411 11.0586,3.7207 0,0 4.03317,-1.09858 5.72265,-2.58789 0,0 0.0415,3.90086 -0.81054,5.16211 -1.50661,2.23879 -4.26542,2.19219 -5.8086,1.33203 -0.98572,-0.54671 -1.20312,-1.78515 -1.20312,-1.78515 h -10.39063 c 0,0 0.97705,8.24249 10.46289,8.89062 0,0 14.08111,1.23794 16.9375,-8.30468 V 266.8957 h -9.02539 l 0.0625,2.46875 c 0,0 -2.68556,-3.17214 -7.07812,-3.37891 z m -65.83985,0.0371 c -1.06753,-0.12645 -2.27333,-0.12285 -3.63672,0.0508 -6.25415,1.55818 -6.57421,4.32618 -6.57421,4.32618 v -3.63282 l -9.007825,0.084 v 25.56054 h 9.435555 v -13.52539 c 0,0 0.26245,-5.37109 4.24219,-5.37109 3.46593,0 3.98753,4.5039 3.81445,6.49414 -0.17846,1.99664 0,12.40234 0,12.40234 h 9.86524 v -18.23632 c 0,0 -0.66561,-7.2663 -8.13868,-8.15235 z m 116.5,0.0195 c -0.68798,0.0127 -1.42549,0.10242 -2.21289,0.28711 -6.30477,1.47836 -9.93737,4.60839 -9.80468,12.94336 0.12252,8.33552 2.79101,10.87087 6.88085,12.94336 4.54363,1.82319 8.37896,0.65103 10.25586,-0.77344 1.88181,-1.43052 2.08008,-1.94921 2.08008,-1.94921 v 2.72265 h 9.02344 v -25.36523 h -9.12695 l 0.10351,2.70508 c 0,0 -2.3837,-3.60288 -7.19922,-3.51368 z m -77.58203,0.20508 c -10.17312,0.25709 -13.72749,8.74345 -13.80859,13.33008 -0.0848,4.58674 2.94423,13.24775 13.76953,13.59375 10.81392,0.34537 12.72461,-6.57813 12.72461,-6.57813 l -7.36328,-3.03124 c -0.51133,1.21001 -0.51232,3.03124 -5.10742,3.03124 -4.58244,0 -4.78125,-4.8496 -4.78125,-4.8496 h 18.3789 c 0.51642,-8.05268 -3.64193,-15.75676 -13.8125,-15.4961 z m 65.37891,0.11328 c -2.07719,-0.1564 -6.61249,0.0465 -9.66602,4.16992 v -3.67968 l -9.08984,0.26172 v 25.10156 h 9.60937 v -12.28906 c 0,0 0.1272,-7.01705 9.39649,-4.5 l 0.86133,-8.91993 c 0,0 -0.419,-0.0924 -1.11133,-0.14453 z m -65.65039,6.04297 c 0.11188,-0.001 0.22708,0.002 0.3457,0.008 3.80205,0.19274 4.12695,3.31836 4.12695,3.31836 h -8.24804 c 0,0 0.30469,-3.29537 3.77539,-3.32617 z m 80.41601,1.44141 c 4.93275,-0.005 4.89454,6.42578 4.89454,6.42578 -1e-5,0 0.71772,4.48084 -4.60938,4.74023 -5.64538,0.28048 -5.25586,-5.06836 -5.25586,-5.06836 -0.18373,-1.6847 -0.78372,-6.23264 4.9707,-6.09765 z m -50.82226,0.2207 h 0.39648 c 2.20633,0.0295 4.80361,1.85563 4.67383,5.58789 -0.129,3.73959 -3.05257,5.22441 -5.66016,5.16211 -3.70735,0.12954 -4.40234,-3.76562 -4.40234,-3.76562 -0.97669,-4.80252 2.46875,-6.56055 2.46875,-6.56055 0,0 0.62742,-0.39903 2.52344,-0.42383 z" />
  </g>
  <g
     id="layer2" />
</svg>
