<?xml version="1.0" encoding="UTF-8" standalone="no"?>
<!-- Created with Inkscape (http://www.inkscape.org/) -->

<svg
   width="64"
   height="64"
   viewBox="0 0 64.000003 64"
   version="1.1"
   id="svg8"
   inkscape:version="1.1 (c68e22c387, 2021-05-23)"
   sodipodi:docname="icon_mitg.svg"
   xmlns:inkscape="http://www.inkscape.org/namespaces/inkscape"
   xmlns:sodipodi="http://sodipodi.sourceforge.net/DTD/sodipodi-0.dtd"
   xmlns:xlink="http://www.w3.org/1999/xlink"
   xmlns="http://www.w3.org/2000/svg"
   xmlns:svg="http://www.w3.org/2000/svg"
   xmlns:rdf="http://www.w3.org/1999/02/22-rdf-syntax-ns#"
   xmlns:cc="http://creativecommons.org/ns#"
   xmlns:dc="http://purl.org/dc/elements/1.1/">
  <defs
     id="defs2">
    <linearGradient
       inkscape:collect="always"
       id="linearGradient5602">
      <stop
         style="stop-color:#4c0500;stop-opacity:1"
         offset="0"
         id="stop5598" />
      <stop
         style="stop-color:#b52e25;stop-opacity:1"
         offset="1"
         id="stop5600" />
    </linearGradient>
    <linearGradient
       inkscape:collect="always"
       xlink:href="#linearGradient5602"
       id="linearGradient2745"
       x1="47.311954"
       y1="58.338043"
       x2="18.243168"
       y2="9.4222956"
       gradientUnits="userSpaceOnUse" />
  </defs>
  <sodipodi:namedview
     id="base"
     pagecolor="#e5e5e5"
     bordercolor="#666666"
     borderopacity="0"
     inkscape:pageopacity="0"
     inkscape:pageshadow="2"
     inkscape:zoom="6.6327159"
     inkscape:cx="42.365752"
     inkscape:cy="34.827362"
     inkscape:document-units="px"
     inkscape:current-layer="layer2"
     showgrid="false"
     fit-margin-top="0"
     fit-margin-left="0"
     fit-margin-right="0"
     fit-margin-bottom="0"
     inkscape:showpageshadow="true"
     borderlayer="true"
     inkscape:window-width="1920"
     inkscape:window-height="1001"
     inkscape:window-x="-9"
     inkscape:window-y="-9"
     inkscape:window-maximized="1"
     inkscape:pagecheckerboard="false"
     scale-x="1"
     showborder="false"
     units="px" />
  <metadata
     id="metadata5">
    <rdf:RDF>
      <cc:Work
         rdf:about="">
        <dc:format>image/svg+xml</dc:format>
        <dc:type
           rdf:resource="http://purl.org/dc/dcmitype/StillImage" />
      </cc:Work>
    </rdf:RDF>
  </metadata>
  <g
     inkscape:groupmode="layer"
     id="layer2"
     inkscape:label="Layer 1">
    <path
       id="path2413"
       style="fill:url(#linearGradient2745);fill-opacity:1;stroke-width:0.3;stop-color:#000000"
       sodipodi:type="inkscape:offset"
       inkscape:radius="0"
       inkscape:original="M 32 0 A 32 32 0 0 0 0 32 A 32 32 0 0 0 32 64 A 32 32 0 0 0 64 32 A 32 32 0 0 0 32 0 z "
       d="M 32,0 A 32,32 0 0 0 0,32 32,32 0 0 0 32,64 32,32 0 0 0 64,32 32,32 0 0 0 32,0 Z" />
    <path
       d="m 52.312658,48.72623 h -8.521992 l -1.966414,-14.4629 c -0.166683,-1.294447 -0.289102,-2.43002 -0.364632,-3.404109 -0.106783,-0.961068 -0.213568,-2.323233 -0.320357,-4.091702 -0.273473,1.58355 -0.700615,3.352019 -1.27882,5.300198 -0.122404,0.382865 -0.213567,0.711035 -0.273473,0.984511 L 35.039478,48.72623 H 28.960526 L 24.415638,33.052228 c -0.04689,-0.260452 -0.138049,-0.588622 -0.276079,-0.984511 -0.638108,-2.054966 -1.057437,-3.823435 -1.255381,-5.300198 -0.122402,1.674706 -0.237023,2.924877 -0.343796,3.747905 -0.04428,0.427141 -0.114593,1.052225 -0.205758,1.872651 -0.09116,0.823027 -0.158875,1.448112 -0.205758,1.875255 l -1.96381,14.4629 h -8.477714 l 5.164764,-33.45246 h 9.024666 l 5.050165,17.252346 c 0.09116,0.320354 0.151065,0.526112 0.182302,0.617269 0.440163,1.429882 0.737081,2.742562 0.890746,3.930222 0.03127,-0.411514 0.145859,-1.083479 0.343797,-2.010691 0.0599,-0.229187 0.289102,-1.088689 0.68499,-2.583683 l 5.09444,-17.205463 h 9.048105 z"
       style="clip-rule:evenodd;fill:#ffffff;fill-opacity:1;fill-rule:nonzero;stroke-width:0.990501;stroke-linejoin:round;stroke-miterlimit:2"
       id="path2021" />
  </g>
</svg>
