<?xml version="1.0" encoding="utf-8"?>
<!-- Generator: Adobe Illustrator 24.3.0, SVG Export Plug-In . SVG Version: 6.00 Build 0)  -->
<svg version="1.1" id="Layer_1" xmlns="http://www.w3.org/2000/svg" xmlns:xlink="http://www.w3.org/1999/xlink" x="0px" y="0px"
	 viewBox="0 0 95 39.76" style="enable-background:new 0 0 95 39.76;" xml:space="preserve">
<style type="text/css">
	.st0{fill:#EF0012;}
	.st1{fill:#FFFFFF;}
	.st2{fill:#303F49;}
</style>
<g>
	<rect x="0.02" class="st0" width="94.98" height="27.34"/>
	<path class="st1" d="M13.22,10.33c0-0.51,0.45-0.8,1.46-0.8c0.45,0,0.86,0.08,1.19,0.25c0.33,0.17,0.58,0.47,0.66,0.95h4.36
		c-0.33-2.45-2.1-4.43-5.99-4.43c-3.5,0-6.07,1.5-6.07,4.47c0,5.35,8.05,3.89,8.05,6.01c0,0.66-0.76,1.03-1.91,1.03
		c-0.45,0-0.93-0.12-1.3-0.35c-0.39-0.23-0.66-0.6-0.76-1.11h-4.4c0.1,2.53,2.51,4.69,6.2,4.69c3.85,0,6.55-1.57,6.55-4.82
		C21.27,11.12,13.22,12.43,13.22,10.33z"/>
	<rect x="22.42" y="6.67" class="st1" width="4.59" height="14"/>
	<path class="st1" d="M63.34,6.67l-4.86,13.56c-0.46-0.07-0.51-0.71-0.51-2.44c0-2.82-0.89-3.17-2.37-3.71
		c1.63-0.45,2.35-1.81,2.35-3.42c0-2.72-1.54-3.99-6.2-3.99h-6.61v14.01h4.59V15.8h1.4c2.14,0,2.45,0.6,2.45,2.43
		c0,1.24,0.12,2.14,0.23,2.45h4.65l0,0h4.36l0.53-1.85h4.57l0.54,1.85h4.57l-5.02-14h-4.67V6.67z M51.53,12.72h-1.81V9.94h2.14
		c1.07,0,1.85,0.47,1.85,1.46C53.71,12.37,52.95,12.72,51.53,12.72z M64.38,16.07l1.42-5.02l1.48,5.02H64.38z"/>
	<polygon class="st1" points="36.07,15.4 33.6,6.67 28.05,6.67 28.05,20.67 32.18,20.67 32.18,15.93 32.08,13.75 31.88,11.69 
		31.92,11.69 34.47,20.67 37.66,20.67 40.21,11.69 40.25,11.69 40.01,14.22 39.96,16.39 39.96,20.67 44.08,20.67 44.08,6.67 
		38.54,6.67 	"/>
	<path class="st1" d="M79.19,6.67h-6.15v14h6.03c4.49,0,7.43-2.02,7.43-7.3C86.5,8.77,83.7,6.67,79.19,6.67z M78.61,17.4h-0.97V9.94
		h0.87c2.45,0,3.4,0.78,3.4,3.69C81.91,16.28,80.74,17.4,78.61,17.4z"/>
	<path class="st1" d="M88.56,7.86c0,0.74-0.58,1.32-1.34,1.32c-0.75,0-1.34-0.58-1.34-1.32c0-0.72,0.6-1.3,1.34-1.3
		C87.98,6.55,88.56,7.13,88.56,7.86z M86.21,7.86c0,0.56,0.4,1.01,0.95,1.04c0.55,0.03,1.03-0.42,1.06-0.97
		c0.03-0.61-0.4-1.11-1-1.11C86.64,6.82,86.21,7.28,86.21,7.86z M87.01,8.54h-0.3v-1.3C86.83,7.21,87,7.2,87.21,7.2
		c0.25,0,0.36,0.04,0.45,0.1c0.07,0.06,0.13,0.16,0.13,0.29c0,0.14-0.11,0.25-0.27,0.3V7.9c0.13,0.05,0.2,0.14,0.24,0.32
		c0.04,0.2,0.06,0.28,0.1,0.33h-0.33c-0.04-0.05-0.06-0.17-0.1-0.32c-0.02-0.14-0.1-0.21-0.27-0.21h-0.14L87.01,8.54L87.01,8.54z
		 M87.02,7.8h0.14c0.17,0,0.3-0.06,0.3-0.19c0-0.12-0.09-0.2-0.28-0.2c-0.08,0-0.14,0.01-0.17,0.02L87.02,7.8L87.02,7.8z"/>
	<g>
		<path class="st2" d="M0.61,39.67l2.05-4.89H0V33.9h3.81v0.69l-2.06,5.08H0.61z"/>
		<path class="st2" d="M6.11,36.05c0.51,0,0.93,0.15,1.25,0.45s0.48,0.73,0.48,1.28c0,0.62-0.18,1.1-0.54,1.45
			c-0.36,0.35-0.89,0.52-1.59,0.52c-0.29,0-0.56-0.03-0.81-0.08c-0.25-0.05-0.47-0.13-0.65-0.23v-0.9c0.19,0.11,0.42,0.2,0.68,0.27
			s0.51,0.1,0.74,0.1c0.33,0,0.6-0.08,0.79-0.25s0.29-0.43,0.29-0.78c0-0.32-0.09-0.56-0.27-0.73C6.29,36.97,6,36.89,5.62,36.89
			c-0.13,0-0.28,0.01-0.43,0.04c-0.15,0.03-0.29,0.05-0.4,0.08l-0.44-0.24l0.21-2.86h2.91v0.89H5.49l-0.1,1.33
			c0.12-0.02,0.24-0.03,0.35-0.05C5.84,36.06,5.96,36.05,6.11,36.05z"/>
		<path class="st2" d="M12.27,36.45l1.16-2.54h1.17l-1.79,3.52v2.25h-1.08v-2.21l-1.8-3.56h1.18L12.27,36.45z"/>
		<path class="st2" d="M18.27,39.67h-3.11V33.9h3.11v0.86h-2.03v1.47h1.9v0.86h-1.9v1.7h2.03V39.67z"/>
		<path class="st2" d="M22.93,39.67l-0.44-1.53h-1.97l-0.44,1.53H18.9l1.94-5.79h1.3l1.95,5.79H22.93z M22.22,37.26l-0.46-1.49
			c-0.04-0.13-0.08-0.3-0.14-0.5c-0.05-0.2-0.1-0.38-0.13-0.55c-0.04,0.2-0.08,0.39-0.13,0.57s-0.09,0.34-0.13,0.48l-0.45,1.49
			H22.22z"/>
		<path class="st2" d="M26.42,33.91c0.72,0,1.25,0.14,1.59,0.42s0.52,0.71,0.52,1.28c0,0.42-0.1,0.75-0.29,0.99
			c-0.2,0.24-0.43,0.42-0.71,0.54l1.55,2.54h-1.23L26.6,37.4h-0.7v2.28h-1.08v-5.77H26.42z M26.37,34.77h-0.48v1.78h0.49
			c0.69,0,1.04-0.3,1.04-0.91c0-0.31-0.09-0.53-0.26-0.67C26.99,34.84,26.73,34.77,26.37,34.77z"/>
		<path class="st2" d="M33.06,38.1c0,0.51-0.17,0.92-0.52,1.21c-0.35,0.3-0.85,0.44-1.5,0.44c-0.32,0-0.6-0.03-0.86-0.08
			c-0.25-0.05-0.49-0.13-0.7-0.24v-0.97c0.24,0.11,0.5,0.21,0.79,0.29c0.28,0.09,0.56,0.13,0.83,0.13c0.3,0,0.52-0.07,0.67-0.21
			c0.14-0.14,0.21-0.31,0.21-0.53c0-0.24-0.09-0.43-0.26-0.57c-0.18-0.15-0.46-0.3-0.84-0.45c-0.25-0.1-0.47-0.22-0.67-0.37
			c-0.2-0.14-0.36-0.32-0.48-0.54c-0.12-0.22-0.18-0.49-0.18-0.82c0-0.49,0.17-0.88,0.51-1.16s0.79-0.42,1.35-0.42
			c0.31,0,0.6,0.03,0.86,0.1c0.26,0.06,0.51,0.16,0.74,0.27l-0.34,0.83c-0.22-0.1-0.44-0.18-0.65-0.24
			c-0.22-0.06-0.43-0.09-0.64-0.09c-0.25,0-0.44,0.06-0.57,0.19c-0.13,0.12-0.19,0.29-0.19,0.49c0,0.16,0.04,0.29,0.11,0.4
			c0.08,0.11,0.19,0.21,0.36,0.3s0.37,0.2,0.63,0.33c0.29,0.13,0.53,0.27,0.73,0.42c0.2,0.15,0.36,0.32,0.46,0.52
			C33,37.55,33.06,37.8,33.06,38.1z"/>
		<path class="st2" d="M40.66,36.78c0,0.6-0.09,1.12-0.28,1.56c-0.19,0.44-0.47,0.79-0.85,1.04c-0.38,0.25-0.86,0.37-1.44,0.37
			c-0.59,0-1.07-0.12-1.45-0.37s-0.66-0.59-0.85-1.04s-0.28-0.97-0.28-1.57c0-0.59,0.09-1.11,0.28-1.56
			c0.19-0.44,0.47-0.79,0.85-1.03c0.38-0.24,0.87-0.37,1.45-0.37s1.05,0.12,1.43,0.37s0.66,0.59,0.85,1.03
			C40.56,35.66,40.66,36.19,40.66,36.78z M36.66,36.78c0,0.65,0.11,1.16,0.34,1.53s0.59,0.56,1.09,0.56c0.51,0,0.87-0.19,1.09-0.56
			c0.22-0.37,0.33-0.88,0.33-1.53c0-0.65-0.11-1.16-0.33-1.53s-0.58-0.56-1.08-0.56c-0.51,0-0.87,0.19-1.1,0.56
			C36.77,35.62,36.66,36.13,36.66,36.78z"/>
		<path class="st2" d="M42.55,39.67h-1.07V33.9h3.11v0.86h-2.04v1.7h1.9v0.86h-1.9V39.67z"/>
		<path class="st2" d="M49.28,39.67h-2.4v-0.59l0.66-0.26v-4.06l-0.66-0.27V33.9h2.4v0.59l-0.65,0.27v4.06l0.65,0.26V39.67z"/>
		<path class="st2" d="M54.84,39.67h-1.37l-2.43-4.52h-0.03c0.01,0.24,0.02,0.5,0.04,0.78c0.01,0.28,0.02,0.56,0.03,0.84v2.91h-0.97
			v-5.77h1.36l2.42,4.49h0.03c-0.01-0.22-0.02-0.46-0.04-0.74c-0.01-0.28-0.02-0.55-0.02-0.82v-2.93h0.98
			C54.84,33.91,54.84,39.67,54.84,39.67z"/>
		<path class="st2" d="M60.56,39.67h-1.37l-2.43-4.52h-0.03c0.01,0.24,0.02,0.5,0.04,0.78s0.02,0.56,0.03,0.84v2.91h-0.97v-5.77
			h1.36l2.42,4.49h0.03c-0.01-0.22-0.02-0.46-0.04-0.74c-0.01-0.28-0.02-0.55-0.02-0.82v-2.93h0.98
			C60.56,33.91,60.56,39.67,60.56,39.67z"/>
		<path class="st2" d="M66.64,36.78c0,0.6-0.09,1.12-0.28,1.56c-0.19,0.44-0.47,0.79-0.85,1.04s-0.86,0.37-1.44,0.37
			c-0.59,0-1.07-0.12-1.45-0.37s-0.66-0.59-0.85-1.04s-0.28-0.97-0.28-1.57c0-0.59,0.09-1.11,0.28-1.56
			c0.19-0.44,0.47-0.79,0.85-1.03c0.38-0.24,0.87-0.37,1.45-0.37s1.05,0.12,1.43,0.37s0.66,0.59,0.85,1.03
			C66.55,35.66,66.64,36.19,66.64,36.78z M62.65,36.78c0,0.65,0.11,1.16,0.34,1.53s0.59,0.56,1.09,0.56c0.51,0,0.87-0.19,1.09-0.56
			c0.22-0.37,0.33-0.88,0.33-1.53c0-0.65-0.11-1.16-0.33-1.53s-0.58-0.56-1.08-0.56c-0.51,0-0.87,0.19-1.1,0.56
			C62.76,35.62,62.65,36.13,62.65,36.78z"/>
		<path class="st2" d="M71.75,33.91l-1.86,5.77h-1.2l-1.85-5.77H68l1.01,3.53c0.03,0.1,0.06,0.22,0.1,0.38
			c0.04,0.15,0.08,0.31,0.11,0.47s0.06,0.3,0.08,0.42c0.02-0.12,0.04-0.26,0.08-0.42c0.03-0.16,0.07-0.32,0.11-0.47
			s0.07-0.28,0.1-0.38l1-3.53H71.75z"/>
		<path class="st2" d="M75.65,39.67l-0.44-1.53h-1.97l-0.44,1.53h-1.16l1.94-5.79h1.3l1.95,5.79H75.65z M74.94,37.26l-0.46-1.49
			c-0.04-0.13-0.08-0.3-0.14-0.5c-0.05-0.2-0.1-0.38-0.13-0.55c-0.04,0.2-0.08,0.39-0.13,0.57c-0.05,0.18-0.09,0.34-0.13,0.48
			l-0.45,1.49H74.94z"/>
		<path class="st2" d="M78.88,39.67h-1.09v-4.9h-1.5V33.9h4.09v0.87h-1.49v4.9H78.88z"/>
		<path class="st2" d="M83.55,39.67h-2.4v-0.59l0.66-0.26v-4.06l-0.66-0.27V33.9h2.4v0.59l-0.65,0.27v4.06l0.65,0.26V39.67z"/>
		<path class="st2" d="M89.27,36.78c0,0.6-0.09,1.12-0.28,1.56c-0.19,0.44-0.47,0.79-0.85,1.04s-0.86,0.37-1.44,0.37
			c-0.59,0-1.07-0.12-1.45-0.37s-0.66-0.59-0.85-1.04s-0.28-0.97-0.28-1.57c0-0.59,0.09-1.11,0.28-1.56
			c0.19-0.44,0.47-0.79,0.85-1.03c0.38-0.24,0.87-0.37,1.45-0.37c0.58,0,1.05,0.12,1.43,0.37s0.66,0.59,0.85,1.03
			C89.18,35.66,89.27,36.19,89.27,36.78z M85.27,36.78c0,0.65,0.11,1.16,0.34,1.53c0.23,0.37,0.59,0.56,1.09,0.56
			c0.51,0,0.87-0.19,1.09-0.56c0.22-0.37,0.33-0.88,0.33-1.53c0-0.65-0.11-1.16-0.33-1.53s-0.58-0.56-1.08-0.56
			c-0.51,0-0.87,0.19-1.1,0.56C85.39,35.62,85.27,36.13,85.27,36.78z"/>
		<path class="st2" d="M95,39.67h-1.37l-2.43-4.52h-0.03c0.01,0.24,0.02,0.5,0.04,0.78s0.02,0.56,0.03,0.84v2.91h-0.97v-5.77h1.36
			l2.42,4.49h0.03c-0.01-0.22-0.02-0.46-0.04-0.74c-0.01-0.28-0.02-0.55-0.02-0.82v-2.93H95V39.67z"/>
	</g>
</g>
</svg>
